<?xml version="1.0" ?><!DOCTYPE svg  PUBLIC '-//W3C//DTD SVG 1.1//EN'  'http://www.w3.org/Graphics/SVG/1.1/DTD/svg11.dtd'><svg enable-background="new 0 0 64 64" height="64px" id="Layer_1" version="1.1" viewBox="0 0 64 64" width="64px" xml:space="preserve" xmlns="http://www.w3.org/2000/svg" xmlns:xlink="http://www.w3.org/1999/xlink"><g><g><g><g><path clip-rule="evenodd" d="M1,26.4c1-0.1,2.2,0,3.3,0c0.4,2.1,0.8,4.2,1.2,6.3      c0.7-2,1.2-4.2,1.8-6.3c1.1,0,2.2,0,3.2,0c0.6,2.1,1.2,4.2,1.7,6.3c0.5-2,0.8-4.2,1.2-6.3c1.1,0,2.2,0,3.3,0      c-0.9,3.8-1.7,7.6-2.5,11.4c-1.1,0-2.2,0-3.4,0c-0.6-2.3-1.4-4.6-2-6.8c-0.7,2.2-1.3,4.6-2.1,6.8c-1.1,0-2.2,0-3.4,0      C2.7,33.9,1.9,30.1,1,26.4z" fill="#14A0EF" fill-rule="evenodd"/></g></g><g><g><path clip-rule="evenodd" d="M2.3,26.4c1-0.1,1,0,2,0c0.4,2.1,0.8,4.2,1.2,6.3      c0.7-2,1.2-4.2,1.8-6.3c1.1,0,2.2,0,3.2,0c0.6,2.1,1.2,4.2,1.7,6.3c0.5-2,0.8-4.2,1.2-6.3c1.1,0,2.2,0,3.3,0      c-0.9,3.8-1.7,7.6-2.5,11.4c-1.1,0-2.2,0-3.4,0c-0.6-2.3-1.4-4.6-2-6.8c-0.7,2.2-1.3,4.6-2.1,6.8c-1.1,0-2.2,0-3.4,0      C2.7,33.9,3.1,30.1,2.3,26.4z" fill="#1B7EC1" fill-rule="evenodd"/></g></g><g><g><path clip-rule="evenodd" d="M23.2,26.3c0.3,0,0.6,0,1,0c3.9,0.2,5.8,2.4,5.6,6.7      c-2.7,0-5.3,0-8,0c0,1.7,1.4,2.7,2.9,2.1c0.7-0.3,1-0.8,1-0.8l3.8,0.4c0,0.2-0.1,0.4-0.3,0.6c-1,1.4-2.5,2.4-4.9,2.4      c-0.4,0-0.7,0-1.1,0c-3.2-0.1-5.3-2-5.5-5.1C17.5,28.8,19.7,26.6,23.2,26.3z M22.5,29.3c-0.4,0.4-0.6,1-0.7,1.8c1.3,0,2.6,0,4,0      C25.9,29.2,23.8,28.1,22.5,29.3z" fill="#14A0EF" fill-rule="evenodd"/></g></g><g><g><path clip-rule="evenodd" d="M31.8,26.4c0,0,6.4-0.6,8.2,0.5c0.9,0.6,1.3,1.6,1.3,2.9      c0,3.1-2.5,3.9-6,3.6l0,4.1h-3.5V26.4z M38,29.9c0-1.2-1.3-1.4-2.6-1.3c-0.1,0.8,0,1.7,0,2.5C36.7,31.3,38,31.1,38,29.9z" fill="#14A0EF" fill-rule="evenodd"/></g></g><g><g><path clip-rule="evenodd" d="M44.6,26.4h3.8l4.2,11.2l-3.6,0l-0.5-1.8h-4l-0.6,1.8h-3.5      L44.6,26.4z M45.2,33.4h2.5l-1.3-4.1L45.2,33.4z" fill="#14A0EF" fill-rule="evenodd"/></g></g><g><g><polygon clip-rule="evenodd" fill="#14A0EF" fill-rule="evenodd" points="50.9,26.5 54.7,26.4 57,30.2 59.3,26.4 63,26.4       58.8,32.9 58.8,37.6 55.3,37.6 55.3,33     "/></g></g></g><g><g><g><path clip-rule="evenodd" d="M29.5,34.7c0,0.2-0.1,0.4-0.3,0.6c-1,1.4-2.5,2.4-4.9,2.4      c-0.4,0-0.7,0-1.1,0c-3.2-0.1-4.3-2-4.5-5.1c-0.3-3.9,1-6.1,4.5-6.3c0.3,0,0.6,0,1,0c3.9,0.2,5.8,2.4,5.6,6.7c-2.7,0-5.3,0-8,0      c0,1.7,1.4,2.7,2.9,2.1 M22.5,29.3c-0.4,0.4-0.6,1-0.7,1.8c1.3,0,3.6,0,4.9,0C26.9,29.2,23.8,28.1,22.5,29.3z" fill="#1B7EC1" fill-rule="evenodd"/></g></g><g><g><path clip-rule="evenodd" d="M31.8,26.4c0,0,6.4-0.6,8.2,0.5c0.9,0.6,1.3,1.6,1.3,2.9      c0,3.1-2.5,3.9-6,3.6l0,4.1h-2.5L31.8,26.4z M39,29.9c0-1.2-2.2-1.4-3.6-1.3c-0.1,0.8,0,1.7,0,2.5C36.7,31.3,39,31.1,39,29.9z" fill="#1B7EC1" fill-rule="evenodd"/></g></g><g><g><path clip-rule="evenodd" d="M44.6,26.4h3.8l4.2,11.2l-2.7,0l-1.5-1.8h-4l-0.6,1.8h-2.5      L44.6,26.4z M45.2,33.4h3.4l-2.2-4.1L45.2,33.4z" fill="#1B7EC1" fill-rule="evenodd"/></g></g><g><g><polygon clip-rule="evenodd" fill="#1B7EC1" fill-rule="evenodd" points="50.9,26.5 54.7,26.4 57,30.2 59.3,26.4 63,26.4       58.8,32.9 58.8,37.6 55.3,37.6 56.2,33     "/></g></g></g></g></svg>