<?xml version="1.0" ?><!DOCTYPE svg  PUBLIC '-//W3C//DTD SVG 1.1//EN'  'http://www.w3.org/Graphics/SVG/1.1/DTD/svg11.dtd'><svg enable-background="new 0 0 64 64" height="64px" id="Layer_1" version="1.1" viewBox="0 0 64 64" width="64px" xml:space="preserve" xmlns="http://www.w3.org/2000/svg" xmlns:xlink="http://www.w3.org/1999/xlink"><g><g><g><path d="M35.3,37.7l3-3.2c0.4-0.4,0.3-0.7,0.2-0.8c-0.1-0.3-0.5-1.2-0.9-1.8c-0.2-0.4-0.3-0.7-0.5-0.9     c-0.8-0.5-1.6-0.5-1.6-0.5l0,0c-0.2,0-0.5,0-0.8,0.1l1.6,2.6c0.6,0.9,0,1.6-0.2,1.9l0,0L35,36.2h-0.2l0,0l-1.7-0.3     c-0.3,0-0.7,0.1-1,0.4c-0.3,0.3-0.4,0.8-0.2,1.4H35.3z" fill="#F72F2F"/></g><g><path d="M33.2,35L33.2,35l1.5,0.3l0.9-1c0.3-0.4,0.3-0.5,0.1-0.8l0,0l-1.8-2.9c-0.5,0.1-0.9,0.2-0.9,0.2l0,0     c-0.4,0.1-0.7,0.2-1,0.3c-1.2,0.4-2.4,0.8-4.3,0.8c0,0,0,0,0,0c-0.2,0.8-0.4,2.4,0.1,3.1l0.3,0.4l-0.5,0.2     c-0.3,0.1-0.3,0.2-0.3,0.3c0,0.4,0,0.9-0.4,1.2c-0.3,0.3-0.7,0.4-1.3,0.5H31c-0.2-1,0.1-1.7,0.4-2C31.8,35.1,32.6,34.9,33.2,35z" fill="#C42A27"/></g><g><path d="M23.6,34.6h0.1c0.1,0,0.1-0.1,0.1-0.1v-3c-0.4,0.2-1,0.4-1.8,0.4h-0.5l0.1-0.5c0-0.1,0-0.2,0-0.2     c0.1-0.3,0.1-0.6,0.1-0.9c-0.3,0.2-0.7,0.2-1,0.3v7.1h0.9c-0.3-0.9-0.2-1.7,0.1-2.2C22.2,34.9,22.9,34.6,23.6,34.6z" fill="#C42A27"/></g><g><polygon fill="#C42A27" points="41.4,46.6 43.5,46.6 42.4,43.5    "/></g><g><path d="M38.6,43.8c0-0.3,0-1.3-0.9-1.5h-1.5v3h1.2C38.3,45.4,38.6,44.6,38.6,43.8z" fill="#C42A27"/></g><g><path d="M15.3,34.4l-2.8,0.7v-0.9l2.8-0.7V34.4z M15.3,32.6l-2.8,0.7v-0.9l2.8-0.7V32.6z M15.3,30.8l-2.8,0.7     v-0.9l2.8-0.7V30.8z M19,35.2l-2.8-0.7v-0.9l2.8,0.7V35.2z M19,33.3l-2.8-0.7v-0.9l2.8,0.7V33.3z M19,31.5l-2.8-0.7v-0.9l2.8,0.7     V31.5z" fill="#F72F2F"/></g><g><path d="M10.7,39.9V28.8l2.3-0.6c-0.4-0.6-0.5-1.5-0.2-1.9c0.3-0.4,0.9-0.8,1.6-0.8c0,0,0,0,0,0     c0.1-0.1,0.1-0.2,0.2-0.3c0.3-0.3,0.7-0.4,1.1-0.4c0.7,0,1.4,0.4,2.1,1l0.9-1.5l-0.2-0.2L18.5,24c-0.1-0.1-0.2-0.3-0.2-0.6     c0-0.3,0.3-0.6,0.9-0.7l0.9-0.1c0.4,0,1-0.3,1-0.7c0-0.2-0.2-0.3-0.3-0.3c-0.1,0-0.5,0.3-0.7,0.4c-0.4,0.2-0.7,0.5-1.2,0.5     c-0.6,0-1.1-0.4-1.1-1c0-0.2,0-0.3,0.1-0.5l0,0c-0.1-0.1-0.3-0.3-0.3-0.6c0-0.2,0-0.5,0.3-0.9c0.3-0.3,0.7-0.8,1-1.5l0,0l0.3-0.5     c0.1-0.1,0.2-0.2,0.3-0.3c0.2-0.4,0.5-0.8,0.7-1.2c0.2-0.3,0.6-0.6,0.8-0.7c0.3-0.2,0.6-0.3,1-0.5c1.1-0.3,2.4-0.1,3.6,0.6     c0.9,0.5,1.5,1.4,1.9,2.4l0-0.1c0.4-1.4,1.6-2.3,3-2.3h21.3l-0.3,0.6c-0.7,1.5-1.9,2.3-3.6,2.3h-0.2c-0.7,1.4-1.9,2.2-3.5,2.2     c-0.7,1.4-1.9,2.1-3.5,2.1h-6.3c0,0.2,0.1,0.3,0.1,0.5c0,0.1,0,0.3-0.1,0.4c0.5,0,1.1,0.1,1.7,0.1c0.9,0.1,1.8,0.2,2.2,0.2     c0.2,0,0.4,0,0.6,0c1,0,1.8,0.1,2.8,0.3c1.6,0.3,2.9,1,3.9,2.1c0.4,0.4,0.7,0.9,1,1.5c0.4,0.6,0.7,1.3,1,1.9h0v0     c0.1,0.2,0.2,0.4,0.2,0.6l0.1,0.2c0.5,1.2,0.9,2.2,1.2,3c0.8-0.4,1.9-0.1,2.3,0.6c0.1,0.2,0.2,0.3,0.2,0.4c0.2,0.3,0.3,0.6,0.7,1     l0.5,0.6l-0.7,0.2c-0.3,0.1-0.6,0.1-0.8,0.1c-1.9,0-2.8-1.7-3.8-4.2v3.4c0.1,0.8-0.1,1.2-1.4,1.7l0,0l-0.9,0.3h16.9     c0.3-1.8,0.5-3.7,0.5-5.7C63,14.9,49.1,1,32,1C14.9,1,1,14.9,1,32s13.9,31,31,31c14.4,0,26.5-9.8,30-23.1H10.7z M16,49.2     c0,0-0.9-0.7-0.9-0.7c-0.3,0.4-0.8,0.8-1.5,0.8c-2.3,0-2.9-2.3-2.9-3.7c0-1.5,0.8-3.6,2.9-3.6c1.1,0,1.5,0.6,1.5,0.6     c0,0,0.8-0.6,0.8-0.6c0,0,0,2.1,0,2.6h-0.2c-0.3-1.1-0.9-2.3-2.1-2.3c-1.7,0-1.7,2.7-1.7,3.3c0,0.7-0.1,3.3,1.7,3.3     c0.3,0,1.1-0.2,1.3-0.8v-2.3h-1v-0.3h2.8v0.3H16V49.2z M21.9,49.2h-5.1v-0.3h1v-6.4h-0.9v-0.3l5,0v2.5h-0.2     c-0.3-2.2-1-2.2-2.8-2.2l0,2.9h0.4c1.1,0,1.2-1.4,1.2-1.4c0,0,0.2,0,0.2,0l0,3.2h-0.2c-0.1-1.1-0.5-1.5-1.1-1.5     c-0.1,0-0.4,0-0.4,0v3.1h0.7c1.4,0,1.9-0.3,2.2-2.3h0.3V49.2z M33.8,49.2h-5.2v-0.3h1v-6.4h-0.8c-0.3,0-0.9,0-0.9,0.6v6.2h-0.1     c0,0-2.6-3.7-3.9-5.6l0,4.6c0,0.5,0.8,0.7,1.1,0.7v0.3h-2.5v-0.3h0c0.3,0,1.1-0.2,1.1-0.7V43c0-0.5-0.5-0.6-0.9-0.6h-0.3v-0.3     h1.9l3.4,5V43c0-0.5-0.6-0.6-0.9-0.6h-0.2v-0.3h7.3v2.5h-0.2c-0.3-2.2-1-2.2-2.8-2.2v2.9h0.4c1.1,0,1.2-1.4,1.2-1.4     c0,0,0.2,0,0.2,0v3.2h-0.2c-0.1-1.1-0.5-1.5-1.1-1.5c-0.1,0-0.4,0-0.4,0v3.1h0.7c1.4,0,1.9-0.3,2.2-2.3h0.3V49.2z M50,49.2h-6.4     v-0.3h0.8c0,0-0.7-1.9-0.7-1.9h-2.4c0,0-0.4,1.2-0.4,1.5c0,0.4,0.7,0.4,0.8,0.4v0.3h-1.7c-2.8,0-0.3-3.3-2.4-3.4     c-0.1,0-1.2,0-1.2,0v3.1c0,0,0.9,0,0.9,0v0.3h-2.9v-0.3c0,0,0.9,0,0.9,0v-6.4h-0.9v-0.3h3.6c1.3,0,2,0.6,2,1.7     c0,1.5-1.6,1.9-1.6,1.9c0,0,0.6,0,1,0.4c0.3,0.3,0.4,1.1,0.4,1.4v1.2c0,0.1,0,0.2,0.3,0.2c0.4-0.1,0.5-0.6,0.5-0.6     c0,0,2.2-6.4,2.2-6.3h0.4l2.6,7h0.7v-6.4h-0.9V42h3v0.3h-0.9v6.4h0.1c1.4,0,1.9-0.3,2.2-2.3H50V49.2z M53.2,42.4h-0.9v6.4h0.9     v0.3h-2.9v-0.3h0.9l0-6.4h-0.9V42h2.9V42.4z" fill="#C42A27"/></g><g><path d="M43.2,34.9l1.6-0.3l-0.1-1.3c-0.1-0.3-0.2-0.5-0.5-0.5c-3-0.2-4.5-0.6-5.5-1.1c0.3,0.7,0.7,1.4,0.8,1.7     c0.2,0.6,0.1,1.2-0.4,1.7l-2.5,2.6h5.7c-0.3-0.6-0.4-1.3-0.2-1.8C42.2,35.3,42.6,35,43.2,34.9z" fill="#C42A27"/></g><g><path d="M46.1,36.5c0.2-0.1,0.7-0.3,0.8-0.5c0,0,0-0.1,0-0.4l0,0V30c-0.2-0.5-0.4-0.9-0.7-1.4     c-3.4-0.4-4.3-0.8-6.1-3.7c-0.4,0-0.7,0-1.1-0.1c-0.2,0-0.4,0-0.6,0c-0.5,0-1.3-0.1-2.3-0.2c-0.8-0.1-1.6-0.1-2.1-0.2     c-0.3,0.4-0.8,0.6-1.4,0.6c-0.4,0-0.8-0.1-1.4-0.4c-0.1-0.1-0.3-0.1-0.4-0.2l0.7-0.6c0.1,0.1,0.3,0.1,0.4,0.2     c0.3,0.1,0.5,0.2,0.7,0.2c0.6,0,1.1-0.5,1.1-1c0-0.4-0.1-0.5-0.1-0.5h-2.9l0.4-0.9h2.8c1.1,0,1.9-0.4,2.5-1.3h-4.6l0.4-0.9h5.1     c1.2,0,2-0.4,2.5-1.3h-7l0.4-0.9h7.9c1.1,0,1.9-0.4,2.4-1.1h-13c-1,0-1.9,0.7-2.2,1.7l-0.7,2.6c-0.2,0.7-0.4,1.5-0.6,1.9     c0.5,0.3,1.1,0.8,1.1,1.9c0,1.1-0.7,1.9-1.6,2.3c0.2,0.3,0.3,0.6,0.3,1c0,0.9-0.7,1.7-1.6,1.9c-0.1,0.3-0.3,0.6-0.4,0.9v3.8     c0,0.6-0.5,1-1,1h-0.1c-0.2,0-0.8,0-1,0.4c-0.2,0.3-0.2,0.9,0,1.6c0.5,0.1,1.3,0,1.7-0.5l0.1-0.2h0.2c0,0,0,0,0,0     c0.6,0,1.3,0,1.6-0.3c0,0,0.1-0.2,0.1-0.6c0-0.1,0-0.5,0.5-0.8c-0.5-1.4,0-3.5,0.1-3.7L27,31l0.3,0c1.9,0.1,3-0.3,4.4-0.7     c0.3-0.1,0.7-0.2,1-0.3c0.1,0,1.6-0.5,2.8-0.5c0.1,0,1.2,0,2.3,0.7l0.1,0l0,0c0,0,0,0,0,0c1,0.7,2,1.3,6.2,1.6     c1.1,0.1,1.3,0.9,1.3,1.2l0,0l0.2,2.1l-2.4,0.5c-0.2,0-0.4,0.2-0.5,0.4c-0.2,0.4,0,0.9,0.4,1.5L46.1,36.5z" fill="#8C0909"/></g><g><path d="M22.1,16.7l1.6-1c-0.5-0.1-1-0.1-1.4,0c-0.3,0.1-0.5,0.2-0.8,0.3c-0.3,0.2-0.5,0.4-0.6,0.6c0,0,0,0,0,0.1     c0.2,0,0.5-0.1,0.7-0.1C21.7,16.6,21.9,16.6,22.1,16.7z" fill="#DB1414"/></g><g><path d="M20.8,29.7c0.5-0.1,0.9-0.3,1.1-0.5l0.7-0.7l0.1,1c0,0.1,0,0.4,0,0.5c0,0.4,0,0.8-0.1,1.1     c1.1-0.1,1.5-0.6,1.8-1.7l0.1-0.3h0.3c0.6,0,1.1-0.5,1.1-1c0-0.3-0.2-0.6-0.5-0.8l-0.9-0.6l1.1-0.2c0.8-0.1,1.6-0.8,1.6-1.7     c0-0.8-0.4-1-1-1.4L25.9,23l0.1-0.4c0.1-0.4,0.4-1.2,0.6-2l0,0l0.1-0.2c0.1-0.5,0.2-0.9,0.1-1.3c-0.1-1.1-0.7-2.2-1.5-2.8     c0,0.8-0.4,1.7-1.2,2.3l0.2,1.4H24c-0.3,0-0.6,0.2-0.6,0.4c0,0.1,0,0.3,0.1,0.5c0.1,0.3,0.1,0.7,0.2,1.2v0c0,1.6-1.7,2.5-3.3,2.5     h0c-0.1,0-0.4,0-0.6-0.1l-1.1,1.8c0,0.1,0.1,0.2,0.2,0.3c0,0.1,0.1,0.1,0.1,0.1c0,0,0,0,0,0c0,0,0,0,0,0.1     c0.1,0.1,0.2,0.2,0.2,0.3c0,0,0,0.1,0,0.1c-0.2,0.3-0.4,0.5-0.5,0.8c0,0-0.2-0.4-0.3-0.5c0,0,0-0.1-0.1-0.1c0,0-0.1-0.1-0.1-0.2     c-0.2-0.2-0.3-0.5-0.5-0.7c-0.5-0.6-1.2-0.9-1.7-1c-0.2,0-0.4,0-0.5,0.1c-0.1,0.1-0.1,0.1-0.1,0.2L15,26.4l-0.4-0.1     c-0.5-0.1-0.9,0.1-1.1,0.4c-0.1,0.2,0,0.8,0.4,1.2l1.8-0.5l5,1.3V29.7z" fill="#DB1414"/></g><g><polygon fill="#8C0909" points="12.2,37.7 19.4,37.7 15.8,36.7    "/></g><g><path d="M45.7,27.7c-0.2-0.2-0.3-0.5-0.5-0.7c-0.8-1-2-1.6-3.3-1.8c-0.2,0-0.4-0.1-0.5-0.1     C42.6,27,43.4,27.4,45.7,27.7z" fill="#C42A27"/></g></g><g><path d="M1.1,29.7L29.7,1.1C14.4,2.2,2.2,14.4,1.1,29.7z" fill="#DB1414"/></g><g><g><path d="M35.1,48.2l-0.6,0.6c0.3,0,0.6,0,0.6,0V48.2z" fill="#AA1A1A"/></g><g><path d="M39.8,43.6c0,0,0,0.1,0,0.1c0,1.5-1.6,1.9-1.6,1.9c0,0,0.6,0,1,0.4c0.3,0.3,0.4,1.1,0.4,1.4v1.2     c0,0.1,0,0.2,0.3,0.2c0.4-0.1,0.5-0.6,0.5-0.6c0,0,2.2-6.4,2.2-6.3h0.4l2.6,7h0.7v-6.4h-0.9V42h3v0.3h-0.9v6.4h0.1     c1.4,0,1.9-0.3,2.2-2.3H50v2.6h-6.4v-0.3h0.8c0,0-0.7-1.9-0.7-1.9h-2.4c0,0-0.4,1.2-0.4,1.5c0,0.4,0.7,0.4,0.8,0.4v0.3h-1.7     c-2.7,0-0.4-3.1-2.2-3.4l-1.4,1.4v1.7c0,0,0.9,0,0.9,0v0.3h-2.9v0L22,61.3c3.1,1.1,6.5,1.7,10,1.7c14.4,0,26.5-9.8,30-23.1H43.5     L39.8,43.6z M50.3,48.8h0.9l0-6.4h-0.9V42h2.9v0.3h-0.9v6.4h0.9v0.3h-2.9V48.8z" fill="#AA1A1A"/></g><g><path d="M49.9,33.5c0.7-0.1,1.5,0.1,1.8,0.7c0.1,0.2,0.2,0.3,0.2,0.4c0.2,0.3,0.3,0.6,0.7,1l0.5,0.6l-0.7,0.2     c-0.3,0.1-0.6,0.1-0.8,0.1c-1.2,0-2-0.7-2.7-1.9l-1.1,1.1v0.1c0.1,0.8-0.1,1.2-1.4,1.7l0,0l-0.6,0.2l-0.1,0.1h16.8     c0.3-1.8,0.5-3.7,0.5-5.7c0-3.5-0.6-6.8-1.6-10L49.9,33.5z" fill="#AA1A1A"/></g></g></g></svg>