<?xml version="1.0" ?><!DOCTYPE svg  PUBLIC '-//W3C//DTD SVG 1.1//EN'  'http://www.w3.org/Graphics/SVG/1.1/DTD/svg11.dtd'><svg enable-background="new 0 0 64 64" height="64px" id="Layer_1" version="1.1" viewBox="0 0 64 64" width="64px" xml:space="preserve" xmlns="http://www.w3.org/2000/svg" xmlns:xlink="http://www.w3.org/1999/xlink"><g><g><g><g><polygon clip-rule="evenodd" fill="#3042C6" fill-rule="evenodd" points="31,27 26,27 26,52 31,52 31,27     "/></g></g><g><g><path clip-rule="evenodd" d="M35,27v4h5v14.4c0,1.9,0.3,3.5,1.4,4.6c1,1.2,2.3,1.8,4,1.8      c1.7,0,3.2-0.3,4.5-1.1l0.1,0v-0.1l1.1-4.7l-0.3,0.2c-1.4,0.8-2.4,1.2-3.6,1.2c-1.6,0-2.2-0.9-2.2-2.8V31h5v-4h-5v-7.9l-5,2.7      V27H35L35,27z" fill="#32357F" fill-rule="evenodd"/></g></g><g><g><polygon clip-rule="evenodd" fill="#32357F" fill-rule="evenodd" points="60,27 55,27 55,52 60,52 60,27     "/></g></g><g><g><path clip-rule="evenodd" d="M22.8,30.7l-0.1-0.1c-2.3-2.8-5.2-4.2-8.7-4.2      c-3.7,0-6.7,1.1-9.1,3.3C2.3,32.1,1,35.2,1,39.2c0,4,1.3,7.1,3.9,9.5c2.4,2.2,5.4,3.3,9.1,3.3c3.5,0,6.4-1.4,8.7-4.2l0.1-0.1      l-2.9-3.5l-0.1,0.1c-1.9,1.8-3.9,2.8-6,2.8c-2.2,0-4.1-0.8-5.5-2.3c-1.5-1.5-2.2-3.4-2.2-5.7c0-2.3,0.7-4.2,2.2-5.7      c1.5-1.5,3.3-2.2,5.5-2.2c2.1,0,4.1,1,6,2.8l0.1,0.1L22.8,30.7L22.8,30.7z" fill="#32357F" fill-rule="evenodd"/></g></g><g><g><path clip-rule="evenodd" d="M28.2,22.8c2-2,4.2-3.6,6.8-4.7c2.4-1.1,5-1.6,7.7-1.6      c2.7,0,5.3,0.5,7.8,1.6c2.5,1.1,4.7,2.7,6.7,4.8l0.1,0.2H63l-0.2-0.4c-2.3-3.2-5.3-5.9-8.9-7.7C50.3,13,46.6,12,42.7,12      c-3.9,0-7.7,0.9-11.3,2.8c-3.6,1.9-6.6,4.5-8.9,7.8L22.3,23h5.8L28.2,22.8L28.2,22.8z" fill="#EA2230" fill-rule="evenodd"/></g></g><g><g><polygon clip-rule="evenodd" fill="#32357F" fill-rule="evenodd" points="31,28.9 26,27.8 26,52 31,52 31,27.8     "/></g></g><g><g><path clip-rule="evenodd" d="M35,27v4h5v14.4c0,1.9,0.3,3.5,1.4,4.6c1,1.2,2.3,1.8,4,1.8      c1.7,0,3.2-0.3,4.5-1.1l0.1,0v-0.1l1.1-4.7l-0.3,0.2c-1.4,0.8-2.4,1.2-3.6,1.2c-1.6,0-2.2-0.9-2.2-2.8V31h5v-4h-5v-7.9l-5,2.7      V27H35L35,27z" fill="#3042C6" fill-rule="evenodd"/></g></g><g><g><path clip-rule="evenodd" d="M35,27v4h5v14.4c0,1.9,0.3,3.5,1.4,4.6c1,1.2,2.3,1.8,4,1.8      c1.7,0,3.2-0.3,4.5-1.1l0.1,0v-0.1l1.1-4.7l-0.3,0.2c-1.4,0.8-2.4,1.2-3.6,1.2c-1.6,0-2.2-0.9-2.2-2.8V31h5v-4h-5v-3l-5-2.2V27      H35L35,27z" fill="#32357F" fill-rule="evenodd"/></g></g><g><g><polygon clip-rule="evenodd" fill="#3042C6" fill-rule="evenodd" points="60,27 55,27 55,52 60,52 60,27     "/></g></g><g><g><polygon clip-rule="evenodd" fill="#32357F" fill-rule="evenodd" points="60,27 55,28.7 55,52 60,52 60,27     "/></g></g><g><g><path clip-rule="evenodd" d="M22.7,30.8l0-0.2c-2.3-2.8-5.2-4.2-8.7-4.2      c-3.7,0-6.7,1.1-9.1,3.3C2.3,32.1,1,35.2,1,39.2c0,4,1.3,7.1,3.9,9.5c2.4,2.2,5.4,3.3,9.1,3.3c3.5,0,6.4-1.4,8.7-4.2l0.1-0.1      l-2.9-3.5l-0.1,0.1c-1.9,1.8-3.9,2.8-6,2.8c-2.2,0-4.1-0.8-5.5-2.3c-1.5-1.5-2.2-3.4-2.2-5.7c0-2.3,0.7-4.2,2.2-5.7      c1.5-1.5,3.3-2.2,5.5-2.2c2.1,0,4.1,1,6,2.8l0.1,0.1l2.9-3.5L22.7,30.8z" fill="#3042C6" fill-rule="evenodd"/></g></g><g><g><path clip-rule="evenodd" d="M4.9,29.7C2.3,32.1,1,35.2,1,39.2c0,4,1.3,7.1,3.9,9.5      c2.4,2.2,5.4,3.3,9.1,3.3c3.5,0,6.4-1.4,8.7-4.2l0.1-0.1l-2.9-3.5l-0.1,0.1c-1.9,1.8-3.9,2.8-6,2.8c-2.2,0-4.1-0.8-5.5-2.3      c-1.5-1.5-2.2-3.4-2.2-5.7c0-2.3,0.7-4.2,2.2-5.7c1.5-1.5,3.3-2.2,5.5-2.2c2.1,0,4.1,1,6,2.8l0.1,0.1l2.7-3.3l0,0l0-0.2" fill="#32357F" fill-rule="evenodd"/></g></g><g><g><path clip-rule="evenodd" d="M28.2,22.8c2-2,4.2-3.6,6.8-4.7c2.4-1.1,5-1.6,7.7-1.6      c2.7,0,5.3,0.5,7.8,1.6c2.5,1.1,4.7,2.7,6.7,4.8l0.1,0.2H63l-0.2-0.4c-2.3-3.2-5.3-5.9-8.9-7.7C50.3,13,46.6,12,42.7,12      c-3.9,0-7.7,0.9-11.3,2.8c-3.6,1.9-6.6,4.5-8.9,7.8L22.3,23h5.8L28.2,22.8L28.2,22.8z" fill="#E92F30" fill-rule="evenodd"/></g></g><g><g><path clip-rule="evenodd" d="M28.2,22.8c2-2,4.2-3.6,6.8-4.7c2.4-1.1,5-1.6,7.7-1.6      c2.7,0,5.3,0.5,7.8,1.6c2.5,1.1,4.7,2.7,6.7,4.8l0.1,0.2H63l-0.2-0.4c-2.3-3.2-5.3-5.9-8.9-7.7C50.3,13,46.6,12,42.7,12      c-3.9,0-7.7,0.9-11.3,2.8c-3.6,1.9-6.6,4.5-8.9,7.8L22.3,23h5.8L28.2,22.8L28.2,22.8z" fill="#E92F30" fill-rule="evenodd"/></g></g><g><g><path clip-rule="evenodd" d="M28.2,22.8c2-2,4.2-3.6,6.8-4.7c2.4-1.1,5-1.6,7.7-1.6      c2.7,0,5.3,0.5,7.8,1.6c2.5,1.1,4.7,2.7,6.7,4.8l0.1,0.2H63l-0.2-0.4c-2.3-3.2-5.3-5.9-8.9-7.7C50.3,13,46.6,12,42.7,12      c-3.9,0-7.7,0.9-11.3,2.8c-3.6,1.9-6.6,4.5-8.9,7.8L22.3,23h5.8L28.2,22.8L28.2,22.8z" fill="#FF3E48" fill-rule="evenodd"/></g></g><g><path clip-rule="evenodd" d="M53.9,16.5c-3.6-1.9-7.3-2.8-11.3-2.8c-3.9,0-7.7,1-11.3,2.8     c-3.1,1.6-5.7,3.5-7.9,6.5h4.6l0-0.2c2-2,4.2-3.6,6.8-4.7c2.4-1.1,5-1.6,7.7-1.6c2.7,0,5.3,0.5,7.8,1.6c2.5,1.1,4.7,2.7,6.7,4.8     l0.1,0.2h4.6C59.7,20,57,18.1,53.9,16.5z" fill="#E92F30" fill-rule="evenodd"/></g><g><path clip-rule="evenodd" d="M28.1,23L28.1,23c2-2,4.3-3.8,6.8-4.9c2.4-1.1,5-1.6,7.7-1.6     c2.7,0,5.3,0.5,7.8,1.6c2.5,1.1,4.7,2.7,6.7,4.8l0.1,0.2h3.2c-1.9-2-4-3.6-6.4-4.9c-3.6-1.9-7.3-2.8-11.3-2.8     c-3.9,0-7.7,1-11.3,2.8c-2.4,1.3-4.6,2.9-6.4,4.9H28.1z" fill="#D3000B" fill-rule="evenodd"/></g></g><g><path clip-rule="evenodd" d="M55,37.2V52h5V40.7C58,39.3,57,38.2,55,37.2z" fill="#0A0E49" fill-rule="evenodd"/></g><g><path clip-rule="evenodd" d="M42.1,33.8c-0.7,0-2.1,0-2.1,0.1v11.5c0,1.9,0.3,3.5,1.4,4.6    c1,1.2,2.3,1.8,4,1.8c1.7,0,3.2-0.3,4.5-1.1l0.1,0v-0.1l1.1-4.7l-0.3,0.2c-1.4,0.8-2.4,1.2-3.6,1.2c-1.6,0-2.2-0.9-2.2-2.8V33.9    C44,33.8,43.1,33.8,42.1,33.8z" fill="#0A0E49" fill-rule="evenodd"/></g><g><path clip-rule="evenodd" d="M26,39.1V52h5V36.2C29,37,27,38,26,39.1z" fill="#0A0E49" fill-rule="evenodd"/></g><g><path clip-rule="evenodd" d="M14.6,51.9c3.2-0.2,5.9-1.6,8-4.2l0.1-0.1L20,44.3    C18,46.6,16.2,49.1,14.6,51.9z" fill="#0A0E49" fill-rule="evenodd"/></g></g></svg>