<?xml version="1.0" ?><!DOCTYPE svg  PUBLIC '-//W3C//DTD SVG 1.1//EN'  'http://www.w3.org/Graphics/SVG/1.1/DTD/svg11.dtd'><svg enable-background="new 0 0 64 64" height="64px" id="Layer_1" version="1.1" viewBox="0 0 64 64" width="64px" xml:space="preserve" xmlns="http://www.w3.org/2000/svg" xmlns:xlink="http://www.w3.org/1999/xlink"><g><g><g><g><g><path d="M50,23.5l5-0.9V42h-5V23.5z M58,23.5V42h5V22.6L58,23.5z M43,42h5V28h-5V42z M8.8,29.9       c-0.7,0-2.2-0.1-2.2-1.5c0-1.6,2.2-1.6,3-1.6c1.4,0,3.3,0.4,4.6,0.8c0,0,0.9,0.3,1.5,0.5l0.2,0v-0.1v-4.4l-0.2-0.1       c-1.6-0.5-3.5-1.1-6.8-1.1C3.1,22.6,1,26,1,28.9c0,1.7,0.7,5.6,7.4,6.1c0.6,0,2.1,0.1,2.1,1.5c0,1.2-1.4,1.8-3.5,1.8       c-2.3,0-4-0.6-6-1.1v4.6c2,0.5,4.4,0.8,7.1,0.8c5.7,0,8.3-3.2,8.3-6.4C16.4,32.6,13.6,30.3,8.8,29.9z M39.9,27.7       C35.1,27.8,33,30,33,34.2V42h5v-6.3c0-2.5,0-3.6,3-3.7v-4.2C41,27.6,39.9,27.7,39.9,27.7z M26,28c-0.1,0-1,2.5-3,4.9V22.6       l-5,1.1V42h5v-5.4c2,2.3,2.4,5.4,2.4,5.4h6.4c-0.6-2-3.4-7.2-3.4-7.2c2.5-3.1,3.6-6.8,3.7-6.8H26z M45.5,26.5       c1.4,0,2.5-1.1,2.5-2.5c0-1.4-1.1-2.5-2.5-2.5c-1.4,0-2.5,1.1-2.5,2.5C43,25.4,44.1,26.5,45.5,26.5z" fill="#B73091"/></g></g></g></g><g><g><g><g><path d="M52,23.1l3-0.5V42h-5L52,23.1z M59.8,23.2L58,42h5V22.6L59.8,23.2z M43,42h5V28h-2.1L43,42z M1,28.9       c0,1.7,0.7,5.6,7.3,6.1c0.6,0,3,0.1,3,1.5c0,1.2-2.4,1.8-4.4,1.8c-2.3,0-4-0.6-6-1.1v4.6c2,0.5,4.4,0.8,7.1,0.8       c5.7,0,8.3-3.2,8.3-6.4c0-3.6-2.8-5.9-7.6-6.3c-0.7,0-2.1-0.1-2.1-1.5c0-1.6,2.2-1.6,3-1.6c1.4,0,3.3,0.4,4.6,0.8       c0,0,0.9,0.3,1.5,0.5l0.2,0v-0.1v-4.4l-0.2-0.1c-1.6-0.5-3.5-1.1-6.8-1.1 M33,34v8h5v-6.3c0-2.5,0-3.6,3-3.7v-4.2       c0-0.1-1.1-0.1-1.1-0.1 M18,42h5v-5.4c2,2.3,4.3,5.4,4.3,5.4h4.4c-0.6-2-3.4-7.2-3.4-7.2c2.5-3.1,3.6-6.8,3.7-6.8H29       c-0.1,0-4,2.5-6,4.9V23 M45.5,26.5c1.4,0,2.5-1.1,2.5-2.5c0-1.4-1.1-2.5-2.5-2.5" fill="#862165"/></g></g></g></g></g></svg>