<?xml version="1.0" ?><!DOCTYPE svg  PUBLIC '-//W3C//DTD SVG 1.1//EN'  'http://www.w3.org/Graphics/SVG/1.1/DTD/svg11.dtd'><svg enable-background="new 0 0 64 64" height="64px" id="Layer_1" version="1.1" viewBox="0 0 64 64" width="64px" xml:space="preserve" xmlns="http://www.w3.org/2000/svg" xmlns:xlink="http://www.w3.org/1999/xlink"><g><g><path clip-rule="evenodd" d="M42,30.3c0-1.8-1.5-1.8-2.3-1.8v-2H49c4.2,0,4.8,2.5,4.8,3.3    c0,0.8-0.3,2.2-1.2,2.8c0.9,0.6,1.6,1.5,1.6,3c0,2.2-1.5,3.9-4.1,3.9H39.7v-2.1c1.6,0,2.3-0.7,2.3-2l3.2,1.5h3.6    c0.8,0,1.4-0.7,1.4-1.5c0-0.8-0.6-1.4-1.4-1.4h-3.6v-2.6h3.5c0.7,0,1.2-0.5,1.2-1.2s-0.5-1.2-1.2-1.2l-3.5,0V37L42,35.5V30.3" fill="#008FBE" fill-rule="evenodd"/></g><g><path clip-rule="evenodd" d="M27,30.3c0-1.8-1.5-1.8-2.3-1.8v-2H34c4.2,0,4.8,2.5,4.8,3.3    c0.1,0.8-0.3,2.2-1.1,2.8c0.9,0.6,1.7,1.5,1.7,3c0,2.2-1.5,3.9-4.1,3.9H24.7v-2.1c1.7,0,2.3-0.7,2.3-2l3.2,1.5h3.6    c0.8,0,1.5-0.7,1.5-1.5c0-0.8-0.6-1.4-1.5-1.4h-3.6v-2.6h3.5c0.7,0,1.2-0.5,1.2-1.2s-0.5-1.2-1.2-1.2l-3.5,0V37L27,35.5V30.3" fill="#008FBE" fill-rule="evenodd"/></g><g><path clip-rule="evenodd" d="M11.9,30.3c0-1.8-1.5-1.8-2.3-1.8v-2H19c4.2,0,4.8,2.5,4.8,3.3    c0.1,0.8-0.3,2.2-1.1,2.8c0.9,0.6,1.7,1.5,1.7,3c0,2.2-1.5,3.9-4.1,3.9H9.6v-2.1c1.6,0,2.3-0.7,2.3-2l3.2,1.5h3.6    c0.8,0,1.5-0.7,1.5-1.5c0-0.8-0.6-1.4-1.5-1.4h-3.6v-2.6h3.5c0.7,0,1.2-0.5,1.2-1.2s-0.5-1.2-1.2-1.2l-3.5,0V37l-3.2-1.5V30.3" fill="#008FBE" fill-rule="evenodd"/></g><g><polyline clip-rule="evenodd" fill="#008FBE" fill-rule="evenodd" points="35.1,43.3 33.4,54.9 30.2,54.9 28.5,43.3 9.6,43.3     9.6,41.4 54,41.4 54,43.3 35.1,43.3   "/></g><g><path clip-rule="evenodd" d="M38,23c-0.4-0.3-0.4-1.1,0.1-1.5c0.5-0.4,1.7-2.1,1.5-4    c-0.2-1.9-1.4-4.2-4.2-5.8c-0.8-0.5-2.6-1.8-2.9-2.9c-0.4,1.2,0.3,2.3,1.6,3.4c1.2,1,3.4,3.1,3.7,4.5c0.2,1.4,0,3.4-1.1,4.7    c0.3-1.4,0.7-4.5-1.3-6.5c-2.1-2-4.4-3.9-4.4-6.7c-0.7,1.2-0.6,2.7,0.4,4.1c1,1.5,4.2,4.7,4.2,6.2c0,1.6-0.2,3.2-1.4,4.4h-6.5    c-1.4-1.1-2.5-2.7-2.4-4.4s1.1-2.8,1.9-3.4c0.5-0.4,2.9-2.6,2.3-4.3c-0.6,1.4-1.6,2.6-3,3.7c-1.3,1-2.4,2.4-2.4,4    c-0.1,1.3,0.4,2.8,1.2,3.5c0.4,0.4,0.6,0.7,0.5,0.9c-0.4,0-0.7,0.3-0.7,0.7v0.6c0,0.4,0.3,0.7,0.7,0.7H38c0.4,0,0.7-0.3,0.7-0.7    v-0.6C38.7,23.3,38.4,23,38,23C38,23,38.4,23,38,23" fill="#008FBE" fill-rule="evenodd"/></g><g><path clip-rule="evenodd" d="M29.5,12.4c-0.2,0.8-1.3,2.2-2.1,3.1c-0.8,0.9-1.6,2.2-1.5,3.6    c0.1,1.5,1,2.2,2.1,2.8c0.3,0.1,0.7-0.1,0.2-0.6c-0.5-0.6-1.2-1.3-1.2-2.7c0-1.4,0.5-2.2,1.2-3.1C29,14.9,29.5,13.6,29.5,12.4    C29.5,12.4,29.5,13.6,29.5,12.4" fill="#05AFD6" fill-rule="evenodd"/></g><g><path clip-rule="evenodd" d="M29.4,21.9c-1-0.8-1.6-2-1.3-3.3c0.3-1.3,1.5-2.6,1.6-3.5    c0.2,0.8-0.3,2-0.6,2.7c-0.3,0.7-0.3,2.3,0.7,3.8C30.1,21.9,29.7,22.2,29.4,21.9C29.4,21.9,29.7,22.2,29.4,21.9" fill="#0AD9EF" fill-rule="evenodd"/></g><g><path clip-rule="evenodd" d="M35.8,53.9c0.5,0,0.9,0.4,0.9,0.9c0,0.5-0.4,0.9-0.9,0.9    c-0.5,0-0.9-0.4-0.9-0.9C34.9,54.2,35.3,53.9,35.8,53.9v-0.2c-0.6,0-1.1,0.5-1.1,1c0,0.6,0.5,1.1,1.1,1.1c0.6,0,1-0.5,1-1.1    c0-0.6-0.5-1-1-1V53.9" fill="#008FBE" fill-rule="evenodd"/></g><g><path clip-rule="evenodd" d="M35.6,54.3h0.3c0.1,0,0.3,0,0.3,0.2c0,0.2-0.2,0.2-0.3,0.2h-0.2    v0.2h0.2l0.3,0.5h0.2L36,54.8c0.2,0,0.3-0.1,0.3-0.3c0-0.2-0.1-0.4-0.4-0.4h-0.5v1.2h0.2V54.3" fill="#008FBE" fill-rule="evenodd"/></g></g></svg>