<?xml version="1.0" ?><!DOCTYPE svg  PUBLIC '-//W3C//DTD SVG 1.1//EN'  'http://www.w3.org/Graphics/SVG/1.1/DTD/svg11.dtd'><svg enable-background="new 0 0 64 64" height="64px" id="Layer_1" version="1.1" viewBox="0 0 64 64" width="64px" xml:space="preserve" xmlns="http://www.w3.org/2000/svg" xmlns:xlink="http://www.w3.org/1999/xlink"><g><g><g><g><g><polyline fill="#636363" points="0.5,25.1 2.7,25.1 3.2,29.1 3.3,29.1 3.8,25.1 6.4,25.1 7,29.1 7,29.1 7.5,25.1 9.7,25.1        8.4,31.4 5.7,31.4 5.1,27.3 5.1,27.3 4.5,31.4 1.9,31.4 0.5,25.1      "/></g></g><g><g><polyline fill="#494949" points="11.3,25.1 16,25.1 16,26.8 13.6,26.8 13.6,27.4 15.8,27.4 15.8,29.1 13.6,29.1 13.6,29.8        16.1,29.8 16.1,31.4 11.3,31.4 11.3,25.1      "/></g></g><g><g><path d="M21.2,26.9c0-0.4-0.2-0.5-0.5-0.5c-0.4,0-0.6,0.2-0.6,0.4c0,0.2,0.1,0.3,0.4,0.4c0.5,0.1,1.3,0.3,2,0.6       c0.8,0.3,1.1,0.9,1.1,1.6c0,1.5-1.2,2.2-3,2.2c-1.5,0-2.9-0.5-2.9-2.1H20c0,0.2,0,0.3,0.1,0.5c0.1,0.1,0.3,0.2,0.5,0.2       c0.4,0,0.6-0.2,0.6-0.5c0-0.2-0.2-0.4-0.4-0.4l-1.8-0.5c-1-0.3-1.3-0.9-1.3-1.7c0-1.3,1-2,2.9-2c1.6,0,2.7,0.5,2.7,1.9H21.2" fill="#494949"/></g></g><g><g><polyline fill="#494949" points="26.5,26.8 25,26.8 25,25.1 30.5,25.1 30.5,26.8 29,26.8 29,31.4 26.5,31.4 26.5,26.8      "/></g></g><g><g><polyline fill="#494949" points="32.2,25.1 37,25.1 37,26.8 34.6,26.8 34.6,27.4 36.8,27.4 36.8,29.1 34.6,29.1 34.6,29.8        37,29.8 37,31.4 32.2,31.4 32.2,25.1      "/></g></g><g><g><polygon points="34.7,29.1 36.8,29.1 36.8,27.4 34.6,27.4 34.6,26.8 37,26.8 37,25.1 32.2,25.1 32.2,26.6      "/></g><g><polygon points="37,29.8 35.4,29.8 37,31.4 37,31.4      "/></g></g><g><g><path d="M38.9,25.1h3.7c1.3,0,2.1,0.4,2.1,1.6c0,0.7-0.3,1.3-1.2,1.5v0c0.6,0.1,0.9,0.3,1.1,0.8c0.1,0.5,0.1,1.4,0.4,2.4h-2.4       c-0.1-0.5-0.2-1.3-0.3-1.8c-0.1-0.3-0.2-0.4-0.6-0.4h-0.3v2.2h-2.4V25.1 M41.5,27.7c0.5,0,0.8-0.2,0.8-0.6       c0-0.5-0.3-0.6-0.8-0.6h-0.2v1.2H41.5z"/></g></g><g><g><polyline points="46.6,25.1 49.6,25.1 50.9,28.9 51,28.9 51,25.1 53,25.1 53,31.4 50,31.4 48.7,27.6 48.7,27.6 48.7,31.4        46.6,31.4 46.6,25.1      "/></g></g><g><g><path d="M23.5,36.8c0,1.5-1.1,2.3-3,2.3c-1.9,0-3-0.8-3-2.3v-4.2H20v4.1c0,0.5,0.2,0.7,0.5,0.7       c0.3,0,0.5-0.2,0.5-0.7v-4.1h2.5V36.8" fill="#494949"/></g></g><g><polygon fill="#636363" points="16,29.8 13.6,29.8 13.6,29.1 15.3,29.1 13.7,27.4 13.6,27.4 13.6,27.4 11.4,25.1 11.3,25.1       11.3,31.4 16.1,31.4 16.1,29.9     "/></g><g><path d="M20.5,39c1.7,0,2.7-0.6,2.9-1.8L21,34.8v1.8c0,0.5-0.2,0.7-0.5,0.7c-0.3,0-0.5-0.2-0.5-0.7v-2.8      l-1.2-1.2h-1.3v4.2C17.6,38.3,18.7,39,20.5,39z" fill="#636363"/></g><g><g><polyline fill="#494949" points="25.6,32.6 28.5,32.6 29.9,36.4 29.9,36.4 29.9,32.6 31.9,32.6 31.9,38.9 28.9,38.9 27.6,35.1        27.6,35.1 27.6,38.9 25.6,38.9 25.6,32.6      "/></g></g><g><g><rect fill="#494949" height="6.2" width="2.5" x="34" y="32.6"/></g></g><g><g><path d="M41.5,32.4c2.2,0,3.2,1.3,3.2,3.3c0,1.9-1.1,3.3-3.2,3.3c-2.2,0-3.2-1.3-3.2-3.3       C38.3,33.8,39.4,32.4,41.5,32.4 M41.5,37.4c0.4,0,0.7-0.2,0.7-1.7c0-1.4-0.3-1.7-0.7-1.7c-0.4,0-0.7,0.2-0.7,1.7       C40.9,37.2,41.2,37.4,41.5,37.4z" fill="#494949"/></g></g><g><path d="M41.5,32.4c-1.1,0-1.9,0.4-2.5,1l1.8,1.8c0.1-1,0.3-1.2,0.7-1.2c0.4,0,0.7,0.2,0.7,1.7c0,0.3,0,0.6,0,0.8l1.7,1.7      c0.6-0.6,0.9-1.4,0.9-2.5C44.8,33.8,43.7,32.4,41.5,32.4z"/></g><g><g><polyline points="46.6,32.6 49.6,32.6 50.9,36.4 51,36.4 51,32.6 53,32.6 53,38.9 50,38.9 48.7,35.1 48.7,35.1 48.7,38.9        46.6,38.9 46.6,32.6      "/></g></g><g><g><rect height="13.9" width="0.8" x="54.8" y="25"/></g></g><g><g><rect height="13.7" width="0.8" x="60.4" y="25.1"/></g></g><g><g><path d="M61.8,25.9c0-0.5,0.4-0.8,0.8-0.8c0.5,0,0.8,0.4,0.8,0.8c0,0.5-0.4,0.8-0.8,0.8C62.2,26.7,61.8,26.4,61.8,25.9        M63.4,25.9c0-0.4-0.3-0.7-0.7-0.7c-0.4,0-0.7,0.3-0.7,0.7c0,0.4,0.3,0.7,0.7,0.7C63.1,26.6,63.4,26.3,63.4,25.9z M63.1,26.4       h-0.1l-0.3-0.4h-0.2v0.4h-0.1v-0.9h0.4c0.2,0,0.3,0.1,0.3,0.2c0,0.2-0.1,0.3-0.3,0.3L63.1,26.4z M62.6,25.8       c0.1,0,0.3,0,0.3-0.2c0-0.1-0.1-0.2-0.2-0.2h-0.3v0.3H62.6z"/></g></g></g></g></g></svg>