<?xml version="1.0" ?><!DOCTYPE svg  PUBLIC '-//W3C//DTD SVG 1.1//EN'  'http://www.w3.org/Graphics/SVG/1.1/DTD/svg11.dtd'><svg enable-background="new 0 0 64 64" height="64px" id="Layer_1" version="1.1" viewBox="0 0 64 64" width="64px" xml:space="preserve" xmlns="http://www.w3.org/2000/svg" xmlns:xlink="http://www.w3.org/1999/xlink"><g><g><g><path d="M4.3,30.6L4.3,30.6l0.8,2.3H3.5L4.3,30.6 M5.2,35.9h3.1v-0.3c-0.6-0.1-0.8-0.1-1.2-1.2     c-0.4-1.1-0.9-2.5-1.4-3.8L5,28.5l-0.5,0.2l-2.3,5.8c-0.4,1-0.5,1.1-1.2,1.1v0.3h2.5v-0.3l-0.3,0c-0.5-0.1-0.5-0.2-0.4-0.7     c0.1-0.5,0.3-1,0.4-1.3h2c0.2,0.4,0.4,1,0.5,1.4c0.2,0.5,0.1,0.6-0.3,0.7l-0.3,0V35.9z" fill="#055D77"/></g></g><g><g><path d="M11.5,32c0-0.4-0.1-0.5-0.3-0.5l-0.3-0.1v-0.3c0.6,0,1.5-0.1,2.1-0.2v3.8c0,0.5,0,0.6,0.4,0.6h0.4v0.3     c-0.7,0.1-1.4,0.3-2,0.4L11.5,36v-0.7c-0.2,0.2-0.4,0.3-0.6,0.4c-0.3,0.2-0.6,0.3-1,0.3c-0.9,0-1.4-0.6-1.4-1.5V32     c0-0.4-0.1-0.5-0.3-0.5l-0.3-0.1v-0.3c0.5,0,1.4-0.1,2-0.2v3.4c0,0.7,0.3,0.9,0.8,0.9c0.3,0,0.6-0.1,1-0.4V32" fill="#055D77"/></g></g><g><g><path d="M15.6,34.2c0,0.9,0.4,1,0.6,1c0.2,0,0.4-0.1,0.6-0.2l0.2,0.3l-1,0.5C15.9,36,15.7,36,15.6,36     c-0.9,0-1.3-0.4-1.3-1.4v-3.1h-0.7l-0.1-0.1l0.4-0.4h0.4v-0.7l1.2-0.9l0.2,0.1V31h1.1c0.1,0.1,0.1,0.5-0.1,0.6h-1V34.2" fill="#055D77"/></g></g><g><g><path d="M19.2,31.6c0.4-0.4,0.9-0.7,1.5-0.7c1,0,1.6,0.6,1.6,1.7v2.3c0,0.6,0.1,0.7,0.7,0.7v0.3h-2.6v-0.3     c0.5-0.1,0.6-0.1,0.6-0.7v-2.1c0-0.7-0.4-1-0.9-1c-0.3,0-0.6,0.1-0.9,0.4v2.8c0,0.6,0.1,0.7,0.5,0.7v0.3h-2.7v-0.3     c0.7-0.1,0.8-0.1,0.8-0.7v-5.4c0-0.7,0-0.7-0.7-0.7v-0.3c0.5-0.1,1.4-0.2,2.1-0.4V31.6" fill="#055D77"/></g></g><g><g><path d="M24.8,33.1c0-1.2,0.5-1.8,0.9-1.8c0.7,0,1.1,0.9,1.1,2.4c0,1.6-0.5,1.9-0.9,1.9     C25.2,35.6,24.8,34.5,24.8,33.1 M25.9,30.8c-1.3,0-2.6,0.9-2.6,2.7c0,1.2,0.9,2.5,2.6,2.5c1.3,0,2.6-0.9,2.6-2.7     C28.4,32,27.4,30.8,25.9,30.8z" fill="#055D77"/></g></g><g><g><path d="M30.8,34.8c0,0.6,0.1,0.7,0.9,0.7v0.3h-3v-0.3c0.7-0.1,0.8-0.1,0.8-0.7v-2.5c0-0.7,0-0.7-0.7-0.8v-0.3     c0.7-0.1,1.4-0.2,2.1-0.4V32h0c0.1-0.2,0.3-0.5,0.5-0.7c0.2-0.2,0.5-0.4,0.7-0.4c0.4,0,0.8,0.3,0.8,0.7c0,0.4-0.2,0.7-0.5,0.8     c-0.1,0.1-0.3,0-0.3,0c-0.2-0.2-0.4-0.2-0.6-0.2c-0.2,0-0.4,0.1-0.6,0.6V34.8" fill="#055D77"/></g></g><g><g><path d="M33.7,32.3c0-0.7,0-0.7-0.7-0.8v-0.3c0.7-0.1,1.4-0.2,2.1-0.4v3.9c0,0.6,0.1,0.7,0.8,0.8v0.3h-2.9v-0.3     c0.7-0.1,0.8-0.1,0.8-0.8V32.3 M35.1,29.1c0,0.5-0.4,0.8-0.8,0.8c-0.4,0-0.8-0.4-0.8-0.8s0.4-0.8,0.8-0.8     C34.7,28.3,35.1,28.6,35.1,29.1z" fill="#055D77"/></g></g><g><g><path d="M40.3,31l0.1,0.2l-2.6,4.3h0.9c0.8,0,1.1-0.1,1.4-0.8l0.2-0.3l0.4,0.1c-0.2,0.6-0.3,1-0.5,1.4h-4L36,35.7     l2.7-4.3h-0.8c-0.7,0-0.9,0.2-1.2,0.7l-0.2,0.3l-0.4-0.2c0.1-0.4,0.3-1.1,0.4-1.6h0.2c0.1,0.2,0.2,0.2,0.6,0.2H40.3" fill="#055D77"/></g></g><g><g><path d="M42,32.7c0.1-0.8,0.5-1.3,0.9-1.3c0.4,0,0.8,0.6,0.8,1c0,0.2,0,0.3-0.2,0.3L42,32.7 M44.8,34.6     C44.3,34.9,44,35,43.6,35c-0.9,0-1.6-0.6-1.6-1.8c1.1,0,2.6-0.1,2.8-0.2c0.2,0,0.3-0.1,0.3-0.5c0-0.9-0.8-1.7-1.7-1.7     c-1.4,0-2.6,1.2-2.6,2.8c0,1.3,0.9,2.4,2.4,2.4c0.4,0,1.3-0.2,1.9-1.2L44.8,34.6z" fill="#055D77"/></g></g><g><g><path d="M45.3,35.1c0-0.5,0.4-0.9,0.8-0.9c0.5,0,0.9,0.4,0.9,0.9c0,0.5-0.4,0.9-0.9,0.9     C45.7,36,45.3,35.7,45.3,35.1" fill="#12A9CC"/></g></g><g><g><path d="M54.2,36h-0.7l-4.4-5.5h0v2.3c0,1.2,0.1,1.8,0.1,2.1c0.1,0.4,0.3,0.5,1.1,0.6v0.3h-2.8v-0.3     c0.6,0,0.8-0.2,0.9-0.6c0.1-0.3,0.1-1,0.1-2.1v-2.2c0-0.7,0-1-0.2-1.3c-0.2-0.3-0.5-0.3-0.9-0.4v-0.4h1.9l4.3,5h0v-2     c0-1.2-0.1-1.8-0.1-2.1c-0.1-0.4-0.3-0.5-1.1-0.6v-0.4h2.8V29c-0.6,0-0.8,0.2-0.9,0.6c0,0.4-0.1,1-0.1,2.1V36" fill="#12A9CC"/></g></g><g><g><path d="M56,32.7c0.1-0.8,0.5-1.3,0.9-1.3c0.4,0,0.8,0.6,0.8,1c0,0.2,0,0.3-0.2,0.3L56,32.7 M58.7,34.6     c-0.4,0.3-0.8,0.4-1.2,0.4c-0.8,0-1.6-0.6-1.6-1.8c1.1,0,2.6-0.1,2.8-0.2c0.2,0,0.3-0.1,0.3-0.5c0-0.9-0.8-1.7-1.7-1.7     c-1.4,0-2.6,1.2-2.6,2.8c0,1.3,0.9,2.4,2.4,2.4c0.4,0,1.3-0.2,1.9-1.2L58.7,34.6z" fill="#12A9CC"/></g></g><g><g><path d="M61.1,34.2c0,0.9,0.4,1,0.6,1c0.2,0,0.4-0.1,0.6-0.2l0.2,0.3l-1,0.5C61.3,36,61.2,36,61.1,36     c-0.9,0-1.3-0.4-1.3-1.4v-3.1H59l-0.1-0.1l0.4-0.4h0.4v-0.7l1.2-0.9l0.2,0.1V31h1.1c0.1,0.1,0.1,0.5-0.1,0.6h-1V34.2" fill="#12A9CC"/></g></g><g><g><path d="M62.4,30.6c-0.1,0-0.2,0-0.3-0.1c-0.1,0-0.2-0.1-0.2-0.2c-0.1-0.1-0.1-0.2-0.1-0.3c0-0.1,0-0.2,0.1-0.3     c0.1-0.1,0.1-0.2,0.2-0.2c0.1,0,0.2-0.1,0.3-0.1c0.1,0,0.2,0,0.3,0.1c0.1,0.1,0.2,0.1,0.2,0.2C63,29.8,63,29.9,63,30     c0,0.1,0,0.2-0.1,0.3c-0.1,0.1-0.1,0.2-0.2,0.2C62.6,30.5,62.5,30.6,62.4,30.6 M62.4,30.5c0.1,0,0.2,0,0.2-0.1     c0.1,0,0.1-0.1,0.2-0.2s0.1-0.2,0.1-0.2c0-0.1,0-0.2-0.1-0.2c0-0.1-0.1-0.1-0.2-0.2c-0.1,0-0.2-0.1-0.2-0.1c-0.1,0-0.2,0-0.2,0.1     c-0.1,0-0.1,0.1-0.2,0.2c0,0.1-0.1,0.2-0.1,0.2c0,0.1,0,0.2,0.1,0.2c0,0.1,0.1,0.1,0.2,0.2C62.3,30.5,62.4,30.5,62.4,30.5z      M62.3,30.3h-0.1v-0.7h0.2c0.1,0,0.1,0,0.1,0c0,0,0,0,0.1,0.1c0,0,0,0.1,0,0.1c0,0,0,0.1,0,0.1c0,0-0.1,0.1-0.1,0.1     c0,0,0,0,0.1,0.1l0.1,0.2h-0.1l-0.1-0.2l0,0c0,0,0-0.1-0.1-0.1h-0.1V30.3z M62.3,30L62.3,30c0.1,0,0.2,0,0.2,0c0,0,0-0.1,0-0.1     c0,0,0,0,0-0.1c0,0,0,0,0,0c0,0,0,0-0.1,0h-0.1V30z" fill="#12A9CC"/></g></g></g></svg>