<?xml version="1.0" ?><!DOCTYPE svg  PUBLIC '-//W3C//DTD SVG 1.1//EN'  'http://www.w3.org/Graphics/SVG/1.1/DTD/svg11.dtd'><svg enable-background="new 0 0 64 64" height="64px" id="Layer_1" version="1.1" viewBox="0 0 64 64" width="64px" xml:space="preserve" xmlns="http://www.w3.org/2000/svg" xmlns:xlink="http://www.w3.org/1999/xlink"><g><g><g><g><path clip-rule="evenodd" d="M14.6,25.8c0.6,0,1.2,0,1.8,0c0,0.6,0,1.2,0,1.8      c-0.6,0-1.2,0-1.8,0C14.6,27.1,14.6,26.4,14.6,25.8z" fill="#E8213E" fill-rule="evenodd"/></g></g></g><g><g><g><path clip-rule="evenodd" d="M14.6,25.8c0.6,0,1.2,0,1.8,0c0,0.6,0,1.2,0,1.8" fill="#BC202A" fill-rule="evenodd"/></g></g></g><g><g><path clip-rule="evenodd" d="M63,25.8c0,4,0,8.1,0,12.1c-0.6,0-1.2,0-1.8,0     c0-0.4,0-0.7,0-1.1c-0.6,1.6-3.9,1.6-5.3,0.6c-2-1.5-2.1-5.9-0.2-7.6c1.2-1.1,4.2-1.2,5.4,0.5c0-1.5,0-3,0-4.4     C61.7,25.8,62.4,25.8,63,25.8z M57.1,36.1c0.9,0.8,2.4,0.6,3.1,0c1.9-1.7,1.1-6.3-2.1-5.6C56.1,31,55.5,34.7,57.1,36.1z" fill="#43567E" fill-rule="evenodd"/></g></g><g><g><path clip-rule="evenodd" d="M22.6,28.9c0,0.6,0,1.2,0,1.8c-3.8-0.7-3.2,3.7-3.2,7.1     c-0.6,0-1.3,0-1.9,0c0-2.9,0-5.8,0-8.7c0.6,0,1.2,0,1.8,0c0,0.6,0,1.1,0,1.7C19.9,29.7,20.8,28.8,22.6,28.9z" fill="#5877AF" fill-rule="evenodd"/></g></g><g><g><path clip-rule="evenodd" d="M30.7,34c-2.2,0-4.3,0-6.5,0c-0.5,2.9,3.9,3.4,4.5,1.2     c0.6,0,1.2,0,1.8,0c-0.4,2.9-4.6,3.8-6.7,2.1c-2.9-2.4-1.5-8,2.2-8.4C29.2,28.6,30.7,30.9,30.7,34z M24.2,32.8c1.5,0,3,0,4.5,0     C29,29.8,24,29.7,24.2,32.8z" fill="#5877AF" fill-rule="evenodd"/></g></g><g><g><path clip-rule="evenodd" d="M39.5,32c-0.6,0-1.2,0-1.8,0c-0.4-0.6-0.5-1.2-1.1-1.4     c-4.4-2.1-4.8,7.3-0.4,6c0.8-0.2,1.2-0.8,1.3-1.9c0.6,0,1.3,0,1.9,0c-0.3,1.5-0.8,2.7-1.9,3.1c-3,1.2-5.9-0.3-6.3-3.2     c-0.5-4.3,3.2-7,6.6-5.1C38.7,29.9,39.3,30.7,39.5,32z" fill="#43567E" fill-rule="evenodd"/></g></g><g><g><path clip-rule="evenodd" d="M48,36.5c0.1,0.2,0.6,0.2,0.9,0.2c0,0.4,0,0.8,0,1.3     c-0.9,0.4-2.6,0.4-2.7-0.8c-1.4,1.1-4.4,1.6-5.6,0c-0.9-1.2-0.5-3,0.6-3.7c1.5-0.9,5.3-0.1,5-2.1c-0.3-1.6-3.9-1-3.9,0.4     c-0.6,0-1.2,0-1.8,0c-0.2-3.4,6-3.8,7.2-1.4C48.6,32,47.6,34.3,48,36.5z M42,35.6c0.2,1.2,3,1.4,3.8,0.2c0.4-0.6,0.3-1.3,0.2-2.3     C44.7,34.2,41.7,33.6,42,35.6z" fill="#43567E" fill-rule="evenodd"/></g></g><g><g><path clip-rule="evenodd" d="M54.7,29c0,0.6,0,1.2,0,1.8c-3.8-0.7-3.2,3.7-3.2,7.1     c-0.6,0-1.3,0-1.9,0c0-2.9,0-5.8,0-8.7c0.6,0,1.2,0,1.8,0c0,0.6,0,1.1,0,1.7C51.9,29.7,52.9,28.6,54.7,29z" fill="#43567E" fill-rule="evenodd"/></g></g><g><g><path clip-rule="evenodd" d="M1,29.2c0.7,0,1.3,0,2,0c0.5,2.2,1.2,4.3,1.7,6.5     c0.8-2,1.1-4.4,1.8-6.5c0.6,0,1.3,0,1.9,0c0.5,2.2,1,4.4,1.6,6.5c0.7-2.1,1.2-4.4,1.8-6.5c0.6,0,1.3,0,1.9,0     c-1,2.9-1.8,5.8-2.8,8.7c-0.6,0-1.3,0-1.9,0c-0.6-2.1-1.1-4.2-1.6-6.5c-0.8,1.9-1.1,4.4-1.8,6.5c-0.7,0-1.3,0-2,0     C2.8,35,1.9,32.1,1,29.2z" fill="#5877AF" fill-rule="evenodd"/></g></g><g><g><path clip-rule="evenodd" d="M16.4,29.2c0,2.9,0,5.8,0,8.7c-0.6,0-1.2,0-1.8,0     c0.1-2.9-0.1-6,0.1-8.7C15.3,29.2,15.8,29.2,16.4,29.2z" fill="#5877AF" fill-rule="evenodd"/></g></g></g></svg>