<?xml version="1.0" ?><!DOCTYPE svg  PUBLIC '-//W3C//DTD SVG 1.1//EN'  'http://www.w3.org/Graphics/SVG/1.1/DTD/svg11.dtd'><svg enable-background="new 0 0 64 64" height="64px" id="Layer_1" version="1.1" viewBox="0 0 64 64" width="64px" xml:space="preserve" xmlns="http://www.w3.org/2000/svg" xmlns:xlink="http://www.w3.org/1999/xlink"><g><g><g><polygon fill="#0594CC" points="44.6,50.9 45.5,50.9 46.5,50.8 47.4,50.7 48.4,50.5 49.3,50.3 50.2,50.1 51.1,49.8 51.9,49.4      52.8,49 53.6,48.6 54.4,48.2 55.1,47.7 55.9,47.2 56.6,46.6 57.3,46 57.9,45.4 58.6,44.7 59.2,44 59.7,43.3 60.3,42.6 60.8,41.8      61.2,41 61.6,40.2 62,39.3 62.3,38.5 62.7,37.6 62.9,36.7 63.1,35.8 63.3,34.9 63.4,33.9 63.5,32.9 63.5,32 63.5,31 63.4,30      63.3,29.1 63.1,28.2 62.9,27.3 62.7,26.4 62.3,25.5 62,24.6 61.6,23.8 61.2,23 60.8,22.2 60.3,21.4 59.7,20.7 59.2,20 58.6,19.3      57.9,18.6 57.3,18 56.6,17.4 55.9,16.8 55.1,16.3 54.4,15.8 53.6,15.4 52.8,14.9 51.9,14.6 51.1,14.2 50.2,13.9 49.3,13.7      48.4,13.5 47.4,13.3 46.5,13.2 45.5,13.1 44.6,13.1 43.6,13.1 42.6,13.2 41.7,13.3 40.7,13.5 39.8,13.7 38.9,13.9 38,14.2      37.2,14.6 36.3,14.9 35.5,15.4 34.7,15.8 34,16.3 33.2,16.8 32.5,17.4 31.8,18 31.2,18.6 30.5,19.3 29.9,20 29.4,20.7 28.9,21.4      28.4,22.2 27.9,23 27.5,23.8 27.1,24.6 26.8,25.5 26.5,26.4 26.2,27.3 26,28.2 25.8,29.1 25.7,30 25.7,31 25.6,32 25.7,32.9      25.7,33.9 25.8,34.9 26,35.8 26.2,36.7 26.5,37.6 26.8,38.5 27.1,39.3 27.5,40.2 27.9,41 28.4,41.8 28.9,42.6 29.4,43.3 29.9,44      30.5,44.7 31.2,45.4 31.8,46 32.5,46.6 33.2,47.2 34,47.7 34.7,48.2 35.5,48.6 36.3,49 37.2,49.4 38,49.8 38.9,50.1 39.8,50.3      40.7,50.5 41.7,50.7 42.6,50.8 43.6,50.9    "/></g></g><g><polygon fill="#027DBA" points="32,17.8 31.8,18 31.2,18.6 30.5,19.3 29.9,20 29.4,20.7 28.9,21.4 28.4,22.2 27.9,23 27.5,23.8     27.1,24.6 26.8,25.5 26.5,26.4 26.2,27.3 26,28.2 25.8,29.1 25.7,30 25.7,31 25.6,32 25.7,32.9 25.7,33.9 25.8,34.9 26,35.8     26.2,36.7 26.5,37.6 26.8,38.5 27.1,39.3 27.5,40.2 27.9,41 28.4,41.8 28.9,42.6 29.4,43.3 29.9,44 30.5,44.7 31.2,45.4 31.8,46     32.5,46.6 33.2,47.2 34,47.7 34.7,48.2 35.5,48.6 36.3,49 37.2,49.4 38,49.8 38.9,50.1 39.8,50.3 40.7,50.5 41.7,50.7 42.6,50.8     43.6,50.9 44.6,50.9 45.5,50.9 46.5,50.8 47.4,50.7 48.4,50.5 49.3,50.3 50.2,50.1 51.1,49.8 51.9,49.4 52.8,49 53.6,48.6     54.4,48.2 55.1,47.7 55.9,47.2 56.6,46.6 57.3,46 57.9,45.4 58.6,44.7 58.7,44.5   "/></g><g><g><polygon fill="#1F4789" points="19.5,50.9 20.4,50.9 21.4,50.8 22.3,50.7 23.3,50.5 24.2,50.3 25.1,50.1 26,49.8 26.8,49.4      27.7,49 28.5,48.6 29.3,48.2 30,47.7 30.8,47.2 31.5,46.6 32.2,46 32.8,45.4 33.5,44.7 34.1,44 34.6,43.3 35.1,42.6 35.6,41.8      36.1,41 36.5,40.2 36.9,39.3 37.2,38.5 37.5,37.6 37.8,36.7 38,35.8 38.2,34.9 38.3,33.9 38.3,32.9 38.4,32 38.3,31 38.3,30      38.2,29.1 38,28.2 37.8,27.3 37.5,26.4 37.2,25.5 36.9,24.6 36.5,23.8 36.1,23 35.6,22.2 35.1,21.4 34.6,20.7 34.1,20 33.5,19.3      32.8,18.6 32.2,18 31.5,17.4 30.8,16.8 30,16.3 29.3,15.8 28.5,15.4 27.7,14.9 26.8,14.6 26,14.2 25.1,13.9 24.2,13.7 23.3,13.5      22.3,13.3 21.4,13.2 20.4,13.1 19.5,13.1 18.5,13.1 17.5,13.2 16.6,13.3 15.6,13.5 14.7,13.7 13.8,13.9 12.9,14.2 12.1,14.6      11.2,14.9 10.4,15.4 9.6,15.8 8.9,16.3 8.1,16.8 7.4,17.4 6.7,18 6.1,18.6 5.4,19.3 4.8,20 4.3,20.7 3.7,21.4 3.2,22.2 2.8,23      2.4,23.8 2,24.6 1.7,25.5 1.4,26.4 1.1,27.3 0.9,28.2 0.7,29.1 0.6,30 0.5,31 0.5,32 0.5,32.9 0.6,33.9 0.7,34.9 0.9,35.8      1.1,36.7 1.4,37.6 1.7,38.5 2,39.3 2.4,40.2 2.8,41 3.2,41.8 3.7,42.6 4.3,43.3 4.8,44 5.4,44.7 6.1,45.4 6.7,46 7.4,46.6      8.1,47.2 8.9,47.7 9.6,48.2 10.4,48.6 11.2,49 12.1,49.4 12.9,49.8 13.8,50.1 14.7,50.3 15.6,50.5 16.6,50.7 17.5,50.8      18.5,50.9    "/></g></g><g><polygon fill="#3F6FBC" points="25.1,50.1 26,49.8 26.8,49.4 27.7,49 28.5,48.6 29.3,48.2 30,47.7 30.8,47.2 31.5,46.6 31.9,46.2     5.2,19.5 4.8,20 4.3,20.7 3.7,21.4 3.2,22.2 2.8,23 2.4,23.8 2,24.6 1.7,25.5 1.4,26.4 1.1,27.3 0.9,28.2 0.7,29.1 0.6,30 0.5,31     0.5,32 0.5,32.9 0.6,33.9 0.7,34.9 0.9,35.8 1.1,36.7 1.4,37.6 1.7,38.5 2,39.3 2.4,40.2 2.8,41 3.2,41.8 3.7,42.6 4.3,43.3     4.8,44 5.4,44.7 6.1,45.4 6.7,46 7.4,46.6 8.1,47.2 8.9,47.7 9.6,48.2 10.4,48.6 11.2,49 12.1,49.4 12.9,49.8 13.8,50.1     14.7,50.3 15.6,50.5 16.6,50.7 17.5,50.8 18.5,50.9 19.5,50.9 20.4,50.9 21.4,50.8 22.3,50.7 23.3,50.5 24.2,50.3   "/></g><g><g><polygon fill="#0594CC" points="29.7,20.3 39.3,20.3 39.3,19.2 30.6,19.2    "/></g></g><g><g><polygon fill="#027DBA" points="28.2,22.5 36.3,22.5 35.3,21.5 28.8,21.5    "/></g></g><g><g><polygon fill="#027DBA" points="27,24.8 37.3,24.8 37.3,23.7 27.6,23.7    "/></g></g><g><g><polygon fill="#027DBA" points="26.3,27 39.3,27 39.3,26 26.6,26    "/></g></g><g><g><polygon fill="#027DBA" points="25.8,29.3 39.3,29.3 39.3,28.2 26,28.2    "/></g></g><g><g><polygon fill="#027DBA" points="25.6,31.5 39.3,31.5 39.3,30.5 25.7,30.5    "/></g></g><g><g><polygon fill="#027DBA" points="25.7,33.8 39.3,33.8 39.3,32.7 25.6,32.7    "/></g></g><g><g><polygon fill="#027DBA" points="26.1,36 39.3,36 39.3,34.9 25.9,34.9    "/></g></g><g><g><polygon fill="#027DBA" points="26.7,38.2 39.3,38.2 39.3,37.2 26.4,37.2    "/></g></g><g><g><polygon fill="#027DBA" points="27.7,40.5 39.3,40.5 39.3,39.4 27.1,39.4    "/></g></g><g><g><polygon fill="#027DBA" points="29,42.8 39.3,42.8 39.3,41.7 28.3,41.7    "/></g></g><g><g><polygon fill="#027DBA" points="30.8,45 39.3,45 39.3,43.9 29.9,43.9    "/></g></g><g><g><path d="M60.7,37.4L60.7,37.4l-0.1-0.3l-0.1-0.2l-0.1-0.1l-0.1-0.1l-0.2-0.1l-0.1,0l-0.2,0l-0.1,0l-0.1,0l-0.2,0     l-0.1,0l-0.2,0.1l-0.1,0.1L59,36.9L59,36.9l-0.1,0.2l-0.1,0.2l0,0.1l0,0.1l0,0.1l0,0.1l0,0.1l0,0.1L59,38l0.1,0.1l0.1,0.1     l0.2,0.1l0.1,0l0.1,0l0.2,0l0.1,0l0.1,0l0.2,0l0.1,0l0.1,0l0.1-0.1l0.1-0.1l0.1-0.1l0.1-0.2l0.1-0.2l0-0.1l0-0.1L60.7,37.4z      M60.5,37.5l0,0.1l0,0.1l-0.1,0.1L60.3,38l-0.1,0.1L60,38.1l-0.1,0l-0.1,0l-0.1,0l-0.1,0l-0.1,0L59.3,38l-0.1-0.1l-0.1-0.1l0-0.1     l0-0.1l0-0.1l0-0.1l0.1-0.1l0-0.1l0.1-0.1l0.1-0.1l0.1,0l0.1,0l0.1,0l0.1,0l0.1,0l0.1,0.1l0.1,0.1l0.1,0.1l0.1,0.1l0,0.1     L60.5,37.5z" fill="#FFFFFF"/></g><g><path d="M60.1,37.5L60.1,37.5l0.1-0.2l0-0.1l0-0.1l0-0.1l0-0.1l0,0L60,37L60,37l-0.1,0l-0.5,0v0.9h0.3v-0.3h0.1     l0.2,0.3h0.3L60.1,37.5L60.1,37.5z M59.9,37.3L59.9,37.3L59.9,37.3L59.9,37.3l-0.3,0.1v-0.1L59.9,37.3L59.9,37.3L59.9,37.3     L59.9,37.3z" fill="#FFFFFF"/></g><g><polygon fill="#FFFFFF" points="54.2,30.1 54.2,30 54.3,29.8 54.4,29.7 54.5,29.6 54.6,29.6 54.7,29.5 54.9,29.4 55.1,29.4      55.3,29.3 55.5,29.3 56,29.3 56.5,29.3 57,29.3 57.9,29.4 58.3,29.4 58.9,27 58.9,27 57.7,26.8 56,26.7 55.3,26.7 54.7,26.7      54.4,26.7 54.2,26.8 53.7,26.9 53.4,26.9 53.2,27 53,27 52.8,27.1 52.6,27.2 52.3,27.4 52.1,27.5 52,27.6 51.8,27.7 51.6,27.9      51.5,28.1 51.3,28.4 51.2,28.5 51.1,28.8 51,29 50.9,29.4 50.8,29.8 50.8,30.2 50.7,30.6 50.7,30.9 50.8,31.2 50.9,31.5      50.9,31.7 51,31.9 51.2,32.2 51.3,32.3 51.5,32.5 51.6,32.7 51.8,32.8 52,33 52.2,33.1 52.4,33.2 52.6,33.3 53.8,33.8 54.2,33.9      54.3,34 54.5,34.1 54.6,34.2 54.7,34.3 54.7,34.4 54.8,34.5 54.8,34.6 54.8,34.7 54.8,34.9 54.8,35.1 54.7,35.3 54.6,35.4      54.5,35.6 54.3,35.7 54.2,35.7 54.1,35.8 54,35.8 53.7,35.9 53.4,35.9 52.8,35.9 52.4,35.9 51.4,35.7 50.6,35.6 49.9,35.4      49.4,37.8 49.4,37.8 50,38 50.8,38.2 52.1,38.3 53.8,38.3 54.2,38.3 54.7,38.3 55.1,38.2 55.4,38.1 55.6,38.1 56,38 56.1,37.9      56.3,37.8 56.7,37.6 57,37.4 57.1,37.3 57.3,37.2 57.4,37 57.5,36.9 57.7,36.7 57.8,36.5 57.9,36.3 58,36.2 58,35.9 58.1,35.7      58.2,35.5 58.2,35.3 58.3,35 58.3,34.7 58.3,34.4 58.3,34.1 58.2,33.8 58.2,33.5 58.1,33.3 58,33.1 58,32.9 57.8,32.7 57.7,32.6      57.6,32.4 57.5,32.3 57.3,32.2 57,32 56.8,31.9 56.7,31.8 56.3,31.7 55.6,31.5 55.2,31.3 55,31.2 54.7,31.1 54.5,30.9 54.4,30.8      54.3,30.7 54.3,30.5 54.2,30.4 54.2,30.3 54.2,30.2    "/></g><g><polygon fill="#FFFFFF" points="16.5,38.2 16.5,38.3 20.1,38.3 22,27.2 22,27.1 18.4,27.1    "/></g><g><polygon fill="#FFFFFF" points="46.3,27.1 45.5,32.8 45.4,33 45.3,33.3 45.2,33.6 45.1,33.8 45,34 44.8,34.2 44.7,34.3      44.5,34.5 44.3,34.6 44.1,34.7 43.9,34.8 43.7,34.8 43.5,34.9 43.1,34.9 43,34.9 42.8,34.9 42.7,34.9 42.5,34.9 42.4,34.8      42.3,34.7 42.2,34.7 42.1,34.6 42,34.4 41.9,34.3 41.8,34.2 41.8,34 41.7,33.8 41.7,33.6 41.7,33.4 41.7,33.1 42.6,27.1      39.1,27.1 38.1,33.6 38,34.1 38,34.3 38,34.6 38,34.8 38,35 38.1,35.3 38.2,35.7 38.2,35.9 38.3,36.3 38.5,36.6 38.7,37      38.8,37.1 38.9,37.3 39.2,37.5 39.3,37.7 39.4,37.8 39.6,37.9 39.9,38 40,38.1 40.2,38.2 40.3,38.2 40.5,38.3 40.7,38.3      40.8,38.3 41.2,38.3 41.9,38.3 42.3,38.2 42.6,38.2 43.1,38.1 43.4,38 43.7,37.9 43.9,37.7 44.2,37.5 44.6,37.2 44.9,36.8      44.7,38.3 48.2,38.3 49.9,27.1    "/></g><g><polygon fill="#FFFFFF" points="17.3,24.8 17.3,24.8 15.7,24.3 15,24.2 14.4,24.1 13.7,24 13.1,24 12.8,24.1 12.4,24.1 12,24.2      11.7,24.2 11.3,24.3 11,24.4 10.7,24.5 10.4,24.6 10.1,24.7 9.8,24.9 9.5,25 9.3,25.2 9,25.4 8.8,25.6 8.5,25.8 8.3,26 8.1,26.3      7.9,26.5 7.7,26.8 7.5,27.1 7.3,27.4 7.2,27.7 7,28 6.9,28.3 6.7,28.7 6.6,29 6.4,29.8 6.2,30.7 6.1,31.1 6,31.5 6,32 6,32.4      6,32.8 6,33.2 6,33.5 6.1,33.9 6.1,34.2 6.2,34.5 6.3,34.9 6.4,35.2 6.6,35.5 6.7,35.7 6.9,36 7,36.2 7.2,36.5 7.4,36.7      7.6,36.9 7.8,37.1 8,37.2 8.2,37.4 8.5,37.6 8.7,37.7 8.9,37.8 9.2,37.9 9.4,38 9.6,38.1 9.9,38.2 10.1,38.2 10.4,38.3      10.6,38.3 11.2,38.4 11.7,38.4 12.2,38.4 12.9,38.4 13.4,38.3 13.7,38.2 13.9,38.2 14.4,38 14.6,37.9 15,37.6 15.6,34.6      15.3,34.8 15.1,35 14.9,35.1 14.6,35.2 14.5,35.3 14.3,35.4 13.9,35.5 13.3,35.5 13.1,35.6 12.6,35.5 11.8,35.5 11.4,35.4      11.1,35.2 10.7,35.1 10.5,34.9 10.2,34.7 10,34.4 9.8,34.2 9.7,33.9 9.6,33.6 9.5,33.3 9.4,32.9 9.4,32.6 9.4,32.3 9.4,31.9      9.4,31.5 9.5,31.2 9.7,30.5 9.8,29.9 10.1,29.4 10.2,29.1 10.3,28.9 10.5,28.5 10.6,28.3 10.8,28.2 10.9,28 11,27.9 11.2,27.8      11.5,27.6 11.6,27.5 11.9,27.3 12,27.3 12.3,27.2 12.5,27.2 12.6,27.1 13.2,27.1 14,27 14.4,27.1 15,27.2 15.7,27.4 16.2,27.6      16.8,27.9    "/></g><g><polygon fill="#FFFFFF" points="29.9,30.3 30.9,26.9 30.5,26.9 30,26.9 29.7,26.9 29.3,27 28.8,27.1 28.3,27.4 28.1,27.5      27.9,27.6 27.7,27.8 27.5,28 27.2,28.3 27.3,27 27.3,27 24.2,27 24.1,27 22.2,38.2 22.2,38.3 25.8,38.3 27.1,31.5 27.2,31.4      27.3,31.2 27.4,31.1 27.5,30.9 27.6,30.8 27.7,30.7 27.8,30.6 28,30.4 28.2,30.3 28.3,30.3 28.6,30.2 28.9,30.1 29.1,30.1      29.2,30.1 29.8,30.2    "/></g><g><polygon fill="#FFFFFF" points="38.1,26.9 37.6,26.9 37.3,26.9 36.9,27 36.5,27.1 36.2,27.2 36,27.3 35.8,27.4 35.5,27.6      35.2,27.8 35,28 34.7,28.3 34.9,27 34.8,27 31.8,27 31.7,27 29.8,38.2 29.7,38.3 33.3,38.3 34.7,31.5 34.7,31.4 34.8,31.2      34.9,31.1 35,30.9 35.1,30.8 35.2,30.7 35.4,30.6 35.5,30.5 35.6,30.4 35.7,30.3 35.9,30.3 36.1,30.2 36.5,30.1 36.6,30.1      36.8,30.1 37.4,30.2 37.5,30.3 38.5,26.9    "/></g></g></g></svg>