<?xml version="1.0" ?><!DOCTYPE svg  PUBLIC '-//W3C//DTD SVG 1.1//EN'  'http://www.w3.org/Graphics/SVG/1.1/DTD/svg11.dtd'><svg enable-background="new 0 0 64 64" height="64px" id="Layer_1" version="1.1" viewBox="0 0 64 64" width="64px" xml:space="preserve" xmlns="http://www.w3.org/2000/svg" xmlns:xlink="http://www.w3.org/1999/xlink"><g><g><path d="M8,26.6c0,1-0.3,1.2-0.9,1.2H4.7v-2.4h2.4C7.7,25.4,8,25.6,8,26.6" fill="#0C4875"/></g><g><path d="M10.7,22.1H1.5c-0.6,0-1,0.5-1,1v9.2c0,0.6,0.5,1,1,1h9.2c0.6,0,1-0.5,1-1v-9.2    C11.7,22.6,11.2,22.1,10.7,22.1z M8.7,29.2c-0.4,0.1-0.8,0.2-1.4,0.2H4.7v1.9c0,0.2-0.2,0.4-0.4,0.4H3.1c-0.2,0-0.4-0.2-0.4-0.4    v-7.2c0-0.2,0.2-0.4,0.4-0.4h4.2c0.6,0,1,0,1.4,0.2c0.8,0.3,1.2,1.2,1.2,2.7C9.9,28,9.5,28.9,8.7,29.2z" fill="#2574A5"/></g><g><path d="M0.5,23.1v9.2c0,0.6,0.5,1,1,1h9.2c0.6,0,1-0.5,1-1v-9.2c0-0.6-0.5-1-1-1 M8.7,29.2    c-0.4,0.1-0.8,0.2-1.4,0.2H4.7v1.9c0,0.2-0.2,0.4-0.4,0.4H3.1c-0.2,0-0.4-0.2-0.4-0.4v-7.2c0-0.2,0.2-0.4,0.4-0.4h4.2    c0.6,0,1,0,1.4,0.2c0.8,0.3,1.2,1.2,1.2,2.7C9.9,28,9.5,28.9,8.7,29.2z" fill="#0C4875"/></g><g><path d="M14.8,25.4c0-0.2-0.2-0.4-0.4-0.4h-1.2c-0.2,0-0.4,0.2-0.4,0.4v5.9c0,0.2,0.2,0.4,0.4,0.4h1.2    c0.2,0,0.4-0.2,0.4-0.4V25.4z" fill="#0C4875"/></g><g><path d="M18.7,26.5c0.5,0,1.2,0,1.5,0.1c0.3,0,0.4-0.1,0.4-0.3v-0.7c0-0.3-0.1-0.4-0.4-0.5c-0.2,0-0.7-0.2-1.5-0.2    c-2.6,0-2.8,2.4-2.8,2.9c0,0.4,0,0.8,0,1.1c0,0.5,0.2,2.9,2.8,2.9c0.8,0,1.4-0.1,1.5-0.2c0.3-0.1,0.4-0.2,0.4-0.5v-0.7    c0-0.3-0.1-0.4-0.4-0.3c-0.4,0-1,0.1-1.5,0.1c-0.6,0-0.9-0.4-1-1.3c0-0.3,0-0.7,0-1.1C17.8,26.9,18.1,26.5,18.7,26.5" fill="#0C4875"/></g><g><path d="M27.2,31.7h-1.5c-0.2,0-0.4-0.2-0.5-0.3l-1.7-2.3v2.2c0,0.2-0.2,0.4-0.4,0.4h-1.1c-0.2,0-0.4-0.2-0.4-0.4    v-8.2c0-0.2,0.2-0.4,0.4-0.4h1.1c0.2,0,0.4,0.2,0.4,0.4v4.3l1.8-2.3c0.1-0.1,0.2-0.2,0.4-0.2h1.3c0.3,0,0.4,0.2,0.2,0.5l-2.3,2.7    l2.4,3.1C27.6,31.5,27.5,31.7,27.2,31.7" fill="#0C4875"/></g><g><path d="M35.7,27.3v4c0,0.2-0.2,0.4-0.4,0.4h-1.1c-0.2,0-0.4-0.2-0.4-0.4v-3.9c0-0.5-0.1-0.8-1-0.8    c-0.5,0-0.8,0.1-1.1,0.1v4.7c0,0.2-0.2,0.4-0.4,0.4H30c-0.2,0-0.4-0.2-0.4-0.4v-5.6c0-0.1,0-0.3,0.3-0.4c0.5-0.1,1.6-0.4,2.7-0.4    C34.9,24.9,35.7,25.8,35.7,27.3" fill="#D32259"/></g><g><path d="M63.5,31.2c0,2.1-0.9,3.1-3.1,3.1c-0.8,0-1.6-0.1-2.1-0.3c-0.3-0.1-0.4-0.2-0.4-0.4v-0.7    c0-0.2,0.1-0.4,0.4-0.3c0.6,0.1,1.3,0.2,1.9,0.2c1.1,0,1.2-0.3,1.2-1.1c-0.4,0.1-0.8,0.1-1.2,0.1c-2,0-2.8-0.6-2.8-2.4v-3.9    c0-0.2,0.2-0.4,0.4-0.4h1.1c0.2,0,0.4,0.2,0.4,0.4v4c0,0.6,0.3,0.9,1.1,0.9c0.3,0,0.7-0.1,0.9-0.1v-4.7c0-0.2,0.2-0.4,0.4-0.4h1.1    c0.2,0,0.4,0.2,0.4,0.4V31.2z" fill="#D32259"/></g><g><path d="M48.5,22.1h-9.2c-0.6,0-1,0.5-1,1v9.2c0,0.6,0.5,1,1,1h9.2c0.6,0,1-0.5,1-1v-9.2    C49.5,22.6,49.1,22.1,48.5,22.1z M46.5,29.2c-0.4,0.1-0.8,0.2-1.4,0.2h-2.6v1.9c0,0.2-0.2,0.4-0.4,0.4h-1.1    c-0.2,0-0.4-0.2-0.4-0.4v-7.2c0-0.2,0.2-0.4,0.4-0.4h4.2c0.6,0,1,0,1.4,0.2c0.8,0.3,1.2,1.2,1.2,2.7C47.7,28,47.3,28.9,46.5,29.2z    " fill="#F93283"/></g><g><path d="M38.3,23.1v9.2c0,0.6,0.5,1,1,1h9.2c0.6,0,1-0.5,1-1v-9.2c0-0.6-0.5-1-1-1 M46.5,29.2    c-0.4,0.1-0.8,0.2-1.4,0.2h-2.6v1.9c0,0.2-0.2,0.4-0.4,0.4h-1.1c-0.2,0-0.4-0.2-0.4-0.4v-7.2c0-0.2,0.2-0.4,0.4-0.4h4.2    c0.6,0,1,0,1.4,0.2c0.8,0.3,1.2,1.2,1.2,2.7C47.7,28,47.3,28.9,46.5,29.2z" fill="#D32259"/></g><g><path d="M44.9,25.4h-2.4v2.4h2.4c0.6,0,0.9-0.3,0.9-1.2C45.8,25.6,45.5,25.4,44.9,25.4" fill="#D32259"/></g><g><path d="M53.5,24.9c-0.8,0-1.5,0.1-2,0.2c-0.3,0.1-0.4,0.2-0.4,0.4v0.7c0,0.3,0.2,0.4,0.4,0.4    c0.5-0.1,1.1-0.1,1.7-0.1c0.9,0,1,0.2,1,0.7v0.3c-0.6,0-1.4,0-2,0.1c-1.1,0.2-1.8,0.9-1.8,2.2c0,1.5,0.9,2.1,2.8,2.1    c1.1,0,1.9-0.1,2.5-0.2c0.2,0,0.3-0.2,0.3-0.5v-3.9C56.3,25.9,56.1,24.9,53.5,24.9z M54.4,30.3c-0.2,0-0.7,0.1-0.9,0.1    c-0.7,0-1-0.2-1-0.8c0-0.5,0.4-0.7,0.8-0.8c0.3,0,0.8,0,1.2,0V30.3z" fill="#D32259"/></g><g><g><g><path d="M1.1,40.7H0.9c-0.2,0-0.3-0.1-0.3-0.3v-3.2C0.5,37,0.8,37,0.9,37h0.2c0.2,0,0.3,0.1,0.3,0.3v3.2      C1.4,40.6,1.3,40.7,1.1,40.7" fill="#0C4875"/></g></g><g><g><path d="M4.4,40.7H4.2c-0.2,0-0.4,0-0.4-0.3V39c0-0.3,0-0.4-0.2-0.4c-0.2,0-0.4,0.1-0.6,0.3v1.5      c0,0.2-0.1,0.3-0.3,0.3H2.5c-0.2,0-0.4,0-0.4-0.3v-2.1c0-0.2,0.1-0.3,0.3-0.3h0.3c0.1,0,0.2,0.1,0.2,0.1      c0.2-0.1,0.5-0.2,0.7-0.2c0.7,0,0.9,0.4,0.9,0.8v1.7C4.6,40.6,4.6,40.7,4.4,40.7" fill="#0C4875"/></g></g><g><g><path d="M6.4,40.8c-0.4,0-0.6,0-0.8,0c-0.2,0-0.2,0-0.2-0.3c0-0.2,0-0.4,0.2-0.4c0,0,0.4,0.1,0.9,0.1      c0.2,0,0.2,0,0.2-0.1c0-0.1,0-0.1,0-0.1c-0.1-0.1-0.9-0.2-1.2-0.4c-0.1-0.1-0.2-0.3-0.2-0.6c0-0.8,0.6-0.9,1.3-0.9      c0.1,0,0.3,0,0.4,0c0.2,0,0.3,0.1,0.3,0.3c0,0.2,0,0.4-0.3,0.4c-0.1,0-0.4,0-0.7,0c-0.2,0-0.3,0-0.3,0.2c0,0.1,0,0.1,0.4,0.2      c0.6,0.2,1,0.2,1,0.9C7.5,40.6,7.2,40.8,6.4,40.8" fill="#0C4875"/></g></g><g><g><path d="M9.9,38.8c0-0.1-0.1-0.1-0.2-0.1c-0.2,0-0.5,0.1-0.7,0.3V40c0.1,0,0.3,0.1,0.5,0.1c0.1,0,0.2,0,0.2,0      c0.1,0,0.2-0.1,0.2-0.7C9.9,39.2,9.9,38.9,9.9,38.8 M10.6,40.2c-0.2,0.4-0.6,0.5-1.1,0.5c-0.1,0-0.3,0-0.4,0v0.8      c0,0.2-0.1,0.3-0.3,0.3H8.6c-0.2,0-0.4,0-0.4-0.3v-3.2c0-0.2,0.1-0.3,0.3-0.3h0.3C8.9,38,9,38.1,9,38.2c0.2-0.1,0.5-0.2,0.8-0.2      c0.9,0,1,0.7,1,1.4C10.8,39.8,10.7,40,10.6,40.2" fill="#0C4875"/></g></g><g><g><path d="M12,40.7h-0.2c-0.2,0-0.4-0.1-0.4-0.3v-2.1c0-0.2,0.1-0.3,0.3-0.3H12c0.2,0,0.3,0.2,0.3,0.3v2.1      C12.3,40.6,12.2,40.7,12,40.7 M12,37.6h-0.2c-0.2,0-0.4,0-0.4-0.3v-0.2c0-0.2,0.1-0.3,0.3-0.3H12c0.2,0,0.3,0.2,0.3,0.3v0.2      C12.3,37.5,12.2,37.6,12,37.6" fill="#0C4875"/></g></g><g><g><path d="M14.5,38.7c-0.3,0-0.5,0.1-0.7,0.2v1.5c0,0.2-0.1,0.3-0.3,0.3h-0.2c-0.2,0-0.4,0-0.4-0.3v-2.1      c0-0.2,0.1-0.3,0.3-0.3h0.3c0.1,0,0.2,0.1,0.3,0.1c0.2-0.1,0.4-0.2,0.7-0.2c0.1,0,0.3,0.1,0.3,0.2v0.2      C14.8,38.5,14.8,38.7,14.5,38.7" fill="#0C4875"/></g></g><g><g><path d="M16.8,38.9c0-0.3-0.1-0.4-0.4-0.4c-0.4,0-0.4,0.2-0.4,0.5h0.8 M17.3,39.6H16c0,0.4,0.1,0.5,0.5,0.5      c0.3,0,0.5,0,0.7-0.1c0.1,0,0.1,0,0.1,0c0.2,0,0.2,0.2,0.2,0.4c0,0.1,0,0.3-0.3,0.3c-0.3,0-0.6,0.1-0.9,0.1      c-1.1,0-1.3-0.5-1.3-1.4c0-0.9,0.2-1.4,1.3-1.4c1,0,1.2,0.5,1.2,1.3C17.6,39.6,17.6,39.6,17.3,39.6" fill="#0C4875"/></g></g><g><g><path d="M19.8,38.7c-0.2,0-0.4-0.1-0.5-0.1c-0.1,0-0.2,0-0.2,0c-0.1,0-0.2,0.2-0.2,0.8c0,0.2,0,0.6,0.3,0.6      c0.1,0,0.3-0.1,0.5-0.2 M20.4,40.7h-0.2c-0.1,0-0.2,0-0.3-0.1c-0.3,0.1-0.5,0.2-0.7,0.2c-0.7,0-1.1-0.5-1.1-1.4      c0-1,0.4-1.5,1.3-1.5c0.1,0,0.3,0,0.5,0v-0.8c0-0.2,0.1-0.3,0.3-0.3h0.2c0.2,0,0.3,0.2,0.3,0.3v3.2      C20.7,40.6,20.6,40.7,20.4,40.7" fill="#0C4875"/></g></g><g><g><path d="M24.3,38.8c0-0.1-0.1-0.2-0.3-0.2c-0.1,0-0.3,0-0.5,0.1v1.3c0.1,0,0.3,0,0.4,0c0.3,0,0.4-0.1,0.4-0.2      c0-0.1,0.1-0.3,0.1-0.6C24.4,39.1,24.4,39,24.3,38.8 M23.9,40.8c-0.2,0-0.6,0-0.9-0.1c-0.2,0-0.3-0.1-0.3-0.3v-3.2      c0-0.2,0.1-0.3,0.3-0.3h0.3c0.2,0,0.3,0.2,0.3,0.3V38c0.2,0,0.4,0,0.6,0c0.8,0,1.1,0.4,1.1,1.4C25.2,40.4,24.9,40.8,23.9,40.8" fill="#0C4875"/></g></g><g><g><path d="M28.3,38.4L27,41.7c-0.1,0.2-0.2,0.2-0.3,0.2h-0.3c-0.1,0-0.3,0-0.3-0.2c0-0.1,0-0.1,0-0.2l0.4-0.9      l-0.9-2.2c0,0,0-0.1,0-0.1c0-0.1,0.2-0.2,0.3-0.2h0.3c0.3,0,0.3,0,0.4,0.2l0.4,1.4l0.4-1.3c0.1-0.2,0.2-0.3,0.4-0.3H28      C28.1,38,28.3,38.1,28.3,38.4L28.3,38.4" fill="#0C4875"/></g></g><g><g><path d="M32.3,38.4l-1.2,3.3c-0.1,0.2-0.2,0.2-0.3,0.2h-0.3c-0.1,0-0.3,0-0.3-0.2c0-0.1,0-0.1,0-0.2l0.4-0.9      l-0.9-2.2c0,0,0-0.1,0-0.1c0-0.1,0.2-0.2,0.3-0.2h0.3c0.3,0,0.3,0,0.4,0.2l0.4,1.4l0.4-1.3c0.1-0.2,0.2-0.3,0.4-0.3h0.2      C32.2,38,32.3,38.1,32.3,38.4L32.3,38.4" fill="#0C4875"/></g></g><g><g><path d="M34.4,38.8c0-0.1-0.1-0.1-0.4-0.1c-0.3,0-0.4,0.1-0.4,0.1c-0.1,0.1-0.1,0.3-0.1,0.6c0,0.3,0,0.5,0.1,0.6      c0.1,0.1,0.1,0.1,0.4,0.1c0.3,0,0.4,0,0.4-0.1c0.1-0.1,0.1-0.3,0.1-0.6C34.5,39.1,34.5,38.9,34.4,38.8 M34,40.8      c-1,0-1.4-0.5-1.4-1.4c0-0.9,0.4-1.4,1.4-1.4s1.3,0.6,1.3,1.4C35.4,40.3,35,40.8,34,40.8" fill="#0C4875"/></g></g><g><g><path d="M38,40.7h-0.3c-0.1,0-0.2-0.1-0.2-0.1c-0.2,0.1-0.5,0.2-0.7,0.2c-0.7,0-0.9-0.4-0.9-0.8v-1.6      c0-0.2,0.1-0.3,0.3-0.3h0.2c0.2,0,0.4,0,0.4,0.3v1.4c0,0.2,0,0.4,0.1,0.4c0.2,0,0.4-0.1,0.6-0.3v-1.5c0-0.2,0.1-0.3,0.3-0.3H38      c0.2,0,0.4,0,0.4,0.3v2.1C38.3,40.7,38.2,40.7,38,40.7" fill="#0C4875"/></g></g></g><g><g><path d="M9.4,28.6C9.3,28.8,9.2,28.9,9,29l-4.3,4.3h6c0.6,0,1-0.5,1-1v-6L9.4,28.6z" fill="#02324F"/></g></g><g><g><path d="M47.2,28.6c-0.1,0.2-0.3,0.3-0.4,0.4l-4.3,4.3h6c0.6,0,1-0.5,1-1v-6L47.2,28.6z" fill="#AF0C4B"/></g></g></g></svg>