<?xml version="1.0" ?><!DOCTYPE svg  PUBLIC '-//W3C//DTD SVG 1.1//EN'  'http://www.w3.org/Graphics/SVG/1.1/DTD/svg11.dtd'><svg enable-background="new 0 0 64 64" height="64px" id="Layer_1" version="1.1" viewBox="0 0 64 64" width="64px" xml:space="preserve" xmlns="http://www.w3.org/2000/svg" xmlns:xlink="http://www.w3.org/1999/xlink"><g><g><g><g><path d="M63,32L63,32c0-4-2.9-7.3-6.9-7.3c-4,0-6.8,3.2-6.8,7.2v0.1c0,3.9,2.9,7.2,6.9,7.2      C60.2,39.2,63,35.9,63,32 M45,24.2l-2.5,2.5c-1.4-1.2-3-2-5.1-2c-3.9,0-6.7,3.2-6.7,7.2v0.1c0,4,2.8,7.2,6.7,7.2      c2.1,0,3.5-0.7,5-1.9l2.4,2.3c-1.9,1.8-4.1,2.9-7.5,2.9C31.4,42.4,27,37.8,27,32v-0.1c0-5.8,4.3-10.5,10.5-10.5      C41,21.4,43.2,22.6,45,24.2 M24.9,42.1H10.2v-2.8l7-5.9C20,31,21,29.7,21,27.9c0-2-1.4-3.2-3.3-3.2s-3.1,1-4.7,3l-2.5-2      c1.9-2.7,3.9-4.3,7.5-4.3c4,0,6.7,2.4,6.7,6.1v0.1c0,3.2-1.7,4.9-5.3,7.9L15.2,39h9.7V42.1z M61.7,22.9C57.8,10.2,46,1,32,1      C14.9,1,1,14.9,1,32c0,17.1,13.9,31,31,31c14,0,25.9-9.3,29.7-22.1c-1.6,1-3.5,1.5-5.7,1.5c-6.2,0-10.6-4.7-10.6-10.4v-0.1      c0-5.7,4.4-10.5,10.6-10.5C58.2,21.4,60.1,22,61.7,22.9" fill="#008FBE"/></g></g></g><g><g><path d="M32,1C16.7,1,4,12,1.5,26.6c4.1,3.7,9.3,6.3,14.9,7.4l0.8-0.6C20,31,21,29.7,21,27.9c0-2-1.4-3.2-3.3-3.2     s-3.1,1-4.7,3l-2.5-2c1.9-2.7,3.9-4.3,7.5-4.3c4,0,6.7,2.4,6.7,6.1v0.1c0,2.8-1.3,4.5-4.1,6.8c0.5,0,1,0,1.5,0     c1.7,0,3.5-0.2,5.1-0.4C27.1,33.4,27,32.7,27,32v-0.1c0-5.8,4.3-10.5,10.5-10.5c3.5,0,5.7,1.1,7.5,2.8c3.8-4.3,6.5-9.7,7.4-15.6     C47,3.9,39.8,1,32,1z" fill="#05AFD6"/></g><g><path d="M42.5,26.7c-1.4-1.2-3-2-5.1-2c-3.9,0-6.7,3.2-6.7,7.2v0.1c0,0.4,0,0.9,0.1,1.3c5.5-1.6,10.4-4.8,14.2-9     L42.5,26.7z" fill="#05AFD6"/></g></g><g><path d="M24.9,39.2v2.9H10.3l-0.1,0L31.1,63c0.3,0,0.6,0,0.9,0c4.9,0,9.5-1.1,13.6-3.1L24.9,39.2z" fill="#0472A3"/></g><g><path d="M43.5,38.3L43.5,38.3l1.3,1.3c-1.9,1.8-4.1,2.9-7.5,2.9c-2,0-3.9-0.6-5.5-1.5L48.9,58    c2.9-1.9,5.4-4.2,7.5-6.8L43.5,38.3z" fill="#0472A3"/></g><g><path d="M61.8,40.9c-1.6,1-3.5,1.5-5.7,1.5c-2.2,0-4.1-0.6-5.7-1.6l7.8,7.8C59.7,46.3,60.9,43.7,61.8,40.9z" fill="#0472A3"/></g><g><path d="M46.3,5.7c0-0.4,0-0.8,0-1.3C42,2.2,37.1,1,32,1C19,1,7.8,9,3.2,20.5c4.1,5.2,10.3,8.7,17.3,9.2    c0.3-0.6,0.4-1.2,0.4-1.8c0-2-1.4-3.2-3.3-3.2s-3.1,1-4.7,3l-2.5-2c1.9-2.7,3.9-4.3,7.5-4.3c4,0,6.7,2.4,6.7,6.1v0.1    c0,0.7-0.1,1.4-0.3,2c1-0.1,2-0.2,3-0.5c1.1-4.4,5-7.7,10.1-7.7c1,0,1.9,0.1,2.7,0.3C43.9,17.5,46.3,11.8,46.3,5.7z" fill="#05C6E5"/></g><g><path d="M40.9,5.7c0-1.2-0.1-2.4-0.3-3.5C37.9,1.4,35,1,32,1C21.1,1,11.6,6.6,6,15.1c1.8,3.2,4.6,5.7,7.9,7.3    c1.1-0.6,2.4-1,4.1-1c2.6,0,4.7,1.1,5.8,2.8C33.4,23.5,40.9,15.5,40.9,5.7z" fill="#0AD9EF"/></g></g></svg>