<?xml version="1.0" ?><!DOCTYPE svg  PUBLIC '-//W3C//DTD SVG 1.1//EN'  'http://www.w3.org/Graphics/SVG/1.1/DTD/svg11.dtd'><svg enable-background="new 0 0 64 64" height="64px" id="Layer_1" version="1.1" viewBox="0 0 64 64" width="64px" xml:space="preserve" xmlns="http://www.w3.org/2000/svg" xmlns:xlink="http://www.w3.org/1999/xlink"><g><g><g><g><path clip-rule="evenodd" d="M1,41.2h6.8v-5.4c1.5,0,2.9,0,4.4,0c0.2,0,0.4,0,0.7,0      c0.9-0.1,1.8-0.2,2.5-0.5c0.8-0.2,1.4-0.6,1.9-1c0.5-0.4,1-0.9,1.3-1.4c0.4-0.5,0.6-1.2,0.8-1.9s0.3-1.5,0.2-2.3      c0-0.8-0.1-1.5-0.4-2.1c-0.2-0.6-0.5-1.2-0.9-1.7C18,24.4,17.5,24,17,23.7c-0.6-0.3-1.2-0.6-2-0.8s-1.7-0.3-2.7-0.3H1V41.2z       M7.8,26.8c1.1,0,2.1-0.1,3.2,0.1c0.2,0,0.5,0.1,0.7,0.2c0.2,0.1,0.4,0.2,0.5,0.3c0.7,0.7,0.9,1.4,0.7,2.2      c-0.1,0.4-0.2,0.7-0.5,1c-0.1,0.1-0.3,0.3-0.5,0.4c-0.7,0.4-1.6,0.5-2.5,0.5H7.8V26.8z" fill="#6E7A8E" fill-rule="evenodd"/></g></g><g><g><path clip-rule="evenodd" d="M1,41.2h6.8v-5.4c1.5,0,2.9,0,4.4,0c0.2,0,0.4,0,0.7,0      c0.9-0.1,1.8-0.2,2.5-0.5c0.8-0.2,1.4-0.6,1.9-1c0.5-0.4,1-0.9,1.3-1.4c0.4-0.5,0.6-1.2,0.8-1.9s0.3-1.5,0.2-2.3      c0-0.8-0.1-1.5-0.4-2.1c-0.2-0.6-0.5-1.2-0.9-1.7C18,24.4,17.5,24,17,23.7c-0.6-0.3-1.2-0.6-2-0.8s-1.7-0.3-2.7-0.3L1,29.4V41.2      z M7.8,26.8c1.1,0,2.1-0.1,3.2,0.1c0.2,0,0.5,0.1,0.7,0.2c0.2,0.1,0.4,0.2,0.5,0.3c0.7,0.7,0.9,1.4,0.7,2.2      c-0.1,0.4-0.2,0.7-0.5,1c-0.1,0.1-0.3,0.3-0.5,0.4c-0.7,0.4-1.6,0.5-2.5,0.5H7.8V26.8z" fill="#505F7C" fill-rule="evenodd"/></g></g><g><g><path clip-rule="evenodd" d="M14,41.2h6.8v-5.4c1.5,0,2.9,0,4.4,0c0.2,0,0.4,0,0.7,0      c0.9-0.1,1.8-0.2,2.5-0.5c0.8-0.2,1.4-0.6,1.9-1c0.5-0.4,1-0.9,1.3-1.4c0.4-0.5,0.6-1.2,0.8-1.9c0.2-0.7,0.3-1.5,0.2-2.3      c0-0.8-0.1-1.5-0.4-2.2C32,26,31.7,25.5,31.4,25c-0.4-0.5-0.9-0.9-1.4-1.2c-0.6-0.3-1.2-0.6-2-0.8c-0.8-0.2-1.7-0.3-2.7-0.3H14      V41.2z M20.8,26.9c1.1,0,2.1-0.1,3.2,0.1c0.2,0,0.5,0.1,0.7,0.2c0.2,0.1,0.4,0.2,0.5,0.3c0.7,0.7,0.9,1.4,0.7,2.2      c-0.1,0.4-0.2,0.7-0.5,1c-0.1,0.1-0.3,0.3-0.5,0.4c-0.7,0.4-1.6,0.5-2.5,0.5h-1.7V26.9z" fill="#6E7A8E" fill-rule="evenodd"/></g></g><g><g><path clip-rule="evenodd" d="M14,41.2h6.8v-5.4c1.5,0,2.9,0,4.4,0c0.2,0,0.4,0,0.7,0      c0.9-0.1,1.8-0.2,2.5-0.5c0.8-0.2,1.4-0.6,1.9-1c0.5-0.4,1-0.9,1.3-1.4c0.4-0.5,0.6-1.2,0.8-1.9c0.2-0.7,0.3-1.5,0.2-2.3      c0-0.8-0.1-1.5-0.4-2.2C32,26,31.7,25.5,31.4,25c-0.4-0.5-0.9-0.9-1.4-1.2c-0.6-0.3-1.2-0.6-2-0.8c-0.8-0.2-1.7-0.3-2.7-0.3      L14,29.4V41.2z M20.8,26.9c1.1,0,2.1-0.1,3.2,0.1c0.2,0,0.5,0.1,0.7,0.2c0.2,0.1,0.4,0.2,0.5,0.3c0.7,0.7,0.9,1.4,0.7,2.2      c-0.1,0.4-0.2,0.7-0.5,1c-0.1,0.1-0.3,0.3-0.5,0.4c-0.7,0.4-1.6,0.5-2.5,0.5h-1.7V26.9z" fill="#505F7C" fill-rule="evenodd"/></g></g><g><g><path clip-rule="evenodd" d="M14,35.6c0.3-0.1,0.6-0.1,0.9-0.2c0.7-0.2,1.3-0.4,1.9-0.8      c0.6-0.3,1-0.7,1.4-1.2c0.4-0.5,0.7-1,1-1.6c0.2-0.6,0.4-1.3,0.4-2.1c0.1-0.7,0-1.5-0.1-2.2c-0.1-0.7-0.3-1.3-0.6-1.8      c-0.3-0.5-0.7-1-1.1-1.4c-0.5-0.4-1-0.7-1.6-1c-0.7-0.3-1.4-0.5-2.2-0.5V35.6z" fill="#F4C82E" fill-rule="evenodd"/></g></g><g><g><path clip-rule="evenodd" d="M33.7,23.7h4.2c0.9,0,1.6,0.2,2,0.6c0.2,0.2,0.4,0.5,0.5,0.8      c0.1,0.3,0.2,0.7,0.2,1.1c0,0.8-0.2,1.5-0.7,1.9c-0.2,0.2-0.6,0.4-0.9,0.5c-0.7,0.2-1.7,0.2-2.7,0.2v3h-2.5V23.7z M36.3,27.2      h0.6c0.5,0,0.8-0.1,1-0.2c0.2-0.2,0.3-0.4,0.3-0.6c0-0.3-0.1-0.5-0.3-0.6c-0.1-0.1-0.2-0.2-0.4-0.2c-0.3-0.1-0.8-0.1-1.3-0.1      V27.2z" fill="#505F7C" fill-rule="evenodd"/></g></g><g><g><path clip-rule="evenodd" d="M40.7,27.6c0.1-0.4,0.2-0.7,0.3-0.9c0.1-0.1,0.2-0.2,0.3-0.3      c0.1-0.1,0.2-0.2,0.4-0.3c0.4-0.2,1.3-0.4,2-0.4c0.7,0,1.2,0,1.6,0.1c0.2,0,0.4,0.1,0.6,0.2c0.2,0.1,0.3,0.2,0.5,0.3      c0.4,0.3,0.6,1,0.6,1.6v2.6c0,0.5,0,0.7,0.1,0.9c0,0.1,0.1,0.2,0.1,0.3h-2.1c-0.2-0.3-0.2-0.4-0.2-0.5c0-0.1,0-0.1,0-0.2      c-0.3,0.3-0.6,0.5-0.9,0.6c-0.4,0.2-0.9,0.2-1.4,0.2c-0.7,0-1.2-0.2-1.6-0.5c-0.2-0.2-0.3-0.3-0.4-0.5c-0.1-0.2-0.1-0.4-0.1-0.7      c0-0.2,0-0.4,0.1-0.6c0.1-0.2,0.2-0.3,0.3-0.5c0.1-0.1,0.3-0.3,0.6-0.4c0.2-0.1,0.5-0.2,0.9-0.3c0.8-0.2,1.4-0.3,1.6-0.4      c0.3-0.1,0.5-0.2,0.8-0.3c0-0.3-0.1-0.5-0.2-0.6c-0.2-0.1-0.4-0.2-0.6-0.2c-0.2,0-0.3,0-0.5,0c-0.2,0.1-0.4,0.1-0.5,0.3      c-0.1,0.1-0.1,0.2-0.2,0.3L40.7,27.6z M44.8,29.1c-0.3,0.1-0.6,0.2-1,0.3c-0.2,0.1-0.4,0.1-0.6,0.2c-0.1,0.1-0.2,0.1-0.3,0.2      c-0.1,0.1-0.2,0.3-0.2,0.4c0,0.2,0.1,0.3,0.2,0.4c0.2,0.1,0.3,0.2,0.5,0.2c0.3,0,0.5-0.1,0.7-0.2c0.4-0.2,0.5-0.5,0.6-0.7      C44.8,29.6,44.7,29.3,44.8,29.1z" fill="#505F7C" fill-rule="evenodd"/></g></g><g><g><path clip-rule="evenodd" d="M47,26h2.4l1.2,3.9l1.1-3.9h2.2l-2.3,6.3      c-0.1,0.4-0.3,0.7-0.4,0.9c-0.1,0.2-0.3,0.4-0.4,0.5c-0.2,0.2-0.4,0.3-0.7,0.4c-0.3,0.1-0.6,0.1-1,0.1c-0.2,0-0.4,0-0.6,0      c-0.2,0-0.5-0.1-0.9-0.1l-0.2-1.6c0.3,0.1,0.7,0.2,1.1,0.2c0.3,0,0.5-0.1,0.6-0.2c0.1-0.1,0.2-0.1,0.2-0.3      c0.1-0.1,0.1-0.2,0.2-0.4L47,26z" fill="#505F7C" fill-rule="evenodd"/></g></g><g><g><path clip-rule="evenodd" d="M33.7,33.2h4.2c0.9,0,1.6,0.2,2,0.6c0.2,0.2,0.4,0.5,0.5,0.8      c0.1,0.3,0.2,0.7,0.2,1.1c0,0.8-0.2,1.5-0.7,1.9c-0.2,0.2-0.6,0.4-0.9,0.5c-0.7,0.2-1.7,0.2-2.7,0.2v3h-2.5V33.2z M36.3,36.6      h0.6c0.5,0,0.8-0.1,1-0.2c0.2-0.2,0.3-0.4,0.3-0.6c0-0.3-0.1-0.5-0.3-0.6c-0.1-0.1-0.2-0.2-0.4-0.2c-0.3-0.1-0.8-0.1-1.3-0.1      V36.6z" fill="#F4C82E" fill-rule="evenodd"/></g></g><g><g><path clip-rule="evenodd" d="M41.5,36.1c0.3-0.3,0.7-0.5,1.1-0.7s0.9-0.2,1.4-0.2      c0.6,0,1.1,0.1,1.5,0.3c0.4,0.2,0.8,0.4,1.1,0.8c0.2,0.3,0.4,0.6,0.5,0.9c0.1,0.3,0.2,0.7,0.2,1.1c0,0.9-0.3,1.6-0.9,2.2      c-0.3,0.3-0.7,0.5-1.1,0.6c-0.4,0.1-0.9,0.2-1.4,0.2c-0.5,0-0.9-0.1-1.3-0.2c-0.4-0.1-0.7-0.3-1-0.5c-0.4-0.3-0.6-0.6-0.8-1      c-0.2-0.4-0.3-0.8-0.3-1.3C40.6,37.5,40.9,36.7,41.5,36.1z M43.2,39.5c0.2,0.3,0.5,0.4,0.8,0.4c0.3,0,0.6-0.1,0.8-0.4      c0.1-0.1,0.2-0.3,0.2-0.5c0.1-0.2,0.1-0.4,0.1-0.7c0-0.5-0.1-0.9-0.3-1.1c-0.2-0.3-0.5-0.4-0.8-0.4c-0.3,0-0.6,0.1-0.8,0.4      c-0.1,0.1-0.2,0.3-0.2,0.5c-0.1,0.2-0.1,0.4-0.1,0.7C42.8,38.9,43,39.3,43.2,39.5z" fill="#F4C82E" fill-rule="evenodd"/></g></g><g><g><path clip-rule="evenodd" d="M51.7,35.4h2.1v1c0.3-0.4,0.6-0.7,0.9-0.8      c0.4-0.2,0.8-0.2,1.2-0.2c0.6,0,1.1,0.2,1.5,0.6c0.2,0.2,0.3,0.4,0.4,0.7c0.1,0.3,0.1,0.6,0.1,1v3.7h-2.3V38      c0-0.4-0.1-0.6-0.2-0.8c-0.2-0.2-0.4-0.2-0.6-0.2c-0.3,0-0.5,0.1-0.7,0.3c-0.1,0.1-0.1,0.2-0.2,0.4c0,0.2-0.1,0.4-0.1,0.7v2.8      h-2.2V35.4z" fill="#F7AE0D" fill-rule="evenodd"/></g></g><g><g><path clip-rule="evenodd" d="M61.7,33.2v2.2h1.2v1.6h-1.2v2.1c0,0.1,0,0.2,0,0.3      c0,0.1,0,0.1,0.1,0.2c0.2,0.3,0.4,0.2,0.7,0.2c0.1,0,0.2-0.1,0.4-0.1l0.2,1.6c-0.5,0.1-1,0.2-1.6,0.2c-0.6,0-1-0.1-1.2-0.2      c-0.3-0.1-0.5-0.4-0.6-0.7c-0.1-0.1-0.1-0.3-0.1-0.6c0-0.2,0-0.5,0-0.8v-2.1h-0.8v-1.6h0.8v-1.1L61.7,33.2z" fill="#F7AE0D" fill-rule="evenodd"/></g></g><g><g><rect clip-rule="evenodd" fill="#F4C82E" fill-rule="evenodd" height="5.9" width="2.2" x="48.2" y="35.4"/></g></g></g><g><path clip-rule="evenodd" d="M19.1,26.3L14,29.4v6.2c0.3-0.1,0.6-0.1,0.9-0.2    c0.7-0.2,1.3-0.4,1.9-0.8c0.6-0.3,1-0.7,1.4-1.2c0.4-0.5,0.7-1,1-1.6c0.2-0.6,0.4-1.3,0.4-2.1c0.1-0.7,0-1.5-0.1-2.2    C19.4,27,19.3,26.6,19.1,26.3z" fill="#F7AE0D" fill-rule="evenodd"/></g><g><polygon clip-rule="evenodd" fill="#F7AE0D" fill-rule="evenodd" points="50.5,35.5 48.2,36.8 48.2,41.3 50.5,41.3   "/></g><g><path clip-rule="evenodd" d="M42.7,41.2c0.4,0.1,0.8,0.2,1.3,0.2c0.5,0,1-0.1,1.4-0.2    c0.4-0.1,0.8-0.4,1.1-0.6c0.6-0.6,0.9-1.3,0.9-2.2c0-0.3,0-0.6-0.1-0.9L45,38.8c0,0.1,0,0.2,0,0.3c-0.1,0.2-0.1,0.4-0.2,0.5    c-0.2,0.2-0.5,0.4-0.8,0.4c-0.2,0-0.4,0-0.5-0.1l-1.7,1C42,41,42.3,41.1,42.7,41.2z" fill="#F7AE0D" fill-rule="evenodd"/></g></g></svg>