<?xml version="1.0" ?><!DOCTYPE svg  PUBLIC '-//W3C//DTD SVG 1.1//EN'  'http://www.w3.org/Graphics/SVG/1.1/DTD/svg11.dtd'><svg enable-background="new 0 0 64 64" height="64px" id="Layer_1" version="1.1" viewBox="0 0 64 64" width="64px" xml:space="preserve" xmlns="http://www.w3.org/2000/svg" xmlns:xlink="http://www.w3.org/1999/xlink"><g><g><g><g><path clip-rule="evenodd" d="M30.7,32.5c-2.8-4.2-5.2-8.7-12-8.9c2.3-1.7,4.7-3.3,5.5-6.5      c2.7,1.9,4.8,4.4,5.9,7.9c3.5-7.1,8.2-13.1,13.7-18.2C40.3,4,35.9,2.4,31,2.4c-11.6,0-21,9.4-21,21c0,11.6,9.4,21,21,21      c11.6,0,21-9.4,21-21c0-3.9-1.1-7.6-3-10.7C40.6,16.9,34.4,23.4,30.7,32.5z" fill="#0078C1" fill-rule="evenodd"/></g><g><path clip-rule="evenodd" d="M10.1,23.3c0,11.6,9.4,21,21,21c11.6,0,21-9.4,21-21      c0-3.9-1.1-7.6-3-10.7c-8.4,4.3-14.7,10.8-18.3,19.8c-2.8-4.2-5.2-8.7-12-8.9c2.3-1.7,4.7-3.3,5.5-6.5c2.7,1.9,4.8,4.4,5.9,7.9      c3.5-7.1,8.2-13.1,13.7-18.2C40.3,4,35.9,2.4,31,2.4" fill="#005595" fill-rule="evenodd"/></g><g><path clip-rule="evenodd" d="M49,12.6c1.8-0.9,3.8-1.8,5.9-2.5c-1.8-2.5-3.2-5.4-3.4-9.5      c-2.7,1.9-5.2,4-7.6,6.2C45.9,8.4,47.7,10.4,49,12.6z" fill="#005595" fill-rule="evenodd"/></g><g><path clip-rule="evenodd" d="M49,12.6c1.8-0.9,3.8-1.8,5.9-2.5c-1.8-2.5-3.2-5.4-3.4-9.5" fill="#003F66" fill-rule="evenodd"/></g></g><g><g><g><g><path d="M8.2,60.2c-1.3,0-2.1-0.1-2.5-0.2l-0.2,0V49.7l0.2,0c0.6-0.1,1.8-0.2,3-0.2c1.5,0,2.4,0.2,3.1,0.6        c0.8,0.4,1.3,1.2,1.3,2.2c0,0.9-0.5,1.7-1.4,2.1c1.1,0.4,1.7,1.4,1.7,2.5c0,0.9-0.4,1.7-1.1,2.3C11.5,59.9,10.1,60.2,8.2,60.2        z M8.1,58.1c0.2,0,0.4,0,0.7,0c0.5,0,1.8-0.1,1.8-1.3c0-1.1-1.2-1.2-1.9-1.2H8.1V58.1z M8.7,53.6c1.1,0,1.7-0.4,1.7-1.1        c0-0.8-0.8-1-1.4-1c-0.3,0-0.6,0-0.8,0v2H8.7z" fill="#65B1E2"/></g></g></g><g><g><g><rect fill="#65B1E2" height="11.1" width="2.7" x="14.4" y="49"/></g></g></g><g><g><g><path d="M21.2,60.2c-1,0-2.8-0.4-2.8-3.4v-4.5h2.7v4.1c0,1.5,0.7,1.5,1,1.5c0.5,0,0.9-0.4,1-0.7        c0.1-0.1,0.1-0.3,0.1-0.4v-4.6h2.7v5.2c0,1,0,1.8,0.1,2.4l0,0.2h-2.4l-0.1-0.8C23,59.7,22.3,60.2,21.2,60.2z" fill="#65B1E2"/></g></g></g><g><g><g><path d="M30.8,60.2c-2.6,0-4.1-1.5-4.1-3.9c0-2,1.2-4.1,3.9-4.1c2.6,0,3.5,2,3.5,3.9c0,0.4,0,0.7-0.1,0.9        l0,0.2h-4.7c0.2,0.8,1.1,1,1.9,1c0.7,0,1.3-0.1,2-0.3l0.2-0.1l0.4,1.9l-0.1,0.1C32.8,60.1,31.9,60.2,30.8,60.2z M31.5,55.2        c0-0.4-0.2-1.1-1.1-1.1c-0.8,0-1.1,0.6-1.2,1.1H31.5z" fill="#65B1E2"/></g></g></g><g><g><g><path d="M35.2,60.1V49.7l0.2,0c0.8-0.1,1.9-0.2,3.1-0.2c1.4,0,2.5,0.3,3.2,0.9c0.7,0.6,1.2,1.5,1.2,2.5        c0,1.1-0.4,2-1,2.5c-0.8,0.7-2,1.1-3.4,1.1c-0.2,0-0.4,0-0.6,0v3.6H35.2z M37.8,54.3c0.1,0,0.3,0,0.6,0c1.1,0,1.8-0.5,1.8-1.5        c0-0.8-0.6-1.3-1.6-1.3c-0.4,0-0.6,0-0.7,0V54.3z" fill="#005595"/></g></g></g><g><g><g><path d="M45.6,60.2c-1.7,0-2.6-1.3-2.6-2.4c0-1.9,1.6-3,4.3-3c0-0.5-0.4-0.7-1.1-0.7c-0.8,0-1.5,0.3-1.9,0.5        L44,54.8l-0.5-1.9l0.1-0.1c0.3-0.2,1.4-0.7,2.9-0.7c2.2,0,3.4,1.2,3.4,3.4v2.6c0,0.8,0,1.4,0.1,1.7l0.1,0.2h-2.5l-0.1-0.6        C47.1,60,46.4,60.2,45.6,60.2z M47.4,56.6c-1.2,0-1.8,0.4-1.8,1c0,0.6,0.5,0.7,0.7,0.7c0.5,0,0.9-0.3,1-0.7c0-0.1,0-0.2,0-0.3        V56.6z" fill="#005595"/></g></g></g><g><g><g><path d="M51,61.1l0.2,0c0.3-0.1,0.6-0.2,0.9-0.4c0.3-0.2,0.7-0.5,0.9-0.8c0.1-0.1,0.1-0.2,0.1-0.2        c0-0.1,0-0.1-0.1-0.3l-2.8-7h3l1.1,3.8c0.1,0.2,0.1,0.5,0.2,0.7c0.1-0.3,0.1-0.5,0.2-0.7l1-3.8h2.9l-1.8,5.1        c-1.1,3.1-1.8,4.2-2.6,4.9c-0.9,0.8-1.8,1-2.3,1.1l-0.2,0L51,61.1z" fill="#005595"/></g></g></g></g></g><g><g><path clip-rule="evenodd" d="M30.7,32.5c-2.7-4.2-5.2-8.6-11.8-8.9l0,0L38.3,43     c8-3,13.7-10.6,13.7-19.6c0-3.9-1.1-7.6-3-10.7C40.6,16.9,34.4,23.4,30.7,32.5z" fill="#003F66" fill-rule="evenodd"/></g></g></g></svg>