<?xml version="1.0" ?><!DOCTYPE svg  PUBLIC '-//W3C//DTD SVG 1.1//EN'  'http://www.w3.org/Graphics/SVG/1.1/DTD/svg11.dtd'><svg enable-background="new 0 0 64 64" height="64px" id="Layer_1" version="1.1" viewBox="0 0 64 64" width="64px" xml:space="preserve" xmlns="http://www.w3.org/2000/svg" xmlns:xlink="http://www.w3.org/1999/xlink"><g><g><g><path clip-rule="evenodd" d="M40.2,54.8l-0.4,1.5L39,56.2l0-0.5c-0.4-0.2-0.8-0.3-1.3-0.3     c-1.7,0-2.5,2.1-2.5,3.5c0,1.1,0.6,1.6,1.7,1.6l0.3,0l0.2-1l0-0.4l-0.4-0.1l0.1-0.9H40l-0.2,0.9l-0.4,0.1l-0.2,0.4l-0.3,1.6     c-0.9,0.3-1.7,0.4-2.6,0.4c-1.6,0-2.8-0.7-2.9-2.4l0.3-0.4c0.2-0.2,0.4-0.5,0.5-0.8c0.2-0.3,0.3-0.7,0.3-1.1c0-0.2,0-0.4-0.1-0.6     c0.1-0.2,0.4-0.4,0.4-0.4c0.9-0.9,1.9-1.3,3.2-1.3C38.7,54.5,39.5,54.6,40.2,54.8" fill="#B2001E" fill-rule="evenodd"/></g><g><polyline clip-rule="evenodd" fill="#111516" fill-rule="evenodd" points="7.1,60.5 8,60.5 10.3,57 10.3,57.1 9.7,60.1 9.6,60.5      9.3,60.5 9,61.4 11.6,61.4 11.7,60.5 11.3,60.5 11.4,60.1 12.2,56 12.3,55.7 12.7,55.6 13,54.7 10.9,54.7 8.2,58.6 7.2,54.7      4.9,54.7 4.8,55.6 5.2,55.7 5.1,56 4.3,60.1 4.2,60.5 3.8,60.5 3.5,61.4 5.6,61.4 5.7,60.5 5.5,60.5 5.5,60.1 6.2,56.9 6.2,56.9      7.1,60.5    "/></g><g><path clip-rule="evenodd" d="M14.1,61.6c1,0,1.9-0.4,2.6-1.2c0.6-0.6,1.1-1.6,1.1-2.5     c0-0.5-0.3-1-0.7-1.3c-0.4-0.2-0.9-0.3-1.4-0.3c-1,0-1.9,0.4-2.5,1.2c-0.6,0.6-1.1,1.6-1.1,2.5c0,0.5,0.3,1,0.7,1.3     C13,61.5,13.6,61.6,14.1,61.6 M15.1,57.2c0.6,0,0.7,0.7,0.7,1.1c0,0.7-0.4,2.4-1.3,2.4c-0.6,0-0.7-0.7-0.7-1.1     C13.8,58.8,14.2,57.2,15.1,57.2z" fill="#111516" fill-rule="evenodd"/></g><g><path clip-rule="evenodd" d="M20.3,56.3L18,56.4l-0.1,0.9l0.4,0.1l-0.1,0.4l-0.5,2.4     l-0.3,1.3h1.9l0.4-1.7c0.2-0.4,1.2-1.9,1.6-1.9c0.1,0,0.2,0.1,0.1,0.5l-0.4,1.8l-0.3,1.3h2.4l0.1-0.9l-0.4-0.1l0-0.4l0.4-2.2     c0.2-1.2-0.1-1.6-0.8-1.6c-1.1,0-2.1,1.3-2.5,2.3h-0.1L20.3,56.3" fill="#111516" fill-rule="evenodd"/></g><g><path clip-rule="evenodd" d="M28.2,59.8c-0.7,0.3-1.5,0.7-2.3,0.7c-0.5,0-0.9-0.2-0.9-0.8     c1.3,0,3.2-0.8,3.2-2.3c0-0.4-0.2-0.6-0.4-0.8c-0.3-0.2-0.6-0.3-1-0.3c-0.9,0-1.8,0.4-2.5,1.1c-0.6,0.6-1.1,1.6-1.1,2.5     c0,1.2,1.1,1.7,2.1,1.7c0.9,0,1.8-0.2,2.7-0.6L28.2,59.8 M25.1,58.8c0.1-0.5,0.5-1.5,1-1.5c0.3,0,0.4,0.2,0.4,0.5     c0,0.3-0.2,0.6-0.5,0.8C25.8,58.8,25.4,58.8,25.1,58.8z" fill="#111516" fill-rule="evenodd"/></g><g><path clip-rule="evenodd" d="M42.6,56.3l-2.3,0.1l-0.1,0.9l0.4,0.1l0,0.2L40,60l-0.4,1.5h1.9     l0.4-1.8c0.4-0.6,1.1-1.8,1.9-1.8c0.2,0,0.3,0.1,0.5,0.2l0.6-1.6c-0.1-0.1-0.3-0.1-0.4-0.1c-1,0-2,1.4-2.4,2.2H42L42.6,56.3" fill="#B2001E" fill-rule="evenodd"/></g><g><path clip-rule="evenodd" d="M46.8,61.5l2.3-0.1l0.1-0.9l-0.4-0.1l0-0.4l0.5-2.3l0.4-1.5     l-1.3,0.1h-0.2l-0.9-0.1c-1.1,0-1.9,0.6-2.5,1.4c-0.6,0.7-1.1,1.7-1.1,2.6c0,0.6,0.4,1.3,1,1.3c1.1,0,2.1-1.3,2.5-2.2h0.1     L46.8,61.5 M47.5,58.2c-0.3,0.4-1.2,2-1.7,2c-0.2,0-0.2-0.2-0.2-0.3c0-0.5,0.3-1.2,0.5-1.7c0.2-0.4,0.5-1,1.1-1     c0.2,0,0.4,0.1,0.6,0.2L47.5,58.2z" fill="#B2001E" fill-rule="evenodd"/></g><g><path clip-rule="evenodd" d="M52.3,56.3l-2.2,0.1L50,57.3l0.4,0.1l0,0.4l-0.5,2.4l-0.3,1.3     h1.7l0.4-1.9l0.1-0.1c0.2-0.4,1.1-1.7,1.5-1.7c0.1,0,0.2,0,0.1,0.6l-0.4,1.7l-0.3,1.3h1.7l0.4-1.9l0.1-0.1     c0.2-0.4,1.1-1.7,1.5-1.7c0.2,0,0.2,0.1,0.1,0.6L56,60.1l-0.3,1.3h2.2l0.1-0.9l-0.4-0.1l0-0.4l0.5-2.2c0-0.2,0.1-0.4,0.1-0.6     c0-0.5-0.3-1-0.8-1c-0.6,0-1.2,0.4-1.6,0.9c-0.4,0.4-0.6,0.9-0.9,1.4h-0.1l0.2-0.7c0-0.2,0.1-0.4,0.1-0.6c0-0.5-0.3-0.9-0.8-0.9     c-0.6,0-1.2,0.5-1.6,0.9c-0.4,0.4-0.6,0.9-0.8,1.4h-0.1L52.3,56.3" fill="#B2001E" fill-rule="evenodd"/></g><g><path clip-rule="evenodd" d="M31.6,56.4c0.3,0.3,0.5,0.7,0.5,1.1c0,0.8-0.8,1.5-1.3,2.1     c-0.1-1.1-0.3-2.2-0.7-3.3l-1.9,0.1l-0.1,0.9l0.4,0.1c0.5,1.3,0.8,2.7,0.8,4l-0.2,0.2c-0.6,0.6-1.2,1.3-1.9,1.8l1.9-0.1     c0.6-1.1,1.4-2,2.2-2.9l0.5-0.6l1.2-1.4c0.3-0.4,0.7-0.9,0.7-1.5c0-0.2-0.1-0.4-0.1-0.5L31.6,56.4" fill="#111516" fill-rule="evenodd"/></g><g><path clip-rule="evenodd" d="M60,61.4l-0.2-0.3c0-0.1-0.1-0.1-0.1-0.1c0.2,0,0.3-0.1,0.3-0.3     c0-0.1-0.1-0.2-0.3-0.2h-0.3v0.9h0.1V61h0l0.3,0.4H60 M59.8,60.8c0,0.1-0.1,0.2-0.2,0.2h-0.1v-0.3h0.1     C59.8,60.6,59.8,60.7,59.8,60.8z M59.7,60.3c0.4,0,0.7,0.3,0.7,0.7c0,0.4-0.3,0.7-0.7,0.7c-0.4,0-0.7-0.3-0.7-0.7     C59,60.6,59.3,60.3,59.7,60.3z M59.7,60.1c-0.5,0-0.8,0.4-0.8,0.8c0,0.5,0.4,0.8,0.8,0.8c0.5,0,0.8-0.4,0.8-0.8     C60.5,60.5,60.1,60.1,59.7,60.1z" fill="#B2001E" fill-rule="evenodd"/></g></g><g><g><path clip-rule="evenodd" d="M53.1,47.6l-0.7-1c-0.1-0.2-0.2-0.3-0.3-0.4     c0.5,0,0.8-0.4,0.8-0.9c0-0.4-0.3-0.7-1-0.7h-0.9v3h0.5v-1.3h0l0.9,1.3H53.1 M52.5,45.4c0,0.2-0.2,0.5-0.7,0.5h-0.2v-1H52     C52.4,45,52.5,45.1,52.5,45.4z M52,44c1.2,0,2.1,1,2.1,2.2c0,1.2-0.9,2.1-2.1,2.1c-1.2,0-2.1-1-2.1-2.2C49.9,44.9,50.8,44,52,44z      M52,43.5c-1.5,0-2.7,1.2-2.7,2.7c0,1.5,1.1,2.7,2.7,2.7c1.4,0,2.7-1.2,2.7-2.7C54.7,44.6,53.5,43.5,52,43.5z" fill="#EB1C2E" fill-rule="evenodd"/></g><g><path clip-rule="evenodd" d="M33.1,0.6C19.7,0.6,8.8,11.5,8.8,24.9     c0,13.4,10.9,24.2,24.2,24.2c13.4,0,24.2-10.9,24.2-24.2C57.3,11.5,46.4,0.6,33.1,0.6z M51.8,20.7c0.2,1.7-0.5,3.4-1.9,4.9     c1.3-1.5,1.9-3.2,1.5-4.8c-0.6-3-3.9-5-8.3-5.3c0.4,1,0.7,2.1,0.8,3.2c0.4,2.5,0.2,4.3,0,6.4c0,0-0.6,0.6-1,0.8     c0.3-1.8,0.5-4,0.2-6.5c-0.1-1.3-0.5-2.7-1-4c-1.1,0-2.2,0.1-3.4,0.3c-5.2,1-9.5,4-10.5,7.1c0.4-3.6,6.3-7.3,12.2-8.2     c0.5-0.1,0.9-0.1,1.3-0.1c-1.1-2.3-3-4.1-5.6-4.3c-1-0.1-1.8,0.2-2.2,0.4l-0.4-0.1c0.5-0.3,1.5-0.8,2.8-0.8c3,0,5.2,2.2,6.5,4.8     C47.9,14.5,51.3,17.1,51.8,20.7z M25.2,18.3c0.6-4.8,2.4-7.3,2.9-7.8c4.4,1.3,8.9,3.5,8.9,3.5C32.7,13.8,28.2,16.1,25.2,18.3z      M22.5,12.4l-1.9-2.9c-0.2-0.5-0.2-0.6,0.5-0.6c1.8,0.1,4.1,0.6,4.1,0.6c1.9-2.5,4.2-4.2,6.8-4.6c3-0.5,6.2,0.9,8.8,3.3     c-2.7-2.1-5.7-3.1-8.5-2.4c-7.7,1.9-10.7,13.6-7.7,24.4c0,0-1,0.1-2.4-0.3c-1.4-6.2-1-10.8,0.1-14.5c-5.9,1-7.3,4.3-8.1,5.6     C16.2,14.1,22.5,12.4,22.5,12.4z M23.4,34.1c-6-0.7-11-4.5-11.8-9.2c-0.5-2.6,0.8-5.5,2.9-7.8c-1.9,2.4-2.7,5-2.1,7.6     c1.4,6.1,10.6,9.2,20.6,6.9c8-1.8,14-6.6,15.4-11.5c-0.5,2.6-2.2,5.2-4.7,7.5l-0.1,0.1c-0.5,1.9-1.3,2.9-1.3,2.9l-1,0.6     c0,0,0.5-0.9,0.9-2.4c-3.3,2.5-7.6,4.5-12.2,5.3c-1.5,0.3-2.9,0.4-4.2,0.4c2.2,5.5,6.1,10.1,11.5,12     C30.3,44.4,25.8,39.5,23.4,34.1z M43.1,38.3l-0.2,1.8c-0.1,0.7-0.3,0.7-1,0.7C36.8,40.5,31,36.6,31,36.6     c9.1-1.4,15.2-7.4,15.2-7.4c2.2-2.2,1.2-0.2,1.1,0.3c-0.3,0.8-2.7,5.1-2.7,5.1c7.5-1.3,9.4-6.7,9.4-6.7     C51.5,35.6,43.1,38.3,43.1,38.3z" fill="#B2001E" fill-rule="evenodd"/></g></g><g><path clip-rule="evenodd" d="M29,41.9c-2.5-2.2-4.4-4.9-5.6-7.8c-6-0.7-11-4.5-11.8-9.2    c-0.5-2.6,0.8-5.5,2.9-7.8c-1.9,2.4-2.7,5-2.1,7.6c1.4,6.1,10.6,9.2,20.6,6.9c8-1.8,14-6.6,15.4-11.5c-0.5,2.6-2.2,5.2-4.7,7.5    l-0.1,0.1c-0.5,1.9-1.3,2.9-1.3,2.9l-1,0.6c0,0,0.5-0.9,0.9-2.4c-3.3,2.5-7.6,4.5-12.2,5.3c-1.5,0.3-2.9,0.4-4.2,0.4    c1.1,2.8,2.7,5.3,4.6,7.4c2.2-0.4,4.3-1.1,6.3-2c-3.2-1.2-5.9-3-5.9-3c9.1-1.4,15.2-7.4,15.2-7.4c2.2-2.2,1.2-0.2,1.1,0.3    c-0.2,0.6-1.6,3-2.3,4.3c5-5,8-11.9,8-19.5c0-1.2-0.1-2.4-0.2-3.6C48.3,4.6,41.2,0.6,33.1,0.6C19.7,0.6,8.8,11.5,8.8,24.9    c0,5.6,1.9,10.7,5,14.8c3.5,1.6,7.3,2.5,11.4,2.5C26.5,42.1,27.8,42,29,41.9z M25.2,18.3c0.6-4.8,2.4-7.3,2.9-7.8    c4.4,1.3,8.9,3.5,8.9,3.5C32.7,13.8,28.2,16.1,25.2,18.3z M42.7,14.5c5.2,0,8.6,2.6,9.1,6.1c0.2,1.7-0.5,3.4-1.9,4.9    c1.3-1.5,1.9-3.2,1.5-4.8c-0.6-3-3.9-5-8.3-5.3c0.4,1,0.7,2.1,0.8,3.2c0.4,2.5,0.2,4.3,0,6.4c0,0-0.6,0.6-1,0.8    c0.3-1.8,0.5-4,0.2-6.5c-0.1-1.3-0.5-2.7-1-4c-1.1,0-2.2,0.1-3.4,0.3c-5.2,1-9.5,4-10.5,7.1c0.4-3.6,6.3-7.3,12.2-8.2    c0.5-0.1,0.9-0.1,1.3-0.1c-1.1-2.3-3-4.1-5.6-4.3c-1-0.1-1.8,0.2-2.2,0.4l-0.4-0.1c0.5-0.3,1.5-0.8,2.8-0.8    C39.1,9.7,41.4,11.9,42.7,14.5z M22.5,12.4l-1.9-2.9c-0.2-0.5-0.2-0.6,0.5-0.6c1.8,0.1,4.1,0.6,4.1,0.6c1.9-2.5,4.2-4.2,6.8-4.6    c3-0.5,6.2,0.9,8.8,3.3c-2.7-2.1-5.7-3.1-8.5-2.4c-7.7,1.9-10.7,13.6-7.7,24.4c0,0-1,0.1-2.4-0.3c-1.4-6.2-1-10.8,0.1-14.5    c-5.9,1-7.3,4.3-8.1,5.6C16.2,14.1,22.5,12.4,22.5,12.4z" fill="#CC0224" fill-rule="evenodd"/></g><g><path clip-rule="evenodd" d="M33.1,0.6c-12.8,0-23.2,9.9-24.2,22.4c0.9,1.3,2,2.5,3.2,3.5    c-0.2-0.6-0.4-1.2-0.5-1.8c-0.5-2.6,0.8-5.5,2.9-7.8c-1.9,2.4-2.7,5-2.1,7.6c0.5,2,1.7,3.6,3.6,4.9c1.2,0.7,2.4,1.3,3.8,1.8    c3.7,1.2,8.4,1.4,13.3,0.2c8-1.8,14-6.6,15.4-11.5c-0.1,0.7-0.4,1.4-0.7,2.1c0.8-1.3,1.6-2.7,2.2-4.1c-1.5-1.5-3.9-2.4-6.8-2.5    c0.4,1,0.7,2.1,0.8,3.2c0.4,2.5,0.2,4.3,0,6.4c0,0-0.6,0.6-1,0.8c0.3-1.8,0.5-4,0.2-6.5c-0.1-1.3-0.5-2.7-1-4    c-1.1,0-2.2,0.1-3.4,0.3c-5.2,1-9.5,4-10.5,7.1c0.4-3.6,6.3-7.3,12.2-8.2c0.5-0.1,0.9-0.1,1.3-0.1c-1.1-2.3-3-4.1-5.6-4.3    c-1-0.1-1.8,0.2-2.2,0.4l-0.4-0.1c0.5-0.3,1.5-0.8,2.8-0.8c3,0,5.2,2.2,6.5,4.8c3.3,0,5.9,1,7.5,2.7c0.9-2.5,1.4-5.2,1.5-8    C47.1,4,40.5,0.6,33.1,0.6z M37,13.9c-4.3-0.2-8.8,2.2-11.8,4.4c0.6-4.8,2.4-7.3,2.9-7.8C32.5,11.7,37,13.9,37,13.9z M32.3,5.9    c-7.7,1.9-10.7,13.6-7.7,24.4c0,0-1,0.1-2.4-0.3c-1.4-6.2-1-10.8,0.1-14.5c-5.9,1-7.3,4.3-8.1,5.6c2.1-7,8.4-8.7,8.4-8.7l-1.9-2.9    c-0.2-0.5-0.2-0.6,0.5-0.6c1.8,0.1,4.1,0.6,4.1,0.6c1.9-2.5,4.2-4.2,6.8-4.6c3-0.5,6.2,0.9,8.8,3.3C38.1,6.1,35.1,5.2,32.3,5.9z" fill="#EB1C2E" fill-rule="evenodd"/></g></g></svg>