<?xml version="1.0" ?><!DOCTYPE svg  PUBLIC '-//W3C//DTD SVG 1.1//EN'  'http://www.w3.org/Graphics/SVG/1.1/DTD/svg11.dtd'><svg enable-background="new 0 0 64 64" height="64px" id="Layer_1" version="1.1" viewBox="0 0 64 64" width="64px" xml:space="preserve" xmlns="http://www.w3.org/2000/svg" xmlns:xlink="http://www.w3.org/1999/xlink"><g><g><g><g><path d="M25.3,35.3h0.3c0.3,0,0.5-0.1,0.6-0.3l0.9-1.3h2.3l-0.5,0.8h2.8l-0.4,1.3H28c-0.4,0.6-0.8,0.8-1.4,0.8      h-1.7L25.3,35.3 M24.9,37.1h6l-0.4,1.4h-2.4l-0.4,1.4h2.4l-0.4,1.4h-2.4l-0.6,2c-0.1,0.3,0,0.5,0.5,0.4h1.9l-0.4,1.3h-3.7      c-0.7,0-0.9-0.4-0.7-1.2l0.7-2.6h-1.5l0.4-1.4h1.5l0.4-1.4h-1.4L24.9,37.1z M34.6,33.7l-0.1,0.8c0,0,1.1-0.9,2.2-0.9h3.8L39,39      c-0.1,0.6-0.6,0.9-1.6,0.9h-4.3l-1,3.7c-0.1,0.2,0,0.3,0.2,0.3h0.9L32.9,45h-2.2c-0.8,0-1.2-0.2-1-0.8l2.9-10.6H34.6z       M37.8,35.2h-3.4L34,36.6c0,0,0.6-0.4,1.5-0.4c0.9,0,2,0,2,0L37.8,35.2z M36.6,38.5c0.3,0,0.4-0.1,0.4-0.3l0.2-0.8h-3.4      l-0.3,1.1H36.6z M34.3,40.2h2l0,0.9h0.5c0.3,0,0.4-0.1,0.4-0.3l0.2-0.6h1.6l-0.2,0.8c-0.2,0.7-0.7,1-1.5,1.1h-1.1l0,1.5      c0,0.2,0.2,0.4,0.6,0.4h1l-0.3,1.2h-2.4c-0.7,0-1-0.3-1-1L34.3,40.2z" fill="#009DA5"/></g></g><g><g><path d="M27.6,36.3c0.1-0.1,0.3-0.3,0.4-0.4h3.3l0.4-1.3h-2.8l0.5-0.8h-2.3L26.2,35c-0.1,0.2-0.3,0.3-0.6,0.3      h-0.3l-0.1,0.3C26,35.8,26.8,36.1,27.6,36.3z" fill="#02CCCC"/></g><g><path d="M34.5,34.5l0.1-0.8h-2l-0.9,3.2c0.5,0,1.1,0.1,1.6,0.1c2.3,0,4.4-0.3,6.5-0.9l0.7-2.4h-3.8      C35.6,33.7,34.5,34.5,34.5,34.5z M37.5,36.2c0,0-1.1,0-2,0c-1,0-1.5,0.4-1.5,0.4l0.4-1.4h3.4L37.5,36.2z" fill="#02CCCC"/></g></g><g><g><path d="M42.6,35.3l0.5-1.6h2.3l-0.1,0.6c0,0,1.2-0.6,2-0.6s2.9,0,2.9,0l-0.5,1.6h-0.4l-2.2,7.6h0.4l-0.4,1.5      h-0.5l-0.2,0.7h-2.2l0.2-0.7h-4.4l0.4-1.5h0.4l2.2-7.6H42.6 M45.1,35.3l-0.6,2.1c0,0,1-0.4,1.9-0.5c0.2-0.7,0.4-1.6,0.4-1.6      H45.1z M44.3,38.4l-0.6,2.2c0,0,1.1-0.5,1.9-0.6c0.2-0.8,0.4-1.6,0.4-1.6H44.3z M44.7,42.9l0.4-1.6h-1.7L43,42.9H44.7z       M50.3,33.6h2.2l0.1,0.8c0,0.2,0.1,0.3,0.4,0.3h0.4l-0.4,1.4h-1.6c-0.6,0-0.9-0.2-1-0.7L50.3,33.6z M49.7,36.6h7L56.3,38h-2.2      l-0.4,1.4h2.2l-0.4,1.5H53l-0.6,0.9h1.2l0.3,1.7c0,0.2,0.2,0.3,0.4,0.3h0.4l-0.4,1.4H53c-0.7,0-1.1-0.2-1.1-0.7l-0.3-1.6      l-1.1,1.7c-0.3,0.5-0.7,0.7-1.2,0.7h-2.1l0.4-1.4h0.6c0.3,0,0.5-0.1,0.7-0.4l1.7-2.5h-2.2l0.4-1.5h2.4l0.4-1.4h-2.4L49.7,36.6z" fill="#009DA5"/></g></g><g><path d="M45.4,33.8L45.4,33.8l-2.3,0l-0.4,1.3C43.6,34.7,44.5,34.3,45.4,33.8z" fill="#02CCCC"/></g><g><g><path d="M10.3,26.6c-0.3,1.3-0.9,2.3-1.8,3c-1,0.7-2.2,1.1-3.7,1.1c-1.4,0-2.5-0.4-3.1-1.1      c-0.5-0.5-0.7-1.2-0.7-2c0-0.3,0-0.7,0.1-1.1l1.6-7.7h2.4l-1.6,7.6c0,0.2-0.1,0.4-0.1,0.6c0,0.4,0.1,0.7,0.3,1      c0.3,0.4,0.8,0.6,1.4,0.6c0.7,0,1.4-0.2,1.8-0.5c0.5-0.4,0.8-0.9,0.9-1.6l1.6-7.6H12L10.3,26.6" fill="#FF7F29"/></g></g><g><g><path d="M10.3,26.6c-0.3,1.3-0.9,2.3-1.8,3c-1,0.7-2.2,1.1-3.7,1.1c-1.4,0-2.5-0.4-3.1-1.1      c-0.5-0.5-0.7-1.2-0.7-2c0-0.3,0-0.7,0.1-1.1l3.5-7.7h0.5l-1.6,7.6c0,0.2-0.1,0.4-0.1,0.6c0,0.4,0.1,0.7,0.3,1      c0.3,0.4,0.8,0.6,1.4,0.6c0.7,0,1.4-0.2,1.8-0.5c0.5-0.4,0.8-0.9,0.9-1.6l3.5-7.6H12L10.3,26.6" fill="#EA2227"/></g></g><g><g><path d="M12.6,23.6h1.7l-0.2,1l0.2-0.3c0.6-0.6,1.2-0.9,2-0.9c0.7,0,1.2,0.2,1.6,0.6c0.3,0.4,0.4,1,0.3,1.7      l-0.9,4.7h-1.8l0.8-4.3c0.1-0.4,0.1-0.8-0.1-1c-0.1-0.2-0.4-0.3-0.8-0.3c-0.5,0-0.8,0.1-1.1,0.4c-0.3,0.3-0.5,0.7-0.6,1.2      l-0.8,4h-1.8L12.6,23.6" fill="#EA2227"/></g></g><g><g><path d="M32.2,23.6h1.7l-0.2,1l0.2-0.3c0.6-0.6,1.2-0.9,2-0.9c0.7,0,1.2,0.2,1.6,0.6c0.3,0.4,0.4,1,0.3,1.7      l-0.9,4.7h-1.8l0.9-4.3c0.1-0.4,0.1-0.8-0.1-1c-0.1-0.2-0.4-0.3-0.8-0.3c-0.5,0-0.8,0.1-1.1,0.4c-0.3,0.3-0.5,0.7-0.6,1.2      l-0.8,4h-1.8L32.2,23.6" fill="#A5002F"/></g></g><g><g><path d="M20.5,23.6h1.9l-1.5,6.9H19L20.5,23.6 M21.1,21.1H23l-0.4,1.7h-1.9L21.1,21.1z" fill="#EA2227"/></g></g><g><g><path d="M24.1,30c-0.5-0.5-0.7-1.1-0.7-1.9c0-0.1,0-0.3,0-0.5c0-0.2,0-0.3,0.1-0.5c0.2-1.1,0.7-2,1.4-2.7      c0.7-0.7,1.6-1,2.7-1c0.9,0,1.5,0.2,2,0.7c0.5,0.5,0.7,1.1,0.7,2c0,0.1,0,0.3,0,0.5c0,0.2,0,0.3-0.1,0.5c-0.2,1.1-0.7,2-1.4,2.6      c-0.7,0.6-1.6,1-2.7,1C25.3,30.7,24.6,30.4,24.1,30 M27.7,28.6c0.3-0.4,0.6-0.9,0.7-1.6c0-0.1,0-0.2,0.1-0.4c0-0.1,0-0.2,0-0.3      c0-0.4-0.1-0.8-0.3-1c-0.2-0.2-0.5-0.4-0.9-0.4c-0.5,0-1,0.2-1.3,0.6c-0.3,0.4-0.6,0.9-0.7,1.7c0,0.1,0,0.2-0.1,0.3      c0,0.1,0,0.2,0,0.3c0,0.4,0.1,0.8,0.3,1c0.2,0.2,0.5,0.3,0.9,0.3C27,29.1,27.4,29,27.7,28.6" fill="#EA2227"/></g></g><g><g><path d="M40.7,19.3h5c1,0,1.7,0.2,2.2,0.6c0.5,0.4,0.8,1,0.8,1.9v0c0,0.2,0,0.3,0,0.5c0,0.2-0.1,0.4-0.1,0.6      c-0.2,1.1-0.7,1.9-1.5,2.6c-0.8,0.6-1.7,1-2.8,1h-2.7l-0.8,4h-2.3L40.7,19.3 M41.9,24.5h2.2c0.6,0,1-0.1,1.4-0.4      c0.3-0.3,0.5-0.7,0.7-1.2c0-0.1,0-0.2,0-0.3c0-0.1,0-0.2,0-0.2c0-0.4-0.1-0.7-0.4-0.9c-0.3-0.2-0.7-0.3-1.3-0.3h-1.9L41.9,24.5z      " fill="#1398E2"/></g></g><g><g><path d="M42.6,19.3h3c1,0,1.7,0.2,2.2,0.6c0.5,0.4,0.8,1,0.8,1.9v0c0,0.2,0,0.3,0,0.5c0,0.2-0.1,0.4-0.1,0.6      c-0.2,1.1-0.7,1.9-1.5,2.6c-0.8,0.6-1.7,1-2.8,1h-2.7l-0.8,4h-2.3L42.6,19.3 M41.9,24.5h2.2c0.6,0,1-0.1,1.4-0.4      c0.3-0.3,0.5-0.7,0.7-1.2c0-0.1,0-0.2,0-0.3c0-0.1,0-0.2,0-0.2c0-0.4-0.1-0.7-0.4-0.9c-0.3-0.2-0.7-0.3-1.3-0.3h-1.9L41.9,24.5z      " fill="#0872B9"/></g></g><g><g><path d="M58.9,31.8c-0.7,1.6-1.4,2.5-1.8,2.9c-0.4,0.4-1.2,1.4-3.2,1.3l0.2-1.2c1.6-0.5,2.5-2.8,3-3.8l-0.6-7.4      l1.3,0h1.1l0.1,4.7l2-4.7h2L58.9,31.8" fill="#055093"/></g></g><g><g><path d="M53.3,24.1l-0.8,0.6c-0.8-0.7-1.6-1.1-3.1-0.4c-2,0.9-3.7,8.1,1.8,5.7l0.3,0.4l2.2,0.1l1.4-6.5      L53.3,24.1 M52,27.7c-0.4,1-1.1,1.7-1.7,1.5C49.7,29,49.5,28,49.8,27c0.4-1,1.1-1.7,1.7-1.5C52.2,25.7,52.4,26.7,52,27.7" fill="#0872B9"/></g></g></g><g><path d="M49.7,30.5c0.4-0.1,0.9-0.2,1.5-0.4l0.3,0.4l2.2,0.1l1.4-6.5l-0.5,0C53.6,26.6,51.8,28.8,49.7,30.5z" fill="#055093"/></g><g><path d="M29.6,24.1c-0.5-0.5-1.2-0.7-2-0.7c-0.2,0-0.3,0-0.5,0c-0.2,0.6-0.5,1.2-0.8,1.8c0.3-0.2,0.6-0.3,1-0.3    c0.4,0,0.7,0.1,0.9,0.4c0.2,0.2,0.3,0.6,0.3,1c0,0.1,0,0.2,0,0.3c0,0.1,0,0.2-0.1,0.4c-0.1,0.7-0.4,1.3-0.7,1.6    c-0.3,0.4-0.8,0.5-1.3,0.5c-0.4,0-0.7-0.1-0.9-0.3c-0.2-0.2-0.3-0.6-0.3-1c0-0.1,0-0.2,0-0.3c0-0.1,0-0.2,0.1-0.3    c0-0.2,0.1-0.3,0.1-0.4c-0.5,0.8-1.2,1.6-1.9,2.3c0.1,0.4,0.3,0.7,0.6,1c0.5,0.5,1.2,0.7,2,0.7c1,0,1.9-0.3,2.7-1    c0.7-0.6,1.2-1.5,1.4-2.6c0-0.2,0.1-0.3,0.1-0.5c0-0.2,0-0.3,0-0.5C30.3,25.2,30.1,24.6,29.6,24.1z" fill="#A5002F"/></g></g></svg>