<?xml version="1.0" ?><!DOCTYPE svg  PUBLIC '-//W3C//DTD SVG 1.1//EN'  'http://www.w3.org/Graphics/SVG/1.1/DTD/svg11.dtd'><svg enable-background="new 0 0 64 64" height="64px" id="Layer_1" version="1.1" viewBox="0 0 64 64" width="64px" xml:space="preserve" xmlns="http://www.w3.org/2000/svg" xmlns:xlink="http://www.w3.org/1999/xlink"><g><g><g id="g3043"><g id="path8"><path d="M36,59.4c-0.1,0.1-0.3,0.2-0.4,0.2c-0.4,0.2-0.8,0.2-1.1,0.2c-0.4,0-1,0-1.6-0.5      c-0.8-0.6-1.2-1.6-1.2-2.5c0-1.8,1.5-2.7,2.7-2.7c0.4,0,0.9,0.1,1.2,0.3c0.6,0.4,0.7,0.9,0.8,1.2l-2.8,1.1l-0.9,0.1      c0.3,1.5,1.3,2.4,2.4,2.4c0.6,0,1-0.2,1.4-0.4L36,59.4z M34.9,55.9c0.2-0.1,0.3-0.2,0.3-0.3c0-0.5-0.5-1-1.2-1      c-0.5,0-1.3,0.4-1.3,1.6c0,0.2,0,0.4,0,0.6L34.9,55.9" fill="#1476C6"/></g><g id="path10"><path d="M31.5,59.6h-2.1c0.3-0.3,0.3-0.4,0.3-0.6v-1.9c0-0.9,0-2.2,0-3.4c0-0.6,0.1-1.3,0.1-1.9h-0.9l0.9-0.4      h1.7c-0.4,0.2-0.5,0.3-0.5,0.7c-0.1,0.9-0.1,2.3-0.1,4v2.7c0,0.5,0.1,0.5,0.5,0.6c0.2,0,0.4,0,0.6,0.1L31.5,59.6" fill="#1476C6"/></g><g id="path12"><path d="M27.6,54.7c0.3,0.2,0.8,0.7,0.8,1.6c0,0.9-0.5,1.3-1,1.7c-0.2,0.2-0.3,0.3-0.3,0.6      c0,0.3,0.2,0.4,0.3,0.5l0.4,0.3c0.5,0.4,1,0.8,1,1.6c0,1.1-1.1,2.2-3.1,2.2c-1.7,0-2.5-0.8-2.5-1.7c0-0.4,0.2-1,0.9-1.4      c0.7-0.4,1.7-0.5,2.2-0.5c-0.2-0.2-0.4-0.4-0.4-0.8c0-0.2,0.1-0.3,0.1-0.5c-0.1,0-0.3,0-0.4,0c-1.2,0-1.9-0.9-1.9-1.8      c0-0.5,0.2-1.1,0.7-1.6c0.7-0.5,1.5-0.6,2.1-0.6h2.4l-0.8,0.4H27.6L27.6,54.7z M26.8,59.9c-0.1,0-0.2,0-0.3,0      c-0.1,0-0.7,0-1.2,0.2c-0.3,0.1-1,0.4-1,1.2c0,0.8,0.8,1.4,2.1,1.4c1.1,0,1.7-0.5,1.7-1.3C28.1,60.9,27.7,60.6,26.8,59.9       M27.1,57.7c0.3-0.3,0.3-0.6,0.3-0.9c0-0.8-0.5-2.2-1.5-2.2c-0.3,0-0.6,0.2-0.8,0.4c-0.2,0.2-0.3,0.6-0.3,0.9      c0,0.8,0.5,2.1,1.5,2.1C26.6,58.1,27,57.9,27.1,57.7" fill="#1476C6"/></g><g id="path14"><path d="M20.4,59.8c-1.9,0-2.9-1.5-2.9-2.8c0-1.5,1.3-2.8,3-2.8c1.7,0,2.8,1.3,2.8,2.8      C23.4,58.3,22.3,59.8,20.4,59.8 M21.9,58.8c0.3-0.4,0.3-0.8,0.3-1.3c0-1-0.5-3-1.9-3c-0.4,0-0.8,0.2-1.1,0.4      c-0.5,0.4-0.5,0.9-0.5,1.4c0,1.2,0.6,3.1,2,3.1C21.1,59.4,21.6,59.2,21.9,58.8" fill="#1476C6"/></g><g id="path16"><path d="M14.2,59.8c-1.9,0-2.9-1.5-2.9-2.8c0-1.5,1.3-2.8,3-2.8c1.7,0,2.8,1.3,2.8,2.8      C17.1,58.3,16.1,59.8,14.2,59.8 M15.6,58.8c0.3-0.4,0.4-0.8,0.4-1.3c0-1-0.5-3-1.9-3c-0.4,0-0.8,0.2-1.1,0.4      c-0.5,0.4-0.5,0.9-0.5,1.4c0,1.2,0.6,3.1,2,3.1C14.9,59.4,15.4,59.2,15.6,58.8" fill="#1476C6"/></g><g id="path18"><path d="M10.6,59.4L9,59.7c-0.6,0.1-1.2,0.2-1.8,0.2c-3,0-4.2-2.2-4.2-4c0-2.1,1.6-4.1,4.4-4.1      c0.6,0,1.2,0.1,1.7,0.2c0.8,0.2,1.2,0.5,1.4,0.7l-0.9,0.9l-0.4,0.1l0.3-0.4c-0.4-0.4-1.1-1-2.3-1c-1.7,0-3,1.3-3,3.2      c0,2.1,1.5,4,3.9,4c0.7,0,1.1-0.1,1.4-0.3v-1.8l-1.7,0.1l0.9-0.5H11l-0.3,0.3c-0.1,0.1-0.1,0.1-0.1,0.2c0,0.1,0,0.4,0,0.5V59.4" fill="#1476C6"/></g><g id="path20"><path d="M41.1,59.6h-0.8L39,54.3h0.7l1,4.8l1-4.8h0.8l1.1,4.8l1-4.8h0.6L44,59.6h-0.8l-1-4.7L41.1,59.6" fill="#1476C6"/></g><g id="path22"><path d="M49.1,56c0-0.9-0.4-1.2-1.3-1.2c-0.7,0-1.1,0.4-1.2,1l-0.6-0.1c0.1-0.9,0.8-1.4,1.8-1.4      c1.2,0,1.8,0.5,1.8,1.7v2.7c0,0.5,0,0.8,0.1,1h-0.6c-0.1-0.1-0.1-0.4-0.1-0.6c-0.3,0.4-0.8,0.7-1.4,0.7c-1,0-1.7-0.6-1.7-1.8      c0-1.1,0.8-1.7,1.9-1.7c0.5,0,1,0.1,1.3,0.2V56L49.1,56z M49.1,57.1c-0.3-0.1-0.7-0.3-1.3-0.3c-0.7,0-1.3,0.4-1.3,1.1      c0,0.8,0.5,1.2,1.2,1.2c0.6,0,1.1-0.4,1.4-0.9V57.1" fill="#1476C6"/></g><g id="path24"><path d="M50.9,59.6h0.6v-7.6h-0.6V59.6z" fill="#1476C6"/></g><g id="path26"><path d="M52.8,59.6h0.6v-7.6h-0.6V59.6z" fill="#1476C6"/></g><g id="path28"><path d="M56.4,59.2c0.6,0,1.1-0.4,1.2-1.4l0.6,0.1c-0.2,1.3-0.9,1.9-1.8,1.9c-1.3,0-2-0.9-2-2.8      c0-1.7,0.6-2.7,1.9-2.7c1.4,0,1.9,1.1,1.9,2.7v0.2H55C55,58.5,55.5,59.2,56.4,59.2 M57.6,56.5L57.6,56.5c0-1-0.4-1.8-1.3-1.8      c-0.8,0-1.3,0.7-1.3,1.8H57.6" fill="#1476C6"/></g><g id="path30"><path d="M61,59.6c-0.1,0.1-0.4,0.1-0.6,0.1c-0.8,0-1-0.4-1-1.2v-3.7h-0.7v-0.5h0.7v-1.7l0.6-0.2v1.9H61v0.5h-1.1      v3.6c0,0.5,0.1,0.6,0.5,0.6c0.2,0,0.4,0,0.5-0.1V59.6" fill="#1476C6"/></g></g><g id="g3025"><g id="path34"><path d="M25,21.2c-2.6-3.6-6.2-6.7-10.3-8.9c-0.6-0.3-1.3-0.5-2-0.5c-1.6,0-3,0.9-3.8,2.3      c-1.1,2.1-0.3,4.7,1.8,5.8c6.3,3.4,10.4,9.8,10.9,17.3c0,0,0,0,0,0c-0.1-0.8,0.1-1.6,0.4-2.4c0.1-0.1,0.1-0.2,0.2-0.3      c2-3.2,3-7,3-10.8C25.1,22.8,25.1,22,25,21.2" fill="#1476C6"/></g><g id="path36"><path d="M49.9,13.1c-0.8-3.3-1.9-6.6-3.4-9.7c-0.8-1.6-2.5-2.7-4.3-2.7c-0.7,0-1.4,0.2-2,0.5      c-2.4,1.1-3.4,4-2.2,6.3c2.4,5.1,3.6,10.5,3.6,16.1c0,5.6-1.2,11-3.6,16c0,0.1-0.5,1-0.5,2c0,0.3,0,0.7,0.1,1.1      c0.3,1.3,1.2,2.6,2.6,3.2c0.6,0.3,1.3,0.5,2,0.5c1.7,0,3.3-1,4.2-2.5c0.9-1.8,1.9-4.1,2.7-7.1c0.3-0.9,0.5-1.8,0.7-2.7      c0.8-3.4,1.2-6.9,1.2-10.5C51.1,20.1,50.7,16.5,49.9,13.1" fill="#47AE33"/></g><g id="path38"><path d="M29.9,8.2c-0.1-0.1-0.2-0.3-0.3-0.4c-0.3-0.4-0.7-0.8-1.1-1C27.8,6.2,26.9,6,26,6      c-0.7,0-1.1,0.1-1.6,0.3c-0.5,0.2-1.1,0.5-1.6,1c-0.5,0.5-0.8,1.1-1,1.7c-0.4,1.1-0.4,2.7,0.4,3.9c1.6,2.5,2.5,5.4,2.8,8.4      c0.1,0.8,0.1,1.6,0.1,2.4c0,3.8-1,7.5-3,10.8c-0.1,0.1-0.1,0.2-0.2,0.3c-0.4,0.8-0.5,1.6-0.4,2.4c0.1,1.4,0.9,2.7,2.2,3.5      c0.3,0.2,0.7,0.3,1,0.5c0.4,0.1,0.9,0.2,1.3,0.2c1.6,0,3-0.8,3.9-2.2c2.5-4.1,3.9-8.7,4.3-13.5c0-0.6,0.1-1.3,0.1-1.9      C34.2,18.1,32.7,12.8,29.9,8.2" fill="#ED114C"/></g><g id="path40"><path d="M38,39.6c2.4-5,3.6-10.4,3.6-16c0-1.9-0.1-3.3-0.2-4.2c-3.1-5-7.6-9.4-12.9-12.7c0,0,0.1,0.1,0.1,0.1      c0.4,0.3,0.7,0.5,1,1c0.1,0.1,0.2,0.2,0.3,0.4c2.8,4.6,4.3,10,4.3,15.4c0,0.7,0,1.3-0.1,1.9c2.3,4.3,3.5,9.2,3.5,14.3      c0,0.4,0,1.1,0,1.5c0-0.5,0.2-1.1,0.3-1.6C38,39.7,38,39.6,38,39.6" fill="#FBBF16"/></g><g id="path40_2_"><path d="M38,39.6" fill="#FBBF16"/></g></g></g><g><g><path d="M28.6,6.8C28.7,6.9,28.9,7,29,7.1C28.9,7.1,28.9,7,28.8,7c-0.1-0.1-0.2-0.2-0.4-0.2     C28.5,6.7,28.6,6.8,28.6,6.8z" fill="#F98E19"/></g><g><path d="M37.8,24.9c-1.5-7-4.5-13-8.1-17.1c0.1,0.1,0.2,0.2,0.2,0.3c2.8,4.6,4.3,10,4.3,15.4c0,0.7,0,1.3-0.1,1.9     c2.3,4.3,3.5,9.2,3.5,14.3c0,0.4,0,1.1,0,1.5c0-0.5,0.2-1.1,0.3-1.6c0-0.1,0.1-0.2,0.1-0.2l0.7-4C38.8,32.2,38.6,28.6,37.8,24.9z     " fill="#F98E19"/></g></g><g><g><path d="M21.5,37.2C21.5,37.2,21.5,37.1,21.5,37.2L21.5,37.2C21.5,37.1,21.5,37.2,21.5,37.2z" fill="#0F51B2"/></g><g><path d="M25,21.2L25,21.2c-1.7-2.4-4-4.6-6.5-6.5c0.4,1.2,0.8,2.5,1.1,3.7c1.6,6.3,2.2,12.4,1.8,17.5     c0,0.4,0.1,0.8,0.1,1.1c-0.1-0.8,0.1-1.6,0.4-2.4c0.1-0.1,0.1-0.2,0.2-0.3c2-3.2,3-7,3-10.8C25.1,22.8,25.1,22,25,21.2z" fill="#0F51B2"/></g></g><g><path d="M38,39.7c4.6-5.7,7.8-17.1,7.8-30.2c0-2.6-0.1-5.1-0.4-7.5c-0.9-0.8-2-1.2-3.1-1.2c-0.7,0-1.4,0.2-2,0.5    c-2.4,1.1-3.4,4-2.2,6.3c2.4,5.1,3.6,10.5,3.6,16.1c0,5.6-1.2,11-3.6,16C38,39.6,38,39.6,38,39.7z" fill="#48C92D"/></g><g><path d="M21.9,34.7c-0.2,0.4-0.3,0.9-0.4,1.4c3.8-4.5,6.5-13.7,6.5-24.3c0-1.9-0.1-3.7-0.2-5.5    C27.2,6.1,26.6,6,26,6c-0.7,0-1.1,0.1-1.6,0.3c-0.5,0.2-1.1,0.5-1.6,1c-0.5,0.5-0.8,1.1-1,1.7c-0.4,1.1-0.4,2.7,0.4,3.9    c1.6,2.5,2.5,5.4,2.8,8.4c0.1,0.8,0.1,1.6,0.1,2.4c0,3.8-1,7.5-3,10.8C22.1,34.5,22,34.6,21.9,34.7z" fill="#FF4382"/></g></g></svg>