<?xml version="1.0" ?><!DOCTYPE svg  PUBLIC '-//W3C//DTD SVG 1.1//EN'  'http://www.w3.org/Graphics/SVG/1.1/DTD/svg11.dtd'><svg enable-background="new 0 0 64 64" height="64px" id="Layer_1" version="1.1" viewBox="0 0 64 64" width="64px" xml:space="preserve" xmlns="http://www.w3.org/2000/svg" xmlns:xlink="http://www.w3.org/1999/xlink"><g><g><g><g><path d="M40.6,27.2c4.9,7.6,2.8,17.7-4.8,22.6c-7.6,4.9-17.7,2.8-22.6-4.8l4.7-3.2c3.2,4.9,9.8,6.3,14.7,3.1      c4.9-3.2,6.3-9.8,3.1-14.7L40.6,27.2z"/></g></g><g><g><path d="M35.8,49.8c-7.6,4.9-17.7,2.8-22.6-4.8l4.7-3.2c3.2,4.9,9.8,6.3,14.7,3.1c4.9-3.2,6.3-9.8,3.1-14.7      l4.9-3.1" fill="#666666"/></g></g><g><g><path d="M51.5,20.3c-4.9-7.5-15-9.7-22.6-4.7c-7.5,4.9-9.7,15-4.7,22.6l4.8-3c-3.2-4.9-1.8-11.5,3.1-14.7      s11.5-1.8,14.7,3.1L51.5,20.3z" fill="#666666"/></g></g><g><g><path d="M24.1,38.1l4.8-3c-3.2-4.9-1.8-11.5,3.1-14.7s11.5-1.8,14.7,3.1l4.8-3.2c-4.9-7.5-15-9.7-22.6-4.7"/></g></g><g><g><path d="M1,32C1,14.9,14.9,1,32,1s31,13.9,31,31c0,17.1-13.9,31-31,31S1,49.1,1,32z M32,60.8c15.9,0,28.8-12.9,28.8-28.8      C60.8,16.1,47.9,3.2,32,3.2S3.2,16.1,3.2,32C3.2,47.9,16.1,60.8,32,60.8z"/></g></g></g><g><path d="M27,60.4C13.5,58,3.2,46.2,3.2,32C3.2,16.1,16.1,3.2,32,3.2c2.2,0,4.3,0.3,6.4,0.7l0.4-2.1    C36.6,1.3,34.3,1,32,1C14.9,1,1,14.9,1,32c0,15.3,11,28,25.6,30.5L27,60.4z" fill="#666666"/></g></g></svg>