<?xml version="1.0" ?><!DOCTYPE svg  PUBLIC '-//W3C//DTD SVG 1.1//EN'  'http://www.w3.org/Graphics/SVG/1.1/DTD/svg11.dtd'><svg enable-background="new 0 0 64 64" height="64px" id="Layer_1" version="1.1" viewBox="0 0 64 64" width="64px" xml:space="preserve" xmlns="http://www.w3.org/2000/svg" xmlns:xlink="http://www.w3.org/1999/xlink"><g><g><g><g><g><g><path d="M8.8,31.6v-3.5c0-0.5-0.2-1-1.4-1v-0.3h4.4v0.3c-1.2,0-1.4,0.5-1.4,1V36c0,0.5,0.2,1,1.4,1v0.3H7.4V37        c1.2,0,1.4-0.5,1.4-1v-3.8H4V36c0,0.5,0.2,1,1.4,1v0.3H1V37c1.2,0,1.4-0.5,1.4-1v-7.9c0-0.5-0.2-1-1.4-1v-0.3h4.4v0.3        c-1.2,0-1.4,0.5-1.4,1v3.5H8.8" fill="#231F20"/></g></g><g><g><path d="M12.1,34.1h0.4c0.5,1.5,1.6,2.8,3.3,2.8c1.3,0,2.1-1.1,1.8-2.3c-0.6-2.2-5-2.3-5-5.3        c0-1.6,1.2-2.6,2.8-2.6c1.7,0,2.4,1.2,2.8,0h0.3l0.3,3.4h-0.4c-0.4-1.5-1.4-2.7-2.9-2.7c-0.9,0-1.7,0.5-1.7,1.5        c0,0.9,1,1.6,1.7,2c2.1,1.3,3.6,2,3.6,3.9c0,1.4-1.2,2.9-3.3,2.9c-1.6,0-2.8-1.2-2.9,0h-0.3L12.1,34.1" fill="#231F20"/></g></g><g><g><path d="M24.4,31.5c1.6,0,2.5-0.7,2.5-2c0-1.2-0.8-1.8-1.9-2c-1.5-0.1-2-0.1-2,0.4v3.6H24.4 M23.1,35.8        c0,0.6,0.1,0.8,1.3,0.8c1.6,0,2.9-0.5,2.9-2.3c0-1.9-1.9-2.2-3.4-2.2h-0.8V35.8z M21.5,28.1c0-0.5-0.2-1-1.5-1v-0.3h4.2        c2.4,0,4.3,0.6,4.3,2.7c0,1.3-0.9,2-2.1,2.3v0c1.4,0.3,2.6,1.1,2.6,2.6c0,1.9-1.6,2.9-4.1,2.9h-5V37c1.3,0,1.5-0.5,1.5-1V28.1        z" fill="#231F20"/></g></g><g><g><path d="M38.6,30.1h-0.4c-0.5-1.7-1.6-2.9-3.4-2.9c-2.6,0-3.7,2.1-3.7,4.9c0,2.2,1.2,4.6,3.7,4.6        c1.5,0,2.6-0.5,3.7-1.6l0.3,0.3c-1,1.2-2.6,2-4.1,2c-3.1,0-5.4-2-5.4-5.4c0-3.1,2.2-5.5,5.4-5.5c2.2,0,2.9,1.3,3.5,0h0.3        L38.6,30.1" fill="#231F20"/></g></g><g><g><rect fill="#FFFFFF" height="10.6" width="10.6" x="47.1" y="26.5"/></g></g><g><g><rect fill="#DAEAE7" height="5.3" width="10.6" x="47.1" y="31.9"/></g></g><g><g><polyline fill="#EE3725" points="47.1,26.5 57.7,26.5 52.4,31.8 47.1,26.5       "/></g></g><g><g><polyline fill="#EE3725" points="47.1,37.1 57.7,37.1 52.4,31.8 47.1,37.1       "/></g></g><g><g><polyline fill="#FF6700" points="47.1,26.5 47.1,37.1 41.8,31.8 47.1,26.5       "/></g></g><g><g><polyline fill="#EE3725" points="47.1,28.5 47.1,37.1 41.8,31.8 47.1,28.5       "/></g></g><g><g><polyline fill="#FF6700" points="57.7,26.5 57.7,37.1 63,31.8 57.7,26.5       "/></g></g><g><g><polyline fill="#EE3725" points="57.7,28.5 57.7,37.1 63,31.8 57.7,28.5       "/></g></g></g></g><g><polygon fill="#FF6700" points="49,28.4 55.8,28.4 57.7,26.5 47.1,26.5    "/></g><g><polygon fill="#D60F05" points="57.7,34.7 57.7,37.1 60.1,34.7    "/></g><g><polygon fill="#D60F05" points="47.1,37.1 57.7,37.1 55.3,34.7 49.5,34.7    "/></g><g><polygon fill="#D60F05" points="44.7,34.7 47.1,37.1 47.1,34.7    "/></g></g><g><path d="M38.1,26.5c-0.5,1.3-1.3,0-3.5,0c-3.1,0-5.3,2.3-5.4,5.3h1.8c0.1-2.7,1.2-4.7,3.7-4.7c1.8,0,3,1.2,3.4,2.9    h0.4l-0.1-3.5H38.1z" fill="#4D5655"/></g><g><path d="M24.2,26.8H20v0.3c1.3,0,1.5,0.5,1.5,1v3.7h5.1c-0.1,0-0.1,0-0.2,0v0c1.2-0.3,2.1-0.9,2.1-2.3    C28.6,27.5,26.7,26.8,24.2,26.8z M24.4,31.5h-1.3v-3.6c0-0.6,0.5-0.5,2-0.4c1.1,0.2,1.9,0.9,1.9,2C27,30.8,26,31.5,24.4,31.5z" fill="#4D5655"/></g><g><path d="M18.2,26.6c-0.4,1.2-1.1,0-2.8,0c-1.5,0-2.8,1.1-2.8,2.6c0,1.2,0.7,2,1.7,2.6h3.2    c-0.5-0.3-1.1-0.7-1.8-1.1c-0.7-0.4-1.7-1.1-1.7-2c0-1,0.7-1.5,1.7-1.5c1.5,0,2.5,1.2,2.9,2.7h0.4l-0.3-3.4H18.2z" fill="#4D5655"/></g><g><path d="M7.4,27.1c1.2,0,1.4,0.5,1.4,1v3.5H4v-3.5c0-0.5,0.2-1,1.4-1v-0.3H1v0.3c1.2,0,1.4,0.5,1.4,1v3.7h8v-3.7    c0-0.5,0.2-1,1.4-1v-0.3H7.4V27.1z" fill="#4D5655"/></g></g></svg>