<?xml version="1.0" ?><!DOCTYPE svg  PUBLIC '-//W3C//DTD SVG 1.1//EN'  'http://www.w3.org/Graphics/SVG/1.1/DTD/svg11.dtd'><svg enable-background="new 0 0 64 64" height="64px" id="Layer_1" version="1.1" viewBox="0 0 64 64" width="64px" xml:space="preserve" xmlns="http://www.w3.org/2000/svg" xmlns:xlink="http://www.w3.org/1999/xlink"><g><g><g><g><g><path d="M8.2,25.2c-7.5,0-7.8,5.9-7.7,7.4c0,0-0.4,6.8,7.5,6.8c6.8,0,7.1-4.3,7.1-4.3l-3.1,0c0,0-0.6,2.3-4,2.2       C3.7,37.3,3.5,33,3.5,33h12C15.6,33,16.5,25.2,8.2,25.2z M3.6,31c0,0,0.2-3.8,4.5-3.8c4.3,0,4.3,3.8,4.3,3.8H3.6z" fill="#FF6C6C"/></g></g></g><g><g><g><path d="M0.5,31.7c0,0-0.4,7.7,7.5,7.7c6.8,0,7.1-4.3,7.1-4.3l-3.1,0c0,0-0.6,2.3-4,2.2C3.7,37.3,3.5,33,3.5,33       h12c0,0,0.9-7.8-7.4-7.8 M3.6,31c0,0,0.2-3.8,4.5-3.8c4.3,0,4.3,3.8,4.3,3.8H3.6z" fill="#EE3B3F"/></g></g></g><g><g><g><path d="M24.2,25.3c-3.8,0-5.2,2.2-5.2,2.2V20h-3.4l0.1,15.9c0,0,0,2.1-0.1,3.1h2.9l0.1-1.8       c0,0,1.4,2.2,5.4,2.2c4,0,7.2-2.5,7.3-7C31.3,27.9,27.9,25.3,24.2,25.3z M23.3,37.4c-4.7,0.1-4.7-5-4.7-5s-0.2-4.9,4.7-5       c4.8-0.1,4.7,5.1,4.7,5.1S28,37.3,23.3,37.4z" fill="#1992DD"/></g></g></g><g><g><g><path d="M24.2,25.3c-3.8,0-5.2,2.2-5.2,2.2V20l-3.4,3.1l0,12.8c0,0,0,2.1-0.1,3.1h2.9l0.1-1.8       c0,0,1.4,2.2,5.4,2.2c4,0,7.2-2.5,7.3-7C31.3,27.9,27.9,25.3,24.2,25.3z M23.3,37.4c-4.7,0.1-4.7-5-4.7-5s-0.2-4.9,4.7-5       c4.8-0.1,4.7,5.1,4.7,5.1S28,37.3,23.3,37.4z" fill="#0468B2"/></g></g></g><g><g><g><path d="M45,35.8c0-2.1,0.1-3.9,0-5.2c-0.1-1.5,0.1-5.3-6.4-5.6c0,0-6.2-0.1-6.9,3.9h3.2c0,0,0.2-2,3.5-1.9       c3.1,0.1,3.6,1.6,3.6,3.5c0,0-2.6,0.1-3.5,0.1c-1.6,0-7.1,0.2-7.6,3.6c-0.6,4,2.9,5.2,5.7,5.2c2.8,0,4.4-0.8,5.6-2.3l0.1,1.9       l2.8,0C45.1,38.9,45,37.9,45,35.8z M37.1,37.5c0,0-3,0-3.2-2.4c-0.2-2.6,4.6-2.4,4.6-2.4l3.4,0C42,32.7,42.6,37.6,37.1,37.5z" fill="#FFCE00"/></g></g></g><g><g><g><path d="M32,29h2.9c0,0,0.2-2,3.5-1.9c3.1,0.1,3.6,1.6,3.6,3.5c0,0-2.6,0.1-3.5,0.1c-1.6,0-7.1,0.2-7.6,3.6       c-0.6,4,2.9,5.2,5.7,5.2c2.8,0,4.4-0.8,5.6-2.3l0.1,1.9l2.8,0c0,0-0.1-1-0.1-3.1c0-2.1,0.1-3.9,0-5.2c-0.1-1.5,0.2-5.3-6.3-5.6        M37.1,37.5c0,0-3,0-3.2-2.4c-0.2-2.6,4.6-2.4,4.6-2.4l3.4,0C42,32.7,42.6,37.6,37.1,37.5z" fill="#F7AB1B"/></g></g></g><g><g><polygon fill="#85DD52" points="43.4,26 46.9,26 52,36.2 57.1,26 60.3,26 51,44 47.6,44 50.3,39     "/></g></g><g><g><polygon fill="#6BB745" points="44.8,28.6 46.9,26 52,36.1 57.1,26 60.3,26 51,44 47.6,44 50.3,38.9     "/></g></g><g><g><g><path d="M61.4,26.5v-0.4h-0.1V26h0.1v-0.2h0.2V26h0.2v0.1h-0.2v0.4c0,0.1,0,0.1,0.1,0.1c0,0,0.1,0,0.1,0v0.1       c-0.1,0-0.1,0-0.2,0C61.5,26.8,61.4,26.7,61.4,26.5z" fill="#6BB745"/></g></g><g><g><path d="M62.1,26h0.2v0.1c0.1-0.1,0.1-0.1,0.3-0.1c0.1,0,0.2,0,0.3,0.1c0.1-0.1,0.2-0.1,0.3-0.1       c0.2,0,0.3,0.1,0.3,0.3v0.5h-0.2v-0.4c0-0.1-0.1-0.2-0.2-0.2c-0.1,0-0.2,0.1-0.2,0.2v0.4h-0.2v-0.4c0-0.1-0.1-0.2-0.2-0.2       c-0.1,0-0.2,0.1-0.2,0.2v0.4h-0.2V26z" fill="#6BB745"/></g></g></g></g><g><path d="M12.1,29.4c0.4,0.8,0.4,1.6,0.4,1.6H3.6c0,0,0-2.2,2-3.2c-2,0.3-3.7,1.3-5,2.8c-0.2,0.8-0.2,1.6-0.2,2    c0,0-0.4,6.8,7.5,6.8c5.8,0,6.9-3.1,7.1-4c0-0.1,0-0.2,0-0.3l-3.1,0c0,0-0.6,2.3-4,2.2C3.7,37.3,3.5,33,3.5,33h11.1    C14.1,32,13.2,30.3,12.1,29.4z" fill="#C60C1E"/></g><g><path d="M30.5,35.6c-0.1-2.5-1.5-4.8-3.4-6.2c0.9,1.4,0.8,3.2,0.8,3.2s0.1,4.9-4.7,4.9c-4.7,0.1-4.7-5-4.7-5    s-0.1-3.3,2.5-4.5c-2.3,0.3-4.2,1.6-5.5,3.4l0,4.7c0,0,0,2.1-0.1,3.1h2.9l0.1-1.8c0,0,1.4,2.2,5.4,2.2    C26.8,39.4,29.4,38.1,30.5,35.6z" fill="#064C91"/></g><g><g><path d="M45,35.8c0-1.7,0-3.2,0-4.4c-0.9-1.3-2.1-2.4-3.6-3c0.5,0.6,0.5,1.3,0.5,2.2c0,0-2.6,0.1-3.5,0.1     c-1.6,0-7.1,0.2-7.6,3.6c-0.6,4,2.9,5.2,5.7,5.2c2.8,0,4.4-0.8,5.6-2.3l0.1,1.9l2.8,0C45.1,38.9,45,37.9,45,35.8z M37.1,37.5     c0,0-3,0-3.2-2.4c-0.2-2.6,4.6-2.4,4.6-2.4l3.4,0C42,32.7,42.6,37.6,37.1,37.5z" fill="#F48D1C"/></g><g><path d="M33.4,29h1.6c0,0,0.2-0.6,0.7-1.1C34.8,28.1,34,29,33.4,29z" fill="#F48D1C"/></g></g><g><path d="M51,44l6.5-12.6c-0.6-0.8-1.3-1.5-2-2.1L52,36l-4-7.7c-0.9,0.4-1.7,1-2.4,1.7l4.7,9L47.6,44H51z" fill="#4A9E19"/></g></g></svg>