<?xml version="1.0" ?><!DOCTYPE svg  PUBLIC '-//W3C//DTD SVG 1.1//EN'  'http://www.w3.org/Graphics/SVG/1.1/DTD/svg11.dtd'><svg enable-background="new 0 0 64 64" height="64px" id="Layer_1" version="1.1" viewBox="0 0 64 64" width="64px" xml:space="preserve" xmlns="http://www.w3.org/2000/svg" xmlns:xlink="http://www.w3.org/1999/xlink"><g><g><g><g><g><path d="M25.6,27.6h4.3V28h-1.4l2.9,8.3h0l1.7-4.9L32,28h-1.3v-0.5h5.3V28h-2l2.8,8.3h0l2.9-8.3h-1.8v-0.5H41       V28h-0.5l-3.8,10.5h-1.1l-2.1-6.4h0l-2.2,6.4h-1.1L26.5,28h-0.8V27.6z" fill="#231F20"/></g></g></g><g><g><g><path d="M41.4,31.2v-3.5c0.6-0.2,1.1-0.4,1.6-0.6c0.5-0.1,1.1-0.2,1.7-0.2c0.7,0,1.3,0.1,1.7,0.2       c0.5,0.2,0.9,0.4,1.2,0.6c0.3,0.3,0.6,0.6,0.7,0.9c0.1,0.3,0.2,0.7,0.2,1v8h1v0.5h-2.9v-1.9h-0.1C46.4,37,46,37.6,45.4,38       c-0.6,0.4-1.2,0.6-2,0.6c-1,0-1.8-0.3-2.4-0.8c-0.6-0.5-0.9-1.3-0.9-2.2c0-0.6,0.1-1.1,0.3-1.5c0.2-0.4,0.5-0.7,0.9-0.9       c0.4-0.2,0.8-0.4,1.3-0.5c0.5-0.1,0.9-0.2,1.4-0.3c0.5-0.1,1-0.2,1.4-0.3c0.5-0.1,0.9-0.3,1.2-0.5v-2.3c0-0.7-0.2-1.2-0.5-1.5       c-0.3-0.3-0.8-0.4-1.4-0.4c-0.4,0-0.7,0.1-0.9,0.2c-0.3,0.1-0.5,0.3-0.7,0.6c-0.2,0.3-0.4,0.7-0.6,1.2       c-0.2,0.5-0.4,1.1-0.7,1.9H41.4z M46.7,32.2c-0.6,0.3-1.2,0.5-1.7,0.6c-0.5,0.1-1,0.2-1.4,0.4c-0.4,0.2-0.7,0.4-1,0.8       c-0.2,0.3-0.4,0.9-0.4,1.7c0,0.8,0.1,1.4,0.4,1.7c0.3,0.3,0.7,0.5,1.3,0.5c0.8,0,1.5-0.4,2-1.1c0.5-0.7,0.7-1.7,0.7-2.9V32.2z" fill="#231F20"/></g></g></g><g><g><g><path d="M48.4,27.6H53V28h-1.6l3.1,7.5l2.6-7.5h-1.9v-0.5h3.4V28h-1l-3.9,11.3c-0.2,0.6-0.4,1.1-0.6,1.5       c-0.2,0.4-0.4,0.7-0.6,0.9c-0.2,0.2-0.4,0.3-0.7,0.4c-0.2,0.1-0.5,0.1-0.8,0.1c-0.8,0-1.3-0.2-1.6-0.5v-3.4h0.5l0.6,2.1       c0.2,0.6,0.3,0.9,0.5,1.1c0.2,0.2,0.3,0.2,0.5,0.2c0.2,0,0.4-0.1,0.6-0.3c0.2-0.2,0.4-0.4,0.5-0.7s0.3-0.7,0.5-1.1       c0.2-0.4,0.3-0.8,0.4-1.3L49.2,28h-0.8V27.6z" fill="#231F20"/></g></g></g><g id="Shape_2_3_"><g><g><circle clip-rule="evenodd" cx="14.4" cy="30.1" fill="#636363" fill-rule="evenodd" r="11.9"/></g></g></g><g id="Shape_2_1_"><g><g><path clip-rule="evenodd" d="M6,38.4c4.6,4.6,12.1,4.6,16.8,0c4.6-4.6,4.6-12.1,0-16.8" fill="#231F20" fill-rule="evenodd"/></g></g></g><g id="e_Clipping_Path_3_"><g><path d="M16.6,34.7c-0.4,0.3-0.9,0.3-1.9,0.3c-1.3,0-2.1-0.5-2.7-1.1c-0.6-0.6-0.9-1-0.9-2.7h11.5      c0-0.3,0-1,0-1.2c0-2.5-0.9-4.9-2.3-6.3c-1.4-1.4-3.6-2-5.7-2c-2.2,0-4.6,0.8-6,2.2c-1.4,1.4-2.2,3.7-2.2,6.3      c0,2.5,0.9,4.8,2.3,6.2c1.4,1.4,3.7,2,6.1,2c1.9,0,3.8-0.5,5-1.3c1.2-0.9,2.3-2.2,2.7-3.8l-4.7-0.1      C17.5,33.9,17.3,34.2,16.6,34.7z M12.3,26.1c0.6-0.5,1.3-0.8,2.2-0.8c1,0,2,0.5,2.5,1.1c0.3,0.3,0.8,0.8,0.8,2.1h-6.6      C11.2,27.4,11.6,26.7,12.3,26.1z" fill="#F3F2F2"/></g></g><g id="e_Clipping_Path_1_"><g><path d="M6.4,30.2c0,2.5,0.9,4.8,2.3,6.2c1.4,1.4,3.7,2,6.1,2c1.9,0,3.8-0.5,5-1.3c1.2-0.9,2.3-2.2,2.7-3.8      l-3.7-0.1c-0.4,1-0.5,1-1,1.4c-1.2,0.8-2.6,0.4-3,0.4c-1.3,0-2.1-0.5-2.7-1.1c-0.6-0.6-0.9-1-0.9-2.7h11.5c0-0.3,0-1,0-1.2      c0-2.5-0.9-4.9-2.3-6.3c-1.4-1.4-3.6-2-5.7-2 M12.3,26.1c0.6-0.5,1.3-0.8,2.2-0.8c1,0,2.7,0,3.8,1.1c0.3,0.3,0.8,0.8,0.8,2.1      h-7.8C11.2,27.4,11.6,26.7,12.3,26.1z" fill="#C5D6D5"/></g></g><g id="Shape_1_3_"><g><g><path clip-rule="evenodd" d="M31.3,40.4c-12.5,0.1-23.5,1.9-30.8,5.4c0,0,7.7-2.6,30.8-2.6       c12.4,0,16.7,0.2,30.8,2.5C62.3,45.7,50.9,40.2,31.3,40.4z" fill="#231F20" fill-rule="evenodd"/></g></g></g></g><g><g><g><path d="M60.1,27.9h-0.6v-0.4h1.6v0.4h-0.6v1.6h-0.4V27.9z" fill="#231F20"/></g></g><g><g><path d="M61.3,27.6H62l0.5,1.4h0l0.4-1.4h0.6v2h-0.4v-1.4h0l-0.5,1.4h-0.3l-0.5-1.4h0v1.4h-0.4V27.6z" fill="#231F20"/></g></g></g></g></svg>