<?xml version="1.0" ?><!DOCTYPE svg  PUBLIC '-//W3C//DTD SVG 1.1//EN'  'http://www.w3.org/Graphics/SVG/1.1/DTD/svg11.dtd'><svg enable-background="new 0 0 64 64" height="64px" id="Layer_1" version="1.1" viewBox="0 0 64 64" width="64px" xml:space="preserve" xmlns="http://www.w3.org/2000/svg" xmlns:xlink="http://www.w3.org/1999/xlink"><g><g><g><path d="M13.2,30.4h-0.6c-0.4,0-0.6-0.3-0.6-0.7v-2.8h1.3v-0.8h-1.3v-1.5H11v5.2c0,1.1,0.5,1.6,1.5,1.6h0.6V30.4" fill="#0073AA"/></g><g><path d="M4.4,28.9L4.4,28.9c0,1.9,1.5,2.5,2.9,2.5c1.4,0,2.8-0.7,2.8-2.1c0-1.4-1.2-1.8-2.3-2.1l-0.4-0.1     c-1-0.2-1.8-0.4-1.8-1.1c0-1,1.1-1.2,1.5-1.2c1,0,1.6,0.5,1.7,1.4l0,0h1v0c-0.1-1.4-1-2.2-2.6-2.2c-1.3,0-2.6,0.6-2.6,2.1     c0,1.3,1.1,1.6,2.3,1.9L7.2,28c1,0.2,2,0.4,2,1.3c0,1.1-1.1,1.2-1.7,1.2c-0.5,0-1-0.1-1.4-0.4c-0.4-0.3-0.6-0.7-0.6-1.3v0H4.4" fill="#0073AA"/></g><g><path d="M18.6,30.5L18.6,30.5c-0.2,0.1-0.2,0.1-0.3,0.1c-0.2,0-0.2-0.1-0.2-0.5v-2.6c0-1-0.6-1.4-1.9-1.4     c-0.8,0-2.1,0.2-2.2,1.7l0,0h0.9l0,0c0-0.6,0.4-0.9,1.2-0.9c0.7,0,1.1,0.3,1.1,0.8c0,0.5-0.5,0.5-1.1,0.6c-0.2,0-0.4,0.1-0.6,0.1     c-0.9,0.2-1.7,0.4-1.7,1.6c0,0.9,0.6,1.5,1.7,1.5c0.7,0,1.3-0.3,1.8-0.7c0,0.6,0.4,0.7,0.7,0.7c0.3,0,0.5-0.1,0.6-0.1l0,0     L18.6,30.5 M15.7,30.5c-0.3,0-0.9-0.1-0.9-0.7c0-0.6,0.5-0.8,1-0.9c0.1,0,0.3,0,0.5-0.1c0.4,0,0.8-0.1,1-0.2c0,0,0,0,0,0v0.8     C17.2,29.9,16.8,30.5,15.7,30.5z" fill="#0073AA"/></g><g><path d="M19.4,26.1v5.1h0.9v-2.9c0-1,0.5-1.5,1.5-1.5c0.6,0,1,0.4,1,1v3.5h0.9v-3.4c0-1.3-0.6-1.9-1.8-1.9     c-0.7,0-1.3,0.3-1.6,0.9v-0.7H19.4" fill="#0073AA"/></g><g><path d="M28.5,24.2v2.6c-0.4-0.5-1.1-0.7-1.6-0.7c-1.4,0-2.3,1-2.3,2.7c0,0.7,0.2,1.4,0.6,1.9     c0.4,0.5,1,0.8,1.8,0.8c0.7,0,1.3-0.3,1.6-0.7v0.6h0.9v-7.1H28.5 M27,30.6c-1.1,0-1.5-0.9-1.5-1.8c0-0.6,0.1-1.9,1.5-1.9     c1.4,0,1.6,1.4,1.6,1.9C28.5,29.6,28.1,30.6,27,30.6z" fill="#0073AA"/></g><g><path d="M35.1,30.5L35.1,30.5c-0.2,0.1-0.2,0.1-0.3,0.1c-0.2,0-0.2-0.1-0.2-0.5v-2.6c0-1-0.6-1.4-1.9-1.4     c-0.8,0-2.1,0.2-2.2,1.7l0,0h0.9l0,0c0-0.6,0.4-0.9,1.2-0.9c0.7,0,1.1,0.3,1.1,0.8c0,0.5-0.5,0.5-1.1,0.6c-0.2,0-0.4,0.1-0.6,0.1     c-0.9,0.2-1.7,0.4-1.7,1.6c0,0.9,0.6,1.5,1.7,1.5c0.7,0,1.3-0.3,1.7-0.7c0,0.6,0.4,0.7,0.7,0.7c0.3,0,0.5-0.1,0.6-0.1l0,0     L35.1,30.5 M32.2,30.6c-0.3,0-0.9-0.1-0.9-0.7c0-0.6,0.5-0.8,1-0.9c0.1,0,0.3,0,0.5-0.1c0.4-0.1,0.8-0.1,1-0.2c0,0,0,0,0,0v0.8     C33.7,29.9,33.3,30.6,32.2,30.6z" fill="#0073AA"/></g><g><path d="M38.6,26L38.6,26c-0.9,0-1.5,0.3-1.9,1.1v-1h-0.9v5.1h0.9V29c0-1.4,0.6-2,1.8-2h0V26" fill="#0073AA"/></g><g><path d="M42.7,24.2v2.6c-0.4-0.5-1.1-0.7-1.6-0.7c-1.4,0-2.3,1-2.3,2.7c0,0.7,0.2,1.4,0.6,1.9     c0.4,0.5,1,0.8,1.8,0.8c0.7,0,1.3-0.3,1.6-0.7v0.6h0.9v-7.1H42.7 M41.2,30.6c-1.1,0-1.5-0.9-1.5-1.8c0-0.6,0.1-1.9,1.5-1.9     c1.4,0,1.5,1.4,1.5,1.9C42.8,29.6,42.4,30.6,41.2,30.6z" fill="#0073AA"/></g><g><path d="M6.3,38.4L6.3,38.4c-0.1,1.2-0.9,2-2,2c-0.8,0-1.4-0.3-1.8-0.8C2.2,39,2,38.3,2,37.5     c0-0.8,0.2-1.4,0.6-1.9c0.4-0.6,1-0.8,1.8-0.8c1,0,1.7,0.5,1.9,1.5l0,0h1l0,0c-0.1-0.7-0.4-1.3-1-1.7c-0.5-0.4-1.2-0.6-1.9-0.6     c-1,0-1.9,0.4-2.5,1.1C1.3,35.6,1,36.5,1,37.6c0,2.3,1.3,3.7,3.3,3.7c0.9,0,1.6-0.3,2.1-0.8c0.5-0.5,0.8-1.2,0.9-2.1l0,0H6.3" fill="#0B9632"/></g><g><path d="M8.2,34v7.1h0.9v-2.9c0-1,0.5-1.5,1.5-1.5c0.6,0,1,0.4,1,1v3.5h0.9v-3.4c0-1.3-0.6-1.9-1.8-1.9     c-0.5,0-1.3,0.2-1.6,0.8V34H8.2" fill="#0B9632"/></g><g><path d="M14.4,37.6L14.4,37.6c0-0.7,0.4-1,1.2-1c0.7,0,1.1,0.3,1.1,0.8c0,0.5-0.5,0.5-1.1,0.6     c-0.2,0-0.4,0.1-0.6,0.1c-0.9,0.2-1.7,0.4-1.7,1.6c0,0.9,0.6,1.5,1.7,1.5c0.7,0,1.3-0.2,1.8-0.7c0,0.6,0.4,0.7,0.7,0.7     c0.3,0,0.5,0,0.6-0.1l0,0v-0.7l-0.1,0c-0.1,0-0.2,0-0.2,0c-0.2,0-0.2-0.1-0.2-0.5v-2.6c0-1-0.6-1.4-1.9-1.4     c-0.8,0-2.1,0.2-2.2,1.7v0H14.4 M15.1,40.4c-0.3,0-0.9-0.1-0.9-0.7c0-0.6,0.5-0.8,1-0.9c0.1,0,0.3,0,0.5-0.1     c0.4-0.1,0.8-0.1,1-0.2c0,0,0,0,0,0v0.8C16.7,39.7,16.2,40.4,15.1,40.4z" fill="#0B9632"/></g><g><path d="M43.6,41.1V34h-0.9v2.5c-0.4-0.5-1.1-0.7-1.6-0.7c-1.4,0-2.3,1-2.3,2.7c0,0.7,0.2,1.4,0.6,1.9     c0.4,0.5,1,0.8,1.8,0.8c0.7,0,1.3-0.3,1.6-0.7v0.6H43.6 M41.2,40.4c-1.1,0-1.5-0.9-1.5-1.8c0-0.6,0.1-1.9,1.5-1.9     c1.4,0,1.5,1.4,1.5,1.9C42.8,39.4,42.4,40.4,41.2,40.4z" fill="#0B9632"/></g><g><path d="M28.7,39.5c-0.2,0.6-0.6,0.9-1.3,0.9c-0.5,0-0.9-0.1-1.1-0.4c-0.3-0.3-0.4-0.7-0.4-1.2h3.8l0,0     c0-0.9-0.2-1.8-0.8-2.3c-0.4-0.4-0.9-0.6-1.6-0.6C26,35.8,25,37,25,38.5c0.1,1.7,1,2.7,2.5,2.7c1.2,0,2-0.6,2.2-1.7H28.7      M27.3,36.6c0.8,0,1.4,0.6,1.4,1.4h-2.8C26,37.3,26.5,36.6,27.3,36.6z" fill="#0B9632"/></g><g><path d="M37.2,39.5c-0.2,0.6-0.6,0.9-1.3,0.9c-0.5,0-0.9-0.1-1.1-0.4c-0.3-0.3-0.4-0.7-0.4-1.2h3.8l0,0     c0-0.9-0.2-1.8-0.8-2.3c-0.4-0.4-0.9-0.6-1.6-0.6c-1.4,0-2.4,1.1-2.4,2.7c0.1,1.7,1,2.7,2.5,2.7c1.2,0,1.9-0.6,2.2-1.7H37.2      M35.8,36.6c0.8,0,1.4,0.6,1.4,1.4h-2.8C34.5,37.3,34.9,36.6,35.8,36.6z" fill="#0B9632"/></g><g><path d="M19.8,41.1v-2.3c0-1.4,0.6-2,1.8-2h0v-0.9h0c-0.9,0-1.4,0.3-1.8,1.1v-1h-0.9v5.1H19.8" fill="#0B9632"/></g><g><path d="M31.5,41.1v-2.3c0-1.4,0.6-2,1.8-2h0v-0.9l0,0c-0.9,0-1.4,0.3-1.8,1.1v-1h-0.9v5.1H31.5" fill="#0B9632"/></g><g><path d="M24.5,40.3h-0.6c-0.4,0-0.6-0.3-0.6-0.7v-2.8h1.3V36h-1.3v-1.5h-0.9v5.2c0,1.1,0.5,1.6,1.5,1.6h0.6V40.3" fill="#0B9632"/></g><g><path d="M52.3,43c-0.6,0.4-1.2,0.6-1.8,0.6c-1.5,0-2.8-1.2-2.9-2.8l3-1.8l4.6,2.1L52.3,43" fill="#A0D1EA"/></g><g><path d="M54.1,35.4l-2.2-1c-1-0.4-1.9-0.8-1.9-1.9c0-0.6,0.2-0.9,0.4-1.2l4.7,2.1l-1.2,0.7     c-0.3,0.2-0.5,0.4-0.5,0.6C53.4,35,53.7,35.2,54.1,35.4" fill="#A2CE9F"/></g><g><path d="M50.4,31.4l4.7,2.1l-1.2,0.7c-0.3,0.2-0.5,0.4-0.5,0.6" fill="#8AB586"/></g><g><path d="M56.2,25.2L54,26.6c-0.2,0.1-0.5,0.3-0.5,0.6c0,0.3,0.5,0.6,1,0.8l-2.8-1.2C50.8,26.4,50,26,50,25     c0-0.4,0.1-0.8,0.3-1.1l6.1-3.7c0.7,0.4,1.4,1.3,1.4,2.4C57.9,23.8,57.3,24.6,56.2,25.2" fill="#A0D1EA"/></g><g><path d="M56.2,25.2" fill="#78ABD1"/></g><g><path d="M54,26.6c-0.2,0.1-0.5,0.3-0.5,0.6c0,0.3,0.5,0.6,1,0.8l-2.8-1.2C50.8,26.4,50,26,50,25     c0-0.4,0.1-0.8,0.3-1.1l6.1-3.7" fill="#63A4D6"/></g><g><path d="M61.1,29.6L60.5,30l-4.7-2.1l5.4-3.3c0.7,0.4,1.5,1.3,1.5,2.4C62.7,28.2,62.1,29,61.1,29.6" fill="#A2CE9F"/></g><g><path d="M61.1,29.6c1.1-0.6,1.7-1.4,1.7-2.6l-6.9,0.9l4.7,2.1L61.1,29.6" fill="#8AB586"/></g><g><path d="M57.1,33.6l2.8,1.2c1,0.5,1.4,1,1.4,1.7c0,0.4-0.2,0.8-0.5,1.1L56,35.5l0.8-0.4c0.7-0.4,0.9-0.6,0.9-0.8     C57.7,34,57.6,33.8,57.1,33.6" fill="#A0D1EA"/></g><g><path d="M62,43.8c-1.2-0.9-2.4-1.5-4-2.2L51,38.5c-1.8-0.8-2.9-1.8-2.9-3.6c0-1.7,0.8-2.6,1.9-3.2l0.4-0.2     c-0.3,0.3-0.4,0.6-0.4,1.2c0,1.1,0.9,1.5,1.9,1.9l8.2,3.6c1.4,0.6,2.7,1.7,2.7,3.5C62.8,42.5,62.4,43.4,62,43.8" fill="#1EAA4B"/></g><g><path d="M61.2,37.2l-0.5,0.3c0.3-0.3,0.5-0.7,0.5-1.1c0-0.7-0.3-1.2-1.4-1.7L51.1,31c-1.8-0.8-2.9-1.8-2.9-3.6     c0-1.6,0.8-2.7,2.1-3.5C50.1,24.2,50,24.6,50,25c0,1,0.8,1.4,1.7,1.8l8.5,3.8c1.6,0.7,2.8,1.7,2.8,3.6     C63,35.6,62.3,36.6,61.2,37.2" fill="#0068A8"/></g><g><path d="M61.5,33.3l-9.4-4.2C49,27.3,49,27.2,49,25.3c0-0.1,0-0.1,0-0.2c-0.5,0.6-0.8,1.4-0.8,2.3     c0,1.8,1.1,2.8,2.9,3.6l8.8,3.9c1,0.5,1.4,1,1.4,1.7c0,0.4-0.2,0.8-0.5,1.1l0.5-0.3c0.9-0.6,1.6-1.4,1.7-2.5     C62.9,34.2,62.5,33.7,61.5,33.3z" fill="#004F96"/></g></g><g><path d="M60.6,37.5L60.6,37.5c0.4-0.2,0.6-0.6,0.6-1c0-0.7-0.3-1.2-1.4-1.7l-2.8-1.2c0.2,0.1,0.3,0.1,0.4,0.2    C59.1,34.5,60.3,35.9,60.6,37.5z" fill="#63A4D6"/></g><g><path d="M51.6,41.9c-1.5,0-2.9-0.4-3.9-0.9c0.1,1.4,1.4,2.6,2.9,2.6c0.6,0,1.2-0.2,1.8-0.6l2.9-1.9l0,0    C54.2,41.6,53,41.9,51.6,41.9z" fill="#63A4D6"/></g><g><path d="M62.8,41.5c-0.8-0.4-1.6-0.8-2.5-1.3l-7.8-3.4c-1-0.6-1.7-1-2.2-1.3c-1-0.5-1.6-1.3-1.6-2.1    c0-0.3,0.1-0.6,0.3-0.9c-0.6,0.6-0.9,1.3-0.9,2.5c0,1.8,1.2,2.8,2.9,3.6l7.1,3.1c1.5,0.7,2.8,1.3,4,2.2    C62.4,43.4,62.8,42.5,62.8,41.5C62.8,41.5,62.8,41.5,62.8,41.5z" fill="#0B9632"/></g></g></svg>