<?xml version="1.0" ?><!DOCTYPE svg  PUBLIC '-//W3C//DTD SVG 1.1//EN'  'http://www.w3.org/Graphics/SVG/1.1/DTD/svg11.dtd'><svg enable-background="new 0 0 64 64" height="64px" id="Layer_1" version="1.1" viewBox="0 0 64 64" width="64px" xml:space="preserve" xmlns="http://www.w3.org/2000/svg" xmlns:xlink="http://www.w3.org/1999/xlink"><g><g><g><g><g><path d="M7.7,56.5c-0.4,0.2-1.3,0.4-2.3,0.4c-2.5,0-4.3-1.6-4.3-4.5c0-2.8,1.9-4.6,4.6-4.6       c1.1,0,1.8,0.2,2.1,0.4l-0.3,0.9c-0.4-0.2-1-0.4-1.8-0.4c-2.1,0-3.4,1.3-3.4,3.6c0,2.2,1.2,3.5,3.4,3.5c0.7,0,1.4-0.1,1.9-0.4       L7.7,56.5z" fill="#A23C42"/></g></g><g><g><path d="M9.1,48h1.2v7.9H14v1H9.1V48z" fill="#A23C42"/></g></g><g><g><path d="M16.4,48v8.8h-1.2V48H16.4z" fill="#A23C42"/></g></g><g><g><path d="M24.6,56.5c-0.4,0.2-1.3,0.4-2.3,0.4c-2.5,0-4.3-1.6-4.3-4.5c0-2.8,1.9-4.6,4.6-4.6       c1.1,0,1.8,0.2,2.1,0.4l-0.3,0.9c-0.4-0.2-1-0.4-1.8-0.4c-2.1,0-3.4,1.3-3.4,3.6c0,2.2,1.2,3.5,3.4,3.5c0.7,0,1.4-0.1,1.9-0.4       L24.6,56.5z" fill="#A23C42"/></g></g><g><g><path d="M26,48h1.1v4.2h0c0.2-0.3,0.5-0.7,0.7-0.9l2.7-3.3H32l-3.2,3.7l3.4,5.1h-1.3L28,52.5l-0.8,1v3.4H26V48z       " fill="#A23C42"/></g></g><g><g><path d="M33.1,48.1c0.5-0.1,1.3-0.2,2.1-0.2c1.1,0,1.9,0.2,2.4,0.6c0.5,0.3,0.7,0.9,0.7,1.6       c0,0.9-0.6,1.6-1.5,1.9v0c0.8,0.2,1.8,0.9,1.8,2.2c0,0.8-0.3,1.3-0.8,1.8c-0.6,0.6-1.6,0.8-3,0.8c-0.8,0-1.4-0.1-1.8-0.1V48.1z        M34.2,51.7h1c1.2,0,1.9-0.6,1.9-1.5c0-1-0.8-1.4-1.9-1.4c-0.5,0-0.8,0-1,0.1V51.7z M34.2,55.9c0.2,0,0.5,0,1,0       c1.2,0,2.3-0.4,2.3-1.7c0-1.2-1-1.7-2.3-1.7h-0.9V55.9z" fill="#9A847A"/></g></g><g><g><path d="M41.6,54l-0.9,2.8h-1.2l3-8.8h1.4l3,8.8h-1.2L44.7,54H41.6z M44.5,53.1l-0.9-2.5       c-0.2-0.6-0.3-1.1-0.5-1.6h0c-0.1,0.5-0.3,1.1-0.4,1.6l-0.9,2.5H44.5z" fill="#9A847A"/></g></g><g><g><path d="M48.2,56.8V48h1.3l2.8,4.5c0.6,1,1.2,2,1.6,2.9l0,0c-0.1-1.2-0.1-2.2-0.1-3.6V48h1.1v8.8h-1.2l-2.8-4.5       c-0.6-1-1.2-2-1.6-2.9l0,0c0.1,1.1,0.1,2.2,0.1,3.6v3.8H48.2z" fill="#9A847A"/></g></g><g><g><path d="M56.8,48h1.1v4.2h0c0.2-0.3,0.5-0.7,0.7-0.9l2.7-3.3h1.4l-3.2,3.7l3.4,5.1h-1.3l-2.9-4.3l-0.8,1v3.4       h-1.1V48z" fill="#9A847A"/></g></g></g><g><g><g><g><path d="M18.2,7.1c8.9,0,17.8,0,26.7,0l0,0.1C36,7.2,27.1,7.2,18.2,7.1L18.2,7.1z" fill="#BA6D71"/></g></g></g><g><g><g><path d="M14.6,11.4L14.6,11.4c0.1,7.6,0.1,15.1,0.1,22.7h-0.1C14.6,26.5,14.6,19,14.6,11.4z" fill="#D29EA1"/></g></g></g><g><g><g><g><path d="M14.7,11.4c0.1-1.9,1.5-4,3.5-4.2c8.9,0,17.8,0,26.7,0c2.2,0.4,3.7,2.8,3.5,4.9c0,4.7,0,9.3,0,14         c-1.7,0-3.4,0-5,0c0.9-3.1,0.3-6.5-1.5-9.2c-1.9-2.9-5.2-4.8-8.7-5.2c-3.7-0.5-7.6,0.9-10.2,3.7c-1.8,1.7-2.8,4.2-3.1,6.6         c-0.1,0.7-0.1,1.5,0,2.2c0.2,2.1,1,4.2,2.4,5.8c2,2.7,5.3,4.3,8.7,4.6c0,1.3,0,2.5,0,3.8c-4.1,0-8.1,0-12.2,0         c-2.3,0-4-2.2-4.1-4.3C14.7,26.5,14.7,19,14.7,11.4z" fill="#CE495C"/></g></g></g><g><g><g><path d="M44.9,7.2c2.2,0.4,3.7,2.8,3.5,4.9c0,4.7,0,9.3,0,14c-1.7,0-3.4,0-5,0c0.9-3.1,0.3-6.5-1.5-9.2         c-1.9-2.9-5.2-4.8-8.7-5.2c-3.7-0.5-7.6,0.9-10.2,3.7c-1.8,1.7-2.8,4.2-3.1,6.6c-0.1,0.7-0.1,1.5,0,2.2         c0.2,2.1,1,4.2,2.4,5.8c2,2.7,5.3,4.3,8.7,4.6c0,1.3,0,2.5,0,3.8c-4.1,0-8.1,0-12.2,0c-2.3,0-4-2.2-4.1-4.3         c0-7.6,0-15.1,0-22.7" fill="#A23C42"/></g></g></g><g><g><g><g><path d="M28.5,15.6c3.1-1.3,6.8-0.7,9.3,1.5c1.4,1.3,2.5,3.2,2.6,5.2c0,0.6,0,1.1,0,1.7          c-0.3,4.1-4.2,7.4-8.2,7.4c-0.2,0-0.5,0-0.7,0c-1.7,0-3.4-0.7-4.9-1.6c-1.9-1.3-3.1-3.5-3.3-5.7          C22.8,20.5,25.2,16.9,28.5,15.6z" fill="#B79C91"/></g></g></g><g><g><g><path d="M37.8,17.1c1.4,1.3,2.5,3.2,2.6,5.2c0,0.6,0,1.1,0,1.7c-0.3,4.1-4.2,7.4-8.2,7.4c-0.2,0-0.5,0-0.7,0          c-1.7,0-3.4-0.7-4.9-1.6c-1.9-1.3-3.1-3.5-3.3-5.7" fill="#9A847A"/></g></g></g><g><g><path d="M37.7,32c1-2,4.1-2.4,5.7-0.8c1,0.8,1.2,2.5,0.5,3.5c-0.5,0.9-1.6,1.4-2.6,1.4c-0.3,0-0.5,0-0.8,0         c-1,0-2.1-0.6-2.6-1.5C37.3,33.8,37.2,32.8,37.7,32z" fill="#877168"/></g></g></g></g><g><g><g><path d="M20,24.2c-0.1-0.7-0.1-1.5,0-2.2C20,22.8,20.1,23.5,20,24.2z" fill="#DEBBBC"/></g></g></g><g><g><g><path d="M40.4,22.3L40.4,22.3c0.1,0.6,0.1,1.1,0.1,1.7l-0.1,0C40.4,23.4,40.4,22.9,40.4,22.3z" fill="#D0D1D1"/></g></g></g><g><g><g><path d="M31.5,31.4c0.2,0,0.5,0,0.7,0C32.1,31.6,31.6,31.6,31.5,31.4z" fill="#E0E0E0"/></g></g><g><g><path d="M40.4,36.1c0.3,0,0.5,0,0.8,0C41.1,36.3,40.6,36.2,40.4,36.1L40.4,36.1z" fill="#E0E0E0"/></g></g></g><g><g><g><path d="M31,34.6l0.1,0c0,1.3,0,2.6,0,3.8H31C31,37.2,31,35.9,31,34.6z" fill="#D19EA0"/></g></g></g><g><g><g><path d="M45.7,36.2c0.8-0.1,1.8,0.3,2.2,1.1c0.4,0.6,0.3,1.5-0.3,2c-0.8,0.9-2.3,1-3.2,0.2        c-0.6-0.5-0.8-1.5-0.4-2.2C44.3,36.6,45,36.2,45.7,36.2z" fill="#877168"/></g></g></g></g></g><g><path d="M37.8,17.1C37.8,17.1,37.7,17.1,37.8,17.1L25.8,29c0.3,0.3,0.6,0.5,0.9,0.7c1.4,1,3.1,1.7,4.9,1.6    c0.2,0,0.5,0,0.7,0c4,0,7.9-3.3,8.2-7.4c0-0.6,0-1.2,0-1.7C40.3,20.3,39.2,18.5,37.8,17.1z" fill="#877168"/></g><g><g><path d="M16.9,37.9c0.6,0.3,1.2,0.5,1.9,0.5c4.1,0,8.1,0,12.2,0c0-1.3,0-2.5,0-3.8c-2.8-0.2-5.5-1.4-7.5-3.3     L16.9,37.9z" fill="#843139"/></g><g><path d="M46.8,8.1L40,14.8c0.7,0.6,1.3,1.4,1.9,2.1c1.8,2.6,2.4,6.1,1.5,9.2c1.7,0,3.4,0,5,0c0-4.7,0-9.3,0-14     C48.6,10.6,47.9,9,46.8,8.1z" fill="#843139"/></g></g></g></svg>