<?xml version="1.0" ?><!DOCTYPE svg  PUBLIC '-//W3C//DTD SVG 1.1//EN'  'http://www.w3.org/Graphics/SVG/1.1/DTD/svg11.dtd'><svg enable-background="new 0 0 64 64" height="64px" id="Layer_1" version="1.1" viewBox="0 0 64 64" width="64px" xml:space="preserve" xmlns="http://www.w3.org/2000/svg" xmlns:xlink="http://www.w3.org/1999/xlink"><g><g><defs><rect height="11.9" id="SVGID_1_" width="62" x="1" y="26.1"/></defs><clipPath id="SVGID_2_"><use overflow="visible" xlink:href="#SVGID_1_"/></clipPath><g clip-path="url(#SVGID_2_)"><defs><rect height="11.9" id="SVGID_3_" width="62" x="1" y="26.1"/></defs><clipPath id="SVGID_4_"><use overflow="visible" xlink:href="#SVGID_3_"/></clipPath><g clip-path="url(#SVGID_4_)"><path clip-rule="evenodd" d="M63,37c0,0.5-0.4,0.9-0.9,0.9H1.9C1.4,37.9,1,37.5,1,37V27      c0-0.5,0.4-0.9,0.9-0.9h60.2c0.5,0,0.9,0.4,0.9,0.9" fill-rule="evenodd"/></g><g clip-path="url(#SVGID_4_)"><path d="M28.4,26.1H1.9C1.4,26.1,1,26.5,1,27V37c0,0.5,0.4,0.9,0.9,0.9h38.3L28.4,26.1z" fill="#474744"/></g><g clip-path="url(#SVGID_4_)"><path d="M10.6,26.1H1.9C1.4,26.1,1,26.5,1,27V37c0,0.5,0.4,0.9,0.9,0.9h20.5L10.6,26.1z" fill="#686865"/></g></g></g><g><defs><rect height="11.9" id="SVGID_5_" width="62" x="1" y="26.1"/></defs><clipPath id="SVGID_6_"><use overflow="visible" xlink:href="#SVGID_5_"/></clipPath><g clip-path="url(#SVGID_6_)"><polyline fill="#FFDD12" points="5.6,31.4 3.9,31.4 3.1,27.4 4.5,27.4 4.8,29.9 5.2,27.4 6.8,27.4 7.2,29.9 7.5,27.4 8.9,27.4      8.1,31.4 6.3,31.4 6,28.8    "/></g><g clip-path="url(#SVGID_6_)"><polyline fill="#FFDD12" points="45.8,36.3 41.9,36.3 40.1,27.4 43.2,27.4 44,32.9 44.8,27.4 48.4,27.4 49.2,33 50,27.4      53.1,27.4 51.2,36.3 47.4,36.3 46.6,30.6    "/></g><g clip-path="url(#SVGID_6_)"><polyline fill="#FFDD12" points="9.8,31.4 9.8,27.4 12.8,27.4 12.8,28.5 11.3,28.5 11.3,28.9 12.7,28.9 12.7,29.9 11.3,29.9      11.3,30.4 12.9,30.4 12.9,31.4    "/></g><g clip-path="url(#SVGID_6_)"><polyline fill="#FFDD12" points="22.9,31.4 22.9,27.4 25.9,27.4 25.9,28.5 24.4,28.5 24.4,28.9 25.8,28.9 25.8,29.9 24.4,29.9      24.4,30.4 26,30.4 26,31.4    "/></g><g clip-path="url(#SVGID_6_)"><path d="M13.8,30.2h1.5v0c0,0.1,0,0.2,0.1,0.3c0.1,0.1,0.2,0.1,0.3,0.1c0.1,0,0.2,0,0.3-0.1     c0.1-0.1,0.1-0.1,0.1-0.2c0-0.1,0-0.1,0-0.2l-0.1-0.1c-0.1,0-0.2-0.1-0.5-0.1c-0.2-0.1-0.4-0.1-0.6-0.2c-0.3-0.1-0.6-0.2-0.8-0.4     c-0.2-0.2-0.2-0.4-0.2-0.7c0-0.4,0.2-0.7,0.5-0.9c0.3-0.2,0.8-0.3,1.4-0.3c0.5,0,1,0.1,1.2,0.3c0.3,0.2,0.4,0.5,0.4,0.8v0.1H16     c0-0.1,0-0.2-0.1-0.3c-0.1-0.1-0.1-0.1-0.3-0.1c-0.1,0-0.2,0-0.2,0.1c-0.1,0-0.1,0.1-0.1,0.2c0,0.1,0.2,0.3,0.5,0.3     c0.1,0,0.2,0.1,0.3,0.1c0.6,0.1,0.9,0.3,1.1,0.5c0.2,0.2,0.3,0.4,0.3,0.8c0,0.4-0.2,0.8-0.5,1c-0.3,0.3-0.8,0.4-1.4,0.4     c-0.6,0-1-0.1-1.4-0.3c-0.3-0.2-0.5-0.5-0.5-0.9L13.8,30.2L13.8,30.2" fill="#FFDD12"/></g><g clip-path="url(#SVGID_6_)"><polyline fill="#FFDD12" points="21.9,27.4 21.9,28.5 20.9,28.5 20.9,31.4 19.4,31.4 19.4,28.5 18.4,28.5 18.4,27.4    "/></g><g clip-path="url(#SVGID_6_)"><path d="M27.1,31.4v-3.9h2c0.6,0,1,0.1,1.3,0.2c0.2,0.2,0.4,0.4,0.4,0.8c0,0.2-0.1,0.4-0.2,0.6     c-0.1,0.2-0.3,0.3-0.6,0.3c0.2,0,0.4,0.1,0.5,0.2c0.1,0.1,0.2,0.3,0.2,0.7l0.1,0.4c0,0.1,0,0.2,0,0.3c0,0.1,0.1,0.2,0.1,0.4h-1.5     c0-0.1-0.1-0.2-0.1-0.3c0-0.1,0-0.2,0-0.2l0-0.3c0-0.3-0.1-0.4-0.2-0.5c-0.1-0.1-0.2-0.1-0.3-0.1l-0.1,0l-0.1,0v1.4 M28.6,29.1     L28.6,29.1l0.1,0c0.2,0,0.3,0,0.4-0.1c0.1-0.1,0.1-0.2,0.1-0.3c0-0.1,0-0.2-0.1-0.3c-0.1-0.1-0.2-0.1-0.4-0.1h-0.1l-0.1,0V29.1z" fill="#FFDD12"/></g><g clip-path="url(#SVGID_6_)"><polyline fill="#FFDD12" points="33.2,29 33.2,31.4 31.9,31.4 31.9,27.4 33.8,27.4 34.6,29.8 34.6,27.4 35.9,27.4 35.9,31.4      34,31.4    "/></g><g clip-path="url(#SVGID_6_)"><polyline fill="#FFC715" points="33.2,33.8 33.2,36.2 31.9,36.2 31.9,32.3 33.8,32.3 34.6,34.6 34.6,32.3 35.9,32.3 35.9,36.2      34,36.2    "/></g><g clip-path="url(#SVGID_6_)"><polyline fill="#FFC715" points="20,33.8 20,36.2 18.8,36.2 18.8,32.3 20.6,32.3 21.5,34.6 21.5,32.3 22.7,32.3 22.7,36.2      20.9,36.2    "/></g><g clip-path="url(#SVGID_6_)"><path d="M13.8,32.3h1.5v2.5c0,0.2,0,0.3,0.1,0.4c0.1,0.1,0.1,0.1,0.3,0.1c0.1,0,0.2,0,0.3-0.1     c0.1-0.1,0.1-0.2,0.1-0.4v-2.5h1.5v2.4c0,0.6-0.2,1-0.5,1.2c-0.3,0.3-0.8,0.4-1.4,0.4c-0.4,0-0.7,0-0.9-0.1     c-0.2-0.1-0.4-0.2-0.6-0.4c-0.1-0.1-0.2-0.3-0.3-0.4c-0.1-0.2-0.1-0.4-0.1-0.7" fill="#FFC715"/></g><g clip-path="url(#SVGID_6_)"><rect fill="#FFC715" height="3.9" width="1.6" x="24" y="32.3"/></g><g clip-path="url(#SVGID_6_)"><path d="M28.7,36.3c-0.6,0-1.1-0.2-1.5-0.5c-0.3-0.4-0.5-0.9-0.5-1.5c0-0.7,0.2-1.2,0.5-1.5     c0.4-0.4,0.9-0.5,1.5-0.5c0.7,0,1.2,0.2,1.5,0.5c0.4,0.4,0.5,0.9,0.5,1.5c0,0.7-0.2,1.2-0.5,1.5C29.9,36.1,29.4,36.3,28.7,36.3      M28.8,33.2c-0.2,0-0.3,0.1-0.3,0.2c-0.1,0.1-0.1,0.4-0.1,0.8c0,0.4,0,0.6,0.1,0.8c0.1,0.2,0.2,0.2,0.3,0.2     c0.2,0,0.3-0.1,0.3-0.2c0.1-0.2,0.1-0.4,0.1-0.9c0-0.4,0-0.6-0.1-0.8C29,33.3,28.9,33.2,28.8,33.2" fill="#FFC715"/></g><g clip-path="url(#SVGID_6_)"><polyline fill="#FFDD12" points="39.6,36.2 39.1,36.2 37.3,27.4 37.8,27.4    "/></g><g clip-path="url(#SVGID_6_)"><polyline fill="#FFDD12" points="41,36.2 40.5,36.2 38.7,27.4 39.2,27.4    "/></g><g clip-path="url(#SVGID_6_)"><path d="M55.6,27.4V33c0,0.4-0.1,0.6-0.2,0.8c-0.1,0.2-0.3,0.3-0.6,0.3c-0.3,0-0.5-0.1-0.6-0.3S54,33.3,54,33     v-5.5h-0.7l-1.7,8.2c0.3,0.3,0.7,0.5,1.1,0.6c0.5,0.2,1.2,0.3,2,0.3c1.4,0,2.5-0.3,3.2-0.9c0.7-0.6,1-1.5,1-2.8v-5.4" fill="#FFDD12"/></g><g clip-path="url(#SVGID_6_)"><path d="M50.6,27.4v5.4c0,0.7,0.1,1.2,0.2,1.6c0.1,0.4,0.3,0.7,0.6,1l1.7-7.9" fill="#FFC715"/></g><g clip-path="url(#SVGID_6_)"><path d="M59.7,28.1l0.2,0l0,0.1l0.1,0l0.1,0l0,0l0,0l-0.1,0c-0.1,0-0.1,0-0.2-0.1l0-0.1l0-0.1l0.1-0.1     c0,0,0.1,0,0.1,0c0.1,0,0.1,0,0.2,0c0,0,0.1,0.1,0.1,0.1l-0.2,0l0-0.1l-0.1,0l0,0l0,0l0,0l0.1,0c0.1,0,0.1,0,0.2,0.1l0.1,0.1     l0,0.1l0,0.1L60,28.3l-0.1,0c-0.1,0-0.2,0-0.2-0.1C59.7,28.2,59.7,28.2,59.7,28.1" fill="#FFDD12"/></g><g clip-path="url(#SVGID_6_)"><polyline fill="#FFDD12" points="60.2,27.7 60.5,27.7 60.6,28.1 60.7,27.7 60.9,27.7 60.9,28.3 60.7,28.3 60.7,27.9 60.6,28.3      60.5,28.3 60.4,27.9 60.4,28.3 60.2,28.3    "/></g></g></g></svg>