<?xml version="1.0" ?><!DOCTYPE svg  PUBLIC '-//W3C//DTD SVG 1.1//EN'  'http://www.w3.org/Graphics/SVG/1.1/DTD/svg11.dtd'><svg enable-background="new 0 0 64 64" height="64px" id="Layer_1" version="1.1" viewBox="0 0 64 64" width="64px" xml:space="preserve" xmlns="http://www.w3.org/2000/svg" xmlns:xlink="http://www.w3.org/1999/xlink"><g><g><g><g><path clip-rule="evenodd" d="M30.2,26.2h3.2c0,0,3.2-0.1,3.2,2.8c0,2.2-3.1,2.5-3.1,2.5      h-3.3V26.2L30.2,26.2z M57.7,27h1.9v4.5h1.6V27H63v-0.9h-5.3V27L57.7,27z M57,27.3l0.2-0.9c0,0-0.8-0.4-2.2-0.4      c-1.4,0-3.6,0.8-3.6,2.9c0,2.1,2.3,2.8,3.8,2.8s1.9-0.2,1.9-0.2l-0.2-1c0,0-0.6,0.2-1.7,0.2c-1.1,0-2.2-0.9-2.2-1.8      c0-0.8,1-1.8,2.3-1.8C56.3,27,57,27.3,57,27.3L57,27.3z M42.8,26.1c0,0,2.6-0.1,2.6,1.4c0,1.3-1.5,1.4-1.5,1.4s0.4,0.1,0.6,0.4      c0.2,0.3,1.2,2.2,1.2,2.2h-1.6c0,0-0.3-0.3-0.4-0.5c-0.1-0.2-0.4-0.7-0.4-0.7s-0.2-0.8-1-0.8c0,0-0.3,0-0.6,0v2.1h-1.5v-5.4      H42.8L42.8,26.1z M41.8,28.6h0.8c0,0,1.2-0.1,1.2-0.8c0-0.7-1.1-0.8-1.1-0.8h-0.9V28.6L41.8,28.6z M48.3,29.4h2.6v-1h-2.6v-1.2      h2.8v-1h-4.4v5.4h4.4v-1h-2.8V29.4L48.3,29.4z M37.4,31.5h1.5v-5.4h-1.5V31.5L37.4,31.5z M31.7,30.5h1c0,0,2.1-0.2,2.1-1.8      c0-1.7-2.2-1.8-2.2-1.8h-0.9V30.5L31.7,30.5z" fill="#686969" fill-rule="evenodd"/></g></g><g><g><path clip-rule="evenodd" d="M15.7,29.4v10.8c0,0-6.2-1.1-6.2-5.4      C9.5,31.3,14.1,29.8,15.7,29.4L15.7,29.4z M15.7,29.2C12,28.9,3.5,30.7,3.5,34.5c0,2.5,4.5,6.2,11.8,6.3c0.3,0,8.6-0.3,8.5-9.3      c-0.1-7.5-5.7-8.8-7.5-9.1V22c7.2,0.5,12.8,4.8,12.8,10c0,5.5-6.3,10-14.1,10C7.3,42,1,37.5,1,32c0-5.5,6.3-10,14-10      c0.2,0,0.5,0,0.7,0V29.2L15.7,29.2z" fill="#878787" fill-rule="evenodd"/></g></g><g><g><path clip-rule="evenodd" d="M15.7,29.4L15.7,29.4v10.8c0,0-6.2-1.1-6.2-5.4 M15,22      c0.2,0,0.5,0,0.7,0v7.2l0,0C12,28.9,3.5,30.7,3.5,34.5c0,2.5,4.5,6.2,11.8,6.3c0.3,0,8.6-0.3,8.5-9.3c-0.1-7.5-5.7-8.8-7.5-9.1      V22c7.2,0.5,12.8,4.8,12.8,10c0,5.5-6.3,10-14.1,10C7.3,42,1,37.5,1,32" fill="#686969" fill-rule="evenodd"/></g></g><g><g><path clip-rule="evenodd" d="M15.7,36.4v-7.1v10.8c0,0-6.2-1.1-6.2-5.4 M15,22" fill="#4D5151" fill-rule="evenodd"/></g></g></g><g><path d="M26.2,26c0.1,0.6,0.2,1.3,0.2,1.9c0,7-5.5,12.8-12.8,14.1c0.5,0,1,0.1,1.4,0.1c7.8,0,14.1-4.5,14.1-10    C29.1,29.7,28,27.6,26.2,26z" fill="#4D5151"/></g><g><g><path clip-rule="evenodd" d="M39.8,36.6c0.9,0,3.9,0,3.9,0c0-1.8-0.8-2.5-2.6-2.5     c-1,0-2.8,0.5-2.8,2.2c0,2,2.2,2.2,2.9,2.2c0.7,0,2.2-0.4,2.2-0.4v-1c0,0-0.8,0.5-2.1,0.5C40.2,37.5,39.9,37,39.8,36.6z      M41.1,34.8c1.2,0,1.2,0.9,1.2,0.9h-2.5C39.9,35.3,40.2,34.8,41.1,34.8z" fill="#4D5151" fill-rule="evenodd"/></g><g><path clip-rule="evenodd" d="M49.6,34.1c-1,0-1.6,0.3-2,0.7v-2.3H46v5.8h1.6v-0.5     c0.3,0.4,0.9,0.7,1.7,0.7c2.3,0,2.5-1.7,2.5-2.2C51.9,35.7,51.6,34.1,49.6,34.1z M48.9,37.4c-1,0-1.3-0.6-1.3-1v-0.4     c0.1-0.3,0.4-1,1.3-1c1.2,0,1.4,0.8,1.4,1.2S49.9,37.4,48.9,37.4z" fill="#4D5151" fill-rule="evenodd"/></g><g><path clip-rule="evenodd" d="M62.6,37.3l0,0.9c0,0-0.7,0.2-1.2,0.2s-1.7-0.3-1.7-1.5     c0-0.5,0-1.2,0-1.9h-1.3v-0.8h1.3c0-0.6,0-1,0-1h1.6v1h1.3V35h-1.3v1.6c0,0,0,0.8,0.6,0.8S62.6,37.3,62.6,37.3L62.6,37.3z" fill="#4D5151" fill-rule="evenodd"/></g><g><polygon clip-rule="evenodd" fill="#4D5151" fill-rule="evenodd" points="54.5,33.5 56.1,33.5 56.1,32.4 54.5,32.4 54.5,33.5         "/></g><g><polygon clip-rule="evenodd" fill="#4D5151" fill-rule="evenodd" points="54.5,38.2 56.1,38.2 56.1,34.1 54.5,34.1 54.5,38.2         "/></g><g><path clip-rule="evenodd" d="M33.4,32.9h-3.2v5.3h3.3c0,0,3.1-0.3,3.1-2.5     C36.6,32.8,33.4,32.9,33.4,32.9z M32.8,37.2h-1v-3.6h0.9c0,0,2.2,0.2,2.2,1.8C34.9,37,32.8,37.2,32.8,37.2z" fill="#4D5151" fill-rule="evenodd"/></g></g></g></svg>