<?xml version="1.0" ?><!DOCTYPE svg  PUBLIC '-//W3C//DTD SVG 1.1//EN'  'http://www.w3.org/Graphics/SVG/1.1/DTD/svg11.dtd'><svg enable-background="new 0 0 64 64" height="64px" id="Layer_1" version="1.1" viewBox="0 0 64 64" width="64px" xml:space="preserve" xmlns="http://www.w3.org/2000/svg" xmlns:xlink="http://www.w3.org/1999/xlink"><g><g><g><g><path d="M45.2,28.2c-0.4-0.4-1-0.7-1.8-0.7c-0.5,0-0.9,0.1-1.3,0.3c-0.1,0-0.1,0.1-0.2,0.1      c-0.3,0.2-0.7,0.5-1,0.8l0.1-0.9h-2.1c-0.1,0.5-0.2,1.3-0.4,2.4l-1.8,8.2H39l0.9-4.1c0.2,0.4,0.5,0.8,0.9,1      c0.3,0.2,0.7,0.3,1.1,0.3c0.1,0,0.2,0,0.3,0c1.2,0,2.2-0.5,2.9-1.6c0.7-1,1-2.4,0.9-3.9C45.9,29.2,45.7,28.6,45.2,28.2z       M43.6,31.5c-0.1,0.5-0.3,1-0.5,1.4c-0.2,0.4-0.4,0.7-0.7,0.9c-0.1,0.1-0.3,0.2-0.5,0.2c-0.1,0-0.2,0.1-0.3,0.1      c-0.4,0-0.7-0.1-0.9-0.4c-0.3-0.3-0.4-0.6-0.4-1.1c-0.1-0.9,0.1-1.8,0.5-2.6c0.3-0.5,0.7-0.9,1.2-1.1c0.2,0,0.3-0.1,0.5-0.1      c0.4,0,0.7,0.1,0.9,0.3c0.2,0.2,0.3,0.5,0.4,0.9C43.7,30.6,43.7,31,43.6,31.5z" fill="#298AD3"/></g><g><path d="M38.5,30.1l-1.8,8.2H39l0.9-4.1c0.2,0.4,0.5,0.8,0.9,1c0.3,0.2,0.7,0.3,1.1,0.3c0.1,0,0.2,0,0.3,0      c1.2,0,2.2-0.5,2.9-1.6c0.7-1,1-2.4,0.9-3.9c-0.1-0.8-0.3-1.4-0.7-1.9c-0.4-0.4-1-0.7-1.8-0.7c-0.5,0-0.9,0.1-1.3,0.3      c-0.1,0-0.1,0.1-0.2,0.1c-0.3,0.2-0.7,0.5-1,0.8l0.1-0.9 M43.6,31.5c-0.1,0.5-0.3,1-0.5,1.4c-0.2,0.4-0.4,0.7-0.7,0.9      c-0.1,0.1-0.3,0.2-0.5,0.2c-0.1,0-0.2,0.1-0.3,0.1c-0.4,0-0.7-0.1-0.9-0.4c-0.3-0.3-0.4-0.6-0.4-1.1c-0.1-0.9,0.1-1.8,0.5-2.6      c0.3-0.5,0.7-0.9,1.2-1.1c0.2,0,0.3-0.1,0.5-0.1c0.4,0,0.7,0.1,0.9,0.3c0.2,0.2,0.3,0.5,0.4,0.9C43.7,30.6,43.7,31,43.6,31.5z" fill="#0356A2"/></g><g><path d="M53,28.1c-0.5-0.3-1.3-0.5-2.3-0.5c-0.3,0-0.6,0-0.9,0.1c-0.6,0.1-1.1,0.3-1.5,0.5      c-0.6,0.4-0.9,0.9-1,1.6h2.2c0.1-0.2,0.1-0.4,0.2-0.6c0-0.1,0.1-0.1,0.1-0.2c0.2-0.1,0.4-0.2,0.8-0.2c0.3,0,0.5,0.1,0.7,0.2      c0.2,0.1,0.3,0.3,0.3,0.5c0,0.1,0,0.2,0,0.4c0,0.2-0.1,0.4-0.1,0.7c-0.1,0-0.2,0-0.3,0c-0.1,0-0.2,0-0.4,0c-0.4,0-0.7,0-1.1,0      c-1.1,0.1-2,0.3-2.6,0.7c-0.8,0.5-1.2,1.2-1.1,2.2c0.1,0.6,0.3,1.1,0.7,1.5c0.4,0.4,1,0.6,1.6,0.6c0.5,0,0.9-0.1,1.2-0.3l0.1,0      c0.3-0.2,0.7-0.5,1-0.9c0,0.2,0,0.4,0,0.6s0,0.4,0,0.5H53c0-0.3,0-0.7,0-1c0.1-0.3,0.1-0.7,0.2-1l0.6-2.6      c0.1-0.3,0.1-0.5,0.1-0.7c0-0.2,0-0.4,0-0.6C53.8,28.9,53.6,28.5,53,28.1z M50.5,33.5c-0.2,0.3-0.5,0.4-0.7,0.5      c-0.2,0.1-0.4,0.1-0.6,0.1c-0.3,0-0.5-0.1-0.6-0.2c-0.2-0.1-0.3-0.3-0.3-0.6c-0.1-0.5,0.1-0.9,0.6-1.2c0.2-0.2,0.5-0.3,0.8-0.4      c0.3-0.1,0.6-0.1,1-0.1c0.1,0,0.2,0,0.3,0c0.1,0,0.1,0,0.2,0C51.2,32.5,50.9,33.1,50.5,33.5z" fill="#298AD3"/></g><g><path d="M47.4,29.8h2.2c0.1-0.2,0.1-0.4,0.2-0.6c0-0.1,0.1-0.1,0.1-0.2c0.2-0.1,0.4-0.2,0.8-0.2      c0.3,0,0.5,0.1,0.7,0.2c0.2,0.1,0.3,0.3,0.3,0.5c0,0.1,0,0.2,0,0.4c0,0.2-0.1,0.4-0.1,0.7c-0.1,0-0.2,0-0.3,0      c-0.1,0-0.2,0-0.4,0c-0.4,0-0.7,0-1.1,0c-1.1,0.1-2,0.3-2.6,0.7c-0.8,0.5-1.2,1.2-1.1,2.2c0.1,0.6,0.3,1.1,0.7,1.5      c0.4,0.4,1,0.6,1.6,0.6c0.5,0,0.9-0.1,1.2-0.3l0.1,0c0.3-0.2,0.7-0.5,1-0.9c0,0.2,0,0.4,0,0.6s0,0.4,0,0.5H53c0-0.3,0-0.7,0-1      c0.1-0.3,0.1-0.7,0.2-1l0.6-2.6c0.1-0.3,0.1-0.5,0.1-0.7c0-0.2,0-0.4,0-0.6c-0.1-0.7-0.3-1.1-0.9-1.5c-0.5-0.3-1.3-0.5-2.3-0.5      c-0.3,0-0.6,0-0.9,0.1 M50.5,33.5c-0.2,0.3-0.5,0.4-0.7,0.5c-0.2,0.1-0.4,0.1-0.6,0.1c-0.3,0-0.5-0.1-0.6-0.2      c-0.2-0.1-0.3-0.3-0.3-0.6c-0.1-0.5,0.1-0.9,0.6-1.2c0.2-0.2,0.5-0.3,0.8-0.4c0.3-0.1,0.6-0.1,1-0.1c0.1,0,0.2,0,0.3,0      c0.1,0,0.1,0,0.2,0C51.2,32.5,50.9,33.1,50.5,33.5z" fill="#0356A2"/></g><g><polygon fill="#298AD3" points="60.8,27.7 57.8,33 57.1,27.7 54.8,27.7 56.2,35.5 54.3,38.3 56.8,38.3 58.2,35.8 63,27.7           "/></g><g><polyline fill="#0356A2" points="56.2,35.5 54.3,38.3 56.8,38.3 58.2,35.8 63,27.7 60.8,27.7 57.8,33 57.1,27.7     "/></g></g><g><g><path d="M8.9,28.3c-0.5-0.5-1.1-0.7-1.8-0.7c-0.4,0-0.8,0.1-1.1,0.2c-0.1,0-0.2,0.1-0.3,0.1      c-0.4,0.2-0.9,0.5-1.3,1l0.1-1.2H3.2c0,0.3-0.1,0.7-0.1,1c-0.1,0.3-0.1,0.7-0.2,1l-2,8.6h1.5l0.9-3.9c0.3,0.4,0.6,0.7,1,0.9      c0.4,0.2,0.8,0.3,1.4,0.3c0.1,0,0.2,0,0.3,0c0.6-0.1,1.1-0.2,1.5-0.5c0.6-0.3,1-0.8,1.4-1.4c0.3-0.5,0.5-1,0.7-1.7      c0.2-0.7,0.2-1.3,0.2-1.8C9.7,29.4,9.4,28.8,8.9,28.3z M8.1,31.7c-0.1,0.5-0.3,1-0.6,1.5c-0.3,0.5-0.6,0.8-0.9,1      c-0.2,0.1-0.4,0.2-0.6,0.2c-0.2,0.1-0.4,0.1-0.7,0.1c-0.5,0-0.8-0.1-1.1-0.4c-0.3-0.3-0.5-0.6-0.5-1.1c0-0.4,0-0.9,0.1-1.5      C4.1,31,4.3,30.4,4.5,30c0.2-0.5,0.5-0.8,0.9-1.1c0.2-0.1,0.4-0.2,0.6-0.3c0.2-0.1,0.4-0.1,0.6-0.1c0.5,0,0.9,0.1,1.2,0.5      c0.3,0.3,0.5,0.7,0.5,1.2C8.3,30.7,8.3,31.2,8.1,31.7z" fill="#298AD3"/></g><g><path d="M16.5,28.2c-0.5-0.4-1.2-0.7-2.2-0.7c-0.3,0-0.5,0-0.7,0c-0.5,0.1-0.9,0.2-1.3,0.3      c-0.6,0.3-1,0.6-1.4,1.1c-0.4,0.5-0.7,1.2-0.9,1.9c-0.2,0.7-0.3,1.4-0.2,2.1c0.1,0.8,0.4,1.5,0.9,1.9c0.5,0.5,1.3,0.7,2.2,0.7      c0.2,0,0.5,0,0.7,0c0.6-0.1,1-0.2,1.4-0.4c0.6-0.3,1-0.7,1.4-1.3c0.3-0.5,0.6-1.1,0.8-1.8c0.2-0.7,0.3-1.4,0.2-2      C17.4,29.3,17.1,28.7,16.5,28.2z M15.8,31.8c-0.1,0.6-0.3,1.1-0.6,1.6c-0.3,0.4-0.5,0.7-0.9,0.9c-0.2,0.1-0.4,0.2-0.6,0.3      c-0.2,0-0.3,0.1-0.5,0.1c-0.5,0-0.9-0.1-1.2-0.4c-0.3-0.3-0.5-0.7-0.5-1.2c0-0.5,0-1,0.1-1.6c0.1-0.6,0.3-1.1,0.6-1.6      c0.3-0.5,0.6-0.8,0.9-1c0.2-0.1,0.4-0.2,0.6-0.3c0.2-0.1,0.4-0.1,0.6-0.1c0.5,0,0.9,0.1,1.2,0.4c0.3,0.3,0.5,0.7,0.5,1.3      C16,30.6,15.9,31.1,15.8,31.8z" fill="#298AD3"/></g><g><path d="M23.4,27.9c-0.4-0.3-1.1-0.4-2-0.4c-1,0-1.7,0.2-2.3,0.7c-0.5,0.5-0.8,1-0.7,1.7c0,0.4,0.2,0.8,0.5,1.1      c0.3,0.3,0.9,0.7,1.7,1c0.6,0.3,1,0.5,1.2,0.7c0.2,0.2,0.3,0.4,0.3,0.6c0,0.4-0.1,0.7-0.5,0.9c-0.3,0.2-0.8,0.3-1.4,0.3      c-0.5,0-0.8-0.1-1-0.2c-0.2-0.1-0.3-0.4-0.4-0.7c0-0.1,0-0.2,0-0.3c0-0.1,0-0.2,0.1-0.4h-1.5c0,0.2-0.1,0.3-0.1,0.5      c0,0.2,0,0.3,0,0.4c0.1,0.6,0.3,1,0.8,1.3c0.5,0.3,1.2,0.5,2,0.5c1.1,0,2-0.3,2.6-0.7c0.7-0.5,1-1.1,0.9-1.8      c0-0.4-0.2-0.8-0.5-1.1c-0.3-0.3-0.9-0.7-1.8-1.1c-0.7-0.3-1.1-0.5-1.2-0.7C20.1,30,20,29.8,20,29.6c0-0.3,0.1-0.6,0.4-0.8      c0.3-0.2,0.6-0.3,1.1-0.3c0.4,0,0.7,0.1,0.9,0.2c0.2,0.1,0.3,0.4,0.4,0.7c0,0.1,0,0.1,0,0.2c0,0.1,0,0.1,0,0.2h1.4      c0-0.2,0-0.3,0-0.4c0-0.1,0-0.2,0-0.3C24.1,28.6,23.9,28.2,23.4,27.9z" fill="#298AD3"/></g><g><path d="M27.7,34.5c-0.3,0-0.6-0.1-0.7-0.2c-0.1-0.1-0.2-0.2-0.2-0.5c0-0.1,0-0.2,0-0.4c0-0.1,0.1-0.4,0.1-0.7      l0.9-4h1.7l0.2-1H28l0.5-2.1L27,26l-0.4,1.8h-1.4l-0.3,1h1.4l-0.9,3.9c-0.1,0.4-0.1,0.7-0.2,1c0,0.3-0.1,0.6,0,0.7      c0,0.4,0.2,0.7,0.5,0.9c0.3,0.2,0.7,0.3,1.2,0.3c0.2,0,0.4,0,0.7,0c0.2,0,0.5-0.1,0.8-0.1l0.3-1.1c-0.1,0-0.3,0.1-0.5,0.1      C28,34.5,27.8,34.5,27.7,34.5z" fill="#298AD3"/></g><g><path d="M35.9,28.1c-0.5-0.4-1.3-0.6-2.3-0.6c-0.1,0-0.2,0-0.3,0c-0.6,0.1-1.1,0.2-1.6,0.4      c-0.5,0.3-1,0.7-1.3,1.2c-0.3,0.5-0.6,1.2-0.8,1.9c-0.2,0.8-0.3,1.4-0.2,2c0.1,0.8,0.4,1.4,0.9,1.8c0.5,0.4,1.2,0.7,2.2,0.7      c0.3,0,0.6,0,0.8-0.1c0.6-0.1,1.2-0.3,1.6-0.6c0.7-0.4,1.1-1,1.3-1.8h-1.7c-0.1,0.4-0.4,0.8-0.7,1c-0.1,0.1-0.3,0.2-0.5,0.2      c-0.2,0.1-0.4,0.1-0.7,0.1c-0.5,0-0.9-0.1-1.2-0.4c-0.3-0.3-0.5-0.6-0.5-1.1c0-0.2,0-0.4,0-0.6c0-0.2,0.1-0.4,0.1-0.7h2.2h3.3      c0.1-0.3,0.1-0.7,0.1-1c0-0.3,0-0.6,0-0.9C36.7,29,36.4,28.5,35.9,28.1z M35.3,30.1c0,0.1,0,0.3-0.1,0.6h-1.9h-2      c0.1-0.8,0.4-1.3,0.8-1.7c0.3-0.3,0.7-0.5,1.2-0.6c0.1,0,0.2,0,0.3,0c0.5,0,0.9,0.1,1.2,0.4c0.3,0.2,0.5,0.5,0.5,1      C35.3,29.9,35.3,30,35.3,30.1z" fill="#298AD3"/></g></g></g></g></svg>