<?xml version="1.0" ?><svg viewBox="0 0 128 128" xmlns="http://www.w3.org/2000/svg"><defs><style>.cls-1{fill:#c3edf5;}.cls-2{fill:#87dbec;}.cls-3{fill:#4d91bb;}.cls-4{fill:#7ad0cb;}.cls-5{fill:#2175aa;}</style></defs><title/><g data-name="16 SEO Awards" id="_16_SEO_Awards"><path class="cls-1" d="M72,109.4H56V86.55H72ZM113.5,49V32.19h-24v9h15V49A10.51,10.51,0,0,1,94,59.5H89.5v9H94A19.52,19.52,0,0,0,113.5,49Zm-75,10.5H34A10.51,10.51,0,0,1,23.5,49V41.19h15v-9h-24V49A19.52,19.52,0,0,0,34,68.5h4.5Z"/><path class="cls-2" d="M96,59.3a10.5,10.5,0,0,1-2,.2H89.5v9H94c.57,0,1.13,0,1.69-.09A32.09,32.09,0,0,0,96,64Z"/><path class="cls-2" d="M56,95a32.11,32.11,0,0,0,16,0V86.55H56Z"/><path class="cls-2" d="M38.5,68.5v-9H34a10.5,10.5,0,0,1-2-.2V64a32.09,32.09,0,0,0,.31,4.41c.56,0,1.12.09,1.69.09Z"/><rect class="cls-2" height="9" width="6.5" x="32" y="32.19"/><rect class="cls-2" height="9" width="6.5" x="89.5" y="32.19"/><path class="cls-3" d="M94,64a30,30,0,0,1-60,0V23.5H94Z"/><rect class="cls-1" height="9" width="72" x="28" y="16"/><rect class="cls-1" height="9" width="48" x="40" y="103"/><polygon class="cls-4" points="64 62.82 53.02 68.59 55.12 56.37 46.24 47.71 58.51 45.93 64 34.81 69.49 45.93 81.76 47.71 72.88 56.37 74.98 68.59 64 62.82"/><polygon class="cls-5" points="34 25 94 28 94 25 34 25"/><polygon class="cls-2" points="56 103 72 101.58 72 103 56 103"/></g></svg>