<?xml version="1.0" ?><svg viewBox="0 0 128 128" xmlns="http://www.w3.org/2000/svg"><defs><style>.cls-1{fill:#c3edf5;}.cls-2{fill:#87dbec;}.cls-3{fill:#4d91bb;}.cls-4{fill:#2175aa;}</style></defs><title/><g data-name="29 Viral Marketing" id="_29_Viral_Marketing"><polygon class="cls-1" points="46.47 80.2 25.15 80.2 35.51 109 56.83 109 46.47 80.2"/><polygon class="cls-2" points="40 82 50.38 91.07 47.12 82 40 82"/><rect class="cls-3" height="36" width="27.91" x="16" y="46"/><polygon class="cls-3" points="40 46 97 19 97 109 40 82 40 46"/><rect class="cls-1" height="90" width="12" x="88" y="19"/><polygon class="cls-1" points="100 52 100 76 112 72 112 56 100 52"/><polygon class="cls-4" points="88 23.26 84.83 103.23 88 104.74 88 104.74 88 23.26 88 23.26"/><polygon class="cls-2" points="100 52 100 76 102.63 75.12 100 52"/></g></svg>