<?xml version="1.0" ?><svg viewBox="0 0 128 128" xmlns="http://www.w3.org/2000/svg"><defs><style>.cls-1{fill:#c3edf5;}.cls-2{fill:#87dbec;}.cls-3{fill:#4d91bb;}.cls-4{fill:#4dbab4;}.cls-5{fill:#1fa49c;}</style></defs><title/><g data-name="27 Campaign Tweak" id="_27_Campaign_Tweak"><rect class="cls-1" height="90" width="9" x="92.5" y="19"/><path class="cls-2" d="M92.5,68.62a16.54,16.54,0,0,1,9,0v32.75a16.54,16.54,0,0,1-9,0Z"/><circle class="cls-3" cx="97" cy="85" r="15"/><circle class="cls-4" cx="97" cy="85" r="7.5"/><path class="cls-5" d="M90.92,85a7.5,7.5,0,0,0,6.79,7.46c-.23,0-.47,0-.71,0a7.5,7.5,0,0,1,0-15c.24,0,.48,0,.71,0A7.5,7.5,0,0,0,90.92,85Z"/><rect class="cls-1" height="90" width="9" x="26.5" y="19"/><path class="cls-2" d="M26.5,68.62a16.54,16.54,0,0,1,9,0v32.75a16.54,16.54,0,0,1-9,0Z"/><circle class="cls-3" cx="31" cy="85" r="15"/><circle class="cls-4" cx="31" cy="85" r="7.5"/><path class="cls-5" d="M24.92,85a7.5,7.5,0,0,0,6.79,7.46c-.23,0-.47,0-.71,0a7.5,7.5,0,0,1,0-15c.24,0,.48,0,.71,0A7.5,7.5,0,0,0,24.92,85Z"/><rect class="cls-1" height="90" width="9" x="59.5" y="19"/><path class="cls-2" d="M59.5,59.38a16.54,16.54,0,0,0,9,0V26.62a16.54,16.54,0,0,0-9,0Z"/><circle class="cls-3" cx="64" cy="43" r="15"/><circle class="cls-4" cx="64" cy="43" r="7.5"/><path class="cls-5" d="M57.92,43a7.5,7.5,0,0,1,6.79-7.46c-.23,0-.47,0-.71,0a7.5,7.5,0,0,0,0,15c.24,0,.48,0,.71,0A7.5,7.5,0,0,1,57.92,43Z"/></g></svg>