<?xml version="1.0" ?><svg viewBox="0 0 128 128" xmlns="http://www.w3.org/2000/svg"><defs><style>.cls-1{fill:#7ad0cb;}.cls-2{fill:#c3edf5;}.cls-3{fill:#4dbab4;}.cls-4{fill:#87dbec;}.cls-5{fill:#4d91bb;}</style></defs><title/><g data-name="38 Target Audience" id="_38_Target_Audience"><path class="cls-1" d="M102.2,39.2A11.2,11.2,0,1,1,91,28,11.2,11.2,0,0,1,102.2,39.2ZM109,71.6a18,18,0,0,0-18-18h0a18,18,0,0,0-18,18V92h36Z"/><path class="cls-2" d="M48.2,39.2A11.2,11.2,0,1,1,37,28,11.2,11.2,0,0,1,48.2,39.2ZM55,71.6a18,18,0,0,0-18-18h0a18,18,0,0,0-18,18V92H55Z"/><path class="cls-3" d="M88.36,76.64a22.47,22.47,0,0,0-9.47-18.33A17.93,17.93,0,0,0,73,71.6V92H88.36Z"/><path class="cls-4" d="M39.64,76.64a22.47,22.47,0,0,1,9.47-18.33A17.93,17.93,0,0,1,55,71.6V92H39.64Z"/><path class="cls-5" d="M78,38A14,14,0,1,1,64,24,14,14,0,0,1,78,38Zm8.5,40.5A22.5,22.5,0,0,0,64,56h0A22.5,22.5,0,0,0,41.5,78.5V104h45Z"/></g></svg>