<?xml version="1.0" ?><svg id="Layer_1" style="enable-background:new 0 0 512 512;" version="1.1" viewBox="0 0 512 512" xml:space="preserve" xmlns="http://www.w3.org/2000/svg" xmlns:xlink="http://www.w3.org/1999/xlink"><style type="text/css">
	.st0{fill:#BB0D48;}
	.st1{fill:#152D39;}
	.st2{fill:#9E1248;}
	.st3{fill:#DD7547;}
	.st4{fill:#FB8A52;}
	.st5{fill:#1C353F;}
	.st6{fill:#328C9B;}
	.st7{fill:#5CB8CD;}
	.st8{fill:#FFFFFF;}
</style><g><g><path class="st0" d="M236,247.7L73.4,85.1C33.3,127.9,8,184.9,6,247.7H236z" id="XMLID_8_"/><path class="st1" d="M264.3,6v230L426.9,73.4C384.1,33.3,327.1,8,264.3,6z" id="XMLID_7_"/><path class="st2" d="M247.7,236V6C184.9,8,127.9,33.3,85.1,73.4L247.7,236z" id="XMLID_6_"/><path class="st3" d="M236,264.3H6c2,62.8,27.3,119.8,67.4,162.6L236,264.3z" id="XMLID_5_"/><path class="st4" d="M247.7,276L85.1,438.6c42.8,40.1,99.8,65.3,162.6,67.4V276z" id="XMLID_4_"/><path class="st5" d="M276,247.7h230c-2-62.8-27.3-119.8-67.4-162.6L276,247.7z" id="XMLID_3_"/><path class="st6" d="M264.3,276v230c62.8-2,119.8-27.3,162.6-67.4L264.3,276z" id="XMLID_2_"/><path class="st7" d="M276,264.3l162.6,162.6c40.1-42.8,65.3-99.8,67.4-162.6H276z" id="XMLID_1_"/></g><g><g id="XMLID_57_"><path class="st8" d="M320.3,122.6h-5.9V98.2h-6.1v-4.5l12-1.1V122.6z" id="XMLID_58_"/></g><g id="XMLID_54_"><path class="st8" d="M415.9,212.6h-19.8v-3.9l9.2-10.4c1.4-1.6,2.3-3,2.9-4.1c0.6-1.1,0.9-2.1,0.9-3.1     c0-1.2-0.3-2.2-0.9-2.9c-0.6-0.7-1.5-1.1-2.7-1.1c-1.3,0-2.3,0.5-3,1.4c-0.7,0.9-1.1,2.1-1.1,3.6h-5.8l0-0.1     c-0.1-2.6,0.8-4.9,2.6-6.7c1.8-1.8,4.2-2.7,7.3-2.7c3,0,5.4,0.8,7.1,2.3c1.7,1.6,2.5,3.6,2.5,6.2c0,1.8-0.5,3.4-1.4,4.9     c-0.9,1.5-2.6,3.5-4.9,6.1l-4.9,5.8l0,0.1h12.1V212.6z" id="XMLID_55_"/></g><g id="XMLID_51_"><path class="st8" d="M403.1,312.7c1.4,0,2.4-0.4,3.1-1.1c0.7-0.7,1-1.7,1-3c0-1.1-0.4-2-1.1-2.7     c-0.7-0.7-1.7-1.1-3-1.1c-1.1,0-2,0.3-2.7,1c-0.7,0.7-1.1,1.5-1.1,2.5h-5.6l0-0.1c-0.1-2.3,0.8-4.2,2.6-5.6     c1.8-1.5,4.1-2.2,6.8-2.2c3,0,5.4,0.7,7.2,2.1c1.8,1.4,2.7,3.5,2.7,6.1c0,1.3-0.4,2.6-1.2,3.7c-0.8,1.1-1.8,2-3.2,2.6     c1.5,0.6,2.7,1.4,3.5,2.6c0.8,1.2,1.2,2.6,1.2,4.2c0,2.7-1,4.8-2.9,6.3c-1.9,1.5-4.4,2.3-7.4,2.3c-2.7,0-5-0.7-7-2.2     c-2-1.4-3-3.5-2.9-6.1l0-0.1h5.7c0,1.1,0.4,2,1.2,2.8c0.8,0.7,1.8,1.1,3,1.1c1.3,0,2.4-0.4,3.2-1.2c0.8-0.8,1.2-1.8,1.2-3     c0-1.5-0.4-2.7-1.2-3.4c-0.8-0.7-1.9-1.1-3.4-1.1h-3.2v-4.4H403.1z" id="XMLID_52_"/></g><g id="XMLID_47_"><path class="st8" d="M321.8,404.4h3.4v4.7h-3.4v6.5h-6v-6.5h-12.2l-0.3-3.6l12.4-19.9h6.1V404.4z M308.8,404.4h7     v-10.9l-0.1,0l-0.6,1.3L308.8,404.4z" id="XMLID_48_"/></g><g id="XMLID_44_"><path class="st8" d="M190.5,405.9l1.7-16.5h16.5v4.8H197l-0.8,6.9c0.6-0.4,1.3-0.7,2.1-1c0.8-0.3,1.8-0.4,2.7-0.4     c2.7,0,4.9,0.8,6.4,2.5c1.5,1.7,2.3,4.2,2.3,7.3c0,2.9-0.8,5.3-2.5,7.1c-1.6,1.9-4.1,2.8-7.5,2.8c-2.7,0-5.1-0.7-7-2.2     c-1.9-1.4-2.9-3.4-2.8-5.9l0-0.1l5.7-0.3c0,1.2,0.4,2.2,1.1,2.9c0.7,0.7,1.7,1,2.9,1c1.4,0,2.4-0.5,3.1-1.4c0.6-0.9,1-2.2,1-3.9     c0-1.7-0.4-3.1-1.1-4.1c-0.7-1-1.7-1.5-3.1-1.5c-1.1,0-2,0.2-2.6,0.6c-0.6,0.4-1,1-1.3,1.7L190.5,405.9z" id="XMLID_45_"/></g><g id="XMLID_40_"><path class="st8" d="M107.6,301.8c1.1,0,2.2,0.1,3.2,0.3c1,0.2,1.9,0.5,2.9,0.9l-1,4.3c-0.9-0.3-1.7-0.5-2.4-0.7     c-0.7-0.2-1.6-0.2-2.5-0.2c-1.7,0-3.1,0.7-4.1,2c-1,1.3-1.6,3.1-1.6,5.5v0.9c0.8-0.8,1.7-1.4,2.8-1.8c1.1-0.4,2.3-0.6,3.6-0.6     c2.5,0,4.4,0.9,5.8,2.7c1.4,1.8,2.1,4.1,2.1,6.9c0,2.9-0.9,5.3-2.7,7.1c-1.8,1.8-4.2,2.7-7.1,2.7c-3,0-5.5-1-7.4-3.1     c-1.9-2.1-2.9-4.9-2.9-8.6v-6.1c0-3.7,1.1-6.7,3.3-8.9C101.5,303,104.3,301.8,107.6,301.8z M106.3,316.8c-1.1,0-2,0.2-2.7,0.5     c-0.7,0.3-1.3,0.8-1.7,1.4v1.6c0,2.2,0.4,4,1.2,5.2c0.8,1.2,1.9,1.8,3.3,1.8c1.2,0,2.2-0.5,2.9-1.5c0.7-1,1.1-2.3,1.1-3.9     c0-1.6-0.4-2.9-1.1-3.8C108.6,317.3,107.6,316.8,106.3,316.8z" id="XMLID_41_"/></g><g id="XMLID_37_"><path class="st8" d="M121.4,189.1c-3.4,4-5.7,7.5-6.9,10.7c-1.2,3.2-1.8,6.8-1.8,10.9v3.7h-6v-3.7     c0-4.2,0.8-8,2.3-11.4c1.5-3.4,3.8-6.9,6.7-10.2h-15.3v-4.6h21.1V189.1z" id="XMLID_38_"/></g><g id="XMLID_32_"><path class="st8" d="M207.8,102.3c0,1.4-0.4,2.7-1.1,3.8c-0.7,1.1-1.8,2-3.1,2.6c1.6,0.7,2.9,1.6,3.8,2.8     c0.9,1.2,1.4,2.6,1.4,4.2c0,2.7-0.9,4.8-2.8,6.3c-1.9,1.5-4.3,2.3-7.2,2.3c-3.1,0-5.6-0.8-7.5-2.3c-2-1.5-2.9-3.6-2.9-6.3     c0-1.6,0.5-3,1.5-4.2c1-1.2,2.3-2.2,3.9-2.8c-1.4-0.6-2.5-1.5-3.2-2.6c-0.8-1.1-1.2-2.4-1.2-3.8c0-2.6,0.9-4.5,2.6-5.9     c1.7-1.4,4-2.1,6.8-2.1c2.7,0,4.9,0.7,6.5,2.1C206.9,97.8,207.8,99.7,207.8,102.3z M202.9,115.5c0-1.3-0.4-2.4-1.2-3.2     c-0.8-0.8-1.8-1.3-3-1.3c-1.3,0-2.4,0.4-3.3,1.3c-0.9,0.8-1.3,1.9-1.3,3.2c0,1.3,0.4,2.4,1.3,3.2c0.9,0.8,2,1.2,3.3,1.2     c1.2,0,2.2-0.4,3-1.2C202.5,117.9,202.9,116.8,202.9,115.5z M201.9,102.6c0-1.1-0.3-2.1-0.9-2.7c-0.6-0.7-1.4-1-2.3-1     c-1.1,0-2,0.3-2.6,1c-0.7,0.7-1,1.6-1,2.8c0,1.2,0.3,2.1,1,2.9c0.7,0.7,1.5,1.1,2.6,1.1c1,0,1.7-0.4,2.3-1.1     C201.6,104.7,201.9,103.8,201.9,102.6z" id="XMLID_33_"/></g></g></g></svg>