<?xml version="1.0" ?><svg id="Layer_1" style="enable-background:new 0 0 512 512;" version="1.1" viewBox="0 0 512 512" xml:space="preserve" xmlns="http://www.w3.org/2000/svg" xmlns:xlink="http://www.w3.org/1999/xlink"><style type="text/css">
	.st0{fill:#E8E8E8;}
	.st1{fill:#5CB8CD;}
	.st2{fill:#FB8A52;}
	.st3{fill:#BB0D48;}
	.st4{fill:#152D39;}
	.st5{fill:#FFFFFF;}
</style><g><g><polygon class="st0" id="XMLID_6_" points="412.3,323.5 345.4,185.6 170.9,185.6 158.7,210.8   "/><polygon class="st1" id="XMLID_5_" points="176.2,174.8 340.1,174.8 325.1,143.8 222.2,80   "/><polygon class="st2" id="XMLID_4_" points="409.9,334.2 153.9,220.5 98.7,334.2   "/><polygon class="st3" id="XMLID_3_" points="422.8,345 93.5,345 85.2,362 496.7,497.2   "/><polygon class="st4" id="XMLID_2_" points="316.3,125.7 258.1,6 226.9,70.2   "/><polygon class="st4" id="XMLID_1_" points="80.4,371.8 15.3,506 488.9,506   "/></g><g id="XMLID_213_"><path class="st5" d="M269.4,76h-5.9V51.6h-6.1v-4.5l12-1.1V76z" id="XMLID_214_"/></g><g id="XMLID_216_"><path class="st5" d="M243.7,147.6h-19.8v-3.9l9.2-10.4c1.4-1.6,2.3-3,2.9-4.1c0.6-1.1,0.9-2.1,0.9-3.1    c0-1.2-0.3-2.2-0.9-2.9c-0.6-0.7-1.5-1.1-2.7-1.1c-1.3,0-2.3,0.5-3,1.4c-0.7,0.9-1.1,2.1-1.1,3.6h-5.8l0-0.1    c-0.1-2.6,0.8-4.9,2.6-6.7c1.8-1.8,4.2-2.7,7.3-2.7c3,0,5.4,0.8,7.1,2.3c1.7,1.6,2.5,3.6,2.5,6.2c0,1.8-0.5,3.4-1.4,4.9    c-0.9,1.5-2.6,3.5-4.9,6.1l-4.9,5.8l0,0.1h12.1V147.6z" id="XMLID_217_"/></g><g id="XMLID_219_"><path class="st5" d="M325.3,232.6c1.4,0,2.4-0.4,3.1-1.1c0.7-0.7,1-1.7,1-3c0-1.1-0.4-2-1.1-2.7    c-0.7-0.7-1.7-1.1-3-1.1c-1.1,0-2,0.3-2.7,1c-0.7,0.7-1.1,1.5-1.1,2.5h-5.6l0-0.1c-0.1-2.3,0.8-4.2,2.6-5.6    c1.8-1.5,4.1-2.2,6.8-2.2c3,0,5.4,0.7,7.2,2.1c1.8,1.4,2.7,3.5,2.7,6.1c0,1.3-0.4,2.6-1.2,3.7c-0.8,1.1-1.8,2-3.2,2.6    c1.5,0.6,2.7,1.4,3.5,2.6c0.8,1.2,1.2,2.6,1.2,4.2c0,2.7-1,4.8-2.9,6.3c-1.9,1.5-4.4,2.3-7.4,2.3c-2.7,0-5-0.7-7-2.2    c-2-1.4-3-3.5-2.9-6.1l0-0.1h5.7c0,1.1,0.4,2,1.2,2.8c0.8,0.7,1.8,1.1,3,1.1c1.3,0,2.4-0.4,3.2-1.2c0.8-0.8,1.2-1.8,1.2-3    c0-1.5-0.4-2.7-1.2-3.4c-0.8-0.7-1.9-1.1-3.4-1.1H322v-4.4H325.3z" id="XMLID_220_"/></g><g id="XMLID_222_"><path class="st5" d="M186.6,287.3h3.4v4.7h-3.4v6.5h-6V292h-12.2l-0.3-3.6l12.4-19.9h6.1V287.3z M173.5,287.3h7    v-10.9l-0.1,0l-0.6,1.3L173.5,287.3z" id="XMLID_223_"/></g><g id="XMLID_229_"><path class="st5" d="M133.8,441.6c1.1,0,2.2,0.1,3.2,0.3c1,0.2,1.9,0.5,2.9,0.9l-1,4.3c-0.9-0.3-1.7-0.5-2.4-0.7    c-0.7-0.2-1.6-0.2-2.5-0.2c-1.7,0-3.1,0.7-4.1,2c-1,1.3-1.6,3.1-1.6,5.5v0.9c0.8-0.8,1.7-1.4,2.8-1.8c1.1-0.4,2.3-0.6,3.6-0.6    c2.5,0,4.4,0.9,5.8,2.7c1.4,1.8,2.1,4.1,2.1,6.9c0,2.9-0.9,5.3-2.7,7.1c-1.8,1.8-4.2,2.7-7.1,2.7c-3,0-5.5-1-7.4-3.1    c-1.9-2.1-2.9-4.9-2.9-8.6v-6.1c0-3.7,1.1-6.7,3.3-8.9C127.7,442.7,130.5,441.6,133.8,441.6z M132.6,456.6c-1.1,0-2,0.2-2.7,0.5    c-0.7,0.3-1.3,0.8-1.7,1.4v1.6c0,2.2,0.4,4,1.2,5.2c0.8,1.2,1.9,1.8,3.3,1.8c1.2,0,2.2-0.5,2.9-1.5s1.1-2.3,1.1-3.9    c0-1.6-0.4-2.9-1.1-3.8C134.8,457,133.8,456.6,132.6,456.6z" id="XMLID_230_"/></g></g></svg>