<?xml version="1.0" ?><svg id="Layer_1" style="enable-background:new 0 0 512 512;" version="1.1" viewBox="0 0 512 512" xml:space="preserve" xmlns="http://www.w3.org/2000/svg" xmlns:xlink="http://www.w3.org/1999/xlink"><style type="text/css">
	.st0{fill:#E8E8E8;}
	.st1{fill:#1C353F;}
	.st2{fill:#152D39;}
	.st3{fill:#9E1248;}
	.st4{fill:#5CB8CD;}
	.st5{fill:#FB8A52;}
	.st6{fill:#328C9B;}
	.st7{fill:#BB0D48;}
	.st8{fill:#DD7547;}
	.st9{fill:#FFFFFF;}
</style><g><g><path class="st0" d="M256,97.5c-87.4,0-158.5,71.1-158.5,158.5c0,87.4,71.1,158.5,158.5,158.5S414.5,343.4,414.5,256    C414.5,168.6,343.4,97.5,256,97.5z M256,391.9c-75.1,0-135.9-60.9-135.9-135.9S180.9,120.1,256,120.1S391.9,180.9,391.9,256    S331.1,391.9,256,391.9z"/><g><path class="st1" d="M260,246.3l35.6-35.6C393.3,76.8,328.2,8.5,260,6V246.3z" id="XMLID_9_"/><path class="st2" d="M252,246.3V6c-68.2,2.7-133.2,71.2-34.7,205.6L252,246.3z" id="XMLID_8_"/><path class="st3" d="M246.3,252l-35.6-35.6C76.8,118.7,8.5,183.8,6,252H246.3z" id="XMLID_7_"/><path class="st4" d="M300.4,217.3L265.7,252H506C503.3,183.7,434.8,118.7,300.4,217.3z" id="XMLID_6_"/><path class="st5" d="M260,265.7V506c68.2-2.7,133.2-71.2,34.7-205.6L260,265.7z" id="XMLID_5_"/><path class="st6" d="M265.7,260l35.6,35.6c134,97.7,202.2,32.6,204.7-35.6H265.7z" id="XMLID_4_"/><path class="st7" d="M211.6,294.7l34.7-34.7H6C8.7,328.3,77.2,393.3,211.6,294.7z" id="XMLID_3_"/><path class="st8" d="M252,265.7l-35.6,35.6c-97.7,134-32.6,202.2,35.6,204.7V265.7z" id="XMLID_2_"/></g><circle class="st0" cx="256" cy="256" id="XMLID_1_" r="96.9"/></g><g><g id="XMLID_166_"><path class="st9" d="M218.5,101.8h-5.9V77.4h-6.1v-4.5l12-1.1V101.8z" id="XMLID_167_"/></g><g id="XMLID_163_"><path class="st9" d="M309,101.8h-19.8v-3.9l9.2-10.4c1.4-1.6,2.3-3,2.9-4.1c0.6-1.1,0.9-2.1,0.9-3.1     c0-1.2-0.3-2.2-0.9-2.9c-0.6-0.7-1.5-1.1-2.7-1.1c-1.3,0-2.3,0.5-3,1.4c-0.7,0.9-1.1,2.1-1.1,3.6h-5.8l0-0.1     c-0.1-2.6,0.8-4.9,2.6-6.7c1.8-1.8,4.2-2.7,7.3-2.7c3,0,5.4,0.8,7.1,2.3c1.7,1.6,2.5,3.6,2.5,6.2c0,1.8-0.5,3.4-1.4,4.9     c-0.9,1.5-2.6,3.5-4.9,6.1l-4.9,5.8l0,0.1H309V101.8z" id="XMLID_164_"/></g><g id="XMLID_160_"><path class="st9" d="M418.6,210.4c1.4,0,2.4-0.4,3.1-1.1c0.7-0.7,1-1.7,1-3c0-1.1-0.4-2-1.1-2.7     c-0.7-0.7-1.7-1.1-3-1.1c-1.1,0-2,0.3-2.7,1c-0.7,0.7-1.1,1.5-1.1,2.5h-5.6l0-0.1c-0.1-2.3,0.8-4.2,2.6-5.6     c1.8-1.5,4.1-2.2,6.8-2.2c3,0,5.4,0.7,7.2,2.1c1.8,1.4,2.7,3.5,2.7,6.1c0,1.3-0.4,2.6-1.2,3.7c-0.8,1.1-1.8,2-3.2,2.6     c1.5,0.6,2.7,1.4,3.5,2.6c0.8,1.2,1.2,2.6,1.2,4.2c0,2.7-1,4.8-2.9,6.3c-1.9,1.5-4.4,2.3-7.4,2.3c-2.7,0-5-0.7-7-2.2     c-2-1.4-3-3.5-2.9-6.1l0-0.1h5.7c0,1.1,0.4,2,1.2,2.8c0.8,0.7,1.8,1.1,3,1.1c1.3,0,2.4-0.4,3.2-1.2c0.8-0.8,1.2-1.8,1.2-3     c0-1.5-0.4-2.7-1.2-3.4c-0.8-0.7-1.9-1.1-3.4-1.1h-3.2v-4.4H418.6z" id="XMLID_161_"/></g><g id="XMLID_156_"><path class="st9" d="M426.5,295.5h3.4v4.7h-3.4v6.5h-6v-6.5h-12.2l-0.3-3.6l12.4-19.9h6.1V295.5z M413.4,295.5h7     v-10.9l-0.1,0l-0.6,1.3L413.4,295.5z" id="XMLID_157_"/></g><g id="XMLID_153_"><path class="st9" d="M293.3,430.6l1.7-16.5h16.5v4.8h-11.6l-0.8,6.9c0.6-0.4,1.3-0.7,2.1-1     c0.8-0.3,1.8-0.4,2.7-0.4c2.7,0,4.9,0.8,6.4,2.5c1.5,1.7,2.3,4.2,2.3,7.3c0,2.9-0.8,5.3-2.5,7.1c-1.6,1.9-4.1,2.8-7.5,2.8     c-2.7,0-5.1-0.7-7-2.2c-1.9-1.4-2.9-3.4-2.8-5.9l0-0.1l5.7-0.3c0,1.2,0.4,2.2,1.1,2.9c0.7,0.7,1.7,1,2.9,1c1.4,0,2.4-0.5,3.1-1.4     c0.6-0.9,1-2.2,1-3.9c0-1.7-0.4-3.1-1.1-4.1c-0.7-1-1.7-1.5-3.1-1.5c-1.1,0-2,0.2-2.6,0.6c-0.6,0.4-1,1-1.3,1.7L293.3,430.6z" id="XMLID_154_"/></g><g id="XMLID_149_"><path class="st9" d="M219.9,414.1c1.1,0,2.2,0.1,3.2,0.3c1,0.2,1.9,0.5,2.9,0.9l-1,4.3c-0.9-0.3-1.7-0.5-2.4-0.7     c-0.7-0.2-1.6-0.2-2.5-0.2c-1.7,0-3.1,0.7-4.1,2c-1,1.3-1.6,3.1-1.6,5.5v0.9c0.8-0.8,1.7-1.4,2.8-1.8c1.1-0.4,2.3-0.6,3.6-0.6     c2.5,0,4.4,0.9,5.8,2.7c1.4,1.8,2.1,4.1,2.1,6.9c0,2.9-0.9,5.3-2.7,7.1c-1.8,1.8-4.2,2.7-7.1,2.7c-3,0-5.5-1-7.4-3.1     c-1.9-2.1-2.9-4.9-2.9-8.6v-6.1c0-3.7,1.1-6.7,3.3-8.9C213.8,415.2,216.6,414.1,219.9,414.1z M218.7,429.1c-1.1,0-2,0.2-2.7,0.5     c-0.7,0.3-1.3,0.8-1.7,1.4v1.6c0,2.2,0.4,4,1.2,5.2c0.8,1.2,1.9,1.8,3.3,1.8c1.2,0,2.2-0.5,2.9-1.5s1.1-2.3,1.1-3.9     c0-1.6-0.4-2.9-1.1-3.8C220.9,429.5,219.9,429.1,218.7,429.1z" id="XMLID_150_"/></g><g id="XMLID_146_"><path class="st9" d="M102.2,289.9c-3.4,4-5.7,7.5-6.9,10.7c-1.2,3.2-1.8,6.8-1.8,10.9v3.7h-6v-3.7     c0-4.2,0.8-8,2.3-11.4c1.5-3.4,3.8-6.9,6.7-10.2H81.1v-4.6h21.1V289.9z" id="XMLID_147_"/></g><g id="XMLID_141_"><path class="st9" d="M100.9,202.3c0,1.4-0.4,2.7-1.1,3.8c-0.7,1.1-1.8,2-3.1,2.6c1.6,0.7,2.9,1.6,3.8,2.8     c0.9,1.2,1.4,2.6,1.4,4.2c0,2.7-0.9,4.8-2.8,6.3c-1.9,1.5-4.3,2.3-7.2,2.3c-3.1,0-5.6-0.8-7.5-2.3c-2-1.5-2.9-3.6-2.9-6.3     c0-1.6,0.5-3,1.5-4.2c1-1.2,2.3-2.2,3.9-2.8c-1.4-0.6-2.5-1.5-3.2-2.6c-0.8-1.1-1.2-2.4-1.2-3.8c0-2.6,0.9-4.5,2.6-5.9     c1.7-1.4,4-2.1,6.8-2.1c2.7,0,4.9,0.7,6.5,2.1C100.1,197.8,100.9,199.8,100.9,202.3z M96,215.5c0-1.3-0.4-2.4-1.2-3.2     c-0.8-0.8-1.8-1.3-3-1.3c-1.3,0-2.4,0.4-3.3,1.3c-0.9,0.8-1.3,1.9-1.3,3.2c0,1.3,0.4,2.4,1.3,3.2c0.9,0.8,2,1.2,3.3,1.2     c1.2,0,2.2-0.4,3-1.2C95.7,217.9,96,216.8,96,215.5z M95.1,202.6c0-1.1-0.3-2.1-0.9-2.7c-0.6-0.7-1.4-1-2.3-1c-1.1,0-2,0.3-2.6,1     c-0.7,0.7-1,1.6-1,2.8c0,1.2,0.3,2.1,1,2.9c0.7,0.7,1.5,1.1,2.6,1.1c1,0,1.7-0.4,2.3-1.1C94.8,204.8,95.1,203.8,95.1,202.6z" id="XMLID_142_"/></g></g></g></svg>