<?xml version="1.0" ?><svg id="Layer_1" style="enable-background:new 0 0 512 512;" version="1.1" viewBox="0 0 512 512" xml:space="preserve" xmlns="http://www.w3.org/2000/svg" xmlns:xlink="http://www.w3.org/1999/xlink"><style type="text/css">
	.st0{fill:#BB0D48;}
	.st1{fill:#891041;}
	.st2{fill:#9E1248;}
	.st3{fill:#FB8A52;}
	.st4{fill:#D36B42;}
	.st5{fill:#DD7547;}
	.st6{fill:#5CB8CD;}
	.st7{fill:#287B84;}
	.st8{fill:#328C9B;}
	.st9{fill:#152D39;}
	.st10{fill:#132B33;}
	.st11{fill:#1C353F;}
	.st12{fill:#FFFFFF;}
</style><g><g><g><rect class="st0" height="120" id="XMLID_20_" width="120" x="199.1" y="386"/><polygon class="st1" id="XMLID_19_" points="146.2,336.4 199.1,386 199.1,506 145.4,457.1    "/><polygon class="st2" id="XMLID_18_" points="319.2,386 267,336.4 146.2,336.4 199.1,386    "/></g><g><rect class="st3" height="120" id="XMLID_17_" width="120" x="252.9" y="279.1"/><polygon class="st4" id="XMLID_16_" points="200,229.6 252.9,279.1 252.9,399.2 199.1,350.3    "/><polygon class="st5" id="XMLID_15_" points="372.9,279.1 320.8,229.6 200,229.6 252.9,279.1    "/></g><g><rect class="st6" height="120" id="XMLID_14_" width="120" x="192.8" y="162.3"/><polygon class="st7" id="XMLID_13_" points="139.9,112.8 192.8,162.3 192.8,282.4 139.1,233.5    "/><polygon class="st8" id="XMLID_12_" points="312.9,162.3 260.7,112.8 139.9,112.8 192.8,162.3    "/></g><g><rect class="st9" height="120" id="XMLID_11_" width="120" x="246.6" y="55.5"/><polygon class="st10" id="XMLID_10_" points="193.7,6 246.6,55.5 246.6,175.6 192.8,126.7    "/><polygon class="st11" id="XMLID_9_" points="366.6,55.5 314.5,6 193.7,6 246.6,55.5    "/></g></g><path class="st12" d="M314,122.8h-11.3l-2.7,7.8h-4.2l10.9-30.1h3.5l10.6,30.1h-4.2L314,122.8z M303.8,119.4h9l-4.4-12.9h-0.1   L303.8,119.4z"/><path class="st12" d="M242.4,239.5v-34.4h11.2c3.6,0,6.4,0.8,8.4,2.3c2,1.6,3,3.9,3,7c0,1.5-0.5,2.8-1.4,4   c-0.9,1.2-2.1,2.1-3.6,2.7c2.3,0.3,4,1.3,5.3,2.9c1.3,1.6,2,3.6,2,5.8c0,3.1-1,5.6-3.1,7.2c-2,1.7-4.8,2.5-8.3,2.5H242.4z    M247,219.8h7.5c1.7,0,3.1-0.5,4.2-1.4c1.1-1,1.6-2.3,1.6-4c0-1.9-0.6-3.2-1.8-4.2c-1.2-0.9-2.9-1.4-5.1-1.4H247V219.8z M247,223.4   v12.5h9c2.1,0,3.8-0.5,4.9-1.6c1.2-1,1.8-2.5,1.8-4.5c0-1.9-0.6-3.4-1.8-4.6c-1.2-1.2-2.8-1.8-4.8-1.9h-0.3H247z"/><path class="st12" d="M328.3,342.4l0,0.1c0.1,3.1-1,5.7-3.3,7.8c-2.3,2.1-5.2,3.2-8.9,3.2c-3.8,0-6.8-1.3-9.2-4   c-2.4-2.7-3.6-6.1-3.6-10.2v-5.9c0-4.1,1.2-7.5,3.6-10.2c2.4-2.7,5.4-4,9.2-4c3.8,0,6.8,1,9,3c2.2,2,3.3,4.7,3.2,8l0,0.1H324   c0-2.3-0.7-4.2-2.1-5.5c-1.4-1.4-3.3-2-5.8-2c-2.5,0-4.5,1-6,3c-1.5,2-2.2,4.5-2.2,7.5v6c0,3,0.7,5.6,2.2,7.6c1.5,2,3.5,3,6,3   c2.5,0,4.4-0.7,5.8-2c1.4-1.3,2.1-3.2,2.1-5.6H328.3z"/><path class="st12" d="M249.2,467.9v-33.4h10.5c4.4,0,7.9,1.3,10.5,4c2.7,2.7,4,6.2,4,10.4v4.6c0,4.3-1.3,7.7-4,10.4   c-2.7,2.7-6.2,4-10.5,4H249.2z M253.7,438v26.3h6c3.1,0,5.5-1,7.3-3.1c1.8-2,2.7-4.6,2.7-7.8v-4.6c0-3.1-0.9-5.7-2.7-7.8   c-1.8-2-4.2-3.1-7.3-3.1H253.7z"/></g></svg>