<?xml version="1.0" ?><svg id="Layer_1" style="enable-background:new 0 0 512 512;" version="1.1" viewBox="0 0 512 512" xml:space="preserve" xmlns="http://www.w3.org/2000/svg" xmlns:xlink="http://www.w3.org/1999/xlink"><style type="text/css">
	.st0{fill:#1C353F;}
	.st1{fill:#328C9B;}
	.st2{fill:#DD7547;}
	.st3{fill:#9E1248;}
	.st4{fill:#132B33;}
	.st5{fill:#287B84;}
	.st6{fill:#D36B42;}
	.st7{fill:#891041;}
	.st8{fill:#152D39;}
	.st9{fill:#5CB8CD;}
	.st10{fill:#FB8A52;}
	.st11{fill:#BB0D48;}
	.st12{fill:#FFFFFF;}
</style><g><g><g><g><g><polygon class="st0" id="XMLID_32_" points="84.3,300.3 58.2,335.2 84.3,370.1 110.4,405 136.5,370.1 162.6,335.2 136.5,300.3        110.4,265.4      "/><polygon class="st1" id="XMLID_31_" points="198.8,300.3 172.7,335.2 198.8,370.1 224.9,405 251,370.1 277.1,335.2 251,300.3        224.9,265.4      "/><polygon class="st2" id="XMLID_30_" points="313.2,300.3 287.1,335.2 313.2,370.1 339.3,405 365.4,370.1 391.5,335.2        365.4,300.3 339.3,265.4      "/><polygon class="st3" id="XMLID_29_" points="427.7,300.3 401.6,335.2 427.7,370.1 453.8,405 479.9,370.1 506,335.2        479.9,300.3 453.8,265.4      "/></g><g><polygon class="st4" id="XMLID_28_" points="84.3,256 58.2,290.9 84.3,325.8 110.4,360.7 136.5,325.8 162.6,290.9 136.5,256        110.4,221.1      "/><polygon class="st5" id="XMLID_27_" points="198.8,256 172.7,290.9 198.8,325.8 224.9,360.7 251,325.8 277.1,290.9 251,256        224.9,221.1      "/><polygon class="st6" id="XMLID_26_" points="313.2,256 287.1,290.9 313.2,325.8 339.3,360.7 365.4,325.8 391.5,290.9        365.4,256 339.3,221.1      "/><polygon class="st7" id="XMLID_25_" points="427.7,256 401.6,290.9 427.7,325.8 453.8,360.7 479.9,325.8 506,290.9 479.9,256        453.8,221.1      "/></g></g><g><polygon class="st8" id="XMLID_24_" points="84.3,278.2 58.2,313.1 84.3,348 110.4,382.9 136.5,348 162.6,313.1 136.5,278.2       110.4,243.3     "/><polygon class="st9" id="XMLID_23_" points="198.8,278.2 172.7,313.1 198.8,348 224.9,382.9 251,348 277.1,313.1 251,278.2       224.9,243.3     "/><polygon class="st10" id="XMLID_22_" points="313.2,278.2 287.1,313.1 313.2,348 339.3,382.9 365.4,348 391.5,313.1       365.4,278.2 339.3,243.3     "/><polygon class="st11" id="XMLID_21_" points="427.7,278.2 401.6,313.1 427.7,348 453.8,382.9 479.9,348 506,313.1 479.9,278.2       453.8,243.3     "/></g></g><g><g><g><polygon class="st0" id="XMLID_20_" points="32.1,211.7 6,176.8 32.1,141.9 58.2,107 84.3,141.9 110.4,176.8 84.3,211.7        58.2,246.6      "/><polygon class="st1" id="XMLID_19_" points="146.6,211.7 120.5,176.8 146.6,141.9 172.7,107 198.8,141.9 224.9,176.8        198.8,211.7 172.7,246.6      "/><polygon class="st2" id="XMLID_18_" points="261,211.7 234.9,176.8 261,141.9 287.1,107 313.2,141.9 339.3,176.8 313.2,211.7        287.1,246.6      "/><polygon class="st3" id="XMLID_17_" points="375.5,211.7 349.4,176.8 375.5,141.9 401.6,107 427.7,141.9 453.8,176.8        427.7,211.7 401.6,246.6      "/></g><g><polygon class="st4" id="XMLID_16_" points="32.1,256 6,221.1 32.1,186.2 58.2,151.3 84.3,186.2 110.4,221.1 84.3,256        58.2,290.9      "/><polygon class="st5" id="XMLID_15_" points="146.6,256 120.5,221.1 146.6,186.2 172.7,151.3 198.8,186.2 224.9,221.1        198.8,256 172.7,290.9      "/><polygon class="st6" id="XMLID_14_" points="261,256 234.9,221.1 261,186.2 287.1,151.3 313.2,186.2 339.3,221.1 313.2,256        287.1,290.9      "/><polygon class="st7" id="XMLID_13_" points="375.5,256 349.4,221.1 375.5,186.2 401.6,151.3 427.7,186.2 453.8,221.1        427.7,256 401.6,290.9      "/></g></g><g><polygon class="st8" id="XMLID_12_" points="32.1,233.8 6,198.9 32.1,164 58.2,129.1 84.3,164 110.4,198.9 84.3,233.8       58.2,268.7     "/><polygon class="st9" id="XMLID_11_" points="146.6,233.8 120.5,198.9 146.6,164 172.7,129.1 198.8,164 224.9,198.9 198.8,233.8       172.7,268.7     "/><polygon class="st10" id="XMLID_10_" points="261,233.8 234.9,198.9 261,164 287.1,129.1 313.2,164 339.3,198.9 313.2,233.8       287.1,268.7     "/><polygon class="st11" id="XMLID_9_" points="375.5,233.8 349.4,198.9 375.5,164 401.6,129.1 427.7,164 453.8,198.9 427.7,233.8       401.6,268.7     "/></g></g></g><path class="st12" d="M62.3,201.4H52.1l-2.4,7H46l9.7-27h3.1l9.5,27h-3.7L62.3,201.4z M53.2,198.4h8.1l-3.9-11.6h-0.1L53.2,198.4z"/><path class="st12" d="M213.7,328.5v-30.8h10c3.2,0,5.7,0.7,7.5,2.1c1.8,1.4,2.7,3.5,2.7,6.2c0,1.3-0.4,2.5-1.2,3.6   c-0.8,1.1-1.9,1.8-3.3,2.4c2,0.3,3.6,1.2,4.8,2.6c1.2,1.5,1.8,3.2,1.8,5.2c0,2.8-0.9,5-2.7,6.5c-1.8,1.5-4.3,2.2-7.4,2.2H213.7z    M217.9,310.8h6.7c1.6,0,2.8-0.4,3.8-1.3c1-0.9,1.5-2,1.5-3.6c0-1.7-0.5-2.9-1.6-3.7c-1.1-0.8-2.6-1.2-4.5-1.2h-5.9V310.8z    M217.9,314v11.2h8c1.9,0,3.4-0.5,4.4-1.4c1-0.9,1.6-2.3,1.6-4c0-1.7-0.5-3.1-1.6-4.1c-1.1-1-2.5-1.6-4.3-1.7h-0.3H217.9z"/><path class="st12" d="M303.4,200.2l0,0.1c0.1,2.8-0.9,5.1-2.9,7c-2,1.9-4.7,2.8-8,2.8c-3.4,0-6.1-1.2-8.2-3.6   c-2.1-2.4-3.2-5.4-3.2-9.1v-5.3c0-3.7,1.1-6.7,3.2-9.1c2.1-2.4,4.9-3.6,8.2-3.6c3.4,0,6.1,0.9,8,2.7c2,1.8,3,4.2,2.9,7.1l0,0.1   h-3.9c0-2.1-0.6-3.7-1.8-5c-1.2-1.2-3-1.8-5.2-1.8c-2.3,0-4,0.9-5.4,2.7c-1.3,1.8-2,4.1-2,6.8v5.3c0,2.7,0.7,5,2,6.8   c1.3,1.8,3.1,2.7,5.4,2.7c2.2,0,4-0.6,5.2-1.8c1.2-1.2,1.8-2.9,1.8-5H303.4z"/><path class="st12" d="M446.9,328v-29.9h9.4c3.9,0,7,1.2,9.4,3.6c2.4,2.4,3.6,5.5,3.6,9.3v4.1c0,3.8-1.2,6.9-3.6,9.3   c-2.4,2.4-5.5,3.6-9.4,3.6H446.9z M451,301.3v23.6h5.4c2.8,0,4.9-0.9,6.5-2.7c1.6-1.8,2.4-4.2,2.4-7V311c0-2.8-0.8-5.1-2.4-7   c-1.6-1.8-3.8-2.7-6.5-2.7H451z"/></g></svg>