<?xml version="1.0" ?><svg id="Layer_1" style="enable-background:new 0 0 512 512;" version="1.1" viewBox="0 0 512 512" xml:space="preserve" xmlns="http://www.w3.org/2000/svg" xmlns:xlink="http://www.w3.org/1999/xlink"><style type="text/css">
	.st0{fill:#BB0D48;}
	.st1{fill:#E8E8E8;}
	.st2{fill:#FB8A52;}
	.st3{fill:#5CB8CD;}
	.st4{fill:#152D39;}
</style><g><g><g><path class="st0" d="M482.6,177.2v-20.4h6.4c2.7,0,4.8,0.8,6.4,2.5c1.6,1.6,2.4,3.8,2.4,6.4v2.8c0,2.6-0.8,4.7-2.4,6.4     c-1.6,1.6-3.8,2.4-6.4,2.4H482.6z M485.3,158.9V175h3.7c1.9,0,3.4-0.6,4.5-1.9c1.1-1.2,1.6-2.8,1.6-4.8v-2.8     c0-1.9-0.5-3.5-1.6-4.8c-1.1-1.2-2.6-1.9-4.5-1.9H485.3z"/><g><polygon class="st1" id="XMLID_115_" points="465.7,167 465.7,176.7 472.2,171.8 478.7,166.9 472.2,162.1 465.7,157.2     "/><rect class="st1" height="21.1" id="XMLID_114_" transform="matrix(-2.194689e-003 -1 1 -2.194689e-003 290.3992 623.7145)" width="3.9" x="454.4" y="156.4"/></g></g><g><path class="st2" d="M381.5,170.5L381.5,170.5c0.1,1.9-0.6,3.5-1.9,4.8c-1.3,1.3-3.1,1.9-5.3,1.9c-2.2,0-4.1-0.8-5.5-2.4     c-1.4-1.6-2.1-3.6-2.1-6.1v-3.5c0-2.4,0.7-4.5,2.1-6.1c1.4-1.6,3.2-2.4,5.5-2.4c2.2,0,4,0.6,5.4,1.8c1.3,1.2,2,2.8,1.9,4.8l0,0.1     H379c0-1.4-0.4-2.5-1.2-3.3c-0.8-0.8-2-1.2-3.5-1.2c-1.5,0-2.7,0.6-3.6,1.8c-0.9,1.2-1.3,2.7-1.3,4.5v3.6c0,1.8,0.4,3.3,1.3,4.5     c0.9,1.2,2.1,1.8,3.6,1.8c1.5,0,2.6-0.4,3.5-1.2c0.8-0.8,1.2-1.9,1.2-3.3H381.5z"/><g><polygon class="st1" id="XMLID_112_" points="349,167 349,176.7 355.5,171.8 362,166.9 355.5,162.1 349,157.2     "/><rect class="st1" height="21.1" id="XMLID_111_" transform="matrix(-2.194689e-003 -1 1 -2.194689e-003 173.3902 506.962)" width="3.9" x="337.7" y="156.4"/></g></g><g><path class="st3" d="M247,177.2v-20.4h6.7c2.1,0,3.8,0.5,5,1.4c1.2,0.9,1.8,2.3,1.8,4.1c0,0.9-0.3,1.7-0.8,2.4     c-0.5,0.7-1.3,1.2-2.2,1.6c1.3,0.2,2.4,0.8,3.2,1.7c0.8,1,1.2,2.1,1.2,3.4c0,1.9-0.6,3.3-1.8,4.3c-1.2,1-2.9,1.5-4.9,1.5H247z      M249.8,165.4h4.5c1,0,1.9-0.3,2.5-0.8c0.6-0.6,1-1.4,1-2.4c0-1.1-0.3-1.9-1-2.5c-0.7-0.5-1.7-0.8-3-0.8h-3.9V165.4z      M249.8,167.6v7.4h5.3c1.3,0,2.2-0.3,2.9-0.9c0.7-0.6,1-1.5,1-2.6c0-1.1-0.4-2-1.1-2.7c-0.7-0.7-1.7-1.1-2.9-1.1H255H249.8z"/><g><polygon class="st1" id="XMLID_107_" points="232.1,166.8 232.1,157.1 238.6,161.9 245.1,166.8 238.6,171.7 232,176.5     "/><rect class="st1" height="21.1" id="XMLID_106_" transform="matrix(-2.194689e-003 1 -1 -2.194689e-003 389.9847 -55.565)" width="3.9" x="220.8" y="156.2"/></g></g><g><g><polygon class="st1" id="XMLID_105_" points="115.8,167 115.9,157.2 122.3,162.1 128.8,167 122.3,171.8 115.8,176.7     "/><rect class="st1" height="21.1" id="XMLID_104_" transform="matrix(-2.194689e-003 1 -1 -2.194689e-003 273.6462 60.8236)" width="3.9" x="104.5" y="156.4"/></g><path class="st4" d="M142.1,171.9h-7.7l-1.8,5.3h-2.8l7.4-20.4h2.4l7.2,20.4h-2.8L142.1,171.9z M135.2,169.6h6.1l-3-8.8h-0.1     L135.2,169.6z"/></g></g><g><g><g><g id="XMLID_475_"><g id="XMLID_573_"><g id="XMLID_583_"><polygon class="st4" id="XMLID_584_" points="89.6,155.5 82.1,144.3 76.2,155.6        "/></g><g id="XMLID_581_"><polygon class="st4" id="XMLID_582_" points="31.9,239.2 23.7,254.6 155.6,253.8 145.7,239.1        "/></g><g id="XMLID_579_"><polygon class="st4" id="XMLID_580_" points="103.1,175.5 92,159.1 74.3,159.1 65.6,175.6        "/></g><g id="XMLID_577_"><polygon class="st4" id="XMLID_578_" points="116.5,195.5 105.4,179.1 63.7,179.1 55,195.6        "/></g><g id="XMLID_575_"><polygon class="st4" id="XMLID_576_" points="143.3,235.5 132.3,219.1 42.5,219.2 33.8,235.7        "/></g><polygon class="st4" id="XMLID_574_" points="129.9,215.5 118.9,199.1 53.1,199.2 44.4,215.7       "/></g><g id="XMLID_476_"><g id="XMLID_571_"><polygon class="st4" id="XMLID_572_" points="91,356.4 83.6,367.7 77.5,356.5        "/></g><g id="XMLID_569_"><polygon class="st4" id="XMLID_570_" points="32.1,273.4 23.7,258.2 155.6,257.2 145.9,272.1        "/></g><g id="XMLID_567_"><polygon class="st4" id="XMLID_568_" points="104.1,336.2 93.3,352.8 75.6,353 66.6,336.6        "/></g><g id="XMLID_565_"><polygon class="st4" id="XMLID_566_" points="117.2,316 106.4,332.6 64.7,333.1 55.8,316.8        "/></g><g id="XMLID_478_"><polygon class="st4" id="XMLID_479_" points="143.5,275.6 132.7,292.2 42.9,293.3 34,277        "/></g><polygon class="st4" id="XMLID_477_" points="130.4,295.8 119.6,312.4 53.8,313.2 44.9,296.9       "/></g></g></g><g><g id="XMLID_480_"><g id="XMLID_553_"><g id="XMLID_563_"><polygon class="st4" id="XMLID_564_" points="71.9,155.5 64.4,144.3 58.5,155.6        "/></g><g id="XMLID_561_"><polygon class="st4" id="XMLID_562_" points="14.2,239.2 6,254.6 137.9,253.8 128,239.1        "/></g><g id="XMLID_559_"><polygon class="st4" id="XMLID_560_" points="85.3,175.5 74.3,159.1 56.6,159.1 47.9,175.6        "/></g><g id="XMLID_557_"><polygon class="st4" id="XMLID_558_" points="98.8,195.5 87.7,179.1 46,179.1 37.3,195.6        "/></g><g id="XMLID_555_"><polygon class="st4" id="XMLID_556_" points="125.6,235.5 114.6,219.1 24.8,219.2 16.1,235.7        "/></g><polygon class="st4" id="XMLID_554_" points="112.2,215.5 101.1,199.1 35.4,199.2 26.7,215.7       "/></g><g id="XMLID_481_"><g id="XMLID_550_"><polygon class="st4" id="XMLID_552_" points="73.2,356.4 65.9,367.7 59.8,356.5        "/></g><g id="XMLID_489_"><polygon class="st4" id="XMLID_490_" points="14.4,273.4 6,258.2 137.8,257.2 128.1,272.1        "/></g><g id="XMLID_487_"><polygon class="st4" id="XMLID_488_" points="86.4,336.2 75.6,352.8 57.9,353 48.9,336.6        "/></g><g id="XMLID_485_"><polygon class="st4" id="XMLID_486_" points="99.5,316 88.7,332.6 47,333.1 38,316.8        "/></g><g id="XMLID_483_"><polygon class="st4" id="XMLID_484_" points="125.8,275.6 115,292.2 25.2,293.3 16.3,277        "/></g><polygon class="st4" id="XMLID_482_" points="112.7,295.8 101.9,312.4 36.1,313.2 27.2,296.9       "/></g></g></g></g><g><g id="XMLID_877_"><g id="XMLID_954_"><g id="XMLID_955_"><g id="XMLID_968_"><g id="XMLID_978_"><polygon class="st3" id="XMLID_979_" points="206.3,155.5 198.8,144.3 192.8,155.6         "/></g><g id="XMLID_976_"><polygon class="st3" id="XMLID_977_" points="148.5,239.2 140.4,254.6 272.2,253.8 262.3,239.1         "/></g><g id="XMLID_974_"><polygon class="st3" id="XMLID_975_" points="219.7,175.5 208.6,159.1 190.9,159.1 182.2,175.6         "/></g><g id="XMLID_972_"><polygon class="st3" id="XMLID_973_" points="233.1,195.5 222.1,179.1 180.3,179.1 171.6,195.6         "/></g><g id="XMLID_970_"><polygon class="st3" id="XMLID_971_" points="259.9,235.5 248.9,219.1 159.1,219.2 150.4,235.7         "/></g><polygon class="st3" id="XMLID_969_" points="246.5,215.5 235.5,199.1 169.7,199.2 161,215.7        "/></g><g id="XMLID_956_"><g id="XMLID_966_"><polygon class="st3" id="XMLID_967_" points="207.6,356.4 200.2,367.7 194.1,356.5         "/></g><g id="XMLID_964_"><polygon class="st3" id="XMLID_965_" points="148.7,273.4 140.3,258.2 272.2,257.2 262.5,272.1         "/></g><g id="XMLID_962_"><polygon class="st3" id="XMLID_963_" points="220.7,336.2 209.9,352.8 192.2,353 183.3,336.6         "/></g><g id="XMLID_960_"><polygon class="st3" id="XMLID_961_" points="233.9,316 223,332.6 181.3,333.1 172.4,316.8         "/></g><g id="XMLID_958_"><polygon class="st3" id="XMLID_959_" points="260.1,275.6 249.3,292.2 159.6,293.3 150.6,277         "/></g><polygon class="st3" id="XMLID_957_" points="247,295.8 236.2,312.4 170.4,313.2 161.5,296.9        "/></g></g></g><g id="XMLID_878_"><g id="XMLID_879_"><g id="XMLID_942_"><g id="XMLID_952_"><polygon class="st3" id="XMLID_953_" points="188.6,155.5 181,144.3 175.1,155.6         "/></g><g id="XMLID_950_"><polygon class="st3" id="XMLID_951_" points="130.8,239.2 122.7,254.6 254.5,253.8 244.6,239.1         "/></g><g id="XMLID_948_"><polygon class="st3" id="XMLID_949_" points="202,175.5 190.9,159.1 173.2,159.1 164.5,175.6         "/></g><g id="XMLID_946_"><polygon class="st3" id="XMLID_947_" points="215.4,195.5 204.3,179.1 162.6,179.1 153.9,195.6         "/></g><g id="XMLID_944_"><polygon class="st3" id="XMLID_945_" points="242.2,235.5 231.2,219.1 141.4,219.2 132.7,235.7         "/></g><polygon class="st3" id="XMLID_943_" points="228.8,215.5 217.8,199.1 152,199.2 143.3,215.7        "/></g><g id="XMLID_880_"><g id="XMLID_940_"><polygon class="st3" id="XMLID_941_" points="189.9,356.4 182.5,367.7 176.4,356.5         "/></g><g id="XMLID_888_"><polygon class="st3" id="XMLID_889_" points="131,273.4 122.6,258.2 254.5,257.2 244.8,272.1         "/></g><g id="XMLID_886_"><polygon class="st3" id="XMLID_887_" points="203,336.2 192.2,352.8 174.5,353 165.5,336.6         "/></g><g id="XMLID_884_"><polygon class="st3" id="XMLID_885_" points="216.2,316 205.3,332.6 163.6,333.1 154.7,316.8         "/></g><g id="XMLID_882_"><polygon class="st3" id="XMLID_883_" points="242.4,275.6 231.6,292.2 141.9,293.3 132.9,277         "/></g><polygon class="st3" id="XMLID_881_" points="229.3,295.8 218.5,312.4 152.7,313.2 143.8,296.9        "/></g></g></g></g></g><g><g id="XMLID_890_"><g id="XMLID_917_"><g id="XMLID_918_"><g id="XMLID_931_"><g id="XMLID_981_"><polygon class="st2" id="XMLID_982_" points="323.4,155.5 315.9,144.3 310,155.6         "/></g><g id="XMLID_939_"><polygon class="st2" id="XMLID_980_" points="265.7,239.2 257.5,254.6 389.4,253.8 379.5,239.1         "/></g><g id="XMLID_937_"><polygon class="st2" id="XMLID_938_" points="336.8,175.5 325.8,159.1 308.1,159.1 299.4,175.6         "/></g><g id="XMLID_935_"><polygon class="st2" id="XMLID_936_" points="350.3,195.5 339.2,179.1 297.5,179.1 288.8,195.6         "/></g><g id="XMLID_933_"><polygon class="st2" id="XMLID_934_" points="377.1,235.5 366.1,219.1 276.3,219.2 267.6,235.7         "/></g><polygon class="st2" id="XMLID_932_" points="363.7,215.5 352.6,199.1 286.9,199.2 278.2,215.7        "/></g><g id="XMLID_919_"><g id="XMLID_929_"><polygon class="st2" id="XMLID_930_" points="324.7,356.4 317.4,367.7 311.3,356.5         "/></g><g id="XMLID_927_"><polygon class="st2" id="XMLID_928_" points="265.8,273.4 257.5,258.2 389.3,257.2 379.6,272.1         "/></g><g id="XMLID_925_"><polygon class="st2" id="XMLID_926_" points="337.9,336.2 327.1,352.8 309.4,353 300.4,336.6         "/></g><g id="XMLID_923_"><polygon class="st2" id="XMLID_924_" points="351,316 340.2,332.6 298.5,333.1 289.5,316.8         "/></g><g id="XMLID_921_"><polygon class="st2" id="XMLID_922_" points="377.3,275.6 366.5,292.2 276.7,293.3 267.8,277         "/></g><polygon class="st2" id="XMLID_920_" points="364.2,295.8 353.4,312.4 287.6,313.2 278.7,296.9        "/></g></g></g><g id="XMLID_891_"><g id="XMLID_892_"><g id="XMLID_905_"><g id="XMLID_915_"><polygon class="st2" id="XMLID_916_" points="305.7,155.5 298.2,144.3 292.3,155.6         "/></g><g id="XMLID_913_"><polygon class="st2" id="XMLID_914_" points="248,239.2 239.8,254.6 371.7,253.8 361.8,239.1         "/></g><g id="XMLID_911_"><polygon class="st2" id="XMLID_912_" points="319.1,175.5 308.1,159.1 290.4,159.1 281.7,175.6         "/></g><g id="XMLID_909_"><polygon class="st2" id="XMLID_910_" points="332.6,195.5 321.5,179.1 279.8,179.1 271.1,195.6         "/></g><g id="XMLID_907_"><polygon class="st2" id="XMLID_908_" points="359.4,235.5 348.4,219.1 258.6,219.2 249.8,235.7         "/></g><polygon class="st2" id="XMLID_906_" points="346,215.5 334.9,199.1 269.2,199.2 260.5,215.7        "/></g><g id="XMLID_893_"><g id="XMLID_903_"><polygon class="st2" id="XMLID_904_" points="307,356.4 299.7,367.7 293.6,356.5         "/></g><g id="XMLID_901_"><polygon class="st2" id="XMLID_902_" points="248.1,273.4 239.8,258.2 371.6,257.2 361.9,272.1         "/></g><g id="XMLID_899_"><polygon class="st2" id="XMLID_900_" points="320.2,336.2 309.4,352.8 291.7,353 282.7,336.6         "/></g><g id="XMLID_897_"><polygon class="st2" id="XMLID_898_" points="333.3,316 322.5,332.6 280.8,333.1 271.8,316.8         "/></g><g id="XMLID_895_"><polygon class="st2" id="XMLID_896_" points="359.6,275.6 348.8,292.2 259,293.3 250.1,277         "/></g><polygon class="st2" id="XMLID_894_" points="346.5,295.8 335.6,312.4 269.9,313.2 260.9,296.9        "/></g></g></g></g></g><g><g id="XMLID_983_"><g id="XMLID_1010_"><g id="XMLID_1011_"><g id="XMLID_1024_"><g id="XMLID_1034_"><polygon class="st0" id="XMLID_1035_" points="440,155.5 432.5,144.3 426.6,155.6         "/></g><g id="XMLID_1032_"><polygon class="st0" id="XMLID_1033_" points="382.3,239.2 374.2,254.6 506,253.8 496.1,239.1         "/></g><g id="XMLID_1030_"><polygon class="st0" id="XMLID_1031_" points="453.5,175.5 442.4,159.1 424.7,159.1 416,175.6         "/></g><g id="XMLID_1028_"><polygon class="st0" id="XMLID_1029_" points="466.9,195.5 455.8,179.1 414.1,179.1 405.4,195.6         "/></g><g id="XMLID_1026_"><polygon class="st0" id="XMLID_1027_" points="493.7,235.5 482.7,219.1 392.9,219.2 384.2,235.7         "/></g><polygon class="st0" id="XMLID_1025_" points="480.3,215.5 469.3,199.1 403.5,199.2 394.8,215.7        "/></g><g id="XMLID_1012_"><g id="XMLID_1022_"><polygon class="st0" id="XMLID_1023_" points="441.4,356.4 434,367.7 427.9,356.5         "/></g><g id="XMLID_1020_"><polygon class="st0" id="XMLID_1021_" points="382.5,273.4 374.1,258.2 506,257.2 496.3,272.1         "/></g><g id="XMLID_1018_"><polygon class="st0" id="XMLID_1019_" points="454.5,336.2 443.7,352.8 426,353 417,336.6         "/></g><g id="XMLID_1016_"><polygon class="st0" id="XMLID_1017_" points="467.6,316 456.8,332.6 415.1,333.1 406.2,316.8         "/></g><g id="XMLID_1014_"><polygon class="st0" id="XMLID_1015_" points="493.9,275.6 483.1,292.2 393.3,293.3 384.4,277         "/></g><polygon class="st0" id="XMLID_1013_" points="480.8,295.8 470,312.4 404.2,313.2 395.3,296.9        "/></g></g></g><g id="XMLID_984_"><g id="XMLID_985_"><g id="XMLID_998_"><g id="XMLID_1008_"><polygon class="st0" id="XMLID_1009_" points="422.3,155.5 414.8,144.3 408.9,155.6         "/></g><g id="XMLID_1006_"><polygon class="st0" id="XMLID_1007_" points="364.6,239.2 356.4,254.6 488.3,253.8 478.4,239.1         "/></g><g id="XMLID_1004_"><polygon class="st0" id="XMLID_1005_" points="435.8,175.5 424.7,159.1 407,159.1 398.3,175.6         "/></g><g id="XMLID_1002_"><polygon class="st0" id="XMLID_1003_" points="449.2,195.5 438.1,179.1 396.4,179.1 387.7,195.6         "/></g><g id="XMLID_1000_"><polygon class="st0" id="XMLID_1001_" points="476,235.5 465,219.1 375.2,219.2 366.5,235.7         "/></g><polygon class="st0" id="XMLID_999_" points="462.6,215.5 451.6,199.1 385.8,199.2 377.1,215.7        "/></g><g id="XMLID_986_"><g id="XMLID_996_"><polygon class="st0" id="XMLID_997_" points="423.7,356.4 416.3,367.7 410.2,356.5         "/></g><g id="XMLID_994_"><polygon class="st0" id="XMLID_995_" points="364.8,273.4 356.4,258.2 488.3,257.2 478.6,272.1         "/></g><g id="XMLID_992_"><polygon class="st0" id="XMLID_993_" points="436.8,336.2 426,352.8 408.3,353 399.3,336.6         "/></g><g id="XMLID_990_"><polygon class="st0" id="XMLID_991_" points="449.9,316 439.1,332.6 397.4,333.1 388.4,316.8         "/></g><g id="XMLID_988_"><polygon class="st0" id="XMLID_989_" points="476.2,275.6 465.4,292.2 375.6,293.3 366.7,277         "/></g><polygon class="st0" id="XMLID_987_" points="463.1,295.8 452.3,312.4 386.5,313.2 377.6,296.9        "/></g></g></g></g></g></g></g></svg>