<?xml version="1.0" ?><svg id="Layer_1" style="enable-background:new 0 0 512 512;" version="1.1" viewBox="0 0 512 512" xml:space="preserve" xmlns="http://www.w3.org/2000/svg" xmlns:xlink="http://www.w3.org/1999/xlink"><style type="text/css">
	.st0{fill:#152D39;}
	.st1{fill:#E8E8E8;}
	.st2{fill:#5CB8CD;}
	.st3{fill:#FB8A52;}
	.st4{fill:#BB0D48;}
</style><g><g><g><g><path class="st0" d="M64.3,120.2c-13.6-5.7-29.5,10.2-23.9,23.8c-13.7,5.6-13.7,28,0,33.7c-5.7,13.6,10.2,29.5,23.8,23.9      c5.6,13.7,28,13.7,33.7,0c13.6,5.7,29.5-10.2,23.9-23.8c13.7-5.6,13.7-28,0-33.7c5.7-13.6-10.2-29.5-23.8-23.9      C92.4,106.6,70,106.6,64.3,120.2z M94.6,128.5c10.9-4.5,23.5,8.1,19,19c10.9,4.5,10.9,22.4,0,26.9c4.5,10.9-8.1,23.5-19,19      c-4.5,10.9-22.4,10.9-26.9,0c-10.9,4.5-23.5-8.1-19-19c-10.9-4.5-10.9-22.4,0-26.9c-4.5-10.9,8.1-23.5,19-19      C72.2,117.6,90.1,117.6,94.6,128.5z"/><path class="st1" d="M70.5,135.2c-8.6-3.6-18.6,6.4-15.1,15.1c-8.6,3.6-8.6,17.7,0,21.3      c-3.6,8.6,6.4,18.6,15.1,15.1c3.6,8.6,17.7,8.6,21.3,0c8.6,3.6,18.6-6.4,15.1-15.1c8.6-3.6,8.6-17.7,0-21.3      c3.6-8.6-6.4-18.6-15.1-15.1C88.2,126.6,74.1,126.6,70.5,135.2z" id="XMLID_61_"/></g><rect class="st0" height="50.5" id="XMLID_56_" width="8.3" x="77" y="208.3"/></g><g><g><path class="st2" d="M297.5,120.2c-13.6-5.7-29.5,10.2-23.9,23.8c-13.7,5.6-13.7,28,0,33.7c-5.7,13.6,10.2,29.5,23.8,23.9      c5.6,13.7,28,13.7,33.7,0c13.6,5.7,29.5-10.2,23.9-23.8c13.7-5.6,13.7-28,0-33.7c5.7-13.6-10.2-29.5-23.8-23.9      C325.5,106.6,303.1,106.6,297.5,120.2z M327.8,128.5c10.9-4.5,23.5,8.1,19,19c10.9,4.5,10.9,22.4,0,26.9      c4.5,10.9-8.1,23.5-19,19c-4.5,10.9-22.4,10.9-26.9,0c-10.9,4.5-23.5-8.1-19-19c-10.9-4.5-10.9-22.4,0-26.9      c-4.5-10.9,8.1-23.5,19-19C305.4,117.6,323.2,117.6,327.8,128.5z"/><path class="st1" d="M303.6,135.2c-8.6-3.6-18.6,6.4-15.1,15.1c-8.6,3.6-8.6,17.7,0,21.3      c-3.6,8.6,6.4,18.6,15.1,15.1c3.6,8.6,17.7,8.6,21.3,0c8.6,3.6,18.6-6.4,15.1-15.1c8.6-3.6,8.6-17.7,0-21.3      c3.6-8.6-6.4-18.6-15.1-15.1C321.4,126.6,307.2,126.6,303.6,135.2z" id="XMLID_26_"/></g><rect class="st2" height="50.5" id="XMLID_25_" width="8.3" x="310.2" y="208.3"/></g><g><g><path class="st3" d="M214.6,391.7c13.7,5.6,29.5-10.2,23.8-23.9c13.6-5.7,13.6-28.1,0-33.7c5.6-13.7-10.2-29.5-23.9-23.8      c-5.7-13.6-28.1-13.6-33.7,0c-13.7-5.6-29.5,10.2-23.8,23.9c-13.6,5.7-13.6,28.1,0,33.7c-5.6,13.7,10.2,29.5,23.9,23.8      C186.5,405.4,208.9,405.4,214.6,391.7z M184.3,383.5c-10.9,4.5-23.5-8.1-19-19c-10.9-4.5-10.9-22.4,0-26.9      c-4.5-10.9,8.1-23.5,19-19c4.5-10.9,22.4-10.9,26.9,0c10.9-4.5,23.5,8.1,19,19c10.9,4.5,10.9,22.4,0,26.9      c4.5,10.9-8.1,23.5-19,19C206.7,394.4,188.8,394.4,184.3,383.5z"/><path class="st1" d="M187.1,376.8c-8.6,3.6-18.6-6.4-15.1-15.1c-8.6-3.6-8.6-17.7,0-21.3      c-3.6-8.6,6.4-18.6,15.1-15.1c3.6-8.6,17.7-8.6,21.3,0c8.6-3.6,18.6,6.4,15.1,15.1c8.6,3.6,8.6,17.7,0,21.3      c3.6,8.6-6.4,18.6-15.1,15.1C204.8,385.4,190.7,385.4,187.1,376.8z" id="XMLID_18_"/></g><rect class="st3" height="50.5" id="XMLID_17_" width="8.3" x="193.6" y="253.2"/></g><g><g><path class="st4" d="M447.8,391.7c13.7,5.6,29.5-10.2,23.8-23.9c13.6-5.7,13.6-28.1,0-33.7c5.6-13.7-10.2-29.5-23.9-23.8      c-5.7-13.6-28.1-13.6-33.7,0c-13.7-5.6-29.5,10.2-23.8,23.9c-13.6,5.7-13.6,28.1,0,33.7c-5.6,13.7,10.2,29.5,23.9,23.8      C419.7,405.4,442.1,405.4,447.8,391.7z M417.5,383.5c-10.9,4.5-23.5-8.1-19-19c-10.9-4.5-10.9-22.4,0-26.9      c-4.5-10.9,8.1-23.5,19-19c4.5-10.9,22.4-10.9,26.9,0c10.9-4.5,23.5,8.1,19,19c10.9,4.5,10.9,22.4,0,26.9      c4.5,10.9-8.1,23.5-19,19C439.8,394.4,422,394.4,417.5,383.5z"/><path class="st1" d="M420.2,376.8c-8.6,3.6-18.6-6.4-15.1-15.1c-8.6-3.6-8.6-17.7,0-21.3      c-3.6-8.6,6.4-18.6,15.1-15.1c3.6-8.6,17.7-8.6,21.3,0c8.6-3.6,18.6,6.4,15.1,15.1c8.6,3.6,8.6,17.7,0,21.3      c3.6,8.6-6.4,18.6-15.1,15.1C438,385.4,423.8,385.4,420.2,376.8z" id="XMLID_13_"/></g><rect class="st4" height="50.5" id="XMLID_12_" width="8.3" x="426.7" y="253.2"/></g><g><polygon class="st1" id="XMLID_11_" points="25.3,259.1 58.9,259.1 58.9,258.7 172.5,258.7 172.5,259.1 492.7,259.1 492.7,253.2      25.3,253.2    "/><circle class="st1" cx="17.2" cy="256.1" id="XMLID_10_" r="11.2"/><circle class="st1" cx="494.8" cy="256.1" id="XMLID_9_" r="11.2"/></g></g><path class="st0" d="M86.8,167.3H75.5l-2.7,7.8h-4.2l10.9-30.1H83L93.6,175h-4.2L86.8,167.3z M76.7,163.9h9l-4.4-12.9h-0.1   L76.7,163.9z"/><path class="st2" d="M305.9,178.1v-34.4h11.2c3.6,0,6.4,0.8,8.4,2.3c2,1.6,3,3.9,3,7c0,1.5-0.5,2.8-1.4,4c-0.9,1.2-2.1,2.1-3.6,2.7   c2.3,0.3,4,1.3,5.3,2.9c1.3,1.6,2,3.6,2,5.8c0,3.1-1,5.6-3.1,7.2c-2,1.7-4.8,2.5-8.3,2.5H305.9z M310.6,158.4h7.5   c1.7,0,3.1-0.5,4.2-1.4c1.1-1,1.6-2.3,1.6-4c0-1.9-0.6-3.2-1.8-4.2c-1.2-0.9-2.9-1.4-5.1-1.4h-6.6V158.4z M310.6,162v12.5h9   c2.1,0,3.8-0.5,4.9-1.6c1.2-1,1.8-2.5,1.8-4.5c0-1.9-0.6-3.4-1.8-4.6c-1.2-1.2-2.8-1.8-4.8-1.9h-0.3H310.6z"/><path class="st3" d="M209,355.3l0,0.1c0.1,3.1-1,5.7-3.3,7.8c-2.3,2.1-5.2,3.2-8.9,3.2c-3.8,0-6.8-1.3-9.2-4   c-2.4-2.7-3.6-6.1-3.6-10.2v-5.9c0-4.1,1.2-7.5,3.6-10.2c2.4-2.7,5.4-4,9.2-4c3.8,0,6.8,1,9,3c2.2,2,3.3,4.7,3.2,8l0,0.1h-4.3   c0-2.3-0.7-4.2-2.1-5.5c-1.4-1.4-3.3-2-5.8-2c-2.5,0-4.5,1-6,3c-1.5,2-2.2,4.5-2.2,7.5v6c0,3,0.7,5.6,2.2,7.6c1.5,2,3.5,3,6,3   c2.5,0,4.4-0.7,5.8-2c1.4-1.3,2.1-3.2,2.1-5.6H209z"/><path class="st4" d="M420.4,366.9v-33.4h10.5c4.4,0,7.9,1.3,10.5,4c2.7,2.7,4,6.2,4,10.4v4.6c0,4.3-1.3,7.7-4,10.4   c-2.7,2.7-6.2,4-10.5,4H420.4z M424.9,337v26.3h6c3.1,0,5.5-1,7.3-3.1c1.8-2,2.7-4.6,2.7-7.8v-4.6c0-3.1-0.9-5.7-2.7-7.8   c-1.8-2-4.2-3.1-7.3-3.1H424.9z"/></g></svg>