<?xml version="1.0" ?><svg id="Layer_1" style="enable-background:new 0 0 512 512;" version="1.1" viewBox="0 0 512 512" xml:space="preserve" xmlns="http://www.w3.org/2000/svg" xmlns:xlink="http://www.w3.org/1999/xlink"><style type="text/css">
	.st0{fill:#152D39;}
	.st1{fill:#FB8A52;}
	.st2{fill:#5CB8CD;}
	.st3{fill:#BB0D48;}
	.st4{fill:#E8E8E8;}
	.st5{fill:#FFFFFF;}
</style><g><g><g><path class="st0" d="M270.6,274.1l69.5-77.4c6.1-6.7,7.4-16.5,3.5-24.6L276.1,32.9c-8.1-16.7-32-16.7-40.1,0     l-73.4,151.1c-4.3,8.9-2.3,19.5,5,26.2l71.5,65.4C248.1,284,262.4,283.3,270.6,274.1z" id="XMLID_11_"/><path class="st1" d="M333.4,221.2l-66,73.5c-3.7,4.1-5.7,9.4-5.7,14.9v159.8c0,12.3,10,22.3,22.3,22.3h179.3     c16.5,0,27.2-17.2,20.1-32L370,226.4C363.1,212.1,343.9,209.4,333.4,221.2z" id="XMLID_10_"/><path class="st2" d="M243.1,294.7l-70.9-64.9c-11-10.1-28.6-6.7-35.1,6.7L28.7,459.6c-7.2,14.8,3.6,32,20.1,32H228     c12.3,0,22.3-10,22.3-22.3V311.2C250.3,304.9,247.7,299,243.1,294.7z" id="XMLID_9_"/></g><g><path class="st3" d="M256,375.4c-50.9,0-92.2-41.4-92.2-92.2S205.1,191,256,191s92.2,41.4,92.2,92.2     S306.9,375.4,256,375.4z" id="XMLID_8_"/><circle class="st4" cx="256" cy="283.2" id="XMLID_7_" r="79.1"/></g></g><path class="st5" d="M261.5,163.5h-11.3l-2.7,7.8h-4.2l10.9-30.1h3.5l10.6,30.1h-4.2L261.5,163.5z M251.3,160.1h9l-4.4-12.9h-0.1   L251.3,160.1z"/><g><path class="st5" d="M138.6,408.6v-34.4h11.2c3.6,0,6.4,0.8,8.4,2.3c2,1.6,3,3.9,3,7c0,1.5-0.5,2.8-1.4,4    c-0.9,1.2-2.1,2.1-3.6,2.7c2.3,0.3,4,1.3,5.3,2.9c1.3,1.6,2,3.6,2,5.8c0,3.1-1,5.6-3.1,7.2c-2,1.7-4.8,2.5-8.3,2.5H138.6z     M143.3,388.9h7.5c1.7,0,3.1-0.5,4.2-1.4c1.1-1,1.6-2.3,1.6-4c0-1.9-0.6-3.2-1.8-4.2c-1.2-0.9-2.9-1.4-5.1-1.4h-6.6V388.9z     M143.3,392.5V405h9c2.1,0,3.8-0.5,4.9-1.6c1.2-1,1.8-2.5,1.8-4.5c0-1.9-0.6-3.4-1.8-4.6c-1.2-1.2-2.8-1.8-4.8-1.9H152H143.3z"/><path class="st5" d="M372.9,397.4l0,0.1c0.1,3.1-1,5.7-3.3,7.8c-2.3,2.1-5.2,3.2-8.9,3.2c-3.8,0-6.8-1.3-9.2-4    c-2.4-2.7-3.6-6.1-3.6-10.2v-5.9c0-4.1,1.2-7.5,3.6-10.2c2.4-2.7,5.4-4,9.2-4c3.8,0,6.8,1,9,3c2.2,2,3.3,4.7,3.2,8l0,0.1h-4.3    c0-2.3-0.7-4.2-2.1-5.5c-1.4-1.4-3.3-2-5.8-2c-2.5,0-4.5,1-6,3c-1.5,2-2.2,4.5-2.2,7.5v6c0,3,0.7,5.6,2.2,7.6c1.5,2,3.5,3,6,3    c2.5,0,4.4-0.7,5.8-2c1.4-1.3,2.1-3.2,2.1-5.6H372.9z"/></g></g></svg>