<?xml version="1.0" ?><svg id="Layer_1" style="enable-background:new 0 0 512 512;" version="1.1" viewBox="0 0 512 512" xml:space="preserve" xmlns="http://www.w3.org/2000/svg" xmlns:xlink="http://www.w3.org/1999/xlink"><style type="text/css">
	.st0{fill:#E8E8E8;}
	.st1{fill:#FB8A52;}
	.st2{fill:#5CB8CD;}
	.st3{fill:#BB0D48;}
	.st4{fill:#152D39;}
</style><g><g><g id="XMLID_124_"><g id="XMLID_127_"><rect class="st0" height="5.7" id="XMLID_128_" width="454.7" x="19" y="253.7"/></g><circle class="st0" cx="481.5" cy="256.5" id="XMLID_126_" r="10.9"/><circle class="st0" cx="16.9" cy="256.5" id="XMLID_125_" r="10.9"/></g></g><g><path class="st1" d="M297.4,331.8L297.4,331.8c0.1,1.9-0.6,3.5-1.9,4.8c-1.3,1.3-3.1,1.9-5.3,1.9c-2.2,0-4.1-0.8-5.5-2.4    c-1.4-1.6-2.1-3.6-2.1-6.1v-3.5c0-2.4,0.7-4.5,2.1-6.1c1.4-1.6,3.2-2.4,5.5-2.4c2.2,0,4,0.6,5.4,1.8c1.3,1.2,2,2.8,1.9,4.8l0,0.1    h-2.6c0-1.4-0.4-2.5-1.2-3.3c-0.8-0.8-2-1.2-3.5-1.2c-1.5,0-2.7,0.6-3.6,1.8c-0.9,1.2-1.3,2.7-1.3,4.5v3.6c0,1.8,0.4,3.3,1.3,4.5    c0.9,1.2,2.1,1.8,3.6,1.8c1.5,0,2.6-0.4,3.5-1.2c0.8-0.8,1.2-1.9,1.2-3.3H297.4z"/><g><rect class="st0" height="41.8" id="XMLID_62_" width="5.7" x="193.9" y="253.9"/><g><g><g><path class="st1" d="M233.3,312c0.3,0,0.5-0.1,0.7-0.2c2.2,5,3.5,10.6,3.5,16.5c0,16.1-9.3,30-22.8,36.6V312        H233.3z" id="XMLID_61_"/><path class="st1" d="M180.4,310.3v-18.6c0-0.3-0.1-0.5-0.2-0.7c5-2.2,10.6-3.5,16.5-3.5        c16.1,0,30,9.3,36.6,22.8H180.4z" id="XMLID_60_"/><path class="st1" d="M160.1,344.5c-0.3,0-0.5,0.1-0.7,0.2c-2.2-5-3.5-10.6-3.5-16.5c0-16.1,9.3-30,22.8-36.6        v52.9H160.1z" id="XMLID_59_"/><path class="st1" d="M213,364.8c0,0.3,0.1,0.5,0.2,0.7c-5,2.2-10.6,3.5-16.5,3.5c-16.1,0-30-9.3-36.6-22.8H213        V364.8z" id="XMLID_58_"/></g><g><path class="st0" d="M225,328.2c0,15.6-12.7,28.3-28.3,28.3s-28.3-12.7-28.3-28.3c0-15.6,12.7-28.3,28.3-28.3        S225,312.7,225,328.2z M222.6,328.2c0-14.3-11.6-25.9-25.9-25.9c-14.3,0-25.9,11.6-25.9,25.9c0,14.3,11.6,25.9,25.9,25.9        C211,354.1,222.6,342.5,222.6,328.2z"/></g></g><g><path class="st0" d="M217.2,328.2c0,11.3-9.2,20.5-20.5,20.5s-20.5-9.2-20.5-20.5c0-11.3,9.2-20.5,20.5-20.5       S217.2,316.9,217.2,328.2z M215.5,328.2c0-10.4-8.4-18.8-18.8-18.8s-18.8,8.4-18.8,18.8c0,10.4,8.4,18.8,18.8,18.8       S215.5,338.6,215.5,328.2z"/></g></g><g><polygon class="st0" id="XMLID_53_" points="264.9,328.2 264.9,338 271.4,333.1 277.9,328.2 271.4,323.4 264.9,318.5     "/><rect class="st0" height="21.1" id="XMLID_52_" transform="matrix(-2.194689e-003 -1 1 -2.194689e-003 -72.1761 584.5118)" width="3.9" x="253.6" y="317.7"/></g></g></g><g><path class="st2" d="M384.5,194.1v-20.4h6.7c2.1,0,3.8,0.5,5,1.4c1.2,0.9,1.8,2.3,1.8,4.1c0,0.9-0.3,1.7-0.8,2.4    c-0.5,0.7-1.3,1.2-2.2,1.6c1.3,0.2,2.4,0.8,3.2,1.7c0.8,1,1.2,2.1,1.2,3.4c0,1.9-0.6,3.3-1.8,4.3c-1.2,1-2.9,1.5-4.9,1.5H384.5z     M387.2,182.4h4.5c1,0,1.9-0.3,2.5-0.8c0.6-0.6,1-1.4,1-2.4c0-1.1-0.3-1.9-1-2.5c-0.7-0.5-1.7-0.8-3-0.8h-3.9V182.4z M387.2,184.5    v7.4h5.3c1.3,0,2.2-0.3,2.9-0.9c0.7-0.6,1-1.5,1-2.6c0-1.1-0.4-2-1.1-2.7c-0.7-0.7-1.7-1.1-2.9-1.1h-0.2H387.2z"/><g><rect class="st0" height="41.8" id="XMLID_48_" width="5.7" x="298.5" y="216.3"/><g><g><g><path class="st2" d="M337.9,200c0.3,0,0.5,0.1,0.7,0.2c2.2-5,3.5-10.6,3.5-16.5c0-16.1-9.3-30-22.8-36.6V200        H337.9z" id="XMLID_42_"/><path class="st2" d="M285,201.7v18.6c0,0.3-0.1,0.5-0.2,0.7c5,2.2,10.6,3.5,16.5,3.5c16.1,0,30-9.3,36.6-22.8        H285z" id="XMLID_41_"/><path class="st2" d="M264.7,167.5c-0.3,0-0.5-0.1-0.7-0.2c-2.2,5-3.5,10.6-3.5,16.5c0,16.1,9.3,30,22.8,36.6        v-52.9H264.7z" id="XMLID_40_"/><path class="st2" d="M317.6,147.2c0-0.3,0.1-0.5,0.2-0.7c-5-2.2-10.6-3.5-16.5-3.5c-16.1,0-30,9.3-36.6,22.8        h52.9V147.2z" id="XMLID_39_"/></g><g><path class="st0" d="M301.3,212c-15.6,0-28.3-12.7-28.3-28.3c0-15.6,12.7-28.3,28.3-28.3s28.3,12.7,28.3,28.3        C329.6,199.3,316.9,212,301.3,212z M301.3,157.9c-14.3,0-25.9,11.6-25.9,25.9s11.6,25.9,25.9,25.9c14.3,0,25.9-11.6,25.9-25.9        S315.6,157.9,301.3,157.9z"/></g></g><g><path class="st0" d="M301.3,204.3c-11.3,0-20.5-9.2-20.5-20.5c0-11.3,9.2-20.5,20.5-20.5s20.5,9.2,20.5,20.5       C321.8,195.1,312.6,204.3,301.3,204.3z M301.3,165c-10.4,0-18.8,8.4-18.8,18.8c0,10.4,8.4,18.8,18.8,18.8       c10.4,0,18.8-8.4,18.8-18.8C320.1,173.4,311.7,165,301.3,165z"/></g></g><g><polygon class="st0" id="XMLID_33_" points="369.5,183.8 369.5,174 376,178.9 382.5,183.8 376,188.6 369.5,193.5     "/><rect class="st0" height="21.1" id="XMLID_32_" transform="matrix(-2.194689e-003 1 -1 -2.194689e-003 544.6711 -176.0066)" width="3.9" x="358.2" y="173.2"/></g></g></g><g><path class="st3" d="M490.7,338.5V318h6.4c2.7,0,4.8,0.8,6.4,2.5c1.6,1.6,2.4,3.8,2.4,6.4v2.8c0,2.6-0.8,4.7-2.4,6.4    c-1.6,1.6-3.8,2.4-6.4,2.4H490.7z M493.5,320.2v16.1h3.7c1.9,0,3.4-0.6,4.5-1.9c1.1-1.2,1.6-2.8,1.6-4.8v-2.8    c0-1.9-0.5-3.5-1.6-4.8c-1.1-1.2-2.6-1.9-4.5-1.9H493.5z"/><g><rect class="st0" height="41.8" id="XMLID_25_" width="5.7" x="402.9" y="253.9"/><g><g><g><path class="st3" d="M442.3,312c0.3,0,0.5-0.1,0.7-0.2c2.2,5,3.5,10.6,3.5,16.5c0,16.1-9.3,30-22.8,36.6V312        H442.3z" id="XMLID_24_"/><path class="st3" d="M389.4,310.3v-18.6c0-0.3-0.1-0.5-0.2-0.7c5-2.2,10.6-3.5,16.5-3.5        c16.1,0,30,9.3,36.6,22.8H389.4z" id="XMLID_23_"/><path class="st3" d="M369.1,344.5c-0.3,0-0.5,0.1-0.7,0.2c-2.2-5-3.5-10.6-3.5-16.5c0-16.1,9.3-30,22.8-36.6        v52.9H369.1z" id="XMLID_21_"/><path class="st3" d="M422,364.8c0,0.3,0.1,0.5,0.2,0.7c-5,2.2-10.6,3.5-16.5,3.5c-16.1,0-30-9.3-36.6-22.8H422        V364.8z" id="XMLID_20_"/></g><g><path class="st0" d="M434,328.2c0,15.6-12.7,28.3-28.3,28.3s-28.3-12.7-28.3-28.3c0-15.6,12.7-28.3,28.3-28.3        S434,312.7,434,328.2z M431.5,328.2c0-14.3-11.6-25.9-25.9-25.9c-14.3,0-25.9,11.6-25.9,25.9c0,14.3,11.6,25.9,25.9,25.9        C419.9,354.1,431.5,342.5,431.5,328.2z"/></g></g><g><path class="st0" d="M426.2,328.2c0,11.3-9.2,20.5-20.5,20.5s-20.5-9.2-20.5-20.5c0-11.3,9.2-20.5,20.5-20.5       S426.2,316.9,426.2,328.2z M424.5,328.2c0-10.4-8.4-18.8-18.8-18.8s-18.8,8.4-18.8,18.8c0,10.4,8.4,18.8,18.8,18.8       S424.5,338.6,424.5,328.2z"/></g></g><g><polygon class="st0" id="XMLID_15_" points="473.9,328.2 473.9,338 480.4,333.1 486.9,328.2 480.4,323.4 473.9,318.5     "/><rect class="st0" height="21.1" id="XMLID_14_" transform="matrix(-2.194689e-003 -1 1 -2.194689e-003 137.2769 793.5055)" width="3.9" x="462.6" y="317.7"/></g></g></g><g><g><rect class="st0" height="41.8" id="XMLID_13_" width="5.7" x="89.5" y="216.3"/><g><g><g><path class="st4" d="M128.9,200c0.3,0,0.5,0.1,0.7,0.2c2.2-5,3.5-10.6,3.5-16.5c0-16.1-9.3-30-22.8-36.6V200        H128.9z" id="XMLID_12_"/><path class="st4" d="M76,201.7v18.6c0,0.3-0.1,0.5-0.2,0.7c5,2.2,10.6,3.5,16.5,3.5c16.1,0,30-9.3,36.6-22.8        H76z" id="XMLID_11_"/><path class="st4" d="M55.7,167.5c-0.3,0-0.5-0.1-0.7-0.2c-2.2,5-3.5,10.6-3.5,16.5c0,16.1,9.3,30,22.8,36.6        v-52.9H55.7z" id="XMLID_10_"/><path class="st4" d="M108.6,147.2c0-0.3,0.1-0.5,0.2-0.7c-5-2.2-10.6-3.5-16.5-3.5c-16.1,0-30,9.3-36.6,22.8        h52.9V147.2z" id="XMLID_9_"/></g><g><path class="st0" d="M92.3,212C76.7,212,64,199.3,64,183.8c0-15.6,12.7-28.3,28.3-28.3s28.3,12.7,28.3,28.3        C120.6,199.3,107.9,212,92.3,212z M92.3,157.9c-14.3,0-25.9,11.6-25.9,25.9s11.6,25.9,25.9,25.9s25.9-11.6,25.9-25.9        S106.6,157.9,92.3,157.9z"/></g></g><g><path class="st0" d="M92.3,204.3c-11.3,0-20.5-9.2-20.5-20.5c0-11.3,9.2-20.5,20.5-20.5s20.5,9.2,20.5,20.5       C112.8,195.1,103.6,204.3,92.3,204.3z M92.3,165c-10.4,0-18.8,8.4-18.8,18.8c0,10.4,8.4,18.8,18.8,18.8s18.8-8.4,18.8-18.8       C111.1,173.4,102.7,165,92.3,165z"/></g></g><g><polygon class="st0" id="XMLID_4_" points="160.5,183.8 160.5,174 167,178.9 173.5,183.8 167,188.6 160.5,193.5     "/><rect class="st0" height="21.1" id="XMLID_3_" transform="matrix(-2.194689e-003 1 -1 -2.194689e-003 335.2181 32.9872)" width="3.9" x="149.2" y="173.2"/></g></g><path class="st4" d="M186.8,188.7h-7.7l-1.8,5.3h-2.8l7.4-20.4h2.4l7.2,20.4h-2.8L186.8,188.7z M179.9,186.4h6.1l-3-8.8H183    L179.9,186.4z"/></g></g></svg>