<?xml version="1.0" ?><svg id="Layer_1" style="enable-background:new 0 0 512 512;" version="1.1" viewBox="0 0 512 512" xml:space="preserve" xmlns="http://www.w3.org/2000/svg" xmlns:xlink="http://www.w3.org/1999/xlink"><style type="text/css">
	.st0{fill:#152D39;}
	.st1{fill:#E8E8E8;}
	.st2{fill:#5CB8CD;}
	.st3{fill:#FB8A52;}
	.st4{fill:#BB0D48;}
</style><g><g><g><g><polygon class="st0" id="XMLID_60_" points="113.2,279.5 72.3,285.3 72.3,285.3 72.2,285.3 72.1,285.3 72.1,285.3 50.9,285.3       83.1,309.4     "/><polygon class="st0" id="XMLID_59_" points="30.8,243.9 30.8,243.9 46,228.7 6.1,234.4 6,277     "/><polygon class="st0" id="XMLID_58_" points="81.1,310.1 47.9,285.3 48,285.3 32.9,270.2 38.6,310     "/><polygon class="st0" id="XMLID_57_" points="89.4,268.1 89.4,268.1 89.4,268.2 89.3,268.3 89.3,268.3 74.4,283.2 114.1,277.6       114.3,235     "/><polygon class="st0" id="XMLID_56_" points="48.1,226.6 48.1,226.7 69.3,226.7 37.2,202.6 7,232.5     "/><polygon class="st0" id="XMLID_55_" points="30.8,268.1 30.8,268.1 30.8,246.8 6.7,279 36.7,309.1     "/><polygon class="st0" id="XMLID_54_" points="72.2,226.7 72.3,226.7 87.5,241.9 82.8,202.1 82.6,201.9 39.2,201.9     "/><polygon class="st0" id="XMLID_53_" points="113.6,233 84.8,204.1 89.5,243.8 89.4,243.8 89.4,243.9 89.4,265.2     "/></g><g><path class="st1" d="M72.7,286.4H47.5l-17.8-17.8v-25.2l17.8-17.8h25.2l17.8,17.8v25.2L72.7,286.4z M48.4,284.2h23.4l16.5-16.5      v-23.4l-16.5-16.5H48.4l-16.5,16.5v23.4L48.4,284.2z"/></g><g><path class="st1" d="M72.7,286.4H47.5l-17.8-17.8v-25.2l17.8-17.8h25.2l17.8,17.8v25.2L72.7,286.4z M48.4,284.2h23.4l16.5-16.5      v-23.4l-16.5-16.5H48.4l-16.5,16.5v23.4L48.4,284.2z"/></g><g><path class="st1" d="M69,277.3H51.3l-12.5-12.5v-17.7l12.5-12.5H69l12.5,12.5v17.7L69,277.3z"/></g></g><path class="st0" d="M65.8,263.3H54.5l-2.7,7.8h-4.2l10.9-30.1H62l10.6,30.1h-4.2L65.8,263.3z M55.7,259.9h9L60.3,247h-0.1    L55.7,259.9z"/></g><g><g><g><polygon class="st2" id="XMLID_45_" points="243.8,279.5 202.9,285.3 202.9,285.3 202.8,285.3 202.7,285.3 202.7,285.3       181.5,285.3 213.7,309.4     "/><polygon class="st2" id="XMLID_44_" points="161.4,243.9 161.4,243.9 176.5,228.7 136.7,234.4 136.6,277     "/><polygon class="st2" id="XMLID_43_" points="211.7,310.1 178.5,285.3 178.5,285.3 163.5,270.2 169.2,310     "/><polygon class="st2" id="XMLID_42_" points="220,268.1 220,268.1 219.9,268.2 219.9,268.3 219.8,268.3 204.9,283.2 244.7,277.6       244.8,235     "/><polygon class="st2" id="XMLID_41_" points="178.7,226.6 178.7,226.7 199.9,226.7 167.8,202.6 137.6,232.5     "/><polygon class="st2" id="XMLID_40_" points="161.4,268.1 161.4,268.1 161.4,246.8 137.3,279 167.3,309.1     "/><polygon class="st2" id="XMLID_39_" points="202.8,226.7 202.9,226.7 218.1,241.9 213.4,202.1 213.1,201.9 169.8,201.9     "/><polygon class="st2" id="XMLID_38_" points="244.1,233 215.4,204.1 220.1,243.8 219.9,243.8 220,243.9 220,265.2     "/></g><g><path class="st1" d="M203.3,286.4h-25.2l-17.8-17.8v-25.2l17.8-17.8h25.2l17.8,17.8v25.2L203.3,286.4z M179,284.2h23.4      l16.5-16.5v-23.4l-16.5-16.5H179l-16.5,16.5v23.4L179,284.2z"/></g><g><path class="st1" d="M203.3,286.4h-25.2l-17.8-17.8v-25.2l17.8-17.8h25.2l17.8,17.8v25.2L203.3,286.4z M179,284.2h23.4      l16.5-16.5v-23.4l-16.5-16.5H179l-16.5,16.5v23.4L179,284.2z"/></g><g><path class="st1" d="M199.5,277.3h-17.7l-12.5-12.5v-17.7l12.5-12.5h17.7l12.5,12.5v17.7L199.5,277.3z"/></g></g><path class="st2" d="M178.2,273.2v-34.4h11.2c3.6,0,6.4,0.8,8.4,2.3c2,1.6,3,3.9,3,7c0,1.5-0.5,2.8-1.4,4    c-0.9,1.2-2.1,2.1-3.6,2.7c2.3,0.3,4,1.3,5.3,2.9c1.3,1.6,2,3.6,2,5.8c0,3.1-1,5.6-3.1,7.2c-2,1.7-4.8,2.5-8.3,2.5H178.2z     M182.9,253.4h7.5c1.7,0,3.1-0.5,4.2-1.4c1.1-1,1.6-2.3,1.6-4c0-1.9-0.6-3.2-1.8-4.2c-1.2-0.9-2.9-1.4-5.1-1.4h-6.6V253.4z     M182.9,257.1v12.5h9c2.1,0,3.8-0.5,4.9-1.6c1.2-1,1.8-2.5,1.8-4.5c0-1.9-0.6-3.4-1.8-4.6c-1.2-1.2-2.8-1.8-4.8-1.9h-0.3H182.9z"/></g><g><g><g><polygon class="st3" id="XMLID_29_" points="374.4,279.5 333.4,285.3 333.4,285.3 333.4,285.3 333.3,285.3 333.3,285.3       312,285.3 344.2,309.4     "/><polygon class="st3" id="XMLID_28_" points="292,243.9 292,243.9 307.1,228.7 267.3,234.4 267.2,277     "/><polygon class="st3" id="XMLID_27_" points="342.2,310.1 309.1,285.3 309.1,285.3 294.1,270.2 299.7,310     "/><polygon class="st3" id="XMLID_26_" points="350.6,268.1 350.6,268.1 350.5,268.2 350.4,268.3 350.4,268.3 335.5,283.2       375.3,277.6 375.4,235     "/><polygon class="st3" id="XMLID_25_" points="309.2,226.6 309.2,226.7 330.4,226.7 298.3,202.6 268.2,232.5     "/><polygon class="st3" id="XMLID_24_" points="292,268.1 292,268.1 292,246.8 267.9,279 297.8,309.1     "/><polygon class="st3" id="XMLID_23_" points="333.4,226.7 333.4,226.7 348.6,241.9 344,202.1 343.7,201.9 300.3,201.9     "/><polygon class="st3" id="XMLID_22_" points="374.7,233 346,204.1 350.6,243.8 350.5,243.8 350.6,243.9 350.6,265.2     "/></g><g><path class="st1" d="M333.9,286.4h-25.2l-17.8-17.8v-25.2l17.8-17.8h25.2l17.8,17.8v25.2L333.9,286.4z M309.6,284.2H333      l16.5-16.5v-23.4L333,227.8h-23.4l-16.5,16.5v23.4L309.6,284.2z"/></g><g><path class="st1" d="M333.9,286.4h-25.2l-17.8-17.8v-25.2l17.8-17.8h25.2l17.8,17.8v25.2L333.9,286.4z M309.6,284.2H333      l16.5-16.5v-23.4L333,227.8h-23.4l-16.5,16.5v23.4L309.6,284.2z"/></g><g><path class="st1" d="M330.1,277.3h-17.7L300,264.8v-17.7l12.5-12.5h17.7l12.5,12.5v17.7L330.1,277.3z"/></g></g><path class="st3" d="M333.7,262l0,0.1c0.1,3.1-1,5.7-3.3,7.8c-2.3,2.1-5.2,3.2-8.9,3.2c-3.8,0-6.8-1.3-9.2-4    c-2.4-2.7-3.6-6.1-3.6-10.2V253c0-4.1,1.2-7.5,3.6-10.2c2.4-2.7,5.4-4,9.2-4c3.8,0,6.8,1,9,3c2.2,2,3.3,4.7,3.2,8l0,0.1h-4.3    c0-2.3-0.7-4.2-2.1-5.5c-1.4-1.4-3.3-2-5.8-2c-2.5,0-4.5,1-6,3c-1.5,2-2.2,4.5-2.2,7.5v6c0,3,0.7,5.6,2.2,7.6c1.5,2,3.5,3,6,3    c2.5,0,4.4-0.7,5.8-2c1.4-1.3,2.1-3.2,2.1-5.6H333.7z"/></g><g><g><g><polygon class="st4" id="XMLID_15_" points="505,279.5 464,285.3 464,285.3 464,285.3 463.9,285.3 463.9,285.3 442.6,285.3       474.8,309.4     "/><polygon class="st4" id="XMLID_14_" points="422.6,243.9 422.6,243.9 437.7,228.7 397.9,234.4 397.7,277     "/><polygon class="st4" id="XMLID_13_" points="472.8,310.1 439.7,285.3 439.7,285.3 424.6,270.2 430.3,310     "/><polygon class="st4" id="XMLID_12_" points="481.2,268.1 481.2,268.1 481.1,268.2 481,268.3 481,268.3 466.1,283.2 505.9,277.6       506,235     "/><polygon class="st4" id="XMLID_11_" points="439.8,226.6 439.8,226.7 461,226.7 428.9,202.6 398.8,232.5     "/><polygon class="st4" id="XMLID_10_" points="422.6,268.1 422.6,268.1 422.6,246.8 398.4,279 428.4,309.1     "/><polygon class="st4" id="XMLID_9_" points="464,226.7 464,226.7 479.2,241.9 474.6,202.1 474.3,201.9 430.9,201.9     "/><polygon class="st4" id="XMLID_8_" points="505.3,233 476.6,204.1 481.2,243.8 481.1,243.8 481.2,243.9 481.2,265.2     "/></g><g><path class="st1" d="M464.5,286.4h-25.2l-17.8-17.8v-25.2l17.8-17.8h25.2l17.8,17.8v25.2L464.5,286.4z M440.2,284.2h23.4      l16.5-16.5v-23.4l-16.5-16.5h-23.4l-16.5,16.5v23.4L440.2,284.2z"/></g><g><path class="st1" d="M464.5,286.4h-25.2l-17.8-17.8v-25.2l17.8-17.8h25.2l17.8,17.8v25.2L464.5,286.4z M440.2,284.2h23.4      l16.5-16.5v-23.4l-16.5-16.5h-23.4l-16.5,16.5v23.4L440.2,284.2z"/></g><g><path class="st1" d="M460.7,277.3H443l-12.5-12.5v-17.7l12.5-12.5h17.7l12.5,12.5v17.7L460.7,277.3z"/></g></g><path class="st4" d="M439.4,272.7v-33.4h10.5c4.4,0,7.9,1.3,10.5,4c2.7,2.7,4,6.2,4,10.4v4.6c0,4.3-1.3,7.7-4,10.4    c-2.7,2.7-6.2,4-10.5,4H439.4z M443.9,242.9v26.3h6c3.1,0,5.5-1,7.3-3.1c1.8-2,2.7-4.6,2.7-7.8v-4.6c0-3.1-0.9-5.7-2.7-7.8    c-1.8-2-4.2-3.1-7.3-3.1H443.9z"/></g></g></svg>