<?xml version="1.0" ?><svg id="Layer_1" style="enable-background:new 0 0 512 512;" version="1.1" viewBox="0 0 512 512" xml:space="preserve" xmlns="http://www.w3.org/2000/svg" xmlns:xlink="http://www.w3.org/1999/xlink"><style type="text/css">
	.st0{fill:#FB8A52;}
	.st1{fill:#E8E8E8;}
	.st2{fill:#5CB8CD;}
	.st3{fill:#BB0D48;}
	.st4{fill:#152D39;}
</style><g><g><g><g><path class="st0" d="M316.2,254.1l-37-37c-9.1,9.7-14.9,22.7-15.3,37H316.2z" id="XMLID_49_"/><path class="st0" d="M322.6,199.1v52.3l37-37C349.9,205.3,336.9,199.6,322.6,199.1z" id="XMLID_48_"/><path class="st0" d="M318.9,251.4v-52.3c-14.3,0.5-27.2,6.2-37,15.3L318.9,251.4z" id="XMLID_47_"/><path class="st0" d="M316.2,257.9h-52.3c0.5,14.3,6.2,27.2,15.3,37L316.2,257.9z" id="XMLID_46_"/><path class="st0" d="M318.9,260.6l-37,37c9.7,9.1,22.7,14.9,37,15.3V260.6z" id="XMLID_45_"/><path class="st0" d="M325.3,254.1h52.3c-0.5-14.3-6.2-27.2-15.3-37L325.3,254.1z" id="XMLID_44_"/><path class="st0" d="M322.6,260.6v52.3c14.3-0.5,27.2-6.2,37-15.3L322.6,260.6z" id="XMLID_43_"/><path class="st0" d="M325.3,257.9l37,37c9.1-9.7,14.9-22.7,15.3-37H325.3z" id="XMLID_42_"/></g><circle class="st1" cx="320.8" cy="256" id="XMLID_41_" r="23.4"/></g><path class="st0" d="M328.2,259.6L328.2,259.6c0.1,1.9-0.6,3.5-1.9,4.8c-1.3,1.3-3.1,1.9-5.3,1.9c-2.2,0-4.1-0.8-5.5-2.4    c-1.4-1.6-2.1-3.6-2.1-6.1v-3.5c0-2.4,0.7-4.5,2.1-6.1c1.4-1.6,3.2-2.4,5.5-2.4c2.2,0,4,0.6,5.4,1.8c1.3,1.2,2,2.8,1.9,4.8l0,0.1    h-2.6c0-1.4-0.4-2.5-1.2-3.3c-0.8-0.8-2-1.2-3.5-1.2c-1.5,0-2.7,0.6-3.6,1.8c-0.9,1.2-1.3,2.7-1.3,4.5v3.6c0,1.8,0.4,3.3,1.3,4.5    c0.9,1.2,2.1,1.8,3.6,1.8c1.5,0,2.6-0.4,3.5-1.2c0.8-0.8,1.2-1.9,1.2-3.3H328.2z"/></g><g><g><g><path class="st2" d="M186.7,254.1l-37-37c-9.1,9.7-14.9,22.7-15.3,37H186.7z" id="XMLID_39_"/><path class="st2" d="M193.1,199.1v52.3l37-37C220.4,205.3,207.4,199.6,193.1,199.1z" id="XMLID_38_"/><path class="st2" d="M189.4,251.4v-52.3c-14.3,0.5-27.2,6.2-37,15.3L189.4,251.4z" id="XMLID_37_"/><path class="st2" d="M186.7,257.9h-52.3c0.5,14.3,6.2,27.2,15.3,37L186.7,257.9z" id="XMLID_36_"/><path class="st2" d="M189.4,260.6l-37,37c9.7,9.1,22.7,14.9,37,15.3V260.6z" id="XMLID_35_"/><path class="st2" d="M195.8,254.1h52.3c-0.5-14.3-6.2-27.2-15.3-37L195.8,254.1z" id="XMLID_34_"/><path class="st2" d="M193.1,260.6v52.3c14.3-0.5,27.2-6.2,37-15.3L193.1,260.6z" id="XMLID_33_"/><path class="st2" d="M195.8,257.9l37,37c9.1-9.7,14.9-22.7,15.3-37H195.8z" id="XMLID_32_"/></g><circle class="st1" cx="191.2" cy="256" id="XMLID_31_" r="23.4"/></g><path class="st2" d="M183.8,266.2v-20.4h6.7c2.1,0,3.8,0.5,5,1.4c1.2,0.9,1.8,2.3,1.8,4.1c0,0.9-0.3,1.7-0.8,2.4    c-0.5,0.7-1.3,1.2-2.2,1.6c1.3,0.2,2.4,0.8,3.2,1.7c0.8,1,1.2,2.1,1.2,3.4c0,1.9-0.6,3.3-1.8,4.3c-1.2,1-2.9,1.5-4.9,1.5H183.8z     M186.6,254.5h4.5c1,0,1.9-0.3,2.5-0.8c0.6-0.6,1-1.4,1-2.4c0-1.1-0.3-1.9-1-2.5c-0.7-0.5-1.7-0.8-3-0.8h-3.9V254.5z M186.6,256.6    v7.4h5.3c1.3,0,2.2-0.3,2.9-0.9c0.7-0.6,1-1.5,1-2.6c0-1.1-0.4-2-1.1-2.7c-0.7-0.7-1.7-1.1-2.9-1.1h-0.2H186.6z"/></g><g><g><g><path class="st3" d="M445.7,254.1l-37-37c-9.1,9.7-14.9,22.7-15.3,37H445.7z" id="XMLID_23_"/><path class="st3" d="M452.2,199.1v52.3l37-37C479.4,205.3,466.4,199.6,452.2,199.1z" id="XMLID_21_"/><path class="st3" d="M448.4,251.4v-52.3c-14.3,0.5-27.2,6.2-37,15.3L448.4,251.4z" id="XMLID_20_"/><path class="st3" d="M445.7,257.9h-52.3c0.5,14.3,6.2,27.2,15.3,37L445.7,257.9z" id="XMLID_19_"/><path class="st3" d="M448.4,260.6l-37,37c9.7,9.1,22.7,14.9,37,15.3V260.6z" id="XMLID_18_"/><path class="st3" d="M454.8,254.1h52.3c-0.5-14.3-6.2-27.2-15.3-37L454.8,254.1z" id="XMLID_17_"/><path class="st3" d="M452.2,260.6v52.3c14.3-0.5,27.2-6.2,37-15.3L452.2,260.6z" id="XMLID_16_"/><path class="st3" d="M454.8,257.9l37,37c9.1-9.7,14.9-22.7,15.3-37H454.8z" id="XMLID_15_"/></g><circle class="st1" cx="450.3" cy="256" id="XMLID_14_" r="23.4"/></g><path class="st3" d="M442.6,266.2v-20.4h6.4c2.7,0,4.8,0.8,6.4,2.5c1.6,1.6,2.4,3.8,2.4,6.4v2.8c0,2.6-0.8,4.7-2.4,6.4    c-1.6,1.6-3.8,2.4-6.4,2.4H442.6z M445.4,248v16.1h3.7c1.9,0,3.4-0.6,4.5-1.9c1.1-1.2,1.6-2.8,1.6-4.8v-2.8c0-1.9-0.5-3.5-1.6-4.8    c-1.1-1.2-2.6-1.9-4.5-1.9H445.4z"/></g><g><g><g><path class="st4" d="M57.2,254.1l-37-37c-9.1,9.7-14.9,22.7-15.3,37H57.2z" id="XMLID_11_"/><path class="st4" d="M63.6,199.1v52.3l37-37C90.9,205.3,77.9,199.6,63.6,199.1z" id="XMLID_10_"/><path class="st4" d="M59.8,251.4v-52.3c-14.3,0.5-27.2,6.2-37,15.3L59.8,251.4z" id="XMLID_9_"/><path class="st4" d="M57.2,257.9H4.9c0.5,14.3,6.2,27.2,15.3,37L57.2,257.9z" id="XMLID_8_"/><path class="st4" d="M59.8,260.6l-37,37c9.7,9.1,22.7,14.9,37,15.3V260.6z" id="XMLID_7_"/><path class="st4" d="M66.3,254.1h52.3c-0.5-14.3-6.2-27.2-15.3-37L66.3,254.1z" id="XMLID_6_"/><path class="st4" d="M63.6,260.6v52.3c14.3-0.5,27.2-6.2,37-15.3L63.6,260.6z" id="XMLID_5_"/><path class="st4" d="M66.3,257.9l37,37c9.1-9.7,14.9-22.7,15.3-37H66.3z" id="XMLID_4_"/></g><circle class="st1" cx="61.7" cy="256" id="XMLID_3_" r="23.4"/></g><path class="st4" d="M65.6,261h-7.7l-1.8,5.3h-2.8l7.4-20.4H63l7.2,20.4h-2.8L65.6,261z M58.7,258.6h6.1l-3-8.8h-0.1L58.7,258.6z"/></g></g></svg>