<?xml version="1.0" ?><svg id="Layer_1" style="enable-background:new 0 0 512 512;" version="1.1" viewBox="0 0 512 512" xml:space="preserve" xmlns="http://www.w3.org/2000/svg" xmlns:xlink="http://www.w3.org/1999/xlink"><style type="text/css">
	.st0{fill:#E8E8E8;}
	.st1{fill:#152D39;}
	.st2{fill:#5CB8CD;}
	.st3{fill:#FB8A52;}
	.st4{fill:#BB0D48;}
	.st5{fill:#FFFFFF;}
</style><g><g><polygon class="st0" id="XMLID_16_" points="6,402.3 82.6,200.2 159.3,402.3   "/><polygon class="st1" id="XMLID_15_" points="150.9,396.5 82.6,216.5 14.4,396.5   "/><polygon class="st0" id="XMLID_14_" points="102.6,402.3 164.1,240.3 225.5,402.3   "/><polygon class="st2" id="XMLID_13_" points="217.1,396.5 164.1,256.6 111,396.5   "/><polygon class="st0" id="XMLID_12_" points="164.1,402.3 275,109.7 386,402.3   "/><polygon class="st3" id="XMLID_11_" points="377.6,396.5 275,126 172.5,396.5   "/><polygon class="st0" id="XMLID_10_" points="323,402.3 414.5,160.9 506,402.3   "/><polygon class="st4" id="XMLID_9_" points="497.6,396.5 414.5,177.2 331.3,396.5   "/></g><path class="st5" d="M46.2,381H34.8l-2.7,7.8H28l10.9-30.1h3.5L53,388.8h-4.2L46.2,381z M36,377.6h9l-4.4-12.9h-0.1L36,377.6z"/><path class="st5" d="M129.9,391.7v-34.4h11.2c3.6,0,6.4,0.8,8.4,2.3c2,1.6,3,3.9,3,7c0,1.5-0.5,2.8-1.4,4c-0.9,1.2-2.1,2.1-3.6,2.7   c2.3,0.3,4,1.3,5.3,2.9c1.3,1.6,2,3.6,2,5.8c0,3.1-1,5.6-3.1,7.2c-2,1.7-4.8,2.5-8.3,2.5H129.9z M134.6,372h7.5   c1.7,0,3.1-0.5,4.2-1.4c1.1-1,1.6-2.3,1.6-4c0-1.9-0.6-3.2-1.8-4.2c-1.2-0.9-2.9-1.4-5.1-1.4h-6.6V372z M134.6,375.6v12.5h9   c2.1,0,3.8-0.5,4.9-1.6c1.2-1,1.8-2.5,1.8-4.5c0-1.9-0.6-3.4-1.8-4.6c-1.2-1.2-2.8-1.8-4.8-1.9h-0.3H134.6z"/><path class="st5" d="M217,380.5l0,0.1c0.1,3.1-1,5.7-3.3,7.8c-2.3,2.1-5.2,3.2-8.9,3.2c-3.8,0-6.8-1.3-9.2-4   c-2.4-2.7-3.6-6.1-3.6-10.2v-5.9c0-4.1,1.2-7.5,3.6-10.2c2.4-2.7,5.4-4,9.2-4c3.8,0,6.8,1,9,3c2.2,2,3.3,4.7,3.2,8l0,0.1h-4.3   c0-2.3-0.7-4.2-2.1-5.5c-1.4-1.4-3.3-2-5.8-2c-2.5,0-4.5,1-6,3c-1.5,2-2.2,4.5-2.2,7.5v6c0,3,0.7,5.6,2.2,7.6c1.5,2,3.5,3,6,3   c2.5,0,4.4-0.7,5.8-2c1.4-1.3,2.1-3.2,2.1-5.6H217z"/><path class="st5" d="M349.9,390.9v-33.4h10.5c4.4,0,7.9,1.3,10.5,4c2.7,2.7,4,6.2,4,10.4v4.6c0,4.3-1.3,7.7-4,10.4   c-2.7,2.7-6.2,4-10.5,4H349.9z M354.4,361v26.3h6c3.1,0,5.5-1,7.3-3.1c1.8-2,2.7-4.6,2.7-7.8v-4.6c0-3.1-0.9-5.7-2.7-7.8   c-1.8-2-4.2-3.1-7.3-3.1H354.4z"/></g></svg>