<?xml version="1.0" ?><svg id="Layer_1" style="enable-background:new 0 0 512 512;" version="1.1" viewBox="0 0 512 512" xml:space="preserve" xmlns="http://www.w3.org/2000/svg" xmlns:xlink="http://www.w3.org/1999/xlink"><style type="text/css">
	.st0{fill:#152D39;}
	.st1{fill:#1C353F;}
	.st2{fill:#132B33;}
	.st3{fill:#5CB8CD;}
	.st4{fill:#328C9B;}
	.st5{fill:#287B84;}
	.st6{fill:#FB8A52;}
	.st7{fill:#DD7547;}
	.st8{fill:#D36B42;}
	.st9{fill:#BB0D48;}
	.st10{fill:#9E1248;}
	.st11{fill:#891041;}
	.st12{fill:#FFFFFF;}
</style><g><g><g><rect class="st0" height="99.2" id="XMLID_28_" width="68.6" x="377.2" y="26.5"/><rect class="st0" height="99.2" id="XMLID_27_" width="258.9" x="66.2" y="26.5"/><path class="st1" d="M301.6,105.2h99.2V55.6c0-27.4-22.2-49.6-49.6-49.6h0c-27.4,0-49.6,22.2-49.6,49.6V105.2z" id="XMLID_26_"/><polygon class="st2" id="XMLID_25_" points="400.7,105.2 377.2,125.6 377.2,105.2    "/><polygon class="st2" id="XMLID_24_" points="325.1,105.2 301.6,105.2 325.1,125.6    "/></g><g><rect class="st3" height="68.6" id="XMLID_23_" transform="matrix(3.613488e-003 -1 1 3.613488e-003 -101.7613 301.7322)" width="99.2" x="51" y="167.6"/><rect class="st3" height="99.2" id="XMLID_22_" transform="matrix(-1 -3.613488e-003 3.613488e-003 -1 631.9138 406.5632)" width="258.9" x="186.9" y="153.1"/><path class="st4" d="M210.3,231.4l-99.1-0.4l0.2-49.6c0.1-27.4,22.4-49.5,49.8-49.4h0     c27.4,0.1,49.5,22.4,49.4,49.8L210.3,231.4z" id="XMLID_21_"/><polygon class="st5" id="XMLID_20_" points="111.1,231.1 134.7,251.6 134.7,231.2    "/><polygon class="st5" id="XMLID_19_" points="186.8,231.4 210.3,231.4 186.7,251.8    "/></g><g><rect class="st6" height="99.2" id="XMLID_18_" width="68.6" x="377.2" y="279.7"/><rect class="st6" height="99.2" id="XMLID_17_" width="258.9" x="66.2" y="279.7"/><path class="st7" d="M301.6,358.4h99.2v-49.6c0-27.4-22.2-49.6-49.6-49.6h0c-27.4,0-49.6,22.2-49.6,49.6V358.4z" id="XMLID_16_"/><polygon class="st8" id="XMLID_15_" points="400.7,358.4 377.2,378.9 377.2,358.4    "/><polygon class="st8" id="XMLID_14_" points="325.1,358.4 301.6,358.4 325.1,378.9    "/></g><g><rect class="st9" height="68.6" id="XMLID_13_" transform="matrix(3.613488e-003 -1 1 3.613488e-003 -355.0062 554.0636)" width="99.2" x="51" y="420.9"/><rect class="st9" height="99.2" id="XMLID_12_" transform="matrix(-1 -3.613488e-003 3.613488e-003 -1 630.9987 913.0546)" width="258.9" x="186.9" y="406.4"/><path class="st10" d="M210.3,484.7l-99.1-0.4l0.2-49.6c0.1-27.4,22.4-49.5,49.8-49.4l0,0     c27.4,0.1,49.5,22.4,49.4,49.8L210.3,484.7z" id="XMLID_11_"/><polygon class="st11" id="XMLID_10_" points="111.1,484.3 134.7,504.9 134.7,484.4    "/><polygon class="st11" id="XMLID_9_" points="186.8,484.6 210.3,484.7 186.7,505.1    "/></g></g><path class="st12" d="M356.8,61.5h-11.1l-2.6,7.6h-4.1l10.7-29.6h3.4l10.4,29.6h-4.1L356.8,61.5z M346.8,58.2h8.8l-4.3-12.7h-0.1   L346.8,58.2z"/><path class="st12" d="M148.5,198.6v-33.7h11c3.5,0,6.3,0.8,8.3,2.3c2,1.5,3,3.8,3,6.8c0,1.5-0.4,2.8-1.3,3.9   c-0.9,1.2-2.1,2-3.6,2.6c2.2,0.3,4,1.3,5.2,2.9c1.3,1.6,1.9,3.5,1.9,5.7c0,3.1-1,5.4-3,7.1c-2,1.6-4.7,2.4-8.2,2.4H148.5z    M153.1,179.2h7.4c1.7,0,3.1-0.5,4.1-1.4c1.1-0.9,1.6-2.2,1.6-3.9c0-1.8-0.6-3.2-1.7-4.1c-1.2-0.9-2.8-1.4-5-1.4h-6.4V179.2z    M153.1,182.8v12.3h8.8c2.1,0,3.7-0.5,4.9-1.5c1.2-1,1.7-2.5,1.7-4.4c0-1.9-0.6-3.4-1.8-4.5c-1.2-1.1-2.8-1.8-4.7-1.8h-0.3H153.1z"/><path class="st12" d="M367.8,322.4l0,0.1c0.1,3.1-1,5.6-3.2,7.7c-2.2,2.1-5.1,3.1-8.8,3.1c-3.7,0-6.7-1.3-9-3.9   c-2.3-2.6-3.5-5.9-3.5-10v-5.8c0-4,1.2-7.3,3.5-10c2.3-2.6,5.3-3.9,9-3.9c3.7,0,6.6,1,8.8,3c2.2,2,3.2,4.6,3.2,7.8l0,0.1h-4.2   c0-2.3-0.7-4.1-2-5.4c-1.3-1.3-3.2-2-5.7-2c-2.5,0-4.4,1-5.9,3c-1.5,2-2.2,4.5-2.2,7.4v5.9c0,3,0.7,5.5,2.2,7.5c1.5,2,3.4,3,5.9,3   c2.5,0,4.4-0.7,5.7-2c1.3-1.3,2-3.2,2-5.5H367.8z"/><path class="st12" d="M154,454.8V422h10.3c4.3,0,7.7,1.3,10.3,3.9c2.6,2.6,3.9,6,3.9,10.2v4.5c0,4.2-1.3,7.6-3.9,10.2   c-2.6,2.6-6,3.9-10.3,3.9H154z M158.4,425.5v25.8h5.9c3,0,5.4-1,7.2-3c1.7-2,2.6-4.6,2.6-7.7v-4.5c0-3.1-0.9-5.6-2.6-7.6   c-1.7-2-4.1-3-7.2-3H158.4z"/></g></svg>