<?xml version="1.0" ?><svg id="Layer_1" style="enable-background:new 0 0 512 512;" version="1.1" viewBox="0 0 512 512" xml:space="preserve" xmlns="http://www.w3.org/2000/svg" xmlns:xlink="http://www.w3.org/1999/xlink"><style type="text/css">
	.st0{fill:#5CB8CD;}
	.st1{fill:#152D39;}
	.st2{fill:#FB8A52;}
	.st3{fill:#FFFFFF;}
</style><g><g><path class="st0" d="M397.2,222.7c-20.6,43.7-60.9,76.9-110.6,86.8c-1.3,0.3-2.7,0.4-4,0.4    c-7.9,0-15.2-4.5-18.7-11.9c-2.3-5-5-9.8-7.9-14.4c-13,20.8-20.6,45.4-20.6,71.7c0,74.7,60.6,135.3,135.3,135.3    S506,430.2,506,355.4C506,289.8,459.2,235,397.2,222.7z" id="XMLID_9_"/><path class="st1" d="M256,21.3c-74.7,0-135.3,60.6-135.3,135.3c0,15.2,2.5,29.8,7.1,43.5c4.4-0.4,8.9-0.6,13.5-0.6    c62.4,0,116.3,36.8,141.2,89.8c62-12.3,108.8-67.1,108.8-132.7C391.3,81.8,330.7,21.3,256,21.3z" id="XMLID_8_"/><path class="st2" d="M214.7,355.4c0-29.3,8.2-57.9,23.7-82.7c1.4-2.2,3.2-4.2,5.3-5.7    c-24.8-28.7-61.5-46.9-102.5-46.9C66.6,220.1,6,280.7,6,355.4s60.6,135.3,135.3,135.3c40.5,0,76.8-17.8,101.6-46    C225.2,419.4,214.7,388.6,214.7,355.4z" id="XMLID_7_"/></g><path class="st3" d="M206.2,278L206.2,278c0.1,1.9-0.6,3.5-1.9,4.8c-1.3,1.3-3.1,1.9-5.3,1.9c-2.2,0-4.1-0.8-5.5-2.4   c-1.4-1.6-2.1-3.6-2.1-6.1v-3.5c0-2.4,0.7-4.5,2.1-6.1c1.4-1.6,3.2-2.4,5.5-2.4c2.2,0,4,0.6,5.4,1.8c1.3,1.2,2,2.8,1.9,4.8l0,0.1   h-2.6c0-1.4-0.4-2.5-1.2-3.3c-0.8-0.8-2-1.2-3.5-1.2c-1.5,0-2.7,0.6-3.6,1.8c-0.9,1.2-1.3,2.7-1.3,4.5v3.6c0,1.8,0.4,3.3,1.3,4.5   c0.9,1.2,2.1,1.8,3.6,1.8c1.5,0,2.6-0.4,3.5-1.2c0.8-0.8,1.2-1.9,1.2-3.3H206.2z"/><path class="st3" d="M267.7,351.4v-20.4h6.7c2.1,0,3.8,0.5,5,1.4c1.2,0.9,1.8,2.3,1.8,4.1c0,0.9-0.3,1.7-0.8,2.4   c-0.5,0.7-1.3,1.2-2.2,1.6c1.3,0.2,2.4,0.8,3.2,1.7c0.8,1,1.2,2.1,1.2,3.4c0,1.9-0.6,3.3-1.8,4.3c-1.2,1-2.9,1.5-4.9,1.5H267.7z    M270.5,339.6h4.5c1,0,1.9-0.3,2.5-0.8c0.6-0.6,1-1.4,1-2.4c0-1.1-0.3-1.9-1-2.5c-0.7-0.5-1.7-0.8-3-0.8h-3.9V339.6z M270.5,341.8   v7.4h5.3c1.3,0,2.2-0.3,2.9-0.9c0.7-0.6,1-1.5,1-2.6c0-1.1-0.4-2-1.1-2.7c-0.7-0.7-1.7-1.1-2.9-1.1h-0.2H270.5z"/><path class="st3" d="M301.7,245.8H294l-1.8,5.3h-2.8l7.4-20.4h2.4l7.2,20.4h-2.8L301.7,245.8z M294.8,243.5h6.1l-3-8.8h-0.1   L294.8,243.5z"/></g></svg>