<?xml version="1.0" ?><svg id="Layer_1" style="enable-background:new 0 0 512 512;" version="1.1" viewBox="0 0 512 512" xml:space="preserve" xmlns="http://www.w3.org/2000/svg" xmlns:xlink="http://www.w3.org/1999/xlink"><style type="text/css">
	.st0{fill:#5CB8CD;}
	.st1{fill:#328C9B;}
	.st2{fill:#287B84;}
	.st3{fill:#FB8A52;}
	.st4{fill:#D36B42;}
	.st5{fill:#DD7547;}
	.st6{fill:#9E1248;}
	.st7{fill:#BB0D48;}
	.st8{fill:#891041;}
	.st9{fill:#152D39;}
	.st10{fill:#1C353F;}
	.st11{fill:#132B33;}
	.st12{fill:#FFFFFF;}
</style><g><g><g><rect class="st0" height="88.1" id="XMLID_23_" width="337.3" x="108" y="159.5"/><rect class="st1" height="88.1" id="XMLID_22_" width="88.1" x="66.6" y="144.7"/><polygon class="st2" id="XMLID_21_" points="108,247.6 154.8,232.8 108,232.8    "/></g><g><polygon class="st3" id="XMLID_20_" points="66.6,289.2 66.6,388.2 285.6,388.2 285.6,361.8 383.8,361.8 383.8,388.2      445.4,388.2 445.4,289.2    "/><polygon class="st4" id="XMLID_19_" points="334.7,265 285.6,289.2 285.6,388.2 334.7,367.9    "/><polygon class="st5" id="XMLID_18_" points="334.7,265 383.8,289.2 383.8,388.2 334.7,367.9    "/></g><g><rect class="st6" height="83" id="XMLID_17_" width="83" x="66.6" y="423"/><rect class="st7" height="83" id="XMLID_16_" width="317.8" x="127.5" y="408.1"/><polygon class="st8" id="XMLID_15_" points="149.7,491.1 127.5,491.1 149.7,506    "/><polygon class="st8" id="XMLID_14_" points="445.4,491.1 423.3,491.1 423.3,506    "/></g><g><rect class="st9" height="98.9" id="XMLID_13_" width="68.5" x="376.9" y="26.4"/><rect class="st9" height="98.9" id="XMLID_12_" width="258.3" x="66.6" y="26.4"/><rect class="st10" height="98.9" id="XMLID_11_" width="98.9" x="301.5" y="6"/><polygon class="st11" id="XMLID_10_" points="400.4,104.9 376.9,125.4 376.9,104.9    "/><polygon class="st11" id="XMLID_9_" points="325,104.9 301.5,104.9 325,125.4    "/></g></g><path class="st12" d="M356.5,61.9h-11.1l-2.6,7.6h-4.1L349.4,40h3.4l10.4,29.5h-4.1L356.5,61.9z M346.6,58.6h8.8l-4.3-12.7H351   L346.6,58.6z"/><path class="st12" d="M97.3,204.5v-33.7h11c3.5,0,6.3,0.8,8.3,2.3c2,1.5,3,3.8,3,6.8c0,1.4-0.4,2.7-1.3,3.9c-0.9,1.1-2.1,2-3.6,2.6   c2.2,0.3,3.9,1.3,5.2,2.9c1.3,1.6,1.9,3.5,1.9,5.7c0,3.1-1,5.4-3,7.1c-2,1.6-4.7,2.4-8.1,2.4H97.3z M101.8,185.2h7.4   c1.7,0,3.1-0.5,4.1-1.4c1.1-0.9,1.6-2.2,1.6-3.9c0-1.8-0.6-3.2-1.7-4.1c-1.1-0.9-2.8-1.4-5-1.4h-6.4V185.2z M101.8,188.7v12.2h8.8   c2.1,0,3.7-0.5,4.8-1.5c1.1-1,1.7-2.5,1.7-4.4c0-1.9-0.6-3.4-1.8-4.5c-1.2-1.1-2.8-1.7-4.7-1.8h-0.3H101.8z"/><path class="st12" d="M346.9,321.4l0,0.1c0.1,3.1-1,5.6-3.2,7.7c-2.2,2.1-5.1,3.1-8.8,3.1c-3.7,0-6.7-1.3-9-3.9   c-2.3-2.6-3.5-5.9-3.5-9.9v-5.8c0-4,1.2-7.3,3.5-10c2.3-2.6,5.3-3.9,9-3.9c3.7,0,6.6,1,8.8,2.9c2.2,2,3.2,4.6,3.2,7.8l0,0.1h-4.2   c0-2.3-0.7-4.1-2-5.4c-1.3-1.3-3.2-2-5.7-2c-2.5,0-4.4,1-5.9,3c-1.5,2-2.2,4.4-2.2,7.4v5.8c0,3,0.7,5.4,2.2,7.4c1.5,2,3.4,3,5.9,3   c2.4,0,4.3-0.7,5.7-2c1.3-1.3,2-3.1,2-5.5H346.9z"/><path class="st12" d="M85.1,480.8v-32.7h10.3c4.3,0,7.7,1.3,10.3,3.9c2.6,2.6,3.9,6,3.9,10.2v4.5c0,4.2-1.3,7.6-3.9,10.2   c-2.6,2.6-6,3.9-10.3,3.9H85.1z M89.5,451.6v25.8h5.9c3,0,5.4-1,7.2-3c1.7-2,2.6-4.5,2.6-7.7v-4.5c0-3.1-0.9-5.6-2.6-7.6   c-1.7-2-4.1-3-7.2-3H89.5z"/></g></svg>