<?xml version="1.0" ?><svg id="Layer_1" style="enable-background:new 0 0 512 512;" version="1.1" viewBox="0 0 512 512" xml:space="preserve" xmlns="http://www.w3.org/2000/svg" xmlns:xlink="http://www.w3.org/1999/xlink"><style type="text/css">
	.st0{fill:#5CB8CD;}
	.st1{fill:#152D39;}
	.st2{fill:#BB0D48;}
	.st3{fill:#FB8A52;}
	.st4{fill:#E8E8E8;}
	.st5{fill:#FFFFFF;}
</style><g><g><polygon class="st0" id="XMLID_6_" points="31.5,441.2 6,488.7 56.8,488.7   "/><polygon class="st1" id="XMLID_5_" points="436.3,488.7 506,488.7 256,23.3 222.3,86   "/><polygon class="st2" id="XMLID_4_" points="77.2,356.1 39.7,426.1 72.9,488.7 147.7,488.7   "/><polygon class="st3" id="XMLID_3_" points="122.9,271.1 85.3,341.1 163.8,488.7 238.5,488.7   "/><polygon class="st0" id="XMLID_2_" points="214.2,101.1 176.6,171 345.4,488.7 420.2,488.7   "/><polygon class="st4" id="XMLID_1_" points="168.5,186.1 131,256 254.6,488.7 329.3,488.7   "/></g><g id="XMLID_197_"><path class="st5" d="M376,311.1h-7v-29h-7.3v-5.4l14.3-1.3V311.1z" id="XMLID_198_"/></g><g id="XMLID_200_"><path class="st5" d="M309.7,343.8h-22v-4.3l10.1-11.5c1.5-1.8,2.6-3.3,3.2-4.5c0.6-1.2,1-2.4,1-3.4    c0-1.3-0.3-2.4-1-3.2c-0.7-0.8-1.7-1.2-3-1.2c-1.4,0-2.5,0.5-3.3,1.6c-0.8,1-1.2,2.3-1.2,3.9h-6.4l0-0.1c-0.1-2.9,0.9-5.4,2.9-7.4    c2-2,4.7-3,8-3c3.4,0,6,0.9,7.8,2.6c1.9,1.7,2.8,4,2.8,6.9c0,2-0.5,3.8-1.6,5.4c-1,1.6-2.8,3.9-5.4,6.7l-5.4,6.5l0,0.1h13.4V343.8    z" id="XMLID_201_"/></g><g id="XMLID_203_"><path class="st5" d="M226.1,357.4c1.4,0,2.5-0.4,3.2-1.1c0.7-0.7,1-1.8,1-3.1c0-1.1-0.4-2.1-1.1-2.8    c-0.7-0.7-1.7-1.1-3-1.1c-1.1,0-2,0.3-2.8,1c-0.7,0.7-1.1,1.5-1.1,2.6h-5.8l0-0.1c-0.1-2.3,0.8-4.3,2.7-5.8c1.9-1.5,4.2-2.3,7-2.3    c3.1,0,5.6,0.7,7.4,2.2c1.8,1.5,2.7,3.6,2.7,6.3c0,1.4-0.4,2.6-1.2,3.8c-0.8,1.1-1.9,2-3.2,2.7c1.6,0.6,2.8,1.5,3.6,2.7    c0.9,1.2,1.3,2.7,1.3,4.4c0,2.7-1,4.9-3,6.5c-2,1.6-4.5,2.4-7.6,2.4c-2.7,0-5.1-0.7-7.2-2.2c-2-1.5-3-3.6-3-6.2l0-0.1h5.8    c0,1.1,0.4,2.1,1.2,2.8c0.8,0.8,1.8,1.1,3.1,1.1c1.4,0,2.5-0.4,3.3-1.2c0.9-0.8,1.3-1.8,1.3-3.1c0-1.6-0.4-2.7-1.2-3.5    c-0.8-0.8-2-1.1-3.5-1.1h-3.3v-4.5H226.1z" id="XMLID_204_"/></g><g id="XMLID_206_"><path class="st5" d="M160.4,408.4h3.2v4.4h-3.2v6.2h-5.7v-6.2h-11.6l-0.3-3.4l11.8-18.9h5.8V408.4z M148,408.4    h6.7V398l-0.1,0l-0.6,1.3L148,408.4z" id="XMLID_207_"/></g><g id="XMLID_210_"><path class="st5" d="M82.4,449.8l1.5-14.4h14.3v4.1H88.1l-0.7,6c0.5-0.4,1.1-0.6,1.8-0.9c0.7-0.2,1.5-0.4,2.4-0.4    c2.4,0,4.2,0.7,5.6,2.2c1.3,1.5,2,3.6,2,6.4c0,2.5-0.7,4.6-2.1,6.2c-1.4,1.6-3.6,2.4-6.5,2.4c-2.4,0-4.4-0.6-6.1-1.9    c-1.7-1.3-2.5-3-2.4-5.2l0-0.1l5-0.2c0,1.1,0.3,1.9,1,2.5c0.6,0.6,1.5,0.9,2.5,0.9c1.2,0,2.1-0.4,2.7-1.2c0.6-0.8,0.8-1.9,0.8-3.4    c0-1.5-0.3-2.7-0.9-3.5c-0.6-0.9-1.5-1.3-2.7-1.3c-1,0-1.7,0.2-2.3,0.5c-0.5,0.4-0.9,0.9-1.1,1.5L82.4,449.8z" id="XMLID_211_"/></g><g id="XMLID_177_"><path class="st5" d="M32.5,460.1c0.9,0,1.7,0.1,2.5,0.2c0.8,0.2,1.5,0.4,2.3,0.7l-0.8,3.4    c-0.7-0.2-1.4-0.4-1.9-0.5c-0.6-0.1-1.2-0.2-2-0.2c-1.4,0-2.4,0.5-3.3,1.6c-0.8,1-1.2,2.5-1.2,4.3v0.7c0.6-0.6,1.3-1.1,2.2-1.4    c0.8-0.3,1.8-0.5,2.8-0.5c2,0,3.5,0.7,4.6,2.1c1.1,1.4,1.7,3.2,1.7,5.5c0,2.3-0.7,4.2-2.2,5.6c-1.4,1.4-3.3,2.2-5.6,2.2    c-2.4,0-4.4-0.8-5.9-2.5c-1.5-1.6-2.3-3.9-2.3-6.8v-4.8c0-2.9,0.9-5.3,2.6-7C27.7,461,29.9,460.1,32.5,460.1z M31.5,472    c-0.8,0-1.5,0.1-2.1,0.4c-0.6,0.3-1,0.6-1.4,1.1v1.2c0,1.8,0.3,3.1,1,4.1c0.6,1,1.5,1.5,2.6,1.5c1,0,1.7-0.4,2.3-1.2    c0.6-0.8,0.9-1.8,0.9-3c0-1.3-0.3-2.3-0.9-3C33.3,472.3,32.5,472,31.5,472z" id="XMLID_178_"/></g></g></svg>