<?xml version="1.0" ?><svg id="Layer_1" style="enable-background:new 0 0 512 512;" version="1.1" viewBox="0 0 512 512" xml:space="preserve" xmlns="http://www.w3.org/2000/svg" xmlns:xlink="http://www.w3.org/1999/xlink"><style type="text/css">
	.st0{fill:#5CB8CD;}
	.st1{fill:#FB8A52;}
	.st2{fill:#E8E8E8;}
	.st3{fill:#152D39;}
	.st4{fill:#BB0D48;}
	.st5{fill:#328C9B;}
	.st6{fill:#DD7547;}
	.st7{fill:#DDD7D7;}
	.st8{fill:#1C353F;}
	.st9{fill:#9E1248;}
	.st10{fill:#FFFFFF;}
</style><g><g><g><polygon class="st0" id="XMLID_10_" points="204.1,102.6 169.2,167.6 256,224.9 342.8,167.6 307.9,102.6 256,136.8    "/><polygon class="st1" id="XMLID_9_" points="129.8,241 94.9,306 256,412.3 417.1,306 382.2,241 256,324.2    "/><polygon class="st2" id="XMLID_8_" points="167,171.8 132,236.8 256,318.6 380,236.8 345,171.8 256,230.5    "/><polygon class="st3" id="XMLID_7_" points="256,131.1 305.6,98.4 256,6 206.4,98.4    "/><polygon class="st4" id="XMLID_6_" points="256,417.9 92.6,310.2 57.7,375.2 256,506 454.3,375.2 419.4,310.2    "/></g><g><polygon class="st5" id="XMLID_5_" points="255.9,136.7 204.1,102.6 169.2,167.6 255.9,224.8    "/><polygon class="st6" id="XMLID_4_" points="255.9,324.1 129.8,241 94.9,306 255.9,412.2    "/><polygon class="st7" id="XMLID_3_" points="255.9,230.4 167,171.8 132,236.8 255.9,318.5    "/><polygon class="st8" id="XMLID_2_" points="255.9,6.2 206.4,98.4 255.9,131.1    "/><polygon class="st9" id="XMLID_1_" points="255.9,417.9 92.6,310.2 57.7,375.2 255.9,505.9    "/></g></g><g id="XMLID_194_"><path class="st10" d="M243.2,96.6h-5.9V72.2h-6.1v-4.5l12-1.1V96.6z" id="XMLID_195_"/></g><g id="XMLID_191_"><path class="st10" d="M297.6,176.3h-19.8v-3.9l9.2-10.4c1.4-1.6,2.3-3,2.9-4.1c0.6-1.1,0.9-2.1,0.9-3.1    c0-1.2-0.3-2.2-0.9-2.9c-0.6-0.7-1.5-1.1-2.7-1.1c-1.3,0-2.3,0.5-3,1.4c-0.7,0.9-1.1,2.1-1.1,3.6h-5.8l0-0.1    c-0.1-2.6,0.8-4.9,2.6-6.7c1.8-1.8,4.2-2.7,7.3-2.7c3,0,5.4,0.8,7.1,2.3c1.7,1.6,2.5,3.6,2.5,6.2c0,1.8-0.5,3.4-1.4,4.9    c-0.9,1.5-2.6,3.5-4.9,6.1l-4.9,5.8l0,0.1h12.1V176.3z" id="XMLID_192_"/></g><g id="XMLID_188_"><path class="st10" d="M202.2,237.2c1.4,0,2.4-0.4,3.1-1.1c0.7-0.7,1-1.7,1-3c0-1.1-0.4-2-1.1-2.7    c-0.7-0.7-1.7-1.1-3-1.1c-1.1,0-2,0.3-2.7,1c-0.7,0.7-1.1,1.5-1.1,2.5h-5.6l0-0.1c-0.1-2.3,0.8-4.2,2.6-5.6    c1.8-1.5,4.1-2.2,6.8-2.2c3,0,5.4,0.7,7.2,2.1c1.8,1.4,2.7,3.5,2.7,6.1c0,1.3-0.4,2.6-1.2,3.7c-0.8,1.1-1.8,2-3.2,2.6    c1.5,0.6,2.7,1.4,3.5,2.6c0.8,1.2,1.2,2.6,1.2,4.2c0,2.7-1,4.8-2.9,6.3c-1.9,1.5-4.4,2.3-7.4,2.3c-2.7,0-5-0.7-7-2.2    c-2-1.4-3-3.5-2.9-6.1l0-0.1h5.7c0,1.1,0.4,2,1.2,2.8c0.8,0.7,1.8,1.1,3,1.1c1.3,0,2.4-0.4,3.2-1.2c0.8-0.8,1.2-1.8,1.2-3    c0-1.5-0.4-2.7-1.2-3.4c-0.8-0.7-1.9-1.1-3.4-1.1h-3.2v-4.4H202.2z" id="XMLID_189_"/></g><g id="XMLID_184_"><path class="st10" d="M341.6,321.4h3.4v4.7h-3.4v6.5h-6v-6.5h-12.2l-0.3-3.6l12.4-19.9h6.1V321.4z M328.5,321.4h7    v-10.9l-0.1,0l-0.6,1.3L328.5,321.4z" id="XMLID_185_"/></g><g id="XMLID_181_"><path class="st10" d="M150.3,402.5l1.7-16.5h16.5v4.8h-11.6l-0.8,6.9c0.6-0.4,1.3-0.7,2.1-1    c0.8-0.3,1.8-0.4,2.7-0.4c2.7,0,4.9,0.8,6.4,2.5c1.5,1.7,2.3,4.2,2.3,7.3c0,2.9-0.8,5.3-2.5,7.1c-1.6,1.9-4.1,2.8-7.5,2.8    c-2.7,0-5.1-0.7-7-2.2c-1.9-1.4-2.9-3.4-2.8-5.9l0-0.1l5.7-0.3c0,1.2,0.4,2.2,1.1,2.9c0.7,0.7,1.7,1,2.9,1c1.4,0,2.4-0.5,3.1-1.4    c0.6-0.9,1-2.2,1-3.9c0-1.7-0.4-3.1-1.1-4.1c-0.7-1-1.7-1.5-3.1-1.5c-1.1,0-2,0.2-2.6,0.6c-0.6,0.4-1,1-1.3,1.7L150.3,402.5z" id="XMLID_182_"/></g></g></svg>