<?xml version="1.0" ?><svg id="Layer_1" style="enable-background:new 0 0 512 512;" version="1.1" viewBox="0 0 512 512" xml:space="preserve" xmlns="http://www.w3.org/2000/svg" xmlns:xlink="http://www.w3.org/1999/xlink"><style type="text/css">
	.st0{fill:#FB8A52;}
	.st1{fill:#5CB8CD;}
	.st2{fill:#BB0D48;}
	.st3{fill:#E8E8E8;}
	.st4{fill:#152D39;}
	.st5{fill:#FFFFFF;}
</style><g><g><polygon class="st0" id="XMLID_5_" points="159.4,346.8 90.5,346.8 13.1,506 159.4,506   "/><polygon class="st1" id="XMLID_4_" points="174,174.8 95.1,337.2 275.7,337.2 275.7,174.8   "/><polygon class="st2" id="XMLID_3_" points="498.9,506 421.5,346.8 169,346.8 169,506   "/><polygon class="st3" id="XMLID_2_" points="285.3,337.2 416.9,337.2 338,174.8 285.3,174.8   "/><polygon class="st4" id="XMLID_1_" points="333.3,165.2 256,6 178.7,165.2   "/></g><g id="XMLID_169_"><path class="st5" d="M260,128h-5.7v-23.7h-5.9v-4.4l11.7-1V128z" id="XMLID_170_"/></g><g id="XMLID_172_"><path class="st5" d="M202.7,275.1h-19.3v-3.8l8.9-10.1c1.3-1.6,2.3-2.9,2.8-4c0.6-1.1,0.8-2.1,0.8-3    c0-1.2-0.3-2.1-0.9-2.8c-0.6-0.7-1.5-1.1-2.7-1.1c-1.2,0-2.2,0.5-2.9,1.4c-0.7,0.9-1,2.1-1,3.5h-5.6l0-0.1    c-0.1-2.6,0.8-4.7,2.5-6.5c1.7-1.8,4.1-2.7,7-2.7c2.9,0,5.2,0.8,6.9,2.3c1.6,1.5,2.4,3.5,2.4,6.1c0,1.7-0.5,3.3-1.4,4.7    c-0.9,1.4-2.5,3.4-4.7,5.9l-4.7,5.7l0,0.1h11.7V275.1z" id="XMLID_173_"/></g><g id="XMLID_175_"><path class="st5" d="M333,258.1c1.3,0,2.4-0.4,3-1.1c0.7-0.7,1-1.7,1-3c0-1.1-0.3-1.9-1-2.6    c-0.7-0.7-1.6-1.1-2.9-1.1c-1,0-1.9,0.3-2.6,1c-0.7,0.6-1.1,1.4-1.1,2.4h-5.5l0-0.1c-0.1-2.2,0.8-4,2.6-5.5c1.8-1.4,4-2.2,6.6-2.2    c2.9,0,5.3,0.7,7,2.1c1.7,1.4,2.6,3.4,2.6,5.9c0,1.3-0.4,2.5-1.1,3.6c-0.7,1.1-1.8,1.9-3.1,2.6c1.5,0.6,2.6,1.4,3.4,2.5    c0.8,1.1,1.2,2.5,1.2,4.1c0,2.6-0.9,4.6-2.8,6.1c-1.9,1.5-4.3,2.2-7.2,2.2c-2.6,0-4.8-0.7-6.8-2.1c-1.9-1.4-2.9-3.4-2.8-5.9l0-0.1    h5.5c0,1.1,0.4,2,1.1,2.7c0.7,0.7,1.7,1.1,2.9,1.1c1.3,0,2.3-0.4,3.2-1.1c0.8-0.8,1.2-1.7,1.2-2.9c0-1.5-0.4-2.6-1.1-3.3    c-0.8-0.7-1.9-1.1-3.3-1.1h-3.1v-4.3H333z" id="XMLID_176_"/></g><g id="XMLID_234_"><path class="st5" d="M112.7,432.6h3.3v4.5h-3.3v6.3h-5.8v-6.3H95l-0.3-3.5l12.1-19.3h5.9V432.6z M100,432.6h6.8    V422l-0.1,0l-0.6,1.3L100,432.6z" id="XMLID_235_"/></g><g id="XMLID_238_"><path class="st5" d="M296.5,430.3l1.7-16.1h16v4.6h-11.3l-0.8,6.7c0.5-0.4,1.2-0.7,2-1c0.8-0.3,1.7-0.4,2.7-0.4    c2.7,0,4.7,0.8,6.2,2.5c1.5,1.7,2.2,4.1,2.2,7.1c0,2.8-0.8,5.1-2.4,6.9c-1.6,1.8-4,2.7-7.3,2.7c-2.6,0-4.9-0.7-6.8-2.1    c-1.9-1.4-2.8-3.3-2.7-5.8l0-0.1l5.5-0.3c0,1.2,0.4,2.1,1.1,2.8c0.7,0.7,1.7,1,2.8,1c1.4,0,2.4-0.4,3-1.3c0.6-0.9,0.9-2.2,0.9-3.8    c0-1.7-0.3-3-1-4c-0.7-1-1.7-1.5-3-1.5c-1.1,0-2,0.2-2.5,0.6c-0.6,0.4-1,1-1.3,1.7L296.5,430.3z" id="XMLID_239_"/></g></g></svg>