<?xml version="1.0" ?><svg id="Layer_1" style="enable-background:new 0 0 512 512;" version="1.1" viewBox="0 0 512 512" xml:space="preserve" xmlns="http://www.w3.org/2000/svg" xmlns:xlink="http://www.w3.org/1999/xlink"><style type="text/css">
	.st0{fill:#132B33;}
	.st1{fill:#152D39;}
	.st2{fill:#1C353F;}
	.st3{fill:#287B84;}
	.st4{fill:#5CB8CD;}
	.st5{fill:#328C9B;}
	.st6{fill:#891041;}
	.st7{fill:#BB0D48;}
	.st8{fill:#9E1248;}
	.st9{fill:#D36B42;}
	.st10{fill:#FB8A52;}
	.st11{fill:#DD7547;}
	.st12{fill:#FFFFFF;}
</style><g><g><g><g id="XMLID_87_"><polyline class="st0" id="XMLID_95_" points="253.2,13.8 253.2,146.4 347.5,211.7     "/><g id="XMLID_92_"><polyline class="st1" id="XMLID_94_" points="156.1,211.7 250.4,146.4 250.4,13.8      "/></g><g id="XMLID_88_"><polygon class="st2" id="XMLID_90_" points="346.3,214.3 251.8,148.8 157.3,214.3      "/></g></g></g><g><g id="XMLID_103_"><g id="XMLID_118_"><polyline class="st3" id="XMLID_119_" points="411.7,146 411.7,278.5 506,343.9      "/></g><g id="XMLID_116_"><polyline class="st4" id="XMLID_117_" points="314.5,343.9 408.9,278.5 408.9,146      "/></g><g id="XMLID_114_"><polygon class="st5" id="XMLID_115_" points="504.7,346.4 410.3,281 315.8,346.4      "/></g></g></g><g><g id="XMLID_104_"><g id="XMLID_112_"><polyline class="st6" id="XMLID_113_" points="103.1,146 103.1,278.5 197.5,343.9      "/></g><g id="XMLID_110_"><polyline class="st7" id="XMLID_111_" points="6,343.9 100.3,278.5 100.3,146      "/></g><g id="XMLID_108_"><polygon class="st8" id="XMLID_109_" points="196.2,346.4 101.7,281 7.3,346.4      "/></g></g></g><g><g id="XMLID_105_"><g id="XMLID_122_"><polyline class="st9" id="XMLID_123_" points="253.2,297.7 253.2,430.2 347.5,495.6      "/></g><g id="XMLID_120_"><polyline class="st10" id="XMLID_121_" points="156.1,495.6 250.4,430.2 250.4,297.7      "/></g><g id="XMLID_106_"><polygon class="st11" id="XMLID_107_" points="346.3,498.2 251.8,432.7 157.3,498.2      "/></g></g></g></g><path class="st12" d="M258.9,191.7h-11.3l-2.7,7.8h-4.2l10.9-30.1h3.5l10.6,30.1h-4.2L258.9,191.7z M248.8,188.3h9l-4.4-12.9h-0.1   L248.8,188.3z"/><path class="st12" d="M399.2,334.9v-34.4h11.2c3.6,0,6.4,0.8,8.4,2.3c2,1.6,3,3.9,3,7c0,1.5-0.5,2.8-1.4,4   c-0.9,1.2-2.1,2.1-3.6,2.7c2.3,0.3,4,1.3,5.3,2.9c1.3,1.6,2,3.6,2,5.8c0,3.1-1,5.6-3.1,7.2c-2,1.7-4.8,2.5-8.3,2.5H399.2z    M403.8,315.1h7.5c1.7,0,3.1-0.5,4.2-1.4c1.1-1,1.6-2.3,1.6-4c0-1.9-0.6-3.2-1.8-4.2c-1.2-0.9-2.9-1.4-5.1-1.4h-6.6V315.1z    M403.8,318.7v12.5h9c2.1,0,3.8-0.5,4.9-1.6c1.2-1,1.8-2.5,1.8-4.5c0-1.9-0.6-3.4-1.8-4.6c-1.2-1.2-2.8-1.8-4.8-1.9h-0.3H403.8z"/><path class="st12" d="M265.7,474.1l0,0.1c0.1,3.1-1,5.7-3.3,7.8c-2.3,2.1-5.2,3.2-8.9,3.2c-3.8,0-6.8-1.3-9.2-4   c-2.4-2.7-3.6-6.1-3.6-10.2v-5.9c0-4.1,1.2-7.5,3.6-10.2c2.4-2.7,5.4-4,9.2-4c3.8,0,6.8,1,9,3c2.2,2,3.3,4.7,3.2,8l0,0.1h-4.3   c0-2.3-0.7-4.2-2.1-5.5c-1.4-1.4-3.3-2-5.8-2c-2.5,0-4.5,1-6,3c-1.5,2-2.2,4.5-2.2,7.5v6c0,3,0.7,5.6,2.2,7.6c1.5,2,3.5,3,6,3   c2.5,0,4.4-0.7,5.8-2c1.4-1.3,2.1-3.2,2.1-5.6H265.7z"/><path class="st12" d="M90.6,335.2v-33.4h10.5c4.4,0,7.9,1.3,10.5,4c2.7,2.7,4,6.2,4,10.4v4.6c0,4.3-1.3,7.7-4,10.4   c-2.7,2.7-6.2,4-10.5,4H90.6z M95.2,305.4v26.3h6c3.1,0,5.5-1,7.3-3.1c1.8-2,2.7-4.6,2.7-7.8v-4.6c0-3.1-0.9-5.7-2.7-7.8   c-1.8-2-4.2-3.1-7.3-3.1H95.2z"/></g></svg>