<?xml version="1.0" ?><svg id="Layer_1" style="enable-background:new 0 0 512 512;" version="1.1" viewBox="0 0 512 512" xml:space="preserve" xmlns="http://www.w3.org/2000/svg" xmlns:xlink="http://www.w3.org/1999/xlink"><style type="text/css">
	.st0{fill:#DD7547;}
	.st1{fill:#5CB8CD;}
	.st2{fill:#BB0D48;}
	.st3{fill:#1C353F;}
	.st4{fill:#FB8A52;}
	.st5{fill:#328C9B;}
	.st6{fill:#9E1248;}
	.st7{fill:#152D39;}
	.st8{fill:#FFFFFF;}
</style><g><g><path class="st0" d="M18.5,266.2c-6.9,0-12.5,5.6-12.5,12.5v182.8c0,0.1,0,0.2,0,0.3c0.1,11,13.5,16.4,21.3,8.6    l182.8-182.8c7.9-7.9,2.3-21.3-8.8-21.3H18.5z" id="XMLID_8_"/><path class="st1" d="M301.9,287.5l182.8,182.8c7.8,7.8,21.3,2.4,21.3-8.6c0-0.1,0-0.2,0-0.3V278.7    c0-6.9-5.6-12.5-12.5-12.5H310.7C299.6,266.2,294,279.6,301.9,287.5z" id="XMLID_7_"/><path class="st2" d="M210.1,224.5L27.3,41.7C19.5,33.9,6.1,39.3,6,50.3c0,0.1,0,0.2,0,0.3v182.8    c0,6.9,5.6,12.5,12.5,12.5h182.8C212.4,245.8,218,232.4,210.1,224.5z" id="XMLID_6_"/><path class="st3" d="M484.7,41.7L301.9,224.5c-7.9,7.9-2.3,21.3,8.8,21.3h182.8c6.9,0,12.5-5.6,12.5-12.5V50.6    c0-0.1,0-0.2,0-0.3C505.9,39.3,492.5,33.9,484.7,41.7z" id="XMLID_5_"/><path class="st4" d="M224.5,301.9L41.7,484.7c-7.8,7.8-2.4,21.3,8.6,21.3c0.1,0,0.2,0,0.3,0h182.8    c6.9,0,12.5-5.6,12.5-12.5V310.7C245.8,299.6,232.4,294,224.5,301.9z" id="XMLID_4_"/><path class="st5" d="M266.2,310.7v182.8c0,6.9,5.6,12.5,12.5,12.5h182.8c0.1,0,0.2,0,0.3,0    c11-0.1,16.4-13.5,8.6-21.3L287.5,301.9C279.6,294,266.2,299.6,266.2,310.7z" id="XMLID_3_"/><path class="st6" d="M245.8,201.3V18.5c0-6.9-5.6-12.5-12.5-12.5H50.6c-0.1,0-0.2,0-0.3,0    c-11,0.1-16.4,13.5-8.6,21.3l182.8,182.8C232.4,218,245.8,212.4,245.8,201.3z" id="XMLID_2_"/><path class="st7" d="M287.5,210.1L470.3,27.3c7.8-7.8,2.4-21.3-8.6-21.3c-0.1,0-0.2,0-0.3,0H278.7    c-6.9,0-12.5,5.6-12.5,12.5v182.8C266.2,212.4,279.6,218,287.5,210.1z" id="XMLID_1_"/></g><g><g id="XMLID_138_"><path class="st8" d="M320.3,122.6h-5.9V98.2h-6.1v-4.5l12-1.1V122.6z" id="XMLID_139_"/></g><g id="XMLID_135_"><path class="st8" d="M415.9,212.6h-19.8v-3.9l9.2-10.4c1.4-1.6,2.3-3,2.9-4.1c0.6-1.1,0.9-2.1,0.9-3.1     c0-1.2-0.3-2.2-0.9-2.9c-0.6-0.7-1.5-1.1-2.7-1.1c-1.3,0-2.3,0.5-3,1.4c-0.7,0.9-1.1,2.1-1.1,3.6h-5.8l0-0.1     c-0.1-2.6,0.8-4.9,2.6-6.7c1.8-1.8,4.2-2.7,7.3-2.7c3,0,5.4,0.8,7.1,2.3c1.7,1.6,2.5,3.6,2.5,6.2c0,1.8-0.5,3.4-1.4,4.9     c-0.9,1.5-2.6,3.5-4.9,6.1l-4.9,5.8l0,0.1h12.1V212.6z" id="XMLID_136_"/></g><g id="XMLID_132_"><path class="st8" d="M403.1,312.7c1.4,0,2.4-0.4,3.1-1.1c0.7-0.7,1-1.7,1-3c0-1.1-0.4-2-1.1-2.7     c-0.7-0.7-1.7-1.1-3-1.1c-1.1,0-2,0.3-2.7,1c-0.7,0.7-1.1,1.5-1.1,2.5h-5.6l0-0.1c-0.1-2.3,0.8-4.2,2.6-5.6     c1.8-1.5,4.1-2.2,6.8-2.2c3,0,5.4,0.7,7.2,2.1c1.8,1.4,2.7,3.5,2.7,6.1c0,1.3-0.4,2.6-1.2,3.7c-0.8,1.1-1.8,2-3.2,2.6     c1.5,0.6,2.7,1.4,3.5,2.6c0.8,1.2,1.2,2.6,1.2,4.2c0,2.7-1,4.8-2.9,6.3c-1.9,1.5-4.4,2.3-7.4,2.3c-2.7,0-5-0.7-7-2.2     c-2-1.4-3-3.5-2.9-6.1l0-0.1h5.7c0,1.1,0.4,2,1.2,2.8c0.8,0.7,1.8,1.1,3,1.1c1.3,0,2.4-0.4,3.2-1.2c0.8-0.8,1.2-1.8,1.2-3     c0-1.5-0.4-2.7-1.2-3.4c-0.8-0.7-1.9-1.1-3.4-1.1h-3.2v-4.4H403.1z" id="XMLID_133_"/></g><g id="XMLID_128_"><path class="st8" d="M321.8,404.4h3.4v4.7h-3.4v6.5h-6v-6.5h-12.2l-0.3-3.6l12.4-19.9h6.1V404.4z M308.8,404.4h7     v-10.9l-0.1,0l-0.6,1.3L308.8,404.4z" id="XMLID_129_"/></g><g id="XMLID_125_"><path class="st8" d="M190.5,405.9l1.7-16.5h16.5v4.8H197l-0.8,6.9c0.6-0.4,1.3-0.7,2.1-1     c0.8-0.3,1.8-0.4,2.7-0.4c2.7,0,4.9,0.8,6.4,2.5c1.5,1.7,2.3,4.2,2.3,7.3c0,2.9-0.8,5.3-2.5,7.1c-1.6,1.9-4.1,2.8-7.5,2.8     c-2.7,0-5.1-0.7-7-2.2c-1.9-1.4-2.9-3.4-2.8-5.9l0-0.1l5.7-0.3c0,1.2,0.4,2.2,1.1,2.9c0.7,0.7,1.7,1,2.9,1c1.4,0,2.4-0.5,3.1-1.4     c0.6-0.9,1-2.2,1-3.9c0-1.7-0.4-3.1-1.1-4.1c-0.7-1-1.7-1.5-3.1-1.5c-1.1,0-2,0.2-2.6,0.6c-0.6,0.4-1,1-1.3,1.7L190.5,405.9z" id="XMLID_126_"/></g><g id="XMLID_96_"><path class="st8" d="M107.6,301.8c1.1,0,2.2,0.1,3.2,0.3c1,0.2,1.9,0.5,2.9,0.9l-1,4.3c-0.9-0.3-1.7-0.5-2.4-0.7     c-0.7-0.2-1.6-0.2-2.5-0.2c-1.7,0-3.1,0.7-4.1,2c-1,1.3-1.6,3.1-1.6,5.5v0.9c0.8-0.8,1.7-1.4,2.8-1.8c1.1-0.4,2.3-0.6,3.6-0.6     c2.5,0,4.4,0.9,5.8,2.7c1.4,1.8,2.1,4.1,2.1,6.9c0,2.9-0.9,5.3-2.7,7.1c-1.8,1.8-4.2,2.7-7.1,2.7c-3,0-5.5-1-7.4-3.1     c-1.9-2.1-2.9-4.9-2.9-8.6v-6.1c0-3.7,1.1-6.7,3.3-8.9C101.5,303,104.3,301.8,107.6,301.8z M106.3,316.8c-1.1,0-2,0.2-2.7,0.5     c-0.7,0.3-1.3,0.8-1.7,1.4v1.6c0,2.2,0.4,4,1.2,5.2c0.8,1.2,1.9,1.8,3.3,1.8c1.2,0,2.2-0.5,2.9-1.5c0.7-1,1.1-2.3,1.1-3.9     c0-1.6-0.4-2.9-1.1-3.8C108.6,317.3,107.6,316.8,106.3,316.8z" id="XMLID_122_"/></g><g id="XMLID_93_"><path class="st8" d="M121.4,189.1c-3.4,4-5.7,7.5-6.9,10.7c-1.2,3.2-1.8,6.8-1.8,10.9v3.7h-6v-3.7     c0-4.2,0.8-8,2.3-11.4c1.5-3.4,3.8-6.9,6.7-10.2h-15.3v-4.6h21.1V189.1z" id="XMLID_94_"/></g><g id="XMLID_88_"><path class="st8" d="M207.8,102.3c0,1.4-0.4,2.7-1.1,3.8c-0.7,1.1-1.8,2-3.1,2.6c1.6,0.7,2.9,1.6,3.8,2.8     c0.9,1.2,1.4,2.6,1.4,4.2c0,2.7-0.9,4.8-2.8,6.3c-1.9,1.5-4.3,2.3-7.2,2.3c-3.1,0-5.6-0.8-7.5-2.3c-2-1.5-2.9-3.6-2.9-6.3     c0-1.6,0.5-3,1.5-4.2c1-1.2,2.3-2.2,3.9-2.8c-1.4-0.6-2.5-1.5-3.2-2.6c-0.8-1.1-1.2-2.4-1.2-3.8c0-2.6,0.9-4.5,2.6-5.9     c1.7-1.4,4-2.1,6.8-2.1c2.7,0,4.9,0.7,6.5,2.1C206.9,97.8,207.8,99.7,207.8,102.3z M202.9,115.5c0-1.3-0.4-2.4-1.2-3.2     c-0.8-0.8-1.8-1.3-3-1.3c-1.3,0-2.4,0.4-3.3,1.3c-0.9,0.8-1.3,1.9-1.3,3.2c0,1.3,0.4,2.4,1.3,3.2c0.9,0.8,2,1.2,3.3,1.2     c1.2,0,2.2-0.4,3-1.2C202.5,117.9,202.9,116.8,202.9,115.5z M201.9,102.6c0-1.1-0.3-2.1-0.9-2.7c-0.6-0.7-1.4-1-2.3-1     c-1.1,0-2,0.3-2.6,1c-0.7,0.7-1,1.6-1,2.8c0,1.2,0.3,2.1,1,2.9c0.7,0.7,1.5,1.1,2.6,1.1c1,0,1.7-0.4,2.3-1.1     C201.6,104.7,201.9,103.8,201.9,102.6z" id="XMLID_89_"/></g></g></g></svg>