<?xml version="1.0" ?><svg id="Layer_1" style="enable-background:new 0 0 512 512;" version="1.1" viewBox="0 0 512 512" xml:space="preserve" xmlns="http://www.w3.org/2000/svg" xmlns:xlink="http://www.w3.org/1999/xlink"><style type="text/css">
	.st0{fill:#152D39;}
	.st1{fill:#5CB8CD;}
	.st2{fill:#FB8A52;}
	.st3{fill:#BB0D48;}
	.st4{fill:#1C353F;}
	.st5{fill:#328C9B;}
	.st6{fill:#DD7547;}
	.st7{fill:#9E1248;}
	.st8{fill:#FFFFFF;}
	.st9{fill:#132B33;}
	.st10{fill:#287B84;}
	.st11{fill:#D36B42;}
	.st12{fill:#891041;}
</style><g><g><g><g><polygon class="st0" id="XMLID_56_" points="91,110 62.7,88.8 34.3,110 6,131.2 34.3,152.4 62.7,173.6 91,152.4 119.4,131.2           "/><polygon class="st1" id="XMLID_55_" points="91,202.9 62.7,181.7 34.3,202.9 6,224.1 34.3,245.3 62.7,266.5 91,245.3       119.4,224.1     "/><polygon class="st2" id="XMLID_54_" points="91,295.9 62.7,274.7 34.3,295.9 6,317.1 34.3,338.3 62.7,359.5 91,338.3       119.4,317.1     "/><polygon class="st3" id="XMLID_53_" points="91,388.8 62.7,367.6 34.3,388.8 6,410 34.3,431.2 62.7,452.4 91,431.2 119.4,410           "/></g><g><polygon class="st4" id="XMLID_52_" points="61.4,89.8 34.3,110 6,131.2 34.3,152.4 61.4,172.6     "/><polygon class="st5" id="XMLID_51_" points="61.4,182.7 34.3,202.9 6,224.1 34.3,245.3 61.4,265.5     "/><polygon class="st6" id="XMLID_50_" points="61.4,275.7 34.3,295.9 6,317.1 34.3,338.3 61.4,358.5     "/><polygon class="st7" id="XMLID_49_" points="61.4,368.6 34.3,388.8 6,410 34.3,431.2 61.4,451.4     "/></g></g><path class="st8" d="M84.3,137.3h-8.2l-2,5.6h-3L79,121h2.5l7.7,21.9h-3L84.3,137.3z M76.9,134.8h6.5l-3.2-9.4h-0.1L76.9,134.8z"/><path class="st8" d="M35.3,237.4v-25h8.2c2.6,0,4.7,0.6,6.1,1.7c1.5,1.1,2.2,2.8,2.2,5.1c0,1.1-0.3,2-1,2.9    c-0.7,0.9-1.5,1.5-2.6,1.9c1.6,0.2,2.9,0.9,3.9,2.1c1,1.2,1.4,2.6,1.4,4.2c0,2.3-0.7,4-2.2,5.2c-1.5,1.2-3.5,1.8-6,1.8H35.3z     M38.7,223h5.5c1.3,0,2.3-0.3,3.1-1c0.8-0.7,1.2-1.7,1.2-2.9c0-1.4-0.4-2.4-1.3-3c-0.9-0.7-2.1-1-3.7-1h-4.8V223z M38.7,225.7v9.1    h6.5c1.5,0,2.7-0.4,3.6-1.1c0.9-0.8,1.3-1.8,1.3-3.2c0-1.4-0.4-2.5-1.3-3.3c-0.9-0.8-2-1.3-3.5-1.4h-0.2H38.7z"/><path class="st8" d="M89.8,322.7L89.8,322.7c0.1,2.4-0.7,4.3-2.4,5.8c-1.6,1.5-3.8,2.3-6.5,2.3c-2.7,0-5-1-6.7-2.9    c-1.7-1.9-2.6-4.4-2.6-7.4v-4.3c0-3,0.9-5.4,2.6-7.4c1.7-1.9,4-2.9,6.7-2.9c2.7,0,4.9,0.7,6.5,2.2c1.6,1.5,2.4,3.4,2.4,5.8l0,0.1    h-3.1c0-1.7-0.5-3-1.5-4c-1-1-2.4-1.5-4.2-1.5c-1.8,0-3.3,0.7-4.4,2.2c-1.1,1.5-1.6,3.3-1.6,5.5v4.3c0,2.2,0.5,4,1.6,5.5    c1.1,1.5,2.5,2.2,4.4,2.2c1.8,0,3.2-0.5,4.2-1.5c1-1,1.5-2.3,1.5-4.1H89.8z"/><path class="st8" d="M32.2,422.2v-24.3h7.6c3.2,0,5.7,1,7.6,2.9c1.9,2,2.9,4.5,2.9,7.6v3.3c0,3.1-1,5.6-2.9,7.6    c-1.9,1.9-4.5,2.9-7.6,2.9H32.2z M35.5,400.5v19.1h4.4c2.2,0,4-0.7,5.3-2.2c1.3-1.5,1.9-3.4,1.9-5.7v-3.4c0-2.3-0.6-4.2-1.9-5.7    c-1.3-1.5-3.1-2.2-5.3-2.2H35.5z"/></g><g><g><g><g><polygon class="st4" id="XMLID_40_" points="249.9,105.9 221.6,84.7 193.2,105.9 164.9,127.1 193.2,148.3 221.6,169.5        249.9,148.3 278.3,127.1      "/><polygon class="st5" id="XMLID_39_" points="249.9,198.9 221.6,177.7 193.2,198.9 164.9,220.1 193.2,241.3 221.6,262.5        249.9,241.3 278.3,220.1      "/><polygon class="st6" id="XMLID_38_" points="249.9,291.8 221.6,270.6 193.2,291.8 164.9,313 193.2,334.2 221.6,355.4        249.9,334.2 278.3,313      "/><polygon class="st7" id="XMLID_37_" points="249.9,384.8 221.6,363.6 193.2,384.8 164.9,406 193.2,427.2 221.6,448.4        249.9,427.2 278.3,406      "/></g><g><polygon class="st9" id="XMLID_36_" points="285.9,105.9 257.6,84.7 229.2,105.9 200.9,127.1 229.2,148.3 257.6,169.5        285.9,148.3 314.3,127.1      "/><polygon class="st10" id="XMLID_35_" points="285.9,198.9 257.6,177.7 229.2,198.9 200.9,220.1 229.2,241.3 257.6,262.5        285.9,241.3 314.3,220.1      "/><polygon class="st11" id="XMLID_34_" points="285.9,291.8 257.6,270.6 229.2,291.8 200.9,313 229.2,334.2 257.6,355.4        285.9,334.2 314.3,313      "/><polygon class="st12" id="XMLID_33_" points="285.9,384.8 257.6,363.6 229.2,384.8 200.9,406 229.2,427.2 257.6,448.4        285.9,427.2 314.3,406      "/></g></g><g><polygon class="st0" id="XMLID_32_" points="267.9,105.9 239.6,84.7 211.2,105.9 182.9,127.1 211.2,148.3 239.6,169.5       267.9,148.3 296.3,127.1     "/><polygon class="st1" id="XMLID_31_" points="267.9,198.9 239.6,177.7 211.2,198.9 182.9,220.1 211.2,241.3 239.6,262.5       267.9,241.3 296.3,220.1     "/><polygon class="st2" id="XMLID_30_" points="267.9,291.8 239.6,270.6 211.2,291.8 182.9,313 211.2,334.2 239.6,355.4       267.9,334.2 296.3,313     "/><polygon class="st3" id="XMLID_29_" points="267.9,384.8 239.6,363.6 211.2,384.8 182.9,406 211.2,427.2 239.6,448.4       267.9,427.2 296.3,406     "/></g></g><path class="st8" d="M243.7,132.4h-8.2l-2,5.6h-3l7.9-21.9h2.5l7.7,21.9h-3L243.7,132.4z M236.4,129.9h6.5l-3.2-9.4h-0.1    L236.4,129.9z"/><path class="st8" d="M230.5,232.6v-25h8.2c2.6,0,4.7,0.6,6.1,1.7c1.5,1.1,2.2,2.8,2.2,5.1c0,1.1-0.3,2-1,2.9    c-0.7,0.9-1.5,1.5-2.6,1.9c1.6,0.2,2.9,0.9,3.9,2.1c1,1.2,1.4,2.6,1.4,4.2c0,2.3-0.7,4-2.2,5.2c-1.5,1.2-3.5,1.8-6,1.8H230.5z     M233.9,218.2h5.5c1.3,0,2.3-0.3,3.1-1c0.8-0.7,1.2-1.7,1.2-2.9c0-1.4-0.4-2.4-1.3-3c-0.9-0.7-2.1-1-3.7-1h-4.8V218.2z     M233.9,220.8v9.1h6.5c1.5,0,2.7-0.4,3.6-1.1c0.9-0.8,1.3-1.8,1.3-3.2c0-1.4-0.4-2.5-1.3-3.3c-0.9-0.8-2-1.3-3.5-1.4h-0.2H233.9z"/><path class="st8" d="M248.7,315.3L248.7,315.3c0.1,2.4-0.7,4.3-2.4,5.8c-1.6,1.5-3.8,2.3-6.5,2.3c-2.7,0-5-1-6.7-2.9    c-1.7-1.9-2.6-4.4-2.6-7.4v-4.3c0-3,0.9-5.4,2.6-7.4c1.7-1.9,4-2.9,6.7-2.9c2.7,0,4.9,0.7,6.5,2.2c1.6,1.5,2.4,3.4,2.4,5.8l0,0.1    h-3.1c0-1.7-0.5-3-1.5-4c-1-1-2.4-1.5-4.2-1.5c-1.8,0-3.3,0.7-4.4,2.2c-1.1,1.5-1.6,3.3-1.6,5.5v4.3c0,2.2,0.5,4,1.6,5.5    c1.1,1.5,2.5,2.2,4.4,2.2c1.8,0,3.2-0.5,4.2-1.5c1-1,1.5-2.3,1.5-4.1H248.7z"/><path class="st8" d="M230.5,418.1v-24.3h7.6c3.2,0,5.7,1,7.6,2.9c1.9,2,2.9,4.5,2.9,7.6v3.3c0,3.1-1,5.6-2.9,7.6    c-1.9,1.9-4.5,2.9-7.6,2.9H230.5z M233.8,396.4v19.1h4.4c2.2,0,4-0.7,5.3-2.2c1.3-1.5,1.9-3.4,1.9-5.7v-3.4c0-2.3-0.6-4.2-1.9-5.7    c-1.3-1.5-3.1-2.2-5.3-2.2H233.8z"/></g><g><g><g><polygon class="st4" id="XMLID_20_" points="450,101.9 421.7,80.7 393.3,101.9 365,123.1 393.3,144.3 421.7,165.5 450,144.3       478.4,123.1     "/><polygon class="st5" id="XMLID_19_" points="450,194.8 421.7,173.6 393.3,194.8 365,216 393.3,237.2 421.7,258.4 450,237.2       478.4,216     "/><polygon class="st6" id="XMLID_18_" points="450,287.8 421.7,266.6 393.3,287.8 365,309 393.3,330.2 421.7,351.4 450,330.2       478.4,309     "/><polygon class="st7" id="XMLID_17_" points="450,380.7 421.7,359.5 393.3,380.7 365,401.9 393.3,423.1 421.7,444.3 450,423.1       478.4,401.9     "/></g><g><polygon class="st9" id="XMLID_16_" points="477.7,80.8 449.3,59.6 421,80.8 392.6,102 421,123.2 449.3,144.4 477.7,123.2       506,102     "/><polygon class="st10" id="XMLID_15_" points="477.7,173.7 449.3,152.5 421,173.7 392.6,194.9 421,216.1 449.3,237.3       477.7,216.1 506,194.9     "/><polygon class="st11" id="XMLID_14_" points="477.7,266.7 449.3,245.5 421,266.7 392.6,287.9 421,309.1 449.3,330.3       477.7,309.1 506,287.9     "/><polygon class="st12" id="XMLID_13_" points="477.7,359.6 449.3,338.4 421,359.6 392.6,380.8 421,402 449.3,423.2 477.7,402       506,380.8     "/></g><g><polygon class="st0" id="XMLID_12_" points="462.2,92.4 433.9,71.2 405.5,92.4 377.2,113.6 405.5,134.8 433.9,156 462.2,134.8       490.5,113.6     "/><polygon class="st1" id="XMLID_11_" points="462.2,185.4 433.9,164.2 405.5,185.4 377.2,206.6 405.5,227.8 433.9,249       462.2,227.8 490.5,206.6     "/><polygon class="st2" id="XMLID_10_" points="462.2,278.3 433.9,257.1 405.5,278.3 377.2,299.5 405.5,320.7 433.9,341.9       462.2,320.7 490.5,299.5     "/><polygon class="st3" id="XMLID_9_" points="462.2,371.2 433.9,350 405.5,371.2 377.2,392.5 405.5,413.7 433.9,434.9       462.2,413.7 490.5,392.5     "/></g></g><path class="st8" d="M440,113.8h-8.2l-2,5.6h-3l7.9-21.9h2.5l7.7,21.9h-3L440,113.8z M432.6,111.3h6.5l-3.2-9.4h-0.1L432.6,111.3z    "/><path class="st8" d="M426.8,219.8v-25h8.2c2.6,0,4.7,0.6,6.1,1.7c1.5,1.1,2.2,2.8,2.2,5.1c0,1.1-0.3,2-1,2.9    c-0.7,0.9-1.5,1.5-2.6,1.9c1.6,0.2,2.9,0.9,3.9,2.1c1,1.2,1.4,2.6,1.4,4.2c0,2.3-0.7,4-2.2,5.2c-1.5,1.2-3.5,1.8-6,1.8H426.8z     M430.1,205.5h5.5c1.3,0,2.3-0.3,3.1-1c0.8-0.7,1.2-1.7,1.2-2.9c0-1.4-0.4-2.4-1.3-3c-0.9-0.7-2.1-1-3.7-1h-4.8V205.5z     M430.1,208.1v9.1h6.5c1.5,0,2.7-0.4,3.6-1.1c0.9-0.8,1.3-1.8,1.3-3.2c0-1.4-0.4-2.5-1.3-3.3c-0.9-0.8-2-1.3-3.5-1.4h-0.2H430.1z"/><path class="st8" d="M444.9,304.7L444.9,304.7c0.1,2.4-0.7,4.3-2.4,5.8c-1.6,1.5-3.8,2.3-6.5,2.3c-2.7,0-5-1-6.7-2.9    c-1.7-1.9-2.6-4.4-2.6-7.4v-4.3c0-3,0.9-5.4,2.6-7.4c1.7-1.9,4-2.9,6.7-2.9c2.7,0,4.9,0.7,6.5,2.2c1.6,1.5,2.4,3.4,2.4,5.8l0,0.1    h-3.1c0-1.7-0.5-3-1.5-4c-1-1-2.4-1.5-4.2-1.5c-1.8,0-3.3,0.7-4.4,2.2c-1.1,1.5-1.6,3.3-1.6,5.5v4.3c0,2.2,0.5,4,1.6,5.5    c1.1,1.5,2.5,2.2,4.4,2.2c1.8,0,3.2-0.5,4.2-1.5c1-1,1.5-2.3,1.5-4.1H444.9z"/><path class="st8" d="M426.8,404.6v-24.3h7.6c3.2,0,5.7,1,7.6,2.9c1.9,2,2.9,4.5,2.9,7.6v3.3c0,3.1-1,5.6-2.9,7.6    c-1.9,1.9-4.5,2.9-7.6,2.9H426.8z M430.1,382.9V402h4.4c2.2,0,4-0.7,5.3-2.2c1.3-1.5,1.9-3.4,1.9-5.7v-3.4c0-2.3-0.6-4.2-1.9-5.7    c-1.3-1.5-3.1-2.2-5.3-2.2H430.1z"/></g></g></svg>