<?xml version="1.0" ?><svg id="Layer_1" style="enable-background:new 0 0 512 512;" version="1.1" viewBox="0 0 512 512" xml:space="preserve" xmlns="http://www.w3.org/2000/svg" xmlns:xlink="http://www.w3.org/1999/xlink"><style type="text/css">
	.st0{fill:#152D39;}
	.st1{fill:#5CB8CD;}
	.st2{fill:#FB8A52;}
	.st3{fill:#BB0D48;}
	.st4{fill:#FFFFFF;}
</style><g><g><g><path class="st0" d="M256,19.8c-79.9,0-144.8,64.8-144.8,144.8S176.1,309.3,256,309.3s144.8-64.8,144.8-144.8     S335.9,19.8,256,19.8z M256,309c-42.1,0-76.4-34.3-76.4-76.4s34.3-76.4,76.4-76.4s76.4,34.3,76.4,76.4S298.1,309,256,309z"/></g><path class="st1" d="M361.2,202.7c-11.5,0-22.7,1.3-33.4,3.9c3,8.1,4.6,16.9,4.6,26c0,42.1-34.3,76.4-76.4,76.4    c-11.5,0-22.4-2.6-32.2-7.1c-4.8,14.3-7.3,29.7-7.3,45.6c0,79.9,64.8,144.8,144.8,144.8S506,427.4,506,347.5    S441.2,202.7,361.2,202.7z" id="XMLID_11_"/><path class="st2" d="M256,309c-42.1,0-76.4-34.3-76.4-76.4c0-9.1,1.6-17.9,4.6-26c-10.7-2.5-21.9-3.9-33.4-3.9    C70.8,202.7,6,267.5,6,347.5s64.8,144.8,144.8,144.8s144.8-64.8,144.8-144.8c0-15.9-2.6-31.3-7.3-45.6    C278.4,306.4,267.5,309,256,309z" id="XMLID_10_"/><g><path class="st3" d="M256,313c-44.3,0-80.4-36.1-80.4-80.4c0-44.3,36.1-80.4,80.4-80.4c44.3,0,80.4,36.1,80.4,80.4     C336.4,276.9,300.3,313,256,313z M256,160.2c-39.9,0-72.4,32.5-72.4,72.4S216.1,305,256,305c39.9,0,72.4-32.5,72.4-72.4     S295.9,160.2,256,160.2z"/></g><circle class="st3" cx="256" cy="232.6" id="XMLID_7_" r="57.8"/></g><path class="st4" d="M170,315.8L170,315.8c0.1,1.9-0.6,3.5-1.9,4.8c-1.3,1.3-3.1,1.9-5.3,1.9c-2.2,0-4.1-0.8-5.5-2.4   c-1.4-1.6-2.1-3.6-2.1-6.1v-3.5c0-2.4,0.7-4.5,2.1-6.1c1.4-1.6,3.2-2.4,5.5-2.4c2.2,0,4,0.6,5.4,1.8c1.3,1.2,2,2.8,1.9,4.8l0,0.1   h-2.6c0-1.4-0.4-2.5-1.2-3.3c-0.8-0.8-2-1.2-3.5-1.2c-1.5,0-2.7,0.6-3.6,1.8c-0.9,1.2-1.3,2.7-1.3,4.5v3.6c0,1.8,0.4,3.3,1.3,4.5   c0.9,1.2,2.1,1.8,3.6,1.8c1.5,0,2.6-0.4,3.5-1.2c0.8-0.8,1.2-1.9,1.2-3.3H170z"/><path class="st4" d="M353.8,322.5v-20.4h6.7c2.1,0,3.8,0.5,5,1.4c1.2,0.9,1.8,2.3,1.8,4.1c0,0.9-0.3,1.7-0.8,2.4   c-0.5,0.7-1.3,1.2-2.2,1.6c1.3,0.2,2.4,0.8,3.2,1.7c0.8,1,1.2,2.1,1.2,3.4c0,1.9-0.6,3.3-1.8,4.3c-1.2,1-2.9,1.5-4.9,1.5H353.8z    M356.6,310.7h4.5c1,0,1.9-0.3,2.5-0.8c0.6-0.6,1-1.4,1-2.4c0-1.1-0.3-1.9-1-2.5c-0.7-0.5-1.7-0.8-3-0.8h-3.9V310.7z M356.6,312.9   v7.4h5.3c1.3,0,2.2-0.3,2.9-0.9c0.7-0.6,1-1.5,1-2.6c0-1.1-0.4-2-1.1-2.7c-0.7-0.7-1.7-1.1-2.9-1.1h-0.2H356.6z"/><path class="st4" d="M259.9,110.7h-7.7l-1.8,5.3h-2.8l7.4-20.4h2.4l7.2,20.4h-2.8L259.9,110.7z M253,108.4h6.1l-3-8.8H256   L253,108.4z"/></g></svg>