<?xml version="1.0" ?><svg id="Layer_1" style="enable-background:new 0 0 512 512;" version="1.1" viewBox="0 0 512 512" xml:space="preserve" xmlns="http://www.w3.org/2000/svg" xmlns:xlink="http://www.w3.org/1999/xlink"><style type="text/css">
	.st0{fill:#DDD7D7;}
	.st1{fill:#152D39;}
	.st2{fill:#5CB8CD;}
	.st3{fill:#FB8A52;}
	.st4{fill:#BB0D48;}
	.st5{fill:#FFFFFF;}
</style><g><path class="st0" d="M294,378.6c-3.7,0-7.3-0.7-10.8-2c-9.1-3.6-18.8-5.4-28.8-5.4c-9.3,0-18.5,1.6-27.2,4.8   c-3.3,1.2-6.7,1.8-10.2,1.8c-11.7,0-22.3-6.9-27-17.6c-7.8-17.7-21.7-31.9-39.2-40c-14.1-6.5-20.7-23-15.1-37.4   c7-18,7.2-37.9,0.6-56c-5.3-14.6,1.6-30.9,15.8-37.1c17.7-7.8,31.9-21.7,40-39.2c4.8-10.4,15.3-17,26.7-17c3.7,0,7.3,0.7,10.8,2   c9.1,3.6,18.8,5.4,28.8,5.4c9.3,0,18.5-1.6,27.2-4.8c3.3-1.2,6.7-1.8,10.2-1.8c11.7,0,22.3,6.9,27,17.6c7.8,17.7,21.7,31.9,39.2,40   c14.1,6.5,20.7,23,15.1,37.4c-7,18-7.2,37.9-0.6,56c5.3,14.6-1.6,30.9-15.8,37.1c-17.7,7.8-31.9,21.7-40,39.2   C315.9,371.9,305.4,378.6,294,378.6z" id="XMLID_10_"/><path class="st1" d="M417.8,98c0.7-75.7-104.9-120.7-159-67.8c-53-54.1-159.5-11.2-160.3,64.5C22.8,94-22.2,199.6,30.7,253.7   c-54.1,53-11.2,159.5,64.5,160.3c-0.7,75.7,104.9,120.7,159,67.8c53,54.1,159.5,11.2,160.3-64.5c75.7,0.7,120.7-104.9,67.8-159   C536.3,205.3,493.4,98.8,417.8,98z M476.5,207c-1.7,12.1-6.7,22.3-14.8,30.3c-11.6,11.4-11.8,29.9-0.4,41.5   c8,8.1,12.7,18.4,14.2,30.5c1.4,11.9-0.6,25.1-5.7,37.2c-5.1,12.2-13.2,22.9-22.7,30.2c-9.7,7.4-20.4,11.2-31.8,11.2   c0,0-0.7,0-0.8,0c-16.1,0-29.2,12.9-29.4,29.1c-0.4,35.2-37.6,59.7-70.8,59.7c-11,0-26.7-2.7-39.2-15.4c-5.8-5.9-13.4-8.8-21-8.8   c-7.4,0-14.8,2.8-20.5,8.4c-12.4,12.1-27.5,14.6-38.1,14.6c-19.7,0-40.5-8.7-54.4-22.7c-7.6-7.7-16.7-20.6-16.5-38.4   c0.2-16.2-12.8-29.5-29.1-29.7c-11.5-0.1-22.1-4-31.7-11.6c-9.4-7.5-17.3-18.3-22.3-30.6c-4.9-12.3-6.7-25.6-5.1-37.4   c1.7-12.1,6.7-22.3,14.8-30.3c11.6-11.4,11.8-29.9,0.4-41.5c-8-8.1-12.7-18.4-14.2-30.5c-1.4-11.9,0.6-25.1,5.7-37.2   c5.1-12.2,13.2-22.9,22.7-30.2c9.7-7.4,20.4-11.2,31.8-11.2c0.2,0,0.7,0,0.8,0c16.1,0,29.2-12.9,29.4-29.1   c0.4-35.2,37.6-59.7,70.8-59.7c11,0,26.7,2.7,39.2,15.4c5.8,5.9,13.4,8.8,21,8.8c7.4,0,14.8-2.8,20.5-8.4   c12.4-12.1,27.5-14.6,38.1-14.6c19.7,0,40.5,8.7,54.4,22.7c7.6,7.7,16.7,20.6,16.5,38.4c-0.2,16.2,12.8,29.5,29.1,29.7   c11.5,0.1,22.1,4,31.7,11.6c9.4,7.5,17.3,18.3,22.3,30.6C476.3,181.8,478.2,195.1,476.5,207z"/><path class="st2" d="M476.5,207c1.6-11.9-0.2-25.2-5.1-37.4c-4.9-12.3-12.8-23.1-22.3-30.6c-9.6-7.6-20.3-11.5-31.7-11.6   c-16.2-0.2-29.2-13.5-29.1-29.7c0.2-17.7-8.9-30.6-16.5-38.4c-13.9-14-34.7-22.7-54.4-22.7c-10.6,0-25.7,2.5-38.1,14.6   c-5.7,5.6-13.1,8.4-20.5,8.4c-7.6,0-15.2-2.9-21-8.8c-12.5-12.8-28.2-15.4-39.2-15.4c-33.2,0-70.4,24.5-70.8,59.7   c-0.2,16.1-13.3,29.1-29.4,29.1c-0.1,0-0.6,0-0.8,0c-11.4,0-22.1,3.8-31.8,11.2c-9.5,7.3-17.6,18-22.7,30.2   c-5.1,12.1-7.1,25.3-5.7,37.2c1.4,12.1,6.2,22.3,14.2,30.5c11.3,11.6,11.1,30.2-0.4,41.5c-8.2,8-13.2,18.2-14.8,30.3   c-1.6,11.9,0.2,25.2,5.1,37.4c4.9,12.3,12.8,23.1,22.3,30.6c9.6,7.6,20.3,11.5,31.7,11.6c16.2,0.2,29.2,13.5,29.1,29.7   c-0.2,17.7,8.9,30.6,16.5,38.4c13.9,14,34.7,22.7,54.4,22.7c10.6,0,25.7-2.5,38.1-14.6c5.7-5.6,13.1-8.4,20.5-8.4   c7.6,0,15.2,2.9,21,8.8c12.5,12.8,28.2,15.4,39.2,15.4c33.2,0,70.4-24.5,70.8-59.7c0.2-16.1,13.3-29.1,29.4-29.1c0.1,0,0.8,0,0.8,0   c11.4,0,22.1-3.8,31.8-11.2c9.5-7.3,17.6-18,22.7-30.2c5.1-12.1,7.1-25.3,5.7-37.2c-1.4-12.1-6.2-22.3-14.2-30.5   c-11.3-11.6-11.1-30.2,0.4-41.5C469.9,229.3,474.9,219.1,476.5,207z M447.4,203c-0.8,5.7-2.8,9.9-6.3,13.3   c-23.1,22.7-23.5,59.9-0.9,83.1c3.4,3.5,5.3,7.8,6,13.4c0.8,6.8-0.5,14.9-3.6,22.3c-3.1,7.4-8,14.1-13.5,18.3   c-4.5,3.5-8.9,5.1-13.8,5.1c-0.3,0-0.8,0-0.9,0c-32,0-58.4,26.1-58.7,58.1c-0.2,17-22.8,30.6-41.4,30.6c-7.8,0-13.9-2.2-18.2-6.6   c-11.1-11.4-26-17.6-42-17.6c-15.5,0-30,6-41.1,16.8c-4.2,4.1-10.1,6.3-17.5,6.3c-11.7,0-25.2-5.6-33.5-14   c-5.4-5.5-8.1-11.3-8-17.4c0.3-32.4-25.8-59-58.1-59.3c-4.9-0.1-9.3-1.7-13.8-5.3c-5.4-4.3-10.2-11-13.2-18.5   c-3-7.5-4.2-15.7-3.3-22.5c0.8-5.7,2.8-9.9,6.3-13.3c23.1-22.7,23.5-59.9,0.9-83.1c-3.4-3.5-5.3-7.8-6-13.4   c-0.8-6.8,0.5-14.9,3.6-22.3c3.1-7.4,8-14.1,13.5-18.3c4.5-3.5,8.9-5.1,13.9-5.1l0.8,0c32,0,58.4-26.1,58.7-58.1   c0.2-17,22.8-30.6,41.4-30.6c7.8,0,13.9,2.2,18.2,6.6c11.1,11.4,26,17.6,42,17.6c15.5,0,30-6,41.1-16.8c4.2-4.1,10.1-6.3,17.5-6.3   c11.7,0,25.2,5.6,33.5,14c5.4,5.5,8.1,11.3,8,17.4c-0.3,32.4,25.8,59,58.1,59.3c4.9,0.1,9.3,1.7,13.8,5.3   c5.4,4.3,10.2,11,13.2,18.5C447.2,188,448.4,196.2,447.4,203z"/><path class="st3" d="M447.4,203c0.9-6.8-0.3-15-3.3-22.5c-3-7.5-7.8-14.2-13.2-18.5c-4.5-3.5-8.9-5.2-13.8-5.3   c-32.4-0.4-58.4-27-58.1-59.3c0.1-6.1-2.6-12-8-17.4c-8.3-8.4-21.8-14-33.5-14c-7.4,0-13.3,2.1-17.5,6.3   C288.9,83,274.3,89,258.8,89c-15.9,0-30.8-6.3-42-17.6c-4.3-4.4-10.4-6.6-18.2-6.6c-18.6,0-41.2,13.7-41.4,30.6   c-0.3,32-26.7,58.1-58.7,58.1l-0.8,0c-4.9,0-9.3,1.6-13.9,5.1c-5.5,4.2-10.4,10.9-13.5,18.3c-3.1,7.4-4.4,15.5-3.6,22.3   c0.7,5.6,2.6,9.9,6,13.4c22.6,23.1,22.3,60.4-0.9,83.1c-3.5,3.5-5.5,7.7-6.3,13.3c-0.9,6.8,0.3,15,3.3,22.5   c3,7.5,7.8,14.2,13.2,18.5c4.5,3.5,8.9,5.2,13.8,5.3c32.4,0.4,58.4,27,58.1,59.3c-0.1,6.1,2.6,12,8,17.4c8.3,8.4,21.8,14,33.5,14   c7.4,0,13.3-2.1,17.5-6.3c11-10.8,25.6-16.8,41.1-16.8c15.9,0,30.8,6.3,42,17.6c4.3,4.4,10.4,6.6,18.2,6.6   c18.6,0,41.2-13.7,41.4-30.6c0.3-32,26.7-58.1,58.7-58.1c0.1,0,0.6,0,0.9,0c4.9,0,9.3-1.6,13.8-5.1c5.5-4.2,10.4-10.9,13.5-18.3   c3.1-7.4,4.4-15.5,3.6-22.3c-0.7-5.6-2.6-9.9-6-13.4c-22.6-23.1-22.3-60.4,0.9-83.1C444.6,212.9,446.6,208.7,447.4,203z    M417.1,317.7c-0.1,1.5-0.5,3.7-1.5,6c-1,2.4-2.3,4.3-3.4,5.4c-46,1.2-83.7,38.2-85.8,84.1c-2.3,2-7.4,4.4-11.6,4.6   c-16.4-15.6-37.9-24.2-60.7-24.2c-22.1,0-43.1,8.1-59.4,23c-3.7-0.3-8.7-2.4-11.5-4.9c-1.2-46.1-38-83.6-84-85.8   c-1-1.1-2.3-3.1-3.2-5.5c-1-2.4-1.4-4.6-1.4-6.1c31.7-33.4,32.3-86,1.2-120c0.1-1.5,0.5-3.7,1.5-6c1-2.4,2.3-4.3,3.4-5.5   c46-1.2,83.7-38.2,85.8-84.1c2.3-2,7.4-4.4,11.6-4.6c16.4,15.6,37.9,24.2,60.7,24.2c22.1,0,43.1-8.1,59.4-23   c3.7,0.3,8.7,2.4,11.5,4.9c1.2,46.1,38,83.6,84,85.8c1,1.1,2.3,3.1,3.2,5.5c1,2.4,1.3,4.6,1.4,6.1C386.6,231,386,283.6,417.1,317.7   z"/><path class="st4" d="M416.9,200.3c2.2-2.6,2.8-6.2,1.6-9.3c0-0.1,0-0.1-0.1-0.2c0-0.1-0.1-0.1-0.1-0.2c-1.3-3.1-4.2-5.3-7.6-5.6   c-42.9-4.1-76.9-38.8-80.2-81.8c-0.3-3.4-2.4-6.4-5.5-7.7c-0.1-0.1-0.2-0.1-0.4-0.2c-3.2-1.3-6.8-0.7-9.4,1.5   c-15.9,13.1-35.7,20.2-56.5,20.2c-21.5,0-41.8-7.5-57.9-21.4c-2.6-2.3-6.3-2.9-9.5-1.6c0,0-0.1,0-0.1,0.1c-3.2,1.3-5.4,4.2-5.7,7.6   c-4.2,42.8-38.9,76.9-81.9,80.1c-3.4,0.3-6.4,2.4-7.7,5.5c0,0.1-0.1,0.1-0.1,0.2c0,0,0,0.1-0.1,0.1c-1.3,3.1-0.7,6.7,1.4,9.3   c27.5,33.3,27,81.9-1.2,114.6c-2.2,2.6-2.8,6.2-1.6,9.3c0,0.1,0,0.1,0.1,0.2c0,0.1,0.1,0.1,0.1,0.2c1.3,3.1,4.2,5.3,7.6,5.6   c42.9,4.1,76.9,38.8,80.2,81.8c0.3,3.4,2.4,6.4,5.5,7.7c0.1,0.1,0.2,0.1,0.4,0.2c3.2,1.3,6.8,0.7,9.4-1.5   c15.9-13.1,35.7-20.2,56.5-20.2c21.5,0,41.8,7.5,57.9,21.4c2.6,2.3,6.3,2.9,9.5,1.6c0,0,0.1,0,0.1-0.1c3.2-1.3,5.4-4.2,5.7-7.6   c4.2-42.8,38.9-76.9,81.9-80.1c3.4-0.3,6.4-2.4,7.7-5.5c0-0.1,0.1-0.1,0.1-0.2c0,0,0-0.1,0.1-0.1c1.3-3.1,0.7-6.7-1.4-9.3   C388.3,281.7,388.8,233.1,416.9,200.3z M368,310.4c-26,11.6-47.2,32.3-59.3,58.1c-2.1,4.4-7.2,6.5-11.8,4.7   c-13.5-5.2-27.9-7.9-42.7-7.9c-14,0-27.6,2.4-40.5,7.1c-4.6,1.7-9.6-0.6-11.6-5c-11.6-26-32.4-47.1-58.1-59.2   c-4.4-2.1-6.5-7.2-4.7-11.8c10.2-26.6,10.5-56.3,0.9-83.1c-1.7-4.6,0.5-9.7,5-11.7c26-11.6,47.2-32.3,59.3-58.1   c2.1-4.4,7.2-6.5,11.8-4.7c13.5,5.2,27.9,7.9,42.7,7.9c14,0,27.6-2.4,40.5-7.1c4.6-1.7,9.6,0.6,11.6,5c11.6,26,32.4,47.1,58.1,59.3   c4.4,2.1,6.5,7.2,4.7,11.8c-10.2,26.6-10.5,56.3-0.9,83.1C374.6,303.4,372.4,308.4,368,310.4z"/><path class="st5" d="M298.1,346.7c-1.5,3.3-5.3,4.8-8.7,3.5c-11-4.3-22.7-6.5-34.8-6.5c-11.4,0-22.5,2-32.9,5.9   c-3.4,1.3-7.2-0.3-8.6-3.6c-9.4-21.2-26.3-38.5-47.3-48.3c-3.3-1.5-4.8-5.3-3.5-8.7c8.4-21.7,8.7-45.9,0.7-67.7   c-1.2-3.4,0.4-7.1,3.7-8.6c21.2-9.3,38.5-26.3,48.3-47.3c1.5-3.3,5.3-4.8,8.7-3.5c10.9,4.3,22.7,6.5,34.8,6.5   c11.4,0,22.5-2,32.9-5.9c3.4-1.3,7.2,0.3,8.6,3.6c9.4,21.2,26.3,38.5,47.3,48.3c3.3,1.5,4.8,5.3,3.5,8.7   c-8.4,21.7-8.7,45.9-0.7,67.7c1.2,3.4-0.4,7.1-3.7,8.6C325.1,308.7,307.9,325.7,298.1,346.7z" id="XMLID_1_"/></g></svg>