<?xml version="1.0" ?><svg id="Layer_1" style="enable-background:new 0 0 512 512;" version="1.1" viewBox="0 0 512 512" xml:space="preserve" xmlns="http://www.w3.org/2000/svg" xmlns:xlink="http://www.w3.org/1999/xlink"><style type="text/css">
	.st0{fill:#152D39;}
	.st1{fill:#BB0D48;}
	.st2{fill:#5CB8CD;}
	.st3{fill:#FB8A52;}
	.st4{fill:#FFFFFF;}
</style><g><g><path class="st0" d="M256,244.3L426.8,73.5C382.1,31.6,322.1,6,256,6h0C190,6,129.9,31.6,85.2,73.5L256,244.3z" id="XMLID_12_"/><path class="st1" d="M244.3,256L73.5,85.2C31.6,129.9,6,190,6,256v0c0,66,25.6,126.1,67.5,170.8L244.3,256z" id="XMLID_11_"/><path class="st2" d="M438.5,85.2L267.7,256l170.8,170.8C480.4,382.1,506,322,506,256v0    C506,190,480.4,129.9,438.5,85.2z" id="XMLID_10_"/><path class="st3" d="M256,267.7L85.2,438.5C129.9,480.4,189.9,506,256,506h0c66,0,126.1-25.6,170.8-67.5L256,267.7z    " id="XMLID_9_"/></g><path class="st4" d="M262.6,197.4h-11.3l-2.7,7.8h-4.2l10.9-30.1h3.5l10.6,30.1h-4.2L262.6,197.4z M252.5,194h9l-4.4-12.9H257   L252.5,194z"/><path class="st4" d="M309.1,271.6v-34.4h11.2c3.6,0,6.4,0.8,8.4,2.3c2,1.6,3,3.9,3,7c0,1.5-0.5,2.8-1.4,4c-0.9,1.2-2.1,2.1-3.6,2.7   c2.3,0.3,4,1.3,5.3,2.9c1.3,1.6,2,3.6,2,5.8c0,3.1-1,5.6-3.1,7.2c-2,1.7-4.8,2.5-8.3,2.5H309.1z M313.8,251.9h7.5   c1.7,0,3.1-0.5,4.2-1.4c1.1-1,1.6-2.3,1.6-4c0-1.9-0.6-3.2-1.8-4.2c-1.2-0.9-2.9-1.4-5.1-1.4h-6.6V251.9z M313.8,255.5V268h9   c2.1,0,3.8-0.5,4.9-1.6c1.2-1,1.8-2.5,1.8-4.5c0-1.9-0.6-3.4-1.8-4.6c-1.2-1.2-2.8-1.8-4.8-1.9h-0.3H313.8z"/><path class="st4" d="M269.4,314l0,0.1c0.1,3.1-1,5.7-3.3,7.8c-2.3,2.1-5.2,3.2-8.9,3.2c-3.8,0-6.8-1.3-9.2-4   c-2.4-2.7-3.6-6.1-3.6-10.2v-5.9c0-4.1,1.2-7.5,3.6-10.2c2.4-2.7,5.4-4,9.2-4c3.8,0,6.8,1,9,3c2.2,2,3.3,4.7,3.2,8l0,0.1h-4.3   c0-2.3-0.7-4.2-2.1-5.5c-1.4-1.4-3.3-2-5.8-2c-2.5,0-4.5,1-6,3c-1.5,2-2.2,4.5-2.2,7.5v6c0,3,0.7,5.6,2.2,7.6c1.5,2,3.5,3,6,3   c2.5,0,4.4-0.7,5.8-2c1.4-1.3,2.1-3.2,2.1-5.6H269.4z"/><path class="st4" d="M187.2,272.6v-33.4h10.5c4.4,0,7.9,1.3,10.5,4c2.7,2.7,4,6.2,4,10.4v4.6c0,4.3-1.3,7.7-4,10.4   c-2.7,2.7-6.2,4-10.5,4H187.2z M191.7,242.8v26.3h6c3.1,0,5.5-1,7.3-3.1c1.8-2,2.7-4.6,2.7-7.8v-4.6c0-3.1-0.9-5.7-2.7-7.8   c-1.8-2-4.2-3.1-7.3-3.1H191.7z"/></g></svg>