<?xml version="1.0" ?><svg id="Layer_1" style="enable-background:new 0 0 512 512;" version="1.1" viewBox="0 0 512 512" xml:space="preserve" xmlns="http://www.w3.org/2000/svg" xmlns:xlink="http://www.w3.org/1999/xlink"><style type="text/css">
	.st0{fill:#328C9B;}
	.st1{fill:#BB0D48;}
	.st2{fill:#FB8A52;}
	.st3{fill:#5CB8CD;}
	.st4{fill:#9E1248;}
	.st5{fill:#DD7547;}
	.st6{fill:#152D39;}
	.st7{fill:#1C353F;}
	.st8{fill:#E8E8E8;}
	.st9{fill:#FFFFFF;}
</style><g><g><g><polygon class="st0" id="XMLID_37_" points="501.2,364.3 312.1,391.3 312.1,391.4 311.9,391.4 311.5,391.4 311.5,391.4      213.2,391.4 362,502.7    "/><polygon class="st1" id="XMLID_36_" points="120.6,200.1 120.6,199.9 190.5,130 6.6,156.5 6,352.8    "/><polygon class="st2" id="XMLID_35_" points="352.8,506 199.7,391.4 199.8,391.2 130.2,321.7 156.5,505.4    "/><polygon class="st3" id="XMLID_34_" points="391.4,312 391.4,312.1 391,312.4 390.6,313 390.5,312.9 321.7,381.8 505.4,355.5      506,159.2    "/><polygon class="st4" id="XMLID_33_" points="200.3,120.4 200.4,120.6 298.3,120.6 150,9.3 10.8,147.6    "/><polygon class="st5" id="XMLID_32_" points="120.6,312.1 120.6,312.1 120.6,213.6 9.3,362 147.7,501.2    "/><polygon class="st6" id="XMLID_3_" points="311.8,120.6 312.1,120.6 382.4,190.9 360.8,7.2 359.6,6 159.2,6    "/><polygon class="st7" id="XMLID_2_" points="502.7,150 370,16.5 391.5,199.5 391,199.5 391.4,199.9 391.4,298.4    "/></g><polygon class="st8" id="XMLID_1_" points="199.9,391.4 120.6,312.1 120.6,199.9 199.9,120.6 312.1,120.6 391.4,199.9     391.4,312.1 312.1,391.4   "/></g><g><g id="XMLID_29_"><path class="st9" d="M320.3,72.5h-5.9V48.1h-6.1v-4.5l12-1.1V72.5z" id="XMLID_30_"/></g><g id="XMLID_26_"><path class="st9" d="M446.6,169.5h-19.8v-3.9l9.2-10.4c1.4-1.6,2.3-3,2.9-4.1c0.6-1.1,0.9-2.1,0.9-3.1     c0-1.2-0.3-2.2-0.9-2.9c-0.6-0.7-1.5-1.1-2.7-1.1c-1.3,0-2.3,0.5-3,1.4c-0.7,0.9-1.1,2.1-1.1,3.6h-5.8l0-0.1     c-0.1-2.6,0.8-4.9,2.6-6.7c1.8-1.8,4.2-2.7,7.3-2.7c3,0,5.4,0.8,7.1,2.3c1.7,1.6,2.5,3.6,2.5,6.2c0,1.8-0.5,3.4-1.4,4.9     c-0.9,1.5-2.6,3.5-4.9,6.1l-4.9,5.8l0,0.1h12.1V169.5z" id="XMLID_27_"/></g><g id="XMLID_23_"><path class="st9" d="M458.7,310.8c1.4,0,2.4-0.4,3.1-1.1c0.7-0.7,1-1.7,1-3c0-1.1-0.4-2-1.1-2.7     c-0.7-0.7-1.7-1.1-3-1.1c-1.1,0-2,0.3-2.7,1c-0.7,0.7-1.1,1.5-1.1,2.5h-5.6l0-0.1c-0.1-2.3,0.8-4.2,2.6-5.6     c1.8-1.5,4.1-2.2,6.8-2.2c3,0,5.4,0.7,7.2,2.1c1.8,1.4,2.7,3.5,2.7,6.1c0,1.3-0.4,2.6-1.2,3.7c-0.8,1.1-1.8,2-3.2,2.6     c1.5,0.6,2.7,1.4,3.5,2.6c0.8,1.2,1.2,2.6,1.2,4.2c0,2.7-1,4.8-2.9,6.3c-1.9,1.5-4.4,2.3-7.4,2.3c-2.7,0-5-0.7-7-2.2     c-2-1.4-3-3.5-2.9-6.1l0-0.1h5.7c0,1.1,0.4,2,1.2,2.8c0.8,0.7,1.8,1.1,3,1.1c1.3,0,2.4-0.4,3.2-1.2c0.8-0.8,1.2-1.8,1.2-3     c0-1.5-0.4-2.7-1.2-3.4c-0.8-0.7-1.9-1.1-3.4-1.1h-3.2v-4.4H458.7z" id="XMLID_24_"/></g><g id="XMLID_19_"><path class="st9" d="M364.8,437.4h3.4v4.7h-3.4v6.5h-6V442h-12.2l-0.3-3.6l12.4-19.9h6.1V437.4z M351.7,437.4h7     v-10.9l-0.1,0l-0.6,1.3L351.7,437.4z" id="XMLID_20_"/></g><g id="XMLID_16_"><path class="st9" d="M190.5,450.1l1.7-16.5h16.5v4.8H197l-0.8,6.9c0.6-0.4,1.3-0.7,2.1-1c0.8-0.3,1.8-0.4,2.7-0.4     c2.7,0,4.9,0.8,6.4,2.5c1.5,1.7,2.3,4.2,2.3,7.3c0,2.9-0.8,5.3-2.5,7.1c-1.6,1.9-4.1,2.8-7.5,2.8c-2.7,0-5.1-0.7-7-2.2     c-1.9-1.4-2.9-3.4-2.8-5.9l0-0.1l5.7-0.3c0,1.2,0.4,2.2,1.1,2.9c0.7,0.7,1.7,1,2.9,1c1.4,0,2.4-0.5,3.1-1.4c0.6-0.9,1-2.2,1-3.9     c0-1.7-0.4-3.1-1.1-4.1c-0.7-1-1.7-1.5-3.1-1.5c-1.1,0-2,0.2-2.6,0.6c-0.6,0.4-1,1-1.3,1.7L190.5,450.1z" id="XMLID_17_"/></g><g id="XMLID_12_"><path class="st9" d="M89.9,349.3c1.1,0,2.2,0.1,3.2,0.3c1,0.2,1.9,0.5,2.9,0.9l-1,4.3c-0.9-0.3-1.7-0.5-2.4-0.7     c-0.7-0.2-1.6-0.2-2.5-0.2c-1.7,0-3.1,0.7-4.1,2c-1,1.3-1.6,3.1-1.6,5.5v0.9c0.8-0.8,1.7-1.4,2.8-1.8c1.1-0.4,2.3-0.6,3.6-0.6     c2.5,0,4.4,0.9,5.8,2.7c1.4,1.8,2.1,4.1,2.1,6.9c0,2.9-0.9,5.3-2.7,7.1c-1.8,1.8-4.2,2.7-7.1,2.7c-3,0-5.5-1-7.4-3.1     c-1.9-2.1-2.9-4.9-2.9-8.6v-6.1c0-3.7,1.1-6.7,3.3-8.9C83.9,350.5,86.6,349.3,89.9,349.3z M88.7,364.3c-1.1,0-2,0.2-2.7,0.5     c-0.7,0.3-1.3,0.8-1.7,1.4v1.6c0,2.2,0.4,4,1.2,5.2c0.8,1.2,1.9,1.8,3.3,1.8c1.2,0,2.2-0.5,2.9-1.5c0.7-1,1.1-2.3,1.1-3.9     c0-1.6-0.4-2.9-1.1-3.8C90.9,364.8,89.9,364.3,88.7,364.3z" id="XMLID_13_"/></g><g id="XMLID_9_"><path class="st9" d="M74.5,195.5c-3.4,4-5.7,7.5-6.9,10.7c-1.2,3.2-1.8,6.8-1.8,10.9v3.7h-6v-3.7     c0-4.2,0.8-8,2.3-11.4c1.5-3.4,3.8-6.9,6.7-10.2H53.4v-4.6h21.1V195.5z" id="XMLID_10_"/></g><g id="XMLID_4_"><path class="st9" d="M163.8,71.4c0,1.4-0.4,2.7-1.1,3.8c-0.7,1.1-1.8,2-3.1,2.6c1.6,0.7,2.9,1.6,3.8,2.8     c0.9,1.2,1.4,2.6,1.4,4.2c0,2.7-0.9,4.8-2.8,6.3c-1.9,1.5-4.3,2.3-7.2,2.3c-3.1,0-5.6-0.8-7.5-2.3c-2-1.5-2.9-3.6-2.9-6.3     c0-1.6,0.5-3,1.5-4.2c1-1.2,2.3-2.2,3.9-2.8c-1.4-0.6-2.5-1.5-3.2-2.6c-0.8-1.1-1.2-2.4-1.2-3.8c0-2.6,0.9-4.5,2.6-5.9     c1.7-1.4,4-2.1,6.8-2.1c2.7,0,4.9,0.7,6.5,2.1C163,66.9,163.8,68.9,163.8,71.4z M158.9,84.6c0-1.3-0.4-2.4-1.2-3.2     c-0.8-0.8-1.8-1.3-3-1.3c-1.3,0-2.4,0.4-3.3,1.3c-0.9,0.8-1.3,1.9-1.3,3.2c0,1.3,0.4,2.4,1.3,3.2c0.9,0.8,2,1.2,3.3,1.2     c1.2,0,2.2-0.4,3-1.2C158.5,87,158.9,85.9,158.9,84.6z M158,71.7c0-1.1-0.3-2.1-0.9-2.7c-0.6-0.7-1.4-1-2.3-1c-1.1,0-2,0.3-2.6,1     c-0.7,0.7-1,1.6-1,2.8c0,1.2,0.3,2.1,1,2.9c0.7,0.7,1.5,1.1,2.6,1.1c1,0,1.7-0.4,2.3-1.1C157.7,73.9,158,72.9,158,71.7z" id="XMLID_5_"/></g></g></g></svg>