<?xml version="1.0" ?><svg id="Layer_1" style="enable-background:new 0 0 512 512;" version="1.1" viewBox="0 0 512 512" xml:space="preserve" xmlns="http://www.w3.org/2000/svg" xmlns:xlink="http://www.w3.org/1999/xlink"><style type="text/css">
	.st0{fill:#152D39;}
	.st1{fill:#FB8A52;}
	.st2{fill:#5CB8CD;}
	.st3{fill:#BB0D48;}
	.st4{fill:#1C353F;}
	.st5{fill:#DD7547;}
	.st6{fill:#328C9B;}
	.st7{fill:#9E1248;}
	.st8{fill:#E8E8E8;}
</style><g><g><g><g><g><polygon class="st0" id="XMLID_25_" points="140.2,163.6 182.8,77.6 225.5,163.6      "/><polygon class="st1" id="XMLID_24_" points="53.2,339 92.1,260.7 273.6,260.7 312.4,339      "/><polygon class="st2" id="XMLID_19_" points="230.1,173 268.9,251.3 96.7,251.3 135.6,173      "/><polygon class="st3" id="XMLID_18_" points="317.1,348.4 359.7,434.4 182.8,434.4 6,434.4 48.6,348.4      "/></g><g><polygon class="st4" id="XMLID_17_" points="184.8,81.6 225.5,163.6 184.8,163.6      "/><polygon class="st5" id="XMLID_15_" points="184.8,260.7 273.6,260.7 312.4,339 184.8,339      "/><polygon class="st6" id="XMLID_14_" points="184.8,173 230.1,173 268.9,251.3 184.8,251.3      "/><polygon class="st7" id="XMLID_13_" points="184.8,348.4 317.1,348.4 359.7,434.4 184.8,434.4      "/></g></g></g><path class="st8" d="M182.8,77.6h123.7c23.7,0,43,19.2,43,43v0c0,23.7-19.2,43-43,43h-81.1L182.8,77.6z" id="XMLID_12_"/><path class="st8" d="M230.1,173h128.3c21.6,0,39.2,17.5,39.2,39.2v0c0,21.6-17.5,39.2-39.2,39.2h-89.4L230.1,173z" id="XMLID_11_"/><path class="st8" d="M273.6,260.7h136.5c21.6,0,39.2,17.5,39.2,39.2v0c0,21.6-17.5,39.2-39.2,39.2h-97.7    L273.6,260.7z" id="XMLID_10_"/><path class="st8" d="M317.1,348.4l146,0c23.7,0,43,19.2,43,43v0c0,23.7-19.2,43-43,43H359.7L317.1,348.4z" id="XMLID_9_"/></g><path class="st0" d="M319.5,123.4h-11.3l-2.7,7.8h-4.2l10.9-30.1h3.5l10.6,30.1h-4.2L319.5,123.4z M309.4,120h9l-4.4-12.9h-0.1   L309.4,120z"/><path class="st2" d="M348.9,229.3V195h11.2c3.6,0,6.4,0.8,8.4,2.3c2,1.6,3,3.9,3,7c0,1.5-0.5,2.8-1.4,4c-0.9,1.2-2.1,2.1-3.6,2.7   c2.3,0.3,4,1.3,5.3,2.9c1.3,1.6,2,3.6,2,5.8c0,3.1-1,5.6-3.1,7.2c-2,1.7-4.8,2.5-8.3,2.5H348.9z M353.6,209.6h7.5   c1.7,0,3.1-0.5,4.2-1.4c1.1-1,1.6-2.3,1.6-4c0-1.9-0.6-3.2-1.8-4.2c-1.2-0.9-2.9-1.4-5.1-1.4h-6.6V209.6z M353.6,213.2v12.5h9   c2.1,0,3.8-0.5,4.9-1.6c1.2-1,1.8-2.5,1.8-4.5c0-1.9-0.6-3.4-1.8-4.6c-1.2-1.2-2.8-1.8-4.8-1.9h-0.3H353.6z"/><path class="st1" d="M426.2,305.8l0,0.1c0.1,3.1-1,5.7-3.3,7.8c-2.3,2.1-5.2,3.2-8.9,3.2c-3.8,0-6.8-1.3-9.2-4   c-2.4-2.7-3.6-6.1-3.6-10.2v-5.9c0-4.1,1.2-7.5,3.6-10.2c2.4-2.7,5.4-4,9.2-4c3.8,0,6.8,1,9,3c2.2,2,3.3,4.7,3.2,8l0,0.1h-4.3   c0-2.3-0.7-4.2-2.1-5.5c-1.4-1.4-3.3-2-5.8-2c-2.5,0-4.5,1-6,3c-1.5,2-2.2,4.5-2.2,7.5v6c0,3,0.7,5.6,2.2,7.6c1.5,2,3.5,3,6,3   c2.5,0,4.4-0.7,5.8-2c1.4-1.3,2.1-3.2,2.1-5.6H426.2z"/><path class="st3" d="M458.7,408.1v-33.4h10.5c4.4,0,7.9,1.3,10.5,4c2.7,2.7,4,6.2,4,10.4v4.6c0,4.3-1.3,7.7-4,10.4   c-2.7,2.7-6.2,4-10.5,4H458.7z M463.3,378.2v26.3h6c3.1,0,5.5-1,7.3-3.1c1.8-2,2.7-4.6,2.7-7.8V389c0-3.1-0.9-5.7-2.7-7.8   c-1.8-2-4.2-3.1-7.3-3.1H463.3z"/></g></svg>