<?xml version="1.0" ?><svg id="Layer_1" style="enable-background:new 0 0 512 512;" version="1.1" viewBox="0 0 512 512" xml:space="preserve" xmlns="http://www.w3.org/2000/svg" xmlns:xlink="http://www.w3.org/1999/xlink"><style type="text/css">
	.st0{fill:#FFFFFF;}
	.st1{fill:#152D39;}
	.st2{fill:#FB8A52;}
	.st3{fill:#5CB8CD;}
	.st4{fill:#BB0D48;}
	.st5{fill:#DDD7D7;}
	.st6{fill:#E8E8E8;}
</style><g><g><g><g><path class="st0" d="M251.2,255.9" id="XMLID_22_"/><path class="st0" d="M260.8,255.9" id="XMLID_21_"/></g><g><path class="st0" d="M255.9,251.2" id="XMLID_20_"/><path class="st0" d="M255.9,260.8" id="XMLID_19_"/></g></g><g><g><path class="st0" d="M251.3,256" id="XMLID_18_"/><path class="st0" d="M260.9,256" id="XMLID_17_"/><path class="st1" d="M258.4,256c302.7-333.3-307.3-333.3-4.6,0H258.4z" id="XMLID_16_"/><path class="st2" d="M253.6,256c-302.7,333.3,307.3,333.3,4.6,0H253.6z" id="XMLID_15_"/></g><g><path class="st0" d="M256,251.3" id="XMLID_14_"/><path class="st0" d="M256,260.9" id="XMLID_13_"/><path class="st3" d="M256,258.4c333.3,302.7,333.3-307.3,0-4.6V258.4z" id="XMLID_12_"/><path class="st4" d="M256,253.6c-333.3-302.7-333.3,307.3,0,4.6V253.6z" id="XMLID_11_"/></g></g><g><path class="st5" d="M256,332.1c-42,0-76.1-34.2-76.1-76.1s34.2-76.1,76.1-76.1s76.1,34.2,76.1,76.1     S298,332.1,256,332.1z" id="XMLID_10_"/><circle class="st6" cx="256" cy="256" id="XMLID_9_" r="65.3"/></g></g><g><path class="st0" d="M261.7,126.8h-11.3l-2.7,7.8h-4.2l10.9-30.1h3.5l10.6,30.1h-4.2L261.7,126.8z M251.5,123.3h9l-4.4-12.9H256    L251.5,123.3z"/><path class="st0" d="M268.5,396.5l0,0.1c0.1,3.1-1,5.7-3.3,7.8c-2.3,2.1-5.2,3.2-8.9,3.2c-3.8,0-6.8-1.3-9.2-4    c-2.4-2.7-3.6-6.1-3.6-10.2v-5.9c0-4.1,1.2-7.5,3.6-10.2c2.4-2.7,5.4-4,9.2-4c3.8,0,6.8,1,9,3c2.2,2,3.3,4.7,3.2,8l0,0.1h-4.3    c0-2.3-0.7-4.2-2.1-5.5c-1.4-1.4-3.3-2-5.8-2c-2.5,0-4.5,1-6,3c-1.5,2-2.2,4.5-2.2,7.5v6c0,3,0.7,5.6,2.2,7.6c1.5,2,3.5,3,6,3    c2.5,0,4.4-0.7,5.8-2c1.4-1.3,2.1-3.2,2.1-5.6H268.5z"/></g><g><path class="st0" d="M380.5,273.2v-34.4h11.2c3.6,0,6.4,0.8,8.4,2.3c2,1.6,3,3.9,3,7c0,1.5-0.5,2.8-1.4,4    c-0.9,1.2-2.1,2.1-3.6,2.7c2.3,0.3,4,1.3,5.3,2.9c1.3,1.6,2,3.6,2,5.8c0,3.1-1,5.6-3.1,7.2c-2,1.7-4.8,2.5-8.3,2.5H380.5z     M385.2,253.4h7.5c1.7,0,3.1-0.5,4.2-1.4c1.1-1,1.6-2.3,1.6-4c0-1.9-0.6-3.2-1.8-4.2c-1.2-0.9-2.9-1.4-5.1-1.4h-6.6V253.4z     M385.2,257.1v12.5h9c2.1,0,3.8-0.5,4.9-1.6c1.2-1,1.8-2.5,1.8-4.5c0-1.9-0.6-3.4-1.8-4.6c-1.2-1.2-2.8-1.8-4.8-1.9h-0.3H385.2z"/><path class="st0" d="M106.5,272.7v-33.4H117c4.4,0,7.9,1.3,10.5,4c2.7,2.7,4,6.2,4,10.4v4.6c0,4.3-1.3,7.7-4,10.4    c-2.7,2.7-6.2,4-10.5,4H106.5z M111,242.9v26.3h6c3.1,0,5.5-1,7.3-3.1c1.8-2,2.7-4.6,2.7-7.8v-4.6c0-3.1-0.9-5.7-2.7-7.8    c-1.8-2-4.2-3.1-7.3-3.1H111z"/></g></g></svg>