<?xml version="1.0" ?><svg id="Layer_1" style="enable-background:new 0 0 512 512;" version="1.1" viewBox="0 0 512 512" xml:space="preserve" xmlns="http://www.w3.org/2000/svg" xmlns:xlink="http://www.w3.org/1999/xlink"><style type="text/css">
	.st0{fill:#5CB8CD;}
	.st1{fill:#152D39;}
	.st2{fill:#BB0D48;}
	.st3{fill:#FB8A52;}
	.st4{fill:#FFFFFF;}
</style><g><g><path class="st0" d="M424.4,410c29.9,29.9,81.3,9.1,81.6-33.3c0-0.3,0-0.6,0-1V136.2c0-0.3,0-0.6,0-1    c-0.3-42.3-51.7-63.2-81.6-33.3l-154,154L424.4,410z" id="XMLID_12_"/><path class="st1" d="M256,241.6l154-154c29.9-29.9,9.1-81.3-33.3-81.6c-0.3,0-0.6,0-1,0H136.2c-0.3,0-0.6,0-1,0    C92.9,6.3,72.1,57.7,102,87.6L256,241.6z" id="XMLID_11_"/><path class="st2" d="M87.6,102C57.7,72.1,6.3,92.9,6,135.2c0,0.3,0,0.6,0,1v239.6c0,0.3,0,0.6,0,1    c0.3,42.3,51.7,63.2,81.6,33.3l154-154L87.6,102z" id="XMLID_10_"/><path class="st3" d="M256,270.4l-154,154c-29.9,29.9-9.1,81.3,33.3,81.6c0.3,0,0.6,0,1,0h239.6c0.3,0,0.6,0,1,0    c42.3-0.3,63.2-51.7,33.3-81.6L256,270.4z" id="XMLID_9_"/></g><path class="st4" d="M261.7,188.5h-11.3l-2.7,7.8h-4.2l10.9-30.1h3.5l10.6,30.1h-4.2L261.7,188.5z M251.5,185.1h9l-4.4-12.9H256   L251.5,185.1z"/><path class="st4" d="M315,273.2v-34.4h11.2c3.6,0,6.4,0.8,8.4,2.3c2,1.6,3,3.9,3,7c0,1.5-0.5,2.8-1.4,4c-0.9,1.2-2.1,2.1-3.6,2.7   c2.3,0.3,4,1.3,5.3,2.9c1.3,1.6,2,3.6,2,5.8c0,3.1-1,5.6-3.1,7.2c-2,1.7-4.8,2.5-8.3,2.5H315z M319.7,253.4h7.5   c1.7,0,3.1-0.5,4.2-1.4c1.1-1,1.6-2.3,1.6-4c0-1.9-0.6-3.2-1.8-4.2c-1.2-0.9-2.9-1.4-5.1-1.4h-6.6V253.4z M319.7,257.1v12.5h9   c2.1,0,3.8-0.5,4.9-1.6c1.2-1,1.8-2.5,1.8-4.5c0-1.9-0.6-3.4-1.8-4.6c-1.2-1.2-2.8-1.8-4.8-1.9h-0.3H319.7z"/><path class="st4" d="M268.5,333.4l0,0.1c0.1,3.1-1,5.7-3.3,7.8c-2.3,2.1-5.2,3.2-8.9,3.2c-3.8,0-6.8-1.3-9.2-4   c-2.4-2.7-3.6-6.1-3.6-10.2v-5.9c0-4.1,1.2-7.5,3.6-10.2c2.4-2.7,5.4-4,9.2-4c3.8,0,6.8,1,9,3c2.2,2,3.3,4.7,3.2,8l0,0.1h-4.3   c0-2.3-0.7-4.2-2.1-5.5c-1.4-1.4-3.3-2-5.8-2c-2.5,0-4.5,1-6,3c-1.5,2-2.2,4.5-2.2,7.5v6c0,3,0.7,5.6,2.2,7.6c1.5,2,3.5,3,6,3   c2.5,0,4.4-0.7,5.8-2c1.4-1.3,2.1-3.2,2.1-5.6H268.5z"/><path class="st4" d="M170,275.9v-33.4h10.5c4.4,0,7.9,1.3,10.5,4c2.7,2.7,4,6.2,4,10.4v4.6c0,4.3-1.3,7.7-4,10.4   c-2.7,2.7-6.2,4-10.5,4H170z M174.5,246v26.3h6c3.1,0,5.5-1,7.3-3.1c1.8-2,2.7-4.6,2.7-7.8v-4.6c0-3.1-0.9-5.7-2.7-7.8   c-1.8-2-4.2-3.1-7.3-3.1H174.5z"/></g></svg>