<?xml version="1.0" ?><svg id="Layer_1" style="enable-background:new 0 0 512 512;" version="1.1" viewBox="0 0 512 512" xml:space="preserve" xmlns="http://www.w3.org/2000/svg" xmlns:xlink="http://www.w3.org/1999/xlink"><style type="text/css">
	.st0{fill:#152D39;}
	.st1{fill:#1C353F;}
	.st2{fill:#5CB8CD;}
	.st3{fill:#328C9B;}
	.st4{fill:#FB8A52;}
	.st5{fill:#DD7547;}
	.st6{fill:#BB0D48;}
	.st7{fill:#9E1248;}
	.st8{fill:#E8E8E8;}
	.st9{fill:#FFFFFF;}
</style><g><g><g><polygon class="st0" id="XMLID_40_" points="275.5,71.9 372.3,107.7 354.9,6    "/><polygon class="st1" id="XMLID_39_" points="423,188.8 442.9,236.4 505.4,154.3 403.1,141.2 423,188.8    "/><polygon class="st2" id="XMLID_38_" points="400.8,371.1 503.5,360.9 443.3,277.1    "/><polygon class="st3" id="XMLID_37_" points="357.9,506 371.7,403.8 276.3,443    "/><polygon class="st4" id="XMLID_36_" points="145.8,500 231.3,442.3 138.6,397.1    "/><polygon class="st5" id="XMLID_35_" points="6.6,361.6 108.8,375.6 69.8,280.1    "/><polygon class="st6" id="XMLID_34_" points="70.8,230.8 111.9,136.3 9.4,147.9    "/><polygon class="st7" id="XMLID_33_" points="137,108.2 233.4,71.3 153.3,6.3    "/></g><circle class="st8" cx="256" cy="256" id="XMLID_32_" r="192.3"/><g><path class="st9" d="M256,115.5c-77.6,0-140.5,62.9-140.5,140.5S178.4,396.5,256,396.5c77.6,0,140.5-62.9,140.5-140.5     S333.6,115.5,256,115.5z M256,386.2c-71.9,0-130.2-58.3-130.2-130.2c0-71.9,58.3-130.2,130.2-130.2     c71.9,0,130.2,58.3,130.2,130.2C386.2,327.9,327.9,386.2,256,386.2z"/><g><path class="st2" d="M396.5,255.8h-10.3c0,0.1,0,0.1,0,0.2c0,71.9-58.3,130.2-130.2,130.2c-0.6,0-1.3,0-1.9,0      v10.3c0.6,0,1.3,0,1.9,0c77.6,0,140.5-62.9,140.5-140.5C396.5,255.9,396.5,255.9,396.5,255.8z" id="XMLID_25_"/><path class="st0" d="M256,115.5c-0.4,0-0.7,0-1.1,0v10.3c0.4,0,0.7,0,1.1,0c71.8,0,130.1,58.2,130.2,130h10.3      C396.4,178.3,333.5,115.5,256,115.5z" id="XMLID_24_"/></g><g><path class="st4" d="M115.5,255.8h10.3c0,0.1,0,0.1,0,0.2c0,71.9,58.3,130.2,130.2,130.2c0.6,0,1.3,0,1.9,0v10.3      c-0.6,0-1.3,0-1.9,0c-77.6,0-140.5-62.9-140.5-140.5C115.5,255.9,115.5,255.9,115.5,255.8z" id="XMLID_23_"/><path class="st6" d="M256,115.5c0.4,0,0.7,0,1.1,0v10.3c-0.4,0-0.7,0-1.1,0c-71.8,0-130.1,58.2-130.2,130h-10.3      C115.6,178.3,178.5,115.5,256,115.5z" id="XMLID_21_"/></g></g><g><path class="st9" d="M256,172.9c-45.9,0-83.1,37.2-83.1,83.1s37.2,83.1,83.1,83.1c45.9,0,83.1-37.2,83.1-83.1     S301.9,172.9,256,172.9z M256,333c-42.5,0-77-34.5-77-77c0-42.5,34.5-77,77-77c42.5,0,77,34.5,77,77C333,298.5,298.5,333,256,333     z"/><g><path class="st2" d="M339.1,255.9H333c0,0,0,0.1,0,0.1c0,42.5-34.5,77-77,77c-0.4,0-0.8,0-1.1,0v6.1      c0.4,0,0.8,0,1.1,0c45.9,0,83.1-37.2,83.1-83.1C339.1,256,339.1,255.9,339.1,255.9z" id="XMLID_18_"/><path class="st0" d="M256,172.9c-0.2,0-0.4,0-0.7,0v6.1c0.2,0,0.4,0,0.7,0c42.5,0,77,34.4,77,76.9h6.1      C339,210,301.9,172.9,256,172.9z" id="XMLID_17_"/></g><g><path class="st4" d="M172.9,255.9h6.1c0,0,0,0.1,0,0.1c0,42.5,34.5,77,77,77c0.4,0,0.8,0,1.1,0v6.1      c-0.4,0-0.8,0-1.1,0c-45.9,0-83.1-37.2-83.1-83.1C172.9,256,172.9,255.9,172.9,255.9z" id="XMLID_16_"/><path class="st6" d="M256,172.9c0.2,0,0.4,0,0.7,0v6.1c-0.2,0-0.4,0-0.7,0c-42.5,0-77,34.4-77,76.9h-6.1      C173,210,210.1,172.9,256,172.9z" id="XMLID_15_"/></g></g><g><path class="st9" d="M256,216.6c-21.7,0-39.4,17.6-39.4,39.4s17.6,39.4,39.4,39.4c21.7,0,39.4-17.6,39.4-39.4     S277.7,216.6,256,216.6z M256,292.5c-20.2,0-36.5-16.3-36.5-36.5s16.3-36.5,36.5-36.5c20.2,0,36.5,16.3,36.5,36.5     S276.2,292.5,256,292.5z"/><g><path class="st2" d="M295.4,255.9h-2.9c0,0,0,0,0,0.1c0,20.2-16.3,36.5-36.5,36.5c-0.2,0-0.4,0-0.5,0v2.9      c0.2,0,0.4,0,0.5,0C277.7,295.4,295.4,277.7,295.4,255.9C295.4,256,295.4,256,295.4,255.9z" id="XMLID_12_"/><path class="st0" d="M256,216.6c-0.1,0-0.2,0-0.3,0v2.9c0.1,0,0.2,0,0.3,0c20.1,0,36.5,16.3,36.5,36.4h2.9      C295.3,234.2,277.7,216.6,256,216.6z" id="XMLID_11_"/></g><g><path class="st4" d="M216.6,255.9h2.9c0,0,0,0,0,0.1c0,20.2,16.3,36.5,36.5,36.5c0.2,0,0.4,0,0.5,0v2.9      c-0.2,0-0.4,0-0.5,0C234.3,295.4,216.6,277.7,216.6,255.9C216.6,256,216.6,256,216.6,255.9z" id="XMLID_10_"/><path class="st6" d="M256,216.6c0.1,0,0.2,0,0.3,0v2.9c-0.1,0-0.2,0-0.3,0c-20.1,0-36.5,16.3-36.5,36.4h-2.9      C216.7,234.2,234.3,216.6,256,216.6z" id="XMLID_9_"/></g></g></g><path class="st4" d="M368,258.5L368,258.5c0.1,1.7-0.5,3-1.7,4.1c-1.2,1.1-2.7,1.6-4.6,1.6c-1.9,0-3.5-0.7-4.8-2.1   c-1.2-1.4-1.8-3.1-1.8-5.2v-3.1c0-2.1,0.6-3.9,1.8-5.2c1.2-1.4,2.8-2.1,4.8-2.1c1.9,0,3.5,0.5,4.6,1.6c1.1,1,1.7,2.4,1.7,4.1l0,0.1   h-2.2c0-1.2-0.4-2.2-1.1-2.9c-0.7-0.7-1.7-1.1-3-1.1c-1.3,0-2.3,0.5-3.1,1.6c-0.8,1-1.2,2.3-1.2,3.9v3.1c0,1.6,0.4,2.9,1.2,3.9   c0.8,1,1.8,1.6,3.1,1.6c1.3,0,2.3-0.3,3-1c0.7-0.7,1.1-1.7,1.1-2.9H368z"/><path class="st2" d="M306.6,264.3v-17.7h5.8c1.8,0,3.3,0.4,4.3,1.2c1,0.8,1.6,2,1.6,3.6c0,0.8-0.2,1.4-0.7,2   c-0.5,0.6-1.1,1.1-1.9,1.4c1.2,0.2,2.1,0.7,2.8,1.5c0.7,0.8,1,1.8,1,3c0,1.6-0.5,2.9-1.6,3.7c-1.1,0.9-2.5,1.3-4.3,1.3H306.6z    M309,254.1h3.9c0.9,0,1.6-0.2,2.2-0.7c0.6-0.5,0.8-1.2,0.8-2c0-1-0.3-1.7-0.9-2.1c-0.6-0.5-1.5-0.7-2.6-0.7H309V254.1z M309,256   v6.4h4.6c1.1,0,1.9-0.3,2.5-0.8c0.6-0.5,0.9-1.3,0.9-2.3c0-1-0.3-1.8-0.9-2.4c-0.6-0.6-1.4-0.9-2.5-1h-0.2H309z"/><path class="st6" d="M414.7,264.3v-17.7h5.6c2.3,0,4.2,0.7,5.6,2.1c1.4,1.4,2.1,3.3,2.1,5.5v2.4c0,2.3-0.7,4.1-2.1,5.5   c-1.4,1.4-3.3,2.1-5.6,2.1H414.7z M417.1,248.5v13.9h3.2c1.6,0,2.9-0.5,3.9-1.6c0.9-1.1,1.4-2.5,1.4-4.1v-2.4c0-1.7-0.5-3-1.4-4.1   c-0.9-1.1-2.2-1.6-3.9-1.6H417.1z"/><path class="st0" d="M259.3,260.3h-6.7l-1.6,4.6h-2.4l6.4-17.7h2.1l6.2,17.7h-2.4L259.3,260.3z M253.4,258.3h5.3l-2.6-7.6H256   L253.4,258.3z"/></g></svg>