<?xml version="1.0" ?><svg id="Layer_1" style="enable-background:new 0 0 512 512;" version="1.1" viewBox="0 0 512 512" xml:space="preserve" xmlns="http://www.w3.org/2000/svg" xmlns:xlink="http://www.w3.org/1999/xlink"><style type="text/css">
	.st0{fill:#BB0D48;}
	.st1{fill:#DD7547;}
	.st2{fill:#152D39;}
	.st3{fill:#9E1248;}
	.st4{fill:#FB8A52;}
	.st5{fill:#1C353F;}
	.st6{fill:#5CB8CD;}
	.st7{fill:#328C9B;}
	.st8{fill:#E8E8E8;}
	.st9{fill:#FFFFFF;}
</style><g><g><g><path class="st0" d="M228.8,244.8L86,101.9c-34.6,38.1-56.5,88-59.2,142.9H228.8z" id="XMLID_26_"/><path class="st1" d="M228.8,267.2H26.8C29.4,322.1,51.4,372,86,410.1L228.8,267.2z" id="XMLID_25_"/><path class="st2" d="M267.2,26.8v202.1L410.1,86C372,51.4,322.1,29.4,267.2,26.8z" id="XMLID_24_"/><path class="st3" d="M244.8,228.8V26.8C189.9,29.4,140,51.4,101.9,86L244.8,228.8z" id="XMLID_23_"/><path class="st4" d="M244.8,283.2L101.9,426c38.1,34.6,88,56.5,142.9,59.2V283.2z" id="XMLID_22_"/><path class="st5" d="M283.2,244.8h202.1c-2.7-54.9-24.6-104.7-59.2-142.9L283.2,244.8z" id="XMLID_21_"/><path class="st6" d="M283.2,267.2L426,410.1c34.6-38.1,56.5-88,59.2-142.9H283.2z" id="XMLID_20_"/><path class="st7" d="M267.2,283.2v202.1c54.9-2.7,104.7-24.6,142.9-59.2L267.2,283.2z" id="XMLID_19_"/></g><g><g><circle class="st8" cx="256" cy="256" id="XMLID_18_" r="85.5"/><g><path class="st9" d="M256,193.6c-34.5,0-62.4,28-62.4,62.4s28,62.4,62.4,62.4c34.5,0,62.4-28,62.4-62.4S290.5,193.6,256,193.6z        M256,313.9c-32,0-57.9-25.9-57.9-57.9c0-32,25.9-57.9,57.9-57.9c32,0,57.9,25.9,57.9,57.9C313.9,288,288,313.9,256,313.9z"/><g><path class="st6" d="M318.4,255.9h-4.6c0,0,0,0.1,0,0.1c0,32-25.9,57.9-57.9,57.9c-0.3,0-0.6,0-0.9,0v4.6        c0.3,0,0.6,0,0.9,0C290.5,318.4,318.4,290.5,318.4,255.9C318.4,256,318.4,255.9,318.4,255.9z" id="XMLID_15_"/><path class="st2" d="M256,193.6c-0.2,0-0.3,0-0.5,0v4.6c0.2,0,0.3,0,0.5,0c31.9,0,57.8,25.9,57.9,57.8h4.6        C318.4,221.5,290.5,193.6,256,193.6z" id="XMLID_14_"/></g><g><path class="st4" d="M193.6,255.9h4.6c0,0,0,0.1,0,0.1c0,32,25.9,57.9,57.9,57.9c0.3,0,0.6,0,0.9,0v4.6        c-0.3,0-0.6,0-0.9,0C221.5,318.4,193.6,290.5,193.6,255.9C193.6,256,193.6,255.9,193.6,255.9z" id="XMLID_13_"/><path class="st0" d="M256,193.6c0.2,0,0.3,0,0.5,0v4.6c-0.2,0-0.3,0-0.5,0c-31.9,0-57.8,25.9-57.9,57.8h-4.6        C193.6,221.5,221.5,193.6,256,193.6z" id="XMLID_12_"/></g></g></g><g><polygon class="st8" id="XMLID_11_" points="287.4,178.2 279.4,175.3 286,169.8 292.5,164.4 294,172.8 295.4,181.2     "/><polygon class="st8" id="XMLID_10_" points="333.8,224.5 330.6,216.6 339,217.7 347.5,218.8 342.3,225.5 337.1,232.3     "/><polygon class="st8" id="XMLID_9_" points="333.4,287.9 336.9,280.2 341.8,287.1 346.8,294 338.3,294.9 329.8,295.7     "/><polygon class="st8" id="XMLID_8_" points="287.7,333.9 295.6,330.7 294.5,339.2 293.3,347.6 286.6,342.4 279.8,337.2     "/><polygon class="st8" id="XMLID_7_" points="222.5,332.2 230.2,335.9 223.1,340.7 216,345.5 215.4,337 214.8,328.4     "/><polygon class="st8" id="XMLID_6_" points="178.2,289.3 181.4,297.2 173,296 164.5,294.8 169.7,288.1 175,281.4     "/><polygon class="st8" id="XMLID_5_" points="179.1,222.1 175.7,229.9 170.7,223.1 165.6,216.2 174.1,215.3 182.5,214.3     "/><polygon class="st8" id="XMLID_4_" points="223.2,178.3 215.3,181.3 216.6,172.9 217.9,164.5 224.6,169.8 231.2,175.2     "/></g></g></g><g><g id="XMLID_1_"><path class="st9" d="M319.9,121.2H314V96.8h-6.1v-4.5l12-1.1V121.2z" id="XMLID_2_"/></g><g id="XMLID_97_"><path class="st9" d="M415.5,211.2h-19.8v-3.9l9.2-10.4c1.4-1.6,2.3-3,2.9-4.1c0.6-1.1,0.9-2.1,0.9-3.1     c0-1.2-0.3-2.2-0.9-2.9c-0.6-0.7-1.5-1.1-2.7-1.1c-1.3,0-2.3,0.5-3,1.4c-0.7,0.9-1.1,2.1-1.1,3.6h-5.8l0-0.1     c-0.1-2.6,0.8-4.9,2.6-6.7c1.8-1.8,4.2-2.7,7.3-2.7c3,0,5.4,0.8,7.1,2.3c1.7,1.6,2.5,3.6,2.5,6.2c0,1.8-0.5,3.4-1.4,4.9     c-0.9,1.5-2.6,3.5-4.9,6.1l-4.9,5.8l0,0.1h12.1V211.2z" id="XMLID_98_"/></g><g id="XMLID_100_"><path class="st9" d="M402.8,311.3c1.4,0,2.4-0.4,3.1-1.1c0.7-0.7,1-1.7,1-3c0-1.1-0.4-2-1.1-2.7     c-0.7-0.7-1.7-1.1-3-1.1c-1.1,0-2,0.3-2.7,1c-0.7,0.7-1.1,1.5-1.1,2.5h-5.6l0-0.1c-0.1-2.3,0.8-4.2,2.6-5.6     c1.8-1.5,4.1-2.2,6.8-2.2c3,0,5.4,0.7,7.2,2.1c1.8,1.4,2.7,3.5,2.7,6.1c0,1.3-0.4,2.6-1.2,3.7c-0.8,1.1-1.8,2-3.2,2.6     c1.5,0.6,2.7,1.4,3.5,2.6c0.8,1.2,1.2,2.6,1.2,4.2c0,2.7-1,4.8-2.9,6.3c-1.9,1.5-4.4,2.3-7.4,2.3c-2.7,0-5-0.7-7-2.2     c-2-1.4-3-3.5-2.9-6.1l0-0.1h5.7c0,1.1,0.4,2,1.2,2.8c0.8,0.7,1.8,1.1,3,1.1c1.3,0,2.4-0.4,3.2-1.2c0.8-0.8,1.2-1.8,1.2-3     c0-1.5-0.4-2.7-1.2-3.4c-0.8-0.7-1.9-1.1-3.4-1.1h-3.2v-4.4H402.8z" id="XMLID_101_"/></g><g id="XMLID_103_"><path class="st9" d="M321.5,403h3.4v4.7h-3.4v6.5h-6v-6.5h-12.2l-0.3-3.6l12.4-19.9h6.1V403z M308.4,403h7v-10.9     l-0.1,0l-0.6,1.3L308.4,403z" id="XMLID_104_"/></g><g id="XMLID_107_"><path class="st9" d="M190.1,404.6l1.7-16.5h16.5v4.8h-11.6l-0.8,6.9c0.6-0.4,1.3-0.7,2.1-1     c0.8-0.3,1.8-0.4,2.7-0.4c2.7,0,4.9,0.8,6.4,2.5c1.5,1.7,2.3,4.2,2.3,7.3c0,2.9-0.8,5.3-2.5,7.1c-1.6,1.9-4.1,2.8-7.5,2.8     c-2.7,0-5.1-0.7-7-2.2c-1.9-1.4-2.9-3.4-2.8-5.9l0-0.1l5.7-0.3c0,1.2,0.4,2.2,1.1,2.9c0.7,0.7,1.7,1,2.9,1c1.4,0,2.4-0.5,3.1-1.4     c0.6-0.9,1-2.2,1-3.9c0-1.7-0.4-3.1-1.1-4.1c-0.7-1-1.7-1.5-3.1-1.5c-1.1,0-2,0.2-2.6,0.6c-0.6,0.4-1,1-1.3,1.7L190.1,404.6z" id="XMLID_108_"/></g><g id="XMLID_110_"><path class="st9" d="M107.2,300.5c1.1,0,2.2,0.1,3.2,0.3c1,0.2,1.9,0.5,2.9,0.9l-1,4.3c-0.9-0.3-1.7-0.5-2.4-0.7     c-0.7-0.2-1.6-0.2-2.5-0.2c-1.7,0-3.1,0.7-4.1,2c-1,1.3-1.6,3.1-1.6,5.5v0.9c0.8-0.8,1.7-1.4,2.8-1.8c1.1-0.4,2.3-0.6,3.6-0.6     c2.5,0,4.4,0.9,5.8,2.7c1.4,1.8,2.1,4.1,2.1,6.9c0,2.9-0.9,5.3-2.7,7.1c-1.8,1.8-4.2,2.7-7.1,2.7c-3,0-5.5-1-7.4-3.1     c-1.9-2.1-2.9-4.9-2.9-8.6v-6.1c0-3.7,1.1-6.7,3.3-8.9C101.1,301.6,103.9,300.5,107.2,300.5z M106,315.4c-1.1,0-2,0.2-2.7,0.5     c-0.7,0.3-1.3,0.8-1.7,1.4v1.6c0,2.2,0.4,4,1.2,5.2c0.8,1.2,1.9,1.8,3.3,1.8c1.2,0,2.2-0.5,2.9-1.5s1.1-2.3,1.1-3.9     c0-1.6-0.4-2.9-1.1-3.8C108.2,315.9,107.2,315.4,106,315.4z" id="XMLID_111_"/></g><g id="XMLID_114_"><path class="st9" d="M121,187.8c-3.4,4-5.7,7.5-6.9,10.7c-1.2,3.2-1.8,6.8-1.8,10.9v3.7h-6v-3.7     c0-4.2,0.8-8,2.3-11.4c1.5-3.4,3.8-6.9,6.7-10.2H99.9v-4.6H121V187.8z" id="XMLID_115_"/></g><g id="XMLID_117_"><path class="st9" d="M207.4,100.9c0,1.4-0.4,2.7-1.1,3.8c-0.7,1.1-1.8,2-3.1,2.6c1.6,0.7,2.9,1.6,3.8,2.8     c0.9,1.2,1.4,2.6,1.4,4.2c0,2.7-0.9,4.8-2.8,6.3c-1.9,1.5-4.3,2.3-7.2,2.3c-3.1,0-5.6-0.8-7.5-2.3c-2-1.5-2.9-3.6-2.9-6.3     c0-1.6,0.5-3,1.5-4.2c1-1.2,2.3-2.2,3.9-2.8c-1.4-0.6-2.5-1.5-3.2-2.6c-0.8-1.1-1.2-2.4-1.2-3.8c0-2.6,0.9-4.5,2.6-5.9     c1.7-1.4,4-2.1,6.8-2.1c2.7,0,4.9,0.7,6.5,2.1C206.5,96.4,207.4,98.4,207.4,100.9z M202.5,114.1c0-1.3-0.4-2.4-1.2-3.2     c-0.8-0.8-1.8-1.3-3-1.3c-1.3,0-2.4,0.4-3.3,1.3c-0.9,0.8-1.3,1.9-1.3,3.2c0,1.3,0.4,2.4,1.3,3.2c0.9,0.8,2,1.2,3.3,1.2     c1.2,0,2.2-0.4,3-1.2C202.1,116.5,202.5,115.4,202.5,114.1z M201.6,101.2c0-1.1-0.3-2.1-0.9-2.7c-0.6-0.7-1.4-1-2.3-1     c-1.1,0-2,0.3-2.6,1c-0.7,0.7-1,1.6-1,2.8c0,1.2,0.3,2.1,1,2.9c0.7,0.7,1.5,1.1,2.6,1.1c1,0,1.7-0.4,2.3-1.1     C201.3,103.3,201.6,102.4,201.6,101.2z" id="XMLID_118_"/></g></g></g></svg>