<?xml version="1.0" ?><svg id="Layer_1" style="enable-background:new 0 0 512 512;" version="1.1" viewBox="0 0 512 512" xml:space="preserve" xmlns="http://www.w3.org/2000/svg" xmlns:xlink="http://www.w3.org/1999/xlink"><style type="text/css">
	.st0{fill:#BB0D48;}
	.st1{fill:#152D39;}
	.st2{fill:#5CB8CD;}
	.st3{fill:#FB8A52;}
	.st4{fill:#FFFFFF;}
</style><g><g><path class="st0" d="M245.8,191V60.8C245.8,30.5,221.3,6,191,6h0C88.8,6,6,88.8,6,191v0    c0,30.3,24.5,54.8,54.8,54.8H191C221.3,245.8,245.8,221.3,245.8,191z" id="XMLID_12_"/><path class="st1" d="M321,245.8h130.2c30.3,0,54.8-24.5,54.8-54.8v0C506,88.8,423.2,6,321,6h0    c-30.3,0-54.8,24.5-54.8,54.8V191C266.2,221.3,290.7,245.8,321,245.8z" id="XMLID_11_"/><path class="st2" d="M266.2,321v130.2c0,30.3,24.5,54.8,54.8,54.8h0c102.2,0,185-82.8,185-185v0    c0-30.3-24.5-54.8-54.8-54.8H321C290.7,266.2,266.2,290.7,266.2,321z" id="XMLID_10_"/><path class="st3" d="M191,266.2H60.8C30.5,266.2,6,290.7,6,321v0c0,102.2,82.8,185,185,185h0    c30.3,0,54.8-24.5,54.8-54.8V321C245.8,290.7,221.3,266.2,191,266.2z" id="XMLID_9_"/></g><path class="st4" d="M320.4,201.3h-11.3l-2.7,7.8h-4.2l10.9-30.1h3.5l10.6,30.1h-4.2L320.4,201.3z M310.3,197.9h9l-4.4-12.9h-0.1   L310.3,197.9z"/><path class="st4" d="M306.8,329.6v-34.4H318c3.6,0,6.4,0.8,8.4,2.3c2,1.6,3,3.9,3,7c0,1.5-0.5,2.8-1.4,4c-0.9,1.2-2.1,2.1-3.6,2.7   c2.3,0.3,4,1.3,5.3,2.9c1.3,1.6,2,3.6,2,5.8c0,3.1-1,5.6-3.1,7.2c-2,1.7-4.8,2.5-8.3,2.5H306.8z M311.4,309.9h7.5   c1.7,0,3.1-0.5,4.2-1.4c1.1-1,1.6-2.3,1.6-4c0-1.9-0.6-3.2-1.8-4.2c-1.2-0.9-2.9-1.4-5.1-1.4h-6.6V309.9z M311.4,313.5V326h9   c2.1,0,3.8-0.5,4.9-1.6c1.2-1,1.8-2.5,1.8-4.5c0-1.9-0.6-3.4-1.8-4.6c-1.2-1.2-2.8-1.8-4.8-1.9h-0.3H311.4z"/><path class="st4" d="M209.5,318.4l0,0.1c0.1,3.1-1,5.7-3.3,7.8c-2.3,2.1-5.2,3.2-8.9,3.2c-3.8,0-6.8-1.3-9.2-4   c-2.4-2.7-3.6-6.1-3.6-10.2v-5.9c0-4.1,1.2-7.5,3.6-10.2c2.4-2.7,5.4-4,9.2-4c3.8,0,6.8,1,9,3c2.2,2,3.3,4.7,3.2,8l0,0.1h-4.3   c0-2.3-0.7-4.2-2.1-5.5c-1.4-1.4-3.3-2-5.8-2c-2.5,0-4.5,1-6,3c-1.5,2-2.2,4.5-2.2,7.5v6c0,3,0.7,5.6,2.2,7.6c1.5,2,3.5,3,6,3   c2.5,0,4.4-0.7,5.8-2c1.4-1.3,2.1-3.2,2.1-5.6H209.5z"/><path class="st4" d="M189.1,210.7v-33.4h10.5c4.4,0,7.9,1.3,10.5,4c2.7,2.7,4,6.2,4,10.4v4.6c0,4.3-1.3,7.7-4,10.4   c-2.7,2.7-6.2,4-10.5,4H189.1z M193.6,180.8v26.3h6c3.1,0,5.5-1,7.3-3.1c1.8-2,2.7-4.6,2.7-7.8v-4.6c0-3.1-0.9-5.7-2.7-7.8   c-1.8-2-4.2-3.1-7.3-3.1H193.6z"/></g></svg>