<?xml version="1.0" ?><!DOCTYPE svg  PUBLIC '-//W3C//DTD SVG 1.1//EN'  'http://www.w3.org/Graphics/SVG/1.1/DTD/svg11.dtd'><svg height="78px" id="Layer_1" style="enable-background:new 0 0 78 78;" version="1.1" viewBox="0 0 78 78" width="78px" xml:space="preserve" xmlns="http://www.w3.org/2000/svg" xmlns:xlink="http://www.w3.org/1999/xlink"><path d="M74.993,0.007H42.81c-1.65,0-3.955,0.955-5.121,2.121L0.882,38.935c-1.166,1.166-1.166,3.076,0,4.242  l33.941,33.941c0.583,0.583,1.352,0.875,2.121,0.875s1.538-0.292,2.121-0.875l12.053-12.053V56.58L36.944,70.754L7.246,41.056  L41.875,6.427c0.226-0.162,0.74-0.375,1.014-0.42h29.104v29.104c-0.045,0.273-0.258,0.788-0.42,1.014l-8.455,8.455V23.072  c1.791-1.038,3-2.972,3-5.19c0-3.313-2.688-6-6-6s-6,2.688-6,6c0,2.219,1.209,4.152,3,5.19v44.684c0,1.657,1.343,3,3,3s3-1.343,3-3  v-14.69l12.754-12.754c1.166-1.166,2.121-3.471,2.121-5.121V3.007C77.993,1.356,76.644,0.007,74.993,0.007z" style="fill:#333F4F;"/></svg>