<?xml version="1.0" ?><!DOCTYPE svg  PUBLIC '-//W3C//DTD SVG 1.1//EN'  'http://www.w3.org/Graphics/SVG/1.1/DTD/svg11.dtd'><svg enable-background="new 0 0 128 128" height="128px" id="Layer_1" version="1.1" viewBox="0 0 128 128" width="128px" xml:space="preserve" xmlns="http://www.w3.org/2000/svg" xmlns:xlink="http://www.w3.org/1999/xlink"><g><path d="M18.875,31.486h14.337c0.502,4.947,4.692,8.819,9.769,8.819s9.267-3.873,9.769-8.819h56.376   c0.553,0,1-0.448,1-1s-0.447-1-1-1H52.749c-0.502-4.947-4.692-8.819-9.769-8.819s-9.267,3.873-9.769,8.819H18.875   c-0.553,0-1,0.448-1,1S18.322,31.486,18.875,31.486z M42.98,22.667c4.312,0,7.819,3.508,7.819,7.819s-3.508,7.819-7.819,7.819   s-7.819-3.508-7.819-7.819S38.668,22.667,42.98,22.667z" fill="#2BACE2"/><path d="M109.125,61.236H94.789c-0.504-4.947-4.693-8.819-9.77-8.819s-9.266,3.873-9.768,8.819H18.875   c-0.553,0-1,0.448-1,1s0.447,1,1,1h56.377c0.502,4.946,4.691,8.819,9.768,8.819s9.266-3.873,9.77-8.819h14.336c0.553,0,1-0.448,1-1   S109.678,61.236,109.125,61.236z M85.02,70.056c-4.311,0-7.818-3.508-7.818-7.819s3.508-7.819,7.818-7.819   c4.313,0,7.82,3.508,7.82,7.819S89.332,70.056,85.02,70.056z" fill="#2BACE2"/><path d="M109.125,96.515H73.623c-0.504-4.947-4.693-8.82-9.769-8.82c-5.077,0-9.268,3.873-9.77,8.82h-35.21   c-0.553,0-1,0.447-1,1c0,0.552,0.447,1,1,1h35.21c0.502,4.946,4.692,8.818,9.77,8.818c5.076,0,9.265-3.872,9.769-8.818h35.502   c0.553,0,1-0.448,1-1C110.125,96.962,109.678,96.515,109.125,96.515z M63.854,105.333c-4.313,0-7.82-3.508-7.82-7.818   c0-4.313,3.508-7.82,7.82-7.82c4.312,0,7.82,3.508,7.82,7.82C71.674,101.825,68.166,105.333,63.854,105.333z" fill="#2BACE2"/></g></svg>