<?xml version="1.0" ?><!DOCTYPE svg  PUBLIC '-//W3C//DTD SVG 1.1//EN'  'http://www.w3.org/Graphics/SVG/1.1/DTD/svg11.dtd'><svg enable-background="new 0 0 128 128" height="128px" id="Layer_1" version="1.1" viewBox="0 0 128 128" width="128px" xml:space="preserve" xmlns="http://www.w3.org/2000/svg" xmlns:xlink="http://www.w3.org/1999/xlink"><path d="M105.326,18.291h-67.18c-2.498,0-4.53,2.032-4.53,4.53v12.53H22.674c-2.498,0-4.53,2.032-4.53,4.529v65.298  c0,2.497,2.032,4.53,4.53,4.53h21.472h5.587h55.593c2.498,0,4.529-2.033,4.529-4.53V22.821  C109.855,20.323,107.824,18.291,105.326,18.291z M52.263,105.179c0,1.396-1.135,2.53-2.529,2.53h-5.587H22.674  c-1.395,0-2.53-1.135-2.53-2.53v-8.413h32.119V105.179z M52.263,94.766H20.144V39.881c0-1.395,1.135-2.529,2.53-2.529h27.06  c1.395,0,2.529,1.135,2.529,2.529V94.766z M76.676,107.709H53.489c0.488-0.724,0.774-1.594,0.774-2.53v-8.413h22.413V107.709z   M76.676,94.766H54.263V55h19.884c1.395,0,2.529,1.135,2.529,2.529V94.766z M107.855,105.179c0,1.396-1.135,2.53-2.529,2.53h-26.65  V96.766h29.18V105.179z M107.855,94.766h-29.18V57.529c0-2.498-2.033-4.529-4.529-4.529H54.263V39.881  c0-2.497-2.032-4.529-4.529-4.529H35.616v-12.53c0-1.396,1.135-2.53,2.53-2.53h67.18c1.395,0,2.529,1.135,2.529,2.53V94.766z" fill="#2BACE2"/></svg>