<?xml version="1.0" ?><!DOCTYPE svg  PUBLIC '-//W3C//DTD SVG 1.1//EN'  'http://www.w3.org/Graphics/SVG/1.1/DTD/svg11.dtd'><svg enable-background="new 0 0 128 128" height="128px" id="Layer_1" version="1.1" viewBox="0 0 128 128" width="128px" xml:space="preserve" xmlns="http://www.w3.org/2000/svg" xmlns:xlink="http://www.w3.org/1999/xlink"><path d="M110.024,69.063c-1.026-8.429-6.402-15.668-13.895-19.244C93.274,39.043,83.529,31.53,72.353,31.53  c-8.356,0-16.07,4.187-20.634,11.198c-0.054,0.083-0.079,0.175-0.105,0.266c-1.481-0.596-3.022-1.055-4.617-1.357  c-13.33-2.534-26.233,6.251-28.765,19.58c-1.227,6.457,0.134,13.005,3.832,18.438s9.291,9.1,15.748,10.326  c1.533,0.293,3.076,0.439,4.616,0.439c1.344,0,2.687-0.111,4.019-0.334c0.544-0.092,0.912-0.607,0.821-1.152  c-0.09-0.543-0.604-0.91-1.151-0.82c-2.625,0.439-5.294,0.406-7.931-0.098c-5.933-1.125-11.071-4.496-14.468-9.486  c-3.397-4.992-4.648-11.008-3.521-16.94c2.327-12.246,14.186-20.314,26.427-17.988c2.832,0.538,5.488,1.586,7.896,3.113  c0.467,0.296,1.084,0.157,1.38-0.309c0.296-0.467,0.158-1.084-0.309-1.38c-0.708-0.449-1.438-0.853-2.183-1.225  C57.602,37.37,64.683,33.53,72.353,33.53c9.741,0,18.298,6.21,21.392,15.298c-0.753-0.266-1.517-0.508-2.302-0.7  c-0.539-0.132-1.078,0.196-1.209,0.733c-0.131,0.536,0.197,1.077,0.733,1.209c9.081,2.223,15.942,9.952,17.072,19.234  c0.729,5.994-0.918,11.915-4.64,16.669c-3.723,4.752-9.074,7.773-15.068,8.502c-0.549,0.068-0.939,0.566-0.872,1.113  c0.062,0.508,0.493,0.881,0.991,0.881c0.041,0,0.081-0.004,0.122-0.008c6.525-0.795,12.351-4.082,16.401-9.256  C109.024,82.03,110.819,75.588,110.024,69.063z" fill="#2BACE2"/></svg>