<?xml version="1.0" ?><!DOCTYPE svg  PUBLIC '-//W3C//DTD SVG 1.1//EN'  'http://www.w3.org/Graphics/SVG/1.1/DTD/svg11.dtd'><svg enable-background="new 0 0 128 128" height="128px" id="Layer_1" version="1.1" viewBox="0 0 128 128" width="128px" xml:space="preserve" xmlns="http://www.w3.org/2000/svg" xmlns:xlink="http://www.w3.org/1999/xlink"><g><g><path d="M103.608,109.875H24.392c-3.555,0-6.447-2.892-6.447-6.447v-64.69c0-3.555,2.892-6.447,6.447-6.447h79.217    c3.555,0,6.447,2.893,6.447,6.447v64.69C110.056,106.983,107.163,109.875,103.608,109.875z M24.392,34.29    c-2.452,0-4.447,1.995-4.447,4.447v64.69c0,2.453,1.995,4.447,4.447,4.447h79.217c2.452,0,4.447-1.994,4.447-4.447v-64.69    c0-2.452-1.995-4.447-4.447-4.447H24.392z" fill="#2BACE2"/></g><g><path d="M66.838,34.155c-0.552,0-1-0.447-1-1v-8.583c0-2.452-1.995-4.447-4.448-4.447h-29.28    c-2.453,0-4.448,1.995-4.448,4.447v8.583c0,0.553-0.448,1-1,1s-1-0.447-1-1v-8.583c0-3.555,2.893-6.447,6.448-6.447h29.28    c3.556,0,6.448,2.893,6.448,6.447v8.583C67.838,33.708,67.39,34.155,66.838,34.155z" fill="#2BACE2"/></g><g><path d="M63.804,90.361c-10.063,0-18.251-8.187-18.251-18.25S53.74,53.86,63.804,53.86s18.251,8.188,18.251,18.251    S73.867,90.361,63.804,90.361z M63.804,55.86c-8.961,0-16.251,7.29-16.251,16.251s7.29,16.25,16.251,16.25    s16.251-7.289,16.251-16.25S72.765,55.86,63.804,55.86z" fill="#2BACE2"/></g><g><path d="M63.804,80.955c-4.876,0-8.843-3.968-8.843-8.844s3.967-8.844,8.843-8.844s8.844,3.968,8.844,8.844    S68.68,80.955,63.804,80.955z M63.804,65.268c-3.773,0-6.843,3.07-6.843,6.844s3.07,6.844,6.843,6.844s6.844-3.07,6.844-6.844    S67.577,65.268,63.804,65.268z" fill="#2BACE2"/></g><g><path d="M29.392,104.504c-3.183,0-5.773-2.59-5.773-5.773s2.59-5.772,5.773-5.772s5.772,2.589,5.772,5.772    S32.575,104.504,29.392,104.504z M29.392,94.958c-2.081,0-3.773,1.692-3.773,3.772s1.692,3.773,3.773,3.773    c2.08,0,3.772-1.693,3.772-3.773S31.472,94.958,29.392,94.958z" fill="#2BACE2"/></g><g><path d="M98.638,45.174H78.804c-0.553,0-1-0.448-1-1c0-0.553,0.447-1,1-1h19.834c0.552,0,1,0.447,1,1    C99.638,44.726,99.189,45.174,98.638,45.174z" fill="#2BACE2"/></g></g></svg>