<?xml version="1.0" ?><!DOCTYPE svg  PUBLIC '-//W3C//DTD SVG 1.1//EN'  'http://www.w3.org/Graphics/SVG/1.1/DTD/svg11.dtd'><svg enable-background="new 0 0 128 128" height="128px" id="Layer_1" version="1.1" viewBox="0 0 128 128" width="128px" xml:space="preserve" xmlns="http://www.w3.org/2000/svg" xmlns:xlink="http://www.w3.org/1999/xlink"><g><path d="M58.691,88.021c16.334,0,29.623-13.289,29.623-29.623c0-16.335-13.289-29.624-29.623-29.624   c-16.335,0-29.624,13.289-29.624,29.624C29.067,74.732,42.356,88.021,58.691,88.021z M58.691,30.774   c15.231,0,27.623,12.392,27.623,27.624c0,15.23-12.392,27.623-27.623,27.623S31.067,73.629,31.067,58.398   C31.067,43.167,43.46,30.774,58.691,30.774z" fill="#2BACE2"/><path d="M98.933,58.396c0-22.045-17.935-39.98-39.98-39.98c-0.552,0-1,0.448-1,1s0.448,1,1,1   c20.942,0,37.98,17.038,37.98,37.98c0,20.941-17.038,37.98-37.98,37.98c-8.346,0-16.264-2.656-22.898-7.678   c-0.441-0.336-1.068-0.248-1.401,0.193c-0.333,0.439-0.246,1.066,0.194,1.4c6.649,5.035,14.524,7.803,22.845,8.059v9.232H40.567   c-0.553,0-1,0.447-1,1c0,0.551,0.447,1,1,1h36.248c0.552,0,1-0.449,1-1c0-0.553-0.448-1-1-1H59.691v-9.227   C81.396,97.961,98.933,80.193,98.933,58.396z" fill="#2BACE2"/></g></svg>