<?xml version="1.0" ?><!DOCTYPE svg  PUBLIC '-//W3C//DTD SVG 1.1//EN'  'http://www.w3.org/Graphics/SVG/1.1/DTD/svg11.dtd'><svg enable-background="new 0 0 128 128" height="128px" id="Layer_1" version="1.1" viewBox="0 0 128 128" width="128px" xml:space="preserve" xmlns="http://www.w3.org/2000/svg" xmlns:xlink="http://www.w3.org/1999/xlink"><g><path d="M103.854,66.869l5.703-29.654c0.31-1.604-0.051-3.129-1.013-4.293c-0.961-1.165-2.391-1.806-4.024-1.806   h-62.41c-0.552,0-1,0.448-1,1c0,0.552,0.448,1,1,1h62.41c1.027,0,1.908,0.383,2.482,1.079c0.575,0.696,0.784,1.634,0.592,2.642   l-5.703,29.655c-0.429,2.222-2.701,4.099-4.963,4.099H42.818L32.299,18.667H19.335c-0.552,0-1,0.448-1,1s0.448,1,1,1h11.329   l12.572,61.962c0.057,2.512,2.118,4.537,4.643,4.537h60.604c0.553,0,1-0.447,1-1s-0.447-1-1-1H47.879   c-1.458,0-2.644-1.186-2.644-2.645l-2.012-9.932h53.705C100.141,72.591,103.248,70.023,103.854,66.869z" fill="#2BACE2"/><path d="M56.523,93.363c-4.403,0-7.985,3.582-7.985,7.984c0,4.403,3.582,7.985,7.985,7.985   c4.403,0,7.985-3.582,7.985-7.985C64.508,96.945,60.926,93.363,56.523,93.363z M56.523,107.334c-3.3,0-5.985-2.686-5.985-5.986   c0-3.3,2.685-5.984,5.985-5.984c3.3,0,5.985,2.686,5.985,5.984C62.508,104.648,59.823,107.334,56.523,107.334z" fill="#2BACE2"/><path d="M93.428,93.363c-4.404,0-7.985,3.582-7.985,7.984c0,4.403,3.581,7.985,7.985,7.985   c4.402,0,7.984-3.582,7.984-7.985C101.412,96.945,97.83,93.363,93.428,93.363z M93.428,107.334c-3.301,0-5.985-2.686-5.985-5.986   c0-3.3,2.686-5.984,5.985-5.984c3.301,0,5.984,2.686,5.984,5.984C99.412,104.648,96.727,107.334,93.428,107.334z" fill="#2BACE2"/></g></svg>