<?xml version="1.0" ?><!DOCTYPE svg  PUBLIC '-//W3C//DTD SVG 1.1//EN'  'http://www.w3.org/Graphics/SVG/1.1/DTD/svg11.dtd'><svg enable-background="new 0 0 128 128" height="128px" id="Layer_1" version="1.1" viewBox="0 0 128 128" width="128px" xml:space="preserve" xmlns="http://www.w3.org/2000/svg" xmlns:xlink="http://www.w3.org/1999/xlink"><g><path d="M104.93,28.241H89.709V18.104H28.102V40.38h61.607V30.241h15.221c1.365,0,2.477,1.111,2.477,2.476v30.282   h-37.68V52.862H18.594v22.277h51.133v-10.14h37.68v30.283c0,1.365-1.111,2.475-2.477,2.475H89.709V87.619H28.102v22.277h61.607   V99.756h15.221c2.469,0,4.477-2.008,4.477-4.475V32.717C109.406,30.249,107.398,28.241,104.93,28.241z M87.709,38.38H30.102V20.104   h57.607V38.38z M67.727,73.139H20.594V54.862h47.133V73.139z M87.709,107.896H30.102V89.619h57.607V107.896z" fill="#2BACE2"/><path d="M80.744,28.241h-6.083c-0.552,0-1,0.448-1,1s0.448,1,1,1h6.083c0.553,0,1-0.448,1-1   S81.297,28.241,80.744,28.241z" fill="#2BACE2"/><path d="M58.744,62.999h-6.083c-0.552,0-1,0.448-1,1s0.448,1,1,1h6.083c0.553,0,1-0.447,1-1   S59.297,62.999,58.744,62.999z" fill="#2BACE2"/><path d="M80.744,97.756h-6.083c-0.552,0-1,0.449-1,1c0,0.553,0.448,1,1,1h6.083c0.553,0,1-0.447,1-1   C81.744,98.205,81.297,97.756,80.744,97.756z" fill="#2BACE2"/></g></svg>