<?xml version="1.0" ?><!DOCTYPE svg  PUBLIC '-//W3C//DTD SVG 1.1//EN'  'http://www.w3.org/Graphics/SVG/1.1/DTD/svg11.dtd'><svg enable-background="new 0 0 128 128" height="128px" id="Layer_1" version="1.1" viewBox="0 0 128 128" width="128px" xml:space="preserve" xmlns="http://www.w3.org/2000/svg" xmlns:xlink="http://www.w3.org/1999/xlink"><g><path d="M64,40.7c6.244,0,11.323-5.08,11.323-11.322c0-6.243-5.079-11.324-11.323-11.324   s-11.323,5.08-11.323,11.323C52.677,35.619,57.756,40.7,64,40.7z M64,20.054c5.141,0,9.323,4.183,9.323,9.323   c0,5.14-4.183,9.323-9.323,9.323c-5.141,0-9.323-4.183-9.323-9.322C54.677,24.237,58.859,20.054,64,20.054z" fill="#2BACE2"/><path d="M50.818,53.883c0-6.244-5.08-11.323-11.323-11.323c-6.243,0-11.323,5.08-11.323,11.323   s5.08,11.322,11.323,11.322C45.738,65.205,50.818,60.126,50.818,53.883z M39.495,63.205c-5.141,0-9.323-4.183-9.323-9.322   c0-5.141,4.183-9.323,9.323-9.323c5.14,0,9.323,4.183,9.323,9.323C48.818,59.022,44.636,63.205,39.495,63.205z" fill="#2BACE2"/><path d="M88.505,42.559c-6.243,0-11.323,5.08-11.323,11.323c0,6.242,5.08,11.322,11.323,11.322   s11.323-5.08,11.323-11.322C99.828,47.639,94.748,42.559,88.505,42.559z M88.505,63.205c-5.142,0-9.323-4.183-9.323-9.322   c0-5.141,4.184-9.323,9.323-9.323s9.323,4.183,9.323,9.323C97.828,59.022,93.646,63.205,88.505,63.205z" fill="#2BACE2"/><path d="M68.926,88.566c3.779-1.837,6.397-5.703,6.397-10.181c0-6.242-5.079-11.322-11.323-11.322   s-11.323,5.08-11.323,11.322c0,4.478,2.618,8.344,6.397,10.181c-8.095,2.421-14.079,10.628-14.079,20.38c0,0.553,0.448,1,1,1   c0.552,0,1-0.447,1-1c0-10.545,7.628-19.125,17.005-19.125s17.005,8.58,17.005,19.125c0,0.553,0.448,1,1,1s1-0.447,1-1   C83.005,99.194,77.021,90.987,68.926,88.566z M54.677,78.386c0-5.141,4.183-9.322,9.323-9.322c5.141,0,9.323,4.183,9.323,9.322   c0,5.141-4.183,9.324-9.323,9.324C58.859,87.71,54.677,83.527,54.677,78.386z" fill="#2BACE2"/></g></svg>