<?xml version="1.0" ?><!DOCTYPE svg  PUBLIC '-//W3C//DTD SVG 1.1//EN'  'http://www.w3.org/Graphics/SVG/1.1/DTD/svg11.dtd'><svg enable-background="new 0 0 128 128" height="128px" id="Layer_1" version="1.1" viewBox="0 0 128 128" width="128px" xml:space="preserve" xmlns="http://www.w3.org/2000/svg" xmlns:xlink="http://www.w3.org/1999/xlink"><g><path d="M103.626,27.743h-7.438v-8.944c0-0.552-0.447-1-1-1s-1,0.448-1,1v8.944H36.522v-8.944c0-0.552-0.447-1-1-1   s-1,0.448-1,1v8.944H24.373c-3.542,0-6.424,2.882-6.424,6.424v69.61c0,3.543,2.882,6.424,6.424,6.424h79.253   c3.543,0,6.425-2.881,6.425-6.424v-69.61C110.051,30.625,107.169,27.743,103.626,27.743z M108.051,103.777   c0,2.439-1.985,4.424-4.425,4.424H24.373c-2.439,0-4.424-1.984-4.424-4.424v-69.61c0-2.439,1.984-4.424,4.424-4.424h10.149v8.944   c0,0.552,0.447,1,1,1s1-0.448,1-1v-8.944h57.666v8.944c0,0.552,0.447,1,1,1s1-0.448,1-1v-8.944h7.438   c2.439,0,4.425,1.985,4.425,4.424V103.777z" fill="#2BACE2"/><path d="M95.188,53.357H33.112c-0.553,0-1,0.448-1,1s0.447,1,1,1h62.076c0.553,0,1-0.448,1-1   S95.741,53.357,95.188,53.357z" fill="#2BACE2"/><path d="M95.188,67.822H33.112c-0.553,0-1,0.447-1,1s0.447,1,1,1h62.076c0.553,0,1-0.447,1-1   S95.741,67.822,95.188,67.822z" fill="#2BACE2"/><path d="M68.671,82.287H33.112c-0.553,0-1,0.447-1,1s0.447,1,1,1h35.559c0.553,0,1-0.447,1-1   S69.224,82.287,68.671,82.287z" fill="#2BACE2"/></g></svg>