<?xml version="1.0" ?><svg id="Layer_1" style="enable-background:new 0 0 512 512;" version="1.1" viewBox="0 0 512 512" xml:space="preserve" xmlns="http://www.w3.org/2000/svg" xmlns:xlink="http://www.w3.org/1999/xlink"><style type="text/css">
	.st0{fill:#3B4652;}
	.st1{fill:#2B79C2;}
</style><g><path class="st0" d="M114.9,201.8h291.7c3,0,5.5-2.5,5.5-5.5v-78c0-3-2.5-5.5-5.5-5.5h-32.4v58.5H133.4v-58.5h-18.5   c-12.3,0-23.4,5-31.5,13c-8,8-13,19.2-13,31.4C70.4,181.8,90.3,201.8,114.9,201.8z"/><path class="st1" d="M418.7,289.1H273.3c-17.7,0-32,14.3-32,32c0,17.7,14.3,32,32,32h146.3c4.6,0,8.8-1.4,12.3-3.8   c1.2-0.8,2.3-1.7,3.3-2.7c4-4,6.4-9.5,6.4-15.5v-64.9C441.6,278.8,431.3,289.1,418.7,289.1z"/><path class="st0" d="M227.3,321.1c0-25.4,20.6-46,46-46h137.1c1.1-2.7,1.8-5.7,1.8-8.9V215c-1.7,0.5-3.6,0.8-5.5,0.8H114.9   c-17.8,0-33.8-8-44.5-20.6V410c0,24.5,19.9,44.5,44.5,44.5h291.7c3,0,5.5-2.5,5.5-5.5v-81.9H273.3   C247.9,367.1,227.3,346.5,227.3,321.1z"/><path class="st0" d="M426.1,159.4v106.8c8.2-1,15.5-12.7,15.5-20.2v-63.1C441.6,172.3,435.2,163.3,426.1,159.4z"/><path class="st0" d="M426.1,449c0,1.2-0.1,2.4-0.3,3.5c9.3-3.8,15.8-13,15.8-23.6v-69.3c-4.5,3.4-9.7,5.9-15.5,6.9V449z"/><path class="st1" d="M179.4,116.6c4.5,0,8.8-1.4,12.2-3.8c3.6-2.5,6.4-6,8-10.1c0.9-2.4,1.4-5,1.4-7.8h53.2c0,7.4,3.7,14,9.4,17.9   c3.5,2.4,7.7,3.8,12.2,3.8v40.7h32V57.5H147.4v99.8h32V116.6z"/><rect class="st0" height="99.8" width="38.3" x="322" y="57.5"/><path class="st0" d="M243.1,108.9h-30.8c-2.7,6.3-7.1,11.6-12.7,15.5c-1.9,1.3-4,2.5-6.1,3.4v29.5H262v-29.5   c-2.2-0.9-4.2-2.1-6.2-3.4C250.1,120.5,245.8,115.1,243.1,108.9z"/></g></svg>