<?xml version="1.0" ?><svg id="Layer_1" style="enable-background:new 0 0 512 512;" version="1.1" viewBox="0 0 512 512" xml:space="preserve" xmlns="http://www.w3.org/2000/svg" xmlns:xlink="http://www.w3.org/1999/xlink"><style type="text/css">
	.st0{fill:#3B4652;}
	.st1{fill:#2B79C2;}
</style><g><path class="st1" d="M257.7,279.3c-29.9,26.3-44.7,46.1-81.5,93.9c0,0-99.7,40-148.5,96.9h229.5l58.2-80.2V470H360V279.2   L257.7,279.3C257.8,279.2,257.7,279.2,257.7,279.3z M244,381.5h-30.1c-3.9,0-7-3.1-7-7s3.1-7,7-7H244c3.9,0,7,3.1,7,7   S247.9,381.5,244,381.5z M272.8,348.3h-30.1c-3.9,0-7-3.1-7-7s3.1-7,7-7h30.1c3.9,0,7,3.1,7,7S276.6,348.3,272.8,348.3z    M271.4,301.1h30.1c3.9,0,7,3.1,7,7s-3.1,7-7,7h-30.1c-3.9,0-7-3.1-7-7S267.5,301.1,271.4,301.1z"/><path class="st0" d="M442.6,304.9c-4.5,0-8.2,3.7-8.2,8.2V327c0,4.5,3.7,8.2,8.2,8.2s8.2-3.7,8.2-8.2v-13.9   C450.8,308.6,447.1,304.9,442.6,304.9z"/><path class="st0" d="M397.7,252c1.5-1.5,2.4-3.6,2.4-5.8v-13.9c0-4.5-3.7-8.2-8.2-8.2s-8.2,3.7-8.2,8.2v13.9c0,4.5,3.7,8.2,8.2,8.2   C394.1,254.4,396.2,253.5,397.7,252z"/><path class="st0" d="M476.4,152.7L431,125.4l-12-7.2c0.1-0.2,0.3-0.4,0.4-0.7c3.3-7,4.9-14.5,4.9-22.3c0-29.3-23.9-53.2-53.2-53.2   c-29.3,0-53.2,23.9-53.2,53.2c0,7.8,1.6,15.3,4.9,22.3c0.1,0.2,0.2,0.5,0.3,0.7c4.7,9.8,12.4,18.1,21.9,23.4c0.9,0.5,1.8,1,2.7,1.4   c7.2,3.5,15.2,5.4,23.3,5.4c8.1,0,16.1-1.8,23.3-5.4c-0.5,7.7-4.8,14.4-11,18.2c-4,0.8-8.2,1.1-12.3,1.1c-4.2,0-8.3-0.4-12.3-1.1   c-7.2-1.3-14.1-3.9-20.6-7.4c-11.6-6.5-21.2-16.6-27.1-28.4l-45.3,27.3c-4.9,3-8,8.3-8,14.1v98.4l116.3,0v138.4h80.3   c16.5,0,30-13.4,30-30V166.8C484.3,161,481.3,155.7,476.4,152.7z M348.1,105.7c2.2,4.8,6,8.9,10.6,11.5c1.5,0.9,3.1,1.6,4.8,2.1   c2.4,0.8,4.9,1.1,7.5,1.1c2.6,0,5.1-0.4,7.5-1.1c5.2,1.7,9.5,5.3,12.3,9.8c-0.2,0.1-0.5,0.2-0.7,0.3c-5.8,3.3-12.4,5-19.2,5   c-6.7,0-13.4-1.7-19.2-5c-0.2-0.1-0.4-0.2-0.6-0.4c-6.9-4-12.4-10.2-15.8-17.4c-0.1-0.2-0.2-0.5-0.3-0.7c-2.2-5-3.3-10.3-3.3-15.8   c0-21.6,17.6-39.2,39.2-39.2c21.6,0,39.2,17.6,39.2,39.2c0,5.5-1.1,10.8-3.3,15.7l-12.1-7.3l-15.3-9.2c-5.2-3.1-11.7-3.1-16.9,0   l-15.3,9.2C347.5,104.3,347.8,105.1,348.1,105.7z M369.6,246.2v-13.9c0-12.3,10-22.2,22.2-22.2s22.2,10,22.2,22.2v13.9   c0,12.3-10,22.2-22.2,22.2S369.6,258.4,369.6,246.2z M387,334c-1.3,0-2.6-0.4-3.8-1.1c-3.3-2.1-4.2-6.4-2.1-9.7l65.4-102.5   c2.1-3.3,6.4-4.2,9.7-2.1c3.3,2.1,4.2,6.4,2.1,9.7l-65.4,102.5C391.6,332.9,389.3,334,387,334z M464.8,327   c0,12.3-10,22.2-22.2,22.2c-12.3,0-22.2-10-22.2-22.2v-13.9c0-12.3,10-22.2,22.2-22.2c12.3,0,22.2,10,22.2,22.2V327z"/></g></svg>