<?xml version="1.0" ?><svg id="Layer_1" style="enable-background:new 0 0 512 512;" version="1.1" viewBox="0 0 512 512" xml:space="preserve" xmlns="http://www.w3.org/2000/svg" xmlns:xlink="http://www.w3.org/1999/xlink"><style type="text/css">
	.st0{fill:#3B4652;}
	.st1{fill:#2B79C2;}
</style><g><path class="st0" d="M357.1,207.1H41.3c-8.6,0-15.6,7-15.6,15.6v192c0,8.6,7,15.6,15.6,15.6h315.8c8.6,0,15.6-7,15.6-15.6v-192   C372.7,214,365.7,207.1,357.1,207.1z M287.3,246.7c0-3.9,3.1-7,7-7s7,3.1,7,7v21.6c0,3.9-3.1,7-7,7s-7-3.1-7-7V246.7z M131.7,381.9   H62.3v-44h69.4V381.9z M111.1,287.5c-4.8,0-9.3-1.5-13-4c-3.7,2.5-8.2,4-13,4c-12.6,0-22.9-10.3-22.9-22.9   c0-12.6,10.2-22.9,22.9-22.9c4.8,0,9.3,1.5,13,4c3.7-2.6,8.2-4,13-4c12.6,0,22.9,10.3,22.9,22.9C134,277.2,123.8,287.5,111.1,287.5   z M233.9,381.9h-69.4v-44h69.4V381.9z M259.6,275.3c-3.9,0-7-3.1-7-7v-21.6c0-3.9,3.1-7,7-7s7,3.1,7,7v21.6   C266.6,272.1,263.5,275.3,259.6,275.3z M336,381.9h-69.4v-44H336V381.9z M336,268.3c0,3.9-3.1,7-7,7s-7-3.1-7-7v-21.6   c0-3.9,3.1-7,7-7s7,3.1,7,7V268.3z"/><path class="st1" d="M470.7,81.8H154.9c-8.6,0-15.6,7-15.6,15.6v95.7h217.7c16.3,0,29.6,13.3,29.6,29.6v82.3h84.1   c8.6,0,15.6-7,15.6-15.6v-192C486.3,88.7,479.4,81.8,470.7,81.8z M423.7,145.6H202c-3.9,0-7-3.1-7-7s3.1-7,7-7h221.7   c3.9,0,7,3.1,7,7S427.6,145.6,423.7,145.6z"/></g></svg>