<?xml version="1.0" ?><svg id="Layer_1" style="enable-background:new 0 0 512 512;" version="1.1" viewBox="0 0 512 512" xml:space="preserve" xmlns="http://www.w3.org/2000/svg" xmlns:xlink="http://www.w3.org/1999/xlink"><style type="text/css">
	.st0{fill:#3B4652;}
	.st1{fill:#2B79C2;}
</style><g><path class="st0" d="M69.1,236l143.5-86.4l78.3-47.1c4.5-2.7,5.9-8.5,3.2-13l-19.3-32.1c-2.7-4.5-8.5-5.9-13-3.2l-71.6,43.1   c0.2-0.8,0.4-1.6,0.6-2.4c2.3-11.1,1.3-24.2-2.7-35.1c-4.9-13.5-14.1-22.7-25.7-26.1c-8.3-2.4-17.1-0.9-23.7,4   c-13.8,10.4-10.3,28.6-9,35.4c1.1,5.6,2.5,11.2,4,16.5c-4-3.9-8.2-7.7-12.7-11.3c-5.4-4.4-19.9-15.9-35.5-8.6   c-7.4,3.5-12.9,10.6-14.6,19c-2.5,11.9,1.5,24.3,11.1,34.9c7.8,8.6,18.9,15.7,29.8,18.8c0.8,0.2,1.6,0.4,2.4,0.6l-74.1,44.6   c-4.5,2.7-5.9,8.5-3.2,13l19.3,32.1C58.9,237.3,64.7,238.7,69.1,236z M147.2,48.9c2-1.5,4.6-2.3,7.3-2.3c1.3,0,2.7,0.2,4,0.6   c17,4.9,21.8,29.7,18.6,45c-1.1,5.4-3.2,10.6-6.2,15.4l-12.9,7.8c-5.6-13.1-11.4-28.3-14.5-44.8C141.3,59,142.4,52.5,147.2,48.9z    M84.6,91.6c0.8-4.1,3.4-7.6,6.8-9.2c1.5-0.7,3-1,4.6-1c4.4,0,9.5,2.5,16.2,7.9c13.1,10.5,24.2,23.2,32.8,33.8l-12.9,7.8   c-5.6,0.4-11.2-0.2-16.5-1.8C100.7,124.8,81,109,84.6,91.6z"/><path class="st1" d="M363.2,167.8c10.2,0,18.6-8.3,18.6-18.6v-10.6c0-10.2-8.3-18.6-18.6-18.6s-18.6,8.3-18.6,18.6v10.6   C344.7,159.5,353,167.8,363.2,167.8z M358.7,138.6c0-2.5,2.1-4.6,4.6-4.6s4.6,2.1,4.6,4.6v10.6c0,2.5-2.1,4.6-4.6,4.6   s-4.6-2.1-4.6-4.6V138.6z"/><path class="st1" d="M401.8,181.5c-10.2,0-18.6,8.3-18.6,18.6v10.6c0,10.2,8.3,18.6,18.6,18.6c10.2,0,18.6-8.3,18.6-18.6v-10.6   C420.4,189.9,412.1,181.5,401.8,181.5z M406.4,210.7c0,2.5-2.1,4.6-4.6,4.6h0c-2.5,0-4.6-2.1-4.6-4.6v-10.6c0-2.5,2.1-4.6,4.6-4.6   s4.6,2.1,4.6,4.6V210.7z"/><path class="st1" d="M352,222.4c1.2,0.7,2.5,1.1,3.8,1.1c2.3,0,4.6-1.1,5.9-3.2l53.5-83.8c2.1-3.3,1.1-7.6-2.1-9.7   s-7.6-1.1-9.7,2.1l-53.5,83.8C347.8,216,348.8,220.4,352,222.4z"/><path class="st0" d="M448.3,150.7c1.8,0,3.6-0.7,4.9-2l18.3-18.3c2.7-2.7,2.7-7.2,0-9.9c-2.7-2.7-7.2-2.7-9.9,0l-18.3,18.3   c-2.7,2.7-2.7,7.2,0,9.9C444.7,150,446.5,150.7,448.3,150.7z"/><path class="st0" d="M453.3,202.7c-2.7-2.7-7.2-2.7-9.9,0c-2.7,2.7-2.7,7.2,0,9.9l18.3,18.3c1.4,1.4,3.2,2,4.9,2s3.6-0.7,4.9-2   c2.7-2.7,2.7-7.2,0-9.9L453.3,202.7z"/><path class="st0" d="M469.5,168.7h-20.9c-3.9,0-7,3.1-7,7s3.1,7,7,7h20.9c3.9,0,7-3.1,7-7S473.4,168.7,469.5,168.7z"/><path class="st0" d="M293.6,130.4l18.3,18.3c1.4,1.4,3.2,2,4.9,2s3.6-0.7,4.9-2.1c2.7-2.7,2.7-7.2,0-9.9l-18.3-18.3   c-2.7-2.7-7.2-2.7-9.9,0C290.8,123.2,290.8,127.6,293.6,130.4z"/><path class="st0" d="M298.5,233c1.8,0,3.6-0.7,4.9-2l18.3-18.3c2.7-2.7,2.7-7.2,0-9.9c-2.7-2.7-7.2-2.7-9.9,0L293.6,221   c-2.7,2.7-2.7,7.2,0,9.9C294.9,232.3,296.7,233,298.5,233z"/><path class="st0" d="M316.5,182.7c3.9,0,7-3.1,7-7s-3.1-7-7-7h-20.9c-3.9,0-7,3.1-7,7s3.1,7,7,7H316.5z"/><path class="st0" d="M54.5,275l17.2,191.9c0.6,7.1,6.6,12.5,13.7,12.5h76.1V260H68.2C60.2,260,53.8,266.9,54.5,275z"/><path class="st0" d="M356.2,260H264v219.5h76c7.2,0,13.1-5.5,13.7-12.6l16.1-191.9C370.6,266.9,364.3,260,356.2,260z"/><rect class="st1" height="219.4" width="74.5" x="175.5" y="260"/></g></svg>