<?xml version="1.0" ?><svg id="Layer_1" style="enable-background:new 0 0 512 512;" version="1.1" viewBox="0 0 512 512" xml:space="preserve" xmlns="http://www.w3.org/2000/svg" xmlns:xlink="http://www.w3.org/1999/xlink"><style type="text/css">
	.st0{fill:#3B4652;}
	.st1{fill:#2B79C2;}
</style><g><path class="st0" d="M378.9,258.6c-1.9-14.7-6-28.6-12-41.5c-1.5-3.2-3.1-6.3-4.8-9.4c-24.4-43.9-71.3-73.6-125.1-73.6   c-8.6,0-17,0.8-25.2,2.2C144.8,148.3,94,206.8,94,277.2c0,29.1,8.7,56.2,23.7,78.8l-75.8,65.4c-15.9,13.7-16.8,38-1.9,52.9   c14.8,14.8,39.1,13.9,52.9-1.9l65.4-75.8c22.6,15,49.7,23.7,78.8,23.7c34.2,0,65.6-12,90.2-32c32.2-26.2,52.8-66.2,52.8-111   C380.1,270.9,379.7,264.7,378.9,258.6z M80.5,456c-6.2,6.1-16.1,6.1-22.2,0c-6.1-6.1-6.1-16.1,0-22.2c6.1-6.1,16.1-6.1,22.2,0   C86.6,439.9,86.6,449.8,80.5,456z M302.1,367.2c-17.9,13-39.9,20.7-63.6,21h-3.1c-25.7-0.4-49.2-9.4-67.9-24.4   c-6.3-5.1-12.1-10.8-17.1-17.1c-15.3-19-24.4-43.2-24.4-69.5c0-26.3,9.1-50.5,24.4-69.5c15.3-19.1,36.8-32.9,61.4-38.7   c8.1-1.9,16.5-2.9,25.2-2.9c35,0,66.2,16.2,86.6,41.5c15.3,19,24.5,43.2,24.5,69.5C348.1,314.2,330,347,302.1,367.2z"/><path class="st0" d="M223.3,193.7h63.2c-14.8-8.8-31.8-13.5-49.5-13.5c-7.5,0-14.9,0.8-22.1,2.5c-1.1,0.3-2.1,0.5-3.2,0.8v24.2   h11.5V193.7z"/><path class="st0" d="M374.3,200.9c1.3,2.2,2.5,4.5,3.6,6.8h14.5V27.1h-64.8v50.9h-50.9V27.1h-64.8v95c8.3-1.3,16.8-2,25.2-2   C294,120.1,346.6,151.1,374.3,200.9z"/><path class="st0" d="M316.1,333.4c11.6-16.2,18-35.9,18-56.2c0-20.5-6.2-39.8-18-56.3V333.4z"/><path class="st0" d="M417.8,207.7v50.9H393c0.7,6.1,1.1,12.4,1.1,18.6c0,42-16.6,81.7-46,111h134.5V207.7H417.8z"/><path class="st1" d="M237.3,258.6h-50.9v-50.9h-17c-2.8,2.8-5.5,5.7-8,8.8c-14,17.4-21.4,38.4-21.4,60.8s7.4,43.4,21.3,60.7   c4.4,5.5,9.5,10.6,15,15c17,13.6,37.5,21,59.3,21.3l0.3,0c0.3,0,0.5,0,0.8,0h0.7c0.2,0,0.3,0,0.5,0l0.4,0   c20.1-0.3,39.3-6.6,55.6-18.4c2.9-2.1,5.6-4.3,8.2-6.7V207.7h-64.8V258.6z"/></g></svg>