<?xml version="1.0" ?><svg id="Layer_1" style="enable-background:new 0 0 512 512;" version="1.1" viewBox="0 0 512 512" xml:space="preserve" xmlns="http://www.w3.org/2000/svg" xmlns:xlink="http://www.w3.org/1999/xlink"><style type="text/css">
	.st0{fill:#3B4652;}
	.st1{fill:#2B79C2;}
</style><g><path class="st1" d="M74.1,195.6c5.4,2.4,11.5,3.7,17.8,3.7c24.4,0,44.3-19.8,44.3-44.3c0-24.4-19.8-44.3-44.3-44.3   S47.7,130.6,47.7,155c0,8.2,2.2,15.9,6.1,22.5C58.5,185.5,65.6,191.8,74.1,195.6z"/><path class="st0" d="M186.9,352.4c5.9-2.8,10.3-7.5,13-12.9c3.2-6.6,3.8-14.3,1.3-21.6c-0.5-1.5-1.2-2.9-1.9-4.3L137.6,202l-2.5,2   l-41.8,20l-31.9,30.9l9.7-45.4c-0.9-0.3-1.8-0.7-2.7-1.1c-7.3-3.2-14-8-19.5-14l-19.1,67.2c-5,17.6,12,33.4,29.2,27.2l44-15.8   l18.7,57.3l-14.2,9.2l-34.9,22.6l-28.5,18.4l35.3,107.8l32-12.5L90.6,399L186.9,352.4z"/><path class="st0" d="M219.4,413v55.2h26.7V408c-8.4,3.2-17.3,4.9-26.4,5H219.4z"/><rect class="st0" height="55.2" width="26.7" x="135.4" y="413"/><path class="st1" d="M254.2,263h-22.5c-8,0-15.2,3.2-20.4,8.5c-5,5-8.2,11.9-8.5,19.6l8.7,15.8c1.2,2.1,2.1,4.3,2.9,6.5   c3.7,10.5,3,22.3-2,32.3c-4.2,8.5-10.9,15.2-19.5,19.3l-70.3,34h95.7c0.3,0,0.7,0,1,0c9.5-0.1,18.6-2.4,26.7-6.2   c21.9-10.4,37-32.6,37-58.5v-42.4C283.1,275.9,270.2,263,254.2,263z"/><path class="st0" d="M388.8,77.7c2.5,0,4.6-2.1,4.6-4.6V62.6c0-2.5-2.1-4.6-4.6-4.6s-4.6,2.1-4.6,4.6v10.6   C384.2,75.7,386.3,77.7,388.8,77.7z"/><path class="st0" d="M427.4,119.5c-2.5,0-4.6,2.1-4.6,4.6v10.6c0,2.5,2.1,4.6,4.6,4.6s4.6-2.1,4.6-4.6V124   C432,121.5,429.9,119.5,427.4,119.5z"/><path class="st1" d="M408.1,23.8c-41.3,0-74.8,33.5-74.8,74.8c0,41.3,33.5,74.8,74.8,74.8c41.3,0,74.8-33.5,74.8-74.8   C482.9,57.3,449.4,23.8,408.1,23.8z M370.2,62.6c0-10.2,8.3-18.6,18.6-18.6c10.2,0,18.6,8.3,18.6,18.6v10.6   c0,10.2-8.3,18.6-18.6,18.6c-10.2,0-18.6-8.3-18.6-18.6V62.6z M387.3,144.2c-1.3,2.1-3.6,3.2-5.9,3.2c-1.3,0-2.6-0.4-3.8-1.1   c-3.3-2.1-4.2-6.4-2.1-9.7l53.5-83.8c2.1-3.3,6.4-4.2,9.7-2.1s4.2,6.4,2.1,9.7L387.3,144.2z M446,134.6c0,10.2-8.3,18.6-18.6,18.6   s-18.6-8.3-18.6-18.6V124c0-10.2,8.3-18.6,18.6-18.6S446,113.8,446,124V134.6z"/><circle class="st0" cx="190.6" cy="146.1" r="19.3"/><circle class="st0" cx="271.6" cy="129.3" r="25.5"/></g></svg>