<?xml version="1.0" ?><svg id="Layer_1" style="enable-background:new 0 0 512 512;" version="1.1" viewBox="0 0 512 512" xml:space="preserve" xmlns="http://www.w3.org/2000/svg" xmlns:xlink="http://www.w3.org/1999/xlink"><style type="text/css">
	.st0{fill:#3B4652;}
	.st1{fill:#2B79C2;}
</style><g><path class="st0" d="M296.9,34.2c-99.9,0-180.9,81-180.9,180.9c0,36.8,11,71.1,29.9,99.7l-95.8,82.7c-20.1,17.3-21.2,48.1-2.4,66.8   c18.8,18.8,49.5,17.6,66.8-2.5l82.7-95.8c28.6,18.9,62.8,29.9,99.7,29.9c99.9,0,180.9-81,180.9-180.9   C477.8,115.2,396.8,34.2,296.9,34.2z M98.9,441.2c-7.8,7.8-20.4,7.8-28.1,0c-7.8-7.8-7.8-20.3,0-28.1c7.8-7.8,20.3-7.8,28.1,0   C106.7,420.9,106.7,433.5,98.9,441.2z M296.9,355.6c-33.3,0-63.8-11.6-87.9-30.9L187.3,303c-19.3-24.1-30.9-54.6-30.9-87.9   c0-77.5,62.9-140.4,140.4-140.4c77.5,0,140.4,62.9,140.4,140.4C437.3,292.7,374.4,355.6,296.9,355.6z"/><path class="st1" d="M320.6,141c0,13.1-10.6,23.7-23.7,23.7c-13.1,0-23.7-10.6-23.7-23.7h-30.4l-44,60.8l27.6,28.1l20.9-20.6v79.9   h99.3v-79.9l21,20.6l27.6-28.1L351,141H320.6z M309.5,216.2h-25.4c-3.9,0-7-3.1-7-7c0-3.9,3.1-7,7-7h25.4c3.9,0,7,3.1,7,7   C316.5,213,313.4,216.2,309.5,216.2z"/></g></svg>