<?xml version="1.0" ?><svg id="Layer_1" style="enable-background:new 0 0 512 512;" version="1.1" viewBox="0 0 512 512" xml:space="preserve" xmlns="http://www.w3.org/2000/svg" xmlns:xlink="http://www.w3.org/1999/xlink"><style type="text/css">
	.st0{fill:#3B4652;}
	.st1{fill:#2B79C2;}
</style><g><path class="st0" d="M91.1,107.5l-45.5,21.9c-9.3,4.5-15.3,13.9-15.3,24.3v114.5l60.8,24.7V107.5z"/><path class="st0" d="M481.7,153.6c0-10.4-5.9-19.8-15.3-24.3l-45.5-21.9v185.4l60.8-24.7V153.6z"/><path class="st0" d="M406.9,313.7L256,375.1l-150.9-61.4l-74.8-30.4v158.1c0,21.2,17.2,38.4,38.4,38.4h374.7   c21.2,0,38.4-17.2,38.4-38.4V283.3L406.9,313.7z M68.3,441.4c0,3.9-3.1,7-7,7s-7-3.1-7-7v-112c0-3.9,3.1-7,7-7s7,3.1,7,7V441.4z"/><path class="st0" d="M167.8,93.2c9.2,0,16.7-7.5,16.7-16.7V62.7l-28.8,13.8l-4.4,2.1C152.3,86.8,159.3,93.2,167.8,93.2z"/><path class="st0" d="M239.3,76.5c0,9.2,7.5,16.7,16.7,16.7s16.7-7.5,16.7-16.7v-14h54.5l-7.9-3.8l-47.9-23c-9.7-4.7-21-4.7-30.7,0   l-47.9,23l-7.9,3.8h54.5V76.5z"/><path class="st0" d="M344.2,93.2c8.5,0,15.5-6.4,16.5-14.5l-4.4-2.1l-28.8-13.8v13.8C327.5,85.7,335,93.2,344.2,93.2z"/><path class="st0" d="M290.5,256.3c-0.7-0.1-1.4-0.2-2.1-0.2c0,0,0,0,0,0c0,0,0,0,0,0c-4,0-7.6,1.9-9.8,4.8   c-1.6,2.1-2.6,4.8-2.6,7.6v17.8c0,1.7,0.4,3.4,1,4.9c1.6,3.7,4.9,6.5,9,7.4c0.8,0.2,1.7,0.3,2.5,0.3c1.3,0,2.5-0.2,3.7-0.6   c5.1-1.6,8.7-6.3,8.7-11.9v-17.8C300.9,262.4,296.4,257.3,290.5,256.3z"/><path class="st0" d="M218.1,194.2c1.6,0.8,3.5,1.3,5.4,1.3c1.7,0,3.4-0.4,4.9-1c2.6-1.1,4.8-3.1,6.1-5.6c1-1.8,1.5-3.8,1.5-5.9   v-17.8c0-4.6-2.5-8.6-6.2-10.8c-1.8-1.1-4-1.7-6.2-1.7c-2.9,0-5.6,1-7.7,2.7c-0.1,0.1-0.2,0.1-0.3,0.2c-0.1,0.1-0.2,0.2-0.4,0.3   c-0.2,0.2-0.4,0.3-0.5,0.5c0,0-0.1,0.1-0.1,0.1c-1.4,1.4-2.4,3.1-3,5c0,0.1-0.1,0.2-0.1,0.4c-0.1,0.3-0.2,0.6-0.2,0.8   c-0.2,0.8-0.3,1.7-0.3,2.5V183C211.1,187.9,214,192.2,218.1,194.2z"/><polygon class="st0" points="327.5,62.5 327.2,62.5 327.5,62.7  "/><polygon class="st0" points="184.5,62.5 184.5,62.7 184.8,62.5  "/><path class="st1" d="M406.9,298.6V76.5h-32c0,16.9-13.7,30.7-30.7,30.7c-16.9,0-30.7-13.7-30.7-30.7h-26.9   c0,16.9-13.7,30.7-30.7,30.7s-30.7-13.7-30.7-30.7h-26.9c0,16.9-13.7,30.7-30.7,30.7c-16.9,0-30.7-13.7-30.7-30.7h-32v222.1   L256,360L406.9,298.6z M314.9,268.6v17.8c0,14.6-11.9,26.5-26.5,26.5c-14.6,0-26.5-11.9-26.5-26.5v-17.8   c0-14.6,11.9-26.5,26.5-26.5C303.1,242.1,314.9,254,314.9,268.6z M197.1,165.2c0-14.6,11.9-26.5,26.5-26.5   c14.6,0,26.5,11.9,26.5,26.5V183c0,14.6-11.9,26.5-26.5,26.5c-14.6,0-26.5-11.9-26.5-26.5V165.2z M211,303.2   c-1.3,0-2.6-0.3-3.8-1.1c-3.3-2.1-4.2-6.4-2.1-9.7l89.9-140.9c2.1-3.3,6.4-4.2,9.7-2.1s4.2,6.4,2.1,9.7L216.9,300   C215.6,302.1,213.4,303.2,211,303.2z"/></g></svg>