<?xml version="1.0" ?><svg id="Layer_1" style="enable-background:new 0 0 512 512;" version="1.1" viewBox="0 0 512 512" xml:space="preserve" xmlns="http://www.w3.org/2000/svg" xmlns:xlink="http://www.w3.org/1999/xlink"><style type="text/css">
	.st0{fill:#3B4652;}
	.st1{fill:#2B79C2;}
</style><g><path class="st1" d="M15.9,432v1.5c17.1,10.5,42.3,19.7,73.2,26.9v23.1h326.1v-23.1h-0.6c32.3-7.5,58.4-17.3,75.5-28.4H15.9z"/><path class="st0" d="M303.9,327c0-2.7-2.2-4.9-4.8-4.9l-0.2,0c-15,0.6-30.4,0.9-45.8,0.9c-57.1,0-128-4.3-162.2-16.1V418h324.4   V306.9c-11.2,3.9-26.8,7.1-46.6,9.7c-0.9,0.1-1.7,0.4-2.4,1c-1.2,0.9-1.9,2.3-1.9,3.9v5.3c0,1.1,0.3,2.1,0.7,2.7   c3.4,4.8,5.7,10.4,6.5,16.2l0,0l0,0.1l0.1,0.9v0.2v9.1v0.1l-0.1,0.6l-0.1,0.5c0,0,0,0,0,0c-2.6,17-16.3,30.1-33.3,32   c-1.4,0.2-2.8,0.2-4.2,0.2c-20.9,0-38-17-38-38c0-7.7,2.3-15.1,6.6-21.4C303.3,329.4,303.9,328.3,303.9,327z"/><path class="st0" d="M286.8,212.5c8.6-8.6,13.9-20.5,13.9-33.6c0-16-7.9-30.2-20.1-38.8c-7.8-5.5-17.3-8.8-27.6-8.8   c-26.3,0-47.6,21.3-47.6,47.6c0,13.1,5.3,25,13.9,33.6H286.8z"/><path class="st0" d="M488.4,135.4l-43.1-25.9l-12-7.2c0.1-0.2,0.3-0.4,0.4-0.7c3.1-6.8,4.7-14.1,4.7-21.6   c0-28.4-23.1-51.5-51.5-51.5c-28.4,0-51.5,23.1-51.5,51.5c0,7.5,1.6,14.8,4.7,21.6c0.1,0.2,0.2,0.5,0.3,0.7   c4.5,9.5,12,17.5,21.2,22.6c0.9,0.5,1.8,1,2.8,1.4c7,3.4,14.6,5.1,22.4,5.1c7.8,0,15.5-1.8,22.4-5.1c-0.7,8.1-5.6,15-12.6,18.4   c-3.2,0.5-6.5,0.7-9.8,0.7c-3.3,0-6.6-0.3-9.8-0.8c-7.8-1.2-15.3-3.8-22.2-7.6c-11.3-6.4-20.6-16.1-26.4-27.6l-36.2,21.8   c14.1,11.7,22.4,29.1,22.4,47.5c0,12.1-3.5,23.7-10,33.6H373c27.9,0,45.9,5.3,56.6,16.8c10.9,11.6,11.8,27,11.8,40.4   c0,1.8,0,3.6,0,5.5c0,1.8,0,3.7,0,5.6c0,7.8-4,14.3-12,19.6V377h37.9c15.9,0,28.9-12.9,28.9-28.9V148.9   C496.1,143.4,493.2,138.2,488.4,135.4z M421.3,95l-12.2-7.3l-14-8.4c-5-3-11.3-3-16.3,0l-14,8.4c0.3,0.7,0.5,1.4,0.9,2.1   c2.1,4.5,5.6,8.3,9.9,10.7c1.8,1,3.7,1.7,5.6,2.2c1.9,0.5,3.9,0.7,5.9,0.7c2,0,3.9-0.3,5.8-0.7c5.5,1.5,10.1,5,13.1,9.6   c-0.2,0.1-0.4,0.2-0.6,0.3c-5.5,3.1-11.9,4.8-18.3,4.8c-6.4,0-12.8-1.6-18.4-4.8c-0.2-0.1-0.4-0.2-0.6-0.4   c-6.6-3.9-11.9-9.7-15.1-16.6c-0.1-0.2-0.2-0.5-0.3-0.7c-2.1-4.7-3.1-9.8-3.1-15c0-20.7,16.8-37.5,37.5-37.5   c20.7,0,37.5,16.8,37.5,37.5C424.5,85.2,423.4,90.3,421.3,95z"/><path class="st1" d="M90.9,292c26.8,11.4,94.5,17,162.2,17c15.3,0,30.5-0.3,45.3-0.9c0.3,0,0.5,0,0.7,0c10.3,0,18.8,8.4,18.8,18.9   c0,4-1.3,7.8-3.6,11c-2.6,3.8-4.1,8.5-4.1,13.5c0,14.1,12.2,25.4,26.7,23.8c10.7-1.2,19.4-9.6,21-20.2c0.1-0.5,0.2-1,0.2-1.6   c0.2-2,0.1-3.9-0.2-5.7c-0.6-3.8-2-7.2-4.1-10.2c-2.2-3.2-3.3-7-3.3-10.8v-5.3c0-6.1,2.9-11.5,7.4-15c2.6-2,5.6-3.3,9-3.7   c20.8-2.7,37.8-6.3,48.4-10.8c7.7-3.3,12-7,12-11.2c0-3.8,0.1-7.5,0.1-11.1c0-24.7-3.2-43.2-54.4-43.2H133.2   c-51.2,0-54.4,18.5-54.4,43.2c0,3.6,0.1,7.3,0.1,11.1C78.9,285,83.2,288.7,90.9,292z"/></g></svg>