<?xml version="1.0" ?><svg id="Layer_1" style="enable-background:new 0 0 512 512;" version="1.1" viewBox="0 0 512 512" xml:space="preserve" xmlns="http://www.w3.org/2000/svg" xmlns:xlink="http://www.w3.org/1999/xlink"><style type="text/css">
	.st0{fill:#3B4652;}
	.st1{fill:#2B79C2;}
</style><path class="st0" d="M365.5,175.8L365.5,175.8L365.5,175.8l-61.5,0h-26V146h-15v-21c21.3-3.4,37.7-21.9,37.7-44.1  c0-24.6-20-44.7-44.7-44.7s-44.7,20-44.7,44.7c0,3.9,3.1,7,7,7s7-3.1,7-7c0-16.9,13.8-30.7,30.7-30.7s30.7,13.8,30.7,30.7  s-13.8,30.7-30.7,30.7c-3.9,0-7,3.1-7,7V146h-15v29.8h-26h-61.5h0v0l-89.1,123l55.7,56.9l42.4-41.6v161.6h200.9V314.1l42.4,41.6  l55.7-56.9L365.5,175.8z M256,223.8c-21.6,0-39.9-14.3-45.9-34h91.8C295.9,209.5,277.6,223.8,256,223.8z"/></svg>