<?xml version="1.0" ?><svg id="Layer_1" style="enable-background:new 0 0 512 512;" version="1.1" viewBox="0 0 512 512" xml:space="preserve" xmlns="http://www.w3.org/2000/svg" xmlns:xlink="http://www.w3.org/1999/xlink"><style type="text/css">
	.st0{fill:#3B4652;}
	.st1{fill:#2B79C2;}
</style><g><path class="st1" d="M256,300c34.5,0,62.7-27.3,64-61.5c0-0.8,0-1.6,0-2.5c0-8.6-1.7-16.7-4.7-24.2c-9.5-23.4-32.5-39.8-59.3-39.8   s-49.7,16.5-59.3,39.8c-3,7.5-4.7,15.6-4.7,24.2c0,0.8,0,1.7,0,2.5C193.3,272.7,221.5,300,256,300z"/><path class="st0" d="M401.4,259.5l-69.8-42.8c1.6,6.3,2.4,12.7,2.4,19.3c0,1,0,2-0.1,3c-0.1,3.2-0.4,6.3-0.9,9.4l39.7,30   l-71.2,64.6c-29.4,10.6-61.6,10.6-91.1,0l-71.2-64.6l39.7-30c-0.5-3.1-0.8-6.2-0.9-9.3c0-1-0.1-2-0.1-3c0-6.6,0.8-13,2.4-19.3   l-69.8,42.8c-13.2,8.1-16.5,25.9-7,38.1l75.7,98.4l-8.7,81.5h170.8l-8.7-81.5l75.7-98.4C417.8,285.3,414.6,267.6,401.4,259.5z"/><path class="st0" d="M124,133.8c-2.5,0-4.6,2.1-4.6,4.6V149c0,2.5,2.1,4.6,4.6,4.6s4.6-2.1,4.6-4.6v-10.6   C128.6,135.9,126.6,133.8,124,133.8z"/><path class="st1" d="M179.6,112.9c0-41.3-33.5-74.8-74.8-74.8s-74.8,33.5-74.8,74.8s33.5,74.8,74.8,74.8S179.6,154.3,179.6,112.9z    M142.6,149c0,10.2-8.3,18.6-18.6,18.6s-18.6-8.3-18.6-18.6v-10.6c0-10.2,8.3-18.6,18.6-18.6s18.6,8.3,18.6,18.6V149z M66.9,76.9   c0-10.2,8.3-18.6,18.6-18.6c10.2,0,18.6,8.3,18.6,18.6v10.6c0,10.2-8.3,18.6-18.6,18.6c-10.2,0-18.6-8.3-18.6-18.6V76.9z M78,161.8   c-1.3,0-2.6-0.4-3.8-1.1c-3.3-2.1-4.2-6.4-2.1-9.7l53.5-83.8c2.1-3.3,6.4-4.2,9.7-2.1c3.3,2.1,4.2,6.4,2.1,9.7l-53.5,83.8   C82.6,160.7,80.3,161.8,78,161.8z"/><path class="st0" d="M85.4,92.1c2.5,0,4.6-2.1,4.6-4.6V76.9c0-2.5-2.1-4.6-4.6-4.6s-4.6,2.1-4.6,4.6v10.6   C80.9,90,82.9,92.1,85.4,92.1z"/><path class="st0" d="M426.6,133.8c-2.5,0-4.6,2.1-4.6,4.6V149c0,2.5,2.1,4.6,4.6,4.6s4.6-2.1,4.6-4.6v-10.6   C431.1,135.9,429.1,133.8,426.6,133.8z"/><path class="st1" d="M407.3,38.1c-41.3,0-74.8,33.5-74.8,74.8s33.5,74.8,74.8,74.8s74.8-33.5,74.8-74.8S448.6,38.1,407.3,38.1z    M369.4,76.9c0-10.2,8.3-18.6,18.6-18.6s18.6,8.3,18.6,18.6v10.6c0,10.2-8.3,18.6-18.6,18.6s-18.6-8.3-18.6-18.6V76.9z    M386.4,158.6c-1.3,2.1-3.6,3.2-5.9,3.2c-1.3,0-2.6-0.4-3.8-1.1c-3.3-2.1-4.2-6.4-2.1-9.7l53.5-83.8c2.1-3.3,6.4-4.2,9.7-2.1   c3.3,2.1,4.2,6.4,2.1,9.7L386.4,158.6z M445.1,149c0,10.2-8.3,18.6-18.6,18.6c-10.2,0-18.6-8.3-18.6-18.6v-10.6   c0-10.2,8.3-18.6,18.6-18.6c10.2,0,18.6,8.3,18.6,18.6V149z"/><path class="st0" d="M388,92.1c2.5,0,4.6-2.1,4.6-4.6V76.9c0-2.5-2.1-4.6-4.6-4.6s-4.6,2.1-4.6,4.6v10.6   C383.4,90,385.4,92.1,388,92.1z"/><path class="st0" d="M228.9,75.7c3.9,0,7-3.1,7-7c0-11.1,9-20.1,20.1-20.1s20.1,9,20.1,20.1s-9,20.1-20.1,20.1c-3.9,0-7,3.1-7,7v25   c0,3.9,3.1,7,7,7s7-3.1,7-7v-18.7c15.5-3.2,27.1-17,27.1-33.4c0-18.8-15.3-34.1-34.1-34.1s-34.1,15.3-34.1,34.1   C221.9,72.5,225,75.7,228.9,75.7z"/><path class="st0" d="M254.6,134.7c-0.4,0.1-0.9,0.2-1.3,0.4c-0.4,0.2-0.8,0.4-1.2,0.6c-0.4,0.3-0.7,0.6-1.1,0.9c-1.3,1.3-2,3.1-2,5   c0,0.5,0,0.9,0.1,1.4c0.1,0.5,0.2,0.9,0.4,1.3c0.2,0.4,0.4,0.8,0.6,1.2c0.3,0.4,0.6,0.7,0.9,1.1c0.3,0.3,0.7,0.6,1.1,0.9   c0.4,0.3,0.8,0.5,1.2,0.6c0.4,0.2,0.9,0.3,1.3,0.4c0.5,0.1,0.9,0.1,1.4,0.1c1.8,0,3.6-0.8,4.9-2.1c0.3-0.3,0.6-0.7,0.9-1.1   c0.3-0.4,0.5-0.8,0.6-1.2c0.2-0.4,0.3-0.9,0.4-1.3s0.1-0.9,0.1-1.4c0-1.8-0.8-3.6-2.1-5C259.3,135,256.9,134.2,254.6,134.7z"/></g></svg>