<?xml version="1.0" ?><svg id="Layer_1" style="enable-background:new 0 0 512 512;" version="1.1" viewBox="0 0 512 512" xml:space="preserve" xmlns="http://www.w3.org/2000/svg" xmlns:xlink="http://www.w3.org/1999/xlink"><style type="text/css">
	.st0{fill:#3B4652;}
	.st1{fill:#2B79C2;}
</style><g><path class="st0" d="M415,270.2l-46.8-30.2H143.8L97,270.2v146.9h318V270.2z M182.7,392.9h-33.6v-33.6h33.6V392.9z M182.7,326.8   h-33.6v-33.6h33.6V326.8z M242.8,392.9h-33.6v-33.6h33.6V392.9z M242.8,326.8h-33.6v-33.6h33.6V326.8z M302.8,392.9h-33.6v-33.6   h33.6V392.9z M302.8,326.8h-33.6v-33.6h33.6V326.8z M362.9,392.9h-33.6v-33.6h33.6V392.9z M362.9,326.8h-33.6v-33.6h33.6V326.8z"/><polygon class="st0" points="286,146.6 341.6,146.6 341.6,66.2 430.2,66.2 430.2,22 261.9,22 261.9,66.2 286,66.2  "/><path class="st1" d="M368.2,97.2h-12.6v63.5H272V97.2h-28.1v42.5h-14V22h-51.8v117.6h-14V97.2h-20.4v128.8h224.4V97.2z M200.6,37.1   h6.9c3.9,0,7,3.1,7,7c0,3.9-3.1,7-7,7h-6.9c-3.9,0-7-3.1-7-7C193.6,40.2,196.7,37.1,200.6,37.1z M200.6,57.2h6.9c3.9,0,7,3.1,7,7   s-3.1,7-7,7h-6.9c-3.9,0-7-3.1-7-7S196.7,57.2,200.6,57.2z M200.6,77.3h6.9c3.9,0,7,3.1,7,7c0,3.9-3.1,7-7,7h-6.9c-3.9,0-7-3.1-7-7   C193.6,80.5,196.7,77.3,200.6,77.3z M200.6,97.4h6.9c3.9,0,7,3.1,7,7c0,3.9-3.1,7-7,7h-6.9c-3.9,0-7-3.1-7-7   C193.6,100.6,196.7,97.4,200.6,97.4z M200.6,117.6h6.9c3.9,0,7,3.1,7,7c0,3.9-3.1,7-7,7h-6.9c-3.9,0-7-3.1-7-7   C193.6,120.7,196.7,117.6,200.6,117.6z M240.5,198.1h-72.8c-3.9,0-7-3.1-7-7c0-3.9,3.1-7,7-7h72.8c3.9,0,7,3.1,7,7   C247.5,195,244.3,198.1,240.5,198.1z M341.6,208.7H286v-35.1h55.5V208.7z"/><path class="st1" d="M64,431.1V490h384v-58.9H64z M346.1,467.5h-26.6c-3.9,0-7-3.1-7-7s3.1-7,7-7h26.6c3.9,0,7,3.1,7,7   S350,467.5,346.1,467.5z M406.9,467.5h-26.6c-3.9,0-7-3.1-7-7s3.1-7,7-7h26.6c3.9,0,7,3.1,7,7S410.8,467.5,406.9,467.5z"/></g></svg>