<?xml version="1.0" ?><svg id="Layer_1" style="enable-background:new 0 0 512 512;" version="1.1" viewBox="0 0 512 512" xml:space="preserve" xmlns="http://www.w3.org/2000/svg" xmlns:xlink="http://www.w3.org/1999/xlink"><style type="text/css">
	.st0{fill:#3B4652;}
	.st1{fill:#2B79C2;}
</style><g><path class="st1" d="M144.5,212.4l7.1-3.1l0-0.1l-8.8-20.3l-10.3,7.1c-4,3.5-4.7,9.5-1.5,13.8C134.1,214,140,215.1,144.5,212.4z"/><path class="st1" d="M204.4,179.9c1.6,1.4,3.2,2.8,4.9,4.1l35.4-15.5l11.3-5l46.7,20.5c1.7-1.3,3.3-2.6,4.8-4.1   c6.5-5.9,11.9-12.8,16-20.6l0.8-1.4l-60.2-41.6c-0.4-0.3-0.7-0.6-1.1-0.8V98c17.9-3.3,31.6-19.1,31.6-37.9   c0-21.3-17.3-38.6-38.6-38.6c-21.3,0-38.6,17.3-38.6,38.6c0,3.9,3.1,7,7,7s7-3.1,7-7c0-13.6,11-24.6,24.6-24.6   c13.6,0,24.6,11,24.6,24.6s-11,24.6-24.6,24.6c-3.9,0-7,3.1-7,7v23.8c-0.4,0.3-0.7,0.5-1.1,0.8l-31.2,21.5l-29,20.1l0.8,1.4   C192.6,167.1,198,174,204.4,179.9z"/><path class="st1" d="M381,209.8c3.2-4.3,2.5-10.3-1.5-13.8l-10.3-7.1l-7.9,18.1l-1,2.3l7.1,3.1C372,215.1,377.8,214,381,209.8z"/><path class="st0" d="M347.5,203.6L347.5,203.6l9.9-22.8l0,0l-21.6-14.9c-4.9,9.2-11.3,17.4-18.9,24.3c-16.1,14.7-37.5,23.7-61,23.7   c-23.5,0-44.9-9-61-23.7c-7.6-6.9-14-15.2-18.9-24.3l-21.6,14.9l0,0l9.9,22.8l34.1,78.6c0,0-67.3,111.9-69.5,208.3h254   c-2.2-96.4-69.5-208.3-69.5-208.3L347.5,203.6z"/></g></svg>