<?xml version="1.0" ?><svg id="Layer_1" style="enable-background:new 0 0 512 512;" version="1.1" viewBox="0 0 512 512" xml:space="preserve" xmlns="http://www.w3.org/2000/svg" xmlns:xlink="http://www.w3.org/1999/xlink"><style type="text/css">
	.st0{fill:#3B4652;}
	.st1{fill:#2B79C2;}
</style><g><path class="st0" d="M479.2,242.5l-28.1-22.9l-24.9,2.6c6.2-12.2,3.3-27.4-7.7-36.4c-11.4-9.3-28.1-8.7-38.8,1.2   c-1.7,1.6-2.5,3.9-2.2,6h-63.7c-12.5,0-22.7,10.2-22.7,22.7v74.1H143.4v-74.1c0-12.5-10.2-22.7-22.7-22.7H52.3   c-12.5,0-22.7,10.2-22.7,22.7v146.8c0,17.9,14.5,32.5,32.5,32.5h310.3c17.9,0,32.5-14.5,32.5-32.5V238c4.8-0.8,9.5-2.9,13.4-6   l2.6,24.9l28.1,22.9c3.7,3,9.2,2.5,12.2-1.3l19.3-23.7C483.5,251,482.9,245.5,479.2,242.5z M411.9,218.6c-1.9,2.4-4.4,4-7.1,4.9   v-7.8c0-9-5.3-16.8-12.9-20.5c5.5-3.2,12.6-2.8,17.7,1.4C416.3,202.1,417.3,212,411.9,218.6z"/><path class="st1" d="M157.4,215.7v60.1h119.7v-60.1c0-20.2,16.5-36.7,36.7-36.7H356v-71.5c0-19.1-15.5-34.5-34.5-34.5H113   c-19.1,0-34.5,15.5-34.5,34.5V179h42.2C140.9,179,157.4,195.5,157.4,215.7z"/><polygon class="st1" points="78.4,439 109,439 132.4,409 78.4,409  "/><polygon class="st1" points="325.4,439 356,439 356,409 302,409  "/></g></svg>