<?xml version="1.0" ?><svg id="Layer_1" style="enable-background:new 0 0 512 512;" version="1.1" viewBox="0 0 512 512" xml:space="preserve" xmlns="http://www.w3.org/2000/svg" xmlns:xlink="http://www.w3.org/1999/xlink"><style type="text/css">
	.st0{fill:#3B4652;}
	.st1{fill:#2B79C2;}
</style><g><path class="st1" d="M360.7,168.9v206.4c0,0.5,0,0.9,0,1.4c0.6,33.3,22.3,62.3,54.1,72.2l15.2,4.7c26.2-15.6,44-44,44.6-76.6   c0-0.6,0-1.1,0-1.7V168.9H360.7z"/><path class="st1" d="M184.1,145.3V136c0-9.5-7.7-17.2-17.2-17.2s-17.2,7.7-17.2,17.2v9.3c0,9.5,7.7,17.2,17.2,17.2   S184.1,154.8,184.1,145.3z M163.8,145.3V136c0-1.7,1.4-3.2,3.2-3.2s3.2,1.4,3.2,3.2v9.3c0,1.7-1.4,3.2-3.2,3.2   S163.8,147,163.8,145.3z"/><path class="st1" d="M219.2,125c-3.3-2.1-7.6-1.1-9.7,2.1l-46.9,73.4c-2.1,3.3-1.1,7.6,2.1,9.7c1.2,0.7,2.5,1.1,3.8,1.1   c2.3,0,4.6-1.1,5.9-3.2l46.9-73.4C223.5,131.4,222.5,127.1,219.2,125z"/><path class="st1" d="M217.1,172.8c-9.5,0-17.2,7.7-17.2,17.2v9.3c0,9.5,7.7,17.2,17.2,17.2s17.2-7.7,17.2-17.2v-9.3   C234.2,180.5,226.5,172.8,217.1,172.8z M220.2,199.2c0,1.7-1.4,3.2-3.2,3.2s-3.2-1.4-3.2-3.2v-9.3c0-1.7,1.4-3.2,3.2-3.2   s3.2,1.4,3.2,3.2V199.2z"/><path class="st0" d="M346.7,377c0-0.6,0-1.1,0-1.7V45.7H37.4v329.6c0,50.3,40.8,91,91,91h255.1c9.4,0,18.5-1.4,27.1-4.1   C374.1,450.9,347.4,417.1,346.7,377z M81.7,98.4h220.7v138.3H81.7V98.4z M302.4,391.9H124c-3.9,0-7-3.1-7-7s3.1-7,7-7h178.4   c3.9,0,7,3.1,7,7S306.3,391.9,302.4,391.9z M302.4,342.5H124c-3.9,0-7-3.1-7-7s3.1-7,7-7h178.4c3.9,0,7,3.1,7,7   S306.3,342.5,302.4,342.5z M302.4,293.2H81.7c-3.9,0-7-3.1-7-7s3.1-7,7-7h220.7c3.9,0,7,3.1,7,7S306.3,293.2,302.4,293.2z"/></g></svg>