<?xml version="1.0" ?><svg id="Layer_1" style="enable-background:new 0 0 512 512;" version="1.1" viewBox="0 0 512 512" xml:space="preserve" xmlns="http://www.w3.org/2000/svg" xmlns:xlink="http://www.w3.org/1999/xlink"><style type="text/css">
	.st0{fill:#3B4652;}
	.st1{fill:#2B79C2;}
</style><g><rect class="st1" height="63.8" width="414.6" x="48.7" y="62.5"/><path class="st0" d="M63.6,140.3L53,432.9c-0.3,9.1,6.9,16.6,16,16.6h134.5c7.2,0,13.6-4.8,15.5-11.8l36.3-133.8l36.3,133.8   c1.9,7,8.2,11.8,15.4,11.8h134.5c9.1,0,16.3-7.5,16-16.6l-10.6-292.6H63.6z M216,171.5c13.1-11.5,24.8-13,24.8-13l11.5,36.7   c-14.1,6.9-22.2,19.4-26.8,30.3H216V171.5z M136.7,160.4H202v65.2h-65.4V160.4z M97.9,158.5c0,0,11.7,1.5,24.8,13v54.1h-9.5   c-4.6-10.9-12.8-23.5-26.8-30.3L97.9,158.5z M225.7,321.2l-26.9,99.2c-0.8,3.1-3.7,5.2-6.8,5.2c-0.6,0-1.2-0.1-1.8-0.3   c-3.7-1-5.9-4.9-4.9-8.6l26.9-99.2c1-3.7,4.8-5.9,8.6-4.9C224.5,313.6,226.7,317.4,225.7,321.2z M247.9,253.6H101.8   c-3.9,0-7-3.1-7-7c0-3.9,3.1-7,7-7h146.1c3.9,0,7,3.1,7,7C254.9,250.5,251.8,253.6,247.9,253.6z M409.3,331.5l-44.9,23.7   l-44.9-23.7v-84.9h89.8V331.5z"/></g></svg>