<?xml version="1.0" ?><svg id="Layer_1" style="enable-background:new 0 0 512 512;" version="1.1" viewBox="0 0 512 512" xml:space="preserve" xmlns="http://www.w3.org/2000/svg" xmlns:xlink="http://www.w3.org/1999/xlink"><style type="text/css">
	.st0{fill:#3B4652;}
	.st1{fill:#2B79C2;}
</style><g><circle class="st1" cx="426" cy="148.1" r="30.1"/><circle class="st1" cx="86" cy="148.1" r="30.1"/><path class="st0" d="M233.7,118.9c3.9,0,7-3.1,7-7c0-8.4,6.8-15.3,15.3-15.3s15.3,6.8,15.3,15.3c0,8.4-6.8,15.3-15.3,15.3   c-3.9,0-7,3.1-7,7v16.2h-6V168h26v-17.6h-6v-10.1c12.8-3.1,22.3-14.7,22.3-28.4c0-16.1-13.1-29.3-29.3-29.3s-29.3,13.1-29.3,29.3   C226.7,115.8,229.9,118.9,233.7,118.9z"/><polygon class="st0" points="143.3,238.6 215.5,252.6 225.5,241.4 159.4,212 116.9,193.1 65.5,199.6 13.2,284.7 22.9,296.9    76.2,237.4 65.3,429.3 78.3,429.3 120.1,312.7 171,429.3 186.1,424.1 145.4,247.5  "/><polygon class="st0" points="498.8,284.7 446.5,199.6 395.1,193.1 352.6,212 286.5,241.4 296.5,252.6 368.7,238.6 366.6,247.5    325.9,424.1 341,429.3 391.9,312.7 433.7,429.3 446.7,429.3 435.8,237.4 489.1,296.9  "/><polygon class="st1" points="171.6,274.3 185.2,261 161.8,256.5 164.1,266.7  "/><polygon class="st1" points="350.2,256.5 326.8,261 340.4,274.3 347.9,266.7  "/><path class="st1" d="M263.4,236.4l80.8-36L320.7,168h-36.3c0,15.7-12.7,28.3-28.3,28.3s-28.3-12.7-28.3-28.3h-36.3l-23.5,32.4   l80.8,36l-27.9,31.5l-24.1-4.7v82h118.7v-82l-24.1,4.7L263.4,236.4z M232.9,282.6c-0.3-0.4-0.5-0.8-0.6-1.2   c-0.2-0.4-0.3-0.9-0.4-1.3c-0.1-0.5-0.1-0.9-0.1-1.4c0-1.8,0.8-3.6,2.1-4.9c0.3-0.3,0.7-0.6,1.1-0.9c0.4-0.3,0.8-0.5,1.2-0.6   c0.4-0.2,0.9-0.3,1.3-0.4c0.9-0.2,1.8-0.2,2.7,0c0.4,0.1,0.9,0.2,1.3,0.4c0.4,0.2,0.8,0.4,1.2,0.6c0.4,0.3,0.7,0.5,1.1,0.9   c1.3,1.3,2.1,3.1,2.1,4.9c0,0.5-0.1,0.9-0.1,1.4c-0.1,0.4-0.2,0.9-0.4,1.3c-0.2,0.4-0.4,0.8-0.6,1.2c-0.3,0.4-0.6,0.8-0.9,1.1   s-0.7,0.6-1.1,0.9c-0.4,0.3-0.8,0.5-1.2,0.6c-0.4,0.2-0.9,0.3-1.3,0.4c-0.5,0.1-0.9,0.1-1.4,0.1s-0.9,0-1.4-0.1   c-0.4-0.1-0.9-0.2-1.3-0.4c-0.4-0.2-0.8-0.4-1.2-0.6c-0.4-0.3-0.7-0.6-1.1-0.9S233.2,282.9,232.9,282.6z M241,325.3   c-1.3,0-2.6-0.4-3.8-1.1c-3.3-2.1-4.2-6.4-2.1-9.7l30.1-47.1c2.1-3.3,6.4-4.2,9.7-2.1c3.3,2.1,4.2,6.4,2.1,9.7l-30.1,47.1   C245.5,324.2,243.3,325.3,241,325.3z M280.1,312.2c-0.1,0.4-0.2,0.9-0.4,1.3c-0.2,0.4-0.4,0.8-0.6,1.2c-0.3,0.4-0.6,0.7-0.9,1.1   c-0.3,0.3-0.7,0.6-1.1,0.9c-0.4,0.3-0.8,0.5-1.2,0.6c-0.4,0.2-0.9,0.3-1.3,0.4c-0.5,0.1-0.9,0.1-1.4,0.1s-0.9,0-1.4-0.1   c-0.4-0.1-0.9-0.2-1.3-0.4c-0.4-0.2-0.8-0.4-1.2-0.6c-0.4-0.3-0.7-0.5-1.1-0.9c-0.3-0.3-0.6-0.7-0.9-1.1s-0.5-0.8-0.6-1.2   c-0.2-0.4-0.3-0.9-0.4-1.3c-0.1-0.4-0.1-0.9-0.1-1.4c0-0.5,0.1-0.9,0.1-1.4c0.1-0.4,0.2-0.9,0.4-1.3c0.2-0.4,0.4-0.8,0.6-1.2   s0.6-0.7,0.9-1.1c1.3-1.3,3.1-2,4.9-2s3.6,0.8,4.9,2c0.3,0.3,0.6,0.7,0.9,1.1c0.3,0.4,0.5,0.8,0.6,1.2c0.2,0.4,0.3,0.9,0.4,1.3   c0.1,0.4,0.1,0.9,0.1,1.4C280.3,311.3,280.2,311.8,280.1,312.2z"/></g></svg>