<?xml version="1.0" ?><svg id="Layer_1" style="enable-background:new 0 0 512 512;" version="1.1" viewBox="0 0 512 512" xml:space="preserve" xmlns="http://www.w3.org/2000/svg" xmlns:xlink="http://www.w3.org/1999/xlink"><style type="text/css">
	.st0{fill:#3B4652;}
	.st1{fill:#2B79C2;}
</style><g><path class="st0" d="M392.4,383.1l-26.5-212.2c-1.6-12.8-12.4-22.3-25.3-22.3h-14.2V66.7c0-13.4-10.9-24.2-24.2-24.2h-92.4   c-13.4,0-24.2,10.9-24.2,24.2v81.9h-14.2c-12.9,0-23.7,9.6-25.3,22.3l-26.5,212.2c-2.1,17,11.1,31.9,28.2,31.9h29.5v-80.7   c0-8.2,4.3-15.8,11.3-20l55.3-33.3c3.6-2.2,7.8-3.3,12-3.3s8.4,1.2,12,3.3l55.3,33.3c7,4.2,11.3,11.9,11.3,20V415h29.5   C381.3,415,394.5,400.1,392.4,383.1z M199.6,66.7c0-5.6,4.6-10.2,10.2-10.2h92.4c5.6,0,10.2,4.6,10.2,10.2v81.9H199.6V66.7z    M295.5,234.5h-79c-11.7,0-21.3-9.5-21.3-21.3c0-5.9,2.4-11.2,6.2-15c3.9-3.8,9.2-6.2,15-6.2h79c11.7,0,21.3,9.5,21.3,21.3   C316.8,225,307.2,234.5,295.5,234.5z"/><path class="st1" d="M316.1,326.3l-55.3-33.3c-3-1.8-6.7-1.8-9.7,0l-55.3,33.3c-2.8,1.7-4.5,4.7-4.5,8v118.1   c0,9.4,7.7,17.1,17.1,17.1h95.1c9.4,0,17.1-7.7,17.1-17.1V334.4C320.7,331.1,318.9,328,316.1,326.3z M256,327.5   c7.4,0,13.4,6,13.4,13.4c0,7.4-6,13.4-13.4,13.4s-13.4-6-13.4-13.4C242.6,333.5,248.6,327.5,256,327.5z M253.2,403h5.5   c9.9,0,18,8.1,18,18c0,8.4-5.9,15.5-13.7,17.5v3.4c0,3.9-3.1,7-7,7s-7-3.1-7-7v-2.9h-6.7c-3.9,0-7-3.1-7-7s3.1-7,7-7h16.5   c2.2,0,4-1.8,4-4s-1.8-4-4-4h-5.5c-9.9,0-18-8.1-18-18c0-8.4,5.9-15.5,13.7-17.5v-3.4c0-3.9,3.1-7,7-7s7,3.1,7,7v2.9h6.7   c3.9,0,7,3.1,7,7s-3.1,7-7,7h-16.5c-2.2,0-4,1.8-4,4S251.1,403,253.2,403z"/></g></svg>