<?xml version="1.0" ?><svg id="Layer_1" style="enable-background:new 0 0 512 512;" version="1.1" viewBox="0 0 512 512" xml:space="preserve" xmlns="http://www.w3.org/2000/svg" xmlns:xlink="http://www.w3.org/1999/xlink"><style type="text/css">
	.st0{fill:#3B4652;}
	.st1{fill:#2B79C2;}
</style><g><path class="st0" d="M186.9,351.8c-13.6,0-24.7,11-24.7,24.7c0,13.6,11.1,24.7,24.7,24.7s24.7-11,24.7-24.7   C211.6,362.8,200.5,351.8,186.9,351.8z"/><polygon class="st0" points="221.4,217.3 152.4,217.3 141.1,240.8 232.7,240.8  "/><path class="st1" d="M311.9,254.8h-250c-12.3,0-22.3,10-22.3,22.3v167.3c0,12.3,10,22.3,22.3,22.3h250c12.3,0,22.3-10,22.3-22.3   V277.1C334.2,264.8,324.2,254.8,311.9,254.8z M117.2,315H70.9v-26.2h46.3V315z M186.9,431.1c-30.2,0-54.7-24.5-54.7-54.7   s24.5-54.7,54.7-54.7s54.7,24.5,54.7,54.7S217.1,431.1,186.9,431.1z"/><path class="st0" d="M377.2,242v-13.4c0-4.2-3.4-7.7-7.7-7.7s-7.7,3.4-7.7,7.7V242c0,4.2,3.4,7.7,7.7,7.7S377.2,246.2,377.2,242z"/><path class="st0" d="M464.8,152.1l-43-25.9l-12-7.2c0.1-0.2,0.3-0.4,0.4-0.7c3.1-6.8,4.7-14.1,4.7-21.6c0-28.4-23.1-51.5-51.5-51.5   c-28.4,0-51.5,23.1-51.5,51.5c0,7.5,1.6,14.8,4.8,21.6c0.1,0.2,0.2,0.5,0.3,0.7c4.5,9.4,12,17.5,21.2,22.6c0.9,0.5,1.8,1,2.8,1.5   c2.6,1.3,5.4,2.3,8.2,3.1c4.6,1.3,9.4,2,14.2,2c4.4,0,8.7-0.6,12.9-1.6c3.3-0.8,6.5-2,9.5-3.5c-0.6,6.8-4.2,12.8-9.5,16.6   c-1,0.7-2,1.3-3.1,1.8c-3.2,0.5-6.5,0.7-9.8,0.7c-3.3,0-6.5-0.3-9.8-0.8c-1.5-0.2-3-0.5-4.4-0.8c-4.9-1.1-9.7-2.8-14.3-4.9   c-1.1-0.5-2.2-1.1-3.5-1.8c-11.3-6.4-20.6-16.2-26.4-27.6l-43,25.9c-4.8,2.9-7.6,8-7.6,13.5v75.2h57.6c20,0,36.3,16.3,36.3,36.3   v116.5h95.4c15.9,0,28.8-12.9,28.8-28.9V165.6C472.4,160.1,469.5,154.9,464.8,152.1z M385.5,104.4l-14-8.4c-5-3-11.3-3-16.3,0   l-14,8.4c0.2,0.6,0.4,1.1,0.7,1.7l0.2,0.5c1.6,3.4,4.1,6.5,7.1,8.8c0.8,0.6,1.5,1.1,2.4,1.6l0.3,0.2l0.2,0.1c1.8,1,3.6,1.7,5.6,2.2   c1.9,0.5,3.9,0.7,5.8,0.7c2,0,3.9-0.3,5.8-0.7c2.6,0.7,5,1.8,7.1,3.3c2.4,1.7,4.5,3.8,6,6.3c-0.2,0.1-0.4,0.2-0.6,0.3   c-1.7,1-3.5,1.8-5.4,2.5c-4.1,1.5-8.5,2.3-12.9,2.3c-4.9,0-9.7-1-14.2-2.8c-1.4-0.6-2.8-1.2-4.1-2c-0.2-0.1-0.4-0.2-0.6-0.4   c-6.6-3.9-11.9-9.7-15.1-16.6c-0.1-0.2-0.2-0.5-0.3-0.7c-2.1-4.7-3.2-9.8-3.2-15c0-20.7,16.8-37.5,37.5-37.5   c20.7,0,37.5,16.8,37.5,37.5c0,5.2-1,10.3-3.1,15L385.5,104.4z M347.9,242v-13.4c0-11.9,9.7-21.7,21.7-21.7   c12,0,21.7,9.7,21.7,21.7V242c0,11.9-9.7,21.7-21.7,21.7C357.6,263.7,347.9,254,347.9,242z M364.9,326.9c-1.3,0-2.6-0.3-3.8-1.1   c-3.3-2.1-4.2-6.4-2.1-9.7l63-98.7c2.1-3.3,6.4-4.2,9.7-2.1c3.3,2.1,4.2,6.4,2.1,9.7l-63,98.7C369.4,325.7,367.2,326.9,364.9,326.9   z M440.1,319.9c0,12-9.7,21.7-21.7,21.7c-11.9,0-21.7-9.7-21.7-21.7v-13.4c0-11.9,9.7-21.7,21.7-21.7c12,0,21.7,9.7,21.7,21.7   V319.9z"/><path class="st0" d="M418.4,298.8c-4.2,0-7.7,3.4-7.7,7.7v13.4c0,4.2,3.4,7.7,7.7,7.7s7.7-3.4,7.7-7.7v-13.4   C426.1,302.2,422.7,298.8,418.4,298.8z"/></g></svg>