<?xml version="1.0" ?><svg id="Layer_1" style="enable-background:new 0 0 512 512;" version="1.1" viewBox="0 0 512 512" xml:space="preserve" xmlns="http://www.w3.org/2000/svg" xmlns:xlink="http://www.w3.org/1999/xlink"><style type="text/css">
	.st0{fill:#3B4652;}
	.st1{fill:#2B79C2;}
</style><g><path class="st0" d="M454.7,61.9c0,0-26.6,3.5-52.8,32.3v105.3h15.3c1.3,0,2.5,0.1,3.7,0.2c5-20.3,18.7-57.5,53.6-74.5L454.7,61.9z   "/><path class="st0" d="M438.2,264c5.4-5.3,8.7-12.8,8.7-20.9c0-13.5-9.1-24.9-21.5-28.4c-2.6-0.7-5.3-1.1-8.1-1.1H242.5L224,238.6   c-3.6,4.9-8.1,8.8-13.3,11.5c-5.7,3-12,4.6-18.6,4.6h-46.6v154.1h40.1c14.5,0,27.8,7.9,34.8,20.6c3.4,6.4,8.5,11.5,14.5,15.1   c6,3.6,13,5.5,20.2,5.5h162.1c1.8,0,3.5-0.2,5.2-0.5c-1.7,0.3-3.4,0.5-5.2,0.5h8.1V449c-0.4,0.1-0.8,0.2-1.2,0.3   c0.4-0.1,0.8-0.2,1.2-0.3c4.9-1.4,9.3-4,12.8-7.5c5.4-5.4,8.7-12.8,8.7-20.9c0-13.5-9.1-25-21.5-28.5c-2.6-0.7-5.3-1.1-8.1-1.1   c2.8,0,5.5-0.4,8.1-1.1c4.9-1.4,9.3-4,12.8-7.5c5.4-5.4,8.7-12.8,8.7-20.9c0-13.6-9.1-25-21.5-28.5c-2.6-0.7-5.3-1.1-8.1-1.1   c2.8,0,5.5-0.4,8.1-1.1c4.9-1.4,9.3-4,12.8-7.5c5.4-5.4,8.7-12.8,8.7-20.9c0-13.5-9.1-24.9-21.5-28.4c-2.6-0.7-5.3-1.1-8.1-1.1   c2.8,0,5.5-0.4,8.1-1.1C430.2,270.1,434.6,267.5,438.2,264z"/><path class="st0" d="M232.1,171c5.1,10.6,8.3,20.7,10.2,28.5h19.1V94.1c-26.2-28.8-52.8-32.2-52.8-32.2l-19.8,63.2   C210.4,135.7,223.8,153.9,232.1,171z"/><path class="st0" d="M207.9,235.3c1.8-1.4,3.4-3.1,4.8-5l17.1-23.2l-1.1-4.2c-1.4-5.7-3.9-14-7.9-23   C212.8,188.8,204.1,205.7,207.9,235.3z"/><path class="st1" d="M307.4,132.2c9.2,0,16.7-7.5,16.7-16.7h15.1c0,9.2,7.5,16.7,16.7,16.7v67.3h32V65.1H275.4v134.4h32V132.2z"/><path class="st1" d="M37.4,448.3h94.1v-233H37.4V448.3z M84.5,250.1c8.2,0,14.8,6.6,14.8,14.8c0,8.2-6.6,14.8-14.8,14.8   c-8.2,0-14.8-6.6-14.8-14.8C69.7,256.7,76.3,250.1,84.5,250.1z"/></g></svg>