<?xml version="1.0" ?><svg id="Layer_1" style="enable-background:new 0 0 512 512;" version="1.1" viewBox="0 0 512 512" xml:space="preserve" xmlns="http://www.w3.org/2000/svg" xmlns:xlink="http://www.w3.org/1999/xlink"><style type="text/css">
	.st0{fill:#3B4652;}
	.st1{fill:#2B79C2;}
</style><g><path class="st0" d="M94,325.6l-65.5,65.5l91.5,91.5l65.5-65.5L94,325.6z M118.1,442c-1.4,1.4-3.2,2-4.9,2c-1.8,0-3.6-0.7-5-2.1   l-39.1-39.1c-2.7-2.7-2.7-7.2,0-9.9c2.7-2.7,7.2-2.7,9.9,0l39.1,39.1C120.8,434.9,120.8,439.3,118.1,442z"/><polygon class="st0" points="121.3,333.1 178,389.8 303.3,356.2 154.9,207.8  "/><polygon class="st0" points="31.9,446.1 65,479.2 84.9,467.3 43.8,426.2  "/><polygon class="st0" points="151.9,470.4 204.8,493.5 233.9,464.3 181.1,441.2  "/><path class="st0" d="M173.6,190c0.6,3.4,3.5,5.9,6.9,5.9c0.4,0,0.8,0,1.1-0.1c3.8-0.6,6.4-4.2,5.8-8l-7.5-46   c-0.6-3.8-4.2-6.4-8-5.8c-3.8,0.6-6.4,4.2-5.8,8L173.6,190z"/><path class="st0" d="M359.8,313.4l-49,1c-3.9,0.1-6.9,3.3-6.9,7.1c0.1,3.8,3.2,6.9,7,6.9c0,0,0.1,0,0.1,0l49-1   c3.9-0.1,6.9-3.3,6.9-7.1C366.9,316.4,363.7,313.3,359.8,313.4z"/><path class="st0" d="M386.9,174.4c-6.2,0-11.3,5.1-11.3,11.3v16.7c0,6.2,5.1,11.3,11.3,11.3s11.3-5.1,11.3-11.3v-16.7   C398.2,179.4,393.1,174.4,386.9,174.4z"/><path class="st0" d="M326,116.7c6.2,0,11.3-5.1,11.3-11.3V88.7c0-6.2-5.1-11.3-11.3-11.3c-6.2,0-11.3,5.1-11.3,11.3v16.7   C314.8,111.6,319.8,116.7,326,116.7z"/><path class="st1" d="M356.5,18.5c-70.1,0-127,56.9-127,127c0,26.5,8.1,51.1,22,71.4l-15.2,37l39.5-10.4c21.9,18.1,50.1,29,80.7,29   c70.1,0,127-56.9,127-127C483.5,75.4,426.6,18.5,356.5,18.5z M300.8,88.7c0-13.9,11.3-25.3,25.3-25.3c13.9,0,25.3,11.3,25.3,25.3   v16.7c0,13.9-11.3,25.3-25.3,25.3c-13.9,0-25.3-11.3-25.3-25.3V88.7z M320.2,215.3c-1.3,2.1-3.6,3.2-5.9,3.2   c-1.3,0-2.6-0.4-3.8-1.1c-3.3-2.1-4.2-6.4-2.1-9.7l84.3-132.1c2.1-3.3,6.4-4.2,9.7-2.1c3.3,2.1,4.2,6.4,2.1,9.7L320.2,215.3z    M412.2,202.3c0,13.9-11.3,25.3-25.3,25.3s-25.3-11.3-25.3-25.3v-16.7c0-13.9,11.3-25.3,25.3-25.3s25.3,11.3,25.3,25.3V202.3z"/></g></svg>