<?xml version="1.0" ?><svg id="Layer_1" style="enable-background:new 0 0 512 512;" version="1.1" viewBox="0 0 512 512" xml:space="preserve" xmlns="http://www.w3.org/2000/svg" xmlns:xlink="http://www.w3.org/1999/xlink"><style type="text/css">
	.st0{fill:#3B4652;}
	.st1{fill:#2B79C2;}
</style><g><path class="st0" d="M413.5,288.6c-8.7,0.8-18.1,1.5-27.9,2.1c-2.9,9-7.9,17.3-14.7,24.1l-74.3,74.3l-74.3-74.3   c-6.8-6.8-11.8-15.1-14.7-24.1c-9.8-0.6-19.2-1.3-27.9-2.1c-21.4-2-40.3-12.4-53.4-27.9l0.5,5.6l8.4,90.4l2.7,28.4   c1.2,12.5,11.7,22.1,24.3,22.1h268.5c12.6,0,23.2-9.6,24.3-22.1l11.1-118.8l0.5-5.6C453.8,276.2,434.9,286.6,413.5,288.6z"/><path class="st0" d="M439.5,157.1c6.2-3.8,12.5-7.8,18.1-12.9c14.4-13.2,24-28.4,27.5-44c3.7-16.3,1-34-7.4-48.5   c-8.4-14.5-22.4-25.6-38.5-30.4c-16-4.8-34.1-4.1-56.9,2.4c-6.7,1.9-13.3,4.1-19.7,6.2c-10.7,3.6-20.7,6.9-31.2,9   c-16.6,3.3-33.4,3.3-51.1,3.2c-10,0-20.4,0-30.6,0.6c-36,2.3-63.3,14.1-79,34.3c-11.4,14.7-17.3,35.1-16.6,57.6   c0.5,16.4,4.2,32,7.7,45.1c0.2,0.9,0.5,2.5,0.7,4.1c0.2,1.7,0.5,3.5,0.9,5.3c-10.6,0-16.9,0-16.9,0c-13.6,0-24.4,11.1-24.4,24.4   c0,0.8,0,1.5,0.1,2.3c2.9,31.2,27.6,55.9,58.8,58.7c7.6,0.7,15.6,1.3,23.9,1.8c-1.1-17.1,5.1-33.7,17.3-45.9   c11.3-11.2,26.2-17.4,42.1-17.4c11.6,0,22.7,3.3,32.2,9.4c9.5-6.1,20.6-9.4,32.2-9.4c15.9,0,30.8,6.2,42.1,17.4   c12.2,12.2,18.4,28.8,17.3,45.9c8.4-0.5,16.4-1.1,23.9-1.8c31.2-2.8,55.9-27.5,58.8-58.7c1.3-14.3-9.9-26.7-24.3-26.7h-29.5   c0-0.2,0-0.4,0-0.6c-0.6-7.8,1.1-14.8,4.4-18.3C426.4,165.3,432.8,161.3,439.5,157.1z M411.5,160.7c-8.5,9-8.7,22.5-8.3,28.5H177.6   c0-0.6-0.1-1.1-0.2-1.7c-0.4-1.6-0.7-3.6-1-5.5c-0.3-2.1-0.6-4.1-1.1-5.8c-3.3-12.3-6.8-26.9-7.2-41.9   c-0.6-19.2,4.3-36.5,13.7-48.6c16.6-21.3,46.6-27.5,68.8-28.9c9.8-0.6,19.9-0.6,29.7-0.6c17.7,0,36,0.1,53.9-3.5   c11.3-2.3,22.3-5.9,32.9-9.5c6.2-2.1,12.7-4.2,19.1-6.1c20.1-5.7,35.7-6.5,49-2.5c12.7,3.8,23.8,12.6,30.4,24.1   c6.7,11.5,8.8,25.4,5.8,38.4c-3.7,16.2-14.7,29-23.3,36.8c-4.6,4.2-10.1,7.7-16,11.3C424.9,149.7,417.5,154.4,411.5,160.7z"/><path class="st1" d="M296.6,369.3l64.4-64.4c7.7-7.7,12.1-17.5,13.1-27.6c1.3-13.1-3-26.7-13.1-36.8c-17.8-17.8-46.6-17.8-64.4,0   c-17.8-17.8-46.6-17.8-64.4,0c-10.1,10.1-14.4,23.7-13.1,36.8c1,10.1,5.4,19.9,13.1,27.6L296.6,369.3z"/><path class="st1" d="M124.1,386.3l-2.7-28.4l-0.7-7.7c-6.9-2.2-14.3-3.4-22-3.4c-40.6,0-73.5,32.9-73.5,73.5   c0,40.6,32.9,73.5,73.5,73.5c40.3,0,73-32.5,73.5-72.7h-9.8C142.4,421.2,126,406.2,124.1,386.3z M95.4,413.3h6.7   c11.1,0,20.2,9.1,20.2,20.2c0,9.9-7.1,18.1-16.5,19.9v5.2c0,3.9-3.1,7-7,7s-7-3.1-7-7v-4.9h-9.5c-3.9,0-7-3.1-7-7c0-3.9,3.1-7,7-7   h19.9c3.4,0,6.2-2.8,6.2-6.2c0-3.4-2.8-6.2-6.2-6.2h-6.7c-11.2,0-20.2-9.1-20.2-20.2c0-9.9,7.1-18.1,16.5-19.9V382c0-3.9,3.1-7,7-7   s7,3.1,7,7v4.9h9.5c3.9,0,7,3.1,7,7c0,3.9-3.1,7-7,7H95.4c-3.4,0-6.2,2.8-6.2,6.2C89.2,410.6,92,413.3,95.4,413.3z"/></g></svg>