<?xml version="1.0" ?><!DOCTYPE svg  PUBLIC '-//W3C//DTD SVG 1.1//EN'  'http://www.w3.org/Graphics/SVG/1.1/DTD/svg11.dtd'><svg enable-background="new 0 0 32 32" version="1.1" viewBox="0 0 32 32" xml:space="preserve" xmlns="http://www.w3.org/2000/svg" xmlns:xlink="http://www.w3.org/1999/xlink"><g id="Layer_2"/><g id="Layer_3"/><g id="Layer_4"/><g id="Layer_5"/><g id="Layer_6"/><g id="Layer_7"/><g id="Layer_8"/><g id="Layer_9"/><g id="Layer_10"/><g id="Layer_11"/><g id="Layer_12"/><g id="Layer_13"/><g id="Layer_14"/><g id="Layer_15"/><g id="Layer_16"/><g id="Layer_17"/><g id="Layer_18"/><g id="Layer_19"/><g id="Layer_20"/><g id="Layer_21"/><g id="Layer_22"/><g id="Layer_23"/><g id="Layer_24"/><g id="Layer_25"/><g id="Layer_26"/><g id="Layer_27"/><g id="Layer_28"/><g id="Layer_29"/><g id="Layer_30"/><g id="Layer_31"><path d="M24,28c0,0.55-0.45,1-1,1h-0.98c-0.01,0-0.01,0-0.02,0H9c-0.55,0-1-0.45-1-1s0.45-1,1-1h0.7   c1.32-0.84,2.3-2.93,2.3-5c0-0.55,0.45-1,1-1h6c0.55,0,1,0.45,1,1c0,2.07,0.97,4.16,2.29,5H23C23.55,27,24,27.45,24,28z" fill="#96CEE5"/><g><path d="M31,6v10c0,0.55-0.45,1-1,1H2c-0.55,0-1-0.45-1-1V6c0-1.65,1.35-3,3-3h24C29.65,3,31,4.35,31,6z" fill="#96CEE5"/></g><g><path d="M31,15v5c0,1.65-1.35,3-3,3H4c-1.65,0-3-1.35-3-3v-5H31z" fill="#48B1DD"/></g><g><path d="M18,20h-4c-0.5522,0-1-0.4478-1-1s0.4478-1,1-1h4c0.5522,0,1,0.4478,1,1S18.5522,20,18,20z" fill="#4391B2"/></g></g></svg>