<?xml version="1.0" ?><!DOCTYPE svg  PUBLIC '-//W3C//DTD SVG 1.1//EN'  'http://www.w3.org/Graphics/SVG/1.1/DTD/svg11.dtd'><svg enable-background="new 0 0 32 32" version="1.1" viewBox="0 0 32 32" xml:space="preserve" xmlns="http://www.w3.org/2000/svg" xmlns:xlink="http://www.w3.org/1999/xlink"><g id="Layer_2"/><g id="Layer_3"/><g id="Layer_4"/><g id="Layer_5"/><g id="Layer_6"/><g id="Layer_7"/><g id="Layer_8"/><g id="Layer_9"/><g id="Layer_10"/><g id="Layer_11"/><g id="Layer_12"/><g id="Layer_13"/><g id="Layer_14"/><g id="Layer_15"><g><path d="M27,4v24c0,1.65-1.35,3-3,3H8c-1.65,0-3-1.35-3-3V4c0-1.65,1.35-3,3-3h16C25.65,1,27,2.35,27,4z" fill="#48B1DD"/></g><g><circle cx="9" cy="5" fill="#96CEE5" r="1"/></g><g><circle cx="23" cy="5" fill="#96CEE5" r="1"/></g><g><circle cx="9" cy="27" fill="#96CEE5" r="1"/></g><g><circle cx="23" cy="27" fill="#96CEE5" r="1"/></g><g><path d="M24,13c0,4.41-3.59,8-8,8c-0.62,0-1.23-0.07-1.8-0.21c-0.1-0.02-0.2-0.06-0.29-0.12l-3.78-2.31    c-0.09-0.05-0.17-0.12-0.24-0.2C8.65,16.69,8,14.91,8,13c0-4.41,3.59-8,8-8S24,8.59,24,13z" fill="#4391B2"/></g><g><path d="M16.9,15.05l-2.19,7.29C14.42,23.33,13.52,24,12.48,24c-0.42,0-0.83-0.12-1.2-0.33l-2.26-1.36    c-0.57-0.34-0.97-0.91-1.09-1.55c-0.13-0.65,0.02-1.32,0.42-1.85l4.45-5.93c0.65-0.87,1.93-1.18,2.91-0.69    C16.73,12.8,17.23,13.96,16.9,15.05z" fill="#96CEE5"/></g><g><path d="M19,27h-6c-0.5522,0-1-0.4473-1-1s0.4478-1,1-1h6c0.5522,0,1,0.4473,1,1S19.5522,27,19,27z" fill="#4391B2"/></g></g><g id="Layer_16"/><g id="Layer_17"/><g id="Layer_18"/><g id="Layer_19"/><g id="Layer_20"/><g id="Layer_21"/><g id="Layer_22"/><g id="Layer_23"/><g id="Layer_24"/><g id="Layer_25"/><g id="Layer_26"/><g id="Layer_27"/><g id="Layer_28"/><g id="Layer_29"/><g id="Layer_30"/><g id="Layer_31"/></svg>