<?xml version="1.0" ?><!DOCTYPE svg  PUBLIC '-//W3C//DTD SVG 1.1//EN'  'http://www.w3.org/Graphics/SVG/1.1/DTD/svg11.dtd'><svg enable-background="new 0 0 32 32" version="1.1" viewBox="0 0 32 32" xml:space="preserve" xmlns="http://www.w3.org/2000/svg" xmlns:xlink="http://www.w3.org/1999/xlink"><g id="Layer_2"/><g id="Layer_3"/><g id="Layer_4"/><g id="Layer_5"/><g id="Layer_6"/><g id="Layer_7"/><g id="Layer_8"/><g id="Layer_9"/><g id="Layer_10"/><g id="Layer_11"/><g id="Layer_12"/><g id="Layer_13"/><g id="Layer_14"/><g id="Layer_15"/><g id="Layer_16"/><g id="Layer_17"/><g id="Layer_18"/><g id="Layer_19"/><g id="Layer_20"><g><path d="M27,6v12c0,7.17-5.83,13-13,13h-2c-3.86,0-7-3.14-7-7V6c0-2.76,2.24-5,5-5h12C24.76,1,27,3.24,27,6z" fill="#48B1DD"/></g><g><path d="M17,1v8c0,0.55-0.45,1-1,1s-1-0.45-1-1V1H17z" fill="#4391B2"/></g><g><path d="M19,11v2c0,1.65-1.35,3-3,3s-3-1.35-3-3v-2c0-1.65,1.35-3,3-3S19,9.35,19,11z" fill="#96CEE5"/></g></g><g id="Layer_21"/><g id="Layer_22"/><g id="Layer_23"/><g id="Layer_24"/><g id="Layer_25"/><g id="Layer_26"/><g id="Layer_27"/><g id="Layer_28"/><g id="Layer_29"/><g id="Layer_30"/><g id="Layer_31"/></svg>