<?xml version="1.0" ?><!DOCTYPE svg  PUBLIC '-//W3C//DTD SVG 1.1//EN'  'http://www.w3.org/Graphics/SVG/1.1/DTD/svg11.dtd'><svg enable-background="new 0 0 32 32" version="1.1" viewBox="0 0 32 32" xml:space="preserve" xmlns="http://www.w3.org/2000/svg" xmlns:xlink="http://www.w3.org/1999/xlink"><g id="Layer_2"/><g id="Layer_3"/><g id="Layer_4"/><g id="Layer_5"/><g id="Layer_6"><g><path d="M27,6v14c0,0.55-0.45,1-1,1H6c-0.55,0-1-0.45-1-1V6c0-0.55,0.45-1,1-1h20C26.55,5,27,5.45,27,6z" fill="#96CEE5"/></g><g><path d="M30.88,26.47C30.71,26.8,30.37,27,30,27H2c-0.37,0-0.71-0.2-0.88-0.53c-0.18-0.32-0.16-0.72,0.05-1.02    L4.14,21L5,19.71L5.17,19.45C5.35,19.17,5.67,19,6,19h20c0.33,0,0.65,0.17,0.83,0.45L27,19.71L27.86,21l2.97,4.45    C31.04,25.75,31.06,26.15,30.88,26.47z" fill="#48B1DD"/></g><g><polygon fill="#4391B2" points="27.86,21 4.14,21 5,19.71 5,19 27,19 27,19.71   "/></g></g><g id="Layer_7"/><g id="Layer_8"/><g id="Layer_9"/><g id="Layer_10"/><g id="Layer_11"/><g id="Layer_12"/><g id="Layer_13"/><g id="Layer_14"/><g id="Layer_15"/><g id="Layer_16"/><g id="Layer_17"/><g id="Layer_18"/><g id="Layer_19"/><g id="Layer_20"/><g id="Layer_21"/><g id="Layer_22"/><g id="Layer_23"/><g id="Layer_24"/><g id="Layer_25"/><g id="Layer_26"/><g id="Layer_27"/><g id="Layer_28"/><g id="Layer_29"/><g id="Layer_30"/><g id="Layer_31"/></svg>