<?xml version="1.0" ?><!DOCTYPE svg  PUBLIC '-//W3C//DTD SVG 1.1//EN'  'http://www.w3.org/Graphics/SVG/1.1/DTD/svg11.dtd'><svg enable-background="new 0 0 32 32" version="1.1" viewBox="0 0 32 32" xml:space="preserve" xmlns="http://www.w3.org/2000/svg" xmlns:xlink="http://www.w3.org/1999/xlink"><g id="Layer_2"/><g id="Layer_3"/><g id="Layer_4"/><g id="Layer_5"/><g id="Layer_6"/><g id="Layer_7"/><g id="Layer_8"/><g id="Layer_9"/><g id="Layer_10"/><g id="Layer_11"/><g id="Layer_12"/><g id="Layer_13"/><g id="Layer_14"/><g id="Layer_15"/><g id="Layer_16"/><g id="Layer_17"/><g id="Layer_18"/><g id="Layer_19"/><g id="Layer_20"/><g id="Layer_21"/><g id="Layer_22"/><g id="Layer_23"/><g id="Layer_24"/><g id="Layer_25"/><g id="Layer_26"/><g id="Layer_27"><g><path d="M26,31c-0.5527,0-1-0.4478-1-1V10c0-1.6543-1.3457-3-3-3s-3,1.3457-3,3v16c0,2.7568-2.2432,5-5,5h-1    c-2.7568,0-5-2.2432-5-5v-6c0-0.5522,0.4473-1,1-1s1,0.4478,1,1v6c0,1.6543,1.3457,3,3,3h1c1.6543,0,3-1.3457,3-3V10    c0-2.7568,2.2432-5,5-5s5,2.2432,5,5v20C27,30.5522,26.5527,31,26,31z" fill="#4391B2"/></g><g><path d="M9,7C8.4473,7,8,6.5522,8,6V2c0-0.5522,0.4473-1,1-1s1,0.4478,1,1v4C10,6.5522,9.5527,7,9,7z" fill="#4391B2"/></g><g><path d="M13,6v11c0,2.21-1.79,4-4,4s-4-1.79-4-4V6c0-0.55,0.45-1,1-1h6C12.55,5,13,5.45,13,6z" fill="#48B1DD"/></g><g><path d="M9,10c0,0.55-0.45,1-1,1H5V9h3C8.55,9,9,9.45,9,10z" fill="#96CEE5"/></g><g><path d="M13,13v2h-3c-0.55,0-1-0.45-1-1s0.45-1,1-1H13z" fill="#96CEE5"/></g></g><g id="Layer_28"/><g id="Layer_29"/><g id="Layer_30"/><g id="Layer_31"/></svg>