<?xml version="1.0" ?><!DOCTYPE svg  PUBLIC '-//W3C//DTD SVG 1.1//EN'  'http://www.w3.org/Graphics/SVG/1.1/DTD/svg11.dtd'><svg enable-background="new 0 0 32 32" version="1.1" viewBox="0 0 32 32" xml:space="preserve" xmlns="http://www.w3.org/2000/svg" xmlns:xlink="http://www.w3.org/1999/xlink"><g id="Layer_2"/><g id="Layer_3"/><g id="Layer_4"/><g id="Layer_5"/><g id="Layer_6"/><g id="Layer_7"><g><path d="M31,4v24c0,1.65-1.35,3-3,3H4c-1.65,0-3-1.35-3-3V4c0-1.65,1.35-3,3-3h24C29.65,1,31,2.35,31,4z" fill="#48B1DD"/></g><circle cx="16" cy="16" fill="#4391B2" r="9"/><circle cx="6" cy="6" fill="#96CEE5" r="2"/><circle cx="6" cy="26" fill="#96CEE5" r="2"/><circle cx="26" cy="26" fill="#96CEE5" r="2"/><circle cx="26" cy="6" fill="#96CEE5" r="2"/><path d="M25.98,15.61c0-0.04,0-0.08-0.01-0.12C25.71,10.21,21.34,6,16,6c-1.84,0-3.56,0.51-5.04,1.38   c-0.04,0.02-0.07,0.04-0.11,0.06C7.95,9.19,6,12.37,6,16c0,3.25,1.57,6.13,3.97,7.96C10,23.98,10.03,24,10.05,24.02   C11.72,25.26,13.77,26,16,26c5.51,0,10-4.49,10-10C26,15.87,25.99,15.74,25.98,15.61z M16,8c0.9,0,1.77,0.16,2.58,0.44   c0.07,1.05-0.08,2.44-0.9,3.94C17.17,12.14,16.6,12,16,12c-0.09,0-0.17,0.02-0.26,0.03c-0.66-1.33-1.49-2.53-2.51-3.52   C14.09,8.18,15.02,8,16,8z M18,16c0,1.1-0.9,2-2,2s-2-0.9-2-2c0-1.1,0.9-2,2-2S18,14.9,18,16z M11.34,9.51   c1.0099,0.87,1.84,1.92,2.48,3.14c-0.49,0.33-0.91,0.76-1.22,1.26c-1.7599-0.25-3.24-0.02-4.41,0.38   C8.62,12.33,9.76,10.65,11.34,9.51z M8.03,16.52c0.95-0.47,2.28-0.86,3.99-0.68C12.01,15.9,12,15.95,12,16   c0,0.63,0.16,1.21,0.42,1.74c-0.79,0.91-1.65,2.14-2.27,3.69C8.93,20.12,8.15,18.41,8.03,16.52z M16,24c-1.55,0-3-0.45-4.22-1.22   c0.48-1.46,1.23-2.63,1.95-3.49C14.38,19.73,15.16,20,16,20c0.17,0,0.34-0.03,0.51-0.05c0.93,1.52,2.04,2.53,3.1,3.18   C18.53,23.68,17.3,24,16,24z M21.44,21.84c-0.96-0.43-2.11-1.22-3.06-2.65c0.52-0.38,0.93-0.88,1.21-1.46   c0.11,0,0.21,0.01,0.31,0.01c1.39,0,2.74-0.22,4.02-0.64C23.66,18.96,22.76,20.62,21.44,21.84z M19.97,15.73   c-0.05-0.76-0.31-1.47-0.73-2.06c0.9-1.53,1.26-2.98,1.33-4.22c1.81,1.2599,3.06,3.24,3.36,5.52   C22.48,15.55,21.1,15.73,19.97,15.73z" fill="#96CEE5"/><path d="M12.42,17.74c-0.79,0.91-1.65,2.14-2.27,3.69c-1.22-1.31-2-3.02-2.12-4.91c0.95-0.47,2.28-0.86,3.99-0.68   C12.01,15.9,12,15.95,12,16C12,16.63,12.16,17.21,12.42,17.74z" fill="#48B1DD"/><path d="M23.92,17.1c-0.26,1.86-1.16,3.52-2.48,4.74c-0.96-0.43-2.11-1.22-3.06-2.65c0.52-0.38,0.93-0.88,1.21-1.46   c0.11,0,0.21,0.01,0.31,0.01C21.29,17.74,22.64,17.52,23.92,17.1z" fill="#48B1DD"/><path d="M17.68,12.38C17.17,12.14,16.6,12,16,12c-0.09,0-0.17,0.02-0.26,0.03c-0.66-1.33-1.49-2.53-2.51-3.52   C14.09,8.18,15.02,8,16,8c0.9,0,1.77,0.16,2.58,0.44C18.65,9.49,18.5,10.88,17.68,12.38z" fill="#48B1DD"/><circle cx="16" cy="16" fill="#96CEE5" r="3"/></g><g id="Layer_8"/><g id="Layer_9"/><g id="Layer_10"/><g id="Layer_11"/><g id="Layer_12"/><g id="Layer_13"/><g id="Layer_14"/><g id="Layer_15"/><g id="Layer_16"/><g id="Layer_17"/><g id="Layer_18"/><g id="Layer_19"/><g id="Layer_20"/><g id="Layer_21"/><g id="Layer_22"/><g id="Layer_23"/><g id="Layer_24"/><g id="Layer_25"/><g id="Layer_26"/><g id="Layer_27"/><g id="Layer_28"/><g id="Layer_29"/><g id="Layer_30"/><g id="Layer_31"/></svg>