<?xml version="1.0" ?><!DOCTYPE svg  PUBLIC '-//W3C//DTD SVG 1.1//EN'  'http://www.w3.org/Graphics/SVG/1.1/DTD/svg11.dtd'><svg enable-background="new 0 0 32 32" version="1.1" viewBox="0 0 32 32" xml:space="preserve" xmlns="http://www.w3.org/2000/svg" xmlns:xlink="http://www.w3.org/1999/xlink"><g id="Layer_2"/><g id="Layer_3"/><g id="Layer_4"/><g id="Layer_5"/><g id="Layer_6"/><g id="Layer_7"/><g id="Layer_8"/><g id="Layer_9"/><g id="Layer_10"/><g id="Layer_11"/><g id="Layer_12"/><g id="Layer_13"/><g id="Layer_14"/><g id="Layer_15"/><g id="Layer_16"/><g id="Layer_17"/><g id="Layer_18"/><g id="Layer_19"/><g id="Layer_20"/><g id="Layer_21"/><g id="Layer_22"/><g id="Layer_23"/><g id="Layer_24"/><g id="Layer_25"/><g id="Layer_26"/><g id="Layer_27"/><g id="Layer_28"><g><path d="M31,8v22c0,0.55-0.45,1-1,1H2c-0.55,0-1-0.45-1-1V2c0-0.55,0.45-1,1-1h22c0.27,0,0.52,0.11,0.71,0.29l6,6    C30.89,7.48,31,7.73,31,8z" fill="#48B1DD"/></g><g><path d="M25,1.58V10c0,0.55-0.45,1-1,1H8c-0.55,0-1-0.45-1-1V1h17c0.27,0,0.52,0.11,0.71,0.29L25,1.58z" fill="#96CEE5"/></g><g><path d="M25,20v11H7V20c0-0.55,0.45-1,1-1h16C24.55,19,25,19.45,25,20z" fill="#96CEE5"/></g><g><path d="M20,1v5c0,0.55-0.45,1-1,1s-1-0.45-1-1V1H20z" fill="#4391B2"/></g><g><path d="M19,26h-6c-0.5527,0-1-0.4478-1-1s0.4473-1,1-1h6c0.5527,0,1,0.4478,1,1S19.5527,26,19,26z" fill="#4391B2"/></g></g><g id="Layer_29"/><g id="Layer_30"/><g id="Layer_31"/></svg>