<?xml version="1.0" ?><!DOCTYPE svg  PUBLIC '-//W3C//DTD SVG 1.1//EN'  'http://www.w3.org/Graphics/SVG/1.1/DTD/svg11.dtd'><svg enable-background="new 0 0 32 32" version="1.1" viewBox="0 0 32 32" xml:space="preserve" xmlns="http://www.w3.org/2000/svg" xmlns:xlink="http://www.w3.org/1999/xlink"><g id="Layer_2"/><g id="Layer_3"/><g id="Layer_4"/><g id="Layer_5"/><g id="Layer_6"/><g id="Layer_7"/><g id="Layer_8"/><g id="Layer_9"/><g id="Layer_10"/><g id="Layer_11"/><g id="Layer_12"/><g id="Layer_13"/><g id="Layer_14"/><g id="Layer_15"/><g id="Layer_16"/><g id="Layer_17"/><g id="Layer_18"/><g id="Layer_19"/><g id="Layer_20"/><g id="Layer_21"/><g id="Layer_22"/><g id="Layer_23"/><g id="Layer_24"/><g id="Layer_25"/><g id="Layer_26"><g><path d="M22,31h-2c-2.7568,0-5-2.2432-5-5v-3c0-0.5522,0.4478-1,1-1s1,0.4478,1,1v3c0,1.6543,1.3457,3,3,3h2    c1.6543,0,3-1.3457,3-3V16c0-0.5522,0.4478-1,1-1s1,0.4478,1,1v10C27,28.7568,24.7568,31,22,31z" fill="#4391B2"/></g><g><path d="M21,2v6c0,0.55-0.45,1-1,1h-8c-0.55,0-1-0.45-1-1V2c0-0.55,0.45-1,1-1h8C20.55,1,21,1.45,21,2z" fill="#96CEE5"/></g><g><path d="M22,8v9c0,0.27-0.11,0.52-0.29,0.71L20,19.41V23c0,0.55-0.45,1-1,1h-6c-0.55,0-1-0.45-1-1v-3.59l-1.71-1.7    C10.11,17.52,10,17.27,10,17V8c0-0.55,0.45-1,1-1h10C21.55,7,22,7.45,22,8z" fill="#48B1DD"/></g><g><path d="M15,5c0,0.55-0.45,1-1,1h-3V4h3C14.55,4,15,4.45,15,5z" fill="#4391B2"/></g><g><path d="M21,4v2h-3c-0.55,0-1-0.45-1-1s0.45-1,1-1H21z" fill="#4391B2"/></g></g><g id="Layer_27"/><g id="Layer_28"/><g id="Layer_29"/><g id="Layer_30"/><g id="Layer_31"/></svg>