<?xml version="1.0" ?><!DOCTYPE svg  PUBLIC '-//W3C//DTD SVG 1.1//EN'  'http://www.w3.org/Graphics/SVG/1.1/DTD/svg11.dtd'><svg enable-background="new 0 0 32 32" version="1.1" viewBox="0 0 32 32" xml:space="preserve" xmlns="http://www.w3.org/2000/svg" xmlns:xlink="http://www.w3.org/1999/xlink"><g id="Layer_2"/><g id="Layer_3"/><g id="Layer_4"/><g id="Layer_5"/><g id="Layer_6"/><g id="Layer_7"/><g id="Layer_8"/><g id="Layer_9"/><g id="Layer_10"/><g id="Layer_11"><g><path d="M27.02,30c0,0.55-0.45,1-1,1c-0.01,0-0.01,0-0.02,0H6c-0.55,0-1-0.45-1-1c0-3.56,2.11-6.8,5.37-8.24    c0.12-0.05,0.26-0.08,0.4-0.08h10.46c0.14,0,0.28,0.03,0.4,0.08c1.01,0.45,1.92,1.0699,2.73,1.87c1.66,1.66,2.58,3.84,2.64,6.16    C27.01,29.86,27.02,29.93,27.02,30z" fill="#4391B2"/></g><g><path d="M28,13c0,6.62-5.38,12-12,12S4,19.62,4,13S9.38,1,16,1S28,6.38,28,13z" fill="#48B1DD"/></g><g><circle cx="16" cy="6" fill="#4391B2" r="2"/></g><g><path d="M22,15c0,3.31-2.69,6-6,6s-6-2.69-6-6s2.69-6,6-6S22,11.69,22,15z" fill="#96CEE5"/></g><g><path d="M28,31H4c-0.5522,0-1-0.4473-1-1s0.4478-1,1-1h24c0.5522,0,1,0.4473,1,1S28.5522,31,28,31z" fill="#48B1DD"/></g></g><g id="Layer_12"/><g id="Layer_13"/><g id="Layer_14"/><g id="Layer_15"/><g id="Layer_16"/><g id="Layer_17"/><g id="Layer_18"/><g id="Layer_19"/><g id="Layer_20"/><g id="Layer_21"/><g id="Layer_22"/><g id="Layer_23"/><g id="Layer_24"/><g id="Layer_25"/><g id="Layer_26"/><g id="Layer_27"/><g id="Layer_28"/><g id="Layer_29"/><g id="Layer_30"/><g id="Layer_31"/></svg>