<?xml version="1.0" ?><!DOCTYPE svg  PUBLIC '-//W3C//DTD SVG 1.1//EN'  'http://www.w3.org/Graphics/SVG/1.1/DTD/svg11.dtd'><svg enable-background="new 0 0 32 32" version="1.1" viewBox="0 0 32 32" xml:space="preserve" xmlns="http://www.w3.org/2000/svg" xmlns:xlink="http://www.w3.org/1999/xlink"><g id="Layer_2"/><g id="Layer_3"/><g id="Layer_4"/><g id="Layer_5"/><g id="Layer_6"/><g id="Layer_7"/><g id="Layer_8"/><g id="Layer_9"/><g id="Layer_10"/><g id="Layer_11"/><g id="Layer_12"><g><path d="M31,16c0,8.27-6.73,15-15,15S1,24.27,1,16C1,7.73,7.73,1,16,1S31,7.73,31,16z" fill="#48B1DD"/></g><g><circle cx="16" cy="16" fill="#4391B2" r="4"/></g><g><path d="M23,17c-0.5527,0-1-0.4473-1-1c0-3.3086-2.6914-6-6-6c-0.5527,0-1-0.4473-1-1s0.4473-1,1-1    c4.4111,0,8,3.5889,8,8C24,16.5527,23.5527,17,23,17z" fill="#96CEE5"/></g><g><path d="M26,17c-0.5527,0-1-0.4473-1-1c0-4.9629-4.0371-9-9-9c-0.5527,0-1-0.4473-1-1s0.4473-1,1-1    c6.0654,0,11,4.9346,11,11C27,16.5527,26.5527,17,26,17z" fill="#96CEE5"/></g></g><g id="Layer_13"/><g id="Layer_14"/><g id="Layer_15"/><g id="Layer_16"/><g id="Layer_17"/><g id="Layer_18"/><g id="Layer_19"/><g id="Layer_20"/><g id="Layer_21"/><g id="Layer_22"/><g id="Layer_23"/><g id="Layer_24"/><g id="Layer_25"/><g id="Layer_26"/><g id="Layer_27"/><g id="Layer_28"/><g id="Layer_29"/><g id="Layer_30"/><g id="Layer_31"/></svg>