<?xml version="1.0" ?><!DOCTYPE svg  PUBLIC '-//W3C//DTD SVG 1.1//EN'  'http://www.w3.org/Graphics/SVG/1.1/DTD/svg11.dtd'><svg enable-background="new 0 0 32 32" version="1.1" viewBox="0 0 32 32" xml:space="preserve" xmlns="http://www.w3.org/2000/svg" xmlns:xlink="http://www.w3.org/1999/xlink"><g id="Layer_2"/><g id="Layer_3"/><g id="Layer_4"/><g id="Layer_5"/><g id="Layer_6"/><g id="Layer_7"/><g id="Layer_8"/><g id="Layer_9"/><g id="Layer_10"/><g id="Layer_11"/><g id="Layer_12"/><g id="Layer_13"/><g id="Layer_14"/><g id="Layer_15"/><g id="Layer_16"/><g id="Layer_17"/><g id="Layer_18"/><g id="Layer_19"/><g id="Layer_20"/><g id="Layer_21"><g><path d="M25,4v5c0,0.55-0.45,1-1,1H8c-0.55,0-1-0.45-1-1V4c0-1.65,1.35-3,3-3h12C23.65,1,25,2.35,25,4z" fill="#4391B2"/></g><g><path d="M31,9v14c0,0.55-0.45,1-1,1H2c-0.55,0-1-0.45-1-1V9c0-0.55,0.45-1,1-1h28C30.55,8,31,8.45,31,9z" fill="#96CEE5"/></g><g><path d="M25,19v11c0,0.55-0.45,1-1,1H8c-0.55,0-1-0.45-1-1V19c0-0.55,0.45-1,1-1h16C24.55,18,25,18.45,25,19z" fill="#48B1DD"/></g><g><path d="M26,13h-3c-0.5522,0-1-0.4478-1-1s0.4478-1,1-1h3c0.5522,0,1,0.4478,1,1S26.5522,13,26,13z" fill="#4391B2"/></g><g><path d="M20,27h-8c-0.5522,0-1-0.4478-1-1s0.4478-1,1-1h8c0.5522,0,1,0.4478,1,1S20.5522,27,20,27z" fill="#4391B2"/></g><g><path d="M20,24h-8c-0.5522,0-1-0.4478-1-1s0.4478-1,1-1h8c0.5522,0,1,0.4478,1,1S20.5522,24,20,24z" fill="#4391B2"/></g></g><g id="Layer_22"/><g id="Layer_23"/><g id="Layer_24"/><g id="Layer_25"/><g id="Layer_26"/><g id="Layer_27"/><g id="Layer_28"/><g id="Layer_29"/><g id="Layer_30"/><g id="Layer_31"/></svg>