<?xml version="1.0" ?><!DOCTYPE svg  PUBLIC '-//W3C//DTD SVG 1.1//EN'  'http://www.w3.org/Graphics/SVG/1.1/DTD/svg11.dtd'><svg enable-background="new 0 0 32 32" version="1.1" viewBox="0 0 32 32" xml:space="preserve" xmlns="http://www.w3.org/2000/svg" xmlns:xlink="http://www.w3.org/1999/xlink"><g id="Layer_2"/><g id="Layer_3"/><g id="Layer_4"/><g id="Layer_5"/><g id="Layer_6"/><g id="Layer_7"/><g id="Layer_8"/><g id="Layer_9"><g><path d="M25,4v24c0,1.65-1.35,3-3,3H10c-1.65,0-3-1.35-3-3V4c0-1.65,1.35-3,3-3h12C23.65,1,25,2.35,25,4z" fill="#48B1DD"/></g><g><path d="M22,6v3c0,0.55-0.45,1-1,1H11c-0.55,0-1-0.45-1-1V6c0-0.55,0.45-1,1-1h10C21.55,5,22,5.45,22,6z" fill="#96CEE5"/></g><g><path d="M22,13v3c0,0.55-0.45,1-1,1H11c-0.55,0-1-0.45-1-1v-3c0-0.55,0.45-1,1-1h10C21.55,12,22,12.45,22,13z" fill="#96CEE5"/></g><g><circle cx="16" cy="23" fill="#4391B2" r="4"/></g></g><g id="Layer_10"/><g id="Layer_11"/><g id="Layer_12"/><g id="Layer_13"/><g id="Layer_14"/><g id="Layer_15"/><g id="Layer_16"/><g id="Layer_17"/><g id="Layer_18"/><g id="Layer_19"/><g id="Layer_20"/><g id="Layer_21"/><g id="Layer_22"/><g id="Layer_23"/><g id="Layer_24"/><g id="Layer_25"/><g id="Layer_26"/><g id="Layer_27"/><g id="Layer_28"/><g id="Layer_29"/><g id="Layer_30"/><g id="Layer_31"/></svg>