<?xml version="1.0" ?><!DOCTYPE svg  PUBLIC '-//W3C//DTD SVG 1.1//EN'  'http://www.w3.org/Graphics/SVG/1.1/DTD/svg11.dtd'><svg enable-background="new 0 0 32 32" version="1.1" viewBox="0 0 32 32" xml:space="preserve" xmlns="http://www.w3.org/2000/svg" xmlns:xlink="http://www.w3.org/1999/xlink"><g id="Layer_2"/><g id="Layer_3"/><g id="Layer_4"/><g id="Layer_5"/><g id="Layer_6"/><g id="Layer_7"/><g id="Layer_8"/><g id="Layer_9"/><g id="Layer_10"/><g id="Layer_11"/><g id="Layer_12"/><g id="Layer_13"/><g id="Layer_14"/><g id="Layer_15"/><g id="Layer_16"/><g id="Layer_17"/><g id="Layer_18"><path d="M25,11v4h1c0.55,0,1,0.45,1,1v14c0,0.55-0.45,1-1,1H6c-0.55,0-1-0.45-1-1V16c0-0.55,0.45-1,1-1h1v-4H6   c-0.55,0-1-0.45-1-1V2c0-0.55,0.45-1,1-1h15c0.23,0,0.45,0.08,0.62,0.22l5,4C26.86,5.41,27,5.7,27,6v4c0,0.55-0.45,1-1,1H25z" fill="#48B1DD"/><g><path d="M21,1v5c0,0.55-0.45,1-1,1s-1-0.45-1-1V1H21z" fill="#4391B2"/></g><g><path d="M16,1v5c0,0.55-0.45,1-1,1s-1-0.45-1-1V1H16z" fill="#4391B2"/></g><g><path d="M11,1v5c0,0.55-0.45,1-1,1S9,6.55,9,6V1H11z" fill="#4391B2"/></g><g><path d="M24,19v8c0,0.55-0.45,1-1,1H9c-0.55,0-1-0.45-1-1v-8c0-0.55,0.45-1,1-1h14C23.55,18,24,18.45,24,19z" fill="#96CEE5"/></g></g><g id="Layer_19"/><g id="Layer_20"/><g id="Layer_21"/><g id="Layer_22"/><g id="Layer_23"/><g id="Layer_24"/><g id="Layer_25"/><g id="Layer_26"/><g id="Layer_27"/><g id="Layer_28"/><g id="Layer_29"/><g id="Layer_30"/><g id="Layer_31"/></svg>