<?xml version="1.0" ?><!DOCTYPE svg  PUBLIC '-//W3C//DTD SVG 1.1//EN'  'http://www.w3.org/Graphics/SVG/1.1/DTD/svg11.dtd'><svg enable-background="new 0 0 32 32" version="1.1" viewBox="0 0 32 32" xml:space="preserve" xmlns="http://www.w3.org/2000/svg" xmlns:xlink="http://www.w3.org/1999/xlink"><g id="Layer_2"/><g id="Layer_3"/><g id="Layer_4"/><g id="Layer_5"/><g id="Layer_6"/><g id="Layer_7"/><g id="Layer_8"/><g id="Layer_9"/><g id="Layer_10"/><g id="Layer_11"/><g id="Layer_12"/><g id="Layer_13"/><g id="Layer_14"/><g id="Layer_15"/><g id="Layer_16"/><g id="Layer_17"/><g id="Layer_18"/><g id="Layer_19"/><g id="Layer_20"/><g id="Layer_21"/><g id="Layer_22"/><g id="Layer_23"/><g id="Layer_24"><g><path d="M27,25v3c0,0.55-0.45,1-1,1H6c-0.55,0-1-0.45-1-1v-3c0-0.55,0.45-1,1-1h20C26.55,24,27,24.45,27,25z" fill="#96CEE5"/></g><g><path d="M7,19c-0.5522,0-1-0.4478-1-1v-6c0-0.5522,0.4478-1,1-1s1,0.4478,1,1v6C8,18.5522,7.5522,19,7,19z" fill="#4391B2"/></g><g><circle cx="7" cy="11" fill="#48B1DD" r="2"/></g><g><path d="M25,19c-0.5527,0-1-0.4478-1-1v-6c0-0.5522,0.4473-1,1-1s1,0.4478,1,1v6C26,18.5522,25.5527,19,25,19z" fill="#4391B2"/></g><g><circle cx="25" cy="11" fill="#48B1DD" r="2"/></g><g><path d="M31,20v3c0,1.65-1.35,3-3,3H4c-1.65,0-3-1.35-3-3v-3c0-1.65,1.35-3,3-3h24C29.65,17,31,18.35,31,20z" fill="#48B1DD"/></g><g><circle cx="5.5" cy="21.5" fill="#96CEE5" r="1.5"/></g><g><circle cx="9.5" cy="21.5" fill="#96CEE5" r="1.5"/></g><g><circle cx="13.5" cy="21.5" fill="#96CEE5" r="1.5"/></g><g><path d="M8.9985,9c-0.2031,0-0.4082-0.0615-0.585-0.1899c-0.7539-0.5449-2.0742-0.5449-2.8281,0    c-0.4468,0.3247-1.0723,0.2236-1.396-0.2241c-0.3237-0.4473-0.2236-1.0723,0.2241-1.396c1.4502-1.0498,3.7217-1.0498,5.1719,0    c0.4478,0.3237,0.5479,0.9487,0.2241,1.396C9.6143,8.8564,9.3086,9,8.9985,9z" fill="#96CEE5"/></g><g><path d="M10.999,6.3188c-0.2183,0-0.438-0.0708-0.6221-0.2173c-1.8311-1.4561-4.9238-1.4561-6.7549,0    c-0.4321,0.3433-1.0615,0.272-1.4053-0.1602C1.873,5.5088,1.9448,4.8799,2.377,4.5361c2.5918-2.0615,6.6533-2.0615,9.2451,0    c0.4321,0.3438,0.5039,0.9727,0.1602,1.4053C11.585,6.1895,11.293,6.3188,10.999,6.3188z" fill="#96CEE5"/></g><g><path d="M26.999,9c-0.2031,0-0.4082-0.0615-0.585-0.1899c-0.7539-0.5449-2.0742-0.5449-2.8281,0    c-0.4473,0.3237-1.0723,0.2231-1.3965-0.2241c-0.3232-0.4473-0.2227-1.0723,0.2246-1.396c1.4492-1.0498,3.7227-1.0498,5.1719,0    c0.4473,0.3237,0.5479,0.9487,0.2246,1.396C27.6143,8.8564,27.3086,9,26.999,9z" fill="#96CEE5"/></g><g><path d="M28.999,6.3188c-0.2178,0-0.4375-0.0708-0.6211-0.2173c-1.832-1.4561-4.9238-1.4561-6.7559,0    c-0.4326,0.3447-1.0625,0.2705-1.4043-0.1602c-0.3438-0.4326-0.2725-1.0615,0.1602-1.4053c2.5918-2.0615,6.6523-2.0615,9.2441,0    c0.4326,0.3438,0.5039,0.9727,0.1602,1.4053C29.585,6.1895,29.2939,6.3188,28.999,6.3188z" fill="#96CEE5"/></g></g><g id="Layer_25"/><g id="Layer_26"/><g id="Layer_27"/><g id="Layer_28"/><g id="Layer_29"/><g id="Layer_30"/><g id="Layer_31"/></svg>