<?xml version="1.0" ?><!DOCTYPE svg  PUBLIC '-//W3C//DTD SVG 1.1//EN'  'http://www.w3.org/Graphics/SVG/1.1/DTD/svg11.dtd'><svg enable-background="new 0 0 32 32" version="1.1" viewBox="0 0 32 32" xml:space="preserve" xmlns="http://www.w3.org/2000/svg" xmlns:xlink="http://www.w3.org/1999/xlink"><g id="Packaging_Delivery31"/><g id="Packaging_Delivery30"/><g id="Packaging_Delivery29"/><g id="Packaging_Delivery28"/><g id="Packaging_Delivery27"/><g id="Packaging_Delivery26"/><g id="Packaging_Delivery25"/><g id="Packaging_Delivery24"/><g id="Packaging_Delivery23"/><g id="Packaging_Delivery22"/><g id="Packaging_Delivery21"/><g id="Packaging_Delivery20"/><g id="Packaging_Delivery19"/><g id="Packaging_Delivery18"/><g id="Packaging_Delivery17"/><g id="Packaging_Delivery16"><g><g><g><path d="M31.0088,9c0,0.55-0.45,1-1,1c0,0-0.01,0-0.02,0h-28c-0.36,0-0.69-0.19-0.87-0.5      c-0.17-0.31-0.17-0.69,0-1l4-7c0.18-0.31,0.51-0.5,0.87-0.5h20c0.36,0,0.69,0.19,0.87,0.5l3.91,6.85      C30.9187,8.53,31.0088,8.75,31.0088,9z" fill="#4391B2"/></g></g><g><g><path d="M31,9v21c0,0.55-0.45,1-1,1H2c-0.55,0-1-0.45-1-1V9H31z" fill="#48B1DD"/></g></g></g><g><path d="M16,27c-3.8599,0-7-3.1406-7-7s3.1401-7,7-7s7,3.1406,7,7S19.8599,27,16,27z M16,15    c-2.7568,0-5,2.2432-5,5s2.2432,5,5,5s5-2.2432,5-5S18.7568,15,16,15z" fill="#96CEE5"/></g><g><path d="M19,22c-0.1045,0-0.2114-0.0166-0.3164-0.0518l-3-1C15.2754,20.8125,15,20.4307,15,20v-3    c0-0.5527,0.4478-1,1-1s1,0.4473,1,1v2.2793l2.3164,0.7725c0.5239,0.1738,0.8071,0.7402,0.6323,1.2646    C19.8091,21.7354,19.4189,22,19,22z" fill="#96CEE5"/></g></g><g id="Packaging_Delivery15"/><g id="Packaging_Delivery14"/><g id="Packaging_Delivery13"/><g id="Packaging_Delivery12"/><g id="Packaging_Delivery11"/><g id="Packaging_Delivery10"/><g id="Packaging_Delivery09"/><g id="Packaging_Delivery08"/><g id="Packaging_Delivery07"/><g id="Packaging_Delivery06"/><g id="Packaging_Delivery05"/><g id="Packaging_Delivery04"/><g id="Packaging_Delivery03"/><g id="Packaging_Delivery02"/><g id="Packaging_Delivery01"/></svg>