<?xml version="1.0" ?><!DOCTYPE svg  PUBLIC '-//W3C//DTD SVG 1.1//EN'  'http://www.w3.org/Graphics/SVG/1.1/DTD/svg11.dtd'><svg enable-background="new 0 0 50 50" id="Layer_1" version="1.1" viewBox="0 0 50 50" xml:space="preserve" xmlns="http://www.w3.org/2000/svg" xmlns:xlink="http://www.w3.org/1999/xlink"><g><g><rect fill="#D2D2D2" height="8.4163" width="13.08981" x="0.62226" y="20.79185"/><g><path d="M0.55616,24.03771h13.22199c1.29613,0,2.34685-1.05072,2.34685-2.34685v-1.79801     c0-1.29613-1.05072-2.34685-2.34685-2.34685H0.55616c-1.29613,0-2.34685,1.05072-2.34685,2.34685v1.79801     C-1.79069,22.98699-0.73997,24.03771,0.55616,24.03771z" fill="#E7E3E6"/><path d="M0.55616,32.45401h13.22199c1.29613,0,2.34685-1.05072,2.34685-2.34685v-1.79801     c0-1.29613-1.05072-2.34685-2.34685-2.34685H0.55616c-1.29613,0-2.34685,1.05072-2.34685,2.34685l0,1.79801     C-1.79069,31.40329-0.73997,32.45401,0.55616,32.45401z" fill="#E7E3E6"/></g><g><circle cx="12.66737" cy="29.20815" fill="#EC6E62" r="1.2493"/><circle cx="9.11674" cy="29.20815" fill="#85BD57" r="1.2493"/></g><g><circle cx="12.66737" cy="20.79185" fill="#EC6E62" r="1.2493"/><circle cx="9.11674" cy="20.79185" fill="#85BD57" r="1.2493"/></g></g><g><rect fill="#4E4C4D" height="11.88797" width="17.96187" x="31.05256" y="28.74176"/><path d="M30.97652,28.73693h18.11395c1.49126,0,2.70016-1.2089,2.70016-2.70016v-2.06869    c0-1.49126-1.2089-2.70016-2.70016-2.70016H30.97652c-1.49126,0-2.70016,1.2089-2.70016,2.70016v2.06869    C28.27636,27.52802,29.48527,28.73693,30.97652,28.73693z" fill="#656766"/><path d="M30.97652,38.42025h18.11395c1.49126,0,2.70016-1.2089,2.70016-2.70016v-2.0687    c0-1.49126-1.2089-2.70016-2.70016-2.70016H30.97652c-1.49126,0-2.70016,1.2089-2.70016,2.70016v2.0687    C28.27636,37.21135,29.48527,38.42025,30.97652,38.42025z" fill="#656766"/><path d="M30.97652,48.09875h18.11395c1.49126,0,2.70016-1.2089,2.70016-2.70016v-2.0687    c0-1.49126-1.2089-2.70016-2.70016-2.70016H30.97652c-1.49126,0-2.70016,1.2089-2.70016,2.70016v2.0687    C28.27636,46.88985,29.48527,48.09875,30.97652,48.09875z" fill="#656766"/><g><circle cx="47.81247" cy="44.36424" fill="#EC6E62" r="1.43737"/><circle cx="43.72731" cy="44.36424" fill="#85BD57" r="1.43737"/></g><g><circle cx="47.81247" cy="34.68575" fill="#EC6E62" r="1.43737"/><circle cx="43.72731" cy="34.68575" fill="#85BD57" r="1.43737"/></g><g><circle cx="47.81247" cy="25.00243" fill="#EC6E62" r="1.43737"/><circle cx="43.72731" cy="25.00243" fill="#85BD57" r="1.43737"/></g><rect fill="#4E4C4D" height="11.88797" width="17.96187" x="31.05256" y="9.3751"/><path d="M30.97652,9.37026h18.11395c1.49126,0,2.70016-1.2089,2.70016-2.70016V4.60141    c0-1.49126-1.2089-2.70016-2.70016-2.70016H30.97652c-1.49126,0-2.70016,1.2089-2.70016,2.70016V6.6701    C28.27636,8.16136,29.48527,9.37026,30.97652,9.37026z" fill="#656766"/><path d="M30.97652,19.05359h18.11395c1.49126,0,2.70016-1.2089,2.70016-2.70016v-2.06869    c0-1.49126-1.2089-2.70016-2.70016-2.70016H30.97652c-1.49126,0-2.70016,1.2089-2.70016,2.70016v2.06869    C28.27636,17.84469,29.48527,19.05359,30.97652,19.05359z" fill="#656766"/><g><circle cx="47.81247" cy="15.31909" fill="#EC6E62" r="1.43737"/><circle cx="43.72731" cy="15.31909" fill="#85BD57" r="1.43737"/></g><g><circle cx="47.81247" cy="5.63576" fill="#EC6E62" r="1.43737"/><circle cx="43.72731" cy="5.63576" fill="#85BD57" r="1.43737"/></g></g><path d="M24.34506,25.28954l-3.53574,3.53574c-0.3568,0.3568-0.93529,0.3568-1.29208-0.00001l0,0   c-0.35659-0.3566-0.35681-0.93467-0.0005-1.29155l2.88563-2.89021l-2.886-2.886c-0.35625-0.35625-0.35687-0.93364-0.00141-1.29066   l0.00229-0.0023c0.35657-0.35812,0.93613-0.35876,1.29348-0.00141l3.53433,3.53434   C24.70185,24.35426,24.70185,24.93274,24.34506,25.28954z" fill="#53B1E2"/></g></svg>