<?xml version="1.0" ?><!DOCTYPE svg  PUBLIC '-//W3C//DTD SVG 1.1//EN'  'http://www.w3.org/Graphics/SVG/1.1/DTD/svg11.dtd'><svg enable-background="new 0 0 50 50" id="Layer_1" version="1.1" viewBox="0 0 50 50" xml:space="preserve" xmlns="http://www.w3.org/2000/svg" xmlns:xlink="http://www.w3.org/1999/xlink"><g><rect fill="#656766" height="12.98169" width="3.70233" x="23.14883" y="23.24667"/><path d="M4.31056,40.26196L4.31056,40.26196c0-1.02238,0.8288-1.85117,1.85117-1.85117l37.67648,0   c1.02237,0,1.85117,0.8288,1.85117,1.85117v0c0,1.02237-0.8288,1.85117-1.85117,1.85117l-37.67648,0   C5.13935,42.11313,4.31056,41.28433,4.31056,40.26196z" fill="#656766"/><path d="M34.45771,38.0057c-0.75983,5.48713-7.18344,9.762-8.98546,10.86156   c-0.28953,0.17666-0.64658,0.17711-0.9362,0.00061c-1.79179-1.09193-8.15807-5.32224-8.98239-10.76237   c-0.48855-3.22419,1.74665-6.3756,5.00175-6.57154c1.77272-0.10671,3.39489,0.64349,4.44852,1.8865   c1.02233-1.21981,2.59226-1.96503,4.34012-1.89159C32.60206,31.66578,34.905,34.77562,34.45771,38.0057z" fill="#EC6E62"/><g><path d="M43.38886,1H6.61108C3.51215,1,0.99997,3.51218,0.99997,6.61111v0.00001    c0,3.09893,2.51218,5.61111,5.61111,5.61111h36.77778c3.09893,0,5.61111-2.51218,5.61111-5.61111V6.61111    C48.99997,3.51218,46.48779,1,43.38886,1z" fill="#E7E3E6"/><g><circle cx="6.39604" cy="6.61111" fill="#EC6E62" r="2.08549"/><circle cx="11.94505" cy="6.61111" fill="#85BD57" r="2.08549"/><circle cx="17.49406" cy="6.61111" fill="#53B1E2" r="2.08549"/></g><path d="M43.38886,15.65654H6.61108c-3.09893,0-5.61111,2.51218-5.61111,5.61111v0.00001    c0,3.09893,2.51218,5.61111,5.61111,5.61111h36.77778c3.09893,0,5.61111-2.51218,5.61111-5.61111v-0.00001    C48.99997,18.16872,46.48779,15.65654,43.38886,15.65654z" fill="#E7E3E6"/><g><circle cx="6.39604" cy="21.26765" fill="#EC6E62" r="2.08549"/><circle cx="11.94505" cy="21.26765" fill="#85BD57" r="2.08549"/><circle cx="17.49406" cy="21.26765" fill="#53B1E2" r="2.08549"/></g><rect fill="#D2D2D2" height="3.43431" width="36.33442" x="6.83276" y="12.22223"/></g></g></svg>