<?xml version="1.0" ?><!DOCTYPE svg  PUBLIC '-//W3C//DTD SVG 1.1//EN'  'http://www.w3.org/Graphics/SVG/1.1/DTD/svg11.dtd'><svg enable-background="new 0 0 50 50" id="Layer_1" version="1.1" viewBox="0 0 50 50" xml:space="preserve" xmlns="http://www.w3.org/2000/svg" xmlns:xlink="http://www.w3.org/1999/xlink"><g><g><path d="M45.47913,42.83352H4.5208c-1.9445,0-3.52083-1.57633-3.52083-3.52084V6.89844    c0-1.9445,1.57633-3.52083,3.52083-3.52083h40.95833c1.9445,0,3.52083,1.57633,3.52083,3.52083v32.41424    C48.99996,41.25719,47.42363,42.83352,45.47913,42.83352z" fill="#E7E3E6"/></g><g><path d="M48.99997,10.40384V6.89843c0-1.94453-1.57633-3.52086-3.52081-3.52086H4.52079    c-1.94448,0-3.52081,1.57633-3.52081,3.52086v3.50541H48.99997z" fill="#85BD57"/></g><g><path d="M17.06462,11.05151H4.45078v-2.7194c0-0.67552,0.54762-1.22313,1.22313-1.22313h10.16758    c0.67552,0,1.22313,0.54762,1.22313,1.22313V11.05151z" fill="#E7E3E6"/></g><g><path d="M29.67847,10.40384H17.06462V8.33211c0-0.67552,0.54762-1.22313,1.22313-1.22313h10.16758    c0.67552,0,1.22313,0.54762,1.22313,1.22313V10.40384z" fill="#D2D2D2"/></g><g><circle cx="44.54541" cy="7.19272" fill="#E7E3E6" r="1.34955"/></g><g><circle cx="40.42996" cy="7.19272" fill="#E7E3E6" r="1.34955"/></g><g><circle cx="36.3145" cy="7.19272" fill="#E7E3E6" r="1.34955"/></g><g><path d="M7.87267,10.4038H7.56212L7.11534,9.1118h0.28125l0.3208,0.97607L8.03771,9.1118h0.28174l0.3208,0.97607    L8.96056,9.1118H9.2423L8.79552,10.4038H8.48448L8.17882,9.52001L7.87267,10.4038z" fill="#656766"/><path d="M10.33019,10.4038h-0.31055L9.57286,9.1118h0.28125l0.3208,0.97607l0.32031-0.97607h0.28174    l0.3208,0.97607l0.32031-0.97607h0.28174l-0.44678,1.29199H10.942l-0.30566-0.88379L10.33019,10.4038z" fill="#656766"/><path d="M12.78722,10.4038h-0.31055L12.02989,9.1118h0.28125l0.3208,0.97607l0.32031-0.97607H13.234    l0.3208,0.97607l0.32031-0.97607h0.28174l-0.44678,1.29199h-0.31104l-0.30566-0.88379L12.78722,10.4038z" fill="#656766"/></g><g><path d="M13.89113,22.48375c-0.13637-0.13865-0.2057-0.30912-0.2057-0.50459    c0-0.19774,0.06932-0.36594,0.2057-0.50231c0.13637-0.13637,0.30457-0.20456,0.50118-0.20456    c0.19774,0,0.36594,0.06819,0.50572,0.20456c0.14092,0.13638,0.21024,0.30457,0.21024,0.50231    c0,0.19547-0.06932,0.36594-0.21024,0.50459c-0.13978,0.14092-0.30798,0.21138-0.50572,0.21138    C14.1957,22.69513,14.02751,22.62466,13.89113,22.48375z" fill="#656766"/><path d="M18.75515,22.69513c-0.70687,0-1.31374-0.24093-1.82287-0.72278    c-0.51027-0.47958-0.76483-1.10691-0.76483-1.88424s0.26593-1.4092,0.79779-1.89561    c0.53186-0.4864,1.17964-0.73074,1.94334-0.73074s1.4092,0.26479,1.93765,0.79325l-0.62959,0.77392    c-0.43981-0.38298-0.88189-0.57391-1.32738-0.57391s-0.83302,0.14774-1.16032,0.44435    c-0.3273,0.29548-0.49208,0.67733-0.49208,1.14555c0,0.46822,0.16251,0.8637,0.48754,1.18873    c0.32389,0.32503,0.72392,0.4864,1.19782,0.4864s0.92166-0.21593,1.34215-0.64778l0.62959,0.68642    C20.27687,22.38146,19.56317,22.69513,18.75515,22.69513z" fill="#656766"/><path d="M26.14551,21.93597c-0.50913,0.50459-1.14555,0.75915-1.90924,0.75915s-1.40011-0.25457-1.90924-0.75915    c-0.51027-0.50686-0.76483-1.12509-0.76483-1.85697c0-0.73187,0.25456-1.35124,0.76483-1.8581    c0.50913-0.50572,1.14554-0.75915,1.90924-0.75915s1.40011,0.25343,1.90924,0.75915c0.50913,0.50686,0.7637,1.12623,0.7637,1.8581    C26.90921,20.81088,26.65464,21.42912,26.14551,21.93597z M23.08504,21.27683c0.3023,0.30912,0.68642,0.46367,1.15123,0.46367    s0.8478-0.15456,1.15009-0.46367c0.3023-0.30911,0.45345-0.70915,0.45345-1.19782c0-0.49095-0.15115-0.89098-0.45345-1.19896    c-0.3023-0.30912-0.68528-0.46367-1.15009-0.46367s-0.84893,0.15456-1.15123,0.46367    c-0.3023,0.30798-0.45345,0.70801-0.45345,1.19896C22.6316,20.56768,22.78275,20.96772,23.08504,21.27683z" fill="#656766"/><path d="M29.19121,19.86763v2.75022h-1.0694v-5.07881h1.0694v0.92507    c0.15342-0.31139,0.38412-0.55686,0.69324-0.73415c0.30798-0.17842,0.64096-0.2682,0.99667-0.2682    c0.80234,0,1.34669,0.33184,1.63308,0.99326c0.50231-0.66142,1.12963-0.99326,1.88083-0.99326    c0.57277,0,1.03645,0.17501,1.38875,0.52504c0.35344,0.35003,0.53072,0.85689,0.53072,1.51944v3.11161h-1.0694v-2.78886    c0-0.93416-0.38866-1.40238-1.16486-1.40238c-0.36253,0-0.6796,0.11592-0.95007,0.34889    c-0.27048,0.2307-0.41253,0.57164-0.42503,1.01713v2.82522h-1.0694v-2.78886c0-0.48186-0.08523-0.83643-0.25797-1.06372    c-0.1716-0.22615-0.44208-0.33866-0.81143-0.33866c-0.36935,0-0.69096,0.12274-0.96371,0.36707    C29.32872,19.03802,29.19121,19.39714,29.19121,19.86763z" fill="#656766"/></g><g><path d="M30.76661,46.62239L9.21603,46.62243c-1.35655,0-2.45625-1.09972-2.45625-2.45629L6.75979,31.5617    c0-1.35657,1.09971-2.45629,2.45626-2.45629l21.55058-0.00004c0.82126,0,1.58818,0.41045,2.04373,1.09378l4.20141,6.30221    c0.55004,0.82507,0.55003,1.89994,0,2.72501l-4.20143,6.30222C32.35479,46.21194,31.58786,46.62239,30.76661,46.62239z" fill="#EC6E62"/></g><g><path d="M11.19737,36.14159v1.27539h2.06006v0.72461h-2.06006v1.91309h-0.78369v-4.64453h3.09619l-0.00684,0.73145    H11.19737z" fill="#FFFFFF"/><path d="M18.1339,36.91893c0,0.76563-0.33447,1.24902-1.00342,1.44824l1.21582,1.6875h-0.99658l-1.10938-1.56152    h-1.03027v1.56152h-0.78369v-4.64453h1.72754c0.7085,0,1.21582,0.12012,1.52148,0.35938S18.1339,36.39159,18.1339,36.91893z     M17.09044,37.57616c0.15967-0.13672,0.23926-0.35742,0.23926-0.66113c0-0.30273-0.08203-0.51172-0.24561-0.62402    c-0.16406-0.11328-0.45654-0.16992-0.87695-0.16992h-0.99707v1.66113h0.97705    C16.62999,37.78222,16.93126,37.71386,17.09044,37.57616z" fill="#FFFFFF"/><path d="M22.5255,35.41014v0.73828h-2.47852v1.22852h2.22607v0.69824h-2.22607v1.24219h2.55811v0.7373h-3.3418    v-4.64453H22.5255z" fill="#FFFFFF"/><path d="M26.87071,35.41014v0.73828H24.3922v1.22852h2.22607v0.69824H24.3922v1.24219h2.55811v0.7373h-3.3418    v-4.64453H26.87071z" fill="#FFFFFF"/></g><g><circle cx="33.68715" cy="37.86388" fill="#FFFFFF" r="1.52135"/></g><g><path d="M39.92686,38.36425h-6.23975c-0.27637,0-0.5-0.22363-0.5-0.5s0.22363-0.5,0.5-0.5h6.23975    c0.45996,0,0.83398-0.37402,0.83398-0.83398s-0.37402-0.83398-0.83398-0.83398h-0.60742    c-0.92383,0-1.67578-0.75195-1.67578-1.67578c0-0.9248,0.75195-1.67676,1.67578-1.67676c0.27637,0,0.5,0.22363,0.5,0.5    s-0.22363,0.5-0.5,0.5c-0.37256,0-0.67578,0.30371-0.67578,0.67676s0.30322,0.67578,0.67578,0.67578h0.60742    c1.01123,0,1.83398,0.82227,1.83398,1.83398S40.9381,38.36425,39.92686,38.36425z" fill="#656766"/></g></g></svg>