<?xml version="1.0" ?><svg id="Layer_1" style="enable-background:new 0 0 50 50;" version="1.1" viewBox="0 0 50 50" xml:space="preserve" xmlns="http://www.w3.org/2000/svg" xmlns:xlink="http://www.w3.org/1999/xlink"><style type="text/css">
	.st0{fill:#E56F25;}
	.st1{fill:#F58634;}
	.st2{fill:#53B1E2;}
	.st3{fill:#FBB444;}
	.st4{fill:#E7E3E6;}
	.st5{fill:#FFC966;}
	.st6{fill:#4E4C4D;}
	.st7{fill:#656766;}
	.st8{fill:#85BD57;}
	.st9{fill:#FFFFFF;}
	.st10{fill:#22A7D4;}
	.st11{fill:#E85650;}
	.st12{display:none;fill:#22A7D4;}
	.st13{display:none;opacity:0.4;fill:#FFFFFF;enable-background:new    ;}
</style><g><g><path class="st0" d="M17.4,13.7h1.2v5.5l0,0c-0.7,0-1.2-0.6-1.2-1.2V13.7z"/></g><g><path class="st0" d="M32.6,13.7h-1.2v5.5l0,0c0.7,0,1.2-0.6,1.2-1.2V13.7z"/></g><g><path class="st1" d="M32.6,16.7v-3.4c0-0.9-0.7-1.6-1.6-1.6h-2.2v5H32.6z"/></g><g><rect class="st2" height="5.5" width="9" x="20.5" y="30.1"/></g><g><path class="st2" d="M20.3,31.6c-4.2,0-7.8,3.7-8,8.5c0,0.3,0,0.6,0,0.9v1c0,2,1.4,3.7,3.2,3.7h19.2c1.8,0,3.2-1.6,3.2-3.7v-0.4    c0-0.8-0.1-1.6-0.2-2.4c-0.6-4.4-4-7.5-7.9-7.5L20.3,31.6z"/></g><g><path class="st3" d="M23.3,24c-0.7,0.8-1.4,5.2-1.6,5.9c-0.5,1.3,0.7,2.9,1.8,4c0.9,0.9,2.1,0.9,3,0c1.1-1.1,2.3-2.6,1.8-4    c-0.2-0.7-0.9-5.1-1.6-5.9C26.7,24,23.3,24,23.3,24z"/></g><g><g><path class="st4" d="M29.5,30.1L25.7,33l0.9,1.3c0.4,0.6,1.2,0.7,1.7,0.2l2.8-2.8L29.5,30.1z"/></g><g><path class="st4" d="M20.5,30.1l3.8,2.9l-0.9,1.3c-0.4,0.6-1.2,0.7-1.7,0.2L19,31.7L20.5,30.1z"/></g></g><g><path class="st5" d="M18.7,16.2v7c0,1.1,0.3,2.2,0.9,3.1l1.4,2.1c1.9,2.9,6.2,2.9,8.1,0l1.4-2.1c0.6-0.9,0.9-2,0.9-3.1v-7    c0-1.1-0.9-1.9-1.9-1.9h-8.8C19.5,14.3,18.7,15.1,18.7,16.2z"/></g><g><path class="st6" d="M32.1,22.4h-0.7v-3.2h0.7c0.5,0,0.8,0.4,0.8,0.8v1.6C32.9,22,32.5,22.4,32.1,22.4z"/></g><g><path class="st6" d="M17.9,22.4h0.7v-3.2h-0.7c-0.5,0-0.8,0.4-0.8,0.8v1.6C17.1,22,17.5,22.4,17.9,22.4z"/></g><g><path class="st6" d="M29.2,26.4h-2.5v-0.7h2.5c1.2,0,2.1-0.9,2.1-2.1v-1.9H32v1.9C32.1,25.1,30.8,26.4,29.2,26.4z"/></g><path class="st3" d="M23.1,25.7c0.3,0.8,1,1.4,1.9,1.4s1.6-0.6,1.9-1.4H23.1z"/><path class="st3" d="M25.8,23.9c-0.1-0.3-0.4-0.6-0.8-0.6s-0.7,0.3-0.8,0.6H25.8z"/><g><circle class="st7" cx="26.9" cy="26" r="1"/></g><g><path class="st1" d="M27.8,16.7h-8.9c-1.3,0-2.3-1-2.3-2.3v-3.7h11c0.9,0,1.6,0.7,1.6,1.6v3C29.2,16.1,28.6,16.7,27.8,16.7z"/></g><g><path class="st1" d="M31.6,13.1h-2.4v2.2c0,0.8,0.6,1.4,1.4,1.4h1V13.1z"/></g><g><path class="st8" d="M49,6.4v5.2c0,1.1-0.9,2-2,2h-6.6l-2.6,2.6c-0.4,0.4-1,0.1-1-0.4v-2.2H36c-1.1,0-2-0.9-2-2V6.4    c0-1.1,0.9-2,2-2h11C48.1,4.4,49,5.3,49,6.4z"/><g><circle class="st9" cx="37.7" cy="9" r="1.3"/><circle class="st9" cx="41.5" cy="9" r="1.3"/><circle class="st9" cx="45.4" cy="9" r="1.3"/></g></g><g><g><path class="st10" d="M33.2,40.4L33.2,40.4c-0.3,0-0.5,0.3-0.5,0.5v4.8h1.1v-4.8C33.7,40.7,33.4,40.4,33.2,40.4z"/></g><g><path class="st10" d="M17,40.4L17,40.4c-0.3,0-0.5,0.3-0.5,0.5v4.8h1.1v-4.8C17.6,40.7,17.3,40.4,17,40.4z"/></g></g><circle class="st4" cx="25" cy="36.9" r="0.8"/><circle class="st4" cx="25" cy="39.8" r="0.8"/><circle class="st4" cx="25" cy="42.6" r="0.8"/><circle class="st11" cx="8.4" cy="26" r="7.4"/><path class="st12" d="M29.5,22.6h-2.8c-0.8,0-1.4-0.6-1.4-1.4v-1.7c0-0.3,0.3-0.6,0.6-0.6h4.4c0.3,0,0.6,0.3,0.6,0.6v1.7   C30.9,22,30.2,22.6,29.5,22.6z"/><path class="st12" d="M23.3,22.6h-2.8c-0.8,0-1.4-0.6-1.4-1.4v-1.7c0-0.3,0.3-0.6,0.6-0.6h4.4c0.3,0,0.6,0.3,0.6,0.6v1.7   C24.7,22,24.1,22.6,23.3,22.6z"/><path class="st0" d="M29.4,20.5H27c-0.2,0-0.3-0.1-0.3-0.3l0,0c0-0.2,0.1-0.3,0.3-0.3h2.4c0.2,0,0.3,0.1,0.3,0.3l0,0   C29.7,20.3,29.6,20.5,29.4,20.5z"/><circle class="st7" cx="28.2" cy="20.8" r="0.7"/><path class="st0" d="M23,20.5h-2.4c-0.2,0-0.3-0.1-0.3-0.3l0,0c0-0.2,0.1-0.3,0.3-0.3H23c0.2,0,0.3,0.1,0.3,0.3l0,0   C23.3,20.3,23.2,20.5,23,20.5z"/><circle class="st7" cx="21.8" cy="20.8" r="0.7"/><path class="st13" d="M26.7,22c-0.4,0-0.8-0.3-0.8-0.8v-1.7h4.4v1.7c0,0.4-0.3,0.8-0.8,0.8H26.7z"/><path class="st13" d="M20.5,22c-0.4,0-0.8-0.3-0.8-0.8v-1.7h4.4v1.7c0,0.4-0.3,0.8-0.8,0.8H20.5z"/><g><path class="st9" d="M4.1,25.6c0.1-0.1,0.1-0.2,0.1-0.4s0-0.2-0.1-0.3S4,24.8,3.8,24.8S3.4,25,3.2,25.3l-0.6-0.4    c0.2-0.3,0.3-0.5,0.5-0.6s0.4-0.2,0.8-0.2s0.6,0.1,0.8,0.3C4.9,24.6,5,24.9,5,25.2c0,0.2,0,0.4-0.1,0.5s-0.3,0.4-0.5,0.6L3.8,27    h1.4v0.7H2.6v-0.6l1-1.1C3.9,25.9,4,25.7,4.1,25.6z"/><path class="st9" d="M7,26.2v-0.6h0.8v0.6h0.4v0.7H7.8v0.8H7v-0.8H5.6v-0.6l1.3-2.1h0.9l-1.2,2H7z"/><path class="st9" d="M10.6,23.7h0.7l-2.1,4.6H8.5L10.6,23.7z"/><path class="st9" d="M11.7,25.4v-1.1h2.6v0.6l-1.4,2.9H12l1.4-2.9h-0.9v0.5H11.7z"/></g></g></svg>