<?xml version="1.0" ?><!DOCTYPE svg  PUBLIC '-//W3C//DTD SVG 1.1//EN'  'http://www.w3.org/Graphics/SVG/1.1/DTD/svg11.dtd'><svg enable-background="new 0 0 200 200" height="200px" id="Layer_1" version="1.1" viewBox="0 0 200 200" width="200px" xml:space="preserve" xmlns="http://www.w3.org/2000/svg" xmlns:xlink="http://www.w3.org/1999/xlink"><g><path d="M179.65,48.185c0-1.707-0.691-3.251-1.81-4.37l-31.833-31.833c-1.118-1.117-2.663-1.81-4.367-1.81   c-1.707,0-3.252,0.693-4.372,1.81L112.304,36.95c-0.479,0.479-0.776,1.144-0.776,1.874s0.298,1.393,0.776,1.872l36.825,36.825   c0.48,0.48,1.143,0.778,1.875,0.778c0.73,0,1.392-0.298,1.872-0.778l24.965-24.965C178.959,51.437,179.65,49.892,179.65,48.185z    M140.078,41.008c-0.685,0.686-1.811,0.686-2.494,0l-6.868-6.866c-0.686-0.688-0.686-1.81,0-2.498l3.743-3.745   c0.69-0.686,1.814-0.686,2.498,0l6.868,6.868c0.686,0.686,0.686,1.811,0,2.496L140.078,41.008z M158.179,59.109   c-0.686,0.686-1.81,0.686-2.494,0l-6.867-6.868c-0.685-0.686-0.687-1.809,0-2.496l3.747-3.744c0.684-0.688,1.81-0.688,2.494,0   l6.867,6.866c0.687,0.686,0.687,1.808,0,2.496L158.179,59.109z" fill="#5E889E"/><path d="M156.461,94.687c0-0.732-0.3-1.395-0.776-1.872L97.012,34.142c-0.48-0.478-1.141-0.776-1.872-0.774   c-0.732-0.002-1.395,0.296-1.874,0.774L7.755,119.651C2.963,124.444,0,131.065,0,138.377c0,7.313,2.963,13.934,7.755,18.727   l24.969,24.967c4.791,4.792,11.412,7.757,18.724,7.757c7.313,0,13.932-2.965,18.726-7.757l85.511-85.512   C156.161,96.078,156.461,95.417,156.461,94.687z M39.484,169.066c-0.686,0.685-1.81,0.685-2.498,0l-16.226-16.229   c-0.688-0.686-0.688-1.81,0-2.498l3.745-3.743c0.686-0.686,1.808-0.688,2.496,0l16.226,16.228c0.688,0.687,0.688,1.813,0,2.496   L39.484,169.066z" fill="#5E889E"/><path d="M199.224,119.986c-0.517-0.519-1.195-0.776-1.871-0.776h-26.041v3.531c0,0.677-0.258,1.354-0.776,1.87   c-0.518,0.517-1.195,0.774-1.872,0.774h-25.597c-0.679,0-1.357-0.258-1.874-0.774s-0.776-1.193-0.776-1.87v-2.179l-28.687,28.689   v14.093c0,6.775,2.584,13.555,7.755,18.726s11.95,7.757,18.726,7.757h35.307c6.779,0,13.555-2.586,18.724-7.757   c5.174-5.171,7.76-11.95,7.76-18.726v-41.487C200,121.18,199.74,120.501,199.224,119.986z" fill="#5E889E"/></g></svg>