<?xml version="1.0" ?><!DOCTYPE svg  PUBLIC '-//W3C//DTD SVG 1.1//EN'  'http://www.w3.org/Graphics/SVG/1.1/DTD/svg11.dtd'><svg enable-background="new 0 0 200 200" height="200px" id="Layer_1" version="1.1" viewBox="0 0 200 200" width="200px" xml:space="preserve" xmlns="http://www.w3.org/2000/svg" xmlns:xlink="http://www.w3.org/1999/xlink"><path d="M191.181,82.521h-89.1V71.214c0-2.418,0.477-4.773,1.421-7c0.944-2.224,2.306-4.204,4.039-5.884l0.309-0.293  c2.137-2.07,3.815-4.511,4.976-7.249c1.164-2.744,1.752-5.647,1.752-8.623V30.855h-4.154v11.309c0,2.417-0.481,4.771-1.425,6.997  c-0.941,2.226-2.305,4.206-4.042,5.888l-0.301,0.29c-2.142,2.072-3.818,4.511-4.981,7.254c-1.162,2.742-1.755,5.642-1.755,8.621  v11.307H8.821C3.969,82.521,0,86.488,0,91.338v68.988c0,4.85,3.969,8.819,8.821,8.819h182.36c4.851,0,8.819-3.97,8.819-8.819V91.338  C200,86.488,196.031,82.521,191.181,82.521z M78.347,99.869c0-1.135,0.925-2.062,2.059-2.062h9.889c1.135,0,2.062,0.927,2.062,2.062  v9.889c0,1.135-0.927,2.063-2.062,2.063h-9.889c-1.133,0-2.059-0.928-2.059-2.063V99.869z M57.322,99.869  c0-1.135,0.931-2.062,2.064-2.062h9.892c1.133,0,2.059,0.927,2.059,2.062v9.889c0,1.135-0.925,2.063-2.059,2.063h-9.892  c-1.133,0-2.064-0.928-2.064-2.063V99.869z M57.322,120.888c0-1.134,0.931-2.061,2.064-2.061h9.892c1.133,0,2.059,0.927,2.059,2.061  v9.891c0,1.135-0.925,2.062-2.059,2.062h-9.892c-1.133,0-2.064-0.927-2.064-2.062V120.888z M36.305,99.869  c0-1.135,0.929-2.062,2.062-2.062h9.891c1.132,0,2.061,0.927,2.061,2.062v9.889c0,1.135-0.929,2.063-2.061,2.063h-9.891  c-1.133,0-2.062-0.928-2.062-2.063V99.869z M36.305,120.888c0-1.134,0.929-2.061,2.062-2.061h9.891c1.132,0,2.061,0.927,2.061,2.061  v9.891c0,1.135-0.929,2.062-2.061,2.062h-9.891c-1.133,0-2.062-0.927-2.062-2.062V120.888z M29.301,151.799  c0,1.133-0.929,2.062-2.063,2.062h-9.891c-1.133,0-2.059-0.929-2.059-2.062v-9.891c0-1.135,0.925-2.061,2.059-2.061h9.891  c1.135,0,2.063,0.926,2.063,2.061V151.799z M29.301,130.778c0,1.135-0.929,2.062-2.063,2.062h-9.891  c-1.133,0-2.059-0.927-2.059-2.062v-9.891c0-1.134,0.925-2.061,2.059-2.061h9.891c1.135,0,2.063,0.927,2.063,2.061V130.778z   M29.301,109.758c0,1.135-0.929,2.063-2.063,2.063h-9.891c-1.133,0-2.059-0.928-2.059-2.063v-9.889c0-1.135,0.925-2.062,2.059-2.062  h9.891c1.135,0,2.063,0.927,2.063,2.062V109.758z M92.357,151.799c0,1.133-0.927,2.062-2.062,2.062H38.367  c-1.133,0-2.062-0.929-2.062-2.062v-9.891c0-1.135,0.929-2.061,2.062-2.061h51.928c1.135,0,2.062,0.926,2.062,2.061V151.799z   M113.376,151.799c0,1.133-0.928,2.062-2.059,2.062h-9.893c-1.133,0-2.061-0.929-2.061-2.062v-9.891  c0-1.135,0.927-2.061,2.061-2.061h9.893c1.131,0,2.059,0.926,2.059,2.061V151.799z M113.376,130.778  c0,0.528-0.199,1.055-0.605,1.457c-0.4,0.404-0.927,0.604-1.453,0.604H80.406c-0.53,0-1.056-0.2-1.457-0.604  c-0.402-0.402-0.602-0.929-0.602-1.457v-9.891c0-0.526,0.2-1.055,0.602-1.457c0.401-0.402,0.927-0.604,1.457-0.604h18.958V99.869  c0-0.53,0.203-1.055,0.604-1.458c0.402-0.402,0.93-0.604,1.457-0.604h9.893c0.526,0,1.053,0.201,1.453,0.604  c0.406,0.404,0.605,0.929,0.605,1.458V130.778z M142.678,151.799c0,1.133-0.93,2.062-2.062,2.062h-9.891  c-1.137,0-2.061-0.929-2.061-2.062v-9.891c0-1.135,0.924-2.061,2.061-2.061h9.891c1.132,0,2.062,0.926,2.062,2.061V151.799z   M142.678,130.778c0,1.135-0.93,2.062-2.062,2.062h-9.891c-1.137,0-2.061-0.927-2.061-2.062v-9.891c0-1.134,0.924-2.061,2.061-2.061  h9.891c1.132,0,2.062,0.927,2.062,2.061V130.778z M142.678,109.758c0,1.135-0.93,2.063-2.062,2.063h-9.891  c-1.137,0-2.061-0.928-2.061-2.063v-9.889c0-1.135,0.924-2.062,2.061-2.062h9.891c1.132,0,2.062,0.927,2.062,2.062V109.758z   M163.697,151.799c0,1.133-0.928,2.062-2.063,2.062h-9.891c-1.135,0-2.062-0.929-2.062-2.062v-9.891  c0-1.135,0.927-2.061,2.062-2.061h9.891c1.135,0,2.063,0.926,2.063,2.061V151.799z M163.697,130.778  c0,1.135-0.928,2.062-2.063,2.062h-9.891c-1.135,0-2.062-0.927-2.062-2.062v-9.891c0-1.134,0.927-2.061,2.062-2.061h9.891  c1.135,0,2.063,0.927,2.063,2.061V130.778z M163.697,109.758c0,1.135-0.928,2.063-2.063,2.063h-9.891  c-1.135,0-2.062-0.928-2.062-2.063v-9.889c0-1.135,0.927-2.062,2.062-2.062h9.891c1.135,0,2.063,0.927,2.063,2.062V109.758z   M184.714,151.799c0,1.133-0.925,2.062-2.059,2.062h-9.895c-1.129,0-2.059-0.929-2.059-2.062v-9.891c0-1.135,0.93-2.061,2.059-2.061  h9.895c1.134,0,2.059,0.926,2.059,2.061V151.799z M184.714,130.778c0,1.135-0.925,2.062-2.059,2.062h-9.895  c-1.129,0-2.059-0.927-2.059-2.062v-9.891c0-1.134,0.93-2.061,2.059-2.061h9.895c1.134,0,2.059,0.927,2.059,2.061V130.778z   M184.714,109.758c0,1.135-0.925,2.063-2.059,2.063h-9.895c-1.129,0-2.059-0.928-2.059-2.063v-9.889c0-1.135,0.93-2.062,2.059-2.062  h9.895c1.134,0,2.059,0.927,2.059,2.062V109.758z" fill="#5E889E"/></svg>