<?xml version="1.0" ?><!DOCTYPE svg  PUBLIC '-//W3C//DTD SVG 1.1//EN'  'http://www.w3.org/Graphics/SVG/1.1/DTD/svg11.dtd'><svg height="64px" id="Layer_1" style="enable-background:new 0 0 64 64;" version="1.1" viewBox="0 0 64 64" width="64px" xml:space="preserve" xmlns="http://www.w3.org/2000/svg" xmlns:xlink="http://www.w3.org/1999/xlink"><g id="Shape_25_"><g><circle cx="32" cy="32" r="32" style="fill:#48A0DC;"/></g></g><g id="Google_Drive_Logo"><g><path d="M26.593,36.819l-0.099,0.176l-4.878,8.479l-0.295,0.521h0.594    h22.612h0.2l0.099-0.176l4.879-8.479L50,36.819V36H26L26.593,36.819z M50,33.999h-0.317l0.021,0.037L50,33.999z M40,33.999h9.683    L38.328,14.187l-0.1-0.175l-0.199,0.001l-9.615,0.04l-0.595,0.004l0.298,0.52L40,33.999z M31.108,24.368l-0.101-0.174    l-4.948-8.581l-0.299-0.519l-0.297,0.52L14.087,35.535l-0.1,0.175l0.101,0.175l4.948,8.582l0.298,0.518l0.297-0.52l11.378-19.922    L31.108,24.368z" style="fill-rule:evenodd;clip-rule:evenodd;fill:#FFFFFF;"/></g></g><g/><g/><g/><g/><g/><g/><g/><g/><g/><g/><g/><g/><g/><g/><g/></svg>