<?xml version="1.0" ?><!DOCTYPE svg  PUBLIC '-//W3C//DTD SVG 1.1//EN'  'http://www.w3.org/Graphics/SVG/1.1/DTD/svg11.dtd'><svg height="63.966px" id="Layer_1" style="enable-background:new 0 0 59.997 63.966;" version="1.1" viewBox="0 0 59.997 63.966" width="59.997px" xml:space="preserve" xmlns="http://www.w3.org/2000/svg" xmlns:xlink="http://www.w3.org/1999/xlink"><g id="Opera_Logo"><g><path d="M47.226,5.029C42.485,1.79,36.622,0,30.009,0c-6.05,0-11.47,1.497-15.979,4.229    C5.346,9.438,0,19.187,0,31.68c0,16.898,11.998,32.286,29.998,32.286c18.004,0,29.999-15.388,29.999-32.286    C59.997,19.801,55.166,10.402,47.226,5.029z M30.127,57.91c-10.41,0-12.132-15.242-12.132-26.518    c0-12.17,2.354-25.428,12.013-25.428c9.656,0,11.995,13.404,11.995,25.576C42.003,42.816,40.536,57.91,30.127,57.91z" style="fill:#ED7161;"/></g></g><g/><g/><g/><g/><g/><g/><g/><g/><g/><g/><g/><g/><g/><g/><g/></svg>