<?xml version="1.0" ?><!DOCTYPE svg  PUBLIC '-//W3C//DTD SVG 1.1//EN'  'http://www.w3.org/Graphics/SVG/1.1/DTD/svg11.dtd'><svg height="64.001px" id="Layer_1" style="enable-background:new 0 0 64 64.001;" version="1.1" viewBox="0 0 64 64.001" width="64px" xml:space="preserve" xmlns="http://www.w3.org/2000/svg" xmlns:xlink="http://www.w3.org/1999/xlink"><g id="Shape_70_"><g><circle cx="32" cy="32" r="32" style="fill:#ED7161;"/></g></g><g id="Path_Logo"><g><path d="M38.86,17.597c0,0-12.774-5.226-20.321,3.473c-5.813,8.082,0.13,15.546,0.13,15.546l3.947-3.577    c0,0-2.95-3.576-0.65-7.553c3.036-4.989,9.152-4.593,9.152-4.593s10.758,0.037,9.587,8.436C39.623,37.083,32.017,35.169,32,34    c-0.034-1.255,0-8,0-8l-6.053,0.034v15.748C25.169,43.999,23.589,43.6,22,42v3.999c0,0,2.829,2.85,6.038,1.656    C31.248,46.463,32,44,32,44v-4c0,0,8.661,2.444,13.346-7.448C48.729,21.688,38.86,17.597,38.86,17.597z" style="fill:#FFFFFF;"/></g></g><g/><g/><g/><g/><g/><g/><g/><g/><g/><g/><g/><g/><g/><g/><g/></svg>