<?xml version="1.0" ?><!DOCTYPE svg  PUBLIC '-//W3C//DTD SVG 1.1//EN'  'http://www.w3.org/Graphics/SVG/1.1/DTD/svg11.dtd'><svg height="63.995px" id="Layer_1" style="enable-background:new 0 0 64.003 63.995;" version="1.1" viewBox="0 0 64.003 63.995" width="64.003px" xml:space="preserve" xmlns="http://www.w3.org/2000/svg" xmlns:xlink="http://www.w3.org/1999/xlink"><g id="Shape_55_"><g><circle cx="32.001" cy="31.998" r="31.998" style="fill:#48A0DC;"/></g></g><g id="Dropbox_Logo"><g><path d="M16.062,33.977l9.413,5.928l6.587-5.301l-9.491-5.655    L16.062,33.977z M25.475,17.991l-9.413,5.926l6.509,5.031l9.491-5.655L25.475,17.991z M48.063,23.917l-9.413-5.926l-6.588,5.302    l9.492,5.655L48.063,23.917z M32.062,34.604l6.588,5.301l9.413-5.928l-6.509-5.028L32.062,34.604z M32.056,38.775l-6.724,4.64    l-2.876-1.563v3.353l9.6,4.787l9.599-4.787v-3.353l-2.877,1.563L32.056,38.775z" style="fill-rule:evenodd;clip-rule:evenodd;fill:#FFFFFF;"/></g></g><g/><g/><g/><g/><g/><g/><g/><g/><g/><g/><g/><g/><g/><g/><g/></svg>