<?xml version="1.0" ?><!DOCTYPE svg  PUBLIC '-//W3C//DTD SVG 1.1//EN'  'http://www.w3.org/Graphics/SVG/1.1/DTD/svg11.dtd'><svg height="36.021px" id="Layer_1" style="enable-background:new 0 0 63.977 36.021;" version="1.1" viewBox="0 0 63.977 36.021" width="63.977px" xml:space="preserve" xmlns="http://www.w3.org/2000/svg" xmlns:xlink="http://www.w3.org/1999/xlink"><g id="Deviant_Art_Logo"><g><path d="M60.938,20.495c-1.764-2.412-4.171-4.515-7.236-6.288    c-5.883-3.36-11.214-5.203-21.729-5.203V0.012L21.982,0v10c-4.683,0.852-8.104,2.145-11.704,4.207    c-3.059,1.773-5.507,3.876-7.296,6.288C1.025,23.184,0,26.206,0,29.238v6.782h31.973V13.77c6.46,0,13.668,1.922,18.085,5.733    c2.569,2.211,5.081,5.817,5.925,8.496h-12v-6c-2.738-2.757-8-1.999-8-1.999v16l27.994,0.021v-6.782    C63.977,26.206,62.919,23.184,60.938,20.495z M21.982,27.999h-12c0.867-2.679,2.304-6.285,4.887-8.496    c2.271-1.928,4.148-2.504,7.113-3.502V27.999z" style="fill-rule:evenodd;clip-rule:evenodd;fill:#88C057;"/></g></g><g/><g/><g/><g/><g/><g/><g/><g/><g/><g/><g/><g/><g/><g/><g/></svg>