<?xml version="1.0" ?><!DOCTYPE svg  PUBLIC '-//W3C//DTD SVG 1.1//EN'  'http://www.w3.org/Graphics/SVG/1.1/DTD/svg11.dtd'><svg height="63.999px" id="Layer_1" style="enable-background:new 0 0 64 63.999;" version="1.1" viewBox="0 0 64 63.999" width="64px" xml:space="preserve" xmlns="http://www.w3.org/2000/svg" xmlns:xlink="http://www.w3.org/1999/xlink"><g id="Shape_69_"><g><circle cx="32" cy="32" r="32" style="fill:#666666;"/></g></g><g id="Tumblr_Logo"><g><path d="M36.926,42.757c-2.742,0-4.896-2.133-4.896-3.778c0-0.728,0-4.115,0-8.993h5.947v-5.868h-5.947    c0-4.199,0-6.119,0-6.119s-1.875,0-4.068,0c0,6.95-5.973,6.364-5.973,6.364v5.623h4.027c0,0,0,6.799,0,10.759    c0,3.963,3.658,7.254,8.107,7.254s5.889-1.767,5.889-1.767v-5.242C40.012,40.989,39.67,42.757,36.926,42.757z" style="fill:#FFFFFF;"/></g></g><g/><g/><g/><g/><g/><g/><g/><g/><g/><g/><g/><g/><g/><g/><g/></svg>