<?xml version="1.0" ?><svg viewBox="0 0 32 32" xmlns="http://www.w3.org/2000/svg"><defs><style>.cls-1{fill:#d8e1ef;}.cls-2{fill:#0593ff;}</style></defs><title/><g data-name="Card Cancel" id="Card_Cancel"><rect class="cls-1" height="18" rx="3" ry="3" width="26" x="2" y="6"/><rect class="cls-2" height="3" width="26" x="2" y="10"/><path class="cls-2" d="M10,20H7a1,1,0,0,1,0-2h3a1,1,0,0,1,0,2Z"/><path class="cls-2" d="M28.41,23l1.3-1.29a1,1,0,0,0-1.42-1.42L27,21.59l-1.29-1.3a1,1,0,0,0-1.42,1.42L25.59,23l-1.3,1.29a1,1,0,0,0,1.42,1.42L27,24.41l1.29,1.3a1,1,0,0,0,1.42-1.42Z"/></g></svg>