<?xml version="1.0" ?><svg viewBox="0 0 32 32" xmlns="http://www.w3.org/2000/svg"><defs><style>.cls-1{fill:#d8e1ef;}.cls-2{fill:#0593ff;}</style></defs><title/><g data-name="Shield Yes" id="Shield_Yes"><path class="cls-1" d="M27,6C18.51,6,15.84,2.46,15.82,2.43A1,1,0,0,0,15,2a1.06,1.06,0,0,0-.83.42S11.49,6,3,6A1,1,0,0,0,2,7v8.76c0,9.25,7.11,12,11.36,13.66l1.26.5a.94.94,0,0,0,.76,0l1.26-.5C20.89,27.77,28,25,28,15.76V7A1,1,0,0,0,27,6Z"/><path class="cls-2" d="M15,20a1,1,0,0,1-.71-.29l-3-3a1,1,0,0,1,1.42-1.42l2.43,2.43L28.46,9.16a1,1,0,0,1,1.08,1.68l-14,9A1,1,0,0,1,15,20Z"/></g></svg>