<?xml version="1.0" ?><svg viewBox="0 0 32 32" xmlns="http://www.w3.org/2000/svg"><defs><style>.cls-1{fill:#d8e1ef;}.cls-2{fill:#0593ff;}.cls-3{fill:#0e6ae0;}</style></defs><title/><g data-name="Browser Shield" id="Browser_Shield"><rect class="cls-1" height="24" rx="4" ry="4" width="28" x="2" y="4"/><path class="cls-2" d="M30,8v2H2V8A4,4,0,0,1,6,4H26A4,4,0,0,1,30,8Z"/><circle class="cls-3" cx="13" cy="7" r="1"/><circle class="cls-3" cx="10" cy="7" r="1"/><circle class="cls-3" cx="7" cy="7" r="1"/><path class="cls-2" d="M21,15c-3.24,0-4.08-1.41-4.11-1.45A1,1,0,0,0,16,13h0a1,1,0,0,0-.87.52s-.66,1.1-2.92,1.4A9.12,9.12,0,0,1,11,15a1,1,0,0,0-1,1v1.94a7,7,0,0,0,4.4,6.5l1.23.49a1,1,0,0,0,.74,0l1.23-.49a7,7,0,0,0,4.4-6.5V16A1,1,0,0,0,21,15Z"/></g></svg>