<?xml version="1.0" ?><svg viewBox="0 0 32 32" xmlns="http://www.w3.org/2000/svg"><defs><style>.cls-1{fill:#d8e1ef;}.cls-2{fill:#0e6ae0;}.cls-3{fill:#0593ff;}</style></defs><title/><g data-name="Cloud Lock" id="Cloud_Lock"><path class="cls-1" d="M21.5,9A6.48,6.48,0,0,0,19,9.52,6,6,0,0,0,7.5,12a2.18,2.18,0,0,0,0,.25A5,5,0,0,0,9,22H21.5a6.5,6.5,0,0,0,0-13Z"/><path class="cls-2" d="M18,18H14a1,1,0,0,1-1-1V16a3,3,0,0,1,6,0v1A1,1,0,0,1,18,18Zm-3-2h2a1,1,0,0,0-2,0Z"/><rect class="cls-3" height="10" rx="3" ry="3" width="10" x="11" y="16"/><path class="cls-2" d="M16,23a2,2,0,1,1,2-2A2,2,0,0,1,16,23Zm0-2h0Zm0,0h0Zm0,0h0Zm0,0h0Zm0,0h0Zm0,0h0Zm0,0h0Zm0,0h0Z"/></g></svg>