<?xml version="1.0" ?><svg viewBox="0 0 32 32" xmlns="http://www.w3.org/2000/svg"><defs><style>.cls-1{fill:#d8e1ef;}.cls-2{fill:#0593ff;}.cls-3{fill:#0e6ae0;}</style></defs><title/><g data-name="Laptop Lock" id="Laptop_Lock"><rect class="cls-1" height="20" rx="1" ry="1" width="24" x="4" y="3"/><path class="cls-2" d="M29.85,21.47A1,1,0,0,0,29,21H3a1,1,0,0,0-.89,1.45l3,6A1,1,0,0,0,6,29H26a1,1,0,0,0,.89-.55l3-6A1,1,0,0,0,29.85,21.47Z"/><path class="cls-3" d="M19,11H13a1,1,0,0,1-1-1V9a4,4,0,0,1,8,0v1A1,1,0,0,1,19,11ZM14,9h4a2,2,0,0,0-4,0Z"/><rect class="cls-2" height="10" rx="2" ry="2" width="12" x="10" y="9"/><path class="cls-3" d="M16,16a2,2,0,1,1,2-2A2,2,0,0,1,16,16Zm0-2Z"/></g></svg>