<?xml version="1.0" ?><svg viewBox="0 0 32 32" xmlns="http://www.w3.org/2000/svg"><defs><style>.cls-1{fill:#0e6ae0;}.cls-2{fill:#d8e1ef;}.cls-3{fill:#0593ff;}.cls-4{fill:#0c48bf;}</style></defs><title/><g data-name="Search Virus" id="Search_Virus"><path class="cls-1" d="M22,23a1,1,0,0,1-.71-.29l-1.93-1.93a1,1,0,0,1,1.42-1.42l1.93,1.93a1,1,0,0,1,0,1.42A1,1,0,0,1,22,23Z"/><circle class="cls-2" cx="13" cy="13" r="11"/><path class="cls-3" d="M28.21,23.79l-3.5-3.5a1,1,0,0,0-1.42,0l-3,3a1,1,0,0,0,0,1.42l3.5,3.5a3.14,3.14,0,0,0,4.42,0A3.14,3.14,0,0,0,28.21,23.79Z"/><path class="cls-4" d="M14,10a1,1,0,0,1-.71-.29,1,1,0,0,1,0-1.42l1-1a1,1,0,1,1,1.42,1.42l-1,1A1,1,0,0,1,14,10Z"/><path class="cls-4" d="M12,10a1,1,0,0,1-.71-.29l-1-1a1,1,0,1,1,1.42-1.42l1,1a1,1,0,0,1,0,1.42A1,1,0,0,1,12,10Z"/><path class="cls-1" d="M16,13a1,1,0,0,1-.89-.55,1,1,0,0,1,.44-1.34l2-1a1,1,0,1,1,.9,1.78l-2,1A.93.93,0,0,1,16,13Z"/><path class="cls-1" d="M10,13a.93.93,0,0,1-.45-.11l-2-1a1,1,0,1,1,.9-1.78l2,1a1,1,0,0,1,.44,1.34A1,1,0,0,1,10,13Z"/><path class="cls-1" d="M18,18a.93.93,0,0,1-.45-.11l-2-1a1,1,0,1,1,.9-1.78l2,1a1,1,0,0,1,.44,1.34A1,1,0,0,1,18,18Z"/><path class="cls-1" d="M8,18a1,1,0,0,1-.89-.55,1,1,0,0,1,.44-1.34l2-1a1,1,0,0,1,.9,1.78l-2,1A.93.93,0,0,1,8,18Z"/><path class="cls-1" d="M18,15H16a1,1,0,0,1,0-2h2a1,1,0,0,1,0,2Z"/><path class="cls-1" d="M10,15H8a1,1,0,0,1,0-2h2a1,1,0,0,1,0,2Z"/><path class="cls-1" d="M13,8a3,3,0,0,0-3,3v1a1,1,0,0,0,1,1h4a1,1,0,0,0,1-1V11A3,3,0,0,0,13,8Z"/><path class="cls-4" d="M16,11v1a1,1,0,0,1-1,1H11a1,1,0,0,1-1-1V11a2.77,2.77,0,0,1,.18-1h5.64A2.77,2.77,0,0,1,16,11Z"/><path class="cls-3" d="M16,11H10a1,1,0,0,0-1,1v2a4,4,0,0,0,8,0V12A1,1,0,0,0,16,11Z"/><path class="cls-1" d="M14,11v6.87a3.91,3.91,0,0,1-2,0V11Z"/></g></svg>