<?xml version="1.0" ?><svg viewBox="0 0 32 32" xmlns="http://www.w3.org/2000/svg"><defs><style>.cls-1{fill:#d8e1ef;}.cls-2{fill:#0e6ae0;}.cls-3{fill:#0593ff;}</style></defs><title/><g data-name="Home Unlock" id="Home_Unlock"><path class="cls-1" d="M26.45,9.11l-10-5a1,1,0,0,0-.9,0l-10,5A1,1,0,0,0,5,10V25a3,3,0,0,0,3,3H24a3,3,0,0,0,3-3V10A1,1,0,0,0,26.45,9.11Z"/><path class="cls-2" d="M17,16H13a1,1,0,0,1-1-1V14a4,4,0,0,1,4-4,4,4,0,0,1,3,1.34,1,1,0,0,1-1.5,1.32A2,2,0,0,0,16,12a2,2,0,0,0-2,2h3a1,1,0,0,1,0,2Z"/><path class="cls-3" d="M28,12a.93.93,0,0,1-.45-.11L16,6.12,4.45,11.89a1,1,0,0,1-.9-1.78l12-6a1,1,0,0,1,.9,0l12,6a1,1,0,0,1,.44,1.34A1,1,0,0,1,28,12Z"/><rect class="cls-3" height="10" rx="2" ry="2" width="12" x="10" y="14"/><path class="cls-2" d="M16,21a2,2,0,1,1,2-2A2,2,0,0,1,16,21Zm0-2Z"/></g></svg>