<?xml version="1.0" ?><svg viewBox="0 0 32 32" xmlns="http://www.w3.org/2000/svg"><defs><style>.cls-1{fill:#d8e1ef;}.cls-2{fill:#0593ff;}</style></defs><title/><g data-name="Cloud Shield" id="Cloud_Shield"><path class="cls-1" d="M21.5,9A6.48,6.48,0,0,0,19,9.52,6,6,0,0,0,7.5,12a2.18,2.18,0,0,0,0,.25A5,5,0,0,0,9,22H21.5a6.5,6.5,0,0,0,0-13Z"/><path class="cls-2" d="M21,16c-3.24,0-4.08-1.41-4.11-1.45A1,1,0,0,0,16,14a1,1,0,0,0-.9.52s-.66,1.1-2.92,1.4A9.12,9.12,0,0,1,11,16a1,1,0,0,0-1,1v1.94a7,7,0,0,0,4.4,6.5l1.23.49a1,1,0,0,0,.74,0l1.23-.49a7,7,0,0,0,4.4-6.5V17A1,1,0,0,0,21,16Z"/></g></svg>