<?xml version="1.0" ?><svg viewBox="0 0 32 32" xmlns="http://www.w3.org/2000/svg"><defs><style>.cls-1{fill:#0e6ae0;}.cls-2{fill:#0593ff;}.cls-3{fill:#d8e1ef;}</style></defs><title/><g id="Web"><path d="M22,17H10a1,1,0,0,1,0-2H22a1,1,0,0,1,0,2Z"/><path class="cls-1" d="M16,26a1,1,0,0,1-1-1V22a1,1,0,0,1,2,0v3A1,1,0,0,1,16,26Z"/><path class="cls-1" d="M16,11a1,1,0,0,1-1-1V7a1,1,0,0,1,2,0v3A1,1,0,0,1,16,11Z"/><path class="cls-1" d="M10,17H7a1,1,0,0,1,0-2h3a1,1,0,0,1,0,2Z"/><path class="cls-1" d="M25,17H22a1,1,0,0,1,0-2h3a1,1,0,0,1,0,2Z"/><circle class="cls-2" cx="16" cy="5" r="3"/><circle class="cls-2" cx="16" cy="27" r="3"/><circle class="cls-2" cx="27" cy="16" r="3"/><circle class="cls-2" cx="5" cy="16" r="3"/><circle class="cls-3" cx="16" cy="16" r="7"/><path class="cls-2" d="M23,16a5.55,5.55,0,0,1-.08,1H21a12,12,0,0,1-1.68,5.18,6.69,6.69,0,0,1-3.14.81A10,10,0,0,0,19,17h-5.9a10,10,0,0,0,2.81,6,6.69,6.69,0,0,1-3.14-.81A12,12,0,0,1,11,17h-2a6.29,6.29,0,0,1,0-2h2a12,12,0,0,1,1.68-5.18A6.69,6.69,0,0,1,15.86,9a10,10,0,0,0-2.81,6H19a10,10,0,0,0-2.81-6,6.69,6.69,0,0,1,3.14.81A12,12,0,0,1,21,15h2A5.55,5.55,0,0,1,23,16Z"/></g></svg>