<?xml version="1.0" ?><svg viewBox="0 0 32 32" xmlns="http://www.w3.org/2000/svg"><defs><style>.cls-1{fill:#d8e1ef;}.cls-2{fill:#0593ff;}</style></defs><title/><g data-name="Shiled Cancel" id="Shiled_Cancel"><path class="cls-1" d="M28,6C19.51,6,16.84,2.46,16.82,2.43A1,1,0,0,0,16,2a1.08,1.08,0,0,0-.83.42S12.49,6,4,6A1,1,0,0,0,3,7v8.76c0,9.25,7.11,12,11.36,13.66l1.26.5a.94.94,0,0,0,.76,0l1.26-.5C21.89,27.77,29,25,29,15.76V7A1,1,0,0,0,28,6Z"/><path class="cls-2" d="M17.41,16l2.3-2.29a1,1,0,0,0-1.42-1.42L16,14.59l-2.29-2.3a1,1,0,0,0-1.42,1.42L14.59,16l-2.3,2.29a1,1,0,0,0,0,1.42,1,1,0,0,0,1.42,0L16,17.41l2.29,2.3a1,1,0,0,0,1.42,0,1,1,0,0,0,0-1.42Z"/></g></svg>