<?xml version="1.0" ?><svg viewBox="0 0 32 32" xmlns="http://www.w3.org/2000/svg"><defs><style>.cls-1{fill:#0593ff;}.cls-2{fill:#0e6ae0;}.cls-3{fill:#d8e1ef;}</style></defs><title/><g id="Warning"><path class="cls-1" d="M16,9a8,8,0,0,0-8,8v6a1,1,0,0,0,1,1H23a1,1,0,0,0,1-1V17A8,8,0,0,0,16,9Z"/><path class="cls-2" d="M16,7a1,1,0,0,1-1-1V4a1,1,0,0,1,2,0V6A1,1,0,0,1,16,7Z"/><path class="cls-2" d="M8.22,10.22a1,1,0,0,1-.71-.29L6.1,8.51A1,1,0,0,1,7.51,7.1L8.93,8.51a1,1,0,0,1,0,1.42A1,1,0,0,1,8.22,10.22Z"/><path class="cls-2" d="M5,18H3a1,1,0,0,1,0-2H5a1,1,0,0,1,0,2Z"/><path class="cls-2" d="M23.78,10.22a1,1,0,0,1-.71-.29,1,1,0,0,1,0-1.42L24.49,7.1A1,1,0,1,1,25.9,8.51L24.49,9.93A1,1,0,0,1,23.78,10.22Z"/><path class="cls-2" d="M29,18H27a1,1,0,0,1,0-2h2a1,1,0,0,1,0,2Z"/><path class="cls-2" d="M20,18a1,1,0,0,1-1-1,3,3,0,0,0-3-3,1,1,0,0,1,0-2,5,5,0,0,1,5,5A1,1,0,0,1,20,18Z"/><rect class="cls-3" height="7" rx="2" ry="2" width="22" x="5" y="22"/></g></svg>