<?xml version="1.0" ?><svg viewBox="0 0 32 32" xmlns="http://www.w3.org/2000/svg"><defs><style>.cls-1{fill:#d8e1ef;}.cls-2{fill:#0593ff;}</style></defs><title/><g data-name="Phone Shield" id="Phone_Shield"><rect class="cls-1" height="26" rx="3" ry="3" width="18" x="7" y="3"/><path class="cls-2" d="M20.42,3,18.71,4.71A1,1,0,0,1,18,5H14a1,1,0,0,1-.71-.29L11.58,3Z"/><path class="cls-2" d="M20,12a3.39,3.39,0,0,1-3.11-1.46A1,1,0,0,0,16,10a1,1,0,0,0-.9.53A3.38,3.38,0,0,1,12,12a1,1,0,0,0-1,1v2.91a6,6,0,0,0,3.32,5.37l1.23.61a1,1,0,0,0,.9,0l1.23-.61A6,6,0,0,0,21,15.91V13A1,1,0,0,0,20,12Z"/></g></svg>