<?xml version="1.0" ?><svg viewBox="0 0 32 32" xmlns="http://www.w3.org/2000/svg"><defs><style>.cls-1{fill:#0593ff;}.cls-2{fill:#0e6ae0;}.cls-3{fill:#d8e1ef;}</style></defs><title/><g data-name="Flash Disk" id="Flash_Disk"><rect class="cls-1" height="9" rx="1" ry="1" width="12" x="10" y="2"/><path class="cls-2" d="M14,7a1,1,0,0,1-1-1V5a1,1,0,0,1,2,0V6A1,1,0,0,1,14,7Z"/><path class="cls-2" d="M18,7a1,1,0,0,1-1-1V5a1,1,0,0,1,2,0V6A1,1,0,0,1,18,7Z"/><rect class="cls-3" height="21" rx="3" ry="3" width="16" x="8" y="9"/><path class="cls-1" d="M16,22a1,1,0,0,1-1-1V15a1,1,0,0,1,2,0v6A1,1,0,0,1,16,22Z"/><path class="cls-1" d="M16,25a1,1,0,1,1,1-1A1,1,0,0,1,16,25Z"/></g></svg>