<?xml version="1.0" ?><svg viewBox="0 0 32 32" xmlns="http://www.w3.org/2000/svg"><defs><style>.cls-1{fill:#d8e1ef;}.cls-2{fill:#0593ff;}</style></defs><title/><g data-name="Laptop Shield" id="Laptop_Shield"><rect class="cls-1" height="20" rx="1" ry="1" width="24" x="4" y="3"/><path class="cls-2" d="M21,8c-3.24,0-4.08-1.41-4.11-1.45A1,1,0,0,0,16,6a1,1,0,0,0-.9.52,3.45,3.45,0,0,1-2.36,1.3A8.69,8.69,0,0,1,11,8a1,1,0,0,0-1,1v1.94a7,7,0,0,0,4.4,6.5l1.23.49a1,1,0,0,0,.74,0l1.23-.49a7,7,0,0,0,4.4-6.5V9A1,1,0,0,0,21,8Z"/><path class="cls-2" d="M29.85,21.47A1,1,0,0,0,29,21H3a1,1,0,0,0-.89,1.45l3,6A1,1,0,0,0,6,29H26a1,1,0,0,0,.89-.55l3-6A1,1,0,0,0,29.85,21.47Z"/></g></svg>