<?xml version="1.0" ?><svg viewBox="0 0 32 32" xmlns="http://www.w3.org/2000/svg"><defs><style>.cls-1{fill:#bcc7d8;}.cls-2{fill:#d8e1ef;}.cls-3{fill:#0593ff;}.cls-4{fill:#0e6ae0;}</style></defs><title/><g data-name="Router Lock" id="Router_Lock"><path class="cls-1" d="M16,21a1,1,0,0,1-1-1V12a1,1,0,0,1,2,0v8A1,1,0,0,1,16,21Z"/><rect class="cls-2" height="8" rx="3" ry="3" width="28" x="2" y="19"/><path class="cls-3" d="M26,24H25a1,1,0,0,1,0-2h1a1,1,0,0,1,0,2Z"/><path class="cls-3" d="M22,24H21a1,1,0,0,1,0-2h1a1,1,0,0,1,0,2Z"/><path class="cls-3" d="M19,13a1,1,0,0,1-1-1,2,2,0,0,0-2-2,1,1,0,0,1,0-2,4,4,0,0,1,4,4A1,1,0,0,1,19,13Z"/><path class="cls-3" d="M22,13a1,1,0,0,1-1-1,5,5,0,0,0-5-5,1,1,0,0,1,0-2,7,7,0,0,1,7,7A1,1,0,0,1,22,13Z"/><path class="cls-3" d="M25,13a1,1,0,0,1-1-1,8,8,0,0,0-8-8,1,1,0,0,1,0-2A10,10,0,0,1,26,12,1,1,0,0,1,25,13Z"/><path class="cls-3" d="M10,30H7a1,1,0,0,1,0-2h3a1,1,0,0,1,0,2Z"/><path class="cls-3" d="M25,30H22a1,1,0,0,1,0-2h3a1,1,0,0,1,0,2Z"/><path class="cls-4" d="M9,14H5a1,1,0,0,1-1-1V11a3,3,0,0,1,6,0v2A1,1,0,0,1,9,14ZM6,12H8V11a1,1,0,0,0-2,0Z"/><rect class="cls-3" height="10" rx="3" ry="3" width="10" x="2" y="12"/><path class="cls-4" d="M7,19a2,2,0,1,1,2-2A2,2,0,0,1,7,19Zm0-2Z"/></g></svg>