<?xml version="1.0" ?><svg viewBox="0 0 32 32" xmlns="http://www.w3.org/2000/svg"><defs><style>.cls-1{fill:#d8e1ef;}.cls-2{fill:#0593ff;}.cls-3{fill:#0e6ae0;}</style></defs><title/><g data-name="Email Notice" id="Email_Notice"><path class="cls-1" d="M21,5H5A3,3,0,0,0,2,8V19a3,3,0,0,0,3,3H23a1,1,0,0,0,1-1V8A3,3,0,0,0,21,5Z"/><path class="cls-2" d="M13,14a1,1,0,0,1-.45-.11l-6-3a1,1,0,1,1,.9-1.78L13,11.88l5.55-2.77a1,1,0,1,1,.9,1.78l-6,3A1,1,0,0,1,13,14Z"/><circle class="cls-2" cx="23" cy="20" r="7"/><path class="cls-3" d="M23,21a1,1,0,0,1-1-1V17a1,1,0,0,1,2,0v3A1,1,0,0,1,23,21Z"/><path class="cls-3" d="M23,24a1,1,0,0,1-1-1,1,1,0,0,1,2,0A1,1,0,0,1,23,24Z"/></g></svg>