<?xml version="1.0" ?><svg id="Layer_1" style="enable-background:new 0 0 500 500;" version="1.1" viewBox="0 0 500 500" xml:space="preserve" xmlns="http://www.w3.org/2000/svg" xmlns:xlink="http://www.w3.org/1999/xlink"><style type="text/css">
	.st0{fill:url(#SVGID_1_);}
	.st1{fill:url(#SVGID_2_);}
	.st2{fill:url(#SVGID_3_);}
	.st3{fill:url(#SVGID_4_);}
	.st4{fill:url(#SVGID_5_);}
	.st5{fill:url(#SVGID_6_);}
	.st6{fill:url(#SVGID_7_);}
	.st7{fill:url(#SVGID_8_);}
	.st8{fill:url(#SVGID_9_);}
	.st9{fill:url(#SVGID_10_);}
	.st10{fill:url(#SVGID_11_);}
	.st11{fill:url(#SVGID_12_);}
	.st12{fill:url(#SVGID_13_);}
	.st13{fill:url(#SVGID_14_);}
	.st14{fill:url(#SVGID_15_);}
	.st15{fill:url(#SVGID_16_);}
	.st16{fill:url(#SVGID_17_);}
	.st17{fill:url(#SVGID_18_);}
	.st18{fill:url(#SVGID_19_);}
	.st19{opacity:0.5;fill:url(#SVGID_20_);}
	.st20{opacity:0.5;fill:url(#SVGID_21_);}
	.st21{opacity:0.7;fill:url(#SVGID_22_);}
	.st22{opacity:0.7;fill:url(#SVGID_23_);}
	.st23{opacity:0.7;fill:url(#SVGID_24_);}
	.st24{opacity:0.7;fill:url(#SVGID_25_);}
	.st25{opacity:0.7;fill:url(#SVGID_26_);}
	.st26{opacity:0.7;fill:url(#SVGID_27_);}
	.st27{opacity:0.5;fill:url(#SVGID_28_);}
	.st28{opacity:0.5;fill:url(#SVGID_29_);}
	.st29{opacity:0.5;fill:url(#SVGID_30_);}
	.st30{opacity:0.5;fill:url(#SVGID_31_);}
	.st31{opacity:0.5;fill:url(#SVGID_32_);}
	.st32{opacity:0.5;fill:url(#SVGID_33_);}
	.st33{opacity:0.5;fill:url(#SVGID_34_);}
	.st34{opacity:0.5;fill:url(#SVGID_35_);}
	.st35{opacity:0.5;fill:url(#SVGID_36_);}
	.st36{opacity:0.5;fill:url(#SVGID_37_);}
</style><g><path d="M33.83,256.89c-1.81-4.54-2.71-10.08-2.71-16.63c0-6.55,0.9-12.09,2.71-16.63c1.81-4.54,4.26-7.93,7.34-10.17   c3.08-2.24,6.25-3.83,9.51-4.76c3.26-0.93,6.82-1.39,10.69-1.39c6.2,0,13.09,1.5,20.67,4.5v14.36c-6.45-3.1-13.03-4.65-19.73-4.65   c-4.44,0-7.98,1.36-10.62,4.08c-2.64,2.72-3.96,7.61-3.96,14.66c0,7.05,1.32,11.94,3.96,14.66c2.64,2.72,6.18,4.08,10.62,4.08   c6.7,0,13.28-1.55,19.73-4.65v14.36c-7.62,3-14.51,4.5-20.67,4.5c-3.87,0-7.43-0.46-10.69-1.39c-3.26-0.93-6.43-2.51-9.51-4.76   C38.08,264.82,35.64,261.43,33.83,256.89z"/><path d="M150.91,247.15c-0.09-0.28-0.18-0.56-0.27-0.84c-1.19,3.6-2.7,6.49-4.52,8.67c-1.97,2.35-4.32,4.27-7.05,5.76   c-0.98,0.54-1.96,1.01-2.94,1.42c-0.13,6.38-1.37,10.85-3.72,13.4c-2.49,2.71-5.79,4.06-9.91,4.06c-4.12,0-7.43-1.35-9.91-4.06   c-2.34-2.55-3.58-7.02-3.72-13.4c-0.97-0.41-1.95-0.88-2.94-1.42c-2.74-1.49-5.09-3.41-7.05-5.76c-1.83-2.18-3.34-5.07-4.52-8.67   c-0.09,0.28-0.18,0.55-0.27,0.84c-1.23,4-1.84,8.61-1.84,13.83c0,5.22,0.61,9.83,1.84,13.83c1.23,4,2.82,7.17,4.79,9.51   c1.97,2.34,4.32,4.26,7.05,5.76c2.74,1.49,5.43,2.49,8.07,3c2.64,0.5,5.47,0.75,8.5,0.75c3.02,0,5.85-0.25,8.5-0.75   c2.64-0.5,5.33-1.5,8.07-3c2.74-1.49,5.09-3.41,7.05-5.76c1.97-2.34,3.56-5.51,4.79-9.51c1.23-4,1.84-8.61,1.84-13.83   C152.75,255.76,152.13,251.15,150.91,247.15z"/><path d="M157.8,208.08h17.75l14.44,45.64l14.4-45.64h17.79l-24.59,64.47h-15.06L157.8,208.08z"/><path d="M232.89,272.55v-64.47h16.61v64.47H232.89z"/><path d="M266.21,272.55v-64.47h23.22c9.97,0,17.57,2.74,22.8,8.23c5.22,5.48,7.84,13.52,7.84,24.11c0,10.49-2.61,18.48-7.84,23.94   c-5.22,5.47-12.82,8.2-22.8,8.2H266.21z M282.83,259h6.61c9.35,0,14.02-6.2,14.02-18.6c0-12.52-4.67-18.79-14.02-18.79h-6.61V259z"/><path d="M333.57,248.29v-11.33h29.45v11.33H333.57z"/><path d="M380.72,232.9v-16.33l13.45-8.5h13.59v64.47h-16.61v-46.02L380.72,232.9z"/><path d="M421.21,230.64c0-2.81,0.43-5.55,1.29-8.21c0.86-2.66,2.2-5.14,4-7.44c1.8-2.3,4.29-4.15,7.46-5.56   c3.17-1.41,6.81-2.11,10.92-2.11c16,0,24,10.15,24,30.45c0,6.09-0.78,11.42-2.32,15.99c-1.55,4.57-3.41,8.06-5.57,10.46   c-2.17,2.4-4.74,4.32-7.73,5.77c-2.99,1.45-5.6,2.37-7.82,2.74c-2.23,0.38-4.48,0.57-6.76,0.57c-5.51,0-9.86-0.77-13.05-2.31   v-14.02c4.54,1.42,8.45,2.12,11.73,2.12c3.63,0,6.96-0.8,9.99-2.41c3.03-1.61,4.76-4.1,5.21-7.47c-2.11,0.86-5.11,1.29-9,1.29   c-3.01,0-5.68-0.24-8-0.73c-2.32-0.49-4.65-1.36-6.99-2.63c-2.34-1.26-4.15-3.3-5.43-6.1   C421.86,238.24,421.21,234.77,421.21,230.64z M437.83,230.73c0,2.44,0.6,4.59,1.8,6.46c1.2,1.86,3.01,2.79,5.45,2.79   c3.09,0,5.49-0.36,7.2-1.08c0-0.44,0-0.88,0-1.31c0-4.98-0.68-8.84-2.04-11.6c-1.48-2.97-3.27-4.46-5.35-4.46   c-1.93,0-3.47,0.71-4.64,2.11c-1.17,1.41-1.86,2.71-2.08,3.9C437.94,228.73,437.83,229.79,437.83,230.73z"/><g><radialGradient cx="122.4931" cy="239.6012" gradientUnits="userSpaceOnUse" id="SVGID_1_" r="25.3259"><stop offset="2.024560e-07" style="stop-color:#00FFFF"/><stop offset="1" style="stop-color:#2E3192"/></radialGradient><circle class="st0" cx="122.49" cy="239.6" r="25.33"/><radialGradient cx="122.4931" cy="211.7428" gradientUnits="userSpaceOnUse" id="SVGID_2_" r="4.0837"><stop offset="2.024560e-07" style="stop-color:#00FFFF"/><stop offset="1" style="stop-color:#2E3192"/></radialGradient><path class="st1" d="M124.01,215.79c0,0.84-0.68,1.52-1.52,1.52l0,0c-0.84,0-1.52-0.68-1.52-1.52v-8.1c0-0.84,0.68-1.52,1.52-1.52    l0,0c0.84,0,1.52,0.68,1.52,1.52V215.79z"/><radialGradient cx="112.9649" cy="213.4228" gradientUnits="userSpaceOnUse" id="SVGID_3_" r="4.2911"><stop offset="2.024560e-07" style="stop-color:#00FFFF"/><stop offset="1" style="stop-color:#2E3192"/></radialGradient><path class="st2" d="M115.78,216.71c0.29,0.79-0.12,1.66-0.91,1.95l0,0c-0.79,0.29-1.66-0.12-1.95-0.91l-2.77-7.62    c-0.29-0.79,0.12-1.66,0.91-1.95l0,0c0.79-0.29,1.66,0.12,1.95,0.91L115.78,216.71z"/><radialGradient cx="104.5861" cy="218.2605" gradientUnits="userSpaceOnUse" id="SVGID_4_" r="4.381"><stop offset="2.024560e-07" style="stop-color:#00FFFF"/><stop offset="1" style="stop-color:#2E3192"/></radialGradient><path class="st3" d="M108.36,220.39c0.54,0.64,0.46,1.6-0.19,2.14l0,0c-0.64,0.54-1.6,0.46-2.14-0.19l-5.21-6.21    c-0.54-0.64-0.46-1.6,0.19-2.14l0,0c0.64-0.54,1.6-0.46,2.14,0.19L108.36,220.39z"/><radialGradient cx="98.3671" cy="225.6721" gradientUnits="userSpaceOnUse" id="SVGID_5_" r="4.3511"><stop offset="2.024560e-07" style="stop-color:#00FFFF"/><stop offset="1" style="stop-color:#2E3192"/></radialGradient><path class="st4" d="M102.64,226.38c0.73,0.42,0.98,1.35,0.56,2.08l0,0c-0.42,0.73-1.35,0.98-2.08,0.56l-7.02-4.05    c-0.73-0.42-0.98-1.35-0.56-2.08l0,0c0.42-0.73,1.35-0.98,2.08-0.56L102.64,226.38z"/><radialGradient cx="95.058" cy="234.7637" gradientUnits="userSpaceOnUse" id="SVGID_6_" r="4.2017"><stop offset="2.024560e-07" style="stop-color:#00FFFF"/><stop offset="1" style="stop-color:#2E3192"/></radialGradient><path class="st5" d="M99.31,233.97c0.83,0.15,1.38,0.93,1.23,1.76l0,0c-0.14,0.83-0.93,1.38-1.76,1.23l-7.98-1.41    c-0.83-0.15-1.38-0.93-1.23-1.76l0,0c0.15-0.83,0.93-1.38,1.76-1.23L99.31,233.97z"/><radialGradient cx="95.0584" cy="244.4323" gradientUnits="userSpaceOnUse" id="SVGID_7_" r="4.2"><stop offset="2.024560e-07" style="stop-color:#00FFFF"/><stop offset="1" style="stop-color:#2E3192"/></radialGradient><path class="st6" d="M98.79,242.24c0.83-0.15,1.61,0.41,1.76,1.23l0,0c0.15,0.83-0.41,1.61-1.23,1.76l-7.98,1.41    c-0.83,0.15-1.76-1.23-1.76-1.23l0,0c-0.15-0.83,0.41-1.62,1.23-1.76L98.79,242.24z"/><radialGradient cx="98.3676" cy="253.5303" gradientUnits="userSpaceOnUse" id="SVGID_8_" r="4.3512"><stop offset="2.024560e-07" style="stop-color:#00FFFF"/><stop offset="1" style="stop-color:#2E3192"/></radialGradient><path class="st7" d="M101.12,250.19c0.73-0.42,1.66-0.17,2.08,0.56l0,0c0.42,0.73,0.17,1.66-0.56,2.08l-7.02,4.05    c-0.73,0.42-1.66,0.17-2.08-0.56l0,0c-0.42-0.73-0.17-1.66,0.56-2.08L101.12,250.19z"/><radialGradient cx="104.5865" cy="260.9418" gradientUnits="userSpaceOnUse" id="SVGID_9_" r="4.3812"><stop offset="2.024560e-07" style="stop-color:#00FFFF"/><stop offset="1" style="stop-color:#2E3192"/></radialGradient><path class="st8" d="M106.03,256.86c0.54-0.64,1.5-0.73,2.14-0.19l0,0c0.64,0.54,0.73,1.5,0.19,2.14l-5.21,6.21    c-0.54,0.64-1.5,0.73-2.14,0.19l0,0c-0.64-0.54-0.73-1.5-0.19-2.14L106.03,256.86z"/><radialGradient cx="112.9654" cy="265.7794" gradientUnits="userSpaceOnUse" id="SVGID_10_" r="4.2912"><stop offset="2.024560e-07" style="stop-color:#00FFFF"/><stop offset="1" style="stop-color:#2E3192"/></radialGradient><path class="st9" d="M112.92,261.45c0.29-0.79,1.16-1.2,1.95-0.91l0,0c0.79,0.29,1.2,1.16,0.91,1.95l-2.77,7.62    c-0.29,0.79-1.16,1.2-1.95,0.91l0,0c-0.79-0.29-1.2-1.16-0.91-1.95L112.92,261.45z"/><radialGradient cx="122.4936" cy="267.4592" gradientUnits="userSpaceOnUse" id="SVGID_11_" r="4.0836"><stop offset="2.024560e-07" style="stop-color:#00FFFF"/><stop offset="1" style="stop-color:#2E3192"/></radialGradient><path class="st10" d="M120.97,263.41c0-0.84,0.68-1.52,1.52-1.52l0,0c0.84,0,1.52,0.68,1.52,1.52l0,8.1    c0,0.84-0.68,1.52-1.52,1.52l0,0c-0.84,0-1.52-0.68-1.52-1.52V263.41z"/><radialGradient cx="132.0216" cy="265.7788" gradientUnits="userSpaceOnUse" id="SVGID_12_" r="4.2911"><stop offset="2.024560e-07" style="stop-color:#00FFFF"/><stop offset="1" style="stop-color:#2E3192"/></radialGradient><path class="st11" d="M129.21,262.49c-0.29-0.79,0.12-1.66,0.91-1.95l0,0c0.79-0.29,1.66,0.12,1.95,0.91l2.77,7.62    c0.29,0.79-0.12,1.66-0.91,1.95l0,0c-0.79,0.29-1.66-0.12-1.95-0.91L129.21,262.49z"/><radialGradient cx="140.4004" cy="260.9415" gradientUnits="userSpaceOnUse" id="SVGID_13_" r="4.3811"><stop offset="2.024560e-07" style="stop-color:#00FFFF"/><stop offset="1" style="stop-color:#2E3192"/></radialGradient><path class="st12" d="M136.63,258.81c-0.54-0.64-0.46-1.6,0.19-2.14l0,0c0.64-0.54,1.6-0.46,2.14,0.19l5.21,6.21    c0.54,0.64,0.46,1.6-0.19,2.14l0,0c-0.64,0.54-1.6,0.46-2.14-0.19L136.63,258.81z"/><radialGradient cx="146.6194" cy="253.5298" gradientUnits="userSpaceOnUse" id="SVGID_14_" r="4.3513"><stop offset="2.024560e-07" style="stop-color:#00FFFF"/><stop offset="1" style="stop-color:#2E3192"/></radialGradient><path class="st13" d="M142.35,252.82c-0.73-0.42-0.98-1.35-0.56-2.08l0,0c0.42-0.73,1.35-0.98,2.08-0.56l7.02,4.05    c0.73,0.42,0.98,1.35,0.56,2.07l0,0c-0.42,0.73-1.35,0.98-2.08,0.56L142.35,252.82z"/><radialGradient cx="149.9284" cy="244.4381" gradientUnits="userSpaceOnUse" id="SVGID_15_" r="4.2018"><stop offset="2.024560e-07" style="stop-color:#00FFFF"/><stop offset="1" style="stop-color:#2E3192"/></radialGradient><path class="st14" d="M145.67,245.23c-0.83-0.15-1.38-0.93-1.23-1.76l0,0c0.15-0.83,0.93-1.38,1.76-1.23l7.98,1.41    c0.83,0.14,1.38,0.93,1.23,1.76l0,0c-0.15,0.83-0.93,1.38-1.76,1.23L145.67,245.23z"/><radialGradient cx="149.9283" cy="234.763" gradientUnits="userSpaceOnUse" id="SVGID_16_" r="4.2016"><stop offset="2.024560e-07" style="stop-color:#00FFFF"/><stop offset="1" style="stop-color:#2E3192"/></radialGradient><path class="st15" d="M146.2,236.96c-0.83,0.15-1.62-0.41-1.76-1.23l0,0c-0.15-0.83,0.41-1.62,1.23-1.76l7.98-1.41    c0.83-0.15,1.61,0.41,1.76,1.23l0,0c0.15,0.83-0.41,1.62-1.23,1.76L146.2,236.96z"/><radialGradient cx="146.619" cy="225.6714" gradientUnits="userSpaceOnUse" id="SVGID_17_" r="4.3512"><stop offset="2.024560e-07" style="stop-color:#00FFFF"/><stop offset="1" style="stop-color:#2E3192"/></radialGradient><path class="st16" d="M143.87,229.01c-0.73,0.42-1.66,0.17-2.08-0.56l0,0c-0.42-0.73-0.17-1.66,0.56-2.08l7.02-4.05    c0.73-0.42,1.66-0.17,2.07,0.56l0,0c0.42,0.73,0.17,1.66-0.56,2.08L143.87,229.01z"/><radialGradient cx="140.3999" cy="218.26" gradientUnits="userSpaceOnUse" id="SVGID_18_" r="4.3812"><stop offset="2.024560e-07" style="stop-color:#00FFFF"/><stop offset="1" style="stop-color:#2E3192"/></radialGradient><path class="st17" d="M138.96,222.34c-0.54,0.64-1.5,0.73-2.14,0.19l0,0c-0.64-0.54-0.73-1.5-0.19-2.14l5.21-6.21    c0.54-0.64,1.5-0.73,2.14-0.19l0,0c0.64,0.54,0.73,1.5,0.19,2.14L138.96,222.34z"/><radialGradient cx="132.0211" cy="213.4226" gradientUnits="userSpaceOnUse" id="SVGID_19_" r="4.2914"><stop offset="2.024560e-07" style="stop-color:#00FFFF"/><stop offset="1" style="stop-color:#2E3192"/></radialGradient><path class="st18" d="M132.06,217.75c-0.29,0.79-1.16,1.2-1.95,0.91l0,0c-0.79-0.29-1.2-1.16-0.91-1.95l2.77-7.62    c0.29-0.79,1.16-1.2,1.95-0.91l0,0c0.79,0.29,1.2,1.16,0.91,1.95L132.06,217.75z"/><radialGradient cx="109.674" cy="233.3888" gradientUnits="userSpaceOnUse" id="SVGID_20_" r="4.0402"><stop offset="2.024560e-07" style="stop-color:#00FFFF"/><stop offset="1" style="stop-color:#2E3192"/></radialGradient><circle class="st19" cx="109.67" cy="233.39" r="4.04"/><radialGradient cx="101.893" cy="242.8659" gradientUnits="userSpaceOnUse" id="SVGID_21_" r="1.7456"><stop offset="2.024560e-07" style="stop-color:#00FFFF"/><stop offset="1" style="stop-color:#2E3192"/></radialGradient><path class="st20" d="M103.64,242.87c0,0.96-0.78,1.75-1.75,1.75c-0.96,0-1.75-0.78-1.75-1.75s0.78-1.75,1.75-1.75    C102.86,241.12,103.64,241.9,103.64,242.87z"/><radialGradient cx="113.4649" cy="223.0143" gradientUnits="userSpaceOnUse" id="SVGID_22_" r="4.0402"><stop offset="2.024560e-07" style="stop-color:#00FFFF"/><stop offset="1" style="stop-color:#2E3192"/></radialGradient><circle class="st21" cx="113.46" cy="223.01" r="4.04"/><radialGradient cx="108.3773" cy="245.0607" gradientUnits="userSpaceOnUse" id="SVGID_23_" r="2.8431"><stop offset="2.024560e-07" style="stop-color:#00FFFF"/><stop offset="1" style="stop-color:#2E3192"/></radialGradient><path class="st22" d="M111.22,245.06c0,1.57-1.27,2.84-2.84,2.84c-1.57,0-2.84-1.27-2.84-2.84s1.27-2.84,2.84-2.84    C109.95,242.22,111.22,243.49,111.22,245.06z"/><radialGradient cx="139.1521" cy="245.6589" gradientUnits="userSpaceOnUse" id="SVGID_24_" r="3.0427"><stop offset="2.024560e-07" style="stop-color:#00FFFF"/><stop offset="1" style="stop-color:#2E3192"/></radialGradient><path class="st23" d="M142.19,245.66c0,1.68-1.36,3.04-3.04,3.04c-1.68,0-3.04-1.36-3.04-3.04c0-1.68,1.36-3.04,3.04-3.04    C140.83,242.62,142.19,243.98,142.19,245.66z"/><radialGradient cx="139.6507" cy="233.9874" gradientUnits="userSpaceOnUse" id="SVGID_25_" r="1.9456"><stop offset="2.024560e-07" style="stop-color:#00FFFF"/><stop offset="1" style="stop-color:#2E3192"/></radialGradient><path class="st24" d="M141.6,233.99c0,1.07-0.87,1.95-1.95,1.95s-1.95-0.87-1.95-1.95c0-1.07,0.87-1.95,1.95-1.95    S141.6,232.91,141.6,233.99z"/><radialGradient cx="126.4831" cy="223.0144" gradientUnits="userSpaceOnUse" id="SVGID_26_" r="2.7768"><stop offset="2.024560e-07" style="stop-color:#00FFFF"/><stop offset="1" style="stop-color:#2E3192"/></radialGradient><path class="st25" d="M129.26,223.01c0,1.53-1.24,2.78-2.78,2.78c-1.53,0-2.78-1.24-2.78-2.78c0-1.53,1.24-2.78,2.78-2.78    C128.02,220.24,129.26,221.48,129.26,223.01z"/><radialGradient cx="132.0196" cy="249.2505" gradientUnits="userSpaceOnUse" id="SVGID_27_" r="1.646"><stop offset="2.024560e-07" style="stop-color:#00FFFF"/><stop offset="1" style="stop-color:#2E3192"/></radialGradient><path class="st26" d="M133.67,249.25c0,0.91-0.74,1.65-1.65,1.65c-0.91,0-1.65-0.74-1.65-1.65c0-0.91,0.74-1.65,1.65-1.65    C132.93,247.6,133.67,248.34,133.67,249.25z"/><radialGradient cx="122.2433" cy="225.4082" gradientUnits="userSpaceOnUse" id="SVGID_28_" r="2.2445"><stop offset="2.024560e-07" style="stop-color:#00FFFF"/><stop offset="1" style="stop-color:#2E3192"/></radialGradient><path class="st27" d="M124.49,225.41c0,1.24-1,2.24-2.24,2.24c-1.24,0-2.24-1-2.24-2.24c0-1.24,1-2.24,2.24-2.24    C123.48,223.16,124.49,224.17,124.49,225.41z"/><radialGradient cx="120.6474" cy="237.5783" gradientUnits="userSpaceOnUse" id="SVGID_29_" r="3.8405"><stop offset="2.024560e-07" style="stop-color:#00FFFF"/><stop offset="1" style="stop-color:#2E3192"/></radialGradient><path class="st28" d="M124.49,237.58c0,2.12-1.72,3.84-3.84,3.84c-2.12,0-3.84-1.72-3.84-3.84c0-2.12,1.72-3.84,3.84-3.84    C122.77,233.74,124.49,235.46,124.49,237.58z"/><radialGradient cx="112.4674" cy="255.9335" gradientUnits="userSpaceOnUse" id="SVGID_30_" r="1.7456"><stop offset="2.024560e-07" style="stop-color:#00FFFF"/><stop offset="1" style="stop-color:#2E3192"/></radialGradient><path class="st29" d="M114.21,255.93c0,0.96-0.78,1.75-1.75,1.75c-0.96,0-1.75-0.78-1.75-1.75c0-0.96,0.78-1.75,1.75-1.75    C113.43,254.19,114.21,254.97,114.21,255.93z"/><radialGradient cx="132.7178" cy="256.8316" gradientUnits="userSpaceOnUse" id="SVGID_31_" r="2.1446"><stop offset="2.024560e-07" style="stop-color:#00FFFF"/><stop offset="1" style="stop-color:#2E3192"/></radialGradient><path class="st30" d="M134.86,256.83c0,1.18-0.96,2.14-2.14,2.14c-1.18,0-2.14-0.96-2.14-2.14c0-1.18,0.96-2.14,2.14-2.14    C133.9,254.69,134.86,255.65,134.86,256.83z"/><radialGradient cx="119.8495" cy="253.34" gradientUnits="userSpaceOnUse" id="SVGID_32_" r="2.2445"><stop offset="2.024560e-07" style="stop-color:#00FFFF"/><stop offset="1" style="stop-color:#2E3192"/></radialGradient><path class="st31" d="M122.09,253.34c0,1.24-1,2.24-2.24,2.24c-1.24,0-2.24-1-2.24-2.24c0-1.24,1-2.24,2.24-2.24    C121.09,251.1,122.09,252.1,122.09,253.34z"/><radialGradient cx="134.1642" cy="238.5764" gradientUnits="userSpaceOnUse" id="SVGID_33_" r="4.3394"><stop offset="2.024560e-07" style="stop-color:#00FFFF"/><stop offset="1" style="stop-color:#2E3192"/></radialGradient><path class="st32" d="M138.5,238.58c0,2.4-1.94,4.34-4.34,4.34c-2.4,0-4.34-1.94-4.34-4.34c0-2.4,1.94-4.34,4.34-4.34    C136.56,234.24,138.5,236.18,138.5,238.58z"/><radialGradient cx="134.5634" cy="228.0023" gradientUnits="userSpaceOnUse" id="SVGID_34_" r="4.3394"><stop offset="2.024560e-07" style="stop-color:#00FFFF"/><stop offset="1" style="stop-color:#2E3192"/></radialGradient><path class="st33" d="M138.9,228c0,2.4-1.94,4.34-4.34,4.34c-2.4,0-4.34-1.94-4.34-4.34c0-2.4,1.94-4.34,4.34-4.34    C136.96,223.66,138.9,225.61,138.9,228z"/><radialGradient cx="126.3831" cy="248.4523" gradientUnits="userSpaceOnUse" id="SVGID_35_" r="1.646"><stop offset="2.024560e-07" style="stop-color:#00FFFF"/><stop offset="1" style="stop-color:#2E3192"/></radialGradient><path class="st34" d="M128.03,248.45c0,0.91-0.74,1.65-1.65,1.65c-0.91,0-1.65-0.74-1.65-1.65c0-0.91,0.74-1.65,1.65-1.65    C127.29,246.81,128.03,247.54,128.03,248.45z"/><radialGradient cx="122.1933" cy="260.2238" gradientUnits="userSpaceOnUse" id="SVGID_36_" r="1.4464"><stop offset="2.024560e-07" style="stop-color:#00FFFF"/><stop offset="1" style="stop-color:#2E3192"/></radialGradient><circle class="st35" cx="122.19" cy="260.22" r="1.45"/><radialGradient cx="112.0182" cy="246.9559" gradientUnits="userSpaceOnUse" id="SVGID_37_" r="2.2445"><stop offset="2.024560e-07" style="stop-color:#00FFFF"/><stop offset="1" style="stop-color:#2E3192"/></radialGradient><path class="st36" d="M114.26,246.96c0,1.24-1,2.24-2.24,2.24s-2.24-1-2.24-2.24c0-1.24,1-2.24,2.24-2.24    S114.26,245.72,114.26,246.96z"/></g></g></svg>