<?xml version="1.0" ?><svg id="Layer_1" style="enable-background:new 0 0 500 500;" version="1.1" viewBox="0 0 500 500" xml:space="preserve" xmlns="http://www.w3.org/2000/svg" xmlns:xlink="http://www.w3.org/1999/xlink"><style type="text/css">
	.st0{fill:#006AB0;}
	.st1{fill:url(#SVGID_1_);}
	.st2{fill:url(#SVGID_2_);}
	.st3{fill:url(#SVGID_3_);}
	.st4{fill:url(#SVGID_4_);}
	.st5{fill:url(#SVGID_5_);}
	.st6{fill:url(#SVGID_6_);}
	.st7{fill:url(#SVGID_7_);}
	.st8{fill:url(#SVGID_8_);}
	.st9{fill:url(#SVGID_9_);}
	.st10{fill:url(#SVGID_10_);}
	.st11{fill:url(#SVGID_11_);}
	.st12{fill:#03517C;}
</style><g><path class="st0" d="M310.75,234.25c0,0.01,0,0.02,0,0.04c-0.98-0.74-1.72-1.35-2.51-1.89c-0.78-0.53-1.58-1.05-2.41-1.51   c-0.04-0.02-0.07-0.04-0.11-0.06c-1.59-0.88-3.18-1.54-4.76-1.98c-0.02,0-0.05-0.01-0.07-0.02c-0.04-0.01-0.07-0.02-0.09-0.02   c-0.02,0-0.03-0.01-0.03-0.01c-6.35-1.74-12.5-0.05-17.68,5.11c-2.11,2.09-3.87,4.57-5.61,6.99c-1.2,1.67-2.1,3.57-3.18,5.43   c-2.05-2.5-4.54-4.31-7.32-5.74c-4.74-2.44-9.84-3.54-15.12-3.81c-2.49-0.13-5.07-0.3-7.48,0.19c-5.48,1.1-10.97,1.9-16.56,1.92   c-8.78,0.03-17.24-1.44-25.21-5.29c-0.23-0.11-0.47-0.19-0.72-0.28c-0.03,0.12-0.07,0.18-0.07,0.24c0.03,0.23,0.07,0.46,0.12,0.68   c1.16,5.27,3.29,10.14,6.21,14.66c6.77,10.48,16.4,17.21,28.08,21.2c2.2,0.76,4.45,1.34,6.8,2.04c-2.74,6.82-6.8,12.7-12.02,17.8   c-5.21,5.09-11.29,8.84-18.31,11.51c0.58,0.18,0.86,0.26,1.14,0.35c7.36,2.43,14.83,4.65,20.92,9.81c0.14-2.41,1.23-4.5,2.45-6.54   c2.47-4.13,5.65-7.7,9-11.11c0.22-0.23,0.69-0.35,1.03-0.31c5.59,0.51,11.13,0.28,16.61-0.96c11.79-2.65,20.41-9.26,25.06-20.55   c1.62-3.94,2.86-8.06,4.06-12.16c1.22-4.19,2.5-8.33,4.81-12.07c1.59-2.59,3.53-4.85,6.22-6.36c1.9-1.06,3.64-3.05,5.87-2.87   c0.09,0.26,0.18,0.52,0.25,0.78c2.16-0.54,3.78-0.79,3.78-0.79C313.23,236.94,312.09,235.48,310.75,234.25z M294.06,234.58   c0.03-0.87,0.8-1.62,1.67-1.64c0.92-0.01,1.7,0.77,1.69,1.69c0,0.95-0.76,1.69-1.7,1.67C294.8,236.29,294.02,235.49,294.06,234.58z   "/><g><linearGradient gradientUnits="userSpaceOnUse" id="SVGID_1_" x1="309.2058" x2="313.9279" y1="244.1118" y2="244.1118"><stop offset="0" style="stop-color:#35A04D"/><stop offset="0.5028" style="stop-color:#85C532"/><stop offset="1" style="stop-color:#237953"/></linearGradient><path class="st1" d="M309.21,249.59c1.25-0.5,2.2-1.45,2.99-2.92c1.36-2.51,1.73-5.25,1.73-8.03c0,0-1.62,0.25-3.78,0.79    C311.28,243.21,310.89,246.72,309.21,249.59z"/><linearGradient gradientUnits="userSpaceOnUse" id="SVGID_2_" x1="276.0431" x2="316.1911" y1="215.629" y2="215.629"><stop offset="0" style="stop-color:#35A04D"/><stop offset="0.5028" style="stop-color:#85C532"/><stop offset="1" style="stop-color:#237953"/></linearGradient><path class="st2" d="M311.8,221.88c2.06-1.76,3.36-4.03,4-6.67c0.96-4.01,0.07-7.77-1.61-11.42c-0.1-0.22-0.25-0.42-0.44-0.73    c-2.71,4.08-4.97,8.18-5.34,13.22c-0.68-1.19-1.21-2.25-1.86-3.23c-0.67-1-1.46-1.93-2.2-2.9c5.58-8.41,2.21-14.46-3.8-17.54    c-0.92,3.85-1.52,7.71-1.39,11.78c-0.24-0.12-0.3-0.37-0.46-0.52c-2.03-1.83-4.01-3.73-6.13-5.45c-2.36-1.92-4.94-3.51-7.91-4.36    c-3.01-0.86-5.75-0.55-7.94,1.95c-0.88,1-0.96,1.33,0.08,2.19c1.36,1.13,2.78,2.29,4.37,3c3.48,1.56,7.07,2.85,10.63,4.23    c0.84,0.32,1.72,0.55,2.83,0.9c-5.68,0.51-8.79,2.63-9.08,6.26c2.45,0.65,4.92,1.46,7.46,1.95c3.52,0.67,6.98,0.65,9.76-2.18    c2.32,2.53,4.11,5.47,4.03,6.58c-4.01-2.06-8.06-3.79-12.69-1.37c1.55,2.09,3.22,3.84,5.26,5.22c2.82,1.9,5.78,2.71,9.09,0.89    c1,3.45,2.11,6.8,2.27,10.55c1.34,1.23,2.48,2.69,3.18,4.39c0.01-5.09-1.11-10-2.62-14.83    C311.06,222.99,311.08,222.5,311.8,221.88z"/></g><path class="st0" d="M273.58,243.21c-4.35-4.37-9.74-6.35-15.5-7.51c-4.18-0.85-8.42-1.07-12.68-0.96c-0.32,0.01-0.65,0-0.71,0   c-0.24-1.29-0.32-2.53-0.69-3.67c-1.2-3.69-3.22-6.98-5.28-10.24c-1.35-2.14-2.78-4.23-4.26-6.46c0.33,0.06,0.56,0.09,0.78,0.16   c9.35,2.59,18.46,5.78,26.97,10.52c3.12,1.74,6.07,3.72,8.55,6.32c2.02,2.11,3.6,4.47,3.75,7.52   C274.58,240.37,274.3,241.81,273.58,243.21z"/><linearGradient gradientUnits="userSpaceOnUse" id="SVGID_3_" x1="49.7011" x2="450.2989" y1="296.0056" y2="296.0056"><stop offset="0" style="stop-color:#35A04D"/><stop offset="0.5028" style="stop-color:#85C532"/><stop offset="1" style="stop-color:#237953"/></linearGradient><path class="st3" d="M384.51,121.66c29.89,34.77,48.13,81.14,48.13,132.08c0,88.09-54.57,162.56-129.54,186.87   c-10.98-3.28-19.12-9.21-23.66-18.5v-45.47c40.83-17.79,75.41-43.24,70.38-117.27c-3.22,14.53-6.46,26.54-9.76,29.76   c0.65-11.17-0.2-21.19-2.93-29.76l-3.42,32.2c-2.95-4.06-4.74-13.03-5.85-24.89c0,0-3.42,20.5,3.9,35.14   c2.05,8.65-6.77,18.55-18.65,28.79c5.88-11.54,17.71-24.07,9.51-34.61c-23.1,42.56-56.61,27.17-65.1,61.37h-12.48   c-8.49-34.2-42.01-18.81-65.11-61.37c-8.19,10.54,3.63,23.08,9.51,34.61c-11.88-10.24-20.71-20.13-18.65-28.79   c7.32-14.64,3.9-35.14,3.9-35.14c-1.11,11.85-2.9,20.83-5.86,24.89l-3.41-32.2c-2.73,8.57-3.58,18.59-2.93,29.76   c-3.3-3.22-6.54-15.23-9.76-29.76c-5.03,74.02,29.55,99.48,70.38,117.27v45.47c-4.71,9.68-13.35,15.7-25.01,18.89   c-75.6-23.9-130.76-98.7-130.76-187.26c0-50.94,18.25-97.33,48.15-132.1C75.09,158.28,49.7,211.21,49.7,270.07   c0,110.62,89.67,200.3,200.3,200.3c110.62,0,200.3-89.68,200.3-200.3C450.3,211.22,424.92,158.3,384.51,121.66z"/><linearGradient gradientUnits="userSpaceOnUse" id="SVGID_4_" x1="105.9853" x2="157.5108" y1="199.9834" y2="199.9834"><stop offset="0" style="stop-color:#35A04D"/><stop offset="0.5028" style="stop-color:#85C532"/><stop offset="1" style="stop-color:#237953"/></linearGradient><path class="st4" d="M125.59,238.55L125.59,238.55c7.29-8.73,13.13-35.9,13.28-36.58c-3.1,13.14-18.59,34.39-18.59,34.39   c-40.74-21.32,17.14-52.39,30.76-76.01C158.92,162.1,167.34,250.22,125.59,238.55z"/><linearGradient gradientUnits="userSpaceOnUse" id="SVGID_5_" x1="345.524" x2="130.3743" y1="238.6803" y2="137.6917"><stop offset="0" style="stop-color:#35A04D"/><stop offset="0.5028" style="stop-color:#85C532"/><stop offset="1" style="stop-color:#237953"/></linearGradient><path class="st5" d="M200.02,200.05L200.02,200.05c4.81-5.76,8.67-23.7,8.77-24.15c-2.04,8.67-12.27,22.71-12.27,22.71   c-26.9-14.08,11.31-34.58,20.31-50.18C222.02,149.58,227.58,207.75,200.02,200.05z"/><linearGradient gradientUnits="userSpaceOnUse" id="SVGID_6_" x1="135.0904" x2="442.4471" y1="83.0267" y2="248.7798"><stop offset="0" style="stop-color:#35A04D"/><stop offset="0.5028" style="stop-color:#85C532"/><stop offset="1" style="stop-color:#237953"/></linearGradient><path class="st6" d="M169.92,147.46L169.92,147.46c7.29-8.73,13.13-35.9,13.28-36.58c-3.1,13.14-18.59,34.39-18.59,34.39   c-40.74-21.32,17.14-52.39,30.76-76.01C203.25,71.01,211.67,159.13,169.92,147.46z"/><linearGradient gradientUnits="userSpaceOnUse" id="SVGID_7_" x1="248.757" x2="300.2825" y1="128.8945" y2="128.8945"><stop offset="0" style="stop-color:#35A04D"/><stop offset="0.5028" style="stop-color:#85C532"/><stop offset="1" style="stop-color:#237953"/></linearGradient><path class="st7" d="M268.36,167.46L268.36,167.46c7.29-8.73,13.13-35.9,13.28-36.58c-3.1,13.14-18.59,34.39-18.59,34.39   c-40.74-21.32,17.14-52.39,30.76-76.01C301.69,91.01,310.11,179.13,268.36,167.46z"/><linearGradient gradientUnits="userSpaceOnUse" id="SVGID_8_" x1="216.5892" x2="268.1147" y1="69.2629" y2="69.2629"><stop offset="0" style="stop-color:#35A04D"/><stop offset="0.5028" style="stop-color:#85C532"/><stop offset="1" style="stop-color:#237953"/></linearGradient><path class="st8" d="M236.19,107.83L236.19,107.83c7.29-8.73,13.13-35.9,13.28-36.58c-3.1,13.14-18.59,34.39-18.59,34.39   c-40.74-21.32,17.14-52.39,30.76-76.01C269.52,31.38,277.94,119.5,236.19,107.83z"/><linearGradient gradientUnits="userSpaceOnUse" id="SVGID_9_" x1="341.6855" x2="393.211" y1="214.3595" y2="214.3595"><stop offset="0" style="stop-color:#35A04D"/><stop offset="0.5028" style="stop-color:#85C532"/><stop offset="1" style="stop-color:#237953"/></linearGradient><path class="st9" d="M361.29,252.93L361.29,252.93c7.29-8.73,13.13-35.9,13.28-36.58c-3.1,13.14-18.59,34.39-18.59,34.39   c-40.74-21.32,17.14-52.39,30.76-76.01C394.62,176.47,403.04,264.6,361.29,252.93z"/><linearGradient gradientUnits="userSpaceOnUse" id="SVGID_10_" x1="374.2468" x2="159.0972" y1="177.4881" y2="76.4994"><stop offset="0" style="stop-color:#35A04D"/><stop offset="0.5028" style="stop-color:#85C532"/><stop offset="1" style="stop-color:#237953"/></linearGradient><path class="st10" d="M328.18,186.6L328.18,186.6c4.99-5.97,8.98-24.55,9.08-25.02c-2.12,8.99-12.71,23.53-12.71,23.53   c-27.87-14.58,11.72-35.83,21.04-52C350.98,134.31,356.73,194.59,328.18,186.6z"/><linearGradient gradientUnits="userSpaceOnUse" id="SVGID_11_" x1="409.5011" x2="194.3515" y1="102.3811" y2="1.3925"><stop offset="0" style="stop-color:#35A04D"/><stop offset="0.5028" style="stop-color:#85C532"/><stop offset="1" style="stop-color:#237953"/></linearGradient><path class="st11" d="M334.05,96.9L334.05,96.9c4.86-5.82,8.75-23.91,8.85-24.37c-2.06,8.75-12.38,22.91-12.38,22.91   c-27.14-14.2,11.42-34.9,20.49-50.64C356.26,45.97,361.86,104.68,334.05,96.9z"/><path class="st12" d="M313.93,238.64c0,0-1.62,0.25-3.78,0.79c-1.86,0.47-4.13,1.16-6.12,2.09c-4.28,2.03-8.29-1.94-8.29-1.94   l6.19-4.96l-1.15-5.84c0,0,0.01,0,0.03,0.01c0.02,0.01,0.05,0.02,0.09,0.02c0.02,0.01,0.04,0.02,0.07,0.02   c0.59,0.19,2.58,0.85,4.87,2.04c1.62,0.84,3.39,1.96,4.91,3.36C312.09,235.48,313.23,236.94,313.93,238.64z"/></g></svg>