<?xml version="1.0" ?><svg id="Layer_1" style="enable-background:new 0 0 500 500;" version="1.1" viewBox="0 0 500 500" xml:space="preserve" xmlns="http://www.w3.org/2000/svg" xmlns:xlink="http://www.w3.org/1999/xlink"><style type="text/css">
	.st0{fill:#383838;}
</style><g><path class="st0" d="M233.94,429.22c-38.81-25.08-112.27-13.84-148.69-59.85c-27.59-40.21-42.3-73.24-57.77-107.53   c-1.2-2.65-1.19-5.31,0-7.99c16.17-4.92,35.51,45.94,60.41,71.53c21.17,16.25,42.18,28.98,62.85,34.72l-43.4-50.35   c-1.13-18.5,25.22,5.95,45.83,22.92c39.61,22.73,85.18,21.59,84.79,68.73L233.94,429.22z"/><path class="st0" d="M266.06,429.22c38.81-25.08,112.27-13.84,148.69-59.85c27.59-40.21,42.3-73.24,57.77-107.53   c1.2-2.65,1.19-5.31,0-7.99c-16.17-4.92-35.51,45.94-60.41,71.53c-21.17,16.25-42.18,28.98-62.85,34.72l43.4-50.35   c1.13-18.5-25.22,5.95-45.83,22.92c-39.61,22.73-85.18,21.59-84.79,68.73L266.06,429.22z"/><path class="st0" d="M331.36,124.54c-4.43-10.48-10.78-19.89-18.86-27.98c-8.08-8.08-17.5-14.43-27.98-18.86   c-10.85-4.59-22.38-6.92-34.26-6.92h-4.73c-11.88,0-23.41,2.33-34.26,6.92c-10.48,4.43-19.89,10.78-27.98,18.86   c-8.08,8.08-14.43,17.49-18.86,27.98c-4.59,10.85-6.92,22.38-6.92,34.26v76c0,11.88,2.33,23.41,6.92,34.26   c4.43,10.48,10.78,19.89,18.86,27.98c8.08,8.08,17.49,14.43,27.98,18.86c1.93,0.82,3.89,1.56,5.86,2.24v29.88h61.54v-29.88   c1.97-0.67,3.92-1.42,5.86-2.24c10.48-4.43,19.89-10.78,27.98-18.86c8.08-8.08,14.43-17.49,18.86-27.98   c4.59-10.85,6.92-22.38,6.92-34.26v-76C338.28,146.92,335.95,135.39,331.36,124.54z M272.02,341.37h-48.25v-21.26   c7.06,1.8,14.34,2.71,21.76,2.71h4.73c7.42,0,14.7-0.91,21.76-2.71V341.37z M331.64,234.8c0,34.88-22.06,64.71-52.97,76.26   c-2.97,1.11-6.01,2.05-9.13,2.81c-6.18,1.51-12.64,2.31-19.28,2.31h-4.73c-6.64,0-13.1-0.8-19.28-2.31   c-3.12-0.76-6.16-1.7-9.13-2.81c-30.91-11.55-52.97-41.38-52.97-76.26v-76c0-44.87,36.5-81.38,81.38-81.38h4.73   c44.87,0,81.38,36.51,81.38,81.38V234.8z"/><polygon class="st0" points="247.9,256.74 235.73,214.22 260.06,214.22  "/><path class="st0" d="M321.65,163.79c-2.07-4.6-7.48-6.65-12.08-4.58c-11.63,5.24-21.11,12.44-28.17,21.39   c-7.32,9.28-12.16,20.59-14.4,33.61c-0.09,0.51-19.11,66.79-19.11,66.79s-19.02-66.28-19.11-66.79   c-2.23-13.03-7.08-24.34-14.4-33.61c-7.06-8.95-16.54-16.15-28.17-21.39c-4.6-2.07-10.01-0.02-12.08,4.58   c-2.07,4.6-0.02,10.01,4.58,12.08c17.98,8.1,28.43,21.41,31.93,40.69v73.58c0,5.04,4.09,9.13,9.13,9.13H276   c5.04,0,9.13-4.09,9.13-9.13v-73.58c3.51-19.27,13.96-32.59,31.93-40.69C321.67,173.8,323.72,168.39,321.65,163.79z"/><path class="st0" d="M237.47,167.93h-18.66c0.19,15.9,13.14,28.72,29.08,28.72c8.03,0,15.3-3.25,20.57-8.52   c5.18-5.18,8.42-12.31,8.51-20.2h-19.53v-9.68h19.54v-9.48h-19.54v-9.68h19.54v-0.81c0-16.06-13.02-29.09-29.09-29.09   c-16.06,0-29.08,13.02-29.08,29.09v0.81h18.66v9.68h-18.66v9.48h18.66V167.93z"/><polygon class="st0" points="245.79,101.71 247.9,85.56 250,101.71  "/><polygon class="st0" points="231.2,105.7 226.55,90.1 235.04,103.99  "/><polygon class="st0" points="219.49,115.29 208.89,102.92 222.3,112.17  "/><polygon class="st0" points="212.69,128.82 197.98,121.82 213.99,124.81  "/><polygon class="st0" points="281.8,124.81 297.81,121.82 283.1,128.82  "/><polygon class="st0" points="273.49,112.17 286.9,102.92 276.31,115.29  "/><polygon class="st0" points="260.75,103.99 269.24,90.1 264.6,105.7  "/></g></svg>