<?xml version="1.0" ?><svg id="Layer_1" style="enable-background:new 0 0 500 500;" version="1.1" viewBox="0 0 500 500" xml:space="preserve" xmlns="http://www.w3.org/2000/svg" xmlns:xlink="http://www.w3.org/1999/xlink"><style type="text/css">
	.st0{fill:url(#SVGID_1_);}
</style><g><path d="M253.94,177.14c-0.51,2.66-1.12,5.29-1.84,7.9c-1.08,3.96-2.39,7.85-3.92,11.65c-1.43,3.54-3.05,7-4.85,10.35   c1.29,1.01,2.59,1.98,3.91,2.91c1.74-3.9,3.27-7.88,4.61-11.92c1.26-3.8,2.34-7.65,3.24-11.54c0.53-2.27,1-4.56,1.4-6.87   C255.58,178.83,254.72,178.01,253.94,177.14z"/><path d="M227.42,168.33c-0.94,7.39-2.62,14.63-4.8,21.66c-0.28,0.88-0.56,1.75-0.85,2.63c-0.29,0.87-0.57,1.75-0.89,2.61   c-0.31,0.87-0.64,1.72-0.95,2.59c-0.33,0.85-0.62,1.72-0.98,2.57c-0.7,1.69-1.39,3.39-2.14,5.06c-0.77,1.66-1.54,3.32-2.36,4.96   l-0.35-0.12c0.28-1.81,0.62-3.6,0.95-5.39l0.94-5.36c0.32-1.78,0.57-3.57,0.88-5.34c0.31-1.77,0.51-3.56,0.8-5.33   c0.27-1.77,0.44-3.55,0.7-5.32c0.22-1.77,0.36-3.55,0.58-5.31c0.15-1.77,0.31-3.54,0.43-5.3l0.17-2.64l0.09-1.32l0.04-1.32   c0.28-7.04,0.14-14.04-0.64-20.92c-0.11-0.86-0.18-1.72-0.32-2.57c-0.13-0.85-0.26-1.71-0.38-2.56c-0.14-0.85-0.3-1.69-0.45-2.54   c-0.08-0.42-0.14-0.85-0.24-1.27l-0.28-1.26c-0.35-1.68-0.8-3.33-1.21-5l-0.72-2.46c-0.11-0.41-0.25-0.82-0.39-1.22l-0.41-1.21   c-2.22-6.46-5.22-12.63-9.06-18.28c-1.92-2.83-4-5.56-6.3-8.12c-2.27-2.59-4.73-5.02-7.33-7.32c-5.23-4.57-11.01-8.62-17.21-12.07   c-3.1-1.73-6.3-3.31-9.58-4.77c-3.28-1.44-6.64-2.78-10.1-3.86l0.06-0.36c3.67,0.21,7.3,0.85,10.89,1.69   c1.79,0.42,3.57,0.91,5.34,1.46c1.77,0.53,3.52,1.15,5.26,1.81c1.74,0.65,3.45,1.38,5.15,2.14c1.69,0.78,3.38,1.59,5.02,2.49   l1.24,0.67l1.22,0.7c0.82,0.46,1.62,0.95,2.42,1.45c1.59,1,3.14,2.07,4.68,3.17c0.76,0.56,1.52,1.13,2.27,1.71   c0.73,0.6,1.47,1.19,2.2,1.8c0.71,0.63,1.44,1.24,2.14,1.88c0.69,0.65,1.41,1.28,2.08,1.95c2.7,2.68,5.25,5.54,7.54,8.61   c4.61,6.12,8.23,12.99,10.8,20.2c1.28,3.61,2.35,7.28,3.1,11.02l0.29,1.39c0.1,0.47,0.17,0.94,0.25,1.41   c0.16,0.94,0.33,1.87,0.47,2.81c0.25,1.88,0.48,3.76,0.61,5.65C228.71,153.4,228.35,160.94,227.42,168.33z"/><path d="M247.24,209.95c-0.89,2-1.84,3.99-2.84,5.95c-1.56-0.87-3.11-1.78-4.65-2.74c1.26-1.99,2.45-4.03,3.57-6.12   C244.62,208.04,245.92,209.01,247.24,209.95z"/><circle cx="354.38" cy="122.41" r="44.81"/><g><path d="M246.48,455.64c-9.13,0-17.68-3.1-24.5-8.42c-6.82-5.32-11.93-12.85-14.16-21.7L170.14,276.1    c-4.93,1.17-9.97,1.99-15.07,2.42c-7.79,0.67-15.76,0.51-23.66-0.6c-7.9-1.12-15.75-3.1-23.31-5.99    c-15.12-5.75-29.02-14.98-40.47-26.64l-2.14-2.19c-0.71-0.74-1.37-1.52-2.05-2.28l-2.02-2.31c-0.65-0.78-1.28-1.59-1.93-2.39    l-1.91-2.4c-0.61-0.82-1.21-1.65-1.81-2.48l-1.79-2.5c-0.57-0.85-1.12-1.71-1.68-2.57c-4.45-6.88-8.23-14.2-11.25-21.83    c-6.07-15.25-9.11-31.69-9.13-48.03c0.03-16.34,3.06-32.78,9.13-48.03c3.03-7.63,6.8-14.95,11.25-21.83    c0.55-0.86,1.11-1.72,1.68-2.57l1.79-2.5c0.6-0.83,1.19-1.66,1.81-2.48l1.91-2.4c0.64-0.8,1.27-1.6,1.93-2.39l2.02-2.31    c0.68-0.77,1.34-1.54,2.05-2.28l2.14-2.19c11.45-11.66,25.34-20.89,40.47-26.64c7.55-2.89,15.41-4.87,23.31-5.99    c7.9-1.11,15.87-1.27,23.66-0.6c15.6,1.34,30.59,6.21,43.6,13.75c13.05,7.51,24.19,17.53,33.09,28.96l1.66,2.15    c0.54,0.73,1.05,1.48,1.58,2.21l1.57,2.2c0.5,0.75,0.98,1.51,1.47,2.27l1.46,2.27l1.36,2.33l1.36,2.32l1.26,2.38    c3.35,6.33,6.14,12.91,8.38,19.65c4.47,13.49,6.67,27.6,6.69,41.72c-0.01,7.8-0.69,15.61-2.05,23.31    c-0.92-0.79-1.77-1.62-2.55-2.48c1.33-6.85,2-13.84,2.02-20.82c-0.03-13.82-2.63-27.63-7.78-40.37    c-2.57-6.37-5.76-12.47-9.51-18.16c-0.47-0.71-0.93-1.42-1.41-2.13l-1.51-2.06c-0.5-0.69-1-1.38-1.52-2.05l-1.61-1.98    c-0.54-0.65-1.06-1.32-1.61-1.96l-1.69-1.89c-0.57-0.63-1.12-1.27-1.71-1.87l-1.79-1.79c-9.55-9.51-21.02-16.84-33.26-21.23    c-6.11-2.21-12.41-3.65-18.71-4.42c-6.3-0.74-12.61-0.73-18.78-0.06c-6.18,0.67-12.18,2.04-17.9,4.01    c-5.73,1.95-11.15,4.55-16.23,7.62c-10.16,6.15-18.87,14.27-25.88,23.55l-1.31,1.74c-0.43,0.59-0.82,1.21-1.24,1.8l-1.24,1.79    c-0.4,0.61-0.77,1.23-1.16,1.85l-1.15,1.84l-1.07,1.89l-1.08,1.88l-0.99,1.93c-2.65,5.14-4.87,10.49-6.64,15.98    c-3.55,10.97-5.32,22.47-5.34,34.06c0.02,11.59,1.79,23.09,5.34,34.06c1.77,5.49,3.99,10.84,6.64,15.98l0.99,1.93l1.08,1.88    l1.07,1.89l1.15,1.84c0.39,0.61,0.76,1.24,1.16,1.85l1.24,1.79c0.42,0.6,0.81,1.21,1.24,1.8l1.31,1.74    c7.01,9.28,15.72,17.41,25.88,23.55c5.08,3.07,10.5,5.67,16.23,7.62c5.72,1.97,11.72,3.34,17.9,4.01    c4.65,0.51,9.38,0.64,14.13,0.36c1.55-0.09,3.1-0.23,4.65-0.41c6.3-0.76,12.6-2.2,18.71-4.41c8.11-2.91,15.88-7.12,22.99-12.39    c3.61-2.68,7.05-5.64,10.27-8.84l1.79-1.79c0.59-0.6,1.14-1.24,1.71-1.87l1.69-1.89c0.55-0.64,1.07-1.31,1.61-1.96l1.61-1.98    c0.52-0.67,1.01-1.36,1.52-2.05l1.51-2.06c0.48-0.7,0.94-1.42,1.41-2.13c0.37-0.56,0.73-1.12,1.09-1.69    c1.53,0.96,3.08,1.88,4.65,2.74c-0.3,0.6-0.61,1.19-0.93,1.79l-1.26,2.37l-1.36,2.32l-1.36,2.33l-1.46,2.27    c-0.49,0.75-0.97,1.52-1.47,2.27l-1.57,2.21c-0.53,0.73-1.04,1.48-1.58,2.21l-1.66,2.15c-3.67,4.71-7.72,9.18-12.12,13.33    l20.34,48.34l10.82,25.71l8.9,21.15l9.91,23.55l13.63,32.41C294.28,426.59,274.99,455.64,246.48,455.64z"/><path d="M454.12,464.23c-2.79,1.77-5.89,2.3-9.26,1.97c-9.58-0.94-16.18-3.07-21.44-13.35c-8.48-16.57-17.89-36.53-26.67-53.65    c-4.98,11.83-10.29,27.11-14.94,38.36c-5.31,12.88-17.43,16.04-28.69,11.09c-7.1-3.11-10.49-10.04-11.2-17.64    c-0.23-2.42-0.01-3.97,1-7.02c8.46-25.56,11.59-51.1,20.91-76.57c-4.93-17.77-9-36.84-12.75-53.72    c-10.12,10.02-64.43,23.35-100.3,29.49l-10.82-25.71c33.04-2.83,74.07-10.06,94.2-32.75c-25.53-2.13-27.15-21.14-44.53-36.22    c-16.1-0.77-31.3-4.89-45.24-12.62c-1.56-0.87-3.11-1.78-4.65-2.74c1.26-1.99,2.45-4.03,3.57-6.12c1.81-3.35,3.43-6.81,4.85-10.35    c1.53-3.8,2.84-7.69,3.92-11.65c0.97,0.51,1.96,1,2.99,1.45c20.24,8.98,51.07,6.87,70.7,5.88c0.04,0,0.19-0.04,0.27-0.03    c3.61-8.03,7.21-16.06,10.83-24.08c7.26,2.47,14.53,3.72,22.18,3.58c3.58-0.06,6.91-0.71,10.39-1.42    c1.1,6.94,2.35,13.88,3.52,20.82c0-0.01,0.06,0.01,0.07,0.01c34.56,1.33,69.79,33.72,73.16,74.99c2.13,21.5,2.06,44.67-9.89,63.52    c0.25,10.51,0.38,20.63,0.98,31.36c9.18,23.57,20.01,49.8,28.8,72.61C471.68,448.24,464.81,457.46,454.12,464.23z"/></g><g><linearGradient gradientUnits="userSpaceOnUse" id="SVGID_1_" x1="370.8507" x2="425.8322" y1="256.7695" y2="256.7695"><stop offset="0" style="stop-color:#FFFFFF"/><stop offset="1" style="stop-color:#000000"/></linearGradient><path class="st0" d="M373.12,210.4c2.31,0.47,4.57,1.24,6.74,2.18c2.19,0.92,4.28,2.04,6.33,3.24c4.08,2.44,7.9,5.35,11.4,8.63    c6.99,6.57,12.61,14.6,16.76,23.25c0.95,2.2,1.96,4.38,2.77,6.64c0.85,2.24,1.55,4.53,2.22,6.82c1.22,4.61,2.22,9.27,2.66,13.99    c0.98,9.41,0.63,18.88-1.68,28c-2.31-9.1-4.26-17.85-6.8-26.32c-1.21-4.24-2.63-8.38-4.11-12.46c-0.81-2.02-1.5-4.07-2.4-6.03    c-0.78-2.02-1.72-3.95-2.6-5.92c-3.72-7.76-8.04-15.21-13.24-22.2c-2.58-3.51-5.38-6.89-8.36-10.2    C379.82,216.7,376.65,213.49,373.12,210.4z"/></g></g></svg>