<?xml version="1.0" ?><svg id="Layer_1" style="enable-background:new 0 0 500 500;" version="1.1" viewBox="0 0 500 500" xml:space="preserve" xmlns="http://www.w3.org/2000/svg" xmlns:xlink="http://www.w3.org/1999/xlink"><style type="text/css">
	.st0{fill:url(#SVGID_1_);}
</style><g><path d="M291.18,224.48l-9.23,13.5l-32.28-22.09l-98.75,75.75c-2.25-5.28-4.09-10.76-5.48-16.4l103.68-79.54L291.18,224.48z"/><path d="M163.51,237.62c6.4-47.19,50.13-81,97.47-75.36l0.16,0.02c23.7,2.86,44.73,14.88,59.22,33.85   c14.52,19.01,20.6,42.53,17.11,66.23c-0.68,4.65-1.72,9.16-3.06,13.51l17.25,11.84c0.53-1.41,1.03-2.83,1.5-4.26   c4.21-12.85,5.95-26.27,5.18-39.9c-0.38-6.63-1.36-13.27-2.93-19.73c-1.56-6.46-3.72-12.79-6.42-18.83   c-5.53-12.39-13.17-23.39-22.72-32.69c-8.61-8.38-18.48-15.23-29.34-20.34c-10.59-4.99-21.88-8.22-33.55-9.61   c-6.63-0.79-13.37-0.97-20.03-0.54c-6.72,0.44-13.42,1.5-19.92,3.17c-13.49,3.45-26.05,9.41-37.34,17.69   c-19.87,14.59-34.18,36.24-40.28,60.96c-3,12.14-3.92,24.52-2.74,36.79c0.12,1.21,0.25,2.42,0.41,3.62l19.22-14.75   C162.71,245.43,162.98,241.53,163.51,237.62z"/><linearGradient gradientUnits="userSpaceOnUse" id="SVGID_1_" x1="155.4921" x2="389.9031" y1="355.1677" y2="355.1677"><stop offset="0" style="stop-color:#FF7300"/><stop offset="0.1771" style="stop-color:#F97C01"/><stop offset="0.4705" style="stop-color:#EA9602"/><stop offset="0.5521" style="stop-color:#E59E03"/><stop offset="0.8652" style="stop-color:#E5C500"/><stop offset="0.9944" style="stop-color:#BF6F00"/></linearGradient><path class="st0" d="M389.8,406.59c0.49-4.57-0.82-9.09-3.68-12.71c-7.31-9.26-14.72-18.68-21.9-27.79   c-4.1-5.21-8.34-10.59-12.51-15.88c-4.45-5.65-9-11.41-13.39-16.97c-2.03-2.57-4.06-5.14-6.1-7.72l-2.1-2.67l2.21-2.58   c0.28-0.32,0.55-0.65,0.83-0.97l-16.71-11.47c-18.37,20.79-46.3,32.38-76.14,28.9l-0.22-0.03c-23.64-2.82-44.62-14.65-59.07-33.32   c-3.65-4.72-6.78-9.72-9.36-14.96l-16.18,12.41c5.52,10.17,12.23,19.11,20.01,26.63c9.04,8.74,19.73,15.78,31.79,20.92   c10.3,4.4,20.77,7.25,31.11,8.48c10.23,1.22,20.63,0.88,30.9-1c10.21-1.87,20.58-5.32,30.83-10.25l2.86-1.38l2.06,2.42   c0.14,0.16,0.28,0.32,0.41,0.47c0.32,0.37,0.65,0.74,0.98,1.16c7.3,9.27,13.91,17.65,20.19,25.63c3.4,4.32,6.85,8.71,10.18,12.96   c7.35,9.36,14.95,19.04,22.47,28.52c2.83,3.57,6.89,5.84,11.42,6.38c4.65,0.55,9.21-0.76,12.85-3.7   C387.1,415.24,389.32,411.15,389.8,406.59z"/><path d="M347.71,297.22c-2.44,4.94-5.23,9.65-8.35,14.1L250,250l-31.07,23.76L209,260.78l40.48-30.96L347.71,297.22z"/><g><rect height="12.84" width="12.84" x="252.86" y="285.58"/><rect height="12.84" width="12.84" x="252.86" y="304.6"/><rect height="12.84" width="12.84" x="233.04" y="285.58"/><rect height="12.84" width="12.84" x="233.04" y="304.6"/></g><path d="M250,44.84L72.32,147.42v205.16L250,455.16l82.69-47.74c-2.82-3.59-5.63-7.16-8.39-10.68l-0.43-0.55   c-2.44-3.1-4.93-6.28-7.42-9.44L250,425.11L98.35,337.55V162.45L250,74.89l151.65,87.55v175.11l-27.23,15.72   c0.78,0.99,1.56,1.98,2.33,2.96c4.57,5.81,9.24,11.74,13.94,17.7l36.99-21.36V147.42L250,44.84z"/></g></svg>