<?xml version="1.0" ?><svg id="Layer_1" style="enable-background:new 0 0 500 500;" version="1.1" viewBox="0 0 500 500" xml:space="preserve" xmlns="http://www.w3.org/2000/svg" xmlns:xlink="http://www.w3.org/1999/xlink"><style type="text/css">
	.st0{fill:#303030;}
</style><g><path class="st0" d="M313.98,158.65H94.53v219.44h219.44c41.79,0,62.7-20.9,62.7-62.7c0-20.9-5.23-36.58-15.67-47.02   c10.44-10.45,15.67-26.13,15.67-47.02C376.67,179.54,355.77,158.65,313.98,158.65z M313.98,346.74H125.88v-62.7h188.09   c20.9,0,31.35,10.45,31.35,31.35C345.33,336.29,334.87,346.74,313.98,346.74z M135.44,268.37c0-5.27,4.27-9.54,9.54-9.54   s9.54,4.26,9.54,9.54c0,5.26-4.27,9.54-9.54,9.54S135.44,273.63,135.44,268.37z M165.23,268.37c0-5.27,4.27-9.54,9.54-9.54   s9.54,4.26,9.54,9.54c0,5.26-4.27,9.54-9.54,9.54S165.23,273.63,165.23,268.37z M195.02,268.37c0-5.27,4.27-9.54,9.54-9.54   s9.54,4.26,9.54,9.54c0,5.26-4.27,9.54-9.54,9.54S195.02,273.63,195.02,268.37z M224.81,268.37c0-5.27,4.27-9.54,9.54-9.54   c5.27,0,9.54,4.26,9.54,9.54c0,5.26-4.26,9.54-9.54,9.54C229.09,277.91,224.81,273.63,224.81,268.37z M254.62,268.37   c0-5.27,4.26-9.54,9.53-9.54c5.27,0,9.54,4.26,9.54,9.54c0,5.26-4.26,9.54-9.54,9.54C258.88,277.91,254.62,273.63,254.62,268.37z    M284.41,268.37c0-5.27,4.26-9.54,9.54-9.54c5.26,0,9.54,4.26,9.54,9.54c0,5.26-4.27,9.54-9.54,9.54   C288.67,277.91,284.41,273.63,284.41,268.37z M314.2,268.37c0-5.27,4.26-9.54,9.54-9.54c5.26,0,9.54,4.26,9.54,9.54   c0,5.26-4.27,9.54-9.54,9.54C318.46,277.91,314.2,273.63,314.2,268.37z M313.98,252.69H125.88V190h188.09   c20.9,0,31.35,10.44,31.35,31.35C345.33,242.24,334.87,252.69,313.98,252.69z"/><path class="st0" d="M302.57,122.66c0-16.63-13.53-30.16-30.16-30.16c-16.63,0-30.16,13.53-30.16,30.16   c0,16.63,13.53,30.16,30.16,30.16C289.04,152.82,302.57,139.29,302.57,122.66z M251.72,122.66c0-11.41,9.28-20.69,20.69-20.69   c11.41,0,20.69,9.28,20.69,20.69c0,11.41-9.28,20.69-20.69,20.69C261,143.34,251.72,134.06,251.72,122.66z"/><path class="st0" d="M162.77,152.82c26.44,0,47.96-21.51,47.96-47.96c0-26.44-21.51-47.96-47.96-47.96   c-26.44,0-47.96,21.51-47.96,47.96C114.82,131.31,136.33,152.82,162.77,152.82z M162.77,66.38c21.22,0,38.48,17.26,38.48,38.48   s-17.26,38.48-38.48,38.48s-38.48-17.26-38.48-38.48S141.55,66.38,162.77,66.38z"/><path class="st0" d="M385.28,231.17v67.61l74.93,25.78V193.09L385.28,231.17z M432.28,303.12c-5.26,0-9.54-4.27-9.54-9.54   c0-5.27,4.27-9.54,9.54-9.54c5.26,0,9.54,4.26,9.54,9.54C441.81,298.84,437.54,303.12,432.28,303.12z"/><path class="st0" d="M224.06,78.78c84.13,0,154.97,58.01,174.62,136.13l3.86-1.96c-20.44-79.48-92.71-138.38-178.48-138.38   c-4.53,0-9.01,0.17-13.46,0.49c0.83,1.32,1.6,2.68,2.31,4.07C216.6,78.91,220.31,78.78,224.06,78.78z"/><path class="st0" d="M248.21,437.27c-1.43,0.19-2.88,0.35-4.32,0.51v-35.36h34.21V384.1H170.01v18.31h34.21v35.36   c-1.44-0.16-2.88-0.31-4.32-0.51c-88.88-11.9-155.9-88.62-155.9-178.44c0-55.42,25.17-105.06,64.68-138.11   c-0.44-1.49-0.83-2.99-1.14-4.52c-41.32,33.82-67.75,85.2-67.75,142.64c0,44.9,16.34,88.15,46,121.8   c29.4,33.35,69.72,54.94,113.55,60.81c8.15,1.1,16.46,1.65,24.71,1.65c8.25,0,16.56-0.56,24.71-1.65   c43.83-5.87,84.16-27.47,113.55-60.81c17.46-19.81,30.3-42.95,37.91-67.8l-4.03-1.39C376.01,377.11,319.06,427.78,248.21,437.27z"/></g></svg>