<?xml version="1.0" ?><svg id="Layer_1" style="enable-background:new 0 0 500 500;" version="1.1" viewBox="0 0 500 500" xml:space="preserve" xmlns="http://www.w3.org/2000/svg" xmlns:xlink="http://www.w3.org/1999/xlink"><style type="text/css">
	.st0{fill:#333333;}
</style><g><path class="st0" d="M122.8,358.58c-21.98-23.44-37.36-53.04-42.25-84.84c-5.15-33.58,1.64-68.41,17.26-98.42   c15.6-29.98,40.2-55.5,70.63-70.5c30.86-15.22,66.63-19.17,100.33-13.02c32.02,5.84,62.55,20.87,85.55,44.09   c47.5,47.96,59.68,127.25,28.75,187.25s-102.58,96.08-169.2,85.2C179.01,402.64,146.93,384.32,122.8,358.58z M291.92,104.57   c-0.33-0.3-0.9-0.55-1.08-0.19c-0.28,0.56,0.4,0.46,0.72,0.58c3.63,2.83,7.33,5.57,10.89,8.5c4.7,3.86,4.99,3.94,10.43,0.19   c-3.12-1.54-6.04-3.1-9.06-4.45C299.94,107.48,296.1,105.58,291.92,104.57z M187.87,104.57c-7.55,2.21-14.53,5.67-21.86,9.58   c1.84,0.87,3.17,1.52,4.52,2.13c1.11,0.5,2.16,1.36,3.43,0.14c4.42-4.24,9.55-7.61,14.29-11.45c0.44-0.04,1.13-0.26,0.91-0.63   C188.81,103.72,188.28,104.28,187.87,104.57z M145.49,243.21c-3.71-0.56-6.74-1.14-9.68-2.13c-18.19-6.14-26.63-26.16-17.78-42.21   c6.71-12.17,21.47-16.76,32.98-10c6.6,3.87,10.56,9.79,10.6,17.58c0.04,6.95-3.15,12.43-9.2,16.08c-1.98,1.2-4.13,2.23-5.76-0.28   c-1.64-2.53,0.09-3.95,2.15-5.24c7.16-4.48,8.32-13,2.68-19.32c-4.05-4.53-9.21-6.34-15.03-5.06c-7.04,1.55-11.9,6.08-14.23,12.92   c-4.16,12.24,3.58,25.74,16.86,29.68c8.09,2.4,15.68,0.91,23.14-2.71c14.45-7.01,29.58-8.54,45.23-4.97   c2.23,0.51,4.46,1.06,7.18,1.71c-0.56-0.83-0.7-1.15-0.94-1.39c-27.8-27.82-55.62-55.61-83.38-83.47   c-1.72-1.72-2.46-1.06-3.75,0.37c-22.73,25.1-36.32,54.32-39.99,88.09c-2.6,23.87-0.09,47.18,8.55,69.54   c18.97,49.07,54.02,80.95,104.44,95.91c1.83,0.54,3.74,1.46,5.94,0.88c-9.43-14.79-3.72-31.19,6.6-39.48   c5.01-4.03,10.64-6.42,17.05-6.94c2.03-0.17,3.48,0.82,3.82,2.74c0.35,2-0.86,3.24-2.82,3.69c-0.67,0.16-1.35,0.35-2.03,0.45   c-5.23,0.71-9.72,2.94-13.4,6.67c-6.52,6.62-9.06,14.59-6.37,23.51c2.63,8.7,9.65,12.32,18.19,13.16   c10.74,1.06,21.52,0.94,32.2-0.47c32.44-4.26,60.82-17.43,85.23-39.27c2.4-2.15,2.09-3.1,0.01-5.18   c-35.56-35.43-71.02-70.96-106.54-106.44c-23.64-23.61-58.82-25.81-85.16-5.4c-20.89,16.19-26.1,44.36-12.35,66.79   c10.89,17.77,31.23,24.9,49.82,17.48c14.06-5.62,22.36-17.51,21.97-31.76c-0.21-7.69-3.18-14.35-8.38-20.02   c-1.51-1.65-2.1-3.52-0.23-5.17c1.66-1.47,3.42-0.99,4.89,0.58c7.22,7.74,10.58,16.88,10.24,27.47   c-0.16,5.16-1.64,10.01-3.69,15.33c5.33-1.79,10.17-1.92,15.03-1.67c18.7,0.95,39.72,16.85,37.79,40.19   c-0.79,9.55-4.86,17.48-12.15,23.73c-1.57,1.35-3.19,1.44-4.65,0.03c-1.51-1.46-1.29-3.11,0.05-4.61c0.93-1.03,1.98-1.95,2.9-2.99   c5.5-6.19,8.22-13.4,7.2-21.66c-2.07-16.76-18.79-29.65-35.96-28.25c-8.51,0.69-15.62,4.14-22.44,9.09   c-14.46,10.49-30.28,12.36-46.55,4.95c-22.53-10.25-34.82-37.92-28.51-62.79C130.19,261.43,136.12,251.72,145.49,243.21z    M348.09,263.65c0.1-1.96,0.03-3.95,0.33-5.88c0.4-2.59-0.7-3.07-3.04-3.05c-14.79,0.09-29.58,0.13-44.36-0.01   c-2.88-0.03-3.81,0.81-3.78,3.67c0.11,9.83-0.21,19.72-1.9,29.35c-1.42,8.06-0.4,14.26,6.59,19.15c1.99,1.39,3.65,2.91,6.19,3.31   c9.23,1.46,18.37,3.4,27.42,5.7c2.82,0.71,3.79-0.29,4.53-2.83C344.8,296.91,347.36,280.43,348.09,263.65z M295.98,195.89   c14.42-2.11,28.45-4.81,42.33-8.32c1.81-0.46,1.4-1.52,1.06-2.61c-6.72-21.93-17-41.84-33.17-58.42c-1.19-1.22-2.14-1.31-3.58-0.79   c-7.17,2.59-14.53,4.53-21.99,5.99c-2.58,0.5-2.6,1.35-1.73,3.4c3.64,8.61,6.54,17.48,8.91,26.53c2.75,10.5,4.76,21.14,6.39,31.86   C294.37,194.73,294.18,196.3,295.98,195.89z M322.86,247.71c7.63,0,15.25,0,22.88,0c1.41,0,2.69,0.19,2.61-2.08   c-0.62-16.41-2.07-32.69-5.79-48.74c-0.63-2.71-1.68-2.62-3.79-2.07c-13.19,3.39-26.55,5.95-40.03,7.81   c-2.91,0.4-3.29,1.45-3.03,3.93c1.33,12.76,1.75,25.58,1.83,38.4c0.02,2.51,1.09,2.81,3.13,2.79   C308.07,247.67,315.47,247.71,322.86,247.71z M236.27,168.63c0,0-0.01,0-0.01,0c0-9.6-0.09-19.2,0.06-28.8   c0.04-2.57-0.71-3.41-3.27-3.41c-6.47,0.01-12.95-0.31-19.37-1.18c-6.06-0.82-4.71-1.28-6.84,3.95c-7,17.2-11.31,35.11-13.89,53.46   c-0.78,5.56-0.43,6.19,4.42,6.52c12,0.83,24.02,1.17,36.05,1.26c2.34,0.02,2.91-0.83,2.89-3.01   C236.22,187.83,236.27,178.23,236.27,168.63z M243.45,168.14c-0.01,0-0.01,0-0.02,0c0,9.71,0.06,19.43-0.04,29.14   c-0.02,2.27,0.65,2.95,2.96,2.88c13.06-0.39,26.07-1.43,39.06-2.86c1.69-0.19,2.16-0.71,1.91-2.35c-3-19.8-7.43-39.2-15.09-57.79   c-1.16-2.83-2.64-3.49-5.42-3.03c-6.73,1.13-13.51,1.86-20.33,1.97c-2.49,0.04-3.09,0.92-3.06,3.25   C243.52,148.94,243.45,158.54,243.45,168.14z M374.59,254.77c-5.43,0-10.87,0.06-16.3-0.03c-1.93-0.03-2.84,0.28-2.89,2.59   c-0.4,19.83-2.86,39.36-8.77,58.36c-0.6,1.94-0.17,2.8,1.94,3.37c7.57,2.05,15.08,4.29,22.58,6.58c1.63,0.5,2.46,0.2,3.2-1.34   c2.09-4.37,4.49-8.6,6.46-13.02c7.58-16.94,11.6-34.74,12.86-53.23c0.17-2.55-0.44-3.46-3.14-3.35   C385.23,254.91,379.91,254.76,374.59,254.77z M374.7,247.71c5.32,0,10.64-0.11,15.95,0.05c2.37,0.07,3.23-0.52,3.13-3.05   c-0.24-5.89-0.68-11.75-1.52-17.59c-2.12-14.72-6.36-28.8-12.51-42.33c-0.98-2.16-1.88-2.56-4.13-1.62   c-7.78,3.23-15.78,5.9-23.91,8.08c-2.34,0.63-2.91,1.67-2.36,3.88c4.04,16.34,5.47,33.01,5.98,49.77c0.07,2.39,0.93,2.88,3.07,2.83   C363.83,247.63,369.27,247.71,374.7,247.71z M266.9,247.72c0,0,0-0.01,0-0.01c6.93,0,13.87-0.07,20.8,0.04   c2.13,0.03,2.75-0.63,2.75-2.76c0-12.72-0.6-25.4-1.71-38.07c-0.2-2.24-1-2.94-3.24-2.64c-12.72,1.71-25.51,2.59-38.33,2.79   c-2.74,0.04-3.82,0.83-3.78,3.79c0.15,11.21,0.12,22.42-0.02,33.63c-0.03,2.68,0.92,3.33,3.42,3.27   C253.49,247.63,260.19,247.72,266.9,247.72z M185.88,191.02c3.21-19.79,7.51-38.18,14.9-55.71c0.96-2.28-0.52-2.25-1.8-2.52   c-7.46-1.56-14.82-3.48-21.93-6.26c-2.06-0.81-3.25-0.31-4.72,1.23c-7.62,8-13.83,16.99-19.29,26.55   c-0.97,1.69-0.92,2.74,0.54,4.13c4.35,4.14,8.55,8.44,12.77,12.71C172.68,177.56,178.96,183.98,185.88,191.02z M347.94,184.89   c0.47-0.08,0.7-0.09,0.92-0.16c8.31-2.41,16.51-5.12,24.58-8.24c2.06-0.8,1.12-1.79,0.49-2.89   c-11.97-20.88-27.95-38.01-47.69-51.81c-3.9-2.73-6.95-3.28-11.16-1.01c-2.68,1.45-2.72,2.18-0.82,4.22   c8.4,9,15.24,19.1,20.82,30.07c4.46,8.76,8.12,17.82,10.93,27.25C346.32,183.34,346.21,185.09,347.94,184.89z M287.99,291.56   c1.19-11.3,2.03-22.88,2.33-34.51c0.06-2.28-1.09-2.32-2.76-2.31c-9.01,0.04-18.02,0.02-27.03,0.02c-3.18,0-6.36,0-9.55,0   C263.42,267.13,275.65,279.29,287.99,291.56z M236.26,239.83c0-9.9-0.04-19.84,0.04-29.78c0.02-2-0.69-2.56-2.61-2.54   c-4.39,0.06-8.79-0.12-13.18-0.14c-5.83-0.03-11.66-0.01-16.69-0.01C214.24,217.8,225.18,228.75,236.26,239.83z M345.17,325.26   c-1.68-0.46-2.02,0.74-2.49,1.83c-1.77,4.13-3.51,8.27-5.38,12.36c-0.56,1.22-0.59,2.07,0.41,3.06c4.03,3.97,8.03,7.97,11.99,12.01   c0.9,0.91,1.49,1.12,2.49,0.06c6.02-6.42,11.45-13.28,16.31-20.62c0.6-0.91,0.97-1.59-0.46-2.01   C360.41,329.74,352.79,327.5,345.17,325.26z M223.95,96.89c-16.28,4.23-30.56,12.06-43.57,23.23c7.62,2.98,15.03,4.58,22.43,6.24   c1.64,0.37,2.25-0.5,2.87-1.73C210.66,114.69,216.68,105.44,223.95,96.89z M255.81,96.91c7.09,8.46,13.23,17.49,18.07,27.37   c0.66,1.35,1.48,1.35,2.79,1.08c6.43-1.34,12.81-2.86,19.06-4.85c0.74-0.24,1.96-0.01,2.19-1.56   C285.6,108.56,271.71,100.96,255.81,96.91z M243.32,95.42c0,11.41,0,21.88,0,32.36c0,1.32,0.88,1.45,1.88,1.38   c7.29-0.51,14.6-0.91,22.06-2.34C261.15,115.09,254.13,104.5,243.32,95.42z M236.25,95.5c-10.5,8.96-17.44,19.39-23.41,30.56   c-0.76,1.42-0.18,1.74,1.16,1.94c6.76,1,13.57,1.29,20.39,1.32c1.34,0.01,1.86-0.49,1.86-1.81   C236.24,117.14,236.25,106.76,236.25,95.5z M167.22,122.73c-2.43-1.27-4.58-2.36-6.69-3.52c-1.12-0.61-2.03-0.62-3.18,0.12   c-7.98,5.14-15.46,10.92-22.4,17.4c-1.02,0.96-1.38,1.69-0.22,2.81c3.47,3.39,6.91,6.81,10.29,10.29c1.38,1.42,1.99,0.75,2.79-0.59   c1.88-3.17,3.86-6.3,5.85-9.4C157.58,133.73,162.43,128.32,167.22,122.73z M314.52,318.43c5.88,5.78,11.34,11.15,16.94,16.65   c1.4-3.22,2.97-6.78,4.5-10.36c0.36-0.85,0.25-1.56-0.87-1.8C328.35,321.46,321.63,319.98,314.52,318.43z"/><path class="st0" d="M112.6,180.33c-0.32-11.43,7.43-23.26,17.49-27.23c1.42-0.56,2.04-0.35,2.55,1.09   c5.39,15.21-1.32,30.39-15.48,37.09c-1.55,0.73-2.31,0.49-2.74-1.17C113.55,186.77,112.58,183.44,112.6,180.33z M119.49,182.26   c6.21-5.59,8.87-11.75,8.21-20.01C121.53,167.72,118.72,173.82,119.49,182.26z"/><path class="st0" d="M149.27,350.47c-0.04,4.09-1.03,7.97-2.4,11.8c-0.58,1.62-1.21,1.79-2.76,1.04   c-13.55-6.61-19.74-23.46-13.84-37.48c0.92-2.18,1.8-1.73,3.34-0.94C142.96,329.75,149.22,339.92,149.27,350.47z M134.88,333.66   c-0.92,8.42,1.38,14.8,7.39,20.49C143.3,345.84,141.01,339.46,134.88,333.66z"/><path class="st0" d="M122.83,243.01c3.42-0.25,7.14,1.01,10.88,2.2c1.52,0.48,2.18,1.01,1.25,2.88   c-6.85,13.73-23.56,19.85-37.77,13.77c-1.59-0.68-1.73-1.22-0.95-2.73C101.31,249.32,111.35,243.02,122.83,243.01z M125.45,250.23   c-6.45-2.15-16.68,1.77-19.31,7.27C113.75,258.22,120.16,255.97,125.45,250.23z"/><path class="st0" d="M282.02,336.66c12.05,0.01,22.47,7.02,27.04,17.65c0.69,1.59,0.73,2.24-1.23,2.9   c-14.57,4.9-30.04-1.85-36.39-15.94c-0.82-1.81-0.7-2.64,1.36-3.17C276.06,337.25,279.3,336.5,282.02,336.66z M299.74,352.04   c-4.13-6.24-12.7-9.96-19.2-8.37C285.54,349.68,291.66,352.57,299.74,352.04z"/><path class="st0" d="M264.74,300.44c8.54-0.3,15.72,2.85,21.88,8.67c1.04,0.98,0.95,1.58-0.07,2.46   c-12.33,10.73-29.03,10.09-40.75-1.22c-1.47-1.42-0.21-1.93,0.63-2.61C251.76,303.39,257.68,300.51,264.74,300.44z M276.91,310.21   c-6.22-4.24-15.47-4.42-21.1-0.4C262.86,313.41,269.72,313.64,276.91,310.21z"/><path class="st0" d="M172.74,352.57c0.23-1.83,0.64-3.66,0.65-5.49c0.02-3.34,1.55-3.03,3.94-2.1   c14.3,5.59,21.52,18.13,19.19,33.33c-0.37,2.41-1.14,2.99-3.52,2.12C180.53,375.9,172.83,365.33,172.74,352.57z M190.01,371.28   c0.65-6.6-4.17-14.78-10.34-17.53C179.47,360.98,184.17,368.96,190.01,371.28z"/><path class="st0" d="M193.37,270.77c-13.45,0.23-24.8-8.55-28.28-21.55c-0.48-1.77-0.39-2.41,1.59-2.7   c15.25-2.26,27.97,5.26,33.26,19.78c1.37,3.76,1.16,4.15-2.76,4.46C195.91,270.85,194.64,270.77,193.37,270.77z M173.79,253.13   c3.99,6.86,9.86,10.37,17.66,11.24C189.09,257.92,180.56,252.49,173.79,253.13z"/><path class="st0" d="M191.59,309.2c-10.48-0.08-18.03-4.08-24.05-11.34c-1.2-1.45-1.11-2.04,0.48-3.05   c13.13-8.42,29.74-5.68,39.43,6.5c1.17,1.47,1.09,2.09-0.5,3.05C201.91,307.4,196.6,309.4,191.59,309.2z M176.92,297.72   c6.37,5.24,15.41,6.54,20.81,3.2C191.43,296.43,184.75,295.33,176.92,297.72z"/><path class="st0" d="M244.43,271.76c-0.1,12.2-7.58,22.6-19.24,27.04c-1.82,0.69-2.4,0.35-2.89-1.39   c-4.14-14.77,4.48-31.03,18.89-35.64c1.27-0.41,1.8-0.33,2.1,1.09C243.92,265.8,244.61,268.72,244.43,271.76z M228.04,290.07   c6.66-4.99,9.77-11.04,10.01-18.87C231.97,274.03,227.63,282.04,228.04,290.07z"/><g><circle class="st0" cx="73.38" cy="138.94" r="28.14"/><path class="st0" d="M189.19,56.33c-15.94,3.19-31.57,8.37-46.42,15.4c-14.85,7.03-28.92,15.91-41.78,26.4    c-3.16,2.58-6.25,5.25-9.25,8.02c4.06,2.27,7.65,5.28,10.6,8.84c2.31-2.5,4.69-4.95,7.13-7.33    c11.16-10.87,23.69-20.45,37.27-28.41c13.58-7.96,28.21-14.3,43.48-18.79c15.27-4.49,31.17-7.13,47.24-7.85    C221.38,51.91,205.13,53.13,189.19,56.33z"/></g><g><ellipse class="st0" cx="79.57" cy="372.84" rx="28.14" ry="28.14" transform="matrix(0.9563 -0.2925 0.2925 0.9563 -105.5718 39.5793)"/><path class="st0" d="M36.79,237.17c-1.89,16.15-1.8,32.62,0.3,48.91c2.09,16.3,6.19,32.42,12.2,47.89    c1.47,3.8,3.06,7.56,4.77,11.28c3.42-3.15,7.38-5.64,11.68-7.35c-1.67-2.97-3.26-5.99-4.77-9.05    c-6.89-13.97-12.13-28.85-15.5-44.22c-3.38-15.38-4.89-31.25-4.44-47.16c0.44-15.91,2.85-31.84,7.14-47.35    C42.54,205.2,38.67,221.02,36.79,237.17z"/></g><g><ellipse class="st0" cx="303.94" cy="439.23" rx="28.14" ry="28.14" transform="matrix(0.9877 -0.1564 0.1564 0.9877 -64.969 52.9542)"/><path class="st0" d="M161.69,438c14.77,6.79,30.46,11.79,46.61,14.83c16.15,3.04,32.74,4.13,49.32,3.2    c4.07-0.23,8.14-0.58,12.2-1.05c-1.94-4.22-3.09-8.77-3.38-13.38c-3.34,0.67-6.7,1.25-10.08,1.74    c-15.41,2.24-31.18,2.62-46.85,1.07c-15.67-1.54-31.23-5.01-46.22-10.35c-14.99-5.34-29.4-12.55-42.83-21.42    C133.06,422.65,146.91,431.22,161.69,438z"/></g><g><ellipse class="st0" cx="436.41" cy="246.36" rx="28.14" ry="28.14" transform="matrix(0.1564 -0.9877 0.9877 0.1564 124.8126 638.8647)"/><path class="st0" d="M391.28,381.27c11.02-11.95,20.62-25.33,28.51-39.75c7.88-14.41,14.05-29.87,18.28-45.91    c1.04-3.94,1.97-7.92,2.77-11.93c-4.62,0.54-9.29,0.23-13.77-0.92c-0.4,3.38-0.88,6.76-1.46,10.12    c-2.64,15.35-7.15,30.46-13.46,44.89c-6.31,14.42-14.41,28.15-24.13,40.76c-9.71,12.61-21.03,24.09-33.61,34.11    C367.84,403.76,380.27,393.23,391.28,381.27z"/></g><g><ellipse class="st0" cx="293.92" cy="60.77" rx="28.14" ry="28.14" transform="matrix(0.9728 -0.2318 0.2318 0.9728 -6.0819 69.7871)"/><path class="st0" d="M408.28,145.39c-7.96-14.17-17.72-27.44-28.99-39.39c-11.27-11.95-24.06-22.59-38.02-31.58    c-3.43-2.21-6.92-4.32-10.49-6.32c-0.91,4.56-2.66,8.91-5.13,12.81c3.09,1.42,6.15,2.93,9.18,4.52    c13.78,7.25,26.77,16.21,38.53,26.67c11.77,10.45,22.32,22.41,31.31,35.54c8.99,13.13,16.41,27.44,22.06,42.5    C422.42,174.63,416.25,159.56,408.28,145.39z"/></g></g></svg>