<?xml version="1.0" ?><svg id="Layer_1" style="enable-background:new 0 0 500 500;" version="1.1" viewBox="0 0 500 500" xml:space="preserve" xmlns="http://www.w3.org/2000/svg" xmlns:xlink="http://www.w3.org/1999/xlink"><style type="text/css">
	.st0{fill:#333333;}
</style><g><path class="st0" d="M268.13,449.62c-0.03,0-0.07,0.01-0.1,0.01c-0.16,0.01-0.31,0.03-0.47,0.04c0.16-0.01,0.31-0.03,0.47-0.04   C268.07,449.63,268.1,449.62,268.13,449.62z"/><path class="st0" d="M316.72,439.06c-0.16,0.06-0.33,0.12-0.49,0.18c-0.1,0.03-0.19,0.07-0.29,0.1c0.1-0.03,0.19-0.07,0.29-0.1   C316.39,439.17,316.56,439.12,316.72,439.06z"/><path class="st0" d="M318.14,61.17c-0.02-0.02-0.04-0.03-0.06-0.05c-0.01-0.01-0.02-0.01-0.02-0.02c0.06,0.04,0.12,0.09,0.17,0.14   C318.21,61.22,318.18,61.2,318.14,61.17z"/><path class="st0" d="M329.41,434.09c-0.84,0.36-1.68,0.72-2.53,1.07c-0.06,0.03-0.13,0.05-0.19,0.08c0.06-0.03,0.13-0.05,0.19-0.08   C327.73,434.81,328.57,434.46,329.41,434.09z"/><path class="st0" d="M313.16,440.28c0.74-0.25,1.49-0.5,2.23-0.75C314.65,439.78,313.91,440.03,313.16,440.28z"/><path class="st0" d="M257.99,450.27c0.79-0.03,1.59-0.07,2.38-0.11c0.07,0,0.13-0.01,0.2-0.01c-0.07,0-0.13,0.01-0.2,0.01   C259.58,450.21,258.79,450.24,257.99,450.27c-0.12,0-0.23,0.01-0.35,0.01c-0.31,0.01-0.62,0.02-0.93,0.03   c0.31-0.01,0.62-0.02,0.93-0.03C257.76,450.28,257.87,450.28,257.99,450.27z"/><path class="st0" d="M318.02,61.08c-0.03-0.02-0.05-0.04-0.08-0.05c-0.03-0.02-0.07-0.04-0.11-0.06   C317.9,61,317.96,61.04,318.02,61.08C318.02,61.09,318.02,61.08,318.02,61.08z"/><path class="st0" d="M280.77,448.08c0.02,0,0.05-0.01,0.07-0.01c-0.09,0.01-0.17,0.03-0.26,0.04c-0.14,0.02-0.27,0.04-0.4,0.06   c0.13-0.02,0.27-0.04,0.4-0.06C280.64,448.1,280.7,448.09,280.77,448.08z"/><path class="st0" d="M255.22,450.36c-0.07,0-0.13,0-0.2,0.01c-0.21,0.01-0.43,0.01-0.64,0.01c0.21,0,0.43-0.01,0.64-0.01   C255.09,450.37,255.16,450.36,255.22,450.36z"/><path class="st0" d="M263.1,450.01c-0.09,0.01-0.17,0.01-0.26,0.02c-0.17,0.01-0.34,0.02-0.51,0.03c0.17-0.01,0.34-0.02,0.51-0.03   C262.93,450.02,263.01,450.01,263.1,450.01z"/><path class="st0" d="M263.35,449.99c0.68-0.05,1.37-0.09,2.05-0.15C264.72,449.9,264.04,449.95,263.35,449.99z"/><path class="st0" d="M107.97,113.07c-0.73-0.73-1.32-1.13-1.84-1.27l95.82,95.37C170.61,175.82,139.26,144.48,107.97,113.07z"/><path class="st0" d="M279.84,448.23c-1.58,0.24-3.17,0.47-4.76,0.68c-8.04,1.06-16.12,1.56-24.21,1.52c0.24,0,0.47,0,0.71-0.01   c0.31,0,0.61,0,0.92-0.01c0.06,0,0.12,0,0.18,0c0.57-0.01,1.14-0.02,1.71-0.03c0.21,0,0.43-0.01,0.64-0.01c0.06,0,0.13,0,0.2-0.01   c0.13,0,0.25-0.01,0.38-0.01c0.37-0.01,0.74-0.02,1.11-0.03c0.31-0.01,0.62-0.02,0.93-0.03c0.12,0,0.23-0.01,0.35-0.01   c0.79-0.03,1.59-0.07,2.38-0.11c0.07,0,0.13-0.01,0.2-0.01c0.07,0,0.15-0.01,0.22-0.01c0.51-0.03,1.03-0.06,1.54-0.09   c0.17-0.01,0.34-0.02,0.51-0.03c0.09-0.01,0.17-0.01,0.26-0.02c0.06,0,0.12-0.01,0.18-0.01c0.02,0,0.05,0,0.07,0   c0.68-0.05,1.37-0.09,2.05-0.15c0.09-0.01,0.18-0.01,0.27-0.02c0.07,0,0.14-0.01,0.21-0.02c0.56-0.04,1.12-0.09,1.69-0.14   c0.16-0.01,0.31-0.02,0.47-0.04c0.03,0,0.07-0.01,0.1-0.01c0.14-0.01,0.27-0.02,0.41-0.04c1.56-0.14,3.11-0.3,4.66-0.48   c0.1-0.01,0.2-0.02,0.31-0.03c0.09-0.01,0.17-0.02,0.26-0.03c0.65-0.08,1.3-0.16,1.94-0.24c0.14-0.02,0.27-0.03,0.41-0.05   c0.74-0.1,1.49-0.2,2.23-0.3c0.21-0.03,0.41-0.06,0.62-0.09C279.26,448.31,279.55,448.27,279.84,448.23z"/><path class="st0" d="M273.2,449.1c0.1-0.01,0.21-0.02,0.31-0.04C273.41,449.08,273.31,449.09,273.2,449.1   c-1.55,0.18-3.1,0.34-4.66,0.48c-0.14,0.01-0.27,0.02-0.41,0.04c0.14-0.01,0.27-0.02,0.41-0.04   C270.1,449.44,271.66,449.28,273.2,449.1z"/><path class="st0" d="M256.72,450.32c-0.37,0.01-0.74,0.03-1.11,0.04c-0.13,0-0.25,0.01-0.38,0.01c0.13,0,0.25-0.01,0.38-0.01   C255.97,450.34,256.34,450.33,256.72,450.32z"/><path class="st0" d="M263.35,449.99c-0.02,0-0.05,0-0.07,0c-0.06,0-0.12,0.01-0.18,0.01c0.06,0,0.12-0.01,0.18-0.01   C263.31,449.99,263.33,449.99,263.35,449.99z"/><path class="st0" d="M262.33,450.05c-0.51,0.03-1.02,0.06-1.54,0.09c-0.07,0-0.15,0.01-0.22,0.01c0.07,0,0.15-0.01,0.22-0.01   C261.31,450.12,261.82,450.08,262.33,450.05z"/><path class="st0" d="M326.07,435.5c0.21-0.09,0.41-0.17,0.62-0.25C326.48,435.33,326.27,435.41,326.07,435.5   c-0.58,0.24-1.16,0.47-1.74,0.71c-0.29,0.11-0.58,0.23-0.87,0.34c0.29-0.11,0.58-0.23,0.87-0.34   C324.91,435.97,325.49,435.73,326.07,435.5z"/><path class="st0" d="M329.49,434.14c-6.77,2.9-13.72,5.43-20.84,7.58c0.06-0.02,0.12-0.04,0.18-0.06c0.13-0.04,0.25-0.08,0.38-0.12   c0.38-0.12,0.76-0.24,1.14-0.35c0.56-0.18,1.11-0.35,1.67-0.54c0.11-0.04,0.22-0.07,0.33-0.11c0.21-0.07,0.42-0.14,0.63-0.2   c0.07-0.02,0.13-0.04,0.2-0.07c0.74-0.25,1.49-0.5,2.23-0.75c0.04-0.01,0.08-0.03,0.12-0.04c0.15-0.05,0.29-0.1,0.43-0.15   c0.1-0.03,0.19-0.07,0.29-0.1c0.16-0.06,0.33-0.12,0.49-0.18c0.46-0.16,0.93-0.33,1.4-0.49c0.24-0.09,0.49-0.18,0.73-0.27   c0.08-0.03,0.17-0.06,0.25-0.09c0.55-0.2,1.09-0.4,1.63-0.61c0.34-0.13,0.68-0.26,1.01-0.39c0.54-0.21,1.08-0.42,1.62-0.63   c0.03-0.01,0.07-0.03,0.1-0.04c0.29-0.11,0.58-0.23,0.87-0.34c0.58-0.23,1.16-0.47,1.74-0.71c0.21-0.09,0.42-0.17,0.62-0.25   c0.06-0.03,0.13-0.05,0.19-0.08c0.85-0.35,1.69-0.71,2.53-1.07L329.49,434.14z"/><path class="st0" d="M313.16,440.28c-0.07,0.02-0.13,0.04-0.2,0.07c-0.21,0.07-0.42,0.14-0.63,0.2c0.21-0.07,0.42-0.13,0.63-0.2   C313.03,440.32,313.1,440.3,313.16,440.28z"/><path class="st0" d="M318.85,438.29c-0.24,0.09-0.49,0.18-0.73,0.27c-0.46,0.17-0.93,0.33-1.4,0.5c0.47-0.16,0.93-0.33,1.4-0.49   C318.36,438.47,318.61,438.38,318.85,438.29z"/><path class="st0" d="M315.94,439.33c-0.14,0.05-0.29,0.1-0.43,0.15c-0.04,0.01-0.08,0.03-0.12,0.04c0.04-0.01,0.08-0.03,0.12-0.04   C315.65,439.44,315.8,439.39,315.94,439.33z"/><path class="st0" d="M308.25,441.84c-0.05,0.02-0.1,0.03-0.15,0.05c-0.02,0.01-0.04,0.01-0.06,0.02c-0.12,0.03-0.24,0.07-0.36,0.11   C307.87,441.95,308.06,441.9,308.25,441.84z"/><path class="st0" d="M308.82,441.66c-0.06,0.02-0.12,0.04-0.18,0.06c-0.06,0.02-0.13,0.04-0.19,0.06c0,0-0.01,0-0.01,0   c-0.03,0.01-0.06,0.02-0.1,0.03C308.5,441.76,308.66,441.71,308.82,441.66z"/><path class="st0" d="M262.21,458.48l1.41-0.11h0C263.14,458.41,262.68,458.44,262.21,458.48z"/><path class="st0" d="M262.21,458.48c0.47-0.03,0.94-0.07,1.41-0.11C263.09,458.26,262.59,458.19,262.21,458.48z"/><path class="st0" d="M183.35,61.77c-0.17-0.17-0.34-0.34-0.5-0.51c0.54-0.38,1.22-1.11,1.69-0.3   C184.82,61.43,183.93,61.71,183.35,61.77z"/><path class="st0" d="M318.23,61.26c-0.15,0.17-0.3,0.35-0.47,0.51c-0.42-0.15-1.3-0.02-0.94-0.75c0.15-0.3,0.5-0.28,0.85-0.13   c0.05,0.02,0.1,0.05,0.15,0.08c0.04,0.02,0.07,0.04,0.11,0.06C318.04,61.1,318.14,61.18,318.23,61.26z"/><path class="st0" d="M318.24,61.25c-0.05-0.05-0.11-0.09-0.17-0.14c-0.01-0.01-0.02-0.02-0.03-0.02c-0.06-0.04-0.13-0.09-0.2-0.12   C317.98,61.05,318.12,61.15,318.24,61.25C318.23,61.25,318.23,61.25,318.24,61.25z"/><path class="st0" d="M281.33,448c-0.16,0.03-0.32,0.05-0.49,0.08c-0.02,0-0.05,0.01-0.07,0.01c0.02,0,0.05-0.01,0.07-0.01   C281,448.05,281.16,448.02,281.33,448c0.75-0.12,1.49-0.24,2.24-0.36c0.08-0.01,0.15-0.03,0.23-0.04   c-0.08,0.01-0.15,0.03-0.23,0.04C282.82,447.76,282.07,447.88,281.33,448z"/><path class="st0" d="M399.44,101.98c-29.92-30.2-69.64-49.76-111.31-57.36c-43.86-8-90.4-2.85-130.55,16.94   c-39.6,19.53-71.6,52.73-91.9,91.74c-20.32,39.05-29.17,84.37-22.46,128.06c6.35,41.38,26.37,79.89,54.97,110.39   c31.4,33.49,73.14,57.32,118.5,64.73c15.08,2.46,30.36,3.07,45.52,2c0.38-0.29,0.89-0.21,1.41-0.11h0   c25.35-1.98,50.35-8.67,73.54-19.35c21.4-9.86,41.25-23.1,58.4-39.16c16.66-15.6,30.78-33.86,41.28-54.24   C477.08,267.56,461.25,164.39,399.44,101.98z M432.51,165.63c8.01,17.61,13.52,35.93,16.28,55.08c1.09,7.59,1.66,15.22,1.98,22.88   c0.14,3.3-0.99,4.06-4.07,3.97c-6.91-0.21-13.84-0.06-20.76-0.06c-7.07-0.01-14.14-0.11-21.21,0.04c-2.78,0.06-3.9-0.58-3.99-3.69   c-0.66-21.81-2.52-43.5-7.78-64.76c-0.71-2.88,0.02-4.24,3.07-5.05c10.58-2.84,20.99-6.31,31.11-10.51   C430.07,162.31,431.24,162.82,432.51,165.63z M348.37,82.35c5.47-2.95,9.44-2.24,14.52,1.31c25.67,17.95,46.47,40.24,62.05,67.41   c0.82,1.43,2.04,2.73-0.63,3.76c-10.5,4.06-21.17,7.59-31.98,10.72c-0.29,0.08-0.59,0.1-1.2,0.2c-2.25,0.26-2.1-2.02-2.5-3.35   c-3.65-12.26-8.41-24.05-14.22-35.45c-7.27-14.27-16.16-27.41-27.09-39.12C344.83,85.19,344.88,84.24,348.37,82.35z M374.98,336.19   c-11.78-2.99-23.67-5.51-35.68-7.41c-3.31-0.53-5.46-2.49-8.05-4.31c-9.08-6.37-10.41-14.42-8.57-24.91   c2.2-12.53,2.61-25.4,2.47-38.19c-0.04-3.72,1.18-4.8,4.92-4.77c19.24,0.18,38.48,0.13,57.72,0.01c3.05-0.02,4.48,0.61,3.96,3.97   c-0.39,2.51-0.3,5.1-0.43,7.65c-0.96,21.84-4.29,43.27-10.44,64.28C379.91,335.81,378.65,337.12,374.98,336.19z M375.52,347.69   c-1.99,4.66-4.03,9.3-5.85,13.48c-7.29-7.16-14.39-14.15-22.04-21.67c9.26,2.02,18,3.95,26.75,5.84   C375.85,345.66,375.99,346.59,375.52,347.69z M312.75,247.55c-9.02-0.15-18.05-0.05-27.07-0.05v0.02c-8.72,0-17.45-0.12-26.17,0.06   c-3.25,0.07-4.49-0.78-4.45-4.26c0.18-14.59,0.22-29.18,0.02-43.76c-0.05-3.84,1.35-4.87,4.92-4.93   c16.69-0.27,33.33-1.41,49.87-3.64c2.91-0.39,3.96,0.51,4.21,3.43c1.44,16.48,2.23,32.99,2.22,49.53   C316.32,246.73,315.51,247.59,312.75,247.55z M316.16,259.65c-0.39,15.13-1.49,30.2-3.04,44.89   c-16.05-15.96-31.97-31.79-48.15-47.88h12.42c11.72,0,23.45,0.03,35.17-0.02C314.74,256.63,316.24,256.69,316.16,259.65z    M255.15,143.97h0.03c0-12.49,0.08-24.98-0.06-37.46c-0.04-3.04,0.74-4.18,3.98-4.23c8.87-0.13,17.7-1.09,26.45-2.56   c3.62-0.61,5.54,0.26,7.06,3.94c9.97,24.19,15.74,49.43,19.63,75.19c0.32,2.14-0.29,2.82-2.49,3.06   c-16.9,1.87-33.82,3.22-50.82,3.73c-3,0.09-3.88-0.79-3.84-3.75C255.22,169.24,255.15,156.6,255.15,143.97z M312.87,135.54   c-3.08-11.77-6.85-23.31-11.59-34.52c-1.13-2.67-1.11-3.77,2.25-4.42c9.71-1.9,19.29-4.43,28.61-7.79   c1.88-0.68,3.11-0.56,4.66,1.03c21.04,21.57,34.42,47.47,43.16,76.01c0.44,1.43,0.97,2.81-1.38,3.4   c-18.05,4.56-36.31,8.07-55.07,10.82c-2.34,0.54-2.09-1.51-2.33-3.07C319.07,163.05,316.45,149.2,312.87,135.54z M384.13,181.37   c4.83,20.88,6.72,42.07,7.53,63.42c0.11,2.95-1.56,2.7-3.39,2.7c-9.92,0-19.85,0-29.77,0c-9.62,0.01-19.25-0.05-28.87,0.04   c-2.66,0.03-4.05-0.36-4.07-3.63c-0.11-16.68-0.66-33.36-2.39-49.96c-0.33-3.22,0.16-4.59,3.94-5.11   c17.54-2.42,34.93-5.74,52.09-10.16C381.94,177.97,383.31,177.85,384.13,181.37z M316.83,61.01c0.15-0.3,0.5-0.28,0.85-0.13   c0.05,0.02,0.1,0.05,0.15,0.08c0.04,0.02,0.07,0.04,0.11,0.06c0.03,0.02,0.05,0.03,0.08,0.05c0,0,0.01,0,0.01,0.01   c0.01,0.01,0.02,0.02,0.03,0.02c0.01,0.01,0.02,0.01,0.02,0.02c0.02,0.01,0.04,0.03,0.06,0.05c0.03,0.02,0.06,0.05,0.09,0.08   c0,0,0,0,0,0c5.44,1.31,10.43,3.78,15.49,6.04c3.93,1.75,7.73,3.78,11.78,5.79c-7.09,4.87-7.47,4.77-13.58-0.25   c-4.63-3.8-9.44-7.38-14.17-11.06C317.35,61.62,316.47,61.75,316.83,61.01z M326.04,79.96c-0.3,2.02-1.89,1.73-2.85,2.04   c-8.14,2.59-16.44,4.57-24.8,6.31c-1.7,0.35-2.77,0.35-3.63-1.41c-6.29-12.86-14.28-24.6-23.51-35.61   C291.94,56.55,310.01,66.44,326.04,79.96z M254.99,49.34c14.07,11.82,23.2,25.6,31.15,40.87c-9.71,1.85-19.22,2.37-28.7,3.04   c-1.3,0.09-2.45-0.08-2.45-1.8C255,77.82,254.99,64.18,254.99,49.34z M245.81,144.6h0.01c0,12.49-0.07,24.98,0.05,37.47   c0.03,2.84-0.72,3.94-3.77,3.92c-15.65-0.11-31.29-0.56-46.9-1.64c-6.31-0.43-6.76-1.25-5.75-8.48   c3.36-23.88,8.95-47.19,18.07-69.56c2.77-6.81,1.01-6.19,8.9-5.13c8.35,1.12,16.78,1.54,25.2,1.53c3.34,0,4.31,1.09,4.26,4.43   C245.69,119.61,245.81,132.11,245.81,144.6z M245.82,237.25c-14.41-14.42-28.65-28.67-42.22-42.25c6.55,0,14.14-0.03,21.72,0.01   c5.72,0.03,11.44,0.26,17.15,0.19c2.5-0.03,3.42,0.7,3.4,3.3C245.76,211.43,245.82,224.36,245.82,237.25z M180.26,173.74   c-9.01-9.17-17.18-17.52-25.39-25.83c-5.49-5.56-10.96-11.15-16.62-16.54c-1.91-1.81-1.96-3.17-0.71-5.38   c7.1-12.45,15.18-24.14,25.1-34.55c1.91-2.01,3.46-2.65,6.14-1.6c9.24,3.61,18.82,6.12,28.53,8.15c1.66,0.35,3.59,0.31,2.34,3.28   C190.04,124.06,184.44,147.98,180.26,173.74z M245.8,49.45c0,14.65-0.01,28.16,0.01,41.66c0,1.72-0.68,2.36-2.42,2.35   c-8.88-0.04-17.73-0.42-26.54-1.72c-1.75-0.26-2.5-0.68-1.51-2.53C223.11,74.67,232.14,61.11,245.8,49.45z M206.03,87.35   c-0.81,1.61-1.61,2.73-3.74,2.25c-9.63-2.15-19.27-4.24-29.19-8.12c16.92-14.54,35.51-24.73,56.69-30.23   C220.33,62.39,212.51,74.42,206.03,87.35z M182.86,61.26c0.54-0.38,1.22-1.11,1.69-0.3c0.27,0.47-0.61,0.76-1.19,0.82   c-6.17,5-12.84,9.38-18.59,14.9c-1.66,1.6-3.02,0.48-4.47-0.18c-1.75-0.79-3.48-1.64-5.88-2.77   C163.95,68.63,173.03,64.13,182.86,61.26z M113.99,103.09c9.03-8.44,18.75-15.95,29.14-22.64c1.5-0.96,2.68-0.96,4.14-0.16   c2.75,1.51,5.55,2.93,8.71,4.58c-6.23,7.28-12.54,14.31-17.65,22.27c-2.6,4.04-5.16,8.1-7.62,12.23c-1.03,1.74-1.84,2.61-3.63,0.77   c-4.4-4.53-8.87-8.98-13.39-13.39C112.2,105.29,112.66,104.34,113.99,103.09z M385.97,397.82c-17.29,15.47-36.11,27.59-56.48,36.32   c-6.77,2.9-13.72,5.43-20.84,7.58c-0.06,0.02-0.13,0.04-0.19,0.06c0,0-0.01,0-0.01,0c-0.03,0.01-0.06,0.02-0.1,0.03   c-0.05,0.02-0.11,0.03-0.17,0.05c-0.03,0.01-0.05,0.02-0.08,0.02c-0.02,0.01-0.04,0.01-0.06,0.02c-0.12,0.03-0.24,0.07-0.36,0.11   c-0.02,0.01-0.04,0.01-0.06,0.02c-0.01,0-0.02,0.01-0.03,0.01c-0.01,0-0.02,0-0.02,0.01c-0.16,0.05-0.31,0.1-0.47,0.14   c-0.28,0.08-0.55,0.16-0.83,0.24c-0.09,0.02-0.17,0.05-0.26,0.08c-0.09,0.02-0.17,0.05-0.26,0.08c-0.04,0.01-0.07,0.02-0.11,0.03   c-0.06,0.02-0.12,0.03-0.18,0.05c-0.1,0.03-0.2,0.06-0.3,0.09c-0.33,0.09-0.66,0.19-0.99,0.28c-0.08,0.02-0.15,0.04-0.23,0.06   c-0.32,0.09-0.64,0.18-0.96,0.26c-0.3,0.08-0.6,0.16-0.9,0.24c-0.19,0.05-0.37,0.1-0.56,0.15c-0.32,0.09-0.64,0.17-0.96,0.25   c-0.52,0.14-1.04,0.27-1.56,0.4c-0.24,0.06-0.48,0.12-0.71,0.18c-0.02,0-0.03,0.01-0.04,0.01c-0.04,0.01-0.08,0.02-0.12,0.03   c-0.62,0.15-1.25,0.31-1.87,0.45c-0.1,0.02-0.19,0.04-0.29,0.07c-0.07,0.02-0.14,0.03-0.21,0.05c-0.58,0.14-1.15,0.27-1.73,0.4   c-0.14,0.03-0.28,0.06-0.42,0.1c-0.06,0.01-0.12,0.03-0.18,0.04c-0.38,0.09-0.77,0.17-1.16,0.25c-0.31,0.07-0.62,0.14-0.94,0.2   c-0.03,0.01-0.07,0.01-0.1,0.02c-0.13,0.03-0.26,0.05-0.38,0.08c-0.62,0.13-1.24,0.25-1.86,0.38c-0.15,0.03-0.3,0.06-0.45,0.09   c-0.72,0.14-1.45,0.28-2.17,0.41c-0.07,0.01-0.13,0.02-0.2,0.04c-0.1,0.02-0.19,0.03-0.29,0.05c-0.66,0.12-1.31,0.24-1.97,0.35   c-0.01,0-0.03,0.01-0.04,0.01c-0.01,0-0.03,0-0.04,0.01c-0.08,0.01-0.15,0.03-0.23,0.04c-0.74,0.13-1.49,0.25-2.24,0.36   c-0.16,0.03-0.32,0.05-0.49,0.08c-0.02,0-0.05,0.01-0.07,0.01c-0.02,0-0.03,0.01-0.05,0.01c-0.18,0.03-0.36,0.05-0.54,0.08   c-0.11,0.02-0.23,0.03-0.34,0.05c-1.58,0.24-3.17,0.47-4.76,0.68c-8.04,1.06-16.12,1.56-24.21,1.52c-0.29,0-0.58,0-0.86,0   c-110.76,0-200.54-89.79-200.54-200.54c0-53.91,21.27-102.85,55.88-138.88l0.8,0.79c0.53,0.14,1.12,0.55,1.84,1.27   c31.29,31.41,62.64,62.75,93.98,94.09c4.83,4.84,9.67,9.67,14.5,14.51c0.18,0.19,0.33,0.41,0.57,0.81l27.08,27.02   c1.1,1,2.18,2.02,3.25,3.09c33.23,33.19,66.42,66.42,99.65,99.61l26.2,26.14c4.26,4.25,8.51,8.49,12.77,12.73   C388.69,393.78,389.09,395.02,385.97,397.82z M417.88,359.72c-6.32,9.54-13.39,18.47-21.22,26.82c-1.29,1.38-2.07,1.11-3.23-0.08   c-5.16-5.25-10.36-10.47-15.61-15.63c-1.3-1.28-1.27-2.39-0.54-3.98c2.43-5.31,4.7-10.71,7-16.08c0.61-1.42,1.06-2.98,3.24-2.38   c9.92,2.91,19.83,5.82,29.76,8.71C419.15,357.65,418.66,358.54,417.88,359.72z M450.63,260.95c-1.64,24.05-6.87,47.22-16.74,69.25   c-2.57,5.75-5.69,11.25-8.41,16.94c-0.96,2-2.05,2.39-4.17,1.74c-9.76-2.97-19.53-5.89-29.38-8.56c-2.75-0.74-3.31-1.86-2.52-4.38   c7.69-24.73,10.89-50.14,11.41-75.94c0.06-3.01,1.25-3.41,3.76-3.37c7.07,0.12,14.14,0.04,21.21,0.04   c6.92-0.01,13.85,0.18,20.76-0.09C450.06,256.45,450.86,257.63,450.63,260.95z"/><path class="st0" d="M283.88,447.58c0.66-0.11,1.32-0.23,1.97-0.35c0.1-0.02,0.19-0.03,0.29-0.05c-0.1,0.02-0.19,0.03-0.29,0.05   C285.2,447.35,284.54,447.47,283.88,447.58z"/><path class="st0" d="M308.34,441.81c-0.08,0.03-0.16,0.05-0.24,0.07c0.05-0.02,0.1-0.03,0.15-0.05   C308.28,441.83,308.31,441.82,308.34,441.81z"/><path class="st0" d="M302.97,443.36c-0.3,0.08-0.6,0.16-0.9,0.24C302.37,443.52,302.67,443.44,302.97,443.36   c0.32-0.09,0.64-0.17,0.96-0.26c0.08-0.02,0.15-0.04,0.23-0.07c-0.08,0.02-0.15,0.04-0.23,0.07   C303.61,443.18,303.29,443.27,302.97,443.36z"/><path class="st0" d="M291.21,446.19c0.03-0.01,0.07-0.01,0.1-0.02c0.31-0.07,0.63-0.13,0.94-0.2c-0.31,0.07-0.63,0.14-0.94,0.2   C291.28,446.18,291.24,446.18,291.21,446.19z"/><path class="st0" d="M294.01,445.58c-0.14,0.03-0.28,0.06-0.42,0.1C293.73,445.65,293.87,445.62,294.01,445.58   c0.58-0.13,1.16-0.26,1.73-0.39c0.07-0.02,0.14-0.03,0.21-0.05c-0.07,0.02-0.14,0.03-0.21,0.05   C295.16,445.32,294.59,445.46,294.01,445.58z"/><path class="st0" d="M298.11,444.62c0.04-0.01,0.08-0.02,0.12-0.03c0.01,0,0.03-0.01,0.04-0.01c-0.01,0-0.03,0.01-0.04,0.01   C298.19,444.6,298.15,444.61,298.11,444.62z"/><path class="st0" d="M307.62,442.03c0.14-0.04,0.28-0.08,0.42-0.12c-0.12,0.03-0.24,0.07-0.36,0.11   C307.66,442.01,307.64,442.02,307.62,442.03z"/><path class="st0" d="M318.03,61.09c0.01,0.01,0.02,0.02,0.03,0.02C318.05,61.1,318.04,61.1,318.03,61.09z"/><path class="st0" d="M306.01,442.5c-0.09,0.02-0.17,0.05-0.26,0.08c-0.04,0.01-0.07,0.02-0.11,0.03   C305.76,442.57,305.88,442.54,306.01,442.5z"/><path class="st0" d="M305.46,442.66c0.1-0.03,0.19-0.05,0.29-0.08c-0.04,0.01-0.07,0.02-0.11,0.03   C305.58,442.63,305.52,442.64,305.46,442.66z"/><path class="st0" d="M280.58,448.11c-0.14,0.02-0.27,0.04-0.4,0.06c-0.11,0.02-0.23,0.03-0.34,0.05c-0.29,0.04-0.58,0.08-0.87,0.13   C279.51,448.27,280.04,448.19,280.58,448.11z"/><path class="st0" d="M307.56,442.05c-0.16,0.05-0.31,0.1-0.47,0.14c-0.28,0.08-0.55,0.16-0.83,0.24   C306.7,442.3,307.13,442.17,307.56,442.05z"/><path class="st0" d="M251.57,450.42c-0.24,0-0.47,0.01-0.71,0.01c-0.07,0-0.14,0-0.21,0C250.96,450.42,251.26,450.42,251.57,450.42   z"/><path class="st0" d="M273.2,449.1c-1.55,0.18-3.1,0.34-4.66,0.48C270.1,449.44,271.66,449.28,273.2,449.1z"/><path class="st0" d="M217.03,222.48L106.13,111.8c0,0,0,0,0,0l95.82,95.37c4.83,4.84,9.67,9.67,14.5,14.51   C216.64,221.86,216.79,222.09,217.03,222.48z"/><path class="st0" d="M347.01,352.2l-102.9-102.69c1.1,1,2.18,2.02,3.25,3.09C280.59,285.78,313.78,319.01,347.01,352.2z"/><path class="st0" d="M280.58,448.11c-0.13,0.02-0.27,0.04-0.4,0.06c0.2-0.03,0.39-0.06,0.59-0.09   C280.7,448.09,280.64,448.1,280.58,448.11z"/><path class="st0" d="M280.18,448.18c0.22-0.03,0.44-0.07,0.66-0.1c-0.02,0-0.05,0.01-0.07,0.01   C280.57,448.11,280.37,448.14,280.18,448.18z"/><path class="st0" d="M305.58,442.63c-0.14,0.04-0.28,0.08-0.42,0.12c-0.33,0.09-0.66,0.19-0.99,0.28   c-0.08,0.02-0.15,0.04-0.23,0.06c-0.32,0.09-0.64,0.18-0.96,0.26c-0.3,0.08-0.6,0.16-0.9,0.24c-0.19,0.05-0.37,0.1-0.56,0.15   c-0.32,0.09-0.64,0.17-0.96,0.25c-0.52,0.14-1.04,0.27-1.56,0.4c-0.24,0.06-0.48,0.12-0.71,0.18c-0.02,0-0.03,0.01-0.04,0.01   c-0.04,0.01-0.08,0.02-0.12,0.03c-0.62,0.15-1.25,0.31-1.87,0.45c-0.1,0.02-0.19,0.04-0.29,0.07c-0.07,0.02-0.14,0.03-0.21,0.05   c-0.58,0.14-1.15,0.27-1.73,0.4c-0.14,0.03-0.28,0.06-0.42,0.1c-0.06,0.01-0.12,0.03-0.18,0.04c-0.38,0.09-0.77,0.17-1.16,0.25   c-0.31,0.07-0.62,0.14-0.94,0.2c-0.03,0.01-0.07,0.01-0.1,0.02c-0.13,0.03-0.26,0.05-0.38,0.08c-0.62,0.13-1.24,0.25-1.86,0.38   c-0.15,0.03-0.3,0.06-0.45,0.09c-0.72,0.14-1.45,0.28-2.17,0.41c-0.07,0.01-0.13,0.02-0.2,0.04c-0.1,0.02-0.19,0.03-0.29,0.05   c-0.66,0.12-1.31,0.24-1.97,0.35c-0.01,0-0.03,0.01-0.04,0.01c-0.01,0-0.03,0-0.04,0.01c-0.08,0.01-0.15,0.03-0.23,0.04   c-0.74,0.13-1.49,0.25-2.24,0.36c-0.16,0.03-0.32,0.05-0.49,0.08c-0.09,0.01-0.17,0.03-0.26,0.04   C289.13,446.77,297.47,444.94,305.58,442.63z"/><path class="st0" d="M295.95,445.14c0.1-0.02,0.19-0.04,0.29-0.07c0.63-0.15,1.25-0.3,1.87-0.45c-0.62,0.15-1.25,0.31-1.87,0.45   C296.15,445.09,296.05,445.12,295.95,445.14z"/><path class="st0" d="M300.55,444c-0.52,0.13-1.04,0.27-1.56,0.4c-0.24,0.06-0.48,0.12-0.71,0.18c0.24-0.06,0.48-0.12,0.71-0.18   C299.51,444.27,300.03,444.14,300.55,444c0.32-0.08,0.64-0.17,0.96-0.25c0.19-0.05,0.37-0.1,0.56-0.15   c-0.19,0.05-0.37,0.1-0.56,0.15C301.19,443.83,300.87,443.92,300.55,444z"/><path class="st0" d="M304.16,443.03c0.33-0.09,0.66-0.19,0.99-0.28c0.1-0.03,0.2-0.06,0.3-0.09c-0.1,0.03-0.2,0.06-0.3,0.09   C304.82,442.84,304.49,442.94,304.16,443.03z"/><path class="st0" d="M288.96,446.65c-0.15,0.03-0.3,0.06-0.45,0.09c-0.72,0.14-1.45,0.28-2.17,0.41c-0.07,0.01-0.13,0.02-0.2,0.04   c0.07-0.01,0.13-0.02,0.2-0.04c0.72-0.13,1.45-0.27,2.17-0.41C288.66,446.71,288.81,446.67,288.96,446.65   c0.62-0.12,1.24-0.25,1.86-0.37c0.13-0.03,0.26-0.05,0.38-0.08c-0.13,0.03-0.26,0.05-0.38,0.08   C290.21,446.4,289.59,446.52,288.96,446.65z"/><path class="st0" d="M283.8,447.59c0.01,0,0.03,0,0.04-0.01c0.02,0,0.03-0.01,0.05-0.01c-0.02,0-0.03,0.01-0.05,0.01   C283.82,447.59,283.81,447.59,283.8,447.59z"/><path class="st0" d="M292.25,445.97c0.39-0.08,0.77-0.16,1.16-0.25c0.06-0.01,0.12-0.03,0.18-0.04c-0.06,0.01-0.12,0.03-0.18,0.04   C293.02,445.8,292.64,445.89,292.25,445.97z"/><path class="st0" d="M305.64,442.61c-0.06,0.02-0.12,0.03-0.18,0.05c-0.1,0.03-0.2,0.06-0.3,0.09c0.14-0.04,0.28-0.08,0.42-0.12   C305.6,442.62,305.62,442.62,305.64,442.61z"/><path class="st0" d="M250.86,450.43c-0.29,0-0.58,0-0.86,0c0.22,0,0.43,0,0.65,0C250.72,450.43,250.79,450.43,250.86,450.43z"/><polygon class="st0" points="106.13,111.8 106.13,111.8 105.33,111  "/><path class="st0" d="M122.28,167.14c0,11.79-9.56,21.35-21.35,21.35c-11.79,0-21.35-9.56-21.35-21.35   c0-11.79,9.56-21.35,21.35-21.35C112.72,145.79,122.28,155.35,122.28,167.14z"/><path class="st0" d="M256.54,426.41c-15.14,0.23-30.34-1.49-45.09-5.15c-7.38-1.83-14.64-4.14-21.74-6.9   c-3.55-1.38-7.05-2.89-10.51-4.49c-0.43-0.2-0.87-0.39-1.3-0.6l-1.28-0.63l-2.57-1.27c-0.43-0.21-0.86-0.41-1.28-0.64l-1.26-0.67   l-2.53-1.34c-6.69-3.67-13.17-7.74-19.36-12.23l-2.3-1.71c-0.38-0.29-0.77-0.57-1.15-0.86l-1.13-0.88l-2.26-1.77l-2.22-1.82   l-1.11-0.91l-1.09-0.94l-2.17-1.88c-0.72-0.63-1.42-1.29-2.13-1.93c-0.71-0.64-1.42-1.29-2.1-1.95l-2.08-1.99   c-0.69-0.66-1.35-1.35-2.03-2.03c-1.37-1.34-2.67-2.75-3.99-4.14c-2.6-2.82-5.14-5.69-7.55-8.68l-0.91-1.12l-0.45-0.56l-0.44-0.57   l-1.77-2.28l-0.44-0.57l-0.43-0.58l-0.86-1.16l-0.86-1.16l-0.43-0.58l-0.41-0.59l-1.65-2.36l-0.41-0.59l-0.4-0.6l-0.8-1.2l-0.8-1.2   l-0.4-0.6l-0.39-0.61l-1.54-2.44c-16.23-26.14-25.66-56.61-26.92-87.6l-0.1-2.91c-0.03-0.97-0.03-1.94-0.04-2.91   c-0.04-1.94,0.01-3.88,0.03-5.82c0.11-3.88,0.29-7.76,0.65-11.63c0.66-7.74,1.87-15.44,3.54-23.04c0.19-0.95,0.43-1.9,0.66-2.84   c0.23-0.94,0.44-1.9,0.69-2.84l0.75-2.82c0.13-0.47,0.24-0.94,0.38-1.41l0.41-1.4l0.83-2.8l0.56-1.74c2.9,1.9,6.13,3.31,9.61,4.13   l-0.29,0.81l-0.86,2.62l-0.43,1.31c-0.15,0.44-0.27,0.88-0.4,1.32l-0.79,2.64c-0.26,0.88-0.49,1.77-0.74,2.66   c-0.24,0.89-0.49,1.77-0.7,2.66c-1.79,7.13-3.18,14.38-4.03,21.7c-0.46,3.66-0.74,7.33-0.96,11.02c-0.08,1.84-0.19,3.69-0.2,5.53   c-0.01,0.92-0.04,1.85-0.04,2.77l0.01,2.77c0.28,29.55,8.36,59.12,23.28,84.91l1.42,2.41l0.35,0.6l0.37,0.59l0.74,1.19l0.74,1.19   l0.37,0.59l0.38,0.58l1.53,2.34l0.38,0.58l0.4,0.58l0.79,1.15l0.79,1.15l0.4,0.58l0.41,0.57l1.64,2.26l0.41,0.57l0.43,0.56   l0.85,1.11c2.25,2.98,4.64,5.85,7.08,8.67c1.24,1.39,2.47,2.8,3.76,4.15c0.64,0.68,1.27,1.37,1.92,2.04l1.96,2   c0.65,0.67,1.32,1.32,2,1.97c0.67,0.65,1.34,1.3,2.02,1.95l2.06,1.9l1.03,0.95l1.06,0.92l2.11,1.85l2.16,1.8l1.08,0.9   c0.36,0.3,0.73,0.58,1.1,0.87l2.2,1.74c5.93,4.58,12.16,8.78,18.63,12.59l2.45,1.4l1.22,0.7c0.41,0.24,0.83,0.44,1.24,0.67   l2.49,1.32l1.24,0.66c0.41,0.22,0.84,0.42,1.26,0.63c3.36,1.69,6.77,3.28,10.23,4.75c6.92,2.95,14.04,5.46,21.29,7.5   C226.33,423.97,241.4,426.17,256.54,426.41z"/><path class="st0" d="M160.03,272.67c-0.04,2.67-2.23,4.8-4.9,4.76c-2.67-0.04-4.8-2.23-4.76-4.9c0.04-2.67,2.23-4.8,4.9-4.76   C157.94,267.81,160.07,270.01,160.03,272.67z"/><path class="st0" d="M189.54,331.76c-3.42,0-6.84-0.44-10.16-1.31c-1.66-0.44-3.3-0.98-4.89-1.63c-0.8-0.32-1.59-0.68-2.36-1.05   c-0.1-0.05-0.19-0.09-0.29-0.14l-0.29-0.15l-0.58-0.29c-0.1-0.05-0.19-0.1-0.29-0.15l-0.28-0.15l-0.57-0.31   c-1.5-0.85-2.95-1.79-4.34-2.83l-0.52-0.4c-0.09-0.06-0.17-0.13-0.26-0.2l-0.25-0.2l-0.5-0.41l-0.5-0.42l-0.25-0.21l-0.24-0.22   l-0.48-0.43c-0.16-0.15-0.32-0.29-0.47-0.44c-0.16-0.15-0.32-0.3-0.47-0.45l-0.46-0.46c-0.15-0.15-0.3-0.31-0.45-0.47   c-0.31-0.31-0.59-0.63-0.89-0.95c-0.58-0.65-1.14-1.31-1.68-1.99l-0.3-0.38l-0.1-0.13l-0.39-0.52l-0.1-0.13l-0.1-0.13l-0.19-0.27   l-0.19-0.26l-0.1-0.13l-0.09-0.13l-0.37-0.54l-0.09-0.13l-0.09-0.14l-0.18-0.27l-0.18-0.27l-0.09-0.14l-0.09-0.14l-0.34-0.56   c-3.59-5.97-5.62-12.89-5.8-19.9l-0.01-0.66c0-0.22,0-0.44,0-0.66c0-0.44,0.01-0.88,0.02-1.32c0.04-0.88,0.09-1.75,0.18-2.63   c0.17-1.75,0.47-3.49,0.88-5.2c0.05-0.21,0.1-0.43,0.16-0.64c0.05-0.21,0.11-0.43,0.16-0.64l0.18-0.64   c0.03-0.11,0.06-0.21,0.09-0.32l0.1-0.32l0.2-0.63l0.13-0.39c0.65,0.44,1.38,0.77,2.16,0.97l-0.07,0.18l-0.2,0.59l-0.1,0.29   c-0.03,0.1-0.06,0.2-0.1,0.3l-0.19,0.59c-0.06,0.2-0.12,0.4-0.18,0.6c-0.05,0.2-0.12,0.4-0.17,0.6c-0.43,1.61-0.77,3.24-0.98,4.9   c-0.12,0.83-0.19,1.66-0.25,2.49c-0.02,0.42-0.05,0.83-0.06,1.25c-0.01,0.21-0.02,0.42-0.02,0.63l-0.01,0.63   c-0.03,6.68,1.7,13.4,4.99,19.28l0.31,0.55l0.08,0.14l0.08,0.14l0.16,0.27l0.16,0.27l0.08,0.14l0.09,0.13l0.34,0.54l0.09,0.13   l0.09,0.13l0.18,0.26l0.18,0.26l0.09,0.13l0.09,0.13l0.37,0.52l0.09,0.13l0.09,0.13l0.19,0.26c0.5,0.68,1.03,1.34,1.57,1.99   c0.28,0.32,0.55,0.64,0.84,0.95c0.14,0.16,0.28,0.31,0.43,0.47l0.44,0.46c0.14,0.15,0.3,0.3,0.45,0.45c0.15,0.15,0.3,0.3,0.45,0.45   l0.46,0.44l0.23,0.22l0.24,0.21l0.47,0.43l0.48,0.41l0.24,0.21c0.08,0.07,0.16,0.13,0.25,0.2l0.49,0.4   c1.33,1.06,2.72,2.03,4.17,2.91l0.55,0.32l0.28,0.16c0.09,0.05,0.18,0.1,0.28,0.16l0.56,0.31l0.28,0.15   c0.09,0.05,0.19,0.1,0.28,0.15c0.75,0.39,1.52,0.76,2.3,1.11c1.56,0.69,3.16,1.28,4.79,1.77   C182.73,331.11,186.12,331.65,189.54,331.76z"/><path class="st0" d="M144.62,229c-0.1,6.97-5.83,12.55-12.81,12.44c-6.97-0.1-12.55-5.83-12.45-12.81   c0.1-6.98,5.84-12.55,12.81-12.45C139.15,216.29,144.72,222.02,144.62,229z"/><path class="st0" d="M221.82,383.47c-8.95,0.01-17.93-1.14-26.62-3.43c-4.35-1.14-8.62-2.57-12.8-4.27   c-2.09-0.85-4.14-1.77-6.18-2.75c-0.25-0.12-0.51-0.24-0.76-0.37l-0.75-0.39l-1.5-0.77c-0.25-0.13-0.5-0.25-0.75-0.39l-0.74-0.41   l-1.48-0.81c-3.92-2.23-7.72-4.69-11.35-7.4l-1.35-1.03c-0.23-0.17-0.45-0.34-0.67-0.52l-0.66-0.53l-1.32-1.06l-1.3-1.09   l-0.65-0.55l-0.63-0.56l-1.27-1.13c-0.42-0.38-0.83-0.77-1.24-1.16c-0.41-0.39-0.83-0.77-1.23-1.17l-1.21-1.19   c-0.4-0.4-0.79-0.81-1.19-1.22c-0.8-0.81-1.55-1.65-2.32-2.48c-1.51-1.69-2.99-3.41-4.39-5.2l-0.53-0.67l-0.26-0.33l-0.26-0.34   l-1.02-1.36l-0.26-0.34l-0.25-0.35l-0.49-0.69l-0.5-0.69l-0.25-0.35l-0.24-0.35l-0.96-1.41l-0.24-0.35l-0.23-0.36l-0.46-0.72   l-0.46-0.72l-0.23-0.36l-0.22-0.36l-0.89-1.46c-9.38-15.59-14.69-33.69-15.18-52.03l-0.04-1.72c-0.01-0.57,0-1.15,0-1.72   c-0.01-1.15,0.04-2.29,0.07-3.44c0.1-2.29,0.24-4.59,0.48-6.87c0.45-4.57,1.24-9.11,2.29-13.6c0.12-0.56,0.27-1.12,0.41-1.68   c0.15-0.56,0.28-1.12,0.43-1.67l0.47-1.66c0.08-0.28,0.15-0.56,0.24-0.83l0.25-0.83l0.51-1.65l0.34-1.02   c1.7,1.15,3.6,2.01,5.65,2.52l-0.18,0.48l-0.53,1.54l-0.26,0.77c-0.09,0.26-0.17,0.52-0.25,0.78l-0.49,1.56   c-0.16,0.52-0.3,1.04-0.46,1.56c-0.15,0.52-0.31,1.04-0.44,1.57c-1.12,4.2-2,8.48-2.57,12.8c-0.3,2.16-0.5,4.33-0.66,6.51   c-0.06,1.09-0.14,2.18-0.17,3.27c-0.02,0.55-0.04,1.09-0.05,1.64l-0.02,1.64c-0.09,17.48,4.44,35.03,13.04,50.41l0.82,1.44   l0.2,0.36l0.21,0.35l0.43,0.71l0.43,0.71l0.21,0.35l0.22,0.35l0.89,1.4l0.22,0.35l0.23,0.34l0.46,0.69l0.46,0.69l0.23,0.34   l0.24,0.34l0.95,1.35l0.24,0.34l0.25,0.33l0.49,0.67c1.31,1.78,2.69,3.5,4.11,5.19c0.73,0.83,1.44,1.68,2.19,2.49   c0.38,0.41,0.74,0.82,1.12,1.22l1.15,1.2c0.38,0.41,0.77,0.79,1.16,1.18c0.39,0.39,0.78,0.78,1.18,1.17l1.2,1.14l0.6,0.57   l0.62,0.56l1.23,1.11l1.26,1.08l0.63,0.54c0.21,0.18,0.43,0.35,0.64,0.53l1.29,1.05c3.47,2.76,7.12,5.29,10.91,7.61l1.44,0.85   l0.72,0.42c0.24,0.14,0.48,0.27,0.73,0.41l1.46,0.8l0.73,0.4c0.24,0.13,0.49,0.26,0.74,0.38c1.97,1.03,3.97,2,6.01,2.9   c4.07,1.8,8.26,3.35,12.53,4.62C203.97,381.77,212.86,383.2,221.82,383.47z"/></g></svg>