<?xml version="1.0" ?><svg id="Layer_1" style="enable-background:new 0 0 500 500;" version="1.1" viewBox="0 0 500 500" xml:space="preserve" xmlns="http://www.w3.org/2000/svg" xmlns:xlink="http://www.w3.org/1999/xlink"><style type="text/css">
	.st0{fill:url(#SVGID_1_);}
	.st1{fill:url(#SVGID_2_);}
	.st2{fill:url(#SVGID_3_);}
	.st3{fill:url(#SVGID_4_);}
</style><g><path d="M200.9,370.16c-0.5-0.76-0.94-1.46-1.35-2.14c-1.25-2.02-2.43-4.08-3.54-6.18H73.58V137.5l128.76-67.53L331.1,137.5v56.03   c1.15,0.31,2.3,0.64,3.44,0.98c7.59,2.31,14.93,5.38,21.88,9.16v-81.49L202.34,41.38L48.25,122.18v264.98h165.81   C209.29,382,204.89,376.31,200.9,370.16z"/><path d="M445.74,424.14c-12.37-12.33-24.71-24.7-37.07-37.05c-6.97-6.96-13.94-13.91-21-20.95   c32.36-48.27,19.01-110.88-23.04-143.1c-2.66-2.04-5.4-3.94-8.2-5.69c-8-5.01-16.52-8.86-25.32-11.53   c-35.34-10.75-75.18-2.69-103.81,24.08c-35.87,33.54-43.52,90.09-17.67,131.95c0.39,0.63,0.79,1.26,1.19,1.89   c5.82,8.97,12.54,16.81,20.17,23.44c10.93,9.49,23.72,16.5,38.43,20.81c31.84,9.32,61.82,4.42,89.8-13.39   c0.49,0.45,0.95,0.84,1.37,1.27c7.25,7.24,14.5,14.49,21.75,21.74c11.73,11.74,23.42,23.51,35.2,35.2   c7.95,7.89,20.77,7.73,28.55-0.24C453.78,444.67,453.6,431.98,445.74,424.14z M378.9,309.08c-0.56,20.16-8.86,39.04-22.47,53.01   c-14.02,14.39-33.68,23.6-56.31,23.65c-22.48,0.05-42.58-9.12-56.88-23.9c-14.06-14.53-22.53-34.46-22.17-56.36   c0.71-43.24,35.88-77.66,79.1-77.59c11,0.02,21.45,2.28,30.94,6.35c9.57,4.11,18.16,10.06,25.32,17.39   C370.84,266.39,379.51,286.76,378.9,309.08z"/><linearGradient gradientUnits="userSpaceOnUse" id="SVGID_1_" x1="266.2244" x2="295.3266" y1="325.24" y2="325.24"><stop offset="0.0251" style="stop-color:#C1272D"/><stop offset="1" style="stop-color:#F7931E"/></linearGradient><rect class="st0" height="29.1" width="29.1" x="266.22" y="310.69"/><linearGradient gradientUnits="userSpaceOnUse" id="SVGID_2_" x1="266.2244" x2="295.3266" y1="286.4066" y2="286.4066"><stop offset="0.0251" style="stop-color:#C1272D"/><stop offset="1" style="stop-color:#F7931E"/></linearGradient><rect class="st1" height="29.1" width="29.1" x="266.22" y="271.86"/><linearGradient gradientUnits="userSpaceOnUse" id="SVGID_3_" x1="307.5293" x2="336.6316" y1="325.24" y2="325.24"><stop offset="0.0251" style="stop-color:#C1272D"/><stop offset="1" style="stop-color:#F7931E"/></linearGradient><rect class="st2" height="29.1" width="29.1" x="307.53" y="310.69"/><linearGradient gradientUnits="userSpaceOnUse" id="SVGID_4_" x1="307.5293" x2="336.6316" y1="286.4066" y2="286.4066"><stop offset="0.0251" style="stop-color:#C1272D"/><stop offset="1" style="stop-color:#F7931E"/></linearGradient><rect class="st3" height="29.1" width="29.1" x="307.53" y="271.86"/></g></svg>