<?xml version="1.0" ?><svg id="Layer_1" style="enable-background:new 0 0 500 500;" version="1.1" viewBox="0 0 500 500" xml:space="preserve" xmlns="http://www.w3.org/2000/svg" xmlns:xlink="http://www.w3.org/1999/xlink"><style type="text/css">
	.st0{fill:#2B2B2B;}
	.st1{display:none;fill:none;}
</style><g><path class="st0" d="M346.08,145.64c-26.03,0-47.17-21.12-47.17-47.18V46.62h-97.83v51.83c0,26.06-21.13,47.18-47.18,47.18h-51.82   v222.41l99,57.11l48.93,28.22l54.7-31.56l93.21-53.78V145.64H346.08z M388.5,362.6l-88.63,51.22l-0.95,0.56v-161.5h-97.68v89.59   h-0.15v71.81L111.5,362.6V243.46h76.52v-46.99c0-34.37,27.96-62.33,62.33-62.33s62.33,27.96,62.33,62.33v46.99h75.82V362.6z"/><path class="st0" d="M299.49,192.44v51.02h-98.28v-51.02c0-24.92,20.2-45.1,45.1-45.1h8.09   C279.3,147.33,299.49,167.52,299.49,192.44z"/></g><line class="st1" x1="-1014.38" x2="-1014.38" y1="-229.81" y2="-217.68"/></svg>